<svg width="118" height="98" viewBox="0 0 118 98" fill="none" xmlns="http://www.w3.org/2000/svg">
<g opacity="0.3" filter="url(#filter0_f_345_31768)">
<mask id="mask0_345_31768" style="mask-type:luminance" maskUnits="userSpaceOnUse" x="0" y="30" width="118" height="68">
<path d="M117.444 62.7125L61.0278 30.1406L0.406051 65.1406L56.8222 97.7125L117.444 62.7125Z" fill="white"/>
</mask>
<g mask="url(#mask0_345_31768)">
<mask id="mask1_345_31768" style="mask-type:luminance" maskUnits="userSpaceOnUse" x="12" y="41" width="87" height="50">
<path d="M88.6725 46.7078C101.095 53.88 101.44 65.394 89.4301 72.8201L88.6725 73.2717L76.1057 80.5272L70.6581 88.5601C70.3854 88.9619 69.9728 89.3276 69.444 89.6329C67.3266 90.8553 63.8921 90.8548 61.7757 89.6329L47.2473 81.2502C42.1653 84.1843 33.9258 84.1846 28.8433 81.2502C23.9417 78.4203 23.7668 73.8956 28.3181 70.9455L28.8472 70.6188L14.3547 62.2544C13.8271 61.9498 13.417 61.588 13.1446 61.1892C12.0468 59.581 13.4124 57.7619 16.1982 57.1275L30.0929 53.9649L42.6628 46.7076C55.407 39.3498 75.9492 39.362 88.6725 46.7078ZM42.6502 78.588L33.4443 73.2811C30.9033 74.7481 30.9015 77.1257 33.4443 78.5938C35.8368 79.9752 39.6246 80.055 42.1819 78.8372L42.6502 78.588ZM84.0715 49.3642C73.888 43.4847 57.4649 43.4744 47.2635 49.3642L33.7378 57.1732L20.1243 60.2727L65.2019 86.2982L70.5428 78.4261L84.0323 70.6379L84.7107 70.232C94.2882 64.3093 94.0128 55.1037 84.0715 49.3642Z" fill="#AECAD3"/>
<path d="M30.3775 55.5702L16.5745 59.9975L18.1081 60.8829L25.7765 65.3103L65.6518 88.3323L71.7865 81.2486C72.81 79.4782 76.6942 75.2274 84.0558 72.394C93.2578 68.8521 103.993 57.3411 87.1231 47.601C73.6269 39.8089 53.8938 43.7639 45.7141 46.7155L30.3775 55.5702Z" fill="#AECAD3"/>
<path d="M30.378 78.5903L31.9116 70.6211L47.2483 79.4757L36.5126 82.1321L30.378 78.5903Z" fill="#AECAD3"/>
<path d="M30.3775 55.5702L16.5745 59.9975L18.1081 60.8829L25.7765 65.3103L65.6518 88.3323L71.7865 81.2486C72.81 79.4782 76.6942 75.2274 84.0558 72.394C93.2578 68.8521 103.993 57.3411 87.1231 47.601C73.6269 39.8089 53.8938 43.7639 45.7141 46.7155L30.3775 55.5702Z" fill="#AECAD3"/>
</mask>
<g mask="url(#mask1_345_31768)">
<path fill-rule="evenodd" clip-rule="evenodd" d="M118.559 63.3546L59.2856 29.1328L-5.58367 66.5851L53.6902 100.807L118.559 63.3546ZM46.2685 82.2773L26.5105 70.87L27.8966 70.0698L47.6546 81.477L46.2685 82.2773Z" fill="#AECAD3"/>
</g>
</g>
</g>
<path opacity="0.2" d="M12.9985 59.4193L12.9985 30.6185L98.3232 29.0391L96.7431 54.5032C100.254 66.0203 83.9268 77.2097 75.3241 81.3647C71.3915 89.9323 66.0777 90.7867 63.9124 90.143L44.7758 81.3647C41.6741 83.0033 34.0312 85.2974 28.2727 81.3647C22.5141 77.432 25.8733 72.0012 28.2727 69.7774L12.9985 59.4193Z" fill="url(#paint0_linear_345_31768)"/>
<mask id="mask2_345_31768" style="mask-type:luminance" maskUnits="userSpaceOnUse" x="0" y="0" width="118" height="69">
<path d="M117.444 33.3766L61.0275 0.804688L0.405746 35.8047L56.8219 68.3766L117.444 33.3766Z" fill="white"/>
</mask>
<g mask="url(#mask2_345_31768)">
<mask id="mask3_345_31768" style="mask-type:luminance" maskUnits="userSpaceOnUse" x="12" y="11" width="87" height="51">
<path d="M88.6722 17.3718C101.095 24.5441 101.439 36.0581 89.4298 43.4841L88.6722 43.9357L76.1054 51.1912L70.6578 59.2241C70.3851 59.6259 69.9725 59.9916 69.4437 60.2969C67.3263 61.5194 63.8918 61.5189 61.7754 60.2969L47.247 51.9143C42.165 54.8484 33.9255 54.8487 28.843 51.9143C23.9414 49.0843 23.7665 44.5596 28.3178 41.6096L28.8469 41.2829L14.3544 32.9184C13.8268 32.6138 13.4167 32.252 13.1443 31.8532C12.0465 30.245 13.4121 28.4259 16.1979 27.7916L30.0926 24.6289L42.6625 17.3717C55.4067 10.0138 75.9489 10.026 88.6722 17.3718ZM42.6499 49.252L33.444 43.9451C30.903 45.4122 30.9012 47.7898 33.444 49.2579C35.8365 50.6392 39.6243 50.7191 42.1816 49.5012L42.6499 49.252ZM84.0712 20.0282C73.8877 14.1488 57.4646 14.1385 47.2632 20.0282L33.7375 27.8373L20.124 30.9368L65.2016 56.9623L70.5425 49.0902L84.032 41.302L84.7104 40.8961C94.2879 34.9734 94.0125 25.7678 84.0712 20.0282Z" fill="white"/>
<path d="M30.3772 26.2342L16.5742 30.6615L18.1078 31.547L25.7762 35.9743L65.6515 58.9964L71.7862 51.9127C72.8097 50.1423 76.6939 45.8915 84.0555 43.058C93.2575 39.5162 103.993 28.0052 87.1228 18.2651C73.6266 10.473 53.8935 14.428 45.7138 17.3796L30.3772 26.2342Z" fill="white"/>
<path d="M30.3776 49.2543L31.9113 41.2852L47.248 50.1398L36.5123 52.7962L30.3776 49.2543Z" fill="white"/>
<path d="M30.3772 26.2342L16.5742 30.6615L18.1078 31.547L25.7762 35.9743L65.6515 58.9964L71.7862 51.9127C72.8097 50.1423 76.6939 45.8915 84.0555 43.058C93.2575 39.5162 103.993 28.0052 87.1228 18.2651C73.6266 10.473 53.8935 14.428 45.7138 17.3796L30.3772 26.2342Z" stroke="white"/>
</mask>
<g mask="url(#mask3_345_31768)">
<path fill-rule="evenodd" clip-rule="evenodd" d="M118.559 34.0186L59.2853 -0.203125L-5.58398 37.2492L53.6899 71.471L118.559 34.0186ZM46.2682 52.9414L26.5102 41.5341L27.8963 40.7338L47.6543 52.1411L46.2682 52.9414Z" fill="#284C59"/>
</g>
</g>
<defs>
<filter id="filter0_f_345_31768" x="10.7653" y="39.1953" width="89.4528" height="53.3555" filterUnits="userSpaceOnUse" color-interpolation-filters="sRGB">
<feFlood flood-opacity="0" result="BackgroundImageFix"/>
<feBlend mode="normal" in="SourceGraphic" in2="BackgroundImageFix" result="shape"/>
<feGaussianBlur stdDeviation="1" result="effect1_foregroundBlur_345_31768"/>
</filter>
<linearGradient id="paint0_linear_345_31768" x1="55.8887" y1="4.38105" x2="55.8887" y2="90.1076" gradientUnits="userSpaceOnUse">
<stop offset="0.317708" stop-color="#397489"/>
<stop offset="1" stop-color="#23B5E9" stop-opacity="0"/>
</linearGradient>
</defs>
</svg>
