<svg width="118" height="108" viewBox="0 0 118 108" fill="none" xmlns="http://www.w3.org/2000/svg">
<g opacity="0.15" filter="url(#filter0_f_623_30234)">
<mask id="mask0_623_30234" style="mask-type:luminance" maskUnits="userSpaceOnUse" x="0" y="39" width="118" height="69">
<path d="M117.104 72.4938L60.6877 39.9219L0.0659628 74.9219L56.4821 107.494L117.104 72.4938Z" fill="white"/>
</mask>
<g mask="url(#mask0_623_30234)">
<mask id="mask1_623_30234" style="mask-type:luminance" maskUnits="userSpaceOnUse" x="12" y="50" width="86" height="51">
<path d="M88.3325 56.489C100.755 63.6613 101.1 75.1753 89.09 82.6013L88.3324 83.0529L75.7656 90.3084L70.318 98.3413C70.0453 98.7431 69.6327 99.1088 69.1039 99.4141C66.9865 100.637 63.552 100.636 61.4356 99.4141L46.9072 91.0315C41.8252 93.9655 33.5858 93.9659 28.5032 91.0315C23.6016 88.2015 23.4267 83.6768 27.978 80.7268L28.5072 80.4001L14.0146 72.0356C13.487 71.731 13.0769 71.3692 12.8045 70.9704C11.7067 69.3622 13.0723 67.5431 15.8581 66.9088L29.7528 63.7461L42.3228 56.4888C55.0669 49.131 75.6092 49.1432 88.3325 56.489ZM42.3102 88.3692L33.1042 83.0623C30.5632 84.5293 30.5614 86.907 33.1042 88.3751C35.4967 89.7564 39.2845 89.8363 41.8418 88.6184L42.3102 88.3692ZM83.7315 59.1454C73.5479 53.2659 57.1248 53.2557 46.9234 59.1454L33.3977 66.9545L19.7843 70.054L64.8618 96.0795L70.2027 88.2074L83.6922 80.4192L84.3706 80.0133C93.9481 74.0906 93.6727 64.885 83.7315 59.1454Z" fill="#B4B4C3"/>
<path d="M30.0374 65.3514L16.2344 69.7787L17.768 70.6642L25.4364 75.0915L65.3117 98.1136L71.4464 91.0298C72.47 89.2595 76.3541 85.0087 83.7157 82.1752C92.9177 78.6334 103.653 67.1223 86.7831 57.3823C73.2868 49.5902 53.5537 53.5452 45.374 56.4968L30.0374 65.3514Z" fill="#B4B4C3"/>
<path d="M30.0379 88.3715L31.5715 80.4023L46.9082 89.257L36.1725 91.9134L30.0379 88.3715Z" fill="#B4B4C3"/>
<path d="M30.0374 65.3514L16.2344 69.7787L17.768 70.6642L25.4364 75.0915L65.3117 98.1136L71.4464 91.0298C72.47 89.2595 76.3541 85.0087 83.7157 82.1752C92.9177 78.6334 103.653 67.1223 86.7831 57.3823C73.2868 49.5902 53.5537 53.5452 45.374 56.4968L30.0374 65.3514Z" fill="#B4B4C3"/>
</mask>
<g mask="url(#mask1_623_30234)">
<path fill-rule="evenodd" clip-rule="evenodd" d="M118.219 73.1358L58.9456 38.9141L-5.92376 76.3664L53.3501 110.588L118.219 73.1358ZM45.9284 92.0586L26.1704 80.6513L27.5565 79.851L47.3145 91.2583L45.9284 92.0586Z" fill="#23B5E9"/>
</g>
</g>
</g>
<path opacity="0.2" d="M12.6584 69.2005L12.6584 30.3998L97.9831 28.8203L96.403 64.2845C99.9143 75.8016 83.5867 86.9909 74.984 91.146C71.0514 99.7135 65.7376 100.568 63.5723 99.9242L44.4357 91.146C41.334 92.7846 33.6911 95.0786 27.9326 91.146C22.174 87.2133 25.5332 81.7825 27.9326 79.5586L12.6584 69.2005Z" fill="url(#paint0_linear_623_30234)"/>
<mask id="mask2_623_30234" style="mask-type:luminance" maskUnits="userSpaceOnUse" x="0" y="0" width="118" height="69">
<path d="M117.104 33.1578L60.6877 0.585938L0.0659628 35.5859L56.4821 68.1578L117.104 33.1578Z" fill="white"/>
</mask>
<g mask="url(#mask2_623_30234)">
<mask id="mask3_623_30234" style="mask-type:luminance" maskUnits="userSpaceOnUse" x="12" y="11" width="86" height="50">
<path d="M88.3325 17.1531C100.755 24.3253 101.1 35.8393 89.09 43.2654L88.3324 43.717L75.7656 50.9725L70.318 59.0054C70.0453 59.4072 69.6327 59.7729 69.1039 60.0782C66.9865 61.3007 63.552 61.3001 61.4356 60.0782L46.9072 51.6955C41.8252 54.6296 33.5858 54.63 28.5032 51.6955C23.6016 48.8656 23.4267 44.3409 27.978 41.3909L28.5072 41.0641L14.0146 32.6997C13.487 32.3951 13.0769 32.0333 12.8045 31.6345C11.7067 30.0263 13.0723 28.2072 15.8581 27.5728L29.7528 24.4102L42.3228 17.1529C55.0669 9.79507 75.6092 9.80729 88.3325 17.1531ZM42.3102 49.0333L33.1042 43.7264C30.5632 45.1934 30.5614 47.571 33.1042 49.0391C35.4967 50.4205 39.2845 50.5003 41.8418 49.2825L42.3102 49.0333ZM83.7315 19.8095C73.5479 13.93 57.1248 13.9197 46.9234 19.8095L33.3977 27.6186L19.7843 30.718L64.8618 56.7435L70.2027 48.8714L83.6922 41.0833L84.3706 40.6773C93.9481 34.7547 93.6727 25.5491 83.7315 19.8095Z" fill="white"/>
<path d="M30.0374 26.0155L16.2344 30.4428L17.768 31.3283L25.4364 35.7556L65.3117 58.7776L71.4464 51.6939C72.47 49.9235 76.3541 45.6728 83.7157 42.8393C92.9177 39.2974 103.653 27.7864 86.7831 18.0463C73.2868 10.2542 53.5537 14.2092 45.374 17.1609L30.0374 26.0155Z" fill="white"/>
<path d="M30.0379 49.0356L31.5715 41.0664L46.9082 49.921L36.1725 52.5774L30.0379 49.0356Z" fill="white"/>
<path d="M30.0374 26.0155L16.2344 30.4428L17.768 31.3283L25.4364 35.7556L65.3117 58.7776L71.4464 51.6939C72.47 49.9235 76.3541 45.6728 83.7157 42.8393C92.9177 39.2974 103.653 27.7864 86.7831 18.0463C73.2868 10.2542 53.5537 14.2092 45.374 17.1609L30.0374 26.0155Z" fill="white"/>
</mask>
<g mask="url(#mask3_623_30234)">
<path fill-rule="evenodd" clip-rule="evenodd" d="M118.219 33.7999L58.9456 -0.421875L-5.92376 37.0304L53.3501 71.2522L118.219 33.7999ZM45.9284 52.7226L26.1704 41.3154L27.5565 40.5151L47.3145 51.9224L45.9284 52.7226Z" fill="url(#paint1_linear_623_30234)"/>
</g>
</g>
<defs>
<filter id="filter0_f_623_30234" x="10.4253" y="48.9766" width="89.4526" height="53.3555" filterUnits="userSpaceOnUse" color-interpolation-filters="sRGB">
<feFlood flood-opacity="0" result="BackgroundImageFix"/>
<feBlend mode="normal" in="SourceGraphic" in2="BackgroundImageFix" result="shape"/>
<feGaussianBlur stdDeviation="1" result="effect1_foregroundBlur_623_30234"/>
</filter>
<linearGradient id="paint0_linear_623_30234" x1="55.5486" y1="14.1623" x2="55.5486" y2="99.8889" gradientUnits="userSpaceOnUse">
<stop offset="0.317708" stop-color="#B4B4C3"/>
<stop offset="1" stop-color="#B4B4C3" stop-opacity="0"/>
</linearGradient>
<linearGradient id="paint1_linear_623_30234" x1="88.5825" y1="16.689" x2="56.1478" y2="72.8675" gradientUnits="userSpaceOnUse">
<stop stop-color="#23B5E9"/>
<stop offset="1" stop-color="#00DED0"/>
</linearGradient>
</defs>
</svg>
