<svg width="19" height="21" viewBox="0 0 19 21" fill="none" xmlns="http://www.w3.org/2000/svg">
<g id="Clip path group">
<mask id="mask0_382_29747" style="mask-type:luminance" maskUnits="userSpaceOnUse" x="0" y="0" width="19" height="21">
<g id="clip0_2053_3471">
<path id="Vector" d="M18.3926 0.941406H0V20.7051H18.3926V0.941406Z" fill="white"/>
</g>
</mask>
<g mask="url(#mask0_382_29747)">
<g id="Group">
<g id="Mask group">
<mask id="mask1_382_29747" style="mask-type:luminance" maskUnits="userSpaceOnUse" x="0" y="1" width="19" height="20">
<g id="Group_2">
<path id="Vector_2" d="M9.18369 1.11328C13.2337 1.11328 16.5407 4.30798 16.6797 8.36228L16.6837 8.61328V12.7103L18.0637 15.8663C18.1327 16.0242 18.1687 16.1947 18.1687 16.3671C18.1687 17.0574 17.6087 17.6171 16.9187 17.6171L12.1837 17.6186C12.1837 19.2754 10.8407 20.6186 9.18369 20.6186C7.58569 20.6186 6.27968 19.3696 6.18868 17.7948L6.18269 17.6163L1.45869 17.6171C1.28669 17.6171 1.11769 17.5818 0.960688 17.5136C0.327688 17.2385 0.0366855 16.5023 0.311685 15.8691L1.68369 12.7112V8.61318C1.68369 4.45838 5.0357 1.11328 9.18369 1.11328ZM10.6827 17.6163L7.68369 17.6186C7.68369 18.447 8.35469 19.1186 9.18369 19.1186C9.96369 19.1186 10.6037 18.5237 10.6767 17.763L10.6827 17.6163ZM9.18369 2.61328C5.86369 2.61328 3.18369 5.28748 3.18369 8.61328V13.0229L1.83969 16.1171H16.5357L15.1837 13.0239V8.62608L15.1797 8.40088C15.0687 5.16748 12.4247 2.61328 9.18369 2.61328Z" fill="white"/>
<path id="Vector_3" d="M2.18262 13.1172L1.18262 16.6172H1.68262H4.18262H17.1826L16.1826 13.6172C15.8496 12.9505 15.2826 11.1172 15.6826 9.11719C16.1826 6.61719 14.6826 1.61719 9.18262 1.61719C4.78262 1.61719 2.68262 5.95049 2.18262 8.11719V13.1172Z" fill="white"/>
<path id="Vector_4" d="M8.68262 19.6172L6.68262 17.1172H11.6826L10.6826 19.6172H8.68262Z" fill="white"/>
<path id="Vector_5" d="M2.18262 13.1172L1.18262 16.6172H1.68262H4.18262H17.1826L16.1826 13.6172C15.8496 12.9505 15.2826 11.1172 15.6826 9.11719C16.1826 6.61719 14.6826 1.61719 9.18262 1.61719C4.78262 1.61719 2.68262 5.95049 2.18262 8.11719V13.1172Z" stroke="white"/>
</g>
</mask>
<g mask="url(#mask1_382_29747)">
<g id="Group_3">
<path id="Vector_6" fill-rule="evenodd" clip-rule="evenodd" d="M18.7559 0.941406H-0.568359V22.0898H18.7559V0.941406ZM12.3145 18.068H5.87305V17.6161H12.3145V18.068Z" fill="#23B5E9"/>
</g>
</g>
</g>
</g>
</g>
</g>
</svg>
