<svg width="118" height="98" viewBox="0 0 118 98" fill="none" xmlns="http://www.w3.org/2000/svg">
<g opacity="0.15" filter="url(#filter0_f_623_30260)">
<mask id="mask0_623_30260" style="mask-type:luminance" maskUnits="userSpaceOnUse" x="0" y="29" width="118" height="69">
<path d="M117.175 62.4938L60.759 29.9219L0.137252 64.9219L56.5534 97.4938L117.175 62.4938Z" fill="white"/>
</mask>
<g mask="url(#mask0_623_30260)">
<mask id="mask1_623_30260" style="mask-type:luminance" maskUnits="userSpaceOnUse" x="12" y="40" width="86" height="51">
<path d="M88.4037 46.489C100.826 53.6613 101.171 65.1753 89.1613 72.6013L88.4037 73.0529L75.8369 80.3084L70.3893 88.3413C70.1166 88.7431 69.704 89.1088 69.1752 89.4141C67.0578 90.6366 63.6233 90.6361 61.5069 89.4141L46.9785 81.0315C41.8965 83.9655 33.657 83.9659 28.5745 81.0315C23.6729 78.2015 23.498 73.6768 28.0493 70.7268L28.5784 70.4001L14.0859 62.0356C13.5583 61.731 13.1482 61.3692 12.8758 60.9704C11.778 59.3622 13.1436 57.5431 15.9294 56.9088L29.8241 53.7461L42.394 46.4888C55.1382 39.131 75.6804 39.1432 88.4037 46.489ZM42.3814 78.3692L33.1755 73.0623C30.6345 74.5293 30.6327 76.907 33.1755 78.3751C35.568 79.7564 39.3558 79.8363 41.9131 78.6184L42.3814 78.3692ZM83.8027 49.1454C73.6192 43.2659 57.1961 43.2557 46.9947 49.1454L33.469 56.9545L19.8555 60.054L64.9331 86.0795L70.274 78.2074L83.7635 70.4192L84.4419 70.0133C94.0194 64.0906 93.744 54.885 83.8027 49.1454Z" fill="#B4B4C3"/>
<path d="M30.1087 55.3514L16.3057 59.7787L17.8393 60.6642L25.5077 65.0915L65.383 88.1136L71.5177 81.0298C72.5412 79.2595 76.4254 75.0087 83.787 72.1752C92.989 68.6334 103.725 57.1223 86.8543 47.3823C73.3581 39.5902 53.625 43.5452 45.4453 46.4968L30.1087 55.3514Z" fill="#B4B4C3"/>
<path d="M30.1092 78.3715L31.6428 70.4023L46.9795 79.257L36.2438 81.9134L30.1092 78.3715Z" fill="#B4B4C3"/>
<path d="M30.1087 55.3514L16.3057 59.7787L17.8393 60.6642L25.5077 65.0915L65.383 88.1136L71.5177 81.0298C72.5412 79.2595 76.4254 75.0087 83.787 72.1752C92.989 68.6334 103.725 57.1223 86.8543 47.3823C73.3581 39.5902 53.625 43.5452 45.4453 46.4968L30.1087 55.3514Z" fill="#B4B4C3"/>
</mask>
<g mask="url(#mask1_623_30260)">
<path fill-rule="evenodd" clip-rule="evenodd" d="M118.291 63.1358L59.0168 28.9141L-5.85247 66.3664L53.4214 100.588L118.291 63.1358ZM45.9997 82.0586L26.2417 70.6513L27.6278 69.851L47.3858 81.2583L45.9997 82.0586Z" fill="#23B5E9"/>
</g>
</g>
</g>
<path opacity="0.2" d="M12.7297 59.2005L12.7297 30.3998L98.0544 28.8203L96.4743 54.2845C99.9856 65.8016 83.658 76.9909 75.0553 81.146C71.1227 89.7135 65.8089 90.5679 63.6436 89.9242L44.507 81.146C41.4053 82.7846 33.7624 85.0786 28.0039 81.146C22.2453 77.2133 25.6045 71.7825 28.0039 69.5586L12.7297 59.2005Z" fill="url(#paint0_linear_623_30260)"/>
<mask id="mask2_623_30260" style="mask-type:luminance" maskUnits="userSpaceOnUse" x="0" y="0" width="118" height="69">
<path d="M117.175 33.1578L60.7588 0.585938L0.137008 35.5859L56.5532 68.1578L117.175 33.1578Z" fill="white"/>
</mask>
<g mask="url(#mask2_623_30260)">
<mask id="mask3_623_30260" style="mask-type:luminance" maskUnits="userSpaceOnUse" x="12" y="11" width="86" height="50">
<path d="M88.4035 17.1531C100.826 24.3253 101.171 35.8393 89.1611 43.2654L88.4035 43.717L75.8366 50.9725L70.389 59.0054C70.1163 59.4072 69.7038 59.7729 69.1749 60.0782C67.0576 61.3007 63.6231 61.3001 61.5066 60.0782L46.9782 51.6955C41.8963 54.6296 33.6568 54.63 28.5742 51.6955C23.6726 48.8656 23.4978 44.3409 28.0491 41.3909L28.5782 41.0641L14.0857 32.6997C13.5581 32.3951 13.148 32.0333 12.8756 31.6345C11.7778 30.0263 13.1434 28.2072 15.9291 27.5728L29.8239 24.4102L42.3938 17.1529C55.138 9.79507 75.6802 9.80729 88.4035 17.1531ZM42.3812 49.0333L33.1752 43.7264C30.6343 45.1934 30.6324 47.571 33.1752 49.0391C35.5678 50.4205 39.3556 50.5003 41.9128 49.2825L42.3812 49.0333ZM83.8025 19.8095C73.6189 13.93 57.1958 13.9197 46.9945 19.8095L33.4688 27.6186L19.8553 30.718L64.9328 56.7435L70.2737 48.8714L83.7632 41.0833L84.4417 40.6773C94.0191 34.7547 93.7437 25.5491 83.8025 19.8095Z" fill="white"/>
<path d="M30.1084 26.0155L16.3054 30.4428L17.8391 31.3283L25.5074 35.7556L65.3828 58.7776L71.5174 51.6939C72.541 49.9235 76.4252 45.6728 83.7868 42.8393C92.9888 39.2974 103.724 27.7864 86.8541 18.0463C73.3578 10.2542 53.6248 14.2092 45.4451 17.1609L30.1084 26.0155Z" fill="white"/>
<path d="M30.1089 49.0356L31.6426 41.0664L46.9792 49.921L36.2436 52.5774L30.1089 49.0356Z" fill="white"/>
<path d="M30.1084 26.0155L16.3054 30.4428L17.8391 31.3283L25.5074 35.7556L65.3828 58.7776L71.5174 51.6939C72.541 49.9235 76.4252 45.6728 83.7868 42.8393C92.9888 39.2974 103.724 27.7864 86.8541 18.0463C73.3578 10.2542 53.6248 14.2092 45.4451 17.1609L30.1084 26.0155Z" fill="white"/>
</mask>
<g mask="url(#mask3_623_30260)">
<path fill-rule="evenodd" clip-rule="evenodd" d="M118.29 33.7999L59.0166 -0.421875L-5.85271 37.0304L53.4211 71.2522L118.29 33.7999ZM45.9994 52.7226L26.2415 41.3154L27.6276 40.5151L47.3855 51.9224L45.9994 52.7226Z" fill="url(#paint1_linear_623_30260)"/>
</g>
</g>
<defs>
<filter id="filter0_f_623_30260" x="10.4966" y="38.9766" width="89.4526" height="53.3555" filterUnits="userSpaceOnUse" color-interpolation-filters="sRGB">
<feFlood flood-opacity="0" result="BackgroundImageFix"/>
<feBlend mode="normal" in="SourceGraphic" in2="BackgroundImageFix" result="shape"/>
<feGaussianBlur stdDeviation="1" result="effect1_foregroundBlur_623_30260"/>
</filter>
<linearGradient id="paint0_linear_623_30260" x1="55.6199" y1="4.1623" x2="55.6199" y2="89.8889" gradientUnits="userSpaceOnUse">
<stop offset="0.317708" stop-color="#B4B4C3"/>
<stop offset="1" stop-color="#B4B4C3" stop-opacity="0"/>
</linearGradient>
<linearGradient id="paint1_linear_623_30260" x1="88.6535" y1="16.689" x2="56.2189" y2="72.8675" gradientUnits="userSpaceOnUse">
<stop stop-color="#23B5E9"/>
<stop offset="1" stop-color="#00DED0"/>
</linearGradient>
</defs>
</svg>
