<svg width="118" height="108" viewBox="0 0 118 108" fill="none" xmlns="http://www.w3.org/2000/svg">
<g opacity="0.3" filter="url(#filter0_f_345_31669)">
<mask id="mask0_345_31669" style="mask-type:luminance" maskUnits="userSpaceOnUse" x="0" y="40" width="118" height="68">
<path d="M117.448 72.7125L61.0315 40.1406L0.409713 75.1406L56.8259 107.713L117.448 72.7125Z" fill="white"/>
</mask>
<g mask="url(#mask0_345_31669)">
<mask id="mask1_345_31669" style="mask-type:luminance" maskUnits="userSpaceOnUse" x="12" y="51" width="87" height="50">
<path d="M88.6762 56.7078C101.099 63.88 101.443 75.394 89.4338 82.8201L88.6762 83.2717L76.1093 90.5272L70.6617 98.5601C70.389 98.9619 69.9765 99.3276 69.4477 99.6329C67.3303 100.855 63.8958 100.855 61.7793 99.6329L47.2509 91.2502C42.169 94.1843 33.9295 94.1846 28.8469 91.2502C23.9453 88.4203 23.7705 83.8956 28.3218 80.9455L28.8509 80.6188L14.3584 72.2544C13.8308 71.9498 13.4207 71.588 13.1483 71.1892C12.0505 69.581 13.4161 67.7619 16.2018 67.1275L30.0966 63.9649L42.6665 56.7076C55.4107 49.3498 75.9529 49.362 88.6762 56.7078ZM42.6539 88.588L33.4479 83.2811C30.907 84.7481 30.9051 87.1257 33.4479 88.5938C35.8405 89.9752 39.6283 90.055 42.1855 88.8372L42.6539 88.588ZM84.0752 59.3642C73.8917 53.4847 57.4685 53.4744 47.2672 59.3642L33.7415 67.1732L20.128 70.2727L65.2055 96.2982L70.5464 88.4261L84.0359 80.6379L84.7144 80.232C94.2918 74.3093 94.0164 65.1037 84.0752 59.3642Z" fill="#AECAD3"/>
<path d="M30.3811 65.5702L16.5781 69.9975L18.1118 70.8829L25.7801 75.3103L65.6555 98.3323L71.7901 91.2486C72.8137 89.4782 76.6979 85.2274 84.0595 82.394C93.2615 78.8521 103.997 67.3411 87.1268 57.601C73.6305 49.8089 53.8975 53.7639 45.7178 56.7155L30.3811 65.5702Z" fill="#AECAD3"/>
<path d="M30.3816 88.5903L31.9153 80.6211L47.252 89.4757L36.5163 92.1321L30.3816 88.5903Z" fill="#AECAD3"/>
<path d="M30.3811 65.5702L16.5781 69.9975L18.1118 70.8829L25.7801 75.3103L65.6555 98.3323L71.7901 91.2486C72.8137 89.4782 76.6979 85.2274 84.0595 82.394C93.2615 78.8521 103.997 67.3411 87.1268 57.601C73.6305 49.8089 53.8975 53.7639 45.7178 56.7155L30.3811 65.5702Z" fill="#AECAD3"/>
</mask>
<g mask="url(#mask1_345_31669)">
<path fill-rule="evenodd" clip-rule="evenodd" d="M118.563 73.3546L59.2893 39.1328L-5.58001 76.5851L53.6938 110.807L118.563 73.3546ZM46.2721 92.2773L26.5142 80.87L27.9003 80.0698L47.6582 91.477L46.2721 92.2773Z" fill="#AECAD3"/>
</g>
</g>
</g>
<path opacity="0.2" d="M13.0022 69.4193L13.0022 30.6185L98.3268 29.0391L96.7467 64.5032C100.258 76.0203 83.9305 87.2097 75.3278 91.3647C71.3951 99.9323 66.0814 100.787 63.916 100.143L44.7794 91.3647C41.6778 93.0033 34.0349 95.2974 28.2763 91.3647C22.5178 87.432 25.8769 82.0012 28.2763 79.7774L13.0022 69.4193Z" fill="url(#paint0_linear_345_31669)"/>
<mask id="mask2_345_31669" style="mask-type:luminance" maskUnits="userSpaceOnUse" x="0" y="0" width="118" height="69">
<path d="M117.448 33.3766L61.0314 0.804688L0.409667 35.8047L56.8258 68.3766L117.448 33.3766Z" fill="white"/>
</mask>
<g mask="url(#mask2_345_31669)">
<mask id="mask3_345_31669" style="mask-type:luminance" maskUnits="userSpaceOnUse" x="12" y="11" width="87" height="51">
<path d="M88.6762 17.3718C101.099 24.5441 101.443 36.0581 89.4338 43.4841L88.6762 43.9357L76.1093 51.1912L70.6617 59.2241C70.389 59.6259 69.9764 59.9916 69.4476 60.2969C67.3302 61.5194 63.8957 61.5189 61.7793 60.2969L47.2509 51.9143C42.1689 54.8484 33.9295 54.8487 28.8469 51.9143C23.9453 49.0843 23.7704 44.5596 28.3217 41.6096L28.8509 41.2829L14.3583 32.9184C13.8307 32.6138 13.4206 32.252 13.1483 31.8532C12.0505 30.245 13.416 28.4259 16.2018 27.7916L30.0965 24.6289L42.6665 17.3717C55.4106 10.0138 75.9529 10.026 88.6762 17.3718ZM42.6539 49.252L33.4479 43.9451C30.9069 45.4122 30.9051 47.7898 33.4479 49.2579C35.8404 50.6392 39.6282 50.7191 42.1855 49.5012L42.6539 49.252ZM84.0752 20.0282C73.8916 14.1488 57.4685 14.1385 47.2671 20.0282L33.7414 27.8373L20.128 30.9368L65.2055 56.9623L70.5464 49.0902L84.0359 41.302L84.7144 40.8961C94.2918 34.9734 94.0164 25.7678 84.0752 20.0282Z" fill="white"/>
<path d="M30.3811 26.2342L16.5781 30.6615L18.1117 31.547L25.7801 35.9743L65.6554 58.9964L71.7901 51.9127C72.8137 50.1423 76.6978 45.8915 84.0594 43.058C93.2614 39.5162 103.997 28.0052 87.1268 18.2651C73.6305 10.473 53.8974 14.428 45.7178 17.3796L30.3811 26.2342Z" fill="white"/>
<path d="M30.3816 49.2543L31.9152 41.2852L47.2519 50.1398L36.5162 52.7962L30.3816 49.2543Z" fill="white"/>
<path d="M30.3811 26.2342L16.5781 30.6615L18.1117 31.547L25.7801 35.9743L65.6554 58.9964L71.7901 51.9127C72.8137 50.1423 76.6978 45.8915 84.0594 43.058C93.2614 39.5162 103.997 28.0052 87.1268 18.2651C73.6305 10.473 53.8974 14.428 45.7178 17.3796L30.3811 26.2342Z" stroke="white"/>
</mask>
<g mask="url(#mask3_345_31669)">
<path fill-rule="evenodd" clip-rule="evenodd" d="M118.563 34.0186L59.2893 -0.203125L-5.58006 37.2492L53.6938 71.471L118.563 34.0186ZM46.2721 52.9414L26.5141 41.5341L27.9002 40.7338L47.6582 52.1411L46.2721 52.9414Z" fill="#284C59"/>
</g>
</g>
<defs>
<filter id="filter0_f_345_31669" x="10.7689" y="49.1953" width="89.4528" height="53.3555" filterUnits="userSpaceOnUse" color-interpolation-filters="sRGB">
<feFlood flood-opacity="0" result="BackgroundImageFix"/>
<feBlend mode="normal" in="SourceGraphic" in2="BackgroundImageFix" result="shape"/>
<feGaussianBlur stdDeviation="1" result="effect1_foregroundBlur_345_31669"/>
</filter>
<linearGradient id="paint0_linear_345_31669" x1="55.8924" y1="14.381" x2="55.8924" y2="100.108" gradientUnits="userSpaceOnUse">
<stop offset="0.317708" stop-color="#397489"/>
<stop offset="1" stop-color="#23B5E9" stop-opacity="0"/>
</linearGradient>
</defs>
</svg>
