<svg width="18" height="20" viewBox="0 0 18 20" fill="none" xmlns="http://www.w3.org/2000/svg">
<path id="Vector" d="M8.81769 0.0742188C12.8177 0.0742188 16.2177 3.27422 16.3177 7.27422V7.57422V11.6742L17.7177 14.8742C17.8177 15.0742 17.8177 15.1742 17.8177 15.3742C17.8177 16.0742 17.2177 16.5742 16.6177 16.5742H11.9177C11.9177 18.2742 10.6177 19.5742 8.91769 19.5742C7.31769 19.5742 6.01769 18.3742 5.91769 16.7742V16.5742H1.2177C1.0177 16.5742 0.917696 16.5742 0.717696 16.4742C0.117696 16.1742 -0.18231 15.4742 0.11769 14.8742L1.5177 11.6742V7.57422C1.3177 3.47422 4.61769 0.0742188 8.81769 0.0742188ZM10.3177 16.6742H7.31769C7.31769 17.4742 8.01769 18.1742 8.81769 18.1742C9.61769 18.1742 10.2177 17.5742 10.3177 16.7742V16.6742ZM8.81769 1.57422C5.51769 1.57422 2.81769 4.27422 2.81769 7.57422V11.9742L1.5177 15.0742H16.2177L14.8177 12.0742V7.67422V7.47422C14.7177 4.17422 12.0177 1.57422 8.81769 1.57422Z" fill="#829AAC"/>
</svg>
