<svg width="51" height="56" viewBox="0 0 51 56" fill="none" xmlns="http://www.w3.org/2000/svg">
<g id="Group 1000001125">
<g id="Group">
<g id="Group_2">
<g id="Vector" filter="url(#filter0_d_270_33515)">
<path d="M25.2755 3.12691L5.08097 14.649C4.77975 14.8208 4.59375 15.1411 4.59375 15.4879V38.5122C4.59375 38.859 4.77966 39.1792 5.08097 39.3511L25.2755 50.8731C25.5721 51.0423 25.936 51.0423 26.2327 50.8731L46.4272 39.3511C46.7284 39.1792 46.9144 38.859 46.9144 38.5122V15.4879C46.9144 15.1411 46.7285 14.8208 46.4272 14.649L26.2327 3.12691C25.936 2.9577 25.5721 2.9577 25.2755 3.12691Z" fill="#284C59"/>
</g>
<path id="Vector_2" d="M7.50977 37.381V16.6205L25.7545 6.21094L43.9991 16.6205V37.381L25.7545 47.7906L7.50977 37.381Z" fill="white"/>
</g>
<g id="Group_3">
<g id="Group_4">
<g id="Vector_3" filter="url(#filter1_d_270_33515)">
<path d="M30.4062 29.4158C30.3284 29.035 30.0031 28.7536 29.615 28.7318C29.2279 28.7102 28.8721 28.953 28.7522 29.3226C28.7448 29.3454 27.6966 33.0235 27.6896 33.0486C27.6817 33.0225 26.5952 29.3379 26.5873 29.3145C26.4635 28.9459 26.1067 28.7067 25.7181 28.7326C25.3302 28.7587 25.0078 29.0435 24.9328 29.4336L23.9042 35.1325C23.8332 35.5261 24.0947 35.9029 24.4884 35.974C24.8821 36.0448 25.2588 35.7836 25.3299 35.3898L25.9143 32.1512C25.9194 32.1713 26.881 35.4285 26.8873 35.4473C27.0047 35.797 27.3306 36.0312 27.6991 36.0312C27.7006 36.0312 27.7021 36.0312 27.7035 36.0311C28.0739 36.0292 28.3996 35.7913 28.5139 35.439C28.5196 35.4214 29.4483 32.1679 29.4531 32.1463L30.0744 35.397C30.1495 35.79 30.529 36.0477 30.9218 35.9726C31.3148 35.8975 31.5724 35.5181 31.4973 35.1252L30.4062 29.4158Z" fill="#284C59"/>
</g>
<g id="Vector_4" filter="url(#filter2_d_270_33515)">
<path d="M21.7428 30.2064C22.1429 30.2064 22.4671 29.8822 22.4671 29.4821C22.4671 29.0821 22.1429 28.7578 21.7428 28.7578H19.2995C18.8995 28.7578 18.5752 29.0821 18.5752 29.4821V35.2808C18.5752 35.6808 18.8995 36.0051 19.2995 36.0051H21.7428C22.1429 36.0051 22.4671 35.6808 22.4671 35.2808C22.4671 34.8807 22.1429 34.5564 21.7428 34.5564H20.0238V33.1058H21.5626C21.9627 33.1058 22.2869 32.7816 22.2869 32.3815C22.2869 31.9815 21.9627 31.6572 21.5626 31.6572H20.0238V30.2066H21.7428V30.2064Z" fill="#284C59"/>
</g>
<g id="Vector_5" filter="url(#filter3_d_270_33515)">
<path d="M14.11 28.8164H12.5017C12.1074 28.8144 11.7748 29.1481 11.7774 29.5421V29.5465V29.5467V35.1276C11.7789 35.54 12.0969 35.9441 12.5133 35.9441H12.516C12.5647 35.9439 13.7116 35.9395 14.1699 35.9316C15.8838 35.9017 17.1279 34.4081 17.1279 32.3803C17.1277 30.2485 15.915 28.8164 14.11 28.8164ZM14.1445 34.4829C13.9353 34.4866 13.5684 34.4895 13.2351 34.4917C13.2302 32.8566 13.2299 31.947 13.2273 30.265H14.11C14.3721 30.265 15.679 30.367 15.679 32.3802C15.679 33.4136 15.2045 34.4645 14.1445 34.4829Z" fill="#284C59"/>
</g>
<g id="Vector_6" filter="url(#filter4_d_270_33515)">
<path d="M36.0801 28.7305C34.0673 28.7305 32.4297 30.368 32.4297 32.3809C32.4297 34.3938 34.0672 36.0313 36.0801 36.0313C38.0929 36.0313 39.7306 34.3938 39.7306 32.3809C39.7306 30.368 38.093 28.7305 36.0801 28.7305ZM36.0801 34.5825C34.8661 34.5825 33.8784 33.5949 33.8784 32.3808C33.8784 31.1668 34.8661 30.1791 36.0801 30.1791C37.2942 30.1791 38.2818 31.1668 38.2818 32.3808C38.2818 33.5949 37.2942 34.5825 36.0801 34.5825Z" fill="#284C59"/>
</g>
</g>
<g id="Group_5">
<g id="Vector_7" filter="url(#filter5_d_270_33515)">
<path d="M25.7544 25.9776C29.0458 25.9776 31.7139 23.3094 31.7139 20.0181C31.7139 16.7268 29.0458 14.0586 25.7544 14.0586C22.4631 14.0586 19.7949 16.7268 19.7949 20.0181C19.7949 23.3094 22.4631 25.9776 25.7544 25.9776Z" fill="#284C59"/>
</g>
<path id="Vector_8" d="M24.7227 22.9698V17.0674C24.7227 16.7748 25.0764 16.6282 25.2833 16.8351L28.2344 19.7863C28.3627 19.9145 28.3627 20.1225 28.2344 20.2507L25.2833 23.2019C25.0765 23.4089 24.7227 23.2624 24.7227 22.9698Z" fill="white"/>
</g>
</g>
</g>
</g>
<defs>
<filter id="filter0_d_270_33515" x="0.59375" y="0" width="50.3208" height="56" filterUnits="userSpaceOnUse" color-interpolation-filters="sRGB">
<feFlood flood-opacity="0" result="BackgroundImageFix"/>
<feColorMatrix in="SourceAlpha" type="matrix" values="0 0 0 0 0 0 0 0 0 0 0 0 0 0 0 0 0 0 127 0" result="hardAlpha"/>
<feOffset dy="1"/>
<feGaussianBlur stdDeviation="2"/>
<feComposite in2="hardAlpha" operator="out"/>
<feColorMatrix type="matrix" values="0 0 0 0 0 0 0 0 0 0 0 0 0 0 0 0 0 0 0.06 0"/>
<feBlend mode="normal" in2="BackgroundImageFix" result="effect1_dropShadow_270_33515"/>
<feBlend mode="normal" in="SourceGraphic" in2="effect1_dropShadow_270_33515" result="shape"/>
</filter>
<filter id="filter1_d_270_33515" x="19.8926" y="25.7305" width="15.6177" height="15.3008" filterUnits="userSpaceOnUse" color-interpolation-filters="sRGB">
<feFlood flood-opacity="0" result="BackgroundImageFix"/>
<feColorMatrix in="SourceAlpha" type="matrix" values="0 0 0 0 0 0 0 0 0 0 0 0 0 0 0 0 0 0 127 0" result="hardAlpha"/>
<feOffset dy="1"/>
<feGaussianBlur stdDeviation="2"/>
<feComposite in2="hardAlpha" operator="out"/>
<feColorMatrix type="matrix" values="0 0 0 0 0 0 0 0 0 0 0 0 0 0 0 0 0 0 0.06 0"/>
<feBlend mode="normal" in2="BackgroundImageFix" result="effect1_dropShadow_270_33515"/>
<feBlend mode="normal" in="SourceGraphic" in2="effect1_dropShadow_270_33515" result="shape"/>
</filter>
<filter id="filter2_d_270_33515" x="14.5752" y="25.7578" width="11.8921" height="15.2461" filterUnits="userSpaceOnUse" color-interpolation-filters="sRGB">
<feFlood flood-opacity="0" result="BackgroundImageFix"/>
<feColorMatrix in="SourceAlpha" type="matrix" values="0 0 0 0 0 0 0 0 0 0 0 0 0 0 0 0 0 0 127 0" result="hardAlpha"/>
<feOffset dy="1"/>
<feGaussianBlur stdDeviation="2"/>
<feComposite in2="hardAlpha" operator="out"/>
<feColorMatrix type="matrix" values="0 0 0 0 0 0 0 0 0 0 0 0 0 0 0 0 0 0 0.06 0"/>
<feBlend mode="normal" in2="BackgroundImageFix" result="effect1_dropShadow_270_33515"/>
<feBlend mode="normal" in="SourceGraphic" in2="effect1_dropShadow_270_33515" result="shape"/>
</filter>
<filter id="filter3_d_270_33515" x="7.77734" y="25.8164" width="13.3506" height="15.1289" filterUnits="userSpaceOnUse" color-interpolation-filters="sRGB">
<feFlood flood-opacity="0" result="BackgroundImageFix"/>
<feColorMatrix in="SourceAlpha" type="matrix" values="0 0 0 0 0 0 0 0 0 0 0 0 0 0 0 0 0 0 127 0" result="hardAlpha"/>
<feOffset dy="1"/>
<feGaussianBlur stdDeviation="2"/>
<feComposite in2="hardAlpha" operator="out"/>
<feColorMatrix type="matrix" values="0 0 0 0 0 0 0 0 0 0 0 0 0 0 0 0 0 0 0.06 0"/>
<feBlend mode="normal" in2="BackgroundImageFix" result="effect1_dropShadow_270_33515"/>
<feBlend mode="normal" in="SourceGraphic" in2="effect1_dropShadow_270_33515" result="shape"/>
</filter>
<filter id="filter4_d_270_33515" x="28.4297" y="25.7305" width="15.3008" height="15.3008" filterUnits="userSpaceOnUse" color-interpolation-filters="sRGB">
<feFlood flood-opacity="0" result="BackgroundImageFix"/>
<feColorMatrix in="SourceAlpha" type="matrix" values="0 0 0 0 0 0 0 0 0 0 0 0 0 0 0 0 0 0 127 0" result="hardAlpha"/>
<feOffset dy="1"/>
<feGaussianBlur stdDeviation="2"/>
<feComposite in2="hardAlpha" operator="out"/>
<feColorMatrix type="matrix" values="0 0 0 0 0 0 0 0 0 0 0 0 0 0 0 0 0 0 0.06 0"/>
<feBlend mode="normal" in2="BackgroundImageFix" result="effect1_dropShadow_270_33515"/>
<feBlend mode="normal" in="SourceGraphic" in2="effect1_dropShadow_270_33515" result="shape"/>
</filter>
<filter id="filter5_d_270_33515" x="15.7949" y="11.0586" width="19.9189" height="19.918" filterUnits="userSpaceOnUse" color-interpolation-filters="sRGB">
<feFlood flood-opacity="0" result="BackgroundImageFix"/>
<feColorMatrix in="SourceAlpha" type="matrix" values="0 0 0 0 0 0 0 0 0 0 0 0 0 0 0 0 0 0 127 0" result="hardAlpha"/>
<feOffset dy="1"/>
<feGaussianBlur stdDeviation="2"/>
<feComposite in2="hardAlpha" operator="out"/>
<feColorMatrix type="matrix" values="0 0 0 0 0 0 0 0 0 0 0 0 0 0 0 0 0 0 0.06 0"/>
<feBlend mode="normal" in2="BackgroundImageFix" result="effect1_dropShadow_270_33515"/>
<feBlend mode="normal" in="SourceGraphic" in2="effect1_dropShadow_270_33515" result="shape"/>
</filter>
</defs>
</svg>
