<svg width="52" height="56" viewBox="0 0 52 56" fill="none" xmlns="http://www.w3.org/2000/svg">
<g filter="url(#filter0_d_271_37691)">
<path d="M25.5538 3.12691L5.35929 14.649C5.05807 14.8208 4.87207 15.1411 4.87207 15.4879V38.5122C4.87207 38.859 5.05798 39.1792 5.35929 39.3511L25.5538 50.8731C25.8504 51.0423 26.2144 51.0423 26.511 50.8731L46.7055 39.3511C47.0067 39.1792 47.1927 38.859 47.1927 38.5122V15.4879C47.1927 15.1411 47.0068 14.8208 46.7055 14.649L26.511 3.12691C26.2144 2.9577 25.8504 2.9577 25.5538 3.12691Z" fill="#23B5E9"/>
</g>
<path d="M7.78809 37.381V16.6205L26.0328 6.21094L44.2775 16.6205V37.381L26.0328 47.7906L7.78809 37.381Z" fill="#072333"/>
<g filter="url(#filter1_d_271_37691)">
<path d="M30.6845 29.4158C30.6068 29.035 30.2814 28.7536 29.8933 28.7318C29.5062 28.7102 29.1504 28.953 29.0305 29.3226C29.0231 29.3454 27.9749 33.0235 27.9679 33.0486C27.96 33.0225 26.8735 29.3379 26.8657 29.3145C26.7418 28.9459 26.385 28.7067 25.9964 28.7326C25.6085 28.7587 25.2862 29.0435 25.2111 29.4336L24.1825 35.1325C24.1115 35.5261 24.373 35.9029 24.7667 35.974C25.1604 36.0448 25.5371 35.7836 25.6082 35.3898L26.1926 32.1512C26.1977 32.1713 27.1593 35.4285 27.1656 35.4473C27.283 35.797 27.6089 36.0312 27.9774 36.0312C27.9789 36.0312 27.9804 36.0312 27.9819 36.0311C28.3523 36.0292 28.6779 35.7913 28.7922 35.439C28.7979 35.4214 29.7266 32.1679 29.7314 32.1463L30.3527 35.397C30.4278 35.79 30.8073 36.0477 31.2001 35.9726C31.5931 35.8975 31.8507 35.5181 31.7756 35.1252L30.6845 29.4158Z" fill="#23B5E9"/>
</g>
<g filter="url(#filter2_d_271_37691)">
<path d="M22.0211 30.2064C22.4212 30.2064 22.7455 29.8822 22.7455 29.4821C22.7455 29.0821 22.4212 28.7578 22.0211 28.7578H19.5778C19.1778 28.7578 18.8535 29.0821 18.8535 29.4821V35.2808C18.8535 35.6808 19.1778 36.0051 19.5778 36.0051H22.0211C22.4212 36.0051 22.7455 35.6808 22.7455 35.2808C22.7455 34.8807 22.4212 34.5564 22.0211 34.5564H20.3021V33.1058H21.841C22.241 33.1058 22.5653 32.7816 22.5653 32.3815C22.5653 31.9815 22.241 31.6572 21.841 31.6572H20.3021V30.2066H22.0211V30.2064Z" fill="#23B5E9"/>
</g>
<g filter="url(#filter3_d_271_37691)">
<path d="M14.3884 28.8164H12.78C12.3857 28.8144 12.0531 29.1481 12.0557 29.5421V29.5465V29.5467V35.1276C12.0572 35.54 12.3752 35.9441 12.7916 35.9441H12.7943C12.843 35.9439 13.9899 35.9395 14.4482 35.9316C16.1621 35.9017 17.4062 34.4081 17.4062 32.3803C17.406 30.2485 16.1933 28.8164 14.3884 28.8164ZM14.4228 34.4829C14.2136 34.4866 13.8467 34.4895 13.5134 34.4917C13.5085 32.8566 13.5082 31.947 13.5056 30.265H14.3884C14.6504 30.265 15.9574 30.367 15.9574 32.3802C15.9574 33.4136 15.4828 34.4645 14.4228 34.4829Z" fill="#23B5E9"/>
</g>
<g filter="url(#filter4_d_271_37691)">
<path d="M36.3584 28.7305C34.3456 28.7305 32.708 30.368 32.708 32.3809C32.708 34.3938 34.3455 36.0313 36.3584 36.0313C38.3713 36.0313 40.0089 34.3938 40.0089 32.3809C40.0089 30.368 38.3714 28.7305 36.3584 28.7305ZM36.3584 34.5825C35.1444 34.5825 34.1567 33.5949 34.1567 32.3808C34.1567 31.1668 35.1444 30.1791 36.3584 30.1791C37.5725 30.1791 38.5602 31.1668 38.5602 32.3808C38.5602 33.5949 37.5725 34.5825 36.3584 34.5825Z" fill="#23B5E9"/>
</g>
<g filter="url(#filter5_d_271_37691)">
<path d="M26.0327 25.9776C29.3241 25.9776 31.9922 23.3094 31.9922 20.0181C31.9922 16.7268 29.3241 14.0586 26.0327 14.0586C22.7414 14.0586 20.0732 16.7268 20.0732 20.0181C20.0732 23.3094 22.7414 25.9776 26.0327 25.9776Z" fill="#23B5E9"/>
</g>
<path d="M25.001 22.9698V17.0674C25.001 16.7748 25.3547 16.6282 25.5616 16.8351L28.5128 19.7863C28.641 19.9145 28.641 20.1225 28.5128 20.2507L25.5616 23.2019C25.3548 23.4089 25.001 23.2624 25.001 22.9698Z" fill="#072333"/>
<defs>
<filter id="filter0_d_271_37691" x="0.87207" y="0" width="50.3208" height="56" filterUnits="userSpaceOnUse" color-interpolation-filters="sRGB">
<feFlood flood-opacity="0" result="BackgroundImageFix"/>
<feColorMatrix in="SourceAlpha" type="matrix" values="0 0 0 0 0 0 0 0 0 0 0 0 0 0 0 0 0 0 127 0" result="hardAlpha"/>
<feOffset dy="1"/>
<feGaussianBlur stdDeviation="2"/>
<feComposite in2="hardAlpha" operator="out"/>
<feColorMatrix type="matrix" values="0 0 0 0 0 0 0 0 0 0 0 0 0 0 0 0 0 0 0.06 0"/>
<feBlend mode="normal" in2="BackgroundImageFix" result="effect1_dropShadow_271_37691"/>
<feBlend mode="normal" in="SourceGraphic" in2="effect1_dropShadow_271_37691" result="shape"/>
</filter>
<filter id="filter1_d_271_37691" x="20.1709" y="25.7305" width="15.6177" height="15.3008" filterUnits="userSpaceOnUse" color-interpolation-filters="sRGB">
<feFlood flood-opacity="0" result="BackgroundImageFix"/>
<feColorMatrix in="SourceAlpha" type="matrix" values="0 0 0 0 0 0 0 0 0 0 0 0 0 0 0 0 0 0 127 0" result="hardAlpha"/>
<feOffset dy="1"/>
<feGaussianBlur stdDeviation="2"/>
<feComposite in2="hardAlpha" operator="out"/>
<feColorMatrix type="matrix" values="0 0 0 0 0 0 0 0 0 0 0 0 0 0 0 0 0 0 0.06 0"/>
<feBlend mode="normal" in2="BackgroundImageFix" result="effect1_dropShadow_271_37691"/>
<feBlend mode="normal" in="SourceGraphic" in2="effect1_dropShadow_271_37691" result="shape"/>
</filter>
<filter id="filter2_d_271_37691" x="14.8535" y="25.7578" width="11.8921" height="15.2461" filterUnits="userSpaceOnUse" color-interpolation-filters="sRGB">
<feFlood flood-opacity="0" result="BackgroundImageFix"/>
<feColorMatrix in="SourceAlpha" type="matrix" values="0 0 0 0 0 0 0 0 0 0 0 0 0 0 0 0 0 0 127 0" result="hardAlpha"/>
<feOffset dy="1"/>
<feGaussianBlur stdDeviation="2"/>
<feComposite in2="hardAlpha" operator="out"/>
<feColorMatrix type="matrix" values="0 0 0 0 0 0 0 0 0 0 0 0 0 0 0 0 0 0 0.06 0"/>
<feBlend mode="normal" in2="BackgroundImageFix" result="effect1_dropShadow_271_37691"/>
<feBlend mode="normal" in="SourceGraphic" in2="effect1_dropShadow_271_37691" result="shape"/>
</filter>
<filter id="filter3_d_271_37691" x="8.05566" y="25.8164" width="13.3506" height="15.1289" filterUnits="userSpaceOnUse" color-interpolation-filters="sRGB">
<feFlood flood-opacity="0" result="BackgroundImageFix"/>
<feColorMatrix in="SourceAlpha" type="matrix" values="0 0 0 0 0 0 0 0 0 0 0 0 0 0 0 0 0 0 127 0" result="hardAlpha"/>
<feOffset dy="1"/>
<feGaussianBlur stdDeviation="2"/>
<feComposite in2="hardAlpha" operator="out"/>
<feColorMatrix type="matrix" values="0 0 0 0 0 0 0 0 0 0 0 0 0 0 0 0 0 0 0.06 0"/>
<feBlend mode="normal" in2="BackgroundImageFix" result="effect1_dropShadow_271_37691"/>
<feBlend mode="normal" in="SourceGraphic" in2="effect1_dropShadow_271_37691" result="shape"/>
</filter>
<filter id="filter4_d_271_37691" x="28.708" y="25.7305" width="15.3008" height="15.3008" filterUnits="userSpaceOnUse" color-interpolation-filters="sRGB">
<feFlood flood-opacity="0" result="BackgroundImageFix"/>
<feColorMatrix in="SourceAlpha" type="matrix" values="0 0 0 0 0 0 0 0 0 0 0 0 0 0 0 0 0 0 127 0" result="hardAlpha"/>
<feOffset dy="1"/>
<feGaussianBlur stdDeviation="2"/>
<feComposite in2="hardAlpha" operator="out"/>
<feColorMatrix type="matrix" values="0 0 0 0 0 0 0 0 0 0 0 0 0 0 0 0 0 0 0.06 0"/>
<feBlend mode="normal" in2="BackgroundImageFix" result="effect1_dropShadow_271_37691"/>
<feBlend mode="normal" in="SourceGraphic" in2="effect1_dropShadow_271_37691" result="shape"/>
</filter>
<filter id="filter5_d_271_37691" x="16.0732" y="11.0586" width="19.9189" height="19.918" filterUnits="userSpaceOnUse" color-interpolation-filters="sRGB">
<feFlood flood-opacity="0" result="BackgroundImageFix"/>
<feColorMatrix in="SourceAlpha" type="matrix" values="0 0 0 0 0 0 0 0 0 0 0 0 0 0 0 0 0 0 127 0" result="hardAlpha"/>
<feOffset dy="1"/>
<feGaussianBlur stdDeviation="2"/>
<feComposite in2="hardAlpha" operator="out"/>
<feColorMatrix type="matrix" values="0 0 0 0 0 0 0 0 0 0 0 0 0 0 0 0 0 0 0.06 0"/>
<feBlend mode="normal" in2="BackgroundImageFix" result="effect1_dropShadow_271_37691"/>
<feBlend mode="normal" in="SourceGraphic" in2="effect1_dropShadow_271_37691" result="shape"/>
</filter>
</defs>
</svg>
