<svg width="20" height="21" viewBox="0 0 20 21" fill="none" xmlns="http://www.w3.org/2000/svg">
<path d="M14.7818 2.18786C15.8041 2.18786 16.7845 2.59396 17.5074 3.31683C18.2303 4.03969 18.6364 5.02011 18.6364 6.0424V15.606C18.6364 16.6283 18.2303 17.6087 17.5074 18.3316C16.7845 19.0545 15.8041 19.4606 14.7818 19.4606H5.21818C4.19589 19.4606 3.21547 19.0545 2.49261 18.3316C1.76974 17.6087 1.36364 16.6283 1.36364 15.606V6.0424C1.36364 5.02011 1.76974 4.03969 2.49261 3.31683C3.21547 2.59396 4.19589 2.18786 5.21818 2.18786H14.7818ZM14.7818 0.824219H5.21818C3.83423 0.824219 2.50697 1.37399 1.52837 2.35259C0.54977 3.33119 0 4.65845 0 6.0424V15.606C0 16.99 0.54977 18.3172 1.52837 19.2958C2.50697 20.2744 3.83423 20.8242 5.21818 20.8242H14.7818C16.1658 20.8242 17.493 20.2744 18.4716 19.2958C19.4502 18.3172 20 16.99 20 15.606V6.0424C20 4.65845 19.4502 3.33119 18.4716 2.35259C17.493 1.37399 16.1658 0.824219 14.7818 0.824219Z" fill="#829AAC"/>
<path d="M14.7722 14.0039H5.22674C4.85018 14.0039 4.54492 14.3092 4.54492 14.6858C4.54492 15.0623 4.85018 15.3676 5.22674 15.3676H14.7722C15.1488 15.3676 15.454 15.0623 15.454 14.6858C15.454 14.3092 15.1488 14.0039 14.7722 14.0039Z" fill="#829AAC"/>
<path d="M14.7722 16.7227H5.22674C4.85018 16.7227 4.54492 17.028 4.54492 17.4045C4.54492 17.7811 4.85018 18.0863 5.22674 18.0863H14.7722C15.1488 18.0863 15.454 17.7811 15.454 17.4045C15.454 17.028 15.1488 16.7227 14.7722 16.7227Z" fill="#829AAC"/>
<path d="M10.0005 4.9326C10.6306 4.93261 11.2465 5.11969 11.7701 5.47012C12.2938 5.82055 12.7016 6.31856 12.9419 6.90102C13.1821 7.48349 13.2441 8.12417 13.1198 8.74188C12.9956 9.35953 12.6907 9.92653 12.2439 10.3707C11.7971 10.815 11.2285 11.1166 10.6101 11.2373C9.9917 11.358 9.3513 11.2924 8.7703 11.0488C8.1892 10.8051 7.69352 10.3945 7.34609 9.86893C6.99866 9.34323 6.81512 8.7263 6.81872 8.09624C6.82352 7.25552 7.16087 6.45087 7.75705 5.85809C8.3532 5.26531 9.1598 4.93259 10.0005 4.9326ZM10.0005 3.55078C9.1015 3.55078 8.2227 3.81737 7.47522 4.31683C6.72772 4.81629 6.14512 5.52619 5.80108 6.35677C5.45705 7.18734 5.36703 8.10128 5.54242 8.98303C5.71781 9.86473 6.15072 10.6746 6.78641 11.3103C7.42211 11.946 8.232 12.3789 9.1138 12.5543C9.9955 12.7297 10.9094 12.6397 11.74 12.2957C12.5706 11.9516 13.2805 11.369 13.7799 10.6215C14.2794 9.87403 14.546 8.99523 14.546 8.09624C14.546 6.89071 14.0671 5.73455 13.2147 4.88211C12.3622 4.02968 11.2061 3.55078 10.0005 3.55078Z" fill="#829AAC"/>
<path fill-rule="evenodd" clip-rule="evenodd" d="M7.0957 6.06782L7.77755 5.34766L10.0985 7.5452L13.1036 6.17476L13.5151 7.07709L9.902 8.72483L7.0957 6.06782Z" fill="#829AAC"/>
<path fill-rule="evenodd" clip-rule="evenodd" d="M8.77148 11.3689L9.51688 8.02344L10.4849 8.23914L9.73948 11.5846L8.77148 11.3689Z" fill="#829AAC"/>
</svg>
