<svg width="20" height="21" viewBox="0 0 20 21" fill="none" xmlns="http://www.w3.org/2000/svg">
<path fill-rule="evenodd" clip-rule="evenodd" d="M5.21818 0.824219H14.7818C16.1658 0.824219 17.493 1.37402 18.4716 2.35262C19.4502 3.33122 20 4.65842 20 6.04242V15.606C20 16.99 19.4502 18.3172 18.4716 19.2958C17.493 20.2744 16.1658 20.8242 14.7818 20.8242H5.21818C3.83423 20.8242 2.50697 20.2744 1.52837 19.2958C0.54977 18.3172 0 16.99 0 15.606V6.04242C0 4.65842 0.54977 3.33122 1.52837 2.35262C2.50697 1.37402 3.83423 0.824219 5.21818 0.824219ZM10 4.93332C10.6301 4.93332 11.246 5.12042 11.7696 5.47082C12.0543 5.66132 12.3047 5.89542 12.5126 6.16302L10.1484 7.24122L8.2587 5.45202C8.7725 5.11612 9.3769 4.93332 10 4.93332ZM10.6506 8.66082L13.1277 7.53112C13.2021 7.92982 13.2001 8.34102 13.1193 8.74262C12.995 9.36032 12.6902 9.92722 12.2434 10.3714C11.7966 10.8157 11.2279 11.1173 10.6095 11.238C10.4287 11.2733 10.2459 11.2927 10.0633 11.2963L10.6506 8.66082ZM9.1751 8.38542L7.2321 6.54572C6.96612 7.01482 6.82132 7.54822 6.81818 8.09692C6.81458 8.72702 6.99813 9.34392 7.34556 9.86962C7.6584 10.3429 8.0915 10.723 8.5988 10.9718L9.1751 8.38542ZM10 3.55152C9.101 3.55152 8.2222 3.81812 7.47468 4.31752C6.72719 4.81702 6.14458 5.52692 5.80055 6.35752C5.45651 7.18802 5.3665 8.10202 5.54189 8.98372C5.71727 9.86542 6.15019 10.6754 6.78588 11.3111C7.42157 11.9467 8.2315 12.3797 9.1132 12.555C9.995 12.7304 10.9089 12.6404 11.7395 12.2964C12.57 11.9523 13.2799 11.3697 13.7794 10.6222C14.2789 9.87482 14.5455 8.99592 14.5455 8.09692C14.5455 6.89142 14.0666 5.73522 13.2141 4.88282C12.3617 4.03042 11.2055 3.55152 10 3.55152ZM5.22781 14.006H14.7733C15.1498 14.006 15.4551 14.3113 15.4551 14.6878C15.4551 15.0644 15.1498 15.3697 14.7733 15.3697H5.22781C4.85125 15.3697 4.54599 15.0644 4.54599 14.6878C4.54599 14.3113 4.85125 14.006 5.22781 14.006ZM5.22781 16.7242H14.7733C15.1498 16.7242 15.4551 17.0295 15.4551 17.406C15.4551 17.7826 15.1498 18.0878 14.7733 18.0878H5.22781C4.85125 18.0878 4.54599 17.7826 4.54599 17.406C4.54599 17.0295 4.85125 16.7242 5.22781 16.7242Z" fill="#23B5E9"/>
</svg>
