<svg width="49" height="42" viewBox="0 0 49 42" fill="none" xmlns="http://www.w3.org/2000/svg">
<g clip-path="url(#clip0_271_37718)">
<path d="M20.8843 40.1984V2.85854L18.923 1.28906L16.5035 5.86658L13.6916 6.71669L10.2257 5.08186L5.32126 9.52859L6.89069 12.9944V16.1987L2.90137 18.0951V23.9805L7.41349 26.8577L5.90981 32.4162L11.0098 36.4051L16.1106 35.1627L17.4839 39.6094L20.8843 40.1984Z" fill="#072333"/>
<circle cx="32.1978" cy="10.9185" r="3.09033" fill="#072333"/>
<circle cx="42.728" cy="21.0005" r="3.09033" fill="#072333"/>
<circle cx="31.8726" cy="30.3091" r="3.09033" fill="#072333"/>
<g filter="url(#filter0_d_271_37718)">
<path d="M46.4787 16.783C45.4348 15.739 44.0713 15.2277 42.7078 15.2277C41.3443 15.2277 39.9807 15.739 38.9368 16.783C38.319 17.4008 37.8929 18.1678 37.6372 18.9561H22.9155V12.2663H26.9634C27.2191 13.0546 27.6239 13.8003 28.263 14.4394C29.307 15.4834 30.6705 15.9947 32.034 15.9947C33.3975 15.9947 34.761 15.4834 35.805 14.4394C37.8929 12.3515 37.8929 8.98536 35.805 6.89748C34.761 5.85353 33.3975 5.34222 32.034 5.34222C30.6705 5.34222 29.307 5.85353 28.263 6.89748C27.6452 7.51532 27.2191 8.2823 26.9634 9.07058H22.9155V3.31825V0.0585938H18.2923C16.6518 0.0585938 15.3522 1.4008 15.3522 2.99867V4.78829C14.7983 5.02264 14.2657 5.23569 13.7331 5.47005L12.4335 4.17044C11.283 2.99867 9.49339 2.99867 8.32162 4.12783L4.25238 8.19708C3.71975 8.7297 3.40018 9.49668 3.40018 10.285C3.40018 11.0732 3.71975 11.8189 4.29499 12.3515L5.55198 13.6085C5.27501 14.0985 5.06196 14.6738 4.89152 15.2064H3.10191C1.44013 15.2064 0.140525 16.5486 0.0126953 18.1678V23.7497C0.0126953 25.4115 1.35491 26.7111 2.95278 26.7111H4.74239C4.97674 27.2863 5.18979 27.7763 5.42415 28.3089L4.16716 29.5659C3.0593 30.7164 3.0593 32.6125 4.12455 33.7204L8.19379 37.7896C9.34425 38.9188 11.2404 38.9188 12.3482 37.8322L13.6478 36.5326C14.1805 36.8096 14.7131 37.0226 15.267 37.2144V39.0466C15.267 40.6445 16.5453 41.9441 18.1645 41.9441H22.9155V38.8549V32.0373H26.9634C27.2191 32.8256 27.6239 33.5712 28.263 34.2104C29.307 35.2543 30.6705 35.7657 32.034 35.7657C33.3975 35.7657 34.761 35.2543 35.805 34.2104C37.8929 32.1225 37.8929 28.7563 35.805 26.6684C34.761 25.6245 33.3975 25.1132 32.034 25.1132C30.6705 25.1132 29.307 25.6245 28.263 26.6684C27.6452 27.2863 27.2191 28.0533 26.9634 28.8416H22.9155V22.1518H37.6372C37.8929 22.9401 38.2976 23.6858 38.9368 24.3249C39.9807 25.3688 41.3443 25.8802 42.7078 25.8802C44.0713 25.8802 45.4348 25.3688 46.4787 24.3249C48.5666 22.237 48.5666 18.8708 46.4787 16.783ZM30.5427 9.1558C30.9474 8.751 31.4801 8.53795 32.0553 8.53795C32.6305 8.53795 33.1632 8.751 33.568 9.1558C34.3988 9.98669 34.3988 11.3289 33.568 12.1598C33.1632 12.5646 32.6305 12.7776 32.0553 12.7776C31.4801 12.7776 30.9474 12.5646 30.5427 12.1598C29.7118 11.3289 29.7118 9.98669 30.5427 9.1558ZM30.5427 28.9268C30.9474 28.522 31.4801 28.3089 32.0553 28.3089C32.6305 28.3089 33.1632 28.522 33.568 28.9268C34.3988 29.7577 34.3988 31.0999 33.568 31.9308C33.1632 32.3356 32.6305 32.5486 32.0553 32.5486C31.4801 32.5486 30.9474 32.3356 30.5427 31.9308C29.7118 31.0999 29.7118 29.7577 30.5427 28.9268ZM19.7411 23.9201C19.1445 23.9201 18.6119 23.7497 18.1432 23.4727C17.2697 22.9401 16.6945 21.9601 16.6945 20.8735C16.6945 19.787 17.2697 18.8069 18.1432 18.2743C18.6119 17.9973 19.1445 17.8269 19.7411 17.8269V23.9201ZM18.6332 38.8549V36.1704C18.6332 35.4674 18.1432 34.7856 17.4188 34.6152C16.311 34.3382 15.2244 33.8908 14.2444 33.3156C13.5839 32.9534 12.817 33.0599 12.2843 33.5925L10.4095 35.51L6.78766 31.8882L8.70511 30.0133C9.23773 29.4807 9.32295 28.6711 8.98207 28.0533C8.42814 27.0945 7.98074 26.0293 7.68247 24.8788C7.49072 24.1545 6.83027 23.6645 6.1059 23.6645H3.42148V18.5726H6.1059C6.83027 18.5726 7.49072 18.0826 7.68247 17.3582C7.98074 16.1864 8.42814 15.1212 8.98207 14.1838C9.32295 13.5659 9.19512 12.7989 8.70511 12.2663L6.83027 10.3276L10.4521 6.70573L12.3269 8.60187C12.817 9.13449 13.6265 9.21971 14.2444 8.85753C15.1818 8.32491 16.2684 7.8775 17.4188 7.55793C18.1432 7.38749 18.6332 6.70573 18.6332 6.00267V3.31825H19.7411V14.6312C19.1871 14.6312 18.6545 14.6951 18.1432 14.8442C15.4588 15.5473 13.4987 17.976 13.4987 20.8735C13.4987 23.771 15.4588 26.1997 18.1432 26.9028C18.6545 27.0519 19.1871 27.1159 19.7411 27.1159V38.8549H18.6332ZM44.2204 22.0666C43.8156 22.4714 43.283 22.6844 42.7078 22.6844C42.1325 22.6844 41.5999 22.4714 41.1951 22.0666C40.7903 21.6618 40.5773 21.1292 40.5773 20.5539C40.5773 19.9787 40.7903 19.4461 41.1951 19.0413C41.5999 18.6365 42.1325 18.4234 42.7078 18.4234C43.283 18.4234 43.8156 18.6365 44.2204 19.0413C45.0513 19.8722 45.0513 21.2144 44.2204 22.0453V22.0666Z" fill="#23B5E9"/>
</g>
</g>
<defs>
<filter id="filter0_d_271_37718" x="-3.9873" y="-2.94141" width="56.0317" height="49.8867" filterUnits="userSpaceOnUse" color-interpolation-filters="sRGB">
<feFlood flood-opacity="0" result="BackgroundImageFix"/>
<feColorMatrix in="SourceAlpha" type="matrix" values="0 0 0 0 0 0 0 0 0 0 0 0 0 0 0 0 0 0 127 0" result="hardAlpha"/>
<feOffset dy="1"/>
<feGaussianBlur stdDeviation="2"/>
<feComposite in2="hardAlpha" operator="out"/>
<feColorMatrix type="matrix" values="0 0 0 0 0 0 0 0 0 0 0 0 0 0 0 0 0 0 0.06 0"/>
<feBlend mode="normal" in2="BackgroundImageFix" result="effect1_dropShadow_271_37718"/>
<feBlend mode="normal" in="SourceGraphic" in2="effect1_dropShadow_271_37718" result="shape"/>
</filter>
<clipPath id="clip0_271_37718">
<rect width="48" height="41.8855" fill="white" transform="translate(0.0332031 0.0585938)"/>
</clipPath>
</defs>
</svg>
