<svg width="49" height="42" viewBox="0 0 49 42" fill="none" xmlns="http://www.w3.org/2000/svg">
<g id="Layer_1">
<g clip-path="url(#clip0_270_33513)">
<path id="Vector 253" d="M21.606 40.1984V2.85854L19.6447 1.28906L17.2252 5.86658L14.4133 6.71669L10.9474 5.08186L6.04294 9.52859L7.61237 12.9944V16.1987L3.62305 18.0951V23.9805L8.13517 26.8577L6.63148 32.4162L11.7315 36.4051L16.8323 35.1627L18.2056 39.6094L21.606 40.1984Z" fill="white"/>
<circle id="Ellipse 2" cx="32.9194" cy="10.9185" r="3.09033" fill="white"/>
<circle id="Ellipse 3" cx="43.4497" cy="21.0005" r="3.09033" fill="white"/>
<circle id="Ellipse 4" cx="32.5942" cy="30.3091" r="3.09033" fill="white"/>
<g id="Vector" filter="url(#filter0_d_270_33513)">
<path d="M47.2004 16.783C46.1565 15.739 44.793 15.2277 43.4295 15.2277C42.0659 15.2277 40.7024 15.739 39.6585 16.783C39.0406 17.4008 38.6145 18.1678 38.3589 18.9561H23.6372V12.2663H27.6851C27.9408 13.0546 28.3456 13.8003 28.9847 14.4394C30.0287 15.4834 31.3922 15.9947 32.7557 15.9947C34.1192 15.9947 35.4827 15.4834 36.5267 14.4394C38.6145 12.3515 38.6145 8.98536 36.5267 6.89748C35.4827 5.85353 34.1192 5.34222 32.7557 5.34222C31.3922 5.34222 30.0287 5.85353 28.9847 6.89748C28.3669 7.51532 27.9408 8.2823 27.6851 9.07058H23.6372V3.31825V0.0585938H19.014C17.3735 0.0585938 16.0739 1.4008 16.0739 2.99867V4.78829C15.52 5.02264 14.9874 5.23569 14.4547 5.47005L13.1551 4.17044C12.0047 2.99867 10.2151 2.99867 9.0433 4.12783L4.97406 8.19708C4.44143 8.7297 4.12186 9.49668 4.12186 10.285C4.12186 11.0732 4.44143 11.8189 5.01667 12.3515L6.27366 13.6085C5.99669 14.0985 5.78364 14.6738 5.6132 15.2064H3.82359C2.16181 15.2064 0.862205 16.5486 0.734375 18.1678V23.7497C0.734375 25.4115 2.07659 26.7111 3.67445 26.7111H5.46407C5.69842 27.2863 5.91147 27.7763 6.14583 28.3089L4.88884 29.5659C3.78098 30.7164 3.78098 32.6125 4.84623 33.7204L8.91547 37.7896C10.0659 38.9188 11.9621 38.9188 13.0699 37.8322L14.3695 36.5326C14.9022 36.8096 15.4348 37.0226 15.9887 37.2144V39.0466C15.9887 40.6445 17.267 41.9441 18.8862 41.9441H23.6372V38.8549V32.0373H27.6851C27.9408 32.8256 28.3456 33.5712 28.9847 34.2104C30.0287 35.2543 31.3922 35.7657 32.7557 35.7657C34.1192 35.7657 35.4827 35.2543 36.5267 34.2104C38.6145 32.1225 38.6145 28.7563 36.5267 26.6684C35.4827 25.6245 34.1192 25.1132 32.7557 25.1132C31.3922 25.1132 30.0287 25.6245 28.9847 26.6684C28.3669 27.2863 27.9408 28.0533 27.6851 28.8416H23.6372V22.1518H38.3589C38.6145 22.9401 39.0193 23.6858 39.6585 24.3249C40.7024 25.3688 42.0659 25.8802 43.4295 25.8802C44.793 25.8802 46.1565 25.3688 47.2004 24.3249C49.2883 22.237 49.2883 18.8708 47.2004 16.783ZM31.2643 9.1558C31.6691 8.751 32.2018 8.53795 32.777 8.53795C33.3522 8.53795 33.8848 8.751 34.2896 9.1558C35.1205 9.98669 35.1205 11.3289 34.2896 12.1598C33.8848 12.5646 33.3522 12.7776 32.777 12.7776C32.2018 12.7776 31.6691 12.5646 31.2643 12.1598C30.4334 11.3289 30.4334 9.98669 31.2643 9.1558ZM31.2643 28.9268C31.6691 28.522 32.2018 28.3089 32.777 28.3089C33.3522 28.3089 33.8848 28.522 34.2896 28.9268C35.1205 29.7577 35.1205 31.0999 34.2896 31.9308C33.8848 32.3356 33.3522 32.5486 32.777 32.5486C32.2018 32.5486 31.6691 32.3356 31.2643 31.9308C30.4334 31.0999 30.4334 29.7577 31.2643 28.9268ZM20.4627 23.9201C19.8662 23.9201 19.3336 23.7497 18.8649 23.4727C17.9914 22.9401 17.4161 21.9601 17.4161 20.8735C17.4161 19.787 17.9914 18.8069 18.8649 18.2743C19.3336 17.9973 19.8662 17.8269 20.4627 17.8269V23.9201ZM19.3549 38.8549V36.1704C19.3549 35.4674 18.8649 34.7856 18.1405 34.6152C17.0326 34.3382 15.9461 33.8908 14.9661 33.3156C14.3056 32.9534 13.5386 33.0599 13.006 33.5925L11.1312 35.51L7.50934 31.8882L9.42679 30.0133C9.95941 29.4807 10.0446 28.6711 9.70375 28.0533C9.14982 27.0945 8.70242 26.0293 8.40415 24.8788C8.2124 24.1545 7.55195 23.6645 6.82758 23.6645H4.14316V18.5726H6.82758C7.55195 18.5726 8.2124 18.0826 8.40415 17.3582C8.70242 16.1864 9.14982 15.1212 9.70375 14.1838C10.0446 13.5659 9.9168 12.7989 9.42679 12.2663L7.55195 10.3276L11.1738 6.70573L13.0486 8.60187C13.5386 9.13449 14.3482 9.21971 14.9661 8.85753C15.9035 8.32491 16.99 7.8775 18.1405 7.55793C18.8649 7.38749 19.3549 6.70573 19.3549 6.00267V3.31825H20.4627V14.6312C19.9088 14.6312 19.3762 14.6951 18.8649 14.8442C16.1804 15.5473 14.2204 17.976 14.2204 20.8735C14.2204 23.771 16.1804 26.1997 18.8649 26.9028C19.3762 27.0519 19.9088 27.1159 20.4627 27.1159V38.8549H19.3549ZM44.9421 22.0666C44.5373 22.4714 44.0047 22.6844 43.4295 22.6844C42.8542 22.6844 42.3216 22.4714 41.9168 22.0666C41.512 21.6618 41.299 21.1292 41.299 20.5539C41.299 19.9787 41.512 19.4461 41.9168 19.0413C42.3216 18.6365 42.8542 18.4234 43.4295 18.4234C44.0047 18.4234 44.5373 18.6365 44.9421 19.0413C45.773 19.8722 45.773 21.2144 44.9421 22.0453V22.0666Z" fill="#284C59"/>
</g>
</g>
</g>
<defs>
<filter id="filter0_d_270_33513" x="-3.26562" y="-2.94141" width="56.0317" height="49.8867" filterUnits="userSpaceOnUse" color-interpolation-filters="sRGB">
<feFlood flood-opacity="0" result="BackgroundImageFix"/>
<feColorMatrix in="SourceAlpha" type="matrix" values="0 0 0 0 0 0 0 0 0 0 0 0 0 0 0 0 0 0 127 0" result="hardAlpha"/>
<feOffset dy="1"/>
<feGaussianBlur stdDeviation="2"/>
<feComposite in2="hardAlpha" operator="out"/>
<feColorMatrix type="matrix" values="0 0 0 0 0 0 0 0 0 0 0 0 0 0 0 0 0 0 0.06 0"/>
<feBlend mode="normal" in2="BackgroundImageFix" result="effect1_dropShadow_270_33513"/>
<feBlend mode="normal" in="SourceGraphic" in2="effect1_dropShadow_270_33513" result="shape"/>
</filter>
<clipPath id="clip0_270_33513">
<rect x="0.754883" y="0.0585938" width="48" height="41.8855" fill="white"/>
</clipPath>
</defs>
</svg>
