<svg width="121" height="91" viewBox="0 0 121 91" fill="none" xmlns="http://www.w3.org/2000/svg">
<g opacity="0.15" filter="url(#filter0_f_345_31917)">
<path fill-rule="evenodd" clip-rule="evenodd" d="M75.7004 29.9561L104.391 46.5208C108.543 48.918 110.875 52.169 110.875 55.559C110.875 58.949 108.543 62.2 104.391 64.5972L75.7005 81.1618C71.5485 83.559 65.9175 84.9055 60.0459 84.9055C54.1743 84.9055 48.5433 83.559 44.3913 81.1618L15.7004 64.5971C11.5486 62.2001 9.21621 58.9489 9.21621 55.5589C9.21621 52.169 11.5485 48.918 15.7005 46.5208L44.3913 29.9562C48.5433 27.559 54.1742 26.2125 60.0458 26.2125C65.9174 26.2124 71.5486 27.559 75.7004 29.9561ZM77.7186 45.3556C79.6089 46.447 80.8953 47.8378 81.4149 49.3517C81.6975 50.1747 81.7464 51.0139 81.5673 51.8375L71.2401 49.6101L70.9386 43.238C73.4877 43.5462 75.8493 44.2764 77.7186 45.3556ZM68.4879 52.9387L79.3083 55.2725C78.3354 56.0919 77.0958 56.8007 75.6486 57.3563C73.4226 58.2109 70.8075 58.6649 68.1345 58.6604C65.4612 58.6561 62.8503 58.1934 60.633 57.3314C59.9847 57.0794 59.3781 56.7964 58.8195 56.4863L68.4879 52.9387ZM64.8876 49.9061L64.5777 43.3543C62.3725 43.7061 60.3379 44.3792 58.6823 45.3241C56.7812 46.4092 55.4812 47.7956 54.9464 49.3079C54.465 50.6696 54.624 52.0781 55.3995 53.3877L64.8876 49.9061ZM81.864 42.9623C79.167 41.4052 75.7308 40.3448 71.99 39.9151C68.2491 39.4855 64.3715 39.706 60.8476 40.5488C57.324 41.3913 54.312 42.8185 52.1931 44.6495C50.0741 46.4804 48.9429 48.6332 48.9428 50.8353C48.9431 53.0372 50.0739 55.1901 52.1931 57.0208C54.3123 58.852 57.324 60.279 60.8478 61.1218C64.3716 61.9643 68.2491 62.1848 71.9901 61.7552C75.7308 61.3258 79.1673 60.2653 81.8643 58.7082C85.4808 56.6202 87.5127 53.7881 87.5124 50.8352C87.5124 47.8824 85.4805 45.0503 81.864 42.9623ZM36.1839 52.8043L64.8204 69.3376C65.9499 69.9897 65.9499 71.0473 64.8204 71.6994C63.6906 72.3517 61.8588 72.3517 60.7293 71.6996L32.0928 55.1663C30.9631 54.5141 30.9633 53.4566 32.0931 52.8043C33.2226 52.1522 35.0542 52.1521 36.1839 52.8043ZM28.0293 57.5124L56.6658 74.0457C57.7953 74.6978 57.7953 75.7554 56.6658 76.4075C55.536 77.0598 53.7045 77.0596 52.575 76.4075L23.9385 59.8742C22.8089 59.222 22.8087 58.1647 23.9385 57.5124C25.068 56.8603 26.8996 56.8602 28.0293 57.5124Z" fill="#23B5E9"/>
</g>
<path opacity="0.2" d="M110.984 36.9062V55.6165C110.984 55.6165 110.984 62.5996 88.78 73.4964C68.1917 87.5985 60.5527 85.1283 60.5527 85.1283C59.6188 84.6302 51.2122 86.5425 35.8976 75.6025C9.58354 62.8281 10.637 60.5663 9.20508 56.5815L9.74852 36.9062L60.5527 61.9648L110.984 36.9062Z" fill="url(#paint0_linear_345_31917)"/>
<path fill-rule="evenodd" clip-rule="evenodd" d="M75.7004 9.20221L104.391 25.7669C108.543 28.164 110.875 31.4151 110.875 34.8051C110.875 38.195 108.543 41.4461 104.391 43.8433L75.7005 60.4079C71.5485 62.8051 65.9175 64.1516 60.0459 64.1516C54.1743 64.1516 48.5433 62.8051 44.3913 60.4079L15.7004 43.8432C11.5486 41.4462 9.21621 38.195 9.21621 34.805C9.21621 31.4151 11.5485 28.164 15.7005 25.7669L44.3913 9.20225C48.5433 6.80509 54.1742 5.45854 60.0458 5.45854C65.9174 5.45854 71.5486 6.80514 75.7004 9.20221ZM77.7186 24.6017C79.6089 25.6931 80.8953 27.0839 81.4149 28.5978C81.6975 29.4208 81.7464 30.26 81.5673 31.0836L71.2401 28.8562L70.9386 22.4841C73.4877 22.7923 75.8493 23.5225 77.7186 24.6017ZM68.4879 32.1848L79.3083 34.5186C78.3354 35.338 77.0958 36.0468 75.6486 36.6024C73.4226 37.457 70.8075 37.911 68.1345 37.9065C65.4612 37.9022 62.8503 37.4395 60.633 36.5775C59.9847 36.3255 59.3781 36.0425 58.8195 35.7324L68.4879 32.1848ZM64.8876 29.1522L64.5777 22.6004C62.3725 22.9522 60.3379 23.6252 58.6823 24.5702C56.7812 25.6553 55.4812 27.0417 54.9464 28.554C54.465 29.9157 54.624 31.3242 55.3995 32.6338L64.8876 29.1522ZM81.864 22.2084C79.167 20.6513 75.7308 19.5909 71.99 19.1612C68.2491 18.7316 64.3715 18.9521 60.8476 19.7949C57.324 20.6374 54.312 22.0646 52.1931 23.8956C50.0741 25.7265 48.9429 27.8793 48.9428 30.0814C48.9431 32.2833 50.0739 34.4362 52.1931 36.2669C54.3123 38.0981 57.324 39.5251 60.8478 40.3679C64.3716 41.2104 68.2491 41.4309 71.9901 41.0013C75.7308 40.5719 79.1673 39.5114 81.8643 37.9543C85.4808 35.8663 87.5127 33.0342 87.5124 30.0813C87.5124 27.1285 85.4805 24.2964 81.864 22.2084ZM36.1839 32.0504L64.8204 48.5837C65.9499 49.2358 65.9499 50.2934 64.8204 50.9455C63.6906 51.5978 61.8588 51.5978 60.7293 50.9457L32.0928 34.4124C30.9631 33.7602 30.9633 32.7027 32.0931 32.0504C33.2226 31.3983 35.0542 31.3982 36.1839 32.0504ZM28.0293 36.7585L56.6658 53.2918C57.7953 53.9439 57.7953 55.0015 56.6658 55.6536C55.536 56.3059 53.7045 56.3057 52.575 55.6536L23.9385 39.1203C22.8089 38.4681 22.8087 37.4108 23.9385 36.7585C25.068 36.1063 26.8996 36.1063 28.0293 36.7585Z" fill="url(#paint1_linear_345_31917)"/>
<defs>
<filter id="filter0_f_345_31917" x="7.21619" y="24.2109" width="105.659" height="62.6953" filterUnits="userSpaceOnUse" color-interpolation-filters="sRGB">
<feFlood flood-opacity="0" result="BackgroundImageFix"/>
<feBlend mode="normal" in="SourceGraphic" in2="BackgroundImageFix" result="shape"/>
<feGaussianBlur stdDeviation="1" result="effect1_foregroundBlur_345_31917"/>
</filter>
<linearGradient id="paint0_linear_345_31917" x1="60.3661" y1="14.898" x2="60.3661" y2="85.1276" gradientUnits="userSpaceOnUse">
<stop offset="0.317708" stop-color="#B4B4C3"/>
<stop offset="1" stop-color="#B4B4C3" stop-opacity="0"/>
</linearGradient>
<linearGradient id="paint1_linear_345_31917" x1="90.0459" y1="17.4846" x2="60.0459" y2="69.4461" gradientUnits="userSpaceOnUse">
<stop stop-color="#23B5E9"/>
<stop offset="1" stop-color="#00DED0"/>
</linearGradient>
</defs>
</svg>
