<svg width="121" height="91" viewBox="0 0 121 91" fill="none" xmlns="http://www.w3.org/2000/svg">
<g opacity="0.3" filter="url(#filter0_f_261_30188)">
<path fill-rule="evenodd" clip-rule="evenodd" d="M76.5793 29.96L105.27 46.5247C109.422 48.9219 111.754 52.1729 111.754 55.5629C111.754 58.9529 109.422 62.2039 105.27 64.6011L76.5794 81.1657C72.4274 83.5629 66.7964 84.9094 60.9248 84.9094C55.0532 84.9094 49.4222 83.5629 45.2702 81.1657L16.5793 64.601C12.4275 62.204 10.0951 58.9528 10.0951 55.5628C10.0951 52.1729 12.4274 48.9219 16.5794 46.5247L45.2702 29.9601C49.4222 27.5629 55.0531 26.2164 60.9247 26.2164C66.7963 26.2164 72.4275 27.563 76.5793 29.96ZM78.5975 45.3596C80.4878 46.4509 81.7742 47.8418 82.2938 49.3556C82.5764 50.1786 82.6253 51.0178 82.4462 51.8414L72.119 49.614L71.8175 43.2419C74.3666 43.5501 76.7282 44.2803 78.5975 45.3596ZM69.3668 52.9426L80.1872 55.2764C79.2143 56.0958 77.9747 56.8046 76.5275 57.3602C74.3015 58.2148 71.6864 58.6688 69.0134 58.6643C66.3401 58.66 63.7292 58.1973 61.5119 57.3353C60.8636 57.0833 60.257 56.8003 59.6984 56.4902L69.3668 52.9426ZM65.7665 49.91L65.4566 43.3582C63.2514 43.71 61.2168 44.3831 59.5612 45.328C57.6601 46.4131 56.3601 47.7995 55.8253 49.3118C55.3439 50.6735 55.5029 52.082 56.2784 53.3916L65.7665 49.91ZM82.7429 42.9662C80.0459 41.4091 76.6097 40.3487 72.8689 39.919C69.128 39.4894 65.2504 39.7099 61.7266 40.5527C58.2029 41.3953 55.1909 42.8224 53.072 44.6534C50.953 46.4843 49.8218 48.6371 49.8217 50.8392C49.822 53.0411 50.9528 55.194 53.072 57.0247C55.1912 58.8559 58.2029 60.2829 61.7267 61.1257C65.2505 61.9682 69.128 62.1887 72.869 61.7591C76.6097 61.3298 80.0462 60.2692 82.7432 58.7121C86.3597 56.6241 88.3916 53.792 88.3913 50.8391C88.3913 47.8863 86.3594 45.0542 82.7429 42.9662ZM37.0628 52.8083L65.6993 69.3415C66.8288 69.9936 66.8288 71.0512 65.6993 71.7034C64.5695 72.3556 62.7377 72.3556 61.6082 71.7035L32.9717 55.1703C31.842 54.518 31.8422 53.4605 32.972 52.8082C34.1015 52.1561 35.9332 52.156 37.0628 52.8083ZM28.9082 57.5163L57.5447 74.0496C58.6742 74.7017 58.6742 75.7593 57.5447 76.4114C56.4149 77.0637 54.5834 77.0635 53.4539 76.4114L24.8174 59.8781C23.6878 59.2259 23.6876 58.1686 24.8174 57.5163C25.9469 56.8642 27.7786 56.8641 28.9082 57.5163Z" fill="#AECAD3"/>
</g>
<path opacity="0.2" d="M111.863 36.9062V55.6165C111.863 55.6165 111.863 62.5996 89.6589 73.4964C69.0706 87.5985 61.4316 85.1283 61.4316 85.1283C60.4977 84.6302 52.0911 86.5425 36.7766 75.6025C10.4624 62.8281 11.5159 60.5663 10.084 56.5815L10.6274 36.9062L61.4316 44.2233L111.863 36.9062Z" fill="url(#paint0_linear_261_30188)"/>
<path d="M67.0219 15.6289L15.5638 36.311L55.303 59.4684L102.73 30.2939L67.0219 15.6289Z" fill="#D3E4EA"/>
<path fill-rule="evenodd" clip-rule="evenodd" d="M76.5793 9.20612L105.27 25.7708C109.422 28.168 111.754 31.419 111.754 34.809C111.754 38.199 109.422 41.45 105.27 43.8472L76.5794 60.4118C72.4274 62.809 66.7964 64.1555 60.9248 64.1555C55.0532 64.1555 49.4222 62.809 45.2702 60.4118L16.5793 43.8471C12.4275 41.4501 10.0951 38.1989 10.0951 34.8089C10.0951 31.419 12.4274 28.168 16.5794 25.7708L45.2702 9.20616C49.4222 6.809 55.0531 5.46245 60.9247 5.46245C66.7963 5.46245 72.4275 6.80905 76.5793 9.20612ZM78.5975 24.6056C80.4878 25.697 81.7742 27.0878 82.2938 28.6017C82.5764 29.4247 82.6253 30.2639 82.4462 31.0875L72.119 28.8601L71.8175 22.488C74.3666 22.7962 76.7282 23.5264 78.5975 24.6056ZM69.3668 32.1887L80.1872 34.5225C79.2143 35.3419 77.9747 36.0507 76.5275 36.6063C74.3015 37.4609 71.6864 37.9149 69.0134 37.9104C66.3401 37.9061 63.7292 37.4434 61.5119 36.5814C60.8636 36.3294 60.257 36.0464 59.6984 35.7363L69.3668 32.1887ZM65.7665 29.1561L65.4566 22.6043C63.2514 22.9561 61.2168 23.6292 59.5612 24.5741C57.6601 25.6592 56.3601 27.0456 55.8253 28.5579C55.3439 29.9196 55.5029 31.3281 56.2784 32.6377L65.7665 29.1561ZM82.7429 22.2123C80.0459 20.6552 76.6097 19.5948 72.8689 19.1651C69.128 18.7355 65.2504 18.956 61.7266 19.7988C58.2029 20.6413 55.1909 22.0685 53.072 23.8995C50.953 25.7304 49.8218 27.8832 49.8217 30.0853C49.822 32.2872 50.9528 34.4401 53.072 36.2708C55.1912 38.102 58.2029 39.529 61.7267 40.3718C65.2505 41.2143 69.128 41.4348 72.869 41.0052C76.6097 40.5758 80.0462 39.5153 82.7432 37.9582C86.3597 35.8702 88.3916 33.0381 88.3913 30.0852C88.3913 27.1324 86.3594 24.3003 82.7429 22.2123ZM37.0628 32.0543L65.6993 48.5876C66.8288 49.2397 66.8288 50.2973 65.6993 50.9494C64.5695 51.6017 62.7377 51.6017 61.6082 50.9496L32.9717 34.4163C31.842 33.7641 31.8422 32.7066 32.972 32.0543C34.1015 31.4022 35.9332 31.4021 37.0628 32.0543ZM28.9082 36.7624L57.5447 53.2957C58.6742 53.9478 58.6742 55.0054 57.5447 55.6575C56.4149 56.3098 54.5834 56.3096 53.4539 55.6575L24.8174 39.1242C23.6878 38.472 23.6876 37.4147 24.8174 36.7624C25.9469 36.1103 27.7786 36.1102 28.9082 36.7624Z" fill="#284C59"/>
<defs>
<filter id="filter0_f_261_30188" x="8.09512" y="24.2148" width="105.659" height="62.6953" filterUnits="userSpaceOnUse" color-interpolation-filters="sRGB">
<feFlood flood-opacity="0" result="BackgroundImageFix"/>
<feBlend mode="normal" in="SourceGraphic" in2="BackgroundImageFix" result="shape"/>
<feGaussianBlur stdDeviation="1" result="effect1_foregroundBlur_261_30188"/>
</filter>
<linearGradient id="paint0_linear_261_30188" x1="61.245" y1="14.898" x2="61.245" y2="85.1276" gradientUnits="userSpaceOnUse">
<stop offset="0.317708" stop-color="#397489"/>
<stop offset="1" stop-color="#23B5E9" stop-opacity="0"/>
</linearGradient>
</defs>
</svg>
