<svg width="121" height="101" viewBox="0 0 121 101" fill="none" xmlns="http://www.w3.org/2000/svg">
<g opacity="0.15" filter="url(#filter0_f_271_37580)">
<path fill-rule="evenodd" clip-rule="evenodd" d="M75.929 40.0889L104.62 56.6536C108.772 59.0508 111.104 62.3018 111.104 65.6918C111.104 69.0818 108.772 72.3328 104.62 74.73L75.929 91.2946C71.777 93.6918 66.146 95.0383 60.2744 95.0383C54.4028 95.0383 48.7718 93.6918 44.6198 91.2946L15.929 74.73C11.7771 72.3329 9.44473 69.0817 9.44473 65.6917C9.44473 62.3018 11.777 59.0508 15.929 56.6536L44.6198 40.089C48.7718 37.6918 54.4027 36.3453 60.2743 36.3453C66.1459 36.3453 71.7771 37.6919 75.929 40.0889ZM77.9471 55.4885C79.8374 56.5798 81.1238 57.9707 81.6434 59.4845C81.926 60.3075 81.9749 61.1467 81.7958 61.9703L71.4686 59.7429L71.1671 53.3709C73.7162 53.679 76.0778 54.4092 77.9471 55.4885ZM68.7164 63.0716L79.5368 65.4053C78.5639 66.2248 77.3243 66.9335 75.8771 67.4891C73.6511 68.3437 71.036 68.7977 68.363 68.7932C65.6897 68.7889 63.0788 68.3262 60.8615 67.4642C60.2132 67.2122 59.6066 66.9292 59.048 66.6191L68.7164 63.0716ZM65.1161 60.0389L64.8062 53.4871C62.601 53.8389 60.5664 54.512 58.9108 55.4569C57.0097 56.542 55.7097 57.9284 55.1749 59.4408C54.6935 60.8024 54.8525 62.2109 55.628 63.5205L65.1161 60.0389ZM82.0925 53.0951C79.3955 51.538 75.9593 50.4776 72.2186 50.0479C68.4776 49.6183 64.6001 49.8388 61.0762 50.6816C57.5525 51.5242 54.5405 52.9514 52.4216 54.7823C50.3026 56.6132 49.1714 58.766 49.1714 60.9681C49.1716 63.1701 50.3024 65.3229 52.4216 67.1536C54.5408 68.9848 57.5525 70.4118 61.0763 71.2546C64.6001 72.0971 68.4776 72.3176 72.2186 71.888C75.9593 71.4587 79.3958 70.3981 82.0928 68.841C85.7093 66.753 87.7412 63.9209 87.7409 60.968C87.7409 58.0152 85.709 55.1831 82.0925 53.0951ZM36.4124 62.9372L65.0489 79.4704C66.1784 80.1226 66.1784 81.1801 65.0489 81.8323C63.9191 82.4845 62.0873 82.4846 60.9578 81.8324L32.3213 65.2992C31.1917 64.6469 31.1918 63.5894 32.3216 62.9371C33.4511 62.285 35.2828 62.2849 36.4124 62.9372ZM28.2578 67.6452L56.8943 84.1785C58.0238 84.8306 58.0238 85.8882 56.8943 86.5403C55.7645 87.1926 53.933 87.1924 52.8035 86.5403L24.167 70.007C23.0374 69.3548 23.0372 68.2975 24.167 67.6452C25.2965 66.9931 27.1282 66.993 28.2578 67.6452Z" fill="#23B5E9"/>
</g>
<path opacity="0.2" d="M111.212 37.0391V65.7493C111.212 65.7493 111.212 72.7325 89.0085 83.6292C68.4202 97.7313 60.7812 95.2611 60.7812 95.2611C59.8473 94.7631 51.4407 96.6753 36.1262 85.7353C9.81206 72.9609 10.8655 70.6991 9.43359 66.7143L9.97703 37.0391L60.7812 54.3562L111.212 37.0391Z" fill="url(#paint0_linear_271_37580)"/>
<path fill-rule="evenodd" clip-rule="evenodd" d="M75.929 9.33503L104.62 25.8997C108.772 28.2969 111.104 31.5479 111.104 34.9379C111.104 38.3279 108.772 41.5789 104.62 43.9761L75.929 60.5407C71.777 62.9379 66.146 64.2844 60.2744 64.2844C54.4028 64.2844 48.7718 62.9379 44.6198 60.5407L15.929 43.976C11.7771 41.579 9.44473 38.3278 9.44473 34.9378C9.44473 31.5479 11.777 28.2969 15.929 25.8997L44.6198 9.33506C48.7718 6.93791 54.4027 5.59136 60.2743 5.59136C66.1459 5.59136 71.7771 6.93796 75.929 9.33503ZM77.9471 24.7346C79.8374 25.8259 81.1238 27.2168 81.6434 28.7306C81.926 29.5536 81.9749 30.3928 81.7958 31.2164L71.4686 28.989L71.1671 22.6169C73.7162 22.9251 76.0778 23.6553 77.9471 24.7346ZM68.7164 32.3176L79.5368 34.6514C78.5639 35.4708 77.3243 36.1796 75.8771 36.7352C73.6511 37.5898 71.036 38.0438 68.363 38.0393C65.6897 38.035 63.0788 37.5723 60.8615 36.7103C60.2132 36.4583 59.6066 36.1753 59.048 35.8652L68.7164 32.3176ZM65.1161 29.285L64.8062 22.7332C62.601 23.085 60.5664 23.7581 58.9108 24.703C57.0097 25.7881 55.7097 27.1745 55.1749 28.6868C54.6935 30.0485 54.8525 31.457 55.628 32.7666L65.1161 29.285ZM82.0925 22.3412C79.3955 20.7841 75.9593 19.7237 72.2186 19.294C68.4776 18.8644 64.6001 19.0849 61.0762 19.9277C57.5525 20.7703 54.5405 22.1974 52.4216 24.0284C50.3026 25.8593 49.1714 28.0121 49.1714 30.2142C49.1716 32.4161 50.3024 34.569 52.4216 36.3997C54.5408 38.2309 57.5525 39.6579 61.0763 40.5007C64.6001 41.3432 68.4776 41.5637 72.2186 41.1341C75.9593 40.7048 79.3958 39.6442 82.0928 38.0871C85.7093 35.9991 87.7412 33.167 87.7409 30.2141C87.7409 27.2613 85.709 24.4292 82.0925 22.3412ZM36.4124 32.1833L65.0489 48.7165C66.1784 49.3686 66.1784 50.4262 65.0489 51.0784C63.9191 51.7306 62.0873 51.7306 60.9578 51.0785L32.3213 34.5453C31.1917 33.893 31.1918 32.8355 32.3216 32.1832C33.4511 31.5311 35.2828 31.531 36.4124 32.1833ZM28.2578 36.8913L56.8943 53.4246C58.0238 54.0767 58.0238 55.1343 56.8943 55.7864C55.7645 56.4387 53.933 56.4385 52.8035 55.7864L24.167 39.2531C23.0374 38.6009 23.0372 37.5436 24.167 36.8913C25.2965 36.2392 27.1282 36.2391 28.2578 36.8913Z" fill="url(#paint1_linear_271_37580)"/>
<defs>
<filter id="filter0_f_271_37580" x="7.44482" y="34.3438" width="105.659" height="62.6953" filterUnits="userSpaceOnUse" color-interpolation-filters="sRGB">
<feFlood flood-opacity="0" result="BackgroundImageFix"/>
<feBlend mode="normal" in="SourceGraphic" in2="BackgroundImageFix" result="shape"/>
<feGaussianBlur stdDeviation="1" result="effect1_foregroundBlur_271_37580"/>
</filter>
<linearGradient id="paint0_linear_271_37580" x1="60.5947" y1="25.0308" x2="60.5947" y2="95.2604" gradientUnits="userSpaceOnUse">
<stop offset="0.317708" stop-color="#B4B4C3"/>
<stop offset="1" stop-color="#B4B4C3" stop-opacity="0"/>
</linearGradient>
<linearGradient id="paint1_linear_271_37580" x1="90.2744" y1="17.6174" x2="60.2744" y2="69.5789" gradientUnits="userSpaceOnUse">
<stop stop-color="#23B5E9"/>
<stop offset="1" stop-color="#00DED0"/>
</linearGradient>
</defs>
</svg>
