<svg width="121" height="101" viewBox="0 0 121 101" fill="none" xmlns="http://www.w3.org/2000/svg">
<g id="Group 1000001107">
<g id="Vector" opacity="0.3" filter="url(#filter0_f_327_29624)">
<path fill-rule="evenodd" clip-rule="evenodd" d="M76.6506 40.0889L105.341 56.6536C109.493 59.0508 111.826 62.3018 111.826 65.6918C111.826 69.0818 109.493 72.3328 105.341 74.73L76.6507 91.2946C72.4987 93.6918 66.8677 95.0383 60.9961 95.0383C55.1245 95.0383 49.4935 93.6918 45.3415 91.2946L16.6506 74.73C12.4988 72.3329 10.1664 69.0817 10.1664 65.6917C10.1664 62.3018 12.4987 59.0508 16.6507 56.6536L45.3415 40.089C49.4935 37.6918 55.1244 36.3453 60.996 36.3453C66.8676 36.3453 72.4988 37.6919 76.6506 40.0889ZM78.6688 55.4885C80.5591 56.5798 81.8455 57.9707 82.3651 59.4845C82.6477 60.3075 82.6966 61.1467 82.5175 61.9703L72.1903 59.7429L71.8888 53.3709C74.4379 53.679 76.7995 54.4092 78.6688 55.4885ZM69.4381 63.0716L80.2585 65.4053C79.2856 66.2248 78.046 66.9335 76.5988 67.4891C74.3728 68.3437 71.7577 68.7977 69.0847 68.7932C66.4114 68.7889 63.8005 68.3262 61.5832 67.4642C60.9349 67.2122 60.3283 66.9292 59.7697 66.6191L69.4381 63.0716ZM65.8378 60.0389L65.5279 53.4871C63.3226 53.8389 61.288 54.512 59.6325 55.4569C57.7314 56.542 56.4314 57.9284 55.8966 59.4408C55.4152 60.8024 55.5742 62.2109 56.3497 63.5205L65.8378 60.0389ZM82.8142 53.0951C80.1172 51.538 76.681 50.4776 72.9402 50.0479C69.1993 49.6183 65.3217 49.8388 61.7978 50.6816C58.2742 51.5242 55.2622 52.9514 53.1433 54.7823C51.0243 56.6132 49.8931 58.766 49.893 60.9681C49.8933 63.1701 51.0241 65.3229 53.1433 67.1536C55.2625 68.9848 58.2742 70.4118 61.798 71.2546C65.3218 72.0971 69.1993 72.3176 72.9403 71.888C76.681 71.4587 80.1175 70.3981 82.8145 68.841C86.431 66.753 88.4629 63.9209 88.4626 60.968C88.4626 58.0152 86.4307 55.1831 82.8142 53.0951ZM37.1341 62.9372L65.7706 79.4704C66.9001 80.1226 66.9001 81.1801 65.7706 81.8323C64.6408 82.4845 62.809 82.4846 61.6795 81.8324L33.043 65.2992C31.9133 64.6469 31.9135 63.5894 33.0433 62.9371C34.1728 62.285 36.0044 62.2849 37.1341 62.9372ZM28.9795 67.6452L57.616 84.1785C58.7455 84.8306 58.7455 85.8882 57.616 86.5403C56.4862 87.1926 54.6547 87.1924 53.5252 86.5403L24.8887 70.007C23.759 69.3548 23.7589 68.2975 24.8887 67.6452C26.0182 66.9931 27.8498 66.993 28.9795 67.6452Z" fill="#AECAD3"/>
</g>
<path id="Vector 248" opacity="0.2" d="M111.934 37.0391V65.7493C111.934 65.7493 111.934 72.7325 89.7302 83.6292C69.1419 97.7313 61.5029 95.2611 61.5029 95.2611C60.569 94.7631 52.1624 96.6753 36.8478 85.7353C10.5337 72.9609 11.5872 70.6991 10.1553 66.7143L10.6987 37.0391L61.5029 54.3562L111.934 37.0391Z" fill="url(#paint0_linear_327_29624)"/>
<path id="Vector 249" d="M69.2896 10.5312L19.5898 37.2324L55.5429 61.1572L98.898 31.9453L69.2896 10.5312Z" fill="#D3E4EA"/>
<path id="Vector_2" fill-rule="evenodd" clip-rule="evenodd" d="M76.6506 9.33503L105.341 25.8997C109.493 28.2969 111.826 31.5479 111.826 34.9379C111.826 38.3279 109.493 41.5789 105.341 43.9761L76.6507 60.5407C72.4987 62.9379 66.8677 64.2844 60.9961 64.2844C55.1245 64.2844 49.4935 62.9379 45.3415 60.5407L16.6506 43.976C12.4988 41.579 10.1664 38.3278 10.1664 34.9378C10.1664 31.5479 12.4987 28.2969 16.6507 25.8997L45.3415 9.33506C49.4935 6.93791 55.1244 5.59136 60.996 5.59136C66.8676 5.59136 72.4988 6.93796 76.6506 9.33503ZM78.6688 24.7346C80.5591 25.8259 81.8455 27.2168 82.3651 28.7306C82.6477 29.5536 82.6966 30.3928 82.5175 31.2164L72.1903 28.989L71.8888 22.6169C74.4379 22.9251 76.7995 23.6553 78.6688 24.7346ZM69.4381 32.3176L80.2585 34.6514C79.2856 35.4708 78.046 36.1796 76.5988 36.7352C74.3728 37.5898 71.7577 38.0438 69.0847 38.0393C66.4114 38.035 63.8005 37.5723 61.5832 36.7103C60.9349 36.4583 60.3283 36.1753 59.7697 35.8652L69.4381 32.3176ZM65.8378 29.285L65.5279 22.7332C63.3226 23.085 61.288 23.7581 59.6325 24.703C57.7314 25.7881 56.4314 27.1745 55.8966 28.6868C55.4152 30.0485 55.5742 31.457 56.3497 32.7666L65.8378 29.285ZM82.8142 22.3412C80.1172 20.7841 76.681 19.7237 72.9402 19.294C69.1993 18.8644 65.3217 19.0849 61.7978 19.9277C58.2742 20.7703 55.2622 22.1974 53.1433 24.0284C51.0243 25.8593 49.8931 28.0121 49.893 30.2142C49.8933 32.4161 51.0241 34.569 53.1433 36.3997C55.2625 38.2309 58.2742 39.6579 61.798 40.5007C65.3218 41.3432 69.1993 41.5637 72.9403 41.1341C76.681 40.7048 80.1175 39.6442 82.8145 38.0871C86.431 35.9991 88.4629 33.167 88.4626 30.2141C88.4626 27.2613 86.4307 24.4292 82.8142 22.3412ZM37.1341 32.1833L65.7706 48.7165C66.9001 49.3686 66.9001 50.4262 65.7706 51.0784C64.6408 51.7306 62.809 51.7306 61.6795 51.0785L33.043 34.5453C31.9133 33.893 31.9135 32.8355 33.0433 32.1832C34.1728 31.5311 36.0044 31.531 37.1341 32.1833ZM28.9795 36.8913L57.616 53.4246C58.7455 54.0767 58.7455 55.1343 57.616 55.7864C56.4862 56.4387 54.6547 56.4385 53.5252 55.7864L24.8887 39.2531C23.759 38.6009 23.7589 37.5436 24.8887 36.8913C26.0182 36.2392 27.8498 36.2391 28.9795 36.8913Z" fill="#284C59"/>
</g>
<defs>
<filter id="filter0_f_327_29624" x="8.1665" y="34.3438" width="105.659" height="62.6953" filterUnits="userSpaceOnUse" color-interpolation-filters="sRGB">
<feFlood flood-opacity="0" result="BackgroundImageFix"/>
<feBlend mode="normal" in="SourceGraphic" in2="BackgroundImageFix" result="shape"/>
<feGaussianBlur stdDeviation="1" result="effect1_foregroundBlur_327_29624"/>
</filter>
<linearGradient id="paint0_linear_327_29624" x1="61.3163" y1="25.0308" x2="61.3163" y2="95.2604" gradientUnits="userSpaceOnUse">
<stop offset="0.317708" stop-color="#397489"/>
<stop offset="1" stop-color="#23B5E9" stop-opacity="0"/>
</linearGradient>
</defs>
</svg>
