<svg width="26" height="26" viewBox="0 0 26 26" fill="none" xmlns="http://www.w3.org/2000/svg">
<circle cx="12.6572" cy="12.6572" r="12.6572" fill="#666666"/>
<path d="M10.3534 7C8.50445 7 7 8.50534 7 10.3548V15.1461C7 16.9953 8.50534 18.5 10.3548 18.5H15.1461C16.9953 18.5 18.5 16.9947 18.5 15.1452V10.3534C18.5 8.50445 16.9947 7 15.1452 7H10.3534ZM16.2 8.84C16.4539 8.84 16.66 9.04608 16.66 9.3C16.66 9.55392 16.4539 9.76 16.2 9.76C15.9461 9.76 15.74 9.55392 15.74 9.3C15.74 9.04608 15.9461 8.84 16.2 8.84ZM12.75 9.76C14.3991 9.76 15.74 11.1009 15.74 12.75C15.74 14.3991 14.3989 15.74 12.75 15.74C11.1009 15.74 9.76 14.3989 9.76 12.75C9.76 11.1011 11.1009 9.76 12.75 9.76ZM12.75 10.68C11.6067 10.68 10.68 11.6067 10.68 12.75C10.68 13.8933 11.6067 14.82 12.75 14.82C13.8933 14.82 14.82 13.8933 14.82 12.75C14.82 11.6067 13.8933 10.68 12.75 10.68Z" fill="black"/>
</svg>
