<svg width="23" height="21" viewBox="0 0 23 21" fill="none" xmlns="http://www.w3.org/2000/svg">
<path id="Vector" d="M21.79 8.67422C21.31 8.18422 20.67 7.94422 20.03 7.94422C19.39 7.94422 18.75 8.18422 18.26 8.67422C17.96 8.97422 17.77 9.32422 17.65 9.69422H10.74V6.55422H12.65C12.77 6.92422 12.96 7.28422 13.26 7.57422C13.74 8.06422 14.38 8.30422 15.02 8.30422C15.66 8.30422 16.3 8.06422 16.79 7.57422C17.77 6.59422 17.77 5.01422 16.79 4.03422C16.3 3.55422 15.66 3.30422 15.02 3.30422C14.38 3.30422 13.74 3.55422 13.26 4.03422C12.96 4.33422 12.77 4.68422 12.65 5.05422H10.74V2.35422H10.75V0.824219H8.58C7.81 0.824219 7.2 1.45422 7.2 2.20422V3.04422C6.94 3.15422 6.69 3.25422 6.44 3.36422L5.83 2.75422C5.29 2.20422 4.45 2.20422 3.9 2.73422L1.99 4.64422C1.74 4.89422 1.59 5.25422 1.59 5.62422C1.59 5.99422 1.74 6.34422 2.01 6.59422L2.6 7.18422C2.47 7.41422 2.37 7.68422 2.29 7.93422H1.45C0.67 7.93422 0.06 8.56422 0 9.32422V11.9442C0 12.7242 0.63 13.3342 1.38 13.3342H2.22C2.33 13.6042 2.43 13.8342 2.54 14.0842L1.95 14.6742C1.43 15.2142 1.43 16.1042 1.93 16.6242L3.84 18.5342C4.38 19.0642 5.27 19.0642 5.79 18.5542L6.4 17.9442C6.65 18.0742 6.9 18.1742 7.16 18.2642V19.1242C7.16 19.8742 7.76 20.4842 8.52 20.4842H10.75V19.0342H10.74V15.8342H12.65C12.77 16.2042 12.96 16.5542 13.26 16.8542C13.74 17.3442 14.38 17.5842 15.02 17.5842C15.66 17.5842 16.3 17.3442 16.79 16.8542C17.77 15.8742 17.77 14.2942 16.79 13.3142C16.3 12.8242 15.66 12.5842 15.02 12.5842C14.38 12.5842 13.74 12.8242 13.26 13.3142C12.96 13.6142 12.77 13.9642 12.65 14.3342H10.74V11.1942H17.65C17.77 11.5642 17.96 11.9142 18.26 12.2142C18.75 12.7042 19.39 12.9442 20.03 12.9442C20.67 12.9442 21.31 12.7042 21.79 12.2142C22.77 11.2342 22.77 9.65422 21.79 8.67422ZM14.32 5.09422C14.5 4.91422 14.76 4.80422 15.02 4.80422C15.28 4.80422 15.54 4.91422 15.73 5.09422C16.12 5.48422 16.12 6.12422 15.73 6.51422C15.54 6.70422 15.29 6.80422 15.02 6.80422C14.75 6.80422 14.5 6.70422 14.32 6.51422C13.93 6.12422 13.93 5.48422 14.32 5.09422ZM9.22 9.16422C9.09 9.16422 8.96 9.18422 8.84 9.22422C8.78 9.22422 8.72 9.26422 8.66 9.28422C8.59 9.30422 8.53 9.33422 8.47 9.37422C8.06 9.62422 7.79 10.0842 7.79 10.5942C7.79 11.1042 8.06 11.5642 8.47 11.8142C8.58 11.8742 8.7 11.9342 8.82 11.9642C8.95 12.0042 9.08 12.0242 9.22 12.0242V13.5242C8.96 13.5242 8.71 13.4942 8.47 13.4242C7.21 13.0942 6.29 11.9542 6.29 10.5942C6.29 9.23422 7.21 8.09422 8.47 7.76422C8.71 7.69422 8.96 7.66422 9.22 7.66422V9.16422ZM14.32 14.3742C14.5 14.1842 14.76 14.0842 15.02 14.0842C15.28 14.0842 15.54 14.1842 15.73 14.3742C16.12 14.7642 16.12 15.4042 15.73 15.7942C15.54 15.9842 15.29 16.0842 15.02 16.0842C14.75 16.0842 14.5 15.9842 14.32 15.7942C13.93 15.4042 13.93 14.7642 14.32 14.3742ZM20.73 11.1542C20.55 11.3442 20.29 11.4442 20.03 11.4442C19.77 11.4442 19.51 11.3442 19.32 11.1542C18.93 10.7642 18.93 10.1242 19.32 9.73422C19.51 9.54422 19.76 9.44422 20.03 9.44422C20.3 9.44422 20.55 9.54422 20.73 9.73422C21.12 10.1242 21.12 10.7642 20.73 11.1542Z" fill="#23B5E9"/>
</svg>
