<svg width="23" height="21" viewBox="0 0 23 21" fill="none" xmlns="http://www.w3.org/2000/svg">
<path id="Vector" d="M21.81 8.67422C21.32 8.18422 20.68 7.94422 20.04 7.94422C19.4 7.94422 18.76 8.18422 18.27 8.67422C17.98 8.96422 17.78 9.32422 17.66 9.69422H10.75V6.55422H12.65C12.77 6.92422 12.96 7.27422 13.26 7.57422C13.75 8.06422 14.39 8.30422 15.03 8.30422C15.67 8.30422 16.31 8.06422 16.8 7.57422C17.78 6.59422 17.78 5.01422 16.8 4.03422C16.31 3.54422 15.67 3.30422 15.03 3.30422C14.39 3.30422 13.75 3.54422 13.26 4.03422C12.97 4.32422 12.77 4.68422 12.65 5.05422H10.75V2.35422V0.824219H8.58C7.81 0.824219 7.2 1.45422 7.2 2.20422V3.04422C6.94 3.15422 6.69 3.25422 6.44 3.36422L5.83 2.75422C5.29 2.20422 4.45 2.20422 3.9 2.73422L1.99 4.64422C1.74 4.89422 1.59 5.25422 1.59 5.62422C1.59 5.99422 1.74 6.34422 2.01 6.59422L2.6 7.18422C2.47 7.41422 2.37 7.68422 2.29 7.93422H1.45C0.67 7.93422 0.06 8.56422 0 9.32422V11.9442C0 12.7242 0.63 13.3342 1.38 13.3342H2.22C2.33 13.6042 2.43 13.8342 2.54 14.0842L1.95 14.6742C1.43 15.2142 1.43 16.1042 1.93 16.6242L3.84 18.5342C4.38 19.0642 5.27 19.0642 5.79 18.5542L6.4 17.9442C6.65 18.0742 6.9 18.1742 7.16 18.2642V19.1242C7.16 19.8742 7.76 20.4842 8.52 20.4842H10.75V19.0342V15.8342H12.65C12.77 16.2042 12.96 16.5542 13.26 16.8542C13.75 17.3442 14.39 17.5842 15.03 17.5842C15.67 17.5842 16.31 17.3442 16.8 16.8542C17.78 15.8742 17.78 14.2942 16.8 13.3142C16.31 12.8242 15.67 12.5842 15.03 12.5842C14.39 12.5842 13.75 12.8242 13.26 13.3142C12.97 13.6042 12.77 13.9642 12.65 14.3342H10.75V11.1942H17.66C17.78 11.5642 17.97 11.9142 18.27 12.2142C18.76 12.7042 19.4 12.9442 20.04 12.9442C20.68 12.9442 21.32 12.7042 21.81 12.2142C22.79 11.2342 22.79 9.65422 21.81 8.67422ZM14.33 5.09422C14.52 4.90422 14.77 4.80422 15.04 4.80422C15.31 4.80422 15.56 4.90422 15.75 5.09422C16.14 5.48422 16.14 6.11422 15.75 6.50422C15.56 6.69422 15.31 6.79422 15.04 6.79422C14.77 6.79422 14.52 6.69422 14.33 6.50422C13.94 6.11422 13.94 5.48422 14.33 5.09422ZM14.33 14.3742C14.52 14.1842 14.77 14.0842 15.04 14.0842C15.31 14.0842 15.56 14.1842 15.75 14.3742C16.14 14.7642 16.14 15.3942 15.75 15.7842C15.56 15.9742 15.31 16.0742 15.04 16.0742C14.77 16.0742 14.52 15.9742 14.33 15.7842C13.94 15.3942 13.94 14.7642 14.33 14.3742ZM9.26 12.0242C8.98 12.0242 8.73 11.9442 8.51 11.8142C8.1 11.5642 7.83 11.1042 7.83 10.5942C7.83 10.0842 8.1 9.62422 8.51 9.37422C8.73 9.24422 8.98 9.16422 9.26 9.16422V12.0242ZM8.74 19.0342V17.7742C8.74 17.4442 8.51 17.1242 8.17 17.0442C7.65 16.9142 7.14 16.7042 6.68 16.4342C6.37 16.2642 6.01 16.3142 5.76 16.5642L4.88 17.4642L3.18 15.7642L4.08 14.8842C4.33 14.6342 4.37 14.2542 4.21 13.9642C3.95 13.5142 3.74 13.0142 3.6 12.4742C3.51 12.1342 3.2 11.9042 2.86 11.9042H1.6V9.51422H2.86C3.2 9.51422 3.51 9.28422 3.6 8.94422C3.74 8.39422 3.95 7.89422 4.21 7.45422C4.37 7.16422 4.31 6.80422 4.08 6.55422L3.2 5.64422L4.9 3.94422L5.78 4.83422C6.01 5.08422 6.39 5.12422 6.68 4.95422C7.12 4.70422 7.63 4.49422 8.17 4.34422C8.51 4.26422 8.74 3.94422 8.74 3.61422V2.35422H9.26V7.66422C9 7.66422 8.75 7.69422 8.51 7.76422C7.25 8.09422 6.33 9.23422 6.33 10.5942C6.33 11.9542 7.25 13.0942 8.51 13.4242C8.75 13.4942 9 13.5242 9.26 13.5242V19.0342H8.74ZM20.75 11.1542C20.56 11.3442 20.31 11.4442 20.04 11.4442C19.77 11.4442 19.52 11.3442 19.33 11.1542C18.94 10.7642 18.94 10.1342 19.33 9.74422C19.52 9.55422 19.77 9.45422 20.04 9.45422C20.31 9.45422 20.56 9.55422 20.75 9.74422C21.14 10.1342 21.14 10.7642 20.75 11.1542Z" fill="#829AAC"/>
</svg>
