<svg width="20" height="20" viewBox="0 0 20 20" fill="none" xmlns="http://www.w3.org/2000/svg">
<path id="introduction" fill-rule="evenodd" clip-rule="evenodd" d="M10 0C9.67676 0 9.41406 0.261719 9.41406 0.585938V2.96875C9.41406 3.29297 9.67676 3.55469 10 3.55469C10.0967 3.55469 10.1875 3.53125 10.2676 3.48828C10.3232 3.46094 10.373 3.42188 10.417 3.37891C10.5215 3.27344 10.5859 3.12891 10.5859 2.96875V0.585938C10.5859 0.261719 10.3232 0 10 0ZM3.78516 2.95703L5.44238 4.61328C5.58203 4.75391 5.63672 4.94531 5.60645 5.125C5.58691 5.24219 5.53223 5.35156 5.44238 5.44141C5.33496 5.55078 5.19531 5.60938 5.05469 5.61328C4.95996 5.61719 4.86426 5.59766 4.77637 5.55469C4.71777 5.52734 4.66309 5.48828 4.61426 5.44141L2.95703 3.78516C2.72754 3.55469 2.72754 3.1875 2.95703 2.95703C3.06055 2.85156 3.19336 2.79297 3.3291 2.78516C3.49219 2.77344 3.66016 2.83203 3.78516 2.95703ZM0.585938 9.41406H2.96875C3.29199 9.41406 3.55469 9.67578 3.55469 10C3.55469 10.3242 3.29199 10.5859 2.96875 10.5859H0.585938C0.262695 10.5859 0 10.3242 0 10C0 9.67578 0.262695 9.41406 0.585938 9.41406ZM19.4141 9.41406H17.0312C16.708 9.41406 16.4453 9.67578 16.4453 10C16.4453 10.3242 16.708 10.5859 17.0312 10.5859H19.4141C19.7373 10.5859 20 10.3242 20 10C20 9.82812 19.9248 9.67188 19.8047 9.5625C19.7012 9.46875 19.5645 9.41406 19.4141 9.41406ZM16.2148 2.95703C16.4434 2.72656 16.8145 2.72656 17.043 2.95703C17.1221 3.03516 17.1738 3.13281 17.1982 3.23438C17.2139 3.29688 17.2188 3.35938 17.2129 3.42188C17.2012 3.55469 17.1445 3.68359 17.043 3.78516L15.3857 5.44141C15.1572 5.67188 14.7861 5.67188 14.5576 5.44141L14.4922 5.36328L14.4639 5.32031C14.3994 5.21094 14.375 5.08203 14.3896 4.95703C14.4053 4.83203 14.4609 4.71094 14.5576 4.61328L16.2148 2.95703ZM4.8916 8.66406C5.35254 6.79688 6.8623 5.3125 8.73828 4.875C12.1572 4.07422 15.2734 6.63672 15.2734 10C15.2734 11.4062 14.7266 12.7305 13.7334 13.7227C13.2529 14.207 12.9297 15.0781 12.9297 15.8984V17.0703C12.9297 18.0391 12.1416 18.8281 11.1719 18.8281H10.5859V19.4141C10.5859 19.7383 10.3232 20 10 20C9.67676 20 9.41406 19.7383 9.41406 19.4141V18.8281H8.82812C7.85938 18.8281 7.07031 18.0391 7.07031 17.0703V15.8984C7.07031 15.2656 6.88965 14.6094 6.60059 14.1406C6.5127 13.9961 6.41406 13.8711 6.30762 13.7656C4.95801 12.4414 4.42871 10.5352 4.8916 8.66406ZM11.1719 17.6562C11.4951 17.6562 11.7578 17.3945 11.7578 17.0703V16.4844H8.24219V17.0703C8.24219 17.2656 8.33887 17.4414 8.48633 17.5469C8.58203 17.6172 8.7002 17.6562 8.82812 17.6562H11.1719ZM12.2432 13.832C12.4219 13.4766 12.6445 13.1562 12.9033 12.8984C13.6758 12.1211 14.1016 11.0938 14.1016 10C14.1016 7.38672 11.6836 5.39062 9.00488 6.01562C7.55371 6.35156 6.38574 7.50391 6.0293 8.94531C5.66699 10.4102 6.07812 11.8984 7.12793 12.9297C7.78418 13.5703 8.10254 14.5 8.2041 15.3125H11.7959C11.8633 14.7891 12.0176 14.2812 12.2432 13.832Z" fill="#829AAC"/>
</svg>
