<svg width="20" height="20" viewBox="0 0 20 20" fill="none" xmlns="http://www.w3.org/2000/svg">
<path id="introduction-selected" fill-rule="evenodd" clip-rule="evenodd" d="M9.81445 0.03125C9.87305 0.0117188 9.93555 0 10 0C10.0684 0 10.1348 0.0117188 10.1963 0.0351562C10.2451 0.0507812 10.292 0.0742188 10.334 0.105469C10.4863 0.210938 10.5859 0.386719 10.5859 0.585938V2.96875C10.5859 3.07812 10.5576 3.17578 10.5078 3.26172C10.4648 3.33594 10.4072 3.40234 10.3379 3.44922C10.2422 3.51562 10.126 3.55469 10 3.55469C9.85547 3.55469 9.72363 3.50391 9.62207 3.41797C9.49512 3.30859 9.41406 3.14844 9.41406 2.96875V0.585938C9.41406 0.386719 9.51367 0.210938 9.66602 0.105469C9.71094 0.0742188 9.76074 0.046875 9.81445 0.03125ZM17.043 2.95703C16.9434 2.85547 16.8164 2.80078 16.6855 2.78516C16.5176 2.76953 16.3438 2.82812 16.2148 2.95703L14.5576 4.61328C14.3281 4.84375 14.3281 5.21484 14.5576 5.44141C14.7861 5.67188 15.1572 5.67188 15.3857 5.44141L17.043 3.78516C17.2715 3.55469 17.2715 3.1875 17.043 2.95703ZM5.44238 4.61328L3.78516 2.95703C3.55664 2.72656 3.18555 2.72656 2.95703 2.95703C2.91211 3 2.87598 3.05078 2.84863 3.10547L2.80469 3.21875C2.79297 3.26172 2.78613 3.30469 2.78418 3.34766C2.78125 3.43359 2.79785 3.51953 2.83301 3.60156C2.86133 3.66797 2.90234 3.73047 2.95703 3.78516L4.61426 5.44141L4.70215 5.51172L4.80469 5.57031L4.87793 5.59766L4.98145 5.61328C5.14648 5.625 5.31641 5.57031 5.44238 5.44141C5.6709 5.21484 5.6709 4.84375 5.44238 4.61328ZM2.96875 9.41406H0.585938C0.47168 9.41406 0.365234 9.44531 0.275391 9.5C0.110352 9.60547 0 9.78906 0 10C0 10.3242 0.261719 10.5859 0.585938 10.5859H2.96875C3.29297 10.5859 3.55469 10.3242 3.55469 10C3.55469 9.67578 3.29297 9.41406 2.96875 9.41406ZM17.0312 9.41406H19.4141C19.5449 9.41406 19.666 9.45703 19.7637 9.53125C19.9072 9.63672 20 9.80859 20 10C20 10.3242 19.7383 10.5859 19.4141 10.5859H17.0312C16.707 10.5859 16.4453 10.3242 16.4453 10C16.4453 9.81641 16.5283 9.65234 16.6592 9.54688C16.7598 9.46484 16.8896 9.41406 17.0312 9.41406ZM7.07031 16.4844V17.0703C7.07031 18.0391 7.8584 18.8281 8.82812 18.8281H9.41406V19.4141C9.41406 19.7383 9.67578 20 10 20C10.3242 20 10.5859 19.7383 10.5859 19.4141V18.8281H11.1719C11.582 18.8281 11.959 18.6875 12.2578 18.4531C12.667 18.1289 12.9297 17.6289 12.9297 17.0703V16.4844H7.07031ZM8.73828 4.87109C10.3535 4.49609 12.0059 4.85938 13.2764 5.86719C14.5449 6.875 15.2734 8.37891 15.2734 10C15.2734 10.7305 15.126 11.4375 14.8447 12.0898C14.585 12.6914 14.2109 13.2422 13.7334 13.7227C13.3633 14.0938 13.0947 14.7031 12.9854 15.3125H7.01855C6.91504 14.7031 6.66016 14.1094 6.30859 13.7656C5.58691 13.0586 5.09961 12.1836 4.87305 11.2344C4.67676 10.4102 4.67676 9.53125 4.8916 8.66016C5.35352 6.79688 6.86328 5.30859 8.73828 4.87109Z" fill="#23B5E9"/>
</svg>
