<svg width="26" height="26" viewBox="0 0 26 26" fill="none" xmlns="http://www.w3.org/2000/svg">
<path d="M12.655 0C5.67714 0 0 5.67659 0 12.655C0 19.6334 5.67714 25.31 12.655 25.31C19.6329 25.31 25.31 19.6334 25.31 12.655C25.31 5.67659 19.6329 0 12.655 0ZM8.80348 18.1572H6.60261V9.90391H8.80348V18.1572ZM7.70304 8.25326C7.09505 8.25326 6.60261 7.76082 6.60261 7.15283C6.60261 6.54484 7.09505 6.05239 7.70304 6.05239C8.31103 6.05239 8.80348 6.54484 8.80348 7.15283C8.80348 7.76082 8.31103 8.25326 7.70304 8.25326ZM19.2576 18.1572H17.0567V15.4061V14.0305C17.0567 12.9714 16.1901 12.1048 15.131 12.1048C14.0718 12.1048 13.2052 12.9714 13.2052 14.0305V18.1572H11.0043V9.90391H13.2052V10.9031C13.8479 10.2858 14.7194 9.90391 15.6812 9.90391C17.6565 9.90391 19.2576 11.505 19.2576 13.4803V18.1572Z" fill="#666666"/>
</svg>
