<svg width="110" height="85" viewBox="0 0 110 85" fill="none" xmlns="http://www.w3.org/2000/svg">
<g opacity="0.15" filter="url(#filter0_f_345_31922)">
<path fill-rule="evenodd" clip-rule="evenodd" d="M68.3848 25.6999L88.9295 37.5614L69.8776 48.561C68.7288 49.2242 68.7288 50.2995 69.8776 50.9627L88.8231 61.9009L56.9594 80.2974C54.9367 81.4652 52.1936 82.1211 49.3328 82.1211C46.4727 82.1211 43.7293 81.465 41.7066 80.2973L7.76299 60.6999C5.74034 59.5321 4.60429 57.9484 4.60398 56.2969C4.60429 54.6454 5.74033 53.0617 7.76298 51.8939L53.1323 25.6999C55.155 24.5321 57.8981 23.8762 60.7585 23.876C63.619 23.8762 66.3621 24.5321 68.3848 25.6999ZM91.7645 40.728L91.7648 58.7959L76.1174 49.7619L91.7645 40.728ZM51.5816 67.0737L64.2273 59.7727C64.5565 59.6219 64.8266 59.4327 65.0202 59.2173C65.2136 59.002 65.3264 58.7654 65.3506 58.5232C65.3749 58.281 65.3097 58.0387 65.16 57.8119C65.0106 57.5852 64.7793 57.3793 64.4822 57.2078C64.1852 57.0363 63.8287 56.9029 63.4359 56.8164C63.0431 56.73 62.6236 56.6926 62.2038 56.7064C61.7843 56.7204 61.3745 56.7855 61.0016 56.8971C60.6285 57.009 60.3009 57.1649 60.0399 57.3551L47.3942 64.6561C47.0647 64.8068 46.7943 64.9961 46.6009 65.2114C46.4072 65.4268 46.2948 65.6632 46.2705 65.9054C46.2466 66.1478 46.3112 66.3902 46.4609 66.617C46.6106 66.8438 46.8416 67.0496 47.1386 67.2211C47.4357 67.3926 47.7925 67.5261 48.185 67.6124C48.5778 67.6988 48.9979 67.7363 49.4174 67.7223C49.8369 67.7083 50.2464 67.6434 50.6195 67.5315C50.9924 67.4199 51.3203 67.2638 51.5816 67.0737ZM34.9709 59.7572C36.6332 60.7169 38.8874 61.256 41.2383 61.256C43.5889 61.2559 45.8435 60.7169 47.5057 59.7572L51.6932 57.3395C53.3554 56.3798 54.289 55.0782 54.2893 53.7211C54.2893 52.3638 53.3554 51.0623 51.6932 50.1026C50.0309 49.1429 47.7767 48.6037 45.4258 48.6037C43.0749 48.6037 40.8206 49.1429 39.1584 50.1026L34.9709 52.5202C33.3087 53.4799 32.3748 54.7814 32.3748 56.1387C32.3748 57.496 33.3087 58.7975 34.9709 59.7572ZM43.3458 52.5202C43.9187 52.2577 44.6389 52.1261 45.3691 52.1504C46.0996 52.1746 46.7886 52.3529 47.306 52.6516C47.8231 52.9502 48.1319 53.348 48.1738 53.7697C48.2159 54.1913 47.988 54.6071 47.5333 54.9378L43.3458 57.3555C42.773 57.618 42.0528 57.7496 41.3226 57.7252C40.5921 57.7011 39.9031 57.5228 39.386 57.2242C38.8686 56.9255 38.5598 56.5277 38.5179 56.106C38.4758 55.6844 38.7037 55.2686 39.1584 54.9378L43.3458 52.5202Z" fill="#23B5E9"/>
</g>
<path opacity="0.2" d="M4.59448 57.5547V34.7168L88.3712 16.2188L91.4855 19.9734L92.098 41.5086V57.5547C85.3814 62.4054 69.7464 73.3382 60.9401 78.2638C52.1338 83.1893 46.2008 82.555 44.335 81.6221L4.59448 57.5547Z" fill="url(#paint0_linear_345_31922)"/>
<path fill-rule="evenodd" clip-rule="evenodd" d="M68.3845 4.85222L88.9292 16.7137L69.8773 27.7133C68.7285 28.3766 68.7286 29.4518 69.8773 30.115L88.8228 41.0532L56.9591 59.4498C54.9365 60.6175 52.1933 61.2734 49.3326 61.2734C46.4725 61.2734 43.729 60.6174 41.7064 59.4496L7.76274 39.8522C5.7401 38.6844 4.60404 37.1007 4.60374 35.4492C4.60404 33.7977 5.74009 32.214 7.76274 31.0462L53.1321 4.85222C55.1547 3.68445 57.8979 3.02855 60.7583 3.02837C63.6187 3.02854 66.3619 3.68445 68.3845 4.85222ZM91.7642 19.8803L91.7645 37.9482L76.1171 28.9142L91.7642 19.8803ZM51.5814 46.2261L64.2271 38.9251C64.5563 38.7742 64.8263 38.585 65.02 38.3696C65.2134 38.1544 65.3261 37.9178 65.3504 37.6756C65.3746 37.4334 65.3095 37.191 65.1598 36.9642C65.0103 36.7376 64.779 36.5316 64.482 36.3601C64.1849 36.1886 63.8285 36.0552 63.4357 35.9688C63.0428 35.8823 62.6233 35.8449 62.2035 35.8587C61.784 35.8727 61.3742 35.9378 61.0014 36.0495C60.6283 36.1613 60.3006 36.3172 60.0396 36.5074L47.3939 43.8084C47.0644 43.9591 46.7941 44.1485 46.6007 44.3637C46.407 44.5791 46.2945 44.8156 46.2703 45.0578C46.2464 45.3001 46.3109 45.5425 46.4607 45.7693C46.6104 45.9961 46.8414 46.2019 47.1384 46.3734C47.4354 46.5449 47.7922 46.6784 48.1847 46.7647C48.5776 46.8512 48.9977 46.8886 49.4172 46.8746C49.8367 46.8606 50.2462 46.7957 50.6193 46.6839C50.9921 46.5722 51.3201 46.4161 51.5814 46.2261ZM34.9707 38.9095C36.6329 39.8692 38.8872 40.4084 41.2381 40.4084C43.5887 40.4082 45.8432 39.8692 47.5055 38.9095L51.6929 36.4919C53.3552 35.5322 54.2887 34.2305 54.289 32.8734C54.289 31.5161 53.3552 30.2146 51.6929 29.2549C50.0307 28.2952 47.7765 27.756 45.4255 27.756C43.0746 27.756 40.8204 28.2952 39.1581 29.2549L34.9707 31.6725C33.3084 32.6322 32.3746 33.9337 32.3746 35.291C32.3746 36.6483 33.3084 37.9498 34.9707 38.9095ZM43.3456 31.6725C43.9185 31.41 44.6387 31.2784 45.3688 31.3028C46.0993 31.3269 46.7883 31.5052 47.3057 31.804C47.8228 32.1025 48.1317 32.5003 48.1735 32.922C48.2156 33.3436 47.9877 33.7594 47.533 34.0902L43.3456 36.5078C42.7727 36.7703 42.0525 36.9019 41.3223 36.8776C40.5919 36.8534 39.9029 36.6751 39.3858 36.3765C38.8684 36.0778 38.5595 35.68 38.5177 35.2583C38.4755 34.8367 38.7035 34.4209 39.1581 34.0902L43.3456 31.6725Z" fill="url(#paint1_linear_345_31922)"/>
<defs>
<filter id="filter0_f_345_31922" x="2.604" y="21.875" width="91.1608" height="62.2461" filterUnits="userSpaceOnUse" color-interpolation-filters="sRGB">
<feFlood flood-opacity="0" result="BackgroundImageFix"/>
<feBlend mode="normal" in="SourceGraphic" in2="BackgroundImageFix" result="shape"/>
<feGaussianBlur stdDeviation="1" result="effect1_foregroundBlur_345_31922"/>
</filter>
<linearGradient id="paint0_linear_345_31922" x1="48.5799" y1="-9.42179" x2="48.5799" y2="82.051" gradientUnits="userSpaceOnUse">
<stop offset="0.317708" stop-color="#B4B4C3"/>
<stop offset="1" stop-color="#B4B4C3" stop-opacity="0"/>
</linearGradient>
<linearGradient id="paint1_linear_345_31922" x1="85.3565" y1="14.651" x2="55.0456" y2="67.151" gradientUnits="userSpaceOnUse">
<stop stop-color="#23B5E9"/>
<stop offset="1" stop-color="#00DED0"/>
</linearGradient>
</defs>
</svg>
