<svg width="110" height="95" viewBox="0 0 110 95" fill="none" xmlns="http://www.w3.org/2000/svg">
<g id="Group 1000001119">
<g id="Vector" opacity="0.3" filter="url(#filter0_f_270_31447)">
<path fill-rule="evenodd" clip-rule="evenodd" d="M68.2805 35.7858L88.8252 47.6473L69.7733 58.6469C68.6245 59.3102 68.6246 60.3854 69.7733 61.0486L88.7188 71.9868L56.8551 90.3834C54.8325 91.5511 52.0893 92.207 49.2286 92.207C46.3685 92.207 43.625 91.551 41.6024 90.3832L7.65874 70.7858C5.63609 69.618 4.50004 68.0343 4.49974 66.3828C4.50004 64.7313 5.63609 63.1476 7.65873 61.9798L53.0281 35.7858C55.0507 34.618 57.7939 33.9621 60.6543 33.962C63.5147 33.9621 66.2579 34.618 68.2805 35.7858ZM91.6602 50.8139L91.6605 68.8818L76.0131 59.8478L91.6602 50.8139ZM51.4774 77.1597L64.1231 69.8587C64.4523 69.7078 64.7223 69.5186 64.916 69.3032C65.1094 69.088 65.2221 68.8514 65.2464 68.6092C65.2706 68.367 65.2055 68.1246 65.0557 67.8978C64.9063 67.6712 64.675 67.4652 64.378 67.2937C64.0809 67.1222 63.7245 66.9888 63.3317 66.9024C62.9388 66.8159 62.5193 66.7785 62.0995 66.7923C61.68 66.8063 61.2702 66.8714 60.8974 66.9831C60.5243 67.0949 60.1966 67.2508 59.9356 67.441L47.2899 74.742C46.9604 74.8927 46.6901 75.0821 46.4967 75.2973C46.303 75.5127 46.1905 75.7492 46.1663 75.9914C46.1423 76.2337 46.2069 76.4761 46.3567 76.7029C46.5064 76.9297 46.7374 77.1355 47.0344 77.307C47.3314 77.4785 47.6882 77.612 48.0807 77.6983C48.4736 77.7848 48.8937 77.8222 49.3132 77.8082C49.7327 77.7942 50.1422 77.7293 50.5153 77.6175C50.8881 77.5058 51.2161 77.3497 51.4774 77.1597ZM34.8667 69.8431C36.5289 70.8028 38.7832 71.342 41.1341 71.342C43.4847 71.3418 45.7392 70.8028 47.4015 69.8431L51.5889 67.4255C53.2512 66.4658 54.1847 65.1641 54.185 63.807C54.185 62.4497 53.2512 61.1482 51.5889 60.1885C49.9267 59.2288 47.6724 58.6896 45.3215 58.6896C42.9706 58.6896 40.7164 59.2288 39.0541 60.1885L34.8667 62.6061C33.2044 63.5658 32.2706 64.8673 32.2706 66.2246C32.2706 67.5819 33.2044 68.8834 34.8667 69.8431ZM43.2416 62.6061C43.8145 62.3436 44.5347 62.212 45.2648 62.2364C45.9953 62.2605 46.6843 62.4388 47.2017 62.7376C47.7188 63.0361 48.0277 63.4339 48.0695 63.8556C48.1116 64.2772 47.8837 64.693 47.429 65.0238L43.2416 67.4414C42.6687 67.7039 41.9485 67.8355 41.2183 67.8112C40.4879 67.787 39.7989 67.6087 39.2818 67.3101C38.7644 67.0114 38.4555 66.6136 38.4137 66.1919C38.3715 65.7703 38.5995 65.3545 39.0541 65.0238L43.2416 62.6061Z" fill="#AECAD3"/>
</g>
<path id="Vector 252" opacity="0.2" d="M4.49023 67.6446V34.8067L88.267 16.3086L91.3812 20.0633L91.9938 51.5985V67.6446C85.2771 72.4953 69.6422 83.428 60.8359 88.3536C52.0296 93.2792 46.0965 92.6448 44.2308 91.7119L4.49023 67.6446Z" fill="url(#paint0_linear_270_31447)"/>
<path id="Vector_2" fill-rule="evenodd" clip-rule="evenodd" d="M68.2805 4.94206L88.8252 16.8036L69.7733 27.8032C68.6245 28.4664 68.6246 29.5416 69.7733 30.2049L88.7188 41.1431L56.8551 59.5396C54.8325 60.7074 52.0893 61.3633 49.2286 61.3633C46.3685 61.3633 43.625 60.7072 41.6024 59.5394L7.65874 39.9421C5.63609 38.7743 4.50004 37.1905 4.49974 35.5391C4.50004 33.8876 5.63609 32.3038 7.65873 31.1361L53.0281 4.94206C55.0507 3.77429 57.7939 3.11839 60.6543 3.11821C63.5147 3.11839 66.2579 3.77429 68.2805 4.94206ZM91.6602 19.9702L91.6605 38.0381L76.0131 29.004L91.6602 19.9702ZM51.4774 46.3159L64.1231 39.0149C64.4523 38.8641 64.7223 38.6749 64.916 38.4595C65.1094 38.2442 65.2221 38.0076 65.2464 37.7654C65.2706 37.5232 65.2055 37.2808 65.0557 37.054C64.9063 36.8274 64.675 36.6214 64.378 36.4499C64.0809 36.2784 63.7245 36.1451 63.3317 36.0586C62.9388 35.9722 62.5193 35.9347 62.0995 35.9486C61.68 35.9626 61.2702 36.0277 60.8974 36.1393C60.5243 36.2511 60.1966 36.4071 59.9356 36.5973L47.2899 43.8983C46.9604 44.049 46.6901 44.2383 46.4967 44.4536C46.303 44.669 46.1905 44.9054 46.1663 45.1476C46.1423 45.39 46.2069 45.6324 46.3567 45.8592C46.5064 46.086 46.7374 46.2918 47.0344 46.4633C47.3314 46.6348 47.6882 46.7683 48.0807 46.8546C48.4736 46.941 48.8937 46.9785 49.3132 46.9645C49.7327 46.9505 50.1422 46.8855 50.5153 46.7737C50.8881 46.6621 51.2161 46.506 51.4774 46.3159ZM34.8667 38.9993C36.5289 39.959 38.7832 40.4982 41.1341 40.4982C43.4847 40.498 45.7392 39.959 47.4015 38.9993L51.5889 36.5817C53.2512 35.622 54.1847 34.3204 54.185 32.9632C54.185 31.6059 53.2512 30.3045 51.5889 29.3448C49.9267 28.3851 47.6724 27.8459 45.3215 27.8459C42.9706 27.8459 40.7164 28.3851 39.0541 29.3448L34.8667 31.7624C33.2044 32.7221 32.2706 34.0236 32.2706 35.3809C32.2706 36.7382 33.2044 38.0396 34.8667 38.9993ZM43.2416 31.7624C43.8145 31.4999 44.5347 31.3683 45.2648 31.3926C45.9953 31.4168 46.6843 31.5951 47.2017 31.8938C47.7188 32.1924 48.0277 32.5901 48.0695 33.0119C48.1116 33.4335 47.8837 33.8493 47.429 34.18L43.2416 36.5976C42.6687 36.8601 41.9485 36.9917 41.2183 36.9674C40.4879 36.9433 39.7989 36.7649 39.2818 36.4664C38.7644 36.1677 38.4555 35.7699 38.4137 35.3481C38.3715 34.9266 38.5995 34.5108 39.0541 34.18L43.2416 31.7624Z" fill="#284C59"/>
</g>
<defs>
<filter id="filter0_f_270_31447" x="2.49951" y="31.9609" width="91.1611" height="62.2461" filterUnits="userSpaceOnUse" color-interpolation-filters="sRGB">
<feFlood flood-opacity="0" result="BackgroundImageFix"/>
<feBlend mode="normal" in="SourceGraphic" in2="BackgroundImageFix" result="shape"/>
<feGaussianBlur stdDeviation="1" result="effect1_foregroundBlur_270_31447"/>
</filter>
<linearGradient id="paint0_linear_270_31447" x1="48.4757" y1="0.668052" x2="48.4757" y2="92.1409" gradientUnits="userSpaceOnUse">
<stop offset="0.317708" stop-color="#397489"/>
<stop offset="1" stop-color="#23B5E9" stop-opacity="0"/>
</linearGradient>
</defs>
</svg>
