<svg width="110" height="86" viewBox="0 0 110 86" fill="none" xmlns="http://www.w3.org/2000/svg">
<g opacity="0.3" filter="url(#filter0_f_345_31798)">
<path fill-rule="evenodd" clip-rule="evenodd" d="M68.2639 26.1764L88.8086 38.0379L69.7567 49.0376C68.6079 49.7008 68.608 50.776 69.7567 51.4393L88.7022 62.3775L56.8385 80.774C54.8159 81.9418 52.0727 82.5977 49.212 82.5977C46.3519 82.5977 43.6084 81.9416 41.5858 80.7738L7.64214 61.1764C5.61949 60.0087 4.48344 58.4249 4.48313 56.7734C4.48344 55.122 5.61948 53.5382 7.64213 52.3704L53.0115 26.1764C55.0341 25.0087 57.7773 24.3528 60.6377 24.3526C63.4981 24.3528 66.2413 25.0087 68.2639 26.1764ZM91.6436 41.2046L91.6439 59.2724L75.9965 50.2384L91.6436 41.2046ZM51.4608 67.5503L64.1065 60.2493C64.4357 60.0984 64.7057 59.9093 64.8994 59.6938C65.0928 59.4786 65.2055 59.242 65.2298 58.9998C65.254 58.7576 65.1889 58.5152 65.0391 58.2884C64.8897 58.0618 64.6584 57.8558 64.3614 57.6843C64.0643 57.5128 63.7079 57.3795 63.3151 57.293C62.9222 57.2066 62.5027 57.1691 62.0829 57.1829C61.6634 57.1969 61.2536 57.262 60.8808 57.3737C60.5077 57.4855 60.18 57.6414 59.919 57.8317L47.2733 65.1327C46.9438 65.2833 46.6735 65.4727 46.4801 65.6879C46.2864 65.9034 46.1739 66.1398 46.1497 66.382C46.1257 66.6244 46.1903 66.8667 46.34 67.0935C46.4898 67.3203 46.7207 67.5261 47.0178 67.6976C47.3148 67.8691 47.6716 68.0027 48.0641 68.0889C48.457 68.1754 48.8771 68.2128 49.2966 68.1988C49.7161 68.1848 50.1256 68.1199 50.4987 68.0081C50.8715 67.8964 51.1995 67.7403 51.4608 67.5503ZM34.8501 60.2337C36.5123 61.1934 38.7666 61.7326 41.1175 61.7326C43.4681 61.7324 45.7226 61.1934 47.3849 60.2337L51.5723 57.8161C53.2346 56.8564 54.1681 55.5547 54.1684 54.1976C54.1684 52.8403 53.2346 51.5388 51.5723 50.5791C49.9101 49.6194 47.6558 49.0803 45.3049 49.0803C42.954 49.0803 40.6998 49.6194 39.0375 50.5791L34.8501 52.9968C33.1878 53.9565 32.254 55.2579 32.254 56.6152C32.254 57.9725 33.1878 59.274 34.8501 60.2337ZM43.225 52.9968C43.7979 52.7343 44.5181 52.6027 45.2482 52.627C45.9787 52.6511 46.6677 52.8295 47.1851 53.1282C47.7022 53.4267 48.0111 53.8245 48.0529 54.2463C48.095 54.6678 47.8671 55.0836 47.4124 55.4144L43.225 57.832C42.6521 58.0945 41.9319 58.2261 41.2017 58.2018C40.4712 58.1776 39.7823 57.9993 39.2652 57.7008C38.7478 57.402 38.4389 57.0043 38.3971 56.5825C38.3549 56.1609 38.5829 55.7451 39.0375 55.4144L43.225 52.9968Z" fill="#AECAD3"/>
</g>
<path opacity="0.2" d="M4.47354 58.0352V35.1973L88.2503 16.6992L91.3645 20.4539L91.9771 41.9891V58.0352C85.2604 62.8859 69.6255 73.8187 60.8192 78.7442C52.0129 83.6698 46.0798 83.0354 44.2141 82.1026L4.47354 58.0352Z" fill="url(#paint0_linear_345_31798)"/>
<path fill-rule="evenodd" clip-rule="evenodd" d="M68.2636 5.33269L88.8083 17.1942L69.7564 28.1938C68.6076 28.8571 68.6076 29.9323 69.7564 30.5955L88.7019 41.5337L56.8382 59.9302C54.8156 61.098 52.0724 61.7539 49.2117 61.7539C46.3516 61.7539 43.6081 61.0978 41.5855 59.9301L7.64183 40.3327C5.61919 39.1649 4.48313 37.5812 4.48283 35.9297C4.48313 34.2782 5.61918 32.6945 7.64183 31.5267L53.0112 5.33269C55.0338 4.16491 57.777 3.50901 60.6374 3.50884C63.4978 3.50901 66.241 4.16491 68.2636 5.33269ZM91.6433 20.3608L91.6436 38.4287L75.9962 29.3947L91.6433 20.3608ZM51.4605 46.7065L64.1062 39.4055C64.4353 39.2547 64.7054 39.0655 64.8991 38.8501C65.0925 38.6348 65.2052 38.3982 65.2295 38.156C65.2537 37.9138 65.1886 37.6715 65.0388 37.4447C64.8894 37.218 64.6581 37.0121 64.3611 36.8406C64.064 36.6691 63.7076 36.5357 63.3148 36.4493C62.9219 36.3628 62.5024 36.3254 62.0826 36.3392C61.6631 36.3532 61.2533 36.4183 60.8805 36.5299C60.5074 36.6418 60.1797 36.7977 59.9187 36.9879L47.273 44.2889C46.9435 44.4396 46.6732 44.6289 46.4798 44.8442C46.2861 45.0596 46.1736 45.296 46.1494 45.5382C46.1254 45.7806 46.19 46.023 46.3397 46.2498C46.4895 46.4766 46.7204 46.6824 47.0175 46.8539C47.3145 47.0254 47.6713 47.1589 48.0638 47.2452C48.4567 47.3316 48.8768 47.3691 49.2963 47.3551C49.7158 47.3411 50.1253 47.2762 50.4984 47.1643C50.8712 47.0527 51.1992 46.8966 51.4605 46.7065ZM34.8498 39.39C36.512 40.3497 38.7663 40.8888 41.1172 40.8888C43.4678 40.8887 45.7223 40.3497 47.3846 39.39L51.572 36.9723C53.2343 36.0126 54.1678 34.711 54.1681 33.3539C54.1681 31.9966 53.2342 30.6951 51.572 29.7354C49.9098 28.7757 47.6555 28.2365 45.3046 28.2365C42.9537 28.2365 40.6995 28.7757 39.0372 29.7354L34.8498 32.153C33.1875 33.1127 32.2537 34.4142 32.2537 35.7715C32.2537 37.1288 33.1875 38.4303 34.8498 39.39ZM43.2247 32.153C43.7976 31.8905 44.5177 31.7589 45.2479 31.7832C45.9784 31.8074 46.6674 31.9857 47.1848 32.2844C47.7019 32.583 48.0108 32.9808 48.0526 33.4025C48.0947 33.8241 47.8668 34.2399 47.4121 34.5706L43.2247 36.9883C42.6518 37.2508 41.9316 37.3824 41.2014 37.358C40.4709 37.3339 39.782 37.1556 39.2649 36.857C38.7475 36.5583 38.4386 36.1605 38.3968 35.7388C38.3546 35.3172 38.5826 34.9014 39.0372 34.5706L43.2247 32.153Z" fill="#284C59"/>
<defs>
<filter id="filter0_f_345_31798" x="2.48312" y="22.3516" width="91.1608" height="62.2461" filterUnits="userSpaceOnUse" color-interpolation-filters="sRGB">
<feFlood flood-opacity="0" result="BackgroundImageFix"/>
<feBlend mode="normal" in="SourceGraphic" in2="BackgroundImageFix" result="shape"/>
<feGaussianBlur stdDeviation="1" result="effect1_foregroundBlur_345_31798"/>
</filter>
<linearGradient id="paint0_linear_345_31798" x1="48.459" y1="-8.94132" x2="48.459" y2="82.5315" gradientUnits="userSpaceOnUse">
<stop offset="0.317708" stop-color="#397489"/>
<stop offset="1" stop-color="#23B5E9" stop-opacity="0"/>
</linearGradient>
</defs>
</svg>
