<svg width="111" height="95" viewBox="0 0 111 95" fill="none" xmlns="http://www.w3.org/2000/svg">
<g opacity="0.15" filter="url(#filter0_f_271_37670)">
<path fill-rule="evenodd" clip-rule="evenodd" d="M68.5588 35.7858L89.1036 47.6473L70.0516 58.6469C68.9029 59.3102 68.9029 60.3854 70.0517 61.0486L88.9972 71.9868L57.1334 90.3834C55.1108 91.5511 52.3677 92.207 49.5069 92.207C46.6468 92.207 43.9034 91.551 41.8807 90.3832L7.93706 70.7858C5.91441 69.618 4.77836 68.0343 4.77806 66.3828C4.77836 64.7313 5.91441 63.1476 7.93705 61.9798L53.3064 35.7858C55.329 34.618 58.0722 33.9621 60.9326 33.962C63.7931 33.9621 66.5362 34.618 68.5588 35.7858ZM91.9385 50.8139L91.9388 68.8818L76.2914 59.8478L91.9385 50.8139ZM51.7557 77.1597L64.4014 69.8587C64.7306 69.7078 65.0006 69.5186 65.1943 69.3032C65.3877 69.088 65.5005 68.8514 65.5247 68.6092C65.549 68.367 65.4838 68.1246 65.3341 67.8978C65.1846 67.6712 64.9534 67.4652 64.6563 67.2937C64.3593 67.1222 64.0028 66.9888 63.61 66.9024C63.2171 66.8159 62.7976 66.7785 62.3778 66.7923C61.9583 66.8063 61.5485 66.8714 61.1757 66.9831C60.8026 67.0949 60.4749 67.2508 60.2139 67.441L47.5682 74.742C47.2388 74.8927 46.9684 75.0821 46.775 75.2973C46.5813 75.5127 46.4689 75.7492 46.4446 75.9914C46.4207 76.2337 46.4852 76.4761 46.635 76.7029C46.7847 76.9297 47.0157 77.1355 47.3127 77.307C47.6098 77.4785 47.9665 77.612 48.3591 77.6983C48.7519 77.7848 49.172 77.8222 49.5915 77.8082C50.011 77.7942 50.4205 77.7293 50.7936 77.6175C51.1664 77.5058 51.4944 77.3497 51.7557 77.1597ZM35.145 69.8431C36.8073 70.8028 39.0615 71.342 41.4124 71.342C43.763 71.3418 46.0175 70.8028 47.6798 69.8431L51.8672 67.4255C53.5295 66.4658 54.4631 65.1641 54.4634 63.807C54.4634 62.4497 53.5295 61.1482 51.8672 60.1885C50.205 59.2288 47.9508 58.6896 45.5999 58.6896C43.2489 58.6896 40.9947 59.2288 39.3325 60.1885L35.145 62.6061C33.4828 63.5658 32.5489 64.8673 32.5489 66.2246C32.5489 67.5819 33.4828 68.8834 35.145 69.8431ZM43.5199 62.6061C44.0928 62.3436 44.813 62.212 45.5432 62.2364C46.2737 62.2605 46.9626 62.4388 47.48 62.7376C47.9971 63.0361 48.306 63.4339 48.3478 63.8556C48.39 64.2772 48.162 64.693 47.7074 65.0238L43.5199 67.4414C42.947 67.7039 42.2269 67.8355 41.4967 67.8112C40.7662 67.787 40.0772 67.6087 39.5601 67.3101C39.0427 67.0114 38.7338 66.6136 38.692 66.1919C38.6499 65.7703 38.8778 65.3545 39.3325 65.0238L43.5199 62.6061Z" fill="#23B5E9"/>
</g>
<path opacity="0.2" d="M4.76855 67.6446V34.8067L88.5453 16.3086L91.6595 20.0633L92.2721 51.5985V67.6446C85.5554 72.4953 69.9205 83.428 61.1142 88.3536C52.3079 93.2792 46.3748 92.6448 44.5091 91.7119L4.76855 67.6446Z" fill="url(#paint0_linear_271_37670)"/>
<path fill-rule="evenodd" clip-rule="evenodd" d="M68.5588 4.94206L89.1036 16.8036L70.0516 27.8032C68.9029 28.4664 68.9029 29.5416 70.0517 30.2049L88.9972 41.1431L57.1334 59.5396C55.1108 60.7074 52.3677 61.3633 49.5069 61.3633C46.6468 61.3633 43.9034 60.7072 41.8807 59.5394L7.93706 39.9421C5.91441 38.7743 4.77836 37.1905 4.77806 35.5391C4.77836 33.8876 5.91441 32.3038 7.93705 31.1361L53.3064 4.94206C55.329 3.77429 58.0722 3.11839 60.9326 3.11821C63.7931 3.11839 66.5362 3.77429 68.5588 4.94206ZM91.9385 19.9702L91.9388 38.0381L76.2914 29.004L91.9385 19.9702ZM51.7557 46.3159L64.4014 39.0149C64.7306 38.8641 65.0006 38.6749 65.1943 38.4595C65.3877 38.2442 65.5005 38.0076 65.5247 37.7654C65.549 37.5232 65.4838 37.2808 65.3341 37.054C65.1846 36.8274 64.9534 36.6214 64.6563 36.4499C64.3593 36.2784 64.0028 36.1451 63.61 36.0586C63.2171 35.9722 62.7976 35.9347 62.3778 35.9486C61.9583 35.9626 61.5485 36.0277 61.1757 36.1393C60.8026 36.2511 60.4749 36.4071 60.2139 36.5973L47.5682 43.8983C47.2388 44.049 46.9684 44.2383 46.775 44.4536C46.5813 44.669 46.4689 44.9054 46.4446 45.1476C46.4207 45.39 46.4852 45.6324 46.635 45.8592C46.7847 46.086 47.0157 46.2918 47.3127 46.4633C47.6098 46.6348 47.9665 46.7683 48.3591 46.8546C48.7519 46.941 49.172 46.9785 49.5915 46.9645C50.011 46.9505 50.4205 46.8855 50.7936 46.7737C51.1664 46.6621 51.4944 46.506 51.7557 46.3159ZM35.145 38.9993C36.8073 39.959 39.0615 40.4982 41.4124 40.4982C43.763 40.498 46.0175 39.959 47.6798 38.9993L51.8672 36.5817C53.5295 35.622 54.4631 34.3204 54.4634 32.9632C54.4634 31.6059 53.5295 30.3045 51.8672 29.3448C50.205 28.3851 47.9508 27.8459 45.5999 27.8459C43.2489 27.8459 40.9947 28.3851 39.3325 29.3448L35.145 31.7624C33.4828 32.7221 32.5489 34.0236 32.5489 35.3809C32.5489 36.7382 33.4828 38.0396 35.145 38.9993ZM43.5199 31.7624C44.0928 31.4999 44.813 31.3683 45.5432 31.3926C46.2737 31.4168 46.9626 31.5951 47.48 31.8938C47.9971 32.1924 48.306 32.5901 48.3478 33.0119C48.39 33.4335 48.162 33.8493 47.7074 34.18L43.5199 36.5976C42.947 36.8601 42.2269 36.9917 41.4967 36.9674C40.7662 36.9433 40.0772 36.7649 39.5601 36.4664C39.0427 36.1677 38.7338 35.7699 38.692 35.3481C38.6499 34.9266 38.8778 34.5108 39.3325 34.18L43.5199 31.7624Z" fill="url(#paint1_linear_271_37670)"/>
<defs>
<filter id="filter0_f_271_37670" x="2.77783" y="31.9609" width="91.1611" height="62.2461" filterUnits="userSpaceOnUse" color-interpolation-filters="sRGB">
<feFlood flood-opacity="0" result="BackgroundImageFix"/>
<feBlend mode="normal" in="SourceGraphic" in2="BackgroundImageFix" result="shape"/>
<feGaussianBlur stdDeviation="1" result="effect1_foregroundBlur_271_37670"/>
</filter>
<linearGradient id="paint0_linear_271_37670" x1="48.754" y1="0.668052" x2="48.754" y2="92.1409" gradientUnits="userSpaceOnUse">
<stop offset="0.317708" stop-color="#B4B4C3"/>
<stop offset="1" stop-color="#B4B4C3" stop-opacity="0"/>
</linearGradient>
<linearGradient id="paint1_linear_271_37670" x1="85.5308" y1="14.7408" x2="55.2199" y2="67.2408" gradientUnits="userSpaceOnUse">
<stop stop-color="#23B5E9"/>
<stop offset="1" stop-color="#00DED0"/>
</linearGradient>
</defs>
</svg>
