<svg width="17" height="21" viewBox="0 0 17 21" fill="none" xmlns="http://www.w3.org/2000/svg">
<path fill-rule="evenodd" clip-rule="evenodd" d="M2.516 0.824219H9.294V7.10972C9.294 7.48872 9.6012 7.79592 9.9802 7.79592H16.2306V18.3082C16.2306 18.9755 15.9655 19.6154 15.4936 20.0873C15.0218 20.5591 14.3818 20.8242 13.7145 20.8242H2.516C1.8487 20.8242 1.2088 20.5591 0.7369 20.0873C0.2651 19.6154 0 18.9755 0 18.3082V3.34022C0 2.67292 0.2651 2.03302 0.7369 1.56112C1.2088 1.08932 1.8487 0.824219 2.516 0.824219ZM10.6664 1.26132L15.8287 6.42352H10.6664V1.26132ZM11.5653 15.4171V11.2451C11.5765 11.1477 11.567 11.0491 11.5374 10.9556C11.5078 10.8622 11.4588 10.776 11.3936 10.7028C11.3284 10.6296 11.2484 10.5711 11.1589 10.531C11.0695 10.4909 10.9725 10.4702 10.8745 10.4702C10.7765 10.4702 10.6796 10.4909 10.5901 10.531C10.5006 10.5711 10.4207 10.6296 10.3554 10.7028C10.2902 10.776 10.2412 10.8622 10.2116 10.9556C10.182 11.0491 10.1725 11.1477 10.1838 11.2451V15.4171C10.1725 15.5145 10.182 15.6132 10.2116 15.7066C10.2412 15.8001 10.2902 15.8862 10.3554 15.9594C10.4207 16.0326 10.5006 16.0912 10.5901 16.1313C10.6796 16.1714 10.7765 16.1921 10.8745 16.1921C10.9725 16.1921 11.0695 16.1714 11.1589 16.1313C11.2484 16.0912 11.3284 16.0326 11.3936 15.9594C11.4588 15.8862 11.5078 15.8001 11.5374 15.7066C11.567 15.6132 11.5765 15.5145 11.5653 15.4171ZM6.7348 16.0667C7.2832 16.0667 7.8091 15.8489 8.1969 15.4611C8.5846 15.0733 8.8025 14.5474 8.8025 13.999V12.6175C8.8025 12.0691 8.5846 11.5432 8.1969 11.1554C7.8091 10.7676 7.2832 10.5498 6.7348 10.5498C6.1864 10.5498 5.6605 10.7676 5.2727 11.1554C4.8849 11.5432 4.6671 12.0691 4.6671 12.6175V13.999C4.6671 14.5474 4.8849 15.0733 5.2727 15.4611C5.6605 15.8489 6.1864 16.0667 6.7348 16.0667ZM6.0486 12.6175C6.0681 12.448 6.1493 12.2916 6.2767 12.1781C6.4041 12.0645 6.5687 12.0018 6.7394 12.0018C6.91 12.0018 7.0746 12.0645 7.202 12.1781C7.3294 12.2916 7.4106 12.448 7.4301 12.6175V13.999C7.4106 14.1685 7.3294 14.3249 7.202 14.4384C7.0746 14.552 6.91 14.6147 6.7394 14.6147C6.5687 14.6147 6.4041 14.552 6.2767 14.4384C6.1493 14.3249 6.0681 14.1685 6.0486 13.999V12.6175Z" fill="#23B5E9"/>
</svg>
