<svg width="17" height="21" viewBox="0 0 17 21" fill="none" xmlns="http://www.w3.org/2000/svg">
<path fill-rule="evenodd" clip-rule="evenodd" d="M2.5149 0.828125C1.8479 0.828125 1.2082 1.09309 0.736601 1.56471C0.265001 2.03634 0 2.67599 0 3.34298V18.3041C0 18.971 0.265001 19.6107 0.736601 20.0823C1.2082 20.554 1.8479 20.8189 2.5149 20.8189H13.7083C14.3753 20.8189 15.0149 20.554 15.4865 20.0823C15.9582 19.6107 16.2231 18.971 16.2231 18.3041V7.11069C16.2231 6.92879 16.1509 6.75434 16.0222 6.62572L10.4255 1.02901C10.2969 0.900385 10.1225 0.828125 9.9406 0.828125H2.5149ZM1.7066 2.53468C1.9209 2.3203 2.2117 2.19987 2.5149 2.19987H9.2898V7.11068C9.2898 7.48948 9.5968 7.79655 9.9756 7.79655H14.8514V18.3041C14.8514 18.6072 14.731 18.898 14.5166 19.1124C14.3022 19.3267 14.0114 19.4472 13.7083 19.4472H2.5149C2.2117 19.4472 1.9209 19.3267 1.7066 19.1124C1.4922 18.898 1.3717 18.6072 1.3717 18.3041V3.34298C1.3717 3.0398 1.4922 2.74906 1.7066 2.53468ZM13.8814 6.42482L10.6615 3.20492V6.42482H13.8814ZM6.7294 16.0635C7.2775 16.0635 7.8032 15.8458 8.1908 15.4582C8.5784 15.0706 8.7962 14.5449 8.7962 13.9968V12.6159C8.7962 12.0678 8.5784 11.5421 8.1908 11.1545C7.8032 10.7669 7.2775 10.5491 6.7294 10.5491C6.1813 10.5491 5.6556 10.7669 5.268 11.1545C4.8804 11.5421 4.6626 12.0678 4.6626 12.6159V13.9968C4.6626 14.5449 4.8804 15.0706 5.268 15.4582C5.6556 15.8458 6.1813 16.0635 6.7294 16.0635ZM6.0435 12.6159C6.0631 12.4465 6.1442 12.2901 6.2715 12.1767C6.3988 12.0632 6.5634 12.0005 6.734 12.0005C6.9045 12.0005 7.0691 12.0632 7.1964 12.1767C7.3237 12.2901 7.4049 12.4465 7.4244 12.6159V13.9968C7.4049 14.1662 7.3237 14.3225 7.1964 14.436C7.0691 14.5495 6.9045 14.6122 6.734 14.6122C6.5634 14.6122 6.3988 14.5495 6.2715 14.436C6.1442 14.3225 6.0631 14.1662 6.0435 13.9968V12.6159ZM11.5595 11.2442V15.4143C11.5707 15.5116 11.5612 15.6102 11.5316 15.7037C11.502 15.7971 11.453 15.8832 11.3878 15.9563C11.3226 16.0295 11.2427 16.088 11.1533 16.1281C11.0639 16.1682 10.967 16.1889 10.869 16.1889C10.771 16.1889 10.6742 16.1682 10.5847 16.1281C10.4953 16.088 10.4154 16.0295 10.3502 15.9563C10.285 15.8832 10.236 15.7971 10.2064 15.7037C10.1768 15.6102 10.1674 15.5116 10.1786 15.4143V11.2442C10.1674 11.1468 10.1768 11.0482 10.2064 10.9548C10.236 10.8614 10.285 10.7753 10.3502 10.7021C10.4154 10.629 10.4953 10.5705 10.5847 10.5304C10.6742 10.4903 10.771 10.4696 10.869 10.4696C10.967 10.4696 11.0639 10.4903 11.1533 10.5304C11.2427 10.5705 11.3226 10.629 11.3878 10.7021C11.453 10.7753 11.502 10.8614 11.5316 10.9548C11.5612 11.0482 11.5707 11.1468 11.5595 11.2442Z" fill="#829AAC"/>
</svg>
