<svg width="456" height="342" viewBox="0 0 456 342" fill="none" xmlns="http://www.w3.org/2000/svg">
<path d="M166.592 68.5547H257.331V124.862C257.331 126.008 256.876 127.107 256.065 127.918C255.254 128.729 254.155 129.184 253.009 129.184H170.914C169.768 129.184 168.668 128.729 167.858 127.918C167.047 127.107 166.592 126.008 166.592 124.862V68.5547Z" fill="#071D2D"/>
<path d="M253.01 129.696H170.915C169.632 129.693 168.403 129.181 167.496 128.272C166.59 127.364 166.081 126.133 166.081 124.85V68.5545C166.081 68.4177 166.135 68.2863 166.23 68.1885C166.326 68.0907 166.456 68.0342 166.593 68.0312H257.332C257.471 68.0312 257.604 68.0864 257.702 68.1845C257.8 68.2826 257.856 68.4157 257.856 68.5545V124.85C257.856 126.135 257.345 127.368 256.436 128.276C255.527 129.185 254.295 129.696 253.01 129.696ZM167.116 69.0778V124.816C167.116 125.825 167.516 126.792 168.228 127.506C168.94 128.221 169.907 128.624 170.915 128.627H253.01C254.02 128.627 254.99 128.225 255.704 127.51C256.419 126.796 256.82 125.827 256.82 124.816V69.0778H167.116Z" fill="#53809D"/>
<path d="M170.914 60.5H253.009C254.155 60.5 255.254 60.9554 256.065 61.766C256.876 62.5767 257.331 63.6761 257.331 64.8225V68.5536H166.592V64.8225C166.592 63.6761 167.047 62.5767 167.858 61.766C168.668 60.9554 169.768 60.5 170.914 60.5Z" fill="#071D2D"/>
<path d="M257.332 69.077H166.593C166.456 69.074 166.326 69.0176 166.23 68.9198C166.135 68.822 166.081 68.6906 166.081 68.5537V64.8227C166.084 63.5415 166.594 62.3136 167.5 61.4076C168.406 60.5016 169.634 59.9913 170.915 59.9883H253.01C254.289 59.9943 255.514 60.5059 256.418 61.4116C257.321 62.3172 257.83 63.5434 257.833 64.8227V68.5537C257.833 68.6887 257.781 68.8184 257.688 68.9159C257.594 69.0134 257.467 69.0711 257.332 69.077ZM167.116 68.0305H256.82V64.8227C256.817 63.814 256.415 62.8477 255.7 62.1355C254.986 61.4233 254.018 61.0234 253.01 61.0234H170.915C169.909 61.0264 168.944 61.4277 168.232 62.1395C167.52 62.8514 167.119 63.816 167.116 64.8227V68.0305Z" fill="#53809D"/>
<path d="M188.933 91.0921C192.162 91.0921 194.78 88.4744 194.78 85.2452C194.78 82.0161 192.162 79.3984 188.933 79.3984C185.704 79.3984 183.086 82.0161 183.086 85.2452C183.086 88.4744 185.704 91.0921 188.933 91.0921Z" fill="url(#paint0_linear_271_37588)"/>
<path d="M178.31 102.921C178.4 100.162 179.559 97.5458 181.543 95.626C183.527 93.7061 186.179 92.6328 188.94 92.6328C191.7 92.6328 194.353 93.7061 196.336 95.626C198.32 97.5458 199.479 100.162 199.57 102.921H178.31Z" fill="url(#paint1_linear_271_37588)"/>
<path d="M234.991 91.0921C238.22 91.0921 240.838 88.4744 240.838 85.2452C240.838 82.0161 238.22 79.3984 234.991 79.3984C231.762 79.3984 229.145 82.0161 229.145 85.2452C229.145 88.4744 231.762 91.0921 234.991 91.0921Z" fill="url(#paint2_linear_271_37588)"/>
<path d="M224.366 102.921C224.456 100.162 225.616 97.5458 227.6 95.626C229.583 93.7061 232.236 92.6328 234.996 92.6328C237.757 92.6328 240.409 93.7061 242.393 95.626C244.377 97.5458 245.536 100.162 245.626 102.921H224.366Z" fill="url(#paint3_linear_271_37588)"/>
<path d="M221.944 85.7664H208.294C208.155 85.7664 208.022 85.7113 207.924 85.6131C207.826 85.515 207.771 85.3819 207.771 85.2431C207.771 85.1043 207.826 84.9713 207.924 84.8731C208.022 84.775 208.155 84.7199 208.294 84.7199H220.738L218.019 81.8647C217.971 81.8171 217.933 81.7604 217.907 81.6979C217.881 81.6355 217.867 81.5684 217.867 81.5007C217.867 81.433 217.881 81.366 217.907 81.3035C217.933 81.241 217.971 81.1843 218.019 81.1367C218.119 81.0414 218.251 80.9883 218.389 80.9883C218.527 80.9883 218.659 81.0414 218.759 81.1367L222.308 84.8791C222.379 84.9508 222.427 85.0424 222.446 85.1419C222.464 85.2414 222.452 85.3441 222.41 85.4365C222.373 85.5308 222.309 85.6121 222.226 85.6707C222.143 85.7293 222.045 85.7625 221.944 85.7664Z" fill="#53809D"/>
<path d="M218.532 89.0965C218.391 89.0951 218.256 89.0379 218.157 88.9373C218.059 88.8392 218.004 88.7062 218.004 88.5676C218.004 88.429 218.059 88.296 218.157 88.1979L221.569 84.8764C221.67 84.7858 221.802 84.7379 221.937 84.7425C222.072 84.7471 222.201 84.804 222.295 84.9012C222.389 84.9984 222.442 85.1283 222.443 85.2636C222.443 85.399 222.391 85.5293 222.297 85.6271L218.885 88.9486C218.79 89.0407 218.664 89.0935 218.532 89.0965Z" fill="#53809D"/>
<path d="M215.471 90.1453H201.821C201.72 90.147 201.621 90.1187 201.536 90.0641C201.451 90.0094 201.384 89.9308 201.344 89.8382C201.303 89.7438 201.291 89.6395 201.309 89.5384C201.327 89.4372 201.375 89.3437 201.446 89.2694L204.995 85.5384C205.041 85.4862 205.098 85.4439 205.161 85.4139C205.224 85.3839 205.293 85.3669 205.362 85.3638C205.432 85.3607 205.502 85.3716 205.568 85.396C205.633 85.4203 205.693 85.4575 205.744 85.5053C205.795 85.5532 205.836 85.6108 205.864 85.6747C205.892 85.7386 205.907 85.8075 205.909 85.8774C205.91 85.9473 205.897 86.0167 205.871 86.0816C205.845 86.1464 205.806 86.2054 205.757 86.255L203.027 89.0988H215.471C215.609 89.1017 215.741 89.1578 215.838 89.2553C215.936 89.3528 215.992 89.4842 215.995 89.622C215.995 89.7608 215.94 89.8939 215.841 89.992C215.743 90.0902 215.61 90.1453 215.471 90.1453Z" fill="#53809D"/>
<path d="M205.222 93.4676C205.156 93.4685 205.091 93.4559 205.03 93.4304C204.97 93.405 204.915 93.3673 204.87 93.3197L201.457 90.0095C201.362 89.91 201.309 89.7776 201.309 89.6398C201.309 89.5021 201.362 89.3696 201.457 89.2701C201.555 89.1722 201.688 89.1172 201.827 89.1172C201.965 89.1172 202.098 89.1722 202.196 89.2701L205.609 92.5917C205.657 92.6393 205.695 92.696 205.721 92.7584C205.747 92.8209 205.761 92.888 205.761 92.9557C205.761 93.0234 205.747 93.0904 205.721 93.1529C205.695 93.2154 205.657 93.2721 205.609 93.3197C205.558 93.3688 205.497 93.4072 205.43 93.4326C205.364 93.458 205.293 93.4699 205.222 93.4676Z" fill="#53809D"/>
<path d="M239.018 109.802H184.907C184.756 109.802 184.611 109.742 184.504 109.635C184.398 109.528 184.338 109.384 184.338 109.233C184.341 109.083 184.402 108.94 184.508 108.834C184.614 108.728 184.757 108.667 184.907 108.664H239.018C239.169 108.664 239.314 108.724 239.42 108.831C239.527 108.937 239.587 109.082 239.587 109.233C239.587 109.384 239.527 109.528 239.42 109.635C239.314 109.742 239.169 109.802 239.018 109.802Z" fill="#D1D3D4"/>
<path d="M239.018 113.645H184.907C184.756 113.645 184.611 113.585 184.504 113.479C184.398 113.372 184.338 113.227 184.338 113.077C184.341 112.927 184.402 112.784 184.508 112.678C184.614 112.572 184.757 112.511 184.907 112.508H239.018C239.169 112.508 239.314 112.568 239.42 112.674C239.527 112.781 239.587 112.926 239.587 113.077C239.587 113.227 239.527 113.372 239.42 113.479C239.314 113.585 239.169 113.645 239.018 113.645Z" fill="#D1D3D4"/>
<path d="M233.456 117.536H184.907C184.756 117.536 184.611 117.476 184.504 117.369C184.398 117.263 184.338 117.118 184.338 116.967C184.341 116.817 184.402 116.674 184.508 116.568C184.614 116.462 184.757 116.401 184.907 116.398H233.456C233.606 116.401 233.749 116.462 233.855 116.568C233.961 116.674 234.022 116.817 234.024 116.967C234.024 117.118 233.965 117.263 233.858 117.369C233.751 117.476 233.607 117.536 233.456 117.536Z" fill="#D1D3D4"/>
<path d="M172.975 65.9162C173.741 65.9162 174.362 65.2948 174.362 64.5284C174.362 63.7619 173.741 63.1406 172.975 63.1406C172.208 63.1406 171.587 63.7619 171.587 64.5284C171.587 65.2948 172.208 65.9162 172.975 65.9162Z" fill="url(#paint4_linear_271_37588)"/>
<path d="M177.865 65.9162C178.632 65.9162 179.253 65.2948 179.253 64.5284C179.253 63.7619 178.632 63.1406 177.865 63.1406C177.099 63.1406 176.478 63.7619 176.478 64.5284C176.478 65.2948 177.099 65.9162 177.865 65.9162Z" fill="#D1D3D4"/>
<path d="M182.757 65.9162C183.523 65.9162 184.145 65.2948 184.145 64.5284C184.145 63.7619 183.523 63.1406 182.757 63.1406C181.99 63.1406 181.369 63.7619 181.369 64.5284C181.369 65.2948 181.99 65.9162 182.757 65.9162Z" fill="#D1D3D4"/>
<path d="M271.381 63.3555H388.476V201.54C388.476 203.049 387.877 204.496 386.81 205.562C385.744 206.629 384.297 207.228 382.788 207.228H277.057C275.548 207.228 274.102 206.629 273.035 205.562C271.968 204.496 271.369 203.049 271.369 201.54V63.3555H271.381Z" fill="#071D2D"/>
<path d="M382.788 207.799H277C275.343 207.796 273.754 207.136 272.583 205.963C271.412 204.79 270.755 203.2 270.755 201.543V63.3578C270.755 63.207 270.815 63.0623 270.921 62.9556C271.028 62.849 271.173 62.7891 271.324 62.7891H388.476C388.627 62.7891 388.772 62.849 388.878 62.9556C388.985 63.0623 389.045 63.207 389.045 63.3578V201.543C389.042 203.201 388.382 204.791 387.209 205.963C386.036 207.136 384.447 207.796 382.788 207.799ZM271.949 63.9266V201.566C271.949 202.921 272.487 204.221 273.445 205.181C274.402 206.141 275.701 206.681 277.057 206.684H382.845C384.202 206.681 385.502 206.141 386.462 205.182C387.421 204.222 387.961 202.922 387.964 201.566V63.9266H271.949Z" fill="#53809D"/>
<path d="M364.599 195.843H295.211C293.752 195.832 292.356 195.248 291.323 194.219C290.289 193.19 289.7 191.796 289.683 190.338V187.039C289.686 185.565 290.273 184.152 291.315 183.109C292.358 182.067 293.771 181.48 295.245 181.477H364.633C366.109 181.477 367.523 182.063 368.567 183.106C369.61 184.149 370.196 185.564 370.196 187.039V190.338C370.181 191.809 369.583 193.214 368.534 194.246C367.486 195.278 366.071 195.852 364.599 195.843ZM295.211 182.614C294.043 182.623 292.927 183.093 292.104 183.922C291.282 184.751 290.82 185.871 290.82 187.039V190.338C290.823 191.509 291.291 192.632 292.12 193.459C292.95 194.287 294.073 194.751 295.245 194.751H364.633C365.805 194.751 366.929 194.287 367.758 193.459C368.588 192.632 369.055 191.509 369.058 190.338V187.039C369.058 185.865 368.592 184.74 367.762 183.91C366.932 183.08 365.807 182.614 364.633 182.614H295.211Z" fill="#53809D"/>
<path d="M297.407 101.227H288.125V168.124H297.407V101.227Z" fill="url(#paint5_linear_271_37588)"/>
<path d="M314.537 116.891H305.255V168.113H314.537V116.891Z" fill="url(#paint6_linear_271_37588)"/>
<path d="M331.657 106.688H322.375V168.125H331.657V106.688Z" fill="url(#paint7_linear_271_37588)"/>
<path d="M348.788 125.195H339.506V168.114H348.788V125.195Z" fill="url(#paint8_linear_271_37588)"/>
<path d="M365.919 106.688H356.637V168.125H365.919V106.688Z" fill="url(#paint9_linear_271_37588)"/>
<path d="M365.702 75.45H349.97C349.819 75.45 349.675 75.3901 349.568 75.2834C349.461 75.1768 349.401 75.0321 349.401 74.8813C349.401 74.7304 349.461 74.5857 349.568 74.4791C349.675 74.3724 349.819 74.3125 349.97 74.3125H365.679C365.829 74.3154 365.972 74.3763 366.078 74.4823C366.184 74.5883 366.245 74.7313 366.248 74.8813C366.248 75.0282 366.191 75.1696 366.089 75.2756C365.988 75.3816 365.849 75.4441 365.702 75.45Z" fill="#53809D"/>
<path d="M360.208 81.3094H349.97C349.819 81.3094 349.675 81.2495 349.568 81.1428C349.461 81.0361 349.401 80.8915 349.401 80.7406C349.401 80.5898 349.461 80.4451 349.568 80.3385C349.675 80.2318 349.819 80.1719 349.97 80.1719H360.208C360.359 80.1719 360.503 80.2318 360.61 80.3385C360.717 80.4451 360.776 80.5898 360.776 80.7406C360.776 80.8915 360.717 81.0361 360.61 81.1428C360.503 81.2495 360.359 81.3094 360.208 81.3094Z" fill="#53809D"/>
<path d="M345.296 107.377C340.337 107.377 336.014 101.849 332.533 97.3899C330.258 94.5006 328.131 91.7024 326.709 91.7024C325.094 91.7024 322.864 93.0333 320.51 94.3983C317.302 96.2524 313.685 98.3568 310.272 98.1634C303.891 97.8222 291.901 83.7398 291.401 83.1369C291.354 83.0835 291.318 83.0212 291.295 82.9537C291.273 82.8862 291.264 82.8149 291.269 82.7439C291.274 82.6729 291.294 82.6037 291.326 82.5403C291.359 82.4769 291.403 82.4206 291.458 82.3748C291.562 82.2747 291.7 82.2188 291.845 82.2188C291.989 82.2188 292.127 82.2747 292.231 82.3748C292.345 82.5226 304.414 96.7074 310.329 97.0259C313.446 97.2079 316.927 95.1832 319.998 93.3973C322.478 91.964 324.821 90.6104 326.709 90.5535C328.598 90.4966 330.793 93.1925 333.455 96.6164C336.867 100.973 341.076 106.388 345.637 106.172C349.585 105.978 351.473 102.543 353.475 98.9028C355.477 95.2628 357.377 91.782 361.369 91.0199C361.504 91.0091 361.638 91.0489 361.746 91.1316C361.853 91.2142 361.926 91.3337 361.95 91.467C361.974 91.6002 361.948 91.7377 361.876 91.8527C361.805 91.9676 361.693 92.0519 361.563 92.0891C358.082 92.7489 356.307 95.9908 354.419 99.4261C352.372 103.168 350.244 107.036 345.694 107.264L345.296 107.377Z" fill="#D1D3D4"/>
<path d="M373.859 168.655H280.583C280.511 168.655 280.441 168.641 280.375 168.613C280.31 168.586 280.25 168.545 280.2 168.495C280.151 168.444 280.112 168.383 280.085 168.317C280.059 168.251 280.046 168.18 280.048 168.109C280.054 167.97 280.112 167.839 280.212 167.742C280.311 167.644 280.444 167.589 280.583 167.586H373.859C374.003 167.586 374.142 167.643 374.245 167.746C374.347 167.848 374.405 167.987 374.405 168.132C374.403 168.202 374.388 168.271 374.36 168.336C374.331 168.4 374.291 168.458 374.24 168.507C374.189 168.555 374.13 168.593 374.064 168.619C373.999 168.644 373.929 168.657 373.859 168.655Z" fill="#D1D3D4"/>
<path d="M291.957 84.8775C291.543 84.8775 291.139 84.7547 290.794 84.5247C290.45 84.2947 290.182 83.9678 290.024 83.5854C289.865 83.2029 289.824 82.7821 289.904 82.3761C289.985 81.9701 290.185 81.5972 290.477 81.3044C290.77 81.0117 291.143 80.8124 291.549 80.7316C291.955 80.6509 292.376 80.6923 292.758 80.8507C293.141 81.0091 293.468 81.2774 293.698 81.6216C293.928 81.9658 294.05 82.3705 294.05 82.7844C294.05 83.3395 293.83 83.8719 293.437 84.2644C293.045 84.6569 292.512 84.8775 291.957 84.8775ZM291.957 81.7834C291.757 81.7834 291.56 81.8431 291.394 81.9549C291.227 82.0666 291.097 82.2254 291.021 82.4111C290.945 82.5967 290.925 82.8008 290.965 82.9975C291.005 83.1942 291.103 83.3746 291.246 83.5157C291.388 83.6568 291.57 83.7523 291.767 83.7901C291.964 83.8279 292.168 83.8062 292.353 83.7278C292.537 83.6495 292.695 83.5179 292.805 83.3499C292.914 83.182 292.972 82.9851 292.97 82.7844C292.97 82.652 292.943 82.5209 292.892 82.3987C292.841 82.2765 292.767 82.1657 292.672 82.0726C292.578 81.9794 292.467 81.906 292.344 81.8563C292.221 81.8067 292.09 81.7819 291.957 81.7834Z" fill="#D1D3D4"/>
<path d="M361.345 93.7641C360.932 93.7619 360.528 93.6372 360.186 93.4059C359.843 93.1745 359.576 92.8469 359.42 92.4642C359.263 92.0816 359.223 91.6611 359.305 91.2559C359.387 90.8506 359.588 90.4787 359.881 90.1872C360.174 89.8956 360.547 89.6974 360.953 89.6175C361.358 89.5377 361.778 89.5798 362.16 89.7385C362.542 89.8973 362.868 90.1655 363.098 90.5095C363.327 90.8534 363.45 91.2576 363.45 91.6711C363.447 92.2273 363.224 92.7596 362.829 93.1518C362.435 93.544 361.901 93.7641 361.345 93.7641ZM361.345 90.6587C361.145 90.6587 360.949 90.7181 360.783 90.8293C360.616 90.9406 360.487 91.0987 360.41 91.2837C360.333 91.4687 360.313 91.6722 360.352 91.8686C360.391 92.065 360.488 92.2454 360.629 92.387C360.771 92.5286 360.951 92.625 361.148 92.664C361.344 92.7031 361.548 92.6831 361.733 92.6064C361.918 92.5298 362.076 92.4001 362.187 92.2336C362.298 92.0671 362.358 91.8713 362.358 91.6711C362.358 91.4026 362.251 91.1451 362.061 90.9553C361.871 90.7654 361.614 90.6587 361.345 90.6587Z" fill="#D1D3D4"/>
<path d="M277.056 51.5625H382.788C384.296 51.5625 385.743 52.1617 386.81 53.2283C387.876 54.295 388.475 55.7416 388.475 57.2501V63.3357H271.38V57.2501C271.38 55.7436 271.978 54.2987 273.042 53.2324C274.106 52.1661 275.55 51.5655 277.056 51.5625Z" fill="#071D2D"/>
<path d="M388.476 63.9257H271.38C271.229 63.9257 271.085 63.8658 270.978 63.7591C270.871 63.6525 270.812 63.5078 270.812 63.3569V57.2485C270.812 55.5912 271.469 54.0016 272.64 52.8286C273.811 51.6557 275.399 50.9952 277.056 50.9922H382.845C384.503 50.9952 386.093 51.6553 387.266 52.8279C388.438 54.0006 389.098 55.5901 389.101 57.2485V63.3342C389.105 63.4158 389.091 63.4973 389.061 63.573C389.03 63.6488 388.983 63.717 388.924 63.7731C388.865 63.8293 388.794 63.8719 388.716 63.8983C388.639 63.9246 388.557 63.934 388.476 63.9257ZM271.949 62.7882H387.907V57.2485C387.904 55.8918 387.364 54.5916 386.404 53.6323C385.445 52.673 384.145 52.1327 382.788 52.1297H277C275.644 52.1327 274.345 52.6733 273.387 53.633C272.43 54.5926 271.892 55.8929 271.892 57.2485L271.949 62.7882Z" fill="#53809D"/>
<path d="M150.553 121.891H72.2128C69.9071 121.891 68.0381 123.76 68.0381 126.065V224.233C68.0381 226.538 69.9071 228.407 72.2128 228.407H150.553C152.859 228.407 154.728 226.538 154.728 224.233V126.065C154.728 123.76 152.859 121.891 150.553 121.891Z" fill="#071D2D"/>
<path d="M150.554 229.012H72.2132C70.9551 229.012 69.7486 228.513 68.859 227.623C67.9695 226.734 67.4697 225.527 67.4697 224.269V126.068C67.4727 124.811 67.9734 123.606 68.8624 122.717C69.7513 121.828 70.956 121.327 72.2132 121.324H150.554C151.811 121.327 153.015 121.828 153.904 122.717C154.793 123.606 155.294 124.811 155.297 126.068V224.235C155.302 224.861 155.182 225.481 154.946 226.061C154.709 226.64 154.361 227.167 153.92 227.611C153.479 228.055 152.955 228.408 152.377 228.648C151.799 228.889 151.179 229.013 150.554 229.012ZM72.2132 122.462C71.2577 122.465 70.3423 122.846 69.6667 123.521C68.9911 124.197 68.6102 125.112 68.6072 126.068V224.235C68.6027 224.711 68.6927 225.184 68.8719 225.625C69.0511 226.067 69.316 226.468 69.6512 226.807C69.9865 227.145 70.3856 227.414 70.8253 227.597C71.265 227.781 71.7367 227.875 72.2132 227.875H150.554C151.51 227.875 152.427 227.495 153.103 226.819C153.78 226.143 154.16 225.225 154.16 224.269V126.068C154.157 125.112 153.776 124.197 153.1 123.521C152.424 122.846 151.509 122.465 150.554 122.462H72.2132Z" fill="#53809D"/>
<path d="M132.876 205.911H86.1586C86.0078 205.911 85.8631 205.851 85.7564 205.744C85.6498 205.638 85.5898 205.493 85.5898 205.342C85.5928 205.192 85.6536 205.049 85.7596 204.943C85.8657 204.837 86.0087 204.776 86.1586 204.773H132.876C133.027 204.773 133.172 204.833 133.278 204.94C133.385 205.047 133.445 205.191 133.445 205.342C133.445 205.493 133.385 205.638 133.278 205.744C133.172 205.851 133.027 205.911 132.876 205.911Z" fill="#D1D3D4"/>
<path d="M110.319 213.544H86.1586C86.0087 213.541 85.8657 213.48 85.7596 213.374C85.6536 213.268 85.5928 213.125 85.5898 212.975C85.5898 212.824 85.6498 212.68 85.7564 212.573C85.8631 212.466 86.0078 212.406 86.1586 212.406H110.319C110.47 212.406 110.615 212.466 110.722 212.573C110.828 212.68 110.888 212.824 110.888 212.975C110.885 213.125 110.824 213.268 110.718 213.374C110.612 213.48 110.469 213.541 110.319 213.544Z" fill="#D1D3D4"/>
<path d="M89.0491 145.872C95.8741 152.697 102.673 159.499 109.445 166.279C109.548 166.391 109.675 166.48 109.817 166.539C109.958 166.598 110.111 166.626 110.264 166.62H141.511C141.34 171.447 140.011 176.161 137.637 180.367C135.262 184.573 131.911 188.146 127.867 190.786C123.822 193.425 119.203 195.054 114.397 195.535C109.591 196.016 104.74 195.334 100.253 193.548C95.766 191.762 91.7738 188.923 88.6132 185.271C85.4525 181.62 83.216 177.262 82.092 172.564C80.968 167.867 80.9896 162.969 82.1548 158.282C83.32 153.595 85.5948 149.257 88.7874 145.633L89.0491 145.872Z" fill="url(#paint10_linear_271_37588)"/>
<path d="M112.469 135.375V164.473H112.765L140.929 164.404C141.555 164.404 141.555 164.404 141.509 163.779C141.154 158.245 139.292 152.913 136.124 148.362C132.956 143.81 128.603 140.212 123.537 137.957C120.444 136.606 117.151 135.772 113.788 135.489L112.469 135.375Z" fill="#D1D3D4"/>
<path d="M110.32 164.083V135.395C106.937 135.57 103.602 136.272 100.435 137.476C96.647 138.975 93.1914 141.205 90.2656 144.04L110.32 164.083Z" fill="#D1D3D4"/>
<path d="M200.615 148.589C193.915 146.575 190.378 138.738 188.592 132.504C186.59 125.418 184.235 119.616 187.09 112.234C187.739 110.539 188.785 108.821 190.503 108.275C190.931 108.213 191.345 108.071 191.72 107.854C192.018 107.559 192.241 107.196 192.368 106.796C196.441 97.1958 207.964 96.9342 216.609 98.2878C221.614 99.0727 228.109 101.359 229.667 106.501C232.522 115.976 230.111 126.282 224.856 134.472C219.942 142.173 210.648 151.66 200.615 148.589Z" fill="#071D2D"/>
<path d="M204.449 149.728C203.096 149.732 201.75 149.532 200.456 149.137C193.46 147.032 189.843 139.024 188.046 132.665C187.818 131.858 187.591 131.062 187.352 130.277C185.532 124.1 183.939 118.754 186.556 112.077C187.477 109.676 188.774 108.232 190.378 107.777L190.719 107.697C190.997 107.699 191.266 107.6 191.475 107.418C191.685 107.236 191.82 106.983 191.856 106.707C196.099 96.7429 207.782 96.3561 216.745 97.778C220.158 98.3126 228.416 100.235 230.27 106.389C232.977 115.398 231.203 125.727 225.39 134.827C220.465 142.414 212.707 149.728 204.449 149.728ZM209.499 98.2671C202.674 98.2671 195.849 100.201 192.926 107.015C192.773 107.509 192.49 107.953 192.107 108.3C191.768 108.538 191.378 108.694 190.969 108.755L190.685 108.835C189.445 109.176 188.41 110.393 187.613 112.441C185.156 118.799 186.681 123.975 188.444 129.958C188.683 130.743 188.91 131.539 189.149 132.358C190.867 138.433 194.279 146.1 200.786 148.056C209.886 150.775 218.986 142.664 224.412 134.167C230.043 125.385 231.772 115.364 229.155 106.662C227.483 101.134 219.782 99.3591 216.552 98.8586C214.22 98.48 211.862 98.2822 209.499 98.2671Z" fill="#53809D"/>
<path d="M231.055 129.414C231.055 129.414 238.232 138.389 237.106 140.493C235.98 142.598 231.521 141.631 231.521 141.631" fill="#071D2D"/>
<path d="M233.648 142.46C232.884 142.461 232.122 142.385 231.373 142.233C231.222 142.203 231.09 142.114 231.004 141.986C230.919 141.858 230.888 141.701 230.918 141.55C230.948 141.399 231.037 141.267 231.165 141.181C231.293 141.096 231.45 141.065 231.601 141.095C232.738 141.323 235.821 141.619 236.572 140.208C237.163 139.071 233.91 133.918 230.577 129.743C230.482 129.625 230.437 129.474 230.452 129.323C230.467 129.172 230.54 129.033 230.657 128.935C230.777 128.844 230.928 128.803 231.078 128.82C231.229 128.837 231.367 128.911 231.464 129.026C233.205 131.21 238.79 138.479 237.573 140.743C236.867 142.142 235.081 142.46 233.648 142.46Z" fill="#53809D"/>
<path d="M228.552 116.901C232.875 119.813 232.34 126.866 232.716 131.382C233.239 137.729 233.618 144.091 233.853 150.469C234.001 154.507 223.616 155.542 221.648 154.507L224.719 170.262L202.094 163.846L201.127 145.43C201.127 145.43 207.952 144.85 211.365 136.33C214.777 127.81 213.378 115.172 213.378 115.172C213.378 115.172 224.332 114.046 228.552 116.901Z" fill="#071D2D"/>
<path d="M224.72 170.827H224.561L201.913 164.412C201.798 164.381 201.696 164.315 201.62 164.223C201.545 164.131 201.5 164.018 201.492 163.9L200.525 145.472C200.518 145.327 200.568 145.184 200.663 145.074C200.758 144.964 200.892 144.895 201.037 144.88C201.31 144.88 207.623 144.209 210.774 136.099C214.016 127.75 212.765 115.328 212.753 115.203C212.744 115.052 212.788 114.903 212.878 114.782C212.926 114.724 212.985 114.676 213.051 114.641C213.118 114.606 213.19 114.584 213.265 114.577C213.72 114.577 224.538 113.519 228.872 116.443C232.705 119.036 232.944 124.496 233.137 128.955C233.137 129.82 233.217 130.65 233.285 131.412C233.809 137.76 234.195 144.187 234.423 150.522C234.418 151.165 234.232 151.793 233.885 152.334C233.539 152.876 233.047 153.308 232.466 153.582C229.816 155.243 224.811 155.801 222.377 155.391L225.277 170.179C225.295 170.275 225.289 170.374 225.259 170.468C225.23 170.561 225.177 170.645 225.107 170.713C224.994 170.793 224.858 170.833 224.72 170.827ZM202.607 163.411L223.981 169.462L221.091 154.618C221.067 154.512 221.074 154.402 221.113 154.3C221.151 154.199 221.219 154.111 221.307 154.049C221.398 153.994 221.502 153.964 221.609 153.964C221.715 153.964 221.819 153.994 221.91 154.049C223.173 154.72 229.02 154.367 231.863 152.593C232.842 151.979 233.319 151.285 233.285 150.534C233.058 144.209 232.671 137.794 232.148 131.469C232.08 130.696 232.045 129.854 232 128.967C231.818 124.826 231.59 119.673 228.235 117.41C224.822 115.066 216.211 115.521 213.936 115.681C214.152 118.285 214.812 128.876 211.832 136.531C208.852 144.187 203.448 145.631 201.685 145.961L202.607 163.411Z" fill="#53809D"/>
<path d="M233.274 145.746C233.274 145.746 227.04 145.746 225.55 137.328Z" fill="#071D2D"/>
<path d="M233.273 146.318C233.205 146.318 226.539 146.216 224.981 137.434C224.957 137.285 224.993 137.133 225.08 137.01C225.167 136.887 225.299 136.802 225.447 136.775C225.595 136.748 225.747 136.781 225.871 136.866C225.994 136.951 226.079 137.082 226.107 137.23C227.483 145.056 233.046 145.192 233.273 145.192C233.424 145.192 233.569 145.252 233.675 145.359C233.782 145.465 233.842 145.61 233.842 145.761C233.839 145.91 233.778 146.052 233.671 146.156C233.565 146.26 233.422 146.318 233.273 146.318Z" fill="#53809D"/>
<path d="M219.247 134.598C218.923 133.03 218.171 131.581 217.075 130.412C216.355 129.399 215.489 128.498 214.504 127.739C214.01 127.362 213.438 127.1 212.83 126.972C212.222 126.844 211.593 126.854 210.989 127C210.477 127.186 210.01 127.478 209.619 127.856C209.227 128.234 208.919 128.69 208.714 129.195C208.305 130.217 208.13 131.317 208.202 132.414C208.31 134.815 209.049 137.145 210.345 139.168C211.641 141.191 213.449 142.836 215.585 143.937L215.209 143.585" fill="#071D2D"/>
<path d="M215.551 144.482C215.463 144.481 215.377 144.457 215.301 144.414C213.081 143.261 211.202 141.546 209.851 139.44C208.5 137.335 207.724 134.912 207.6 132.413C207.53 131.248 207.721 130.083 208.157 129.001C208.399 128.416 208.762 127.889 209.223 127.456C209.684 127.023 210.232 126.692 210.831 126.487C211.517 126.314 212.233 126.297 212.926 126.439C213.619 126.581 214.272 126.877 214.835 127.306C215.867 128.092 216.772 129.032 217.519 130.093C218.683 131.343 219.472 132.897 219.794 134.574C219.81 134.724 219.767 134.873 219.673 134.99C219.579 135.108 219.443 135.183 219.294 135.2C219.144 135.216 218.995 135.172 218.878 135.079C218.761 134.985 218.685 134.849 218.668 134.7C218.347 133.233 217.636 131.881 216.609 130.787C215.927 129.823 215.107 128.964 214.175 128.239C213.751 127.911 213.259 127.683 212.736 127.568C212.213 127.454 211.671 127.458 211.149 127.579C210.708 127.738 210.306 127.988 209.969 128.314C209.632 128.639 209.367 129.032 209.193 129.467C208.816 130.409 208.657 131.424 208.726 132.436C208.835 134.591 209.47 136.686 210.577 138.538C211.684 140.391 213.227 141.943 215.073 143.06C215.156 143.044 215.242 143.047 215.323 143.071C215.405 143.095 215.479 143.138 215.54 143.197L215.927 143.538C216.016 143.615 216.08 143.717 216.109 143.831C216.138 143.945 216.13 144.066 216.088 144.176C216.045 144.285 215.97 144.379 215.872 144.445C215.774 144.51 215.658 144.543 215.54 144.539L215.551 144.482Z" fill="#53809D"/>
<path d="M221.648 154.508C221.648 154.508 216.086 153.37 213.242 149.844C213.242 149.844 214.243 158.261 222.775 160.309L221.648 154.508Z" fill="#53809D"/>
<path d="M222.774 160.875H222.638C213.822 158.771 212.684 150.023 212.673 149.932C212.658 149.81 212.684 149.686 212.745 149.58C212.807 149.473 212.901 149.389 213.014 149.341C213.127 149.291 213.252 149.28 213.371 149.309C213.491 149.337 213.597 149.405 213.674 149.5C216.37 152.788 221.705 153.959 221.762 153.971C221.873 153.994 221.974 154.049 222.053 154.13C222.132 154.211 222.185 154.314 222.205 154.426L223.343 160.216C223.36 160.298 223.358 160.384 223.338 160.465C223.318 160.547 223.28 160.624 223.226 160.689C223.173 160.754 223.106 160.807 223.029 160.843C222.953 160.879 222.87 160.898 222.786 160.898L222.774 160.875ZM214.243 151.639C214.796 153.491 215.798 155.178 217.159 156.551C218.52 157.924 220.199 158.941 222.046 159.51L221.159 154.96C218.651 154.349 216.296 153.226 214.243 151.661V151.639Z" fill="#53809D"/>
<path d="M227.941 125.417C228.038 124.164 227.715 123.118 227.22 123.08C226.725 123.041 226.246 124.026 226.149 125.279C226.052 126.531 226.375 127.578 226.87 127.616C227.364 127.654 227.844 126.67 227.941 125.417Z" fill="#53809D"/>
<path d="M167.844 201.532L156.173 222.007L125.779 190.817C125.779 190.817 128.236 177.565 124.96 178.623C122.89 179.36 121.091 180.704 119.796 182.479C119.796 182.479 117.1 164.279 110.002 170.262C102.904 176.245 106.168 186.756 111.549 196.857C115.542 204.353 151.021 259.034 160.86 256.838C170.699 254.643 194.064 204.979 194.064 204.979L167.844 201.532Z" fill="#071D2D"/>
<path d="M160.314 257.452C149.132 257.452 114.608 203.807 111.048 197.164C106.566 188.735 101.538 176.689 109.637 169.864C111.139 168.59 112.595 168.203 113.971 168.726C117.702 170.137 119.545 178.065 120.137 181.239C121.398 179.833 123 178.775 124.789 178.168C125.03 178.073 125.293 178.047 125.548 178.094C125.804 178.14 126.041 178.256 126.234 178.429C128.133 180.101 126.802 188.394 126.393 190.714L156.048 221.052L167.355 201.225C167.41 201.126 167.494 201.046 167.596 200.996C167.697 200.945 167.811 200.926 167.924 200.941L194.086 204.353C194.175 204.364 194.26 204.397 194.334 204.448C194.407 204.5 194.467 204.569 194.507 204.649C194.546 204.728 194.567 204.816 194.567 204.905C194.567 204.994 194.546 205.081 194.507 205.161C193.54 207.197 170.892 255.109 160.905 257.327C160.712 257.387 160.514 257.429 160.314 257.452ZM112.754 169.602C111.848 169.686 111.001 170.089 110.365 170.74C104.678 175.563 105.212 183.798 112.06 196.641C116.394 204.785 151.6 258.351 160.734 256.337C169.562 254.369 190.31 211.542 193.222 205.491L168.197 202.192L156.708 222.337C156.664 222.413 156.603 222.479 156.53 222.528C156.457 222.577 156.374 222.609 156.287 222.622C156.199 222.634 156.11 222.625 156.027 222.595C155.944 222.565 155.869 222.516 155.809 222.451L125.415 191.26C125.353 191.194 125.307 191.115 125.281 191.028C125.256 190.941 125.251 190.849 125.267 190.76C126.04 186.562 126.643 180.226 125.528 179.248C125.528 179.248 125.403 179.146 125.176 179.248C123.231 179.952 121.538 181.215 120.307 182.877C120.241 182.971 120.149 183.044 120.041 183.086C119.934 183.129 119.817 183.139 119.704 183.116C119.594 183.09 119.494 183.032 119.417 182.949C119.34 182.865 119.29 182.761 119.272 182.649C118.806 179.498 116.895 171.069 113.585 169.841C113.326 169.709 113.044 169.628 112.754 169.602Z" fill="#53809D"/>
<path d="M256.752 192.354C256.752 192.354 280.276 186.257 289.091 181.082C298.76 175.394 316.972 139.471 322.887 130.542C326.098 125.611 328.483 120.19 329.951 114.492C330.633 111.944 330.952 110.101 329.678 107.667C329.416 107.155 325.242 102.582 325.048 103.117C326.186 99.9202 327.323 96.883 328.529 93.7207C328.847 92.8448 329.086 91.7415 328.415 91.1045C328.121 90.8748 327.759 90.75 327.386 90.75C327.013 90.75 326.65 90.8748 326.356 91.1045C325.763 91.5591 325.281 92.1425 324.946 92.8107L315.277 109.578C315.355 107.507 314.937 105.448 314.06 103.572C313.922 103.195 313.672 102.869 313.343 102.639C312.285 102.047 311.262 103.492 310.932 104.652C309.214 110.704 310.454 117.995 306.746 123.353C303.925 127.425 278.865 157.478 278.865 157.478L256.752 163.166" fill="#071D2D"/>
<path d="M256.752 192.918C256.601 192.938 256.449 192.897 256.328 192.804C256.208 192.711 256.129 192.574 256.109 192.424C256.09 192.273 256.131 192.12 256.224 192C256.316 191.879 256.453 191.801 256.604 191.781C256.843 191.724 280.162 185.661 288.807 180.576C295.803 176.459 307.69 155.631 315.561 141.844C318.405 136.873 320.851 132.573 322.386 130.219C325.558 125.323 327.914 119.945 329.359 114.294C330.008 111.905 330.349 110.164 329.132 107.832C327.915 106.307 326.56 104.898 325.082 103.624C325 103.641 324.915 103.641 324.832 103.624C324.69 103.572 324.574 103.467 324.508 103.331C324.442 103.195 324.432 103.039 324.479 102.896C325.173 100.848 325.947 98.8348 326.686 96.8783C327.118 95.7407 327.539 94.6032 327.96 93.4657C328.381 92.3282 328.347 91.7936 327.96 91.4637C327.764 91.3187 327.527 91.2404 327.283 91.2404C327.04 91.2404 326.802 91.3187 326.607 91.4637C326.097 91.8856 325.686 92.4135 325.401 93.0107L315.698 109.812C315.636 109.923 315.538 110.009 315.42 110.057C315.302 110.104 315.171 110.11 315.049 110.073C314.951 110.031 314.867 109.961 314.807 109.872C314.746 109.784 314.712 109.68 314.708 109.573C314.774 107.615 314.385 105.668 313.571 103.885C313.475 103.62 313.305 103.387 313.082 103.214C313.019 103.178 312.949 103.159 312.877 103.159C312.805 103.159 312.734 103.178 312.672 103.214C312.091 103.613 311.684 104.22 311.535 104.909C310.949 107.222 310.569 109.582 310.397 111.962C310.022 116.057 309.624 120.3 307.212 123.769C304.414 127.83 280.321 156.666 279.297 157.894C279.221 157.986 279.117 158.05 279.002 158.076L256.888 163.764C256.742 163.799 256.588 163.776 256.459 163.699C256.329 163.623 256.235 163.499 256.195 163.354C256.176 163.282 256.171 163.207 256.182 163.132C256.192 163.058 256.217 162.987 256.255 162.923C256.293 162.858 256.344 162.802 256.404 162.757C256.463 162.712 256.532 162.679 256.604 162.661L278.547 156.973C280.401 154.698 303.572 126.943 306.279 123.075C308.554 119.845 308.896 115.75 309.271 111.802C309.429 109.35 309.81 106.917 310.408 104.534C310.529 104.023 310.753 103.543 311.069 103.124C311.384 102.705 311.783 102.356 312.24 102.099C312.464 102.004 312.707 101.963 312.95 101.979C313.193 101.995 313.429 102.067 313.639 102.19C314.076 102.452 314.412 102.853 314.594 103.328C315.222 104.671 315.626 106.108 315.789 107.582L324.479 92.5102C324.86 91.7582 325.409 91.1042 326.083 90.5992C326.489 90.3026 326.981 90.1485 327.483 90.1608C327.985 90.1732 328.469 90.3513 328.859 90.6674C329.564 91.3386 329.655 92.4306 329.109 93.898C328.688 95.0355 328.256 96.173 327.824 97.3105C327.153 99.085 326.459 100.916 325.81 102.771C327.45 104.114 328.931 105.64 330.224 107.321C331.623 110.005 331.236 112.03 330.542 114.601C329.057 120.354 326.648 125.828 323.41 130.81C321.863 133.142 319.429 137.419 316.585 142.367C308.179 157.087 296.679 177.255 289.41 181.521C280.64 186.685 257.889 192.6 256.923 192.896L256.752 192.918Z" fill="#53809D"/>
<path d="M262.382 290.438L255.022 256.973L181.618 276.663C181.618 276.663 181.766 282.157 181.971 290.416L262.382 290.438Z" fill="#53809D"/>
<path d="M277.17 155.072C277.17 155.072 193.654 153.309 183.052 168.301C174.802 180.743 167.893 194.023 162.44 207.921L177.456 221.957C177.389 241.809 178.399 261.65 180.481 281.392C206.36 285.943 259.971 265.24 259.516 265.035L252.691 195.647L284.655 185.773L277.17 155.072Z" fill="url(#paint11_linear_271_37588)"/>
<path d="M176.477 216.752C176.402 216.749 176.329 216.732 176.261 216.7C176.193 216.669 176.132 216.624 176.082 216.57C176.031 216.515 175.991 216.45 175.966 216.38C175.94 216.31 175.928 216.235 175.931 216.161C175.931 214.909 176.921 185.3 180.982 174.948C181.008 174.878 181.048 174.814 181.1 174.759C181.152 174.705 181.214 174.661 181.283 174.631C181.352 174.602 181.427 174.586 181.502 174.586C181.577 174.586 181.652 174.601 181.721 174.63C181.791 174.655 181.855 174.694 181.91 174.745C181.964 174.796 182.008 174.857 182.037 174.925C182.067 174.993 182.083 175.067 182.083 175.141C182.084 175.216 182.069 175.29 182.04 175.358C178.058 185.527 177.08 215.899 177.069 216.195C177.063 216.347 176.997 216.49 176.887 216.594C176.776 216.699 176.629 216.755 176.477 216.752Z" fill="#53809D"/>
<path d="M241.259 199.2C241.135 199.201 241.015 199.162 240.916 199.088C240.817 199.014 240.745 198.909 240.713 198.79C240.674 198.644 240.694 198.488 240.768 198.356C240.843 198.225 240.966 198.127 241.111 198.085L264.714 191.373C264.865 191.331 265.026 191.351 265.163 191.427C265.3 191.504 265.4 191.632 265.442 191.783C265.484 191.934 265.465 192.095 265.388 192.232C265.311 192.368 265.184 192.469 265.033 192.511L241.418 199.222C241.364 199.226 241.31 199.218 241.259 199.2Z" fill="#53809D"/>
<path d="M333.534 278.879H292.254C291.682 278.88 291.114 278.769 290.585 278.55C290.056 278.332 289.575 278.011 289.17 277.606C288.765 277.201 288.444 276.72 288.226 276.191C288.008 275.662 287.896 275.095 287.897 274.522V228.919C287.897 228.347 288.01 227.781 288.229 227.252C288.448 226.723 288.769 226.243 289.174 225.839C289.578 225.434 290.058 225.113 290.587 224.894C291.116 224.675 291.682 224.562 292.254 224.562H328.655L337.846 233.526V274.477C337.852 275.049 337.745 275.616 337.531 276.147C337.318 276.678 337.002 277.162 336.602 277.571C336.201 277.979 335.725 278.305 335.198 278.53C334.672 278.754 334.107 278.873 333.534 278.879Z" fill="#071D2D"/>
<path d="M333.534 279.45H292.254C290.947 279.45 289.694 278.931 288.771 278.007C287.847 277.084 287.328 275.831 287.328 274.525V228.922C287.331 227.616 287.851 226.365 288.774 225.442C289.697 224.519 290.948 223.999 292.254 223.996H328.654C328.728 223.995 328.801 224.008 328.869 224.035C328.938 224.063 329 224.103 329.052 224.155L338.255 233.13C338.361 233.236 338.422 233.379 338.425 233.529V274.479C338.434 275.786 337.924 277.044 337.007 277.976C336.09 278.908 334.841 279.438 333.534 279.45ZM292.254 225.134C291.25 225.137 290.288 225.537 289.578 226.247C288.869 226.956 288.469 227.918 288.466 228.922V274.513C288.466 275.011 288.564 275.503 288.754 275.963C288.944 276.422 289.223 276.84 289.575 277.192C289.927 277.543 290.344 277.822 290.804 278.013C291.264 278.203 291.756 278.301 292.254 278.301H333.534C334.538 278.298 335.499 277.898 336.209 277.188C336.919 276.479 337.319 275.517 337.322 274.513V233.767L328.461 225.134H292.254Z" fill="#53809D"/>
<path d="M278.478 59.5252C279.534 59.5252 280.389 58.6696 280.389 57.6141C280.389 56.5587 279.534 55.7031 278.478 55.7031C277.423 55.7031 276.567 56.5587 276.567 57.6141C276.567 58.6696 277.423 59.5252 278.478 59.5252Z" fill="url(#paint12_linear_271_37588)"/>
<path d="M285.11 59.5252C286.166 59.5252 287.021 58.6696 287.021 57.6141C287.021 56.5587 286.166 55.7031 285.11 55.7031C284.055 55.7031 283.199 56.5587 283.199 57.6141C283.199 58.6696 284.055 59.5252 285.11 59.5252Z" fill="#D1D3D4"/>
<path d="M291.742 59.5252C292.797 59.5252 293.653 58.6696 293.653 57.6141C293.653 56.5587 292.797 55.7031 291.742 55.7031C290.687 55.7031 289.831 56.5587 289.831 57.6141C289.831 58.6696 290.687 59.5252 291.742 59.5252Z" fill="#D1D3D4"/>
<path d="M328.358 87.6075C328.228 87.6065 328.103 87.5579 328.006 87.471C327.897 87.3782 327.828 87.2464 327.816 87.1039C327.803 86.9613 327.847 86.8195 327.937 86.7089L332.851 80.8848C332.903 80.8237 332.968 80.7747 333.04 80.7413C333.113 80.7079 333.192 80.6908 333.272 80.6914H345.569C345.72 80.6914 345.864 80.7513 345.971 80.858C346.078 80.9647 346.138 81.1093 346.138 81.2602C346.138 81.411 346.078 81.5557 345.971 81.6623C345.864 81.769 345.72 81.8289 345.569 81.8289H333.5L328.745 87.5165C328.632 87.5943 328.494 87.6268 328.358 87.6075Z" fill="#D1D3D4"/>
<path d="M328.7 224.562V233.799L337.891 233.526L328.7 224.562Z" fill="url(#paint13_linear_271_37588)"/>
<path d="M328.688 234.371C328.543 234.37 328.405 234.313 328.301 234.212C328.244 234.161 328.198 234.097 328.166 234.027C328.135 233.956 328.119 233.88 328.119 233.803V224.566C328.121 224.454 328.156 224.345 328.218 224.252C328.281 224.159 328.369 224.087 328.472 224.043C328.574 223.998 328.687 223.985 328.796 224.005C328.906 224.026 329.007 224.078 329.086 224.156L338.289 233.131C338.366 233.21 338.419 233.31 338.44 233.418C338.462 233.526 338.452 233.639 338.411 233.741C338.37 233.844 338.3 233.932 338.209 233.995C338.119 234.059 338.012 234.095 337.902 234.098L328.711 234.371H328.688ZM329.257 225.92V233.222L336.525 233.006L329.257 225.92Z" fill="#53809D"/>
<path d="M129.749 248.59H118.066C116.351 248.59 114.961 249.98 114.961 251.695V263.378C114.961 265.093 116.351 266.483 118.066 266.483H129.749C131.464 266.483 132.854 265.093 132.854 263.378V251.695C132.854 249.98 131.464 248.59 129.749 248.59Z" fill="url(#paint14_linear_271_37588)"/>
<path d="M126.666 242.855H114.597C112.988 242.855 111.685 244.159 111.685 245.767V257.837C111.685 259.445 112.988 260.749 114.597 260.749H126.666C128.274 260.749 129.578 259.445 129.578 257.837V245.767C129.578 244.159 128.274 242.855 126.666 242.855Z" fill="#071D2D"/>
<path d="M126.665 261.32H114.596C114.137 261.323 113.682 261.235 113.257 261.061C112.832 260.888 112.446 260.632 112.12 260.308C111.795 259.985 111.536 259.6 111.36 259.176C111.184 258.752 111.093 258.298 111.093 257.839V245.77C111.093 244.847 111.46 243.961 112.112 243.309C112.765 242.656 113.65 242.289 114.574 242.289H126.643C127.1 242.289 127.552 242.379 127.975 242.554C128.397 242.729 128.781 242.985 129.104 243.309C129.427 243.632 129.683 244.016 129.858 244.438C130.033 244.86 130.123 245.313 130.123 245.77V257.839C130.123 258.758 129.76 259.64 129.112 260.292C128.464 260.944 127.585 261.314 126.665 261.32ZM114.596 243.427C114.287 243.424 113.98 243.482 113.693 243.598C113.406 243.715 113.145 243.887 112.925 244.105C112.705 244.323 112.53 244.582 112.411 244.868C112.292 245.154 112.23 245.46 112.23 245.77V257.839C112.23 258.46 112.477 259.056 112.917 259.496C113.356 259.935 113.952 260.182 114.574 260.182H126.643C127.264 260.182 127.86 259.935 128.3 259.496C128.739 259.056 128.986 258.46 128.986 257.839V245.77C128.986 245.148 128.739 244.552 128.3 244.113C127.86 243.673 127.264 243.427 126.643 243.427H114.596Z" fill="#53809D"/>
<path d="M310.431 268.703V266.019C309.453 265.746 308.509 265.552 307.588 265.234C305.81 264.678 304.271 263.54 303.22 262.003C302.354 260.647 301.914 259.062 301.957 257.453H307.201C307.235 258.366 307.569 259.241 308.151 259.944C308.733 260.647 309.53 261.139 310.42 261.344V254.223C309.362 253.916 308.316 253.631 307.269 253.301C306.129 252.973 305.083 252.376 304.221 251.561C303.326 250.665 302.733 249.512 302.526 248.262C302.222 246.744 302.336 245.171 302.856 243.712C303.242 242.662 303.855 241.709 304.651 240.923C305.447 240.136 306.407 239.535 307.462 239.162C308.333 238.888 309.218 238.66 310.113 238.48L310.431 238.411V234.703H315.345V235.056C315.345 236.068 315.345 237.092 315.345 238.104C315.345 238.355 315.425 238.434 315.664 238.491C317.335 238.815 318.899 239.55 320.214 240.63C321.614 241.773 322.542 243.394 322.819 245.18C322.91 245.669 322.944 246.169 323.012 246.681H317.677C317.669 245.953 317.449 245.244 317.045 244.638C316.641 244.032 316.071 243.557 315.402 243.269V249.923L315.982 250.06C317.425 250.339 318.83 250.785 320.168 251.39C321.174 251.827 322.042 252.528 322.679 253.42C323.316 254.312 323.699 255.36 323.786 256.452C324.1 258.488 323.606 260.566 322.409 262.242C321.425 263.606 320.042 264.631 318.451 265.177C317.461 265.518 316.437 265.734 315.38 266.03V268.635L310.431 268.703ZM315.357 255.178V261.366C316.156 261.25 316.908 260.915 317.529 260.4C317.85 260.138 318.107 259.807 318.279 259.431C318.451 259.054 318.534 258.644 318.522 258.23C318.51 257.817 318.403 257.411 318.209 257.046C318.015 256.68 317.74 256.364 317.404 256.122C316.745 255.761 316.06 255.445 315.357 255.178ZM310.42 248.842V242.859C309.776 243.141 309.15 243.46 308.543 243.815C308.195 244.063 307.913 244.394 307.724 244.777C307.536 245.161 307.445 245.586 307.461 246.013C307.477 246.441 307.598 246.857 307.815 247.226C308.032 247.595 308.337 247.904 308.702 248.126C309.237 248.41 309.817 248.604 310.42 248.854V248.842Z" fill="url(#paint15_linear_271_37588)"/>
<defs>
<linearGradient id="paint0_linear_271_37588" x1="188.933" y1="79.3984" x2="188.933" y2="91.0921" gradientUnits="userSpaceOnUse">
<stop stop-color="#23B7E8"/>
<stop offset="1" stop-color="#02DDD1"/>
</linearGradient>
<linearGradient id="paint1_linear_271_37588" x1="188.94" y1="92.6328" x2="188.94" y2="102.921" gradientUnits="userSpaceOnUse">
<stop stop-color="#23B7E8"/>
<stop offset="1" stop-color="#02DDD1"/>
</linearGradient>
<linearGradient id="paint2_linear_271_37588" x1="234.991" y1="79.3984" x2="234.991" y2="91.0921" gradientUnits="userSpaceOnUse">
<stop stop-color="#23B7E8"/>
<stop offset="1" stop-color="#02DDD1"/>
</linearGradient>
<linearGradient id="paint3_linear_271_37588" x1="234.996" y1="92.6328" x2="234.996" y2="102.921" gradientUnits="userSpaceOnUse">
<stop stop-color="#23B7E8"/>
<stop offset="1" stop-color="#02DDD1"/>
</linearGradient>
<linearGradient id="paint4_linear_271_37588" x1="172.975" y1="63.1406" x2="172.975" y2="65.9162" gradientUnits="userSpaceOnUse">
<stop stop-color="#23B7E8"/>
<stop offset="1" stop-color="#02DDD1"/>
</linearGradient>
<linearGradient id="paint5_linear_271_37588" x1="292.766" y1="101.227" x2="292.766" y2="168.124" gradientUnits="userSpaceOnUse">
<stop stop-color="#23B7E8"/>
<stop offset="1" stop-color="#02DDD1"/>
</linearGradient>
<linearGradient id="paint6_linear_271_37588" x1="309.896" y1="116.891" x2="309.896" y2="168.113" gradientUnits="userSpaceOnUse">
<stop stop-color="#23B7E8"/>
<stop offset="1" stop-color="#02DDD1"/>
</linearGradient>
<linearGradient id="paint7_linear_271_37588" x1="327.016" y1="106.688" x2="327.016" y2="168.125" gradientUnits="userSpaceOnUse">
<stop stop-color="#23B7E8"/>
<stop offset="1" stop-color="#02DDD1"/>
</linearGradient>
<linearGradient id="paint8_linear_271_37588" x1="344.147" y1="125.195" x2="344.147" y2="168.114" gradientUnits="userSpaceOnUse">
<stop stop-color="#23B7E8"/>
<stop offset="1" stop-color="#02DDD1"/>
</linearGradient>
<linearGradient id="paint9_linear_271_37588" x1="361.278" y1="106.688" x2="361.278" y2="168.125" gradientUnits="userSpaceOnUse">
<stop stop-color="#23B7E8"/>
<stop offset="1" stop-color="#02DDD1"/>
</linearGradient>
<linearGradient id="paint10_linear_271_37588" x1="111.388" y1="145.633" x2="111.388" y2="195.685" gradientUnits="userSpaceOnUse">
<stop stop-color="#23B7E8"/>
<stop offset="1" stop-color="#02DDD1"/>
</linearGradient>
<linearGradient id="paint11_linear_271_37588" x1="223.548" y1="155.008" x2="223.548" y2="282.046" gradientUnits="userSpaceOnUse">
<stop stop-color="#23B7E8"/>
<stop offset="1" stop-color="#02DDD1"/>
</linearGradient>
<linearGradient id="paint12_linear_271_37588" x1="278.478" y1="55.7031" x2="278.478" y2="59.5252" gradientUnits="userSpaceOnUse">
<stop stop-color="#23B7E8"/>
<stop offset="1" stop-color="#02DDD1"/>
</linearGradient>
<linearGradient id="paint13_linear_271_37588" x1="333.296" y1="224.562" x2="333.296" y2="233.799" gradientUnits="userSpaceOnUse">
<stop stop-color="#23B7E8"/>
<stop offset="1" stop-color="#02DDD1"/>
</linearGradient>
<linearGradient id="paint14_linear_271_37588" x1="123.907" y1="248.59" x2="123.907" y2="266.483" gradientUnits="userSpaceOnUse">
<stop stop-color="#23B7E8"/>
<stop offset="1" stop-color="#02DDD1"/>
</linearGradient>
<linearGradient id="paint15_linear_271_37588" x1="312.916" y1="234.703" x2="312.916" y2="268.703" gradientUnits="userSpaceOnUse">
<stop stop-color="#23B7E8"/>
<stop offset="1" stop-color="#02DDD1"/>
</linearGradient>
</defs>
</svg>
