<svg width="322" height="241" viewBox="0 0 322 241" fill="none" xmlns="http://www.w3.org/2000/svg">
<path d="M99.4897 18.2656H190.229V74.5725C190.229 75.7189 189.774 76.8183 188.963 77.629C188.152 78.4396 187.053 78.895 185.907 78.895H103.812C102.666 78.895 101.566 78.4396 100.756 77.629C99.9452 76.8183 99.4897 75.7189 99.4897 74.5725V18.2656Z" fill="white"/>
<path d="M185.908 79.4067H103.813C102.53 79.4037 101.301 78.8918 100.394 77.9834C99.488 77.075 98.979 75.8441 98.979 74.5609V18.2654C98.979 18.1286 99.0325 17.9972 99.1282 17.8994C99.2239 17.8016 99.3541 17.7452 99.4909 17.7422H190.23C190.369 17.7422 190.502 17.7973 190.6 17.8954C190.698 17.9936 190.753 18.1267 190.753 18.2654V74.5609C190.753 75.8461 190.243 77.0787 189.334 77.9874C188.425 78.8962 187.193 79.4067 185.908 79.4067ZM100.014 18.7887V74.5268C100.014 75.5355 100.414 76.503 101.126 77.2173C101.838 77.9316 102.805 78.3345 103.813 78.3375H185.908C186.918 78.3375 187.888 77.936 188.602 77.2213C189.317 76.5067 189.718 75.5375 189.718 74.5268V18.7887H100.014Z" fill="#0E2228"/>
<path d="M103.812 10.2109H185.907C187.053 10.2109 188.152 10.6663 188.963 11.477C189.774 12.2876 190.229 13.3871 190.229 14.5335V18.2645H99.4897V14.5335C99.4897 13.3871 99.9452 12.2876 100.756 11.477C101.566 10.6663 102.666 10.2109 103.812 10.2109Z" fill="white"/>
<path d="M190.23 18.7879H99.4909C99.3541 18.785 99.2239 18.7285 99.1282 18.6307C99.0325 18.5329 98.979 18.4015 98.979 18.2647V14.5336C98.982 13.2524 99.4923 12.0245 100.398 11.1185C101.304 10.2125 102.532 9.70222 103.813 9.69922H185.908C187.187 9.70522 188.412 10.2168 189.315 11.1225C190.219 12.0282 190.728 13.2544 190.731 14.5336V18.2647C190.731 18.3996 190.679 18.5294 190.586 18.6269C190.492 18.7244 190.365 18.7821 190.23 18.7879ZM100.014 17.7414H189.718V14.5336C189.715 13.525 189.313 12.5586 188.598 11.8464C187.884 11.1343 186.916 10.7344 185.908 10.7344H103.813C102.807 10.7374 101.842 11.1386 101.13 11.8505C100.418 12.5623 100.017 13.5269 100.014 14.5336V17.7414Z" fill="#0E2228"/>
<path d="M121.831 40.803C125.06 40.803 127.678 38.1853 127.678 34.9562C127.678 31.7271 125.06 29.1094 121.831 29.1094C118.602 29.1094 115.984 31.7271 115.984 34.9562C115.984 38.1853 118.602 40.803 121.831 40.803Z" fill="#23B5E9"/>
<path d="M111.208 52.6317C111.298 49.8726 112.457 47.2567 114.441 45.3369C116.425 43.4171 119.077 42.3438 121.838 42.3438C124.598 42.3438 127.251 43.4171 129.234 45.3369C131.218 47.2567 132.377 49.8726 132.468 52.6317H111.208Z" fill="#23B5E9"/>
<path d="M167.889 40.803C171.118 40.803 173.736 38.1853 173.736 34.9562C173.736 31.7271 171.118 29.1094 167.889 29.1094C164.66 29.1094 162.042 31.7271 162.042 34.9562C162.042 38.1853 164.66 40.803 167.889 40.803Z" fill="#23B5E9"/>
<path d="M157.264 52.6317C157.354 49.8726 158.514 47.2567 160.498 45.3369C162.481 43.4171 165.134 42.3438 167.894 42.3438C170.655 42.3438 173.307 43.4171 175.291 45.3369C177.275 47.2567 178.434 49.8726 178.524 52.6317H157.264Z" fill="#23B5E9"/>
<path d="M154.842 35.4773H141.192C141.053 35.4773 140.92 35.4222 140.822 35.3241C140.724 35.2259 140.668 35.0928 140.668 34.9541C140.668 34.8153 140.724 34.6822 140.822 34.5841C140.92 34.4859 141.053 34.4308 141.192 34.4308H153.636L150.917 31.5756C150.869 31.528 150.831 31.4714 150.805 31.4089C150.779 31.3464 150.765 31.2794 150.765 31.2116C150.765 31.1439 150.779 31.0769 150.805 31.0144C150.831 30.9519 150.869 30.8952 150.917 30.8476C151.017 30.7524 151.149 30.6992 151.287 30.6992C151.425 30.6992 151.557 30.7524 151.657 30.8476L155.206 34.5901C155.277 34.6617 155.325 34.7534 155.344 34.8529C155.362 34.9524 155.35 35.0551 155.308 35.1474C155.271 35.2417 155.207 35.3231 155.124 35.3816C155.041 35.4402 154.943 35.4734 154.842 35.4773Z" fill="#0E2228"/>
<path d="M151.43 38.8075C151.289 38.806 151.154 38.7488 151.055 38.6482C150.957 38.5501 150.902 38.4171 150.902 38.2785C150.902 38.1399 150.957 38.0069 151.055 37.9088L154.467 34.5873C154.568 34.4968 154.7 34.4488 154.835 34.4534C154.97 34.4581 155.099 34.5149 155.193 34.6121C155.287 34.7093 155.34 34.8392 155.34 34.9746C155.341 35.1099 155.289 35.2402 155.195 35.338L151.783 38.6596C151.688 38.7516 151.562 38.8044 151.43 38.8075Z" fill="#0E2228"/>
<path d="M148.369 39.8562H134.719C134.618 39.8579 134.519 39.8297 134.434 39.775C134.349 39.7204 134.282 39.6417 134.241 39.5491C134.201 39.4547 134.189 39.3505 134.207 39.2493C134.225 39.1482 134.273 39.0546 134.344 38.9804L137.893 35.2493C137.939 35.1971 137.996 35.1548 138.059 35.1248C138.122 35.0948 138.191 35.0778 138.26 35.0747C138.33 35.0716 138.4 35.0826 138.466 35.1069C138.531 35.1312 138.591 35.1684 138.642 35.2163C138.693 35.2641 138.734 35.3217 138.762 35.3856C138.79 35.4495 138.805 35.5185 138.807 35.5883C138.808 35.6582 138.795 35.7276 138.769 35.7925C138.743 35.8573 138.704 35.9163 138.655 35.9659L135.925 38.8097H148.369C148.507 38.8126 148.639 38.8687 148.736 38.9662C148.834 39.0637 148.89 39.1951 148.893 39.333C148.893 39.4718 148.837 39.6048 148.739 39.703C148.641 39.8011 148.508 39.8562 148.369 39.8562Z" fill="#0E2228"/>
<path d="M138.12 43.1785C138.054 43.1795 137.989 43.1668 137.928 43.1414C137.868 43.1159 137.813 43.0782 137.767 43.0306L134.355 39.7205C134.26 39.621 134.207 39.4885 134.207 39.3508C134.207 39.213 134.26 39.0806 134.355 38.9811C134.453 38.8831 134.586 38.8281 134.725 38.8281C134.863 38.8281 134.996 38.8831 135.094 38.9811L138.507 42.3026C138.555 42.3502 138.593 42.4069 138.619 42.4694C138.645 42.5319 138.659 42.5989 138.659 42.6666C138.659 42.7343 138.645 42.8014 138.619 42.8638C138.593 42.9263 138.555 42.983 138.507 43.0306C138.455 43.0797 138.395 43.1181 138.328 43.1435C138.262 43.1689 138.191 43.1808 138.12 43.1785Z" fill="#0E2228"/>
<path d="M171.916 59.5125H117.805C117.654 59.5125 117.509 59.4526 117.402 59.3459C117.296 59.2393 117.236 59.0946 117.236 58.9438C117.239 58.7938 117.3 58.6509 117.406 58.5448C117.512 58.4388 117.655 58.3779 117.805 58.375H171.916C172.067 58.375 172.212 58.4349 172.318 58.5416C172.425 58.6482 172.485 58.7929 172.485 58.9438C172.485 59.0946 172.425 59.2393 172.318 59.3459C172.212 59.4526 172.067 59.5125 171.916 59.5125Z" fill="#D1D3D4"/>
<path d="M171.916 63.3563H117.805C117.654 63.3563 117.509 63.2963 117.402 63.1897C117.296 63.083 117.236 62.9383 117.236 62.7875C117.239 62.6376 117.3 62.4946 117.406 62.3886C117.512 62.2825 117.655 62.2217 117.805 62.2188H171.916C172.067 62.2188 172.212 62.2787 172.318 62.3853C172.425 62.492 172.485 62.6367 172.485 62.7875C172.485 62.9383 172.425 63.083 172.318 63.1897C172.212 63.2963 172.067 63.3563 171.916 63.3563Z" fill="#D1D3D4"/>
<path d="M166.354 67.2469H117.805C117.654 67.2469 117.509 67.187 117.402 67.0803C117.296 66.9736 117.236 66.829 117.236 66.6781C117.239 66.5282 117.3 66.3852 117.406 66.2792C117.512 66.1731 117.655 66.1123 117.805 66.1094H166.354C166.504 66.1123 166.647 66.1731 166.753 66.2792C166.859 66.3852 166.919 66.5282 166.922 66.6781C166.922 66.829 166.862 66.9736 166.756 67.0803C166.649 67.187 166.504 67.2469 166.354 67.2469Z" fill="#D1D3D4"/>
<path d="M105.873 15.6271C106.639 15.6271 107.26 15.0058 107.26 14.2393C107.26 13.4729 106.639 12.8516 105.873 12.8516C105.106 12.8516 104.485 13.4729 104.485 14.2393C104.485 15.0058 105.106 15.6271 105.873 15.6271Z" fill="#23B5E9"/>
<path d="M110.763 15.6271C111.53 15.6271 112.151 15.0058 112.151 14.2393C112.151 13.4729 111.53 12.8516 110.763 12.8516C109.997 12.8516 109.375 13.4729 109.375 14.2393C109.375 15.0058 109.997 15.6271 110.763 15.6271Z" fill="#D1D3D4"/>
<path d="M115.655 15.6271C116.421 15.6271 117.043 15.0058 117.043 14.2393C117.043 13.4729 116.421 12.8516 115.655 12.8516C114.888 12.8516 114.267 13.4729 114.267 14.2393C114.267 15.0058 114.888 15.6271 115.655 15.6271Z" fill="#D1D3D4"/>
<path d="M204.278 13.0664H321.374V151.251C321.374 152.76 320.775 154.206 319.708 155.273C318.641 156.34 317.195 156.939 315.686 156.939H209.955C208.446 156.939 207 156.34 205.933 155.273C204.866 154.206 204.267 152.76 204.267 151.251V13.0664H204.278Z" fill="white"/>
<path d="M315.686 157.51H209.898C208.24 157.507 206.652 156.847 205.481 155.674C204.31 154.501 203.653 152.911 203.653 151.254V13.0688C203.653 12.9179 203.713 12.7732 203.819 12.6666C203.926 12.5599 204.071 12.5 204.222 12.5H321.374C321.525 12.5 321.669 12.5599 321.776 12.6666C321.883 12.7732 321.943 12.9179 321.943 13.0688V151.254C321.94 152.912 321.28 154.502 320.107 155.674C318.934 156.847 317.345 157.507 315.686 157.51ZM204.847 13.6375V151.276C204.847 152.632 205.385 153.932 206.342 154.892C207.3 155.852 208.599 156.392 209.955 156.395H315.743C317.1 156.392 318.4 155.852 319.36 154.893C320.319 153.933 320.859 152.633 320.862 151.276V13.6375H204.847Z" fill="#0E2228"/>
<path d="M297.497 145.554H228.109C226.65 145.542 225.254 144.959 224.221 143.93C223.187 142.901 222.598 141.507 222.581 140.049V136.75C222.584 135.276 223.171 133.863 224.213 132.82C225.256 131.778 226.669 131.191 228.143 131.188H297.531C299.007 131.188 300.421 131.774 301.464 132.817C302.508 133.86 303.094 135.275 303.094 136.75V140.049C303.079 141.52 302.481 142.925 301.432 143.957C300.383 144.989 298.968 145.563 297.497 145.554ZM228.109 132.325C226.941 132.334 225.824 132.804 225.002 133.633C224.18 134.462 223.718 135.582 223.718 136.75V140.049C223.721 141.22 224.189 142.343 225.018 143.17C225.848 143.998 226.971 144.462 228.143 144.462H297.531C298.703 144.462 299.827 143.998 300.656 143.17C301.486 142.343 301.953 141.22 301.956 140.049V136.75C301.956 135.576 301.49 134.451 300.66 133.621C299.83 132.791 298.705 132.325 297.531 132.325H228.109Z" fill="#0E2228"/>
<path d="M230.305 50.9375H221.023V117.835H230.305V50.9375Z" fill="#23B5E9"/>
<path d="M247.435 66.6016H238.153V117.824H247.435V66.6016Z" fill="#23B5E9"/>
<path d="M264.555 56.3984H255.273V117.835H264.555V56.3984Z" fill="#23B5E9"/>
<path d="M281.686 74.9062H272.404V117.825H281.686V74.9062Z" fill="#23B5E9"/>
<path d="M298.817 56.3984H289.535V117.835H298.817V56.3984Z" fill="#23B5E9"/>
<path d="M298.6 25.1609H282.868C282.717 25.1609 282.573 25.101 282.466 24.9944C282.359 24.8877 282.299 24.743 282.299 24.5922C282.299 24.4414 282.359 24.2967 282.466 24.19C282.573 24.0834 282.717 24.0234 282.868 24.0234H298.577C298.727 24.0263 298.87 24.0872 298.976 24.1932C299.082 24.2993 299.143 24.4423 299.146 24.5922C299.146 24.7392 299.089 24.8805 298.987 24.9865C298.886 25.0926 298.747 25.1551 298.6 25.1609Z" fill="#0E2228"/>
<path d="M293.106 31.0203H282.868C282.717 31.0203 282.573 30.9604 282.466 30.8537C282.359 30.7471 282.299 30.6024 282.299 30.4516C282.299 30.3007 282.359 30.1561 282.466 30.0494C282.573 29.9427 282.717 29.8828 282.868 29.8828H293.106C293.257 29.8828 293.401 29.9427 293.508 30.0494C293.615 30.1561 293.674 30.3007 293.674 30.4516C293.674 30.6024 293.615 30.7471 293.508 30.8537C293.401 30.9604 293.257 31.0203 293.106 31.0203Z" fill="#0E2228"/>
<path d="M278.194 57.0882C273.235 57.0882 268.912 51.5599 265.431 47.1009C263.156 44.2116 261.029 41.4133 259.607 41.4133C257.992 41.4133 255.762 42.7442 253.408 44.1092C250.2 45.9634 246.583 48.0678 243.17 47.8744C236.789 47.5331 224.799 33.4507 224.299 32.8478C224.252 32.7944 224.216 32.7321 224.193 32.6646C224.171 32.5971 224.162 32.5258 224.167 32.4548C224.172 32.3838 224.192 32.3146 224.224 32.2512C224.257 32.1878 224.301 32.1316 224.356 32.0857C224.46 31.9856 224.598 31.9297 224.742 31.9297C224.887 31.9297 225.025 31.9856 225.129 32.0857C225.243 32.2336 237.312 46.4184 243.227 46.7369C246.344 46.9189 249.825 44.8941 252.896 43.1082C255.376 41.6749 257.719 40.3213 259.607 40.2644C261.495 40.2075 263.691 42.9034 266.353 46.3274C269.765 50.684 273.974 56.0986 278.535 55.8825C282.483 55.6891 284.371 52.2538 286.373 48.6138C288.375 44.9737 290.275 41.4929 294.267 40.7308C294.402 40.7201 294.536 40.7599 294.644 40.8425C294.751 40.9251 294.824 41.0447 294.848 41.1779C294.872 41.3112 294.846 41.4486 294.774 41.5636C294.703 41.6786 294.591 41.7628 294.461 41.8001C290.98 42.4598 289.205 45.7017 287.317 49.137C285.27 52.8794 283.142 56.747 278.592 56.9745L278.194 57.0882Z" fill="#D1D3D4"/>
<path d="M306.757 118.366H213.481C213.409 118.366 213.339 118.352 213.273 118.324C213.208 118.297 213.148 118.256 213.098 118.206C213.049 118.155 213.009 118.094 212.983 118.028C212.957 117.962 212.944 117.891 212.946 117.82C212.952 117.681 213.01 117.55 213.11 117.453C213.209 117.355 213.342 117.3 213.481 117.297H306.757C306.901 117.297 307.04 117.354 307.143 117.457C307.245 117.559 307.303 117.698 307.303 117.843C307.301 117.913 307.286 117.982 307.258 118.047C307.229 118.111 307.189 118.169 307.138 118.218C307.087 118.266 307.027 118.304 306.962 118.33C306.897 118.355 306.827 118.368 306.757 118.366Z" fill="#D1D3D4"/>
<path d="M224.855 34.5884C224.441 34.5884 224.037 34.4656 223.692 34.2357C223.348 34.0057 223.08 33.6788 222.922 33.2963C222.763 32.9139 222.722 32.493 222.802 32.087C222.883 31.681 223.083 31.3081 223.375 31.0154C223.668 30.7227 224.041 30.5233 224.447 30.4426C224.853 30.3618 225.274 30.4032 225.656 30.5617C226.039 30.7201 226.366 30.9883 226.596 31.3325C226.825 31.6767 226.948 32.0814 226.948 32.4954C226.948 33.0505 226.728 33.5828 226.335 33.9754C225.943 34.3679 225.41 34.5884 224.855 34.5884ZM224.855 31.4944C224.655 31.4944 224.458 31.554 224.292 31.6658C224.125 31.7776 223.995 31.9363 223.919 32.122C223.843 32.3076 223.823 32.5118 223.863 32.7085C223.903 32.9052 224.001 33.0855 224.143 33.2266C224.286 33.3678 224.468 33.4633 224.665 33.501C224.862 33.5388 225.066 33.5171 225.251 33.4388C225.435 33.3604 225.593 33.2289 225.703 33.0609C225.812 32.8929 225.87 32.6961 225.868 32.4954C225.868 32.3629 225.841 32.2319 225.79 32.1097C225.739 31.9875 225.665 31.8766 225.57 31.7835C225.476 31.6904 225.365 31.6169 225.242 31.5673C225.119 31.5176 224.988 31.4929 224.855 31.4944Z" fill="#D1D3D4"/>
<path d="M294.243 43.4751C293.83 43.4728 293.426 43.3482 293.084 43.1168C292.741 42.8855 292.474 42.5578 292.318 42.1752C292.161 41.7925 292.121 41.3721 292.203 40.9668C292.285 40.5615 292.486 40.1897 292.779 39.8981C293.072 39.6065 293.445 39.4083 293.85 39.3285C294.256 39.2486 294.676 39.2907 295.058 39.4495C295.44 39.6082 295.766 39.8765 295.996 40.2204C296.225 40.5644 296.348 40.9686 296.348 41.3821C296.345 41.9382 296.122 42.4705 295.727 42.8627C295.333 43.2549 294.799 43.4751 294.243 43.4751ZM294.243 40.3697C294.043 40.3697 293.847 40.429 293.681 40.5403C293.514 40.6515 293.385 40.8096 293.308 40.9946C293.231 41.1796 293.211 41.3832 293.25 41.5796C293.289 41.7759 293.386 41.9563 293.527 42.0979C293.669 42.2395 293.849 42.3359 294.046 42.375C294.242 42.414 294.446 42.394 294.631 42.3174C294.816 42.2408 294.974 42.111 295.085 41.9445C295.196 41.778 295.256 41.5823 295.256 41.3821C295.256 41.1136 295.149 40.856 294.959 40.6662C294.769 40.4763 294.512 40.3697 294.243 40.3697Z" fill="#D1D3D4"/>
<path d="M209.954 1.27344H315.686C317.194 1.27344 318.641 1.87266 319.707 2.93929C320.774 4.00591 321.373 5.45256 321.373 6.961V13.0467H204.278V6.961C204.278 5.45453 204.875 4.0096 205.94 2.9433C207.004 1.87701 208.448 1.27645 209.954 1.27344Z" fill="white"/>
<path d="M321.374 13.6366H204.278C204.127 13.6366 203.983 13.5767 203.876 13.4701C203.769 13.3634 203.709 13.2187 203.709 13.0679V6.95944C203.709 5.30213 204.367 3.71254 205.538 2.53958C206.709 1.36661 208.297 0.706138 209.954 0.703125H315.743C317.401 0.706132 318.991 1.36625 320.164 2.53888C321.336 3.71152 321.996 5.30109 321.999 6.95944V13.0451C322.003 13.1267 321.989 13.2082 321.958 13.2839C321.928 13.3597 321.881 13.4279 321.822 13.4841C321.763 13.5402 321.692 13.5829 321.614 13.6092C321.537 13.6355 321.455 13.6449 321.374 13.6366ZM204.847 12.4991H320.805V6.95944C320.802 5.60277 320.262 4.30253 319.302 3.34322C318.343 2.38391 317.043 1.84364 315.686 1.84064H209.898C208.542 1.84365 207.243 2.38428 206.285 3.34391C205.328 4.30355 204.79 5.60382 204.79 6.95944L204.847 12.4991Z" fill="#0E2228"/>
<path d="M83.4512 71.6016H5.1107C2.8051 71.6016 0.936035 73.4706 0.936035 75.7762V173.944C0.936035 176.249 2.8051 178.118 5.1107 178.118H83.4512C85.7568 178.118 87.6258 176.249 87.6258 173.944V75.7762C87.6258 73.4706 85.7568 71.6016 83.4512 71.6016Z" fill="white"/>
<path d="M83.4516 178.723H5.1111C3.85306 178.723 2.64656 178.224 1.75699 177.334C0.867426 176.445 0.367676 175.238 0.367676 173.98V75.7786C0.37068 74.5215 0.871396 73.3167 1.76031 72.4278C2.64923 71.5389 3.85399 71.0382 5.1111 71.0352H83.4516C84.7087 71.0382 85.9134 71.5389 86.8023 72.4278C87.6913 73.3167 88.192 74.5215 88.195 75.7786V173.946C88.1995 174.572 88.0801 175.192 87.8438 175.772C87.6074 176.351 87.2587 176.878 86.8178 177.322C86.3769 177.766 85.8525 178.119 85.2747 178.359C84.697 178.6 84.0774 178.723 83.4516 178.723ZM5.1111 72.1727C4.15567 72.1757 3.24024 72.5565 2.56465 73.2321C1.88906 73.9077 1.50819 74.8232 1.50519 75.7786V173.946C1.50068 174.422 1.59062 174.895 1.76981 175.336C1.94901 175.778 2.2139 176.179 2.54919 176.518C2.88448 176.856 3.28352 177.125 3.72325 177.308C4.16298 177.492 4.63468 177.586 5.1111 177.586H83.4516C84.4079 177.586 85.3251 177.206 86.0013 176.53C86.6776 175.854 87.0575 174.936 87.0575 173.98V75.7786C87.0545 74.8232 86.6736 73.9077 85.998 73.2321C85.3224 72.5565 84.407 72.1757 83.4516 72.1727H5.1111Z" fill="#0E2228"/>
<path d="M65.7742 155.622H19.0565C18.9057 155.622 18.761 155.562 18.6544 155.455C18.5477 155.349 18.4878 155.204 18.4878 155.053C18.4907 154.903 18.5516 154.76 18.6576 154.654C18.7636 154.548 18.9066 154.487 19.0565 154.484H65.7742C65.925 154.484 66.0697 154.544 66.1763 154.651C66.283 154.758 66.3429 154.902 66.3429 155.053C66.3429 155.204 66.283 155.349 66.1763 155.455C66.0697 155.562 65.925 155.622 65.7742 155.622Z" fill="#D1D3D4"/>
<path d="M43.2173 163.255H19.0565C18.9066 163.252 18.7636 163.191 18.6576 163.085C18.5516 162.979 18.4907 162.836 18.4878 162.686C18.4878 162.535 18.5477 162.39 18.6544 162.284C18.761 162.177 18.9057 162.117 19.0565 162.117H43.2173C43.3681 162.117 43.5128 162.177 43.6195 162.284C43.7261 162.39 43.7861 162.535 43.7861 162.686C43.7831 162.836 43.7223 162.979 43.6163 163.085C43.5102 163.191 43.3672 163.252 43.2173 163.255Z" fill="#D1D3D4"/>
<path d="M21.947 95.5826C28.7721 102.408 35.5706 109.21 42.3426 115.99C42.4463 116.102 42.5732 116.191 42.7146 116.25C42.856 116.309 43.0085 116.337 43.1616 116.331H74.4091C74.2379 121.157 72.909 125.872 70.5345 130.078C68.1599 134.284 64.8092 137.857 60.7648 140.496C56.7203 143.136 52.1006 144.765 47.2949 145.246C42.4893 145.727 37.6384 145.045 33.1512 143.259C28.6639 141.473 24.6718 138.634 21.5111 134.982C18.3505 131.331 16.1139 126.972 14.9899 122.275C13.866 117.578 13.8875 112.68 15.0527 107.993C16.218 103.306 18.4927 98.9677 21.6854 95.3438L21.947 95.5826Z" fill="#23B5E9"/>
<path d="M45.3667 85.0859V114.183H45.6625L73.8273 114.115C74.4529 114.115 74.4529 114.115 74.4074 113.49C74.0522 107.956 72.1898 102.624 69.0218 98.0726C65.8538 93.5211 61.501 89.923 56.4347 87.6681C53.3422 86.3172 50.0489 85.4833 46.6862 85.1997L45.3667 85.0859Z" fill="#D1D3D4"/>
<path d="M43.2179 113.794V85.1055C39.8347 85.281 36.4996 85.9833 33.3329 87.1871C29.5449 88.6857 26.0893 90.916 23.1636 93.7506L43.2179 113.794Z" fill="#D1D3D4"/>
<path d="M133.513 98.2996C126.813 96.2862 123.276 88.4487 121.49 82.2151C119.488 75.1284 117.133 69.3271 119.988 61.9447C120.637 60.2498 121.683 58.5321 123.401 57.9861C123.829 57.9244 124.243 57.7815 124.618 57.5652C124.916 57.2703 125.139 56.9073 125.266 56.5074C129.338 46.9068 140.861 46.6451 149.507 47.9988C154.512 48.7837 161.007 51.0701 162.565 56.2116C165.42 65.6871 163.009 75.9929 157.754 84.183C152.839 91.884 143.546 101.371 133.513 98.2996Z" fill="white"/>
<path d="M137.347 99.4391C135.994 99.4426 134.648 99.2432 133.354 98.8476C126.358 96.7432 122.741 88.7351 120.944 82.3764C120.716 81.5688 120.489 80.7725 120.25 79.9876C118.43 73.811 116.837 68.4646 119.453 61.7874C120.375 59.3873 121.672 57.9427 123.276 57.4877L123.617 57.408C123.895 57.4104 124.163 57.311 124.373 57.1287C124.583 56.9464 124.718 56.6938 124.754 56.4184C128.997 46.4538 140.679 46.067 149.643 47.4889C153.056 48.0235 161.314 49.9459 163.168 56.0999C165.875 65.109 164.101 75.4376 158.288 84.5377C153.363 92.1249 145.605 99.4391 137.347 99.4391ZM142.397 47.978C135.572 47.978 128.747 49.9118 125.824 56.7255C125.671 57.2198 125.388 57.6638 125.005 58.0109C124.666 58.249 124.276 58.4048 123.867 58.4659L123.583 58.5455C122.343 58.8868 121.308 60.1039 120.511 62.1515C118.054 68.5101 119.579 73.6858 121.342 79.6691C121.581 80.454 121.808 81.2503 122.047 82.0693C123.765 88.1436 127.177 95.8104 133.684 97.767C142.784 100.486 151.884 92.3752 157.31 83.8779C162.941 75.0963 164.67 65.0749 162.053 56.3729C160.381 50.8446 152.68 49.0701 149.45 48.5696C147.118 48.1909 144.76 47.9932 142.397 47.978Z" fill="#0E2228"/>
<path d="M163.953 79.125C163.953 79.125 171.13 88.1 170.004 90.2044C168.878 92.3088 164.419 91.3419 164.419 91.3419" fill="white"/>
<path d="M166.546 92.1713C165.782 92.172 165.02 92.0958 164.271 91.9438C164.12 91.9136 163.988 91.8247 163.902 91.6967C163.817 91.5687 163.786 91.4121 163.816 91.2613C163.846 91.1104 163.935 90.9777 164.063 90.8924C164.191 90.8071 164.348 90.7761 164.499 90.8062C165.636 91.0337 168.719 91.3295 169.47 89.919C170.061 88.7815 166.808 83.6285 163.475 79.4539C163.38 79.3356 163.335 79.1848 163.35 79.0338C163.365 78.8829 163.438 78.7437 163.555 78.6462C163.675 78.5554 163.826 78.5141 163.976 78.5311C164.127 78.548 164.265 78.6218 164.362 78.7372C166.103 80.9213 171.688 88.19 170.471 90.4536C169.765 91.8528 167.979 92.1713 166.546 92.1713Z" fill="#0E2228"/>
<path d="M161.45 66.6121C165.773 69.5241 165.238 76.5767 165.614 81.0926C166.137 87.4399 166.516 93.8024 166.751 100.18C166.899 104.218 156.514 105.253 154.546 104.218L157.617 119.973L134.992 113.557L134.025 95.1409C134.025 95.1409 140.85 94.5607 144.263 86.0408C147.675 77.5208 146.276 64.8831 146.276 64.8831C146.276 64.8831 157.23 63.7569 161.45 66.6121Z" fill="white"/>
<path d="M157.618 120.538H157.459L134.811 114.122C134.696 114.092 134.594 114.026 134.518 113.934C134.443 113.842 134.398 113.729 134.39 113.611L133.423 95.1829C133.416 95.0375 133.466 94.8952 133.561 94.7852C133.656 94.6751 133.79 94.6058 133.935 94.5914C134.208 94.5914 140.521 93.9202 143.672 85.8098C146.914 77.4604 145.663 65.0388 145.651 64.9137C145.642 64.763 145.686 64.6138 145.776 64.4928C145.824 64.4348 145.883 64.3869 145.949 64.3517C146.016 64.3166 146.088 64.295 146.163 64.2881C146.618 64.2881 157.436 63.2302 161.77 66.1536C165.603 68.7471 165.842 74.2072 166.035 78.6662C166.035 79.5307 166.115 80.3611 166.183 81.1232C166.707 87.4705 167.093 93.8975 167.321 100.233C167.316 100.876 167.13 101.504 166.783 102.045C166.437 102.587 165.945 103.019 165.364 103.293C162.714 104.954 157.709 105.511 155.275 105.102L158.175 119.89C158.193 119.986 158.187 120.085 158.157 120.178C158.128 120.272 158.075 120.356 158.005 120.424C157.892 120.504 157.756 120.544 157.618 120.538ZM135.505 113.121L156.878 119.173L153.989 104.328C153.965 104.223 153.972 104.112 154.011 104.011C154.049 103.91 154.117 103.822 154.205 103.76C154.296 103.704 154.4 103.675 154.507 103.675C154.613 103.675 154.717 103.704 154.808 103.76C156.071 104.431 161.918 104.078 164.761 102.304C165.74 101.689 166.217 100.996 166.183 100.245C165.956 93.9202 165.569 87.5047 165.046 81.1801C164.978 80.4066 164.943 79.5648 164.898 78.6776C164.716 74.537 164.488 69.3841 161.133 67.1205C157.72 64.7772 149.109 65.2322 146.834 65.3914C147.05 67.9963 147.71 78.5866 144.73 86.242C141.75 93.8975 136.346 95.3421 134.583 95.672L135.505 113.121Z" fill="#0E2228"/>
<path d="M166.171 95.4567C166.171 95.4567 159.938 95.4567 158.448 87.0391Z" fill="white"/>
<path d="M166.171 96.0293C166.103 96.0293 159.437 95.9269 157.879 87.1453C157.855 86.9963 157.891 86.8441 157.978 86.7209C158.065 86.5977 158.197 86.5133 158.345 86.4856C158.493 86.459 158.645 86.4919 158.769 86.5771C158.892 86.6623 158.977 86.793 159.005 86.9406C160.381 94.7666 165.944 94.9031 166.171 94.9031C166.322 94.9031 166.467 94.9631 166.573 95.0697C166.68 95.1764 166.74 95.3211 166.74 95.4719C166.737 95.6208 166.676 95.7625 166.569 95.8667C166.463 95.9709 166.32 96.0293 166.171 96.0293Z" fill="#0E2228"/>
<path d="M152.145 84.3094C151.821 82.7405 151.069 81.2918 149.973 80.1234C149.253 79.1095 148.387 78.2086 147.402 77.4502C146.908 77.0731 146.336 76.8111 145.728 76.6832C145.12 76.5552 144.491 76.5647 143.887 76.7108C143.375 76.8971 142.908 77.1888 142.516 77.567C142.125 77.9452 141.816 78.4014 141.612 78.9062C141.203 79.9276 141.028 81.0276 141.1 82.1254C141.208 84.5259 141.947 86.8555 143.243 88.8789C144.539 90.9022 146.347 92.5474 148.483 93.6484L148.107 93.2957" fill="white"/>
<path d="M148.449 94.1931C148.361 94.1918 148.275 94.1683 148.199 94.1249C145.979 92.9715 144.1 91.2566 142.749 89.1511C141.398 87.0456 140.622 84.6228 140.498 82.1241C140.428 80.9594 140.619 79.7936 141.055 78.7116C141.297 78.1269 141.66 77.6004 142.121 77.1669C142.582 76.7335 143.13 76.4031 143.728 76.1977C144.415 76.0247 145.131 76.0084 145.824 76.1502C146.517 76.292 147.17 76.5882 147.733 77.0167C148.765 77.8026 149.67 78.7426 150.417 79.8036C151.581 81.0543 152.37 82.6075 152.692 84.2854C152.708 84.4346 152.664 84.5841 152.571 84.7013C152.477 84.8185 152.341 84.8939 152.192 84.911C152.042 84.927 151.893 84.8834 151.776 84.7896C151.659 84.6959 151.583 84.5596 151.566 84.4105C151.245 82.9443 150.534 81.5921 149.507 80.4975C148.825 79.5335 148.005 78.675 147.073 77.9495C146.649 77.6224 146.157 77.3935 145.634 77.2794C145.111 77.1653 144.569 77.1688 144.047 77.2897C143.606 77.4486 143.204 77.699 142.867 78.0245C142.529 78.3499 142.265 78.743 142.09 79.178C141.714 80.1201 141.555 81.1348 141.624 82.1469C141.733 84.3018 142.368 86.3971 143.475 88.2494C144.582 90.1016 146.125 91.6543 147.971 92.7713C148.054 92.7546 148.14 92.7583 148.221 92.7821C148.303 92.8059 148.377 92.849 148.438 92.9078L148.825 93.249C148.914 93.3255 148.978 93.4279 149.007 93.5421C149.035 93.6563 149.028 93.7766 148.986 93.8865C148.943 93.9964 148.868 94.0904 148.77 94.1555C148.671 94.2206 148.556 94.2536 148.438 94.25L148.449 94.1931Z" fill="#0E2228"/>
<path d="M154.546 104.218C154.546 104.218 148.984 103.081 146.14 99.5547C146.14 99.5547 147.141 107.972 155.672 110.02L154.546 104.218Z" fill="#0E2228"/>
<path d="M155.672 110.586H155.536C146.72 108.482 145.582 99.7343 145.571 99.6433C145.556 99.5211 145.581 99.3973 145.643 99.2907C145.705 99.184 145.799 99.1002 145.912 99.0518C146.024 99.0021 146.15 98.9907 146.269 99.0195C146.388 99.0483 146.495 99.1156 146.572 99.2111C149.268 102.498 154.603 103.67 154.66 103.682C154.771 103.705 154.872 103.76 154.951 103.841C155.03 103.922 155.083 104.025 155.103 104.137L156.241 109.926C156.258 110.009 156.256 110.094 156.236 110.176C156.216 110.258 156.177 110.335 156.124 110.4C156.071 110.465 156.004 110.518 155.927 110.554C155.851 110.59 155.768 110.609 155.684 110.609L155.672 110.586ZM147.141 101.35C147.694 103.202 148.696 104.889 150.057 106.262C151.418 107.635 153.097 108.651 154.944 109.221L154.057 104.671C151.549 104.06 149.194 102.937 147.141 101.372V101.35Z" fill="#0E2228"/>
<path d="M160.839 75.1281C160.936 73.8753 160.613 72.8288 160.118 72.7906C159.623 72.7523 159.144 73.7368 159.047 74.9896C158.95 76.2423 159.273 77.2888 159.768 77.3271C160.262 77.3653 160.742 76.3808 160.839 75.1281Z" fill="#0E2228"/>
<path d="M100.742 151.243L89.0714 171.718L58.6771 140.528C58.6771 140.528 61.1341 127.276 57.8581 128.334C55.7882 129.071 53.9885 130.415 52.6938 132.19C52.6938 132.19 49.9978 113.99 42.8998 119.973C35.8017 125.956 39.0664 136.467 44.4468 146.568C48.4395 154.064 83.9185 208.744 93.7579 206.549C103.597 204.354 126.962 154.69 126.962 154.69L100.742 151.243Z" fill="white"/>
<path d="M93.2115 207.163C82.0298 207.163 47.5063 153.518 43.9458 146.875C39.4641 138.446 34.4362 126.4 42.5353 119.575C44.0369 118.301 45.4929 117.914 46.8693 118.437C50.6003 119.848 52.4431 127.776 53.0346 130.95C54.2959 129.543 55.8982 128.486 57.687 127.878C57.9284 127.784 58.1913 127.758 58.4464 127.805C58.7015 127.851 58.9387 127.967 59.1316 128.14C61.0313 129.812 59.7004 138.105 59.2909 140.425L88.9458 170.763L100.253 150.936C100.308 150.837 100.392 150.757 100.494 150.707C100.595 150.656 100.709 150.637 100.821 150.651L126.984 154.064C127.073 154.075 127.158 154.108 127.232 154.159C127.305 154.211 127.365 154.28 127.405 154.36C127.444 154.439 127.465 154.527 127.465 154.616C127.465 154.704 127.444 154.792 127.405 154.872C126.438 156.908 103.79 204.82 93.803 207.038C93.6102 207.098 93.4122 207.14 93.2115 207.163ZM45.6521 119.313C44.7461 119.397 43.8994 119.8 43.2633 120.451C37.5758 125.274 38.1104 133.509 44.9582 146.352C49.2922 154.496 84.4982 208.062 93.6324 206.048C102.459 204.08 123.208 161.253 126.12 155.202L101.094 151.903L89.6056 172.048C89.5616 172.124 89.5008 172.19 89.4279 172.239C89.355 172.288 89.2718 172.32 89.1847 172.332C89.0972 172.345 89.008 172.336 88.9248 172.306C88.8416 172.276 88.7668 172.227 88.707 172.162L58.3126 140.971C58.2506 140.905 58.2049 140.825 58.1792 140.739C58.1535 140.652 58.1486 140.56 58.1648 140.471C58.9383 136.273 59.5411 129.937 58.4264 128.959C58.4264 128.959 58.3013 128.857 58.0737 128.959C56.1292 129.663 54.4357 130.926 53.2052 132.588C53.1389 132.682 53.0465 132.755 52.9394 132.797C52.8323 132.84 52.7152 132.85 52.6023 132.827C52.492 132.801 52.3919 132.743 52.3149 132.66C52.2379 132.576 52.1875 132.472 52.1701 132.36C51.7037 129.209 49.7927 120.78 46.4825 119.552C46.2235 119.42 45.9416 119.339 45.6521 119.313Z" fill="#0E2228"/>
<path d="M182.359 143.132C182.359 143.132 205.883 137.035 214.699 131.859C224.368 126.171 242.579 90.2488 248.494 81.3193C251.705 76.3883 254.091 70.9672 255.558 65.269C256.241 62.721 256.559 60.8783 255.285 58.444C255.024 57.9321 250.849 53.3593 250.656 53.8939C251.793 50.6975 252.931 47.6604 254.136 44.4981C254.455 43.6222 254.694 42.5188 254.023 41.8818C253.729 41.6521 253.366 41.5273 252.993 41.5273C252.62 41.5273 252.258 41.6521 251.964 41.8818C251.37 42.3364 250.888 42.9199 250.553 43.5881L240.884 60.355C240.962 58.2847 240.545 56.2257 239.667 54.3489C239.529 53.9722 239.279 53.6468 238.951 53.4162C237.893 52.8247 236.869 54.2693 236.539 55.4296C234.821 61.4811 236.061 68.7726 232.353 74.1303C229.532 78.2026 204.473 108.256 204.473 108.256L182.359 113.943" fill="white"/>
<path d="M182.359 143.696C182.209 143.715 182.056 143.674 181.936 143.581C181.815 143.489 181.736 143.352 181.717 143.201C181.697 143.05 181.738 142.898 181.831 142.777C181.924 142.657 182.061 142.578 182.212 142.558C182.45 142.501 205.769 136.438 214.414 131.354C221.41 127.236 233.297 106.408 241.169 92.6215C244.013 87.6505 246.458 83.3507 247.994 80.9961C251.166 76.1007 253.521 70.7221 254.967 65.0709C255.615 62.6821 255.956 60.9417 254.739 58.6098C253.523 57.0845 252.167 55.6755 250.69 54.401C250.607 54.4179 250.522 54.4179 250.439 54.401C250.298 54.3495 250.181 54.2446 250.115 54.1086C250.05 53.9727 250.039 53.8164 250.087 53.673C250.781 51.6255 251.554 49.6121 252.294 47.6556C252.726 46.5181 253.147 45.3806 253.568 44.2431C253.989 43.1055 253.954 42.5709 253.568 42.241C253.372 42.096 253.135 42.0178 252.891 42.0178C252.647 42.0178 252.41 42.096 252.214 42.241C251.704 42.6629 251.293 43.1909 251.008 43.7881L241.305 60.5891C241.243 60.7001 241.145 60.7866 241.027 60.8342C240.909 60.8818 240.779 60.8876 240.657 60.8507C240.559 60.8079 240.474 60.7382 240.414 60.6497C240.354 60.5611 240.32 60.4573 240.316 60.3502C240.382 58.3919 239.992 56.445 239.178 54.6627C239.082 54.3971 238.912 54.1644 238.689 53.9915C238.627 53.9556 238.556 53.9367 238.484 53.9367C238.412 53.9367 238.342 53.9556 238.279 53.9915C237.698 54.3907 237.291 54.997 237.142 55.6864C236.557 57.9994 236.176 60.3594 236.004 62.739C235.629 66.8341 235.231 71.077 232.819 74.5464C230.021 78.6073 205.929 107.443 204.905 108.672C204.829 108.763 204.725 108.827 204.609 108.854L182.496 114.541C182.35 114.576 182.196 114.553 182.066 114.477C181.937 114.4 181.842 114.277 181.802 114.132C181.783 114.059 181.779 113.984 181.789 113.91C181.8 113.836 181.825 113.764 181.863 113.7C181.901 113.635 181.951 113.579 182.011 113.534C182.071 113.489 182.139 113.456 182.212 113.438L204.154 107.75C206.008 105.475 229.179 77.7201 231.887 73.8525C234.162 70.622 234.503 66.5269 234.878 62.5798C235.037 60.1274 235.418 57.6946 236.016 55.3111C236.136 54.8006 236.361 54.3207 236.676 53.9017C236.991 53.4827 237.39 53.1337 237.847 52.8768C238.071 52.7816 238.315 52.7402 238.558 52.756C238.801 52.7718 239.036 52.8444 239.246 52.9678C239.683 53.2294 240.02 53.6299 240.202 54.1053C240.83 55.4486 241.233 56.8858 241.396 58.3596L250.087 43.2876C250.467 42.5355 251.016 41.8815 251.691 41.3765C252.096 41.08 252.588 40.9258 253.09 40.9382C253.592 40.9505 254.076 41.1287 254.466 41.4448C255.172 42.1159 255.263 43.2079 254.717 44.6753C254.296 45.8128 253.863 46.9503 253.431 48.0879C252.76 49.8624 252.066 51.6938 251.418 53.5479C253.058 54.8911 254.539 56.4178 255.831 58.098C257.23 60.7825 256.844 62.8073 256.15 65.378C254.664 71.1311 252.255 76.6053 249.018 81.5876C247.471 83.9195 245.036 88.1965 242.193 93.1447C233.786 107.864 222.286 128.032 215.017 132.298C206.247 137.462 183.497 143.377 182.53 143.673L182.359 143.696Z" fill="#0E2228"/>
<path d="M195.279 240.149L187.92 206.684L114.516 226.374C114.516 226.374 114.664 231.868 114.869 240.126L195.279 240.149Z" fill="#0E2228"/>
<path d="M210.068 104.783C210.068 104.783 126.552 103.02 115.95 118.012C107.7 130.454 100.791 143.734 95.3384 157.632L110.354 171.668C110.287 191.52 111.297 211.361 113.379 231.103C139.258 235.653 192.869 214.951 192.414 214.746L185.589 145.358L217.553 135.484L210.068 104.783Z" fill="#23B5E9"/>
<path d="M109.375 166.463C109.3 166.46 109.227 166.442 109.159 166.411C109.091 166.38 109.03 166.335 108.979 166.28C108.929 166.226 108.889 166.161 108.864 166.091C108.838 166.021 108.826 165.946 108.829 165.871C108.829 164.62 109.819 135.011 113.88 124.659C113.906 124.589 113.946 124.525 113.998 124.47C114.05 124.416 114.112 124.372 114.181 124.342C114.25 124.313 114.325 124.297 114.4 124.297C114.475 124.297 114.55 124.312 114.619 124.341C114.689 124.366 114.753 124.405 114.808 124.456C114.862 124.507 114.906 124.568 114.935 124.636C114.965 124.704 114.981 124.778 114.981 124.852C114.982 124.927 114.967 125 114.938 125.069C110.956 135.238 109.978 165.61 109.967 165.906C109.961 166.057 109.895 166.201 109.785 166.305C109.674 166.409 109.527 166.466 109.375 166.463Z" fill="#0E2228"/>
<path d="M174.157 148.91C174.033 148.912 173.912 148.873 173.814 148.799C173.715 148.725 173.643 148.62 173.611 148.501C173.572 148.355 173.592 148.199 173.666 148.067C173.741 147.936 173.864 147.838 174.009 147.796L197.612 141.084C197.763 141.042 197.924 141.062 198.061 141.138C198.197 141.215 198.298 141.343 198.34 141.494C198.382 141.645 198.363 141.806 198.286 141.943C198.209 142.079 198.081 142.18 197.931 142.222L174.316 148.933C174.262 148.937 174.208 148.929 174.157 148.91Z" fill="#0E2228"/>
<path d="M266.432 228.59H225.152C224.58 228.591 224.012 228.479 223.483 228.261C222.954 228.043 222.473 227.722 222.068 227.317C221.663 226.912 221.342 226.431 221.124 225.902C220.906 225.373 220.794 224.806 220.795 224.233V178.63C220.795 178.058 220.908 177.491 221.127 176.963C221.346 176.434 221.667 175.954 222.071 175.549C222.476 175.145 222.956 174.824 223.485 174.605C224.013 174.386 224.58 174.273 225.152 174.273H261.553L270.744 183.237V224.187C270.75 224.76 270.643 225.327 270.429 225.858C270.216 226.389 269.9 226.873 269.5 227.282C269.099 227.69 268.623 228.016 268.096 228.241C267.57 228.465 267.005 228.584 266.432 228.59Z" fill="white"/>
<path d="M266.432 229.161H225.152C223.845 229.161 222.592 228.642 221.669 227.718C220.745 226.795 220.226 225.542 220.226 224.235V178.633C220.229 177.327 220.749 176.076 221.672 175.153C222.595 174.23 223.846 173.71 225.152 173.707H261.552C261.626 173.705 261.699 173.719 261.767 173.746C261.836 173.773 261.898 173.814 261.95 173.866L271.153 182.841C271.259 182.947 271.32 183.09 271.323 183.24V224.19C271.332 225.497 270.822 226.755 269.905 227.687C268.988 228.619 267.739 229.149 266.432 229.161ZM225.152 174.845C224.148 174.848 223.186 175.248 222.476 175.957C221.767 176.667 221.367 177.629 221.364 178.633V224.224C221.364 224.722 221.462 225.214 221.652 225.674C221.842 226.133 222.121 226.551 222.473 226.903C222.825 227.254 223.242 227.533 223.702 227.724C224.162 227.914 224.654 228.012 225.152 228.012H266.432C267.436 228.009 268.397 227.609 269.107 226.899C269.817 226.19 270.217 225.228 270.22 224.224V183.478L261.359 174.845H225.152Z" fill="#0E2228"/>
<path d="M211.376 9.2361C212.432 9.2361 213.287 8.38051 213.287 7.32508C213.287 6.26966 212.432 5.41406 211.376 5.41406C210.321 5.41406 209.465 6.26966 209.465 7.32508C209.465 8.38051 210.321 9.2361 211.376 9.2361Z" fill="#23B5E9"/>
<path d="M218.008 9.2361C219.064 9.2361 219.919 8.38051 219.919 7.32508C219.919 6.26966 219.064 5.41406 218.008 5.41406C216.953 5.41406 216.097 6.26966 216.097 7.32508C216.097 8.38051 216.953 9.2361 218.008 9.2361Z" fill="#D1D3D4"/>
<path d="M224.64 9.2361C225.695 9.2361 226.551 8.38051 226.551 7.32508C226.551 6.26966 225.695 5.41406 224.64 5.41406C223.585 5.41406 222.729 6.26966 222.729 7.32508C222.729 8.38051 223.585 9.2361 224.64 9.2361Z" fill="#D1D3D4"/>
<path d="M261.256 37.3184C261.126 37.3174 261.001 37.2689 260.904 37.1819C260.795 37.0892 260.726 36.9574 260.714 36.8148C260.701 36.6723 260.745 36.5304 260.835 36.4198L265.749 30.5957C265.801 30.5346 265.866 30.4856 265.938 30.4522C266.011 30.4188 266.09 30.4018 266.17 30.4024H278.467C278.618 30.4024 278.762 30.4623 278.869 30.5689C278.976 30.6756 279.036 30.8203 279.036 30.9711C279.036 31.122 278.976 31.2666 278.869 31.3733C278.762 31.4799 278.618 31.5399 278.467 31.5399H266.398L261.643 37.2274C261.53 37.3053 261.392 37.3377 261.256 37.3184Z" fill="#D1D3D4"/>
<path d="M261.598 174.273V183.51L270.789 183.237L261.598 174.273Z" fill="#23B5E9"/>
<path d="M261.586 184.082C261.441 184.081 261.302 184.024 261.199 183.923C261.142 183.871 261.096 183.808 261.064 183.738C261.033 183.667 261.017 183.591 261.017 183.513V174.277C261.019 174.165 261.053 174.056 261.116 173.963C261.179 173.87 261.267 173.798 261.37 173.754C261.472 173.709 261.585 173.696 261.694 173.716C261.804 173.737 261.905 173.789 261.984 173.867L271.186 182.842C271.264 182.921 271.317 183.021 271.338 183.129C271.36 183.237 271.35 183.349 271.309 183.452C271.268 183.555 271.198 183.643 271.107 183.706C271.017 183.77 270.91 183.806 270.8 183.809L261.609 184.082H261.586ZM262.155 175.631V182.933L269.423 182.717L262.155 175.631Z" fill="#0E2228"/>
<path d="M62.6465 198.301H50.9643C49.2492 198.301 47.8589 199.691 47.8589 201.406V213.088C47.8589 214.804 49.2492 216.194 50.9643 216.194H62.6465C64.3616 216.194 65.7519 214.804 65.7519 213.088V201.406C65.7519 199.691 64.3616 198.301 62.6465 198.301Z" fill="#23B5E9"/>
<path d="M59.5636 192.566H47.4946C45.8863 192.566 44.5825 193.87 44.5825 195.478V207.547C44.5825 209.156 45.8863 210.459 47.4946 210.459H59.5636C61.1718 210.459 62.4756 209.156 62.4756 207.547V195.478C62.4756 193.87 61.1718 192.566 59.5636 192.566Z" fill="white"/>
<path d="M59.5633 211.031H47.4943C47.0352 211.034 46.5802 210.946 46.1552 210.772C45.7303 210.599 45.3439 210.343 45.0183 210.019C44.6926 209.696 44.4342 209.311 44.2578 208.887C44.0815 208.463 43.9907 208.009 43.9907 207.55V195.481C43.9907 194.558 44.3574 193.672 45.0102 193.02C45.663 192.367 46.5483 192 47.4715 192H59.5405C59.9976 192 60.4502 192.09 60.8726 192.265C61.2949 192.44 61.6786 192.696 62.0018 193.02C62.325 193.343 62.5814 193.726 62.7563 194.149C62.9313 194.571 63.0213 195.024 63.0213 195.481V207.55C63.0213 208.469 62.6577 209.351 62.0099 210.003C61.362 210.655 60.4825 211.025 59.5633 211.031ZM47.4943 193.138C47.1846 193.135 46.8775 193.193 46.5905 193.309C46.3036 193.426 46.0426 193.598 45.8226 193.816C45.6026 194.034 45.4279 194.293 45.3088 194.579C45.1896 194.865 45.1282 195.171 45.1282 195.481V207.55C45.1282 208.171 45.3751 208.767 45.8146 209.207C46.254 209.646 46.85 209.893 47.4715 209.893H59.5405C60.162 209.893 60.758 209.646 61.1975 209.207C61.6369 208.767 61.8838 208.171 61.8838 207.55V195.481C61.8838 194.859 61.6369 194.263 61.1975 193.824C60.758 193.384 60.162 193.138 59.5405 193.138H47.4943Z" fill="#0E2228"/>
<path d="M243.329 218.414V215.73C242.351 215.457 241.407 215.263 240.486 214.945C238.708 214.389 237.169 213.251 236.117 211.714C235.252 210.358 234.812 208.773 234.855 207.164H240.099C240.133 208.076 240.467 208.952 241.049 209.655C241.631 210.358 242.428 210.85 243.318 211.055V203.934C242.26 203.627 241.214 203.342 240.167 203.012C239.027 202.684 237.981 202.087 237.119 201.272C236.223 200.376 235.631 199.223 235.424 197.973C235.12 196.455 235.234 194.882 235.753 193.423C236.14 192.373 236.753 191.42 237.549 190.634C238.345 189.847 239.305 189.246 240.36 188.873C241.231 188.599 242.116 188.371 243.011 188.191L243.329 188.122V184.414H248.243V184.767C248.243 185.779 248.243 186.803 248.243 187.815C248.243 188.065 248.323 188.145 248.562 188.202C250.233 188.526 251.797 189.261 253.112 190.341C254.512 191.484 255.44 193.104 255.717 194.891C255.808 195.38 255.842 195.88 255.91 196.392H250.575C250.566 195.664 250.347 194.954 249.943 194.349C249.539 193.743 248.969 193.268 248.3 192.98V199.634L248.88 199.77C250.323 200.05 251.728 200.496 253.066 201.101C254.072 201.538 254.94 202.239 255.577 203.131C256.214 204.022 256.597 205.071 256.684 206.163C256.998 208.199 256.504 210.277 255.307 211.953C254.322 213.317 252.94 214.342 251.349 214.888C250.359 215.229 249.335 215.445 248.277 215.741V218.346L243.329 218.414ZM248.255 204.889V211.077C249.054 210.96 249.806 210.626 250.427 210.11C250.748 209.849 251.005 209.518 251.177 209.142C251.349 208.765 251.432 208.355 251.42 207.941C251.408 207.528 251.301 207.122 251.107 206.757C250.913 206.391 250.638 206.075 250.302 205.833C249.643 205.471 248.958 205.156 248.255 204.889ZM243.318 198.553V192.57C242.674 192.852 242.048 193.171 241.441 193.526C241.093 193.774 240.811 194.104 240.622 194.488C240.434 194.872 240.343 195.297 240.359 195.724C240.374 196.151 240.496 196.568 240.713 196.937C240.93 197.306 241.235 197.615 241.6 197.837C242.135 198.121 242.715 198.314 243.318 198.565V198.553Z" fill="#23B5E9"/>
</svg>
