<svg width="17" height="21" viewBox="0 0 17 21" fill="none" xmlns="http://www.w3.org/2000/svg">
<path id="Union" fill-rule="evenodd" clip-rule="evenodd" d="M16.0749 6.61153C16.1388 6.67543 16.1844 6.74845 16.2209 6.83061C16.2574 6.91276 16.2757 7.00405 16.2757 7.09533V18.2774C16.2757 19.6832 15.1346 20.8242 13.7289 20.8242H2.54678C1.14103 20.8242 0 19.6832 0 18.2774V3.371C0 1.96525 1.14103 0.824219 2.54678 0.824219H10.0046C10.0958 0.824219 10.1871 0.842475 10.2693 0.878988C10.3514 0.915501 10.4245 0.961143 10.4884 1.02504L16.0749 6.61153ZM13.9388 6.41071L10.6892 3.16105V6.41071H13.9388ZM2.54678 19.455H13.7198C14.3679 19.455 14.8973 18.9255 14.8973 18.2774V7.77995H9.99544C9.62118 7.77995 9.31082 7.46959 9.31082 7.09533V2.19346H2.54678C1.89868 2.19346 1.36924 2.7229 1.36924 3.371V18.2774C1.36924 18.9255 1.89868 19.455 2.54678 19.455ZM4.40895 11.0661H11.8576C12.2319 11.0661 12.5422 11.3765 12.5422 11.7507C12.5422 12.125 12.2319 12.4354 11.8576 12.4354H4.40895C4.03469 12.4354 3.72433 12.125 3.72433 11.7507C3.72433 11.3765 4.03469 11.0661 4.40895 11.0661ZM11.8576 14.7996H4.40895C4.03469 14.7996 3.72433 15.1099 3.72433 15.4842C3.72433 15.8584 4.03469 16.1688 4.40895 16.1688H11.8576C12.2319 16.1688 12.5422 15.8584 12.5422 15.4842C12.5422 15.1099 12.2319 14.7996 11.8576 14.7996ZM6.27111 8.71103H4.40895C4.03469 8.71103 3.72433 8.40067 3.72433 8.02641C3.72433 7.65215 4.03469 7.34179 4.40895 7.34179H6.27111C6.64537 7.34179 6.95573 7.65215 6.95573 8.02641C6.95573 8.40067 6.64537 8.71103 6.27111 8.71103Z" fill="#829AAC"/>
</svg>
