<svg width="17" height="21" viewBox="0 0 17 21" fill="none" xmlns="http://www.w3.org/2000/svg">
<path id="Union" fill-rule="evenodd" clip-rule="evenodd" d="M10 7.79226H15.5799H16.2648V18.3128C16.2648 18.9795 16 19.6096 15.5251 20.0845C15.0594 20.5594 14.411 20.8242 13.7443 20.8242H2.52055C1.84475 20.8242 1.21461 20.5594 0.739726 20.0845C0.26484 19.6187 0 18.9703 0 18.3128V3.33563C0 2.66897 0.255708 2.0297 0.730594 1.55481C1.21461 1.07993 1.84475 0.824219 2.52055 0.824219H9.31507V7.10732C9.31507 7.48175 9.62557 7.79226 10 7.79226ZM4.38356 14.8881C4.00913 14.8881 3.69863 15.1986 3.69863 15.5731C3.69863 15.9475 4.00913 16.258 4.38356 16.258H11.8447C12.2192 16.258 12.5297 15.9475 12.5297 15.5731C12.5297 15.1986 12.2192 14.8881 11.8447 14.8881H4.38356ZM12.5297 11.847C12.5297 11.4635 12.2192 11.1621 11.8447 11.1621H4.38356C4.00913 11.1621 3.69863 11.4726 3.69863 11.847C3.69863 12.2215 4.00913 12.532 4.38356 12.532H11.8447C12.2192 12.532 12.5297 12.2306 12.5297 11.847ZM4.38356 7.43609C4.00913 7.43609 3.69863 7.73746 3.69863 8.12102C3.69863 8.49545 4.00913 8.80595 4.38356 8.80595H6.25571C6.63014 8.80595 6.94064 8.50458 6.94064 8.12102C6.94064 7.73746 6.63014 7.43609 6.25571 7.43609H4.38356ZM15.863 6.42239H14.895H13.9269H10.6849V3.19865V2.23061V1.26257L15.863 6.42239Z" fill="#23B5E9"/>
</svg>
