<svg width="20" height="21" viewBox="0 0 20 21" fill="none" xmlns="http://www.w3.org/2000/svg">
<path fill-rule="evenodd" clip-rule="evenodd" d="M9.99998 2.18786C10.18 2.18786 10.356 2.24117 10.505 2.34107C10.655 2.44096 10.771 2.58294 10.84 2.74905C10.909 2.91517 10.927 3.09795 10.892 3.2743C10.857 3.45065 10.77 3.61263 10.643 3.73977C10.516 3.86691 10.354 3.95349 10.177 3.98857C10.001 4.02365 9.81798 4.00564 9.65198 3.93684C9.48598 3.86803 9.34398 3.75151 9.24398 3.60201C9.14398 3.45251 9.09098 3.27675 9.09098 3.09695C9.09098 2.85584 9.18698 2.62461 9.35698 2.45412C9.52798 2.28363 9.75898 2.18786 9.99998 2.18786ZM9.99998 0.824219C9.55098 0.824219 9.11098 0.957509 8.73698 1.20724C8.36398 1.45697 8.07198 1.81192 7.89998 2.22721C7.72798 2.6425 7.68298 3.09947 7.77098 3.54033C7.85898 3.9812 8.07498 4.38616 8.39298 4.70401C8.65298 4.96361 8.96998 5.15557 9.31798 5.26499V7.25269C8.84298 7.3437 8.38798 7.52919 7.98198 7.8007C7.94798 7.82292 7.91498 7.84567 7.88298 7.86893L6.51398 6.49479C6.71098 6.15275 6.81798 5.76215 6.81798 5.36059C6.81798 4.75782 6.57798 4.17975 6.15198 3.75353C5.72598 3.32731 5.14798 3.08786 4.54498 3.08786V3.09695C4.24698 3.0968 3.95198 3.15624 3.67698 3.27176C3.40198 3.38729 3.15298 3.55658 2.94498 3.76968C2.73398 3.98002 2.56597 4.23005 2.45097 4.50541C2.33697 4.78077 2.27798 5.07603 2.27798 5.37423C2.27798 5.67242 2.33697 5.96768 2.45097 6.24304C2.56597 6.5184 2.73398 6.76843 2.94498 6.97877C3.15498 7.189 3.40398 7.3552 3.67898 7.4676C3.95398 7.58001 4.24798 7.63635 4.54498 7.63332C4.88198 7.63332 5.21098 7.55861 5.50998 7.41838L6.94298 8.85762C6.82598 9.03912 6.72598 9.23142 6.64198 9.43262C6.52998 9.70272 6.45198 9.98382 6.40798 10.2697H4.47698C4.44998 10.1624 4.41498 10.0571 4.37198 9.95452C4.25798 9.67872 4.09098 9.42822 3.87998 9.21722C3.66898 9.00612 3.41798 8.83872 3.14198 8.72451C2.86698 8.61029 2.57098 8.5515 2.27298 8.5515C1.82318 8.5515 1.38378 8.6848 1.01008 8.93452C0.636279 9.18422 0.344974 9.53922 0.172974 9.95452C0.000974432 10.3698 -0.0440209 10.8267 0.0436791 11.2676C0.131379 11.7085 0.347781 12.1134 0.665681 12.4313C0.983481 12.7491 1.38848 12.9656 1.82928 13.0533C2.26998 13.141 2.72698 13.096 3.14198 12.9239C3.55798 12.7519 3.91298 12.4606 4.16198 12.0869C4.25798 11.9442 4.33598 11.792 4.39698 11.6333H6.45698C6.56398 12.1053 6.76498 12.5493 7.04498 12.9404L5.67098 14.3138C5.33098 14.1197 4.94298 14.0151 4.54498 14.0151V14.006C4.24698 14.0042 3.95298 14.0619 3.67798 14.1759C3.40298 14.2899 3.15398 14.4578 2.94498 14.6697C2.73398 14.88 2.56597 15.13 2.45097 15.4054C2.33697 15.6807 2.27798 15.976 2.27798 16.2742C2.27798 16.5724 2.33697 16.8677 2.45097 17.143C2.56597 17.4184 2.73398 17.6684 2.94498 17.8787C3.15298 18.0935 3.40098 18.2645 3.67598 18.3816C3.95098 18.4987 4.24598 18.5595 4.54498 18.5606C5.14798 18.5606 5.72598 18.3211 6.15198 17.8949C6.57798 17.4687 6.81798 16.8906 6.81798 16.2878C6.81798 15.948 6.74198 15.616 6.59898 15.3147L8.03198 13.8811C8.41498 14.1274 8.84198 14.3011 9.29198 14.3907L9.31798 14.3957V16.3834C9.11298 16.4478 8.91798 16.5412 8.73698 16.6618C8.36398 16.9115 8.07198 17.2665 7.89998 17.6817C7.72798 18.097 7.68298 18.554 7.77098 18.9949C7.85898 19.4357 8.07498 19.8407 8.39298 20.1585C8.71098 20.4764 9.11598 20.6928 9.55698 20.7805C9.99698 20.8682 10.454 20.8232 10.87 20.6512C11.285 20.4792 11.64 20.1879 11.89 19.8141C12.139 19.4404 12.273 19.001 12.273 18.5515C12.274 18.2527 12.216 17.9566 12.102 17.6803C11.988 17.404 11.821 17.153 11.61 16.9417C11.398 16.7305 11.147 16.5631 10.871 16.4493C10.809 16.4237 10.746 16.4009 10.682 16.381V14.3964C10.924 14.3502 11.163 14.2792 11.393 14.1838C11.594 14.1009 11.785 14.0006 11.966 13.8847L13.396 15.3153C13.256 15.614 13.182 15.9425 13.182 16.2787C13.182 16.8815 13.421 17.4596 13.847 17.8858C14.274 18.312 14.852 18.5515 15.455 18.5515C15.753 18.5516 16.048 18.4922 16.322 18.3767C16.597 18.2611 16.846 18.0918 17.055 17.8787C17.266 17.6684 17.434 17.4184 17.548 17.143C17.663 16.8677 17.721 16.5724 17.721 16.2742C17.721 15.976 17.663 15.6807 17.548 15.4054C17.434 15.13 17.266 14.88 17.055 14.6696C16.845 14.4594 16.595 14.2932 16.321 14.1808C16.046 14.0684 15.751 14.0121 15.455 14.0151V14.006C15.053 14.006 14.662 14.1125 14.319 14.3099L12.955 12.9457C12.979 12.9124 13.002 12.8787 13.025 12.8445C13.273 12.474 13.449 12.0632 13.547 11.6333H15.603C15.717 11.9314 15.893 12.2037 16.12 12.4313C16.438 12.7491 16.843 12.9656 17.284 13.0533C17.725 13.141 18.182 13.096 18.597 12.9239C19.012 12.7519 19.367 12.4606 19.617 12.0869C19.867 11.7131 20 11.2737 20 10.8242C20.001 10.5254 19.943 10.2294 19.829 9.95312C19.716 9.67682 19.548 9.42582 19.337 9.21452C19.126 9.00322 18.875 8.83582 18.598 8.72207C18.322 8.60828 18.026 8.55031 17.727 8.55152C17.278 8.55152 16.838 8.68481 16.465 8.93452C16.091 9.18432 15.8 9.53922 15.628 9.95452C15.585 10.0573 15.55 10.1626 15.523 10.2697H13.596C13.518 9.76492 13.334 9.28282 13.059 8.85472L14.483 7.42434C14.784 7.56659 15.115 7.64241 15.455 7.64241C15.752 7.64425 16.047 7.58648 16.322 7.4725C16.597 7.35852 16.846 7.19064 17.055 6.97877C17.266 6.76843 17.434 6.5184 17.548 6.24304C17.663 5.96768 17.721 5.67242 17.721 5.37423C17.721 5.07603 17.663 4.78077 17.548 4.50541C17.434 4.23005 17.266 3.98002 17.055 3.76968C16.847 3.55494 16.598 3.38396 16.324 3.26686C16.049 3.14976 15.753 3.08889 15.455 3.08786V3.09695C14.852 3.09695 14.274 3.3364 13.847 3.76262C13.421 4.18884 13.182 4.76692 13.182 5.36968C13.182 5.76881 13.287 6.15711 13.481 6.49766L12.118 7.86693C11.689 7.5602 11.199 7.35046 10.682 7.252V5.26499C10.745 5.24504 10.808 5.22226 10.87 5.19667C11.285 5.02465 11.64 4.73335 11.89 4.35961C12.139 3.98586 12.273 3.54645 12.273 3.09695C12.273 2.49418 12.033 1.9161 11.607 1.48989C11.181 1.06367 10.603 0.824219 9.99998 0.824219ZM9.99998 17.6424C10.18 17.6424 10.356 17.6957 10.505 17.7956C10.655 17.8955 10.771 18.0375 10.84 18.2036C10.909 18.3697 10.927 18.5525 10.892 18.7288C10.857 18.9052 10.77 19.0672 10.643 19.1943C10.516 19.3214 10.354 19.408 10.177 19.4431C10.001 19.4782 9.81798 19.4602 9.65198 19.3914C9.48598 19.3226 9.34398 19.206 9.24398 19.0565C9.14398 18.907 9.09098 18.7313 9.09098 18.5515C9.09098 18.3104 9.18698 18.0791 9.35698 17.9086C9.52798 17.7382 9.75898 17.6424 9.99998 17.6424ZM18.232 10.0683C18.083 9.96842 17.907 9.91512 17.727 9.91512C17.486 9.91512 17.255 10.0109 17.084 10.1814C16.914 10.3519 16.818 10.5831 16.818 10.8242C16.818 11.004 16.872 11.1798 16.971 11.3293C17.071 11.4788 17.213 11.5953 17.379 11.6641C17.546 11.7329 17.728 11.7509 17.905 11.7158C18.081 11.6808 18.243 11.5942 18.37 11.467C18.497 11.3399 18.584 11.1779 18.619 11.0016C18.654 10.8252 18.636 10.6424 18.567 10.4763C18.498 10.3102 18.382 10.1682 18.232 10.0683ZM2.27298 9.91512C2.45298 9.91512 2.62798 9.96842 2.77798 10.0683C2.92698 10.1682 3.04398 10.3102 3.11298 10.4763C3.18098 10.6424 3.19898 10.8252 3.16398 11.0016C3.12898 11.1779 3.04298 11.3399 2.91598 11.467C2.78798 11.5942 2.62597 11.6808 2.44997 11.7158C2.27397 11.7509 2.09098 11.7329 1.92478 11.6641C1.75868 11.5953 1.61668 11.4788 1.51678 11.3293C1.41698 11.1798 1.36358 11.004 1.36358 10.8242C1.36358 10.5831 1.45938 10.3519 1.62988 10.1814C1.80038 10.0109 2.03198 9.91512 2.27298 9.91512ZM16.091 15.6333C15.922 15.4653 15.693 15.3707 15.455 15.3696C15.213 15.3696 14.982 15.4654 14.812 15.6359C14.641 15.8064 14.545 16.0376 14.545 16.2787C14.545 16.5198 14.641 16.7511 14.812 16.9216C14.982 17.0921 15.213 17.1878 15.455 17.1878C15.694 17.1844 15.923 17.0864 16.091 16.9151C16.26 16.7448 16.355 16.5144 16.355 16.2742C16.355 16.034 16.26 15.8036 16.091 15.6333ZM4.54498 4.46059C4.78598 4.46059 5.01698 4.55637 5.18798 4.72686C5.35798 4.89734 5.45398 5.12857 5.45398 5.36968C5.45398 5.61079 5.35798 5.84202 5.18798 6.0125C5.01698 6.18299 4.78598 6.27877 4.54498 6.27877C4.30598 6.27777 4.07797 6.18308 3.90897 6.01513C3.73897 5.84481 3.64398 5.61439 3.64398 5.37423C3.64398 5.13406 3.73897 4.90365 3.90897 4.73332C4.07597 4.56203 4.30498 4.46401 4.54498 4.46059ZM5.18798 15.6359C5.01698 15.4654 4.78598 15.3697 4.54498 15.3697C4.30598 15.3707 4.07797 15.4653 3.90897 15.6333C3.73897 15.8036 3.64398 16.034 3.64398 16.2742C3.64398 16.5144 3.73897 16.7448 3.90897 16.9151C4.07597 17.0864 4.30498 17.1844 4.54498 17.1878C4.78598 17.1878 5.01698 17.0921 5.18798 16.9216C5.35798 16.7511 5.45398 16.5198 5.45398 16.2787C5.45398 16.0376 5.35798 15.8064 5.18798 15.6359ZM15.455 4.46059C15.694 4.46401 15.923 4.56203 16.091 4.73332C16.26 4.90365 16.355 5.13406 16.355 5.37423C16.355 5.61439 16.26 5.8448 16.091 6.01513C15.922 6.18308 15.693 6.27777 15.455 6.27877C15.213 6.27877 14.982 6.18299 14.812 6.0125C14.641 5.84202 14.545 5.61079 14.545 5.36968C14.545 5.12857 14.641 4.89734 14.812 4.72686C14.982 4.55637 15.213 4.46059 15.455 4.46059ZM11.264 8.93452C10.891 8.68479 10.451 8.5515 10.002 8.5515C9.39898 8.5515 8.82097 8.79094 8.39497 9.21712C7.96897 9.64342 7.72897 10.2214 7.72897 10.8242C7.72897 11.2737 7.86198 11.7131 8.11198 12.0869C8.36198 12.4606 8.71698 12.7519 9.13198 12.9239C9.54698 13.0959 10.004 13.141 10.445 13.0533C10.886 12.9656 11.291 12.7491 11.609 12.4313C11.927 12.1134 12.143 11.7085 12.231 11.2676C12.319 10.8267 12.274 10.3698 12.102 9.95452C11.929 9.53922 11.638 9.18422 11.264 8.93452Z" fill="#829AAC"/>
</svg>
