<svg width="20" height="21" viewBox="0 0 20 21" fill="none" xmlns="http://www.w3.org/2000/svg">
<path fill-rule="evenodd" clip-rule="evenodd" d="M10 0.824219C9.551 0.824219 9.111 0.957518 8.737 1.20722C8.364 1.45702 8.072 1.81192 7.9 2.22722C7.728 2.64252 7.683 3.09942 7.771 3.54032C7.859 3.98122 8.075 4.38612 8.393 4.70402C8.653 4.96362 8.97 5.15562 9.318 5.26502V7.25232C8.842 7.34322 8.387 7.52882 7.98 7.80072C7.947 7.82242 7.915 7.84472 7.883 7.86742L6.515 6.49362C6.712 6.15192 6.818 5.76172 6.818 5.36062C6.818 4.75782 6.578 4.17972 6.152 3.75352C5.726 3.32732 5.148 3.08782 4.545 3.08782V3.09692C4.247 3.09682 3.952 3.15622 3.677 3.27172C3.402 3.38732 3.153 3.55652 2.945 3.76962C2.734 3.98002 2.566 4.23002 2.451 4.50542C2.337 4.78072 2.278 5.07602 2.278 5.37422C2.278 5.67242 2.337 5.96762 2.451 6.24302C2.566 6.51842 2.734 6.76842 2.945 6.97872C3.155 7.18902 3.404 7.35522 3.679 7.46762C3.954 7.58002 4.248 7.63632 4.545 7.63332C4.882 7.63332 5.212 7.55842 5.511 7.41782L6.943 8.85542C6.825 9.03762 6.724 9.23062 6.64 9.43262C6.529 9.70272 6.45 9.98382 6.406 10.2697H4.477C4.45 10.1624 4.415 10.0571 4.372 9.95452C4.258 9.67872 4.091 9.42822 3.88 9.21712C3.669 9.00612 3.418 8.83872 3.142 8.72452C2.867 8.61032 2.571 8.55152 2.273 8.55152C1.8232 8.55152 1.3838 8.68482 1.0101 8.93452C0.636301 9.18422 0.344997 9.53922 0.172997 9.95452C0.0581965 10.2315 0 10.5272 0 10.8242C0 10.9724 0.0145012 11.1209 0.0437012 11.2676C0.131401 11.7085 0.347803 12.1134 0.665703 12.4313C0.983503 12.7491 1.3885 12.9656 1.8293 13.0533C2.27 13.141 2.727 13.0959 3.142 12.9239C3.558 12.7519 3.913 12.4606 4.162 12.0869C4.258 11.9442 4.336 11.792 4.397 11.6333H6.455C6.563 12.1061 6.764 12.5509 7.044 12.9425L5.672 14.3144C5.332 14.12 4.944 14.0151 4.545 14.0151V14.006C4.247 14.0042 3.953 14.0619 3.678 14.1759C3.403 14.2899 3.154 14.4578 2.945 14.6696C2.734 14.88 2.566 15.13 2.451 15.4054C2.337 15.6807 2.278 15.976 2.278 16.2742C2.278 16.5724 2.337 16.8677 2.451 17.143C2.566 17.4184 2.734 17.6684 2.945 17.8787C3.153 18.0935 3.401 18.2645 3.676 18.3816C3.951 18.4987 4.246 18.5595 4.545 18.5606C5.148 18.5606 5.726 18.3211 6.152 17.8949C6.578 17.4687 6.818 16.8906 6.818 16.2878C6.818 15.9484 6.742 15.6169 6.599 15.3159L8.033 13.8825C8.415 14.1281 8.841 14.3012 9.291 14.3907L9.318 14.3961V16.3834C9.113 16.4478 8.918 16.5412 8.737 16.6618C8.364 16.9115 8.072 17.2664 7.9 17.6817C7.728 18.097 7.683 18.554 7.771 18.9949C7.859 19.4357 8.075 19.8407 8.393 20.1585C8.711 20.4764 9.116 20.6928 9.557 20.7805C9.997 20.8682 10.454 20.8232 10.87 20.6512C11.285 20.4792 11.64 20.1879 11.89 19.8141C12.139 19.4404 12.273 19.001 12.273 18.5515C12.274 18.2527 12.216 17.9566 12.102 17.6803C11.988 17.404 11.821 17.153 11.61 16.9417C11.398 16.7304 11.147 16.5631 10.871 16.4493C10.809 16.4237 10.746 16.4009 10.682 16.381V14.3961C10.924 14.3499 11.162 14.279 11.392 14.1838C11.593 14.1005 11.785 13.9998 11.966 13.8833L13.397 15.3141C13.257 15.6131 13.182 15.9421 13.182 16.2788C13.182 16.8815 13.421 17.4596 13.847 17.8858C14.274 18.312 14.852 18.5515 15.455 18.5515C15.753 18.5516 16.048 18.4922 16.322 18.3767C16.597 18.2611 16.846 18.0919 17.055 17.8788C17.266 17.6684 17.434 17.4184 17.548 17.143C17.663 16.8677 17.721 16.5724 17.721 16.2742C17.721 15.976 17.663 15.6807 17.548 15.4054C17.434 15.13 17.266 14.88 17.055 14.6697C16.845 14.4594 16.595 14.2932 16.321 14.1808C16.046 14.0684 15.751 14.0121 15.455 14.0151V14.006C15.053 14.006 14.662 14.1123 14.32 14.3092L12.955 12.9437C12.978 12.911 13.001 12.878 13.024 12.8445C13.271 12.474 13.447 12.0633 13.545 11.6333H15.603C15.717 11.9314 15.893 12.2037 16.12 12.4313C16.438 12.7491 16.843 12.9656 17.284 13.0533C17.725 13.1409 18.182 13.0959 18.597 12.9239C19.012 12.7519 19.367 12.4606 19.617 12.0869C19.867 11.7131 20 11.2737 20 10.8242C20.001 10.5254 19.943 10.2293 19.829 9.95302C19.716 9.67682 19.548 9.42572 19.337 9.21452C19.126 9.00322 18.875 8.83582 18.598 8.72202C18.322 8.60822 18.026 8.55032 17.727 8.55152C17.278 8.55152 16.838 8.68482 16.465 8.93452C16.091 9.18422 15.8 9.53922 15.628 9.95452C15.585 10.0573 15.55 10.1626 15.523 10.2697H13.594C13.516 9.76532 13.333 9.28362 13.058 8.85582L14.483 7.42432C14.784 7.56662 15.115 7.64242 15.455 7.64242C15.752 7.64422 16.047 7.58652 16.322 7.47252C16.597 7.35852 16.846 7.19062 17.055 6.97872C17.266 6.76842 17.434 6.51842 17.548 6.24302C17.663 5.96762 17.721 5.67242 17.721 5.37422C17.721 5.07602 17.663 4.78072 17.548 4.50542C17.434 4.23002 17.266 3.98002 17.055 3.76962C16.847 3.55492 16.598 3.38392 16.324 3.26682C16.049 3.14972 15.753 3.08892 15.455 3.08782V3.09692C14.852 3.09692 14.274 3.33642 13.847 3.76262C13.421 4.18882 13.182 4.76692 13.182 5.36962C13.182 5.76882 13.287 6.15712 13.481 6.49762L12.117 7.86772C11.689 7.56092 11.199 7.35102 10.682 7.25232V5.26502C10.745 5.24502 10.808 5.22222 10.87 5.19672C11.285 5.02462 11.64 4.73332 11.89 4.35962C12.139 3.98582 12.273 3.54642 12.273 3.09692C12.273 2.49422 12.033 1.91612 11.607 1.48992C11.181 1.06362 10.603 0.824219 10 0.824219ZM11.263 8.93452C10.889 8.68482 10.45 8.55152 10 8.55152C9.397 8.55152 8.819 8.79092 8.393 9.21712C7.967 9.64342 7.727 10.2214 7.727 10.8242C7.727 11.2737 7.861 11.7131 8.11 12.0869C8.36 12.4606 8.715 12.7519 9.13 12.9239C9.546 13.0959 10.003 13.141 10.443 13.0533C10.884 12.9656 11.289 12.7491 11.607 12.4313C11.925 12.1134 12.141 11.7085 12.229 11.2676C12.317 10.8267 12.272 10.3698 12.1 9.95452C11.928 9.53922 11.636 9.18422 11.263 8.93452Z" fill="#23B5E9"/>
</svg>
