<svg width="20" height="21" viewBox="0 0 20 21" fill="none" xmlns="http://www.w3.org/2000/svg">
<path fill-rule="evenodd" clip-rule="evenodd" d="M0 10.8242C0 16.3342 4.49 20.8242 10 20.8242C15.51 20.8242 20 16.3342 20 10.8242C20 5.31422 15.51 0.824219 10 0.824219C4.49 0.824219 0 5.31422 0 10.8242ZM1.5 10.8242C1.5 6.13422 5.32 2.32422 10 2.32422C14.68 2.32422 18.5 6.13422 18.5 10.8242C18.5 15.5142 14.69 19.3242 10 19.3242C5.31 19.3242 1.5 15.5142 1.5 10.8242ZM13.37 13.3473C13.47 13.3973 13.59 13.4273 13.7 13.4273C13.97 13.4273 14.24 13.2673 14.37 13.0073C14.55 12.6373 14.4 12.1873 14.03 11.9973L10.75 10.3573V5.27734C10.75 4.86734 10.41 4.52734 10 4.52734C9.59 4.52734 9.25 4.86734 9.25 5.27734V10.8273C9.25 11.1073 9.41 11.3673 9.67 11.4973L13.37 13.3473Z" fill="#829AAC"/>
</svg>
