<svg width="20" height="21" viewBox="0 0 20 21" fill="none" xmlns="http://www.w3.org/2000/svg">
<path d="M10 0.824219C4.49 0.824219 0 5.30422 0 10.8242C0 16.3442 4.49 20.8242 10 20.8242C15.51 20.8242 20 16.3342 20 10.8242C20 5.31422 15.52 0.824219 10 0.824219ZM14.37 13.0042C14.24 13.2742 13.98 13.4242 13.7 13.4242C13.59 13.4242 13.47 13.3942 13.37 13.3442L9.67 11.4942C9.41 11.3642 9.25 11.1042 9.25 10.8242V5.27422C9.25 4.85422 9.59 4.52422 10 4.52422C10.41 4.52422 10.75 4.85422 10.75 5.27422V10.3542L14.04 12.0042C14.41 12.1842 14.56 12.6342 14.37 13.0042Z" fill="#23B5E9"/>
</svg>
