<svg width="20" height="21" viewBox="0 0 20 21" fill="none" xmlns="http://www.w3.org/2000/svg">
<path id="Vector" fill-rule="evenodd" clip-rule="evenodd" d="M14.7818 2.18786C15.8041 2.18786 16.7845 2.59396 17.5074 3.31683C18.2303 4.03969 18.6364 5.02011 18.6364 6.0424V15.606C18.6364 16.6283 18.2303 17.6087 17.5074 18.3316C16.7845 19.0545 15.8041 19.4606 14.7818 19.4606H5.2182C4.1959 19.4606 3.2155 19.0545 2.4926 18.3316C1.7697 17.6087 1.3636 16.6283 1.3636 15.606V6.0424C1.3636 5.02011 1.7697 4.03969 2.4926 3.31683C3.2155 2.59396 4.1959 2.18786 5.2182 2.18786H14.7818ZM14.7818 0.824219H5.2182C3.8342 0.824219 2.507 1.37399 1.5284 2.35259C0.549797 3.33119 0 4.65845 0 6.0424V15.606C0 16.99 0.549797 18.3172 1.5284 19.2958C2.507 20.2744 3.8342 20.8242 5.2182 20.8242H14.7818C16.1658 20.8242 17.493 20.2744 18.4716 19.2958C19.4502 18.3172 20 16.99 20 15.606V6.0424C20 4.65845 19.4502 3.33119 18.4716 2.35259C17.493 1.37399 16.1658 0.824219 14.7818 0.824219ZM14.7727 13.7151H5.2273C4.8507 13.7151 4.5455 14.0203 4.5455 14.3969C4.5455 14.7735 4.8507 15.0787 5.2273 15.0787H14.7727C15.1493 15.0787 15.4545 14.7735 15.4545 14.3969C15.4545 14.0203 15.1493 13.7151 14.7727 13.7151ZM5.2273 16.4333H12.0455C12.422 16.4333 12.7273 16.7385 12.7273 17.1151C12.7273 17.4917 12.422 17.7969 12.0455 17.7969H5.2273C4.8507 17.7969 4.5455 17.4917 4.5455 17.1151C4.5455 16.7385 4.8507 16.4333 5.2273 16.4333ZM9.6097 11.4515C8.8581 11.4515 8.1234 11.2286 7.4985 10.8111C6.8736 10.3935 6.3865 9.80012 6.0989 9.10572C5.8113 8.41136 5.7361 7.64731 5.8827 6.91018C6.0293 6.17305 6.3912 5.49596 6.9227 4.96452C7.4541 4.43308 8.1312 4.07116 8.8683 3.92454C9.6054 3.77792 10.3695 3.85317 11.0639 4.14078C11.7582 4.42839 12.3517 4.91545 12.7692 5.54036C13.1868 6.16526 13.4097 6.89996 13.4097 7.65152C13.4097 8.42905 13.1714 9.18202 12.7352 9.81282L13.9831 11.0606C14.0474 11.1233 14.0985 11.1982 14.1334 11.2809C14.1683 11.3637 14.1863 11.4526 14.1863 11.5424C14.1863 11.6322 14.1683 11.7211 14.1334 11.8039C14.0985 11.8866 14.0474 11.9615 13.9831 12.0242C13.9211 12.0893 13.8462 12.1406 13.7633 12.1751C13.6803 12.2095 13.591 12.2262 13.5012 12.2242C13.4117 12.2246 13.3229 12.2072 13.2402 12.1728C13.1574 12.1385 13.0824 12.088 13.0194 12.0242L11.7717 10.7765C11.1408 11.213 10.3875 11.4515 9.6097 11.4515ZM11.2015 9.49592C11.0058 9.66482 10.7834 9.80242 10.542 9.90242C10.0968 10.0868 9.607 10.1351 9.1343 10.0411C8.6617 9.94702 8.2276 9.71502 7.8869 9.37432C7.5462 9.03352 7.3141 8.59944 7.2201 8.12683C7.1261 7.65423 7.1744 7.16436 7.3588 6.71917C7.5432 6.27398 7.8554 5.89347 8.2561 5.62576C8.6567 5.35805 9.1278 5.21516 9.6097 5.21516C10.2558 5.21516 10.8755 5.47185 11.3324 5.92875C11.7893 6.38566 12.046 7.00536 12.046 7.65152C12.046 8.13339 11.9031 8.60444 11.6354 9.00512C11.5799 9.08822 11.5194 9.16762 11.4546 9.24282C11.4023 9.27272 11.354 9.30952 11.3112 9.35242C11.2683 9.39522 11.2315 9.44352 11.2015 9.49592Z" fill="#829AAC"/>
</svg>
