<svg width="20" height="21" viewBox="0 0 20 21" fill="none" xmlns="http://www.w3.org/2000/svg">
<path id="Vector" fill-rule="evenodd" clip-rule="evenodd" d="M5.2182 0.824219C3.8342 0.824219 2.507 1.37402 1.5284 2.35262C0.549797 3.33122 0 4.65842 0 6.04242V15.606C0 16.99 0.549797 18.3172 1.5284 19.2958C2.507 20.2744 3.8342 20.8242 5.2182 20.8242H14.7818C16.1658 20.8242 17.493 20.2744 18.4716 19.2958C19.4502 18.3172 20 16.99 20 15.606V6.04242C20 4.65842 19.4502 3.33122 18.4716 2.35262C17.493 1.37402 16.1658 0.824219 14.7818 0.824219H5.2182ZM7.4981 10.8111C8.123 11.2286 8.8577 11.4515 9.6093 11.4515C10.3867 11.4515 11.1396 11.2133 11.7703 10.7772L13.0173 12.0242C13.0802 12.088 13.1553 12.1385 13.238 12.1728C13.3208 12.2072 13.4095 12.2246 13.4991 12.2242C13.5889 12.2262 13.6782 12.2095 13.7611 12.1751C13.8441 12.1406 13.919 12.0892 13.9809 12.0242C14.0453 11.9615 14.0964 11.8866 14.1313 11.8039C14.1662 11.7211 14.1842 11.6322 14.1842 11.5424C14.1842 11.4526 14.1662 11.3637 14.1313 11.2809C14.0964 11.1982 14.0453 11.1233 13.9809 11.0606L12.7341 9.81382C13.1707 9.18282 13.4093 8.42952 13.4093 7.65152C13.4093 6.89992 13.1864 6.16522 12.7689 5.54032C12.3513 4.91542 11.7579 4.42842 11.0635 4.14072C10.3691 3.85312 9.6051 3.77792 8.868 3.92452C8.1308 4.07112 7.4537 4.43302 6.9223 4.96452C6.3909 5.49592 6.0289 6.17302 5.8823 6.91012C5.7357 7.64732 5.811 8.41132 6.0986 9.10572C6.3862 9.80002 6.8732 10.3935 7.4981 10.8111ZM11.4559 9.24082C11.5201 9.16622 11.58 9.08752 11.6351 9.00512C11.9028 8.60442 12.0457 8.13342 12.0457 7.65152C12.0457 7.00532 11.789 6.38562 11.3321 5.92872C10.8752 5.47182 10.2555 5.21512 9.6093 5.21512C9.1274 5.21512 8.6564 5.35802 8.2557 5.62572C7.8551 5.89342 7.5428 6.27392 7.3584 6.71912C7.174 7.16432 7.1257 7.65422 7.2198 8.12682C7.3138 8.59942 7.5458 9.03352 7.8865 9.37432C8.2273 9.71502 8.6614 9.94702 9.134 10.041C9.6066 10.135 10.0965 10.0868 10.5417 9.90242C10.7816 9.80302 11.0028 9.66642 11.1977 9.49892C11.2279 9.44542 11.2654 9.39602 11.3091 9.35242C11.3528 9.30862 11.4023 9.27112 11.4559 9.24082ZM5.2278 13.7151H14.7733C15.1498 13.7151 15.4551 14.0204 15.4551 14.3969C15.4551 14.7735 15.1498 15.0787 14.7733 15.0787H5.2278C4.8512 15.0787 4.546 14.7735 4.546 14.3969C4.546 14.0204 4.8512 13.7151 5.2278 13.7151ZM5.2278 16.4333H12.046C12.4225 16.4333 12.7278 16.7385 12.7278 17.1151C12.7278 17.4916 12.4225 17.7969 12.046 17.7969H5.2278C4.8512 17.7969 4.546 17.4916 4.546 17.1151C4.546 16.7385 4.8512 16.4333 5.2278 16.4333Z" fill="#23B5E9"/>
</svg>
