<svg width="161" height="34" viewBox="0 0 161 34" fill="none" xmlns="http://www.w3.org/2000/svg">
<g clip-path="url(#clip0_353_31539)">
<path d="M67.8497 21.7528C67.9034 22.8479 67.425 23.8903 66.5219 24.5642C65.6188 25.296 64.4469 25.6593 63.275 25.6067C62.2107 25.6067 61.1463 25.296 60.2969 24.6169C59.3938 23.9377 58.7541 23.0005 58.4907 21.9581L60.1948 21.2789C60.3077 21.6633 60.469 22.0265 60.6732 22.374C60.8882 22.6847 61.0979 22.9479 61.4204 23.2059C61.6838 23.4165 62.0064 23.6218 62.3235 23.7271C62.6407 23.885 63.017 23.9377 63.3879 23.9377C64.0814 23.9903 64.7695 23.7271 65.3554 23.3112C65.8338 22.9479 66.1026 22.3214 66.1026 21.6949C66.1026 21.1736 65.8876 20.5998 65.4629 20.2365C64.8232 19.7153 64.0276 19.352 63.2266 19.0888C62.1085 18.7255 61.4688 18.4096 61.1517 18.3096C59.7164 17.5777 58.9692 16.5406 58.9692 15.0769C58.9692 14.0871 59.3938 13.15 60.1948 12.5235C61.0441 11.8443 62.1085 11.4284 63.1729 11.481C64.1297 11.481 65.0866 11.739 65.8876 12.2602C66.6348 12.7288 67.1616 13.408 67.4304 14.1872L65.7801 14.8663C65.6188 14.3451 65.3016 13.9292 64.877 13.6186C63.8663 12.9394 62.4848 12.9394 61.4742 13.6712C61.0441 13.9924 60.7861 14.4925 60.7807 15.0243C60.7807 15.4929 60.942 15.9088 61.3129 16.2247C62.13 16.7564 63.0278 17.1618 63.9739 17.4251C65.1027 17.7357 66.1295 18.3306 66.952 19.1467C67.5379 19.9785 67.8551 20.8683 67.8551 21.7528H67.8497Z" fill="#EDEDED"/>
<path d="M69.6538 16.1783H71.3579V17.426H71.4116C71.7288 16.9575 72.1588 16.5415 72.6373 16.2783C73.1695 15.9677 73.7554 15.8097 74.3951 15.8097C75.4057 15.7571 76.3626 16.1203 77.056 16.7995C77.6957 17.5787 78.0667 18.5685 78.0129 19.5583V25.3391H76.2551V19.6583C76.2013 18.1473 75.4595 17.4155 73.9167 17.4155C73.234 17.4155 72.5835 17.7261 72.1588 18.2473C71.6804 18.8212 71.4116 19.4951 71.4654 20.2269V25.3338H69.7076V16.1625H69.6538V16.1783Z" fill="#EDEDED"/>
<path d="M83.4871 15.8683C84.6052 15.8156 85.7233 16.1789 86.5727 16.9107C87.3199 17.6425 87.7445 18.6797 87.6908 19.7222V25.4029H85.9867V24.1025H85.933C85.2933 25.0923 84.2289 25.6662 83.0086 25.6662C82.0518 25.7188 81.1487 25.3556 80.4014 24.7817C79.7295 24.2236 79.3425 23.4023 79.3371 22.5389C79.2833 21.6544 79.708 20.8173 80.4552 20.2487C81.3046 19.6748 82.3152 19.3642 83.3795 19.4168C84.2826 19.3642 85.1858 19.5748 85.9867 19.9907V19.5748C85.9867 19.0009 85.7233 18.427 85.2395 18.0637C84.7611 17.6478 84.1751 17.4372 83.5354 17.4372C82.5786 17.4372 81.7292 17.8531 81.197 18.6376L79.6542 17.7005C80.5573 16.5001 81.9926 15.7735 83.4817 15.8788L83.4871 15.8683ZM81.2508 22.5389C81.2508 23.0074 81.4658 23.4234 81.8367 23.6866C82.2077 23.9972 82.6861 24.1552 83.2183 24.1552C83.9655 24.1552 84.6536 23.8446 85.1857 23.376C85.7287 22.8969 86.0351 22.2177 86.0351 21.5017C85.3685 21.0436 84.5622 20.8225 83.7451 20.8752C83.1054 20.8752 82.4711 21.0331 81.9389 21.3964C81.5142 21.607 81.2454 22.0756 81.2454 22.5441L81.2508 22.5389Z" fill="#EDEDED"/>
<path d="M94.6028 25.6577C93.9631 25.6577 93.3288 25.4997 92.7428 25.2418C92.2053 24.9785 91.7483 24.5837 91.4151 24.094H91.3613L91.4151 25.3944V29.4589H89.6572V16.2283H91.3613V17.4761H91.4151C91.7537 16.9917 92.2106 16.5969 92.7428 16.3284C94.4469 15.4965 96.5219 15.9124 97.7422 17.3181C98.5915 18.2553 99.0699 19.5083 99.0699 20.8087C99.1237 22.1092 98.6453 23.3096 97.7422 24.2993C96.9949 25.1312 95.8284 25.6524 94.6028 25.6524V25.6577ZM94.3394 24.094C95.135 24.094 95.936 23.7834 96.4681 23.1569C97.0541 22.4777 97.3712 21.6459 97.3175 20.7614C97.3712 19.8769 97.0541 19.0398 96.4681 18.3659C95.4038 17.2181 93.5976 17.1181 92.4257 18.1553C92.3719 18.2079 92.2644 18.3132 92.2106 18.3659C91.6247 19.045 91.3613 19.8769 91.3613 20.7614C91.3075 21.6459 91.6247 22.483 92.2106 23.1569C92.7428 23.7834 93.4847 24.094 94.3394 24.094Z" fill="#EDEDED"/>
<path d="M105.345 25.6577C104.705 25.6577 104.017 25.4997 103.431 25.2418C102.893 24.9785 102.436 24.5837 102.103 24.094H102.049L102.103 25.3944V29.4589H100.345V16.2283H102.049V17.4761H102.103C102.442 16.9917 102.899 16.5969 103.431 16.3284C105.135 15.4965 107.21 15.9124 108.43 17.3181C109.279 18.2553 109.758 19.5083 109.758 20.8087C109.812 22.1092 109.333 23.3096 108.43 24.2993C107.737 25.1312 106.57 25.6524 105.345 25.6524V25.6577ZM105.081 24.094C105.877 24.094 106.678 23.7834 107.21 23.1569C107.796 22.4777 108.113 21.6459 108.059 20.7614C108.113 19.8769 107.796 19.0398 107.21 18.3659C106.678 17.7393 105.882 17.4287 105.081 17.4287C104.28 17.4287 103.485 17.7393 102.952 18.3659C102.366 19.045 102.103 19.8769 102.103 20.7614C102.049 21.6459 102.366 22.483 102.952 23.1569C103.485 23.7834 104.28 24.094 105.081 24.094Z" fill="#EDEDED"/>
<path d="M119.447 16.1771L113.593 29.4077H111.787L113.969 24.7694L110.034 16.1719H111.948L114.765 22.7898H114.818L117.533 16.1719H119.447V16.1771Z" fill="#EDEDED"/>
<path d="M120.883 11.9076H129.607V14.3031H123.49V17.5831H128.968V19.9786H123.49V25.3435H120.883V11.9023V11.9076Z" fill="#28B4E9"/>
<path d="M131.253 25.3474V11.9062H133.753V25.3474H131.253Z" fill="#28B4E9"/>
<path d="M140.247 15.8672C140.94 15.8672 141.628 15.9725 142.268 16.2305C142.854 16.4411 143.386 16.8043 143.865 17.2203C144.289 17.6888 144.66 18.21 144.875 18.7839C145.354 20.0317 145.354 21.4427 144.875 22.7431C144.66 23.317 144.289 23.8382 143.865 24.3068C143.44 24.7227 142.908 25.086 142.268 25.2965C140.983 25.7651 139.564 25.7651 138.279 25.2965C137.097 24.8174 136.161 23.9014 135.672 22.7431C135.194 21.4953 135.194 20.0843 135.672 18.7839C136.151 17.6362 137.054 16.699 138.279 16.2305C138.919 16.0199 139.553 15.8672 140.247 15.8672ZM140.247 23.3696C140.575 23.3696 140.897 23.317 141.204 23.2117C141.844 22.9537 142.322 22.4798 142.532 21.8586C142.795 21.1268 142.795 20.3476 142.532 19.6684C142.317 19.0419 141.784 18.5733 141.204 18.3153C140.586 18.1048 139.908 18.1048 139.29 18.3153C138.973 18.4206 138.704 18.626 138.495 18.8366C138.279 19.0945 138.07 19.3578 137.962 19.6684C137.699 20.4002 137.699 21.1794 137.962 21.8586C138.07 22.1692 138.279 22.4325 138.495 22.6904C138.71 22.901 138.973 23.1064 139.29 23.2117C139.607 23.317 139.93 23.4223 140.247 23.3696Z" fill="#28B4E9"/>
<path d="M145.673 16.1797H148.49L150.032 21.9131H150.194L152.054 16.1797H154.661L156.521 21.9131H156.682L158.225 16.1797H160.993L157.962 25.3511H155.301L153.441 19.5703H153.279L151.419 25.3511H148.758L145.673 16.1797Z" fill="#28B4E9"/>
<path d="M55.5557 21.4606C55.5557 21.8396 55.2439 22.1397 54.8623 22.1397C54.787 22.1397 54.7225 22.1292 54.658 22.1082C54.6365 22.1029 54.6203 22.0976 54.5988 22.0871C54.5827 22.0818 54.572 22.0766 54.5558 22.066C54.5558 22.066 54.5505 22.066 54.5451 22.066C54.2817 21.9607 54.0129 21.8607 53.7441 21.7659C53.2926 21.608 52.8303 21.4606 52.3626 21.3342C50.6961 20.8762 48.9491 20.6235 47.1429 20.6024C47.0515 20.6024 46.9655 20.6024 46.8741 20.6024C43.4713 20.6024 40.2674 21.4185 37.4506 22.8663C37.4345 22.8768 37.4184 22.8821 37.3969 22.8926C35.5476 23.8666 33.435 24.4194 31.188 24.4194C30.4569 24.4194 29.7366 24.3615 29.0324 24.2457C28.6131 24.1772 28.1992 24.093 27.796 23.9877C27.2101 23.835 26.6402 23.6455 26.0865 23.4191C26.0758 23.4191 26.0704 23.4138 26.0597 23.4086C24.9308 25.6567 22.9042 27.452 20.3239 28.268C20.2594 28.2891 20.1949 28.3102 20.1304 28.326C19.9153 28.3891 19.6949 28.447 19.4692 28.4944C17.9102 28.8366 16.3567 28.7893 14.9106 28.426C14.8838 28.4155 14.8623 28.4102 14.8407 28.4049C14.8139 28.3997 14.7816 28.3891 14.7547 28.3891C14.5935 28.3523 14.4268 28.3365 14.2602 28.3365C13.3625 28.3365 12.5776 28.8209 12.1744 29.5421C12.1476 29.6 12.1153 29.658 12.0831 29.7159C12.0831 29.7159 12.0831 29.7159 12.0831 29.7211C11.8143 30.2371 11.4864 30.7162 11.1154 31.1584C10.5994 31.7639 9.99731 32.2904 9.31998 32.7168L9.19097 32.7958C7.97608 33.5329 6.54079 33.9593 5.00336 33.9593C4.19702 33.9593 3.41218 33.8435 2.68109 33.6224C2.18653 33.475 1.71348 33.2802 1.2673 33.0485C1.11679 32.9696 1.01465 32.8116 1.01465 32.6326C1.01465 32.4536 1.11679 32.2957 1.2673 32.2167C1.28343 32.2114 1.29956 32.2009 1.31031 32.1956C1.67047 32.0271 2.02527 31.8481 2.37468 31.6586C2.42844 31.627 2.48219 31.6007 2.53595 31.5691C4.23465 30.6162 5.76132 29.4052 7.06222 27.989C7.9707 26.9939 8.77167 25.8989 9.43287 24.7248C9.8898 23.9193 10.2822 23.0769 10.6048 22.2029C10.6209 22.1555 10.6424 22.1082 10.6585 22.0608C10.7445 21.7554 10.8467 21.4606 10.9542 21.1657C10.9703 21.1289 10.9811 21.092 10.9972 21.0552C11.1047 20.7656 11.223 20.4813 11.352 20.2023C12.0992 18.5649 13.1582 17.096 14.4537 15.8693C14.4645 15.8588 14.4698 15.8535 14.4806 15.843C14.4913 15.8377 14.4967 15.8272 14.5021 15.8219C14.7225 15.6061 14.8569 15.3112 14.8569 14.9795C14.8569 14.8848 14.8461 14.79 14.8246 14.7005C14.7494 14.3846 14.5397 14.1214 14.2656 13.9582C14.2494 13.9476 14.2333 13.9424 14.2172 13.9318C13.3409 13.4159 12.7496 12.4787 12.7496 11.4047C12.7496 11.1888 12.7711 10.9782 12.8195 10.7782C13.0023 9.96213 13.5291 9.26717 14.2494 8.86177C14.5988 9.22505 14.9751 9.56727 15.3676 9.88316C15.7761 10.2148 16.2062 10.5255 16.6523 10.8045C17.0985 11.0835 17.5662 11.3415 18.05 11.5626C18.2704 11.6627 18.4908 11.7627 18.7166 11.8522C19.2971 12.0891 19.9046 12.2787 20.5282 12.4261C21.356 12.6261 22.2107 12.742 23.0923 12.7736C23.2536 12.7788 23.4202 12.7841 23.5869 12.7841C23.8933 12.7841 24.1943 12.7736 24.4954 12.7525C24.6459 12.742 24.7964 12.7314 24.9469 12.7157C25.8124 12.6261 26.651 12.4524 27.4627 12.205C29.742 11.5047 31.7471 10.199 33.2845 8.47744C33.3813 8.36688 33.478 8.25632 33.5748 8.14049C34.2091 7.38235 34.7521 6.5505 35.1929 5.66074C35.1929 5.65021 35.2036 5.64495 35.2036 5.63442H35.1982C35.1122 5.67654 35.0262 5.71339 34.9456 5.75551C34.8972 5.77657 34.8542 5.79763 34.8058 5.81869C34.7198 5.85554 34.6392 5.8924 34.5532 5.92925C34.4618 5.97137 34.3704 6.00822 34.279 6.04508C34.2414 6.06087 34.2037 6.07666 34.1661 6.09246C34.1016 6.11878 34.0425 6.14511 33.978 6.16617C33.9672 6.16617 33.9618 6.17143 33.9565 6.1767C33.9135 6.19249 33.8758 6.20829 33.8328 6.22408C33.8221 6.22408 33.8167 6.22935 33.8059 6.23461C33.6447 6.29252 33.4888 6.3557 33.3275 6.40835C33.3114 6.41362 33.2953 6.41888 33.2791 6.42415C33.2308 6.43994 33.1824 6.45574 33.134 6.47153C33.0372 6.50312 32.9405 6.53471 32.8437 6.5663C32.7362 6.60315 32.6233 6.63474 32.5104 6.66633C32.4029 6.69792 32.2954 6.72951 32.1933 6.75583C32.118 6.77689 32.0427 6.79795 31.9729 6.81901C31.946 6.82428 31.9245 6.82954 31.903 6.8348C31.8868 6.8348 31.8707 6.84007 31.8546 6.84533C31.774 6.86639 31.6879 6.88745 31.6019 6.90851C31.5643 6.91904 31.5321 6.92431 31.4944 6.93484C31.403 6.9559 31.317 6.97696 31.2256 6.99802H31.2149C31.1396 7.01381 31.0644 7.0296 30.9891 7.0454C30.9354 7.05593 30.8762 7.07172 30.8171 7.08225C30.7311 7.09805 30.6505 7.11384 30.5644 7.12964C30.5483 7.12964 30.5268 7.1349 30.5107 7.14017C30.4193 7.15596 30.3225 7.17176 30.2258 7.18755C30.1183 7.20334 30.0161 7.21914 29.9086 7.23493C29.8979 7.23493 29.8871 7.23493 29.8764 7.2402C29.7796 7.25599 29.6828 7.26652 29.5915 7.28232C29.5753 7.28232 29.5592 7.28232 29.5485 7.28758C29.4409 7.30338 29.3281 7.31391 29.2205 7.32444C29.1238 7.33497 29.0216 7.3455 28.9195 7.35603C28.8496 7.36129 28.7797 7.37182 28.7099 7.37182C28.64 7.37709 28.5647 7.38235 28.4948 7.38761C28.4411 7.38761 28.3873 7.39288 28.3336 7.39814C28.3013 7.39814 28.2691 7.39814 28.2368 7.40341C28.1884 7.40341 28.14 7.40867 28.0917 7.40867C28.0325 7.40867 27.968 7.41394 27.9089 7.4192C27.8551 7.4192 27.8067 7.4192 27.753 7.4192C27.6939 7.4192 27.6347 7.4192 27.5702 7.4192C27.5218 7.4192 27.4681 7.4192 27.4197 7.4192C27.3283 7.4192 27.2369 7.4192 27.1509 7.4192H27.1025C27.0112 7.4192 26.9144 7.4192 26.823 7.4192C26.7693 7.4192 26.7155 7.4192 26.6671 7.4192C26.5757 7.4192 26.4843 7.4192 26.393 7.41394C26.2908 7.41394 26.1887 7.40341 26.0865 7.39814C25.9952 7.39288 25.8984 7.38761 25.807 7.38235C25.7425 7.38235 25.678 7.37182 25.6135 7.36656C25.592 7.36656 25.5759 7.36656 25.5544 7.36656C25.4952 7.36656 25.4361 7.35603 25.377 7.35076C25.2802 7.34023 25.1834 7.33497 25.0867 7.31917C24.9792 7.30864 24.8717 7.29285 24.7695 7.28232C24.7588 7.28232 24.748 7.28232 24.7373 7.28232C24.6513 7.27179 24.5652 7.26126 24.4792 7.24546C24.4524 7.24546 24.4255 7.23493 24.3986 7.23493C24.3018 7.21914 24.1997 7.20334 24.1029 7.18755C23.7535 7.12964 23.4095 7.06646 23.0708 6.98749C22.9902 6.97169 22.9042 6.95063 22.8235 6.92957C22.716 6.90325 22.6085 6.87692 22.501 6.8506C22.3935 6.82427 22.2914 6.79795 22.1838 6.76636C22.0817 6.74004 21.9796 6.70845 21.8774 6.67686C21.7914 6.65053 21.7108 6.62948 21.6248 6.60315C21.485 6.56103 21.3399 6.51365 21.2001 6.46626C21.1195 6.43994 21.0388 6.41362 20.9528 6.38203C20.8507 6.34517 20.7486 6.30832 20.6518 6.27146C20.5658 6.23988 20.4798 6.20829 20.3991 6.1767C20.383 6.17143 20.3669 6.16617 20.3561 6.1609C20.3561 6.1609 20.3561 6.1609 20.3508 6.1609C20.254 6.12405 20.1572 6.08193 20.0605 6.04508C19.9637 6.00296 19.867 5.9661 19.7648 5.92398C19.6842 5.8924 19.6089 5.85554 19.5283 5.81869C19.5068 5.80816 19.4853 5.80289 19.4692 5.79236C19.1789 5.66074 18.894 5.52385 18.6091 5.3817C18.3833 5.26588 18.1575 5.14479 17.9371 5.01843C17.792 4.93946 17.6468 4.85522 17.5071 4.76572C17.4479 4.73413 17.421 4.67621 17.4157 4.6183C17.4103 4.54986 17.4425 4.47615 17.5071 4.43929C17.5554 4.40771 17.6038 4.38138 17.6576 4.34979C17.6791 4.334 17.706 4.32347 17.7275 4.30767C17.8188 4.24976 17.9156 4.19711 18.0124 4.14446C18.0876 4.10234 18.1575 4.06022 18.2328 4.01811C18.351 3.94966 18.4693 3.88648 18.5929 3.81804C18.5929 3.81804 18.5983 3.81804 18.6037 3.81278C18.7219 3.7496 18.8402 3.68642 18.9639 3.62324C19.0391 3.58639 19.109 3.54427 19.1843 3.50741C19.2756 3.46003 19.3616 3.41265 19.453 3.37053C19.4853 3.35473 19.5229 3.33367 19.5552 3.31788C19.8024 3.19679 20.0497 3.0757 20.297 2.95987C20.3884 2.91775 20.4798 2.87563 20.5712 2.83351C20.8131 2.72295 21.055 2.61765 21.3022 2.51236C21.4044 2.47024 21.5065 2.42812 21.6087 2.386C21.8291 2.2965 22.0441 2.21226 22.2645 2.12276C22.2752 2.12276 22.286 2.11223 22.2967 2.11223C22.3881 2.07537 22.4795 2.03852 22.5763 2.00693C22.6784 1.97008 22.7859 1.92796 22.8881 1.8911C22.9472 1.87004 23.0063 1.84898 23.0601 1.82792C23.1353 1.8016 23.216 1.77001 23.2912 1.74895C23.3665 1.72263 23.4417 1.6963 23.517 1.67524C23.6245 1.63839 23.7267 1.60154 23.8342 1.56995C23.8933 1.54889 23.9578 1.52783 24.0169 1.51203C24.1298 1.47518 24.2481 1.43833 24.3664 1.40147C24.533 1.34882 24.705 1.30144 24.877 1.24879C24.9577 1.22247 25.0437 1.20141 25.1243 1.18035C25.9898 0.938164 26.8714 0.732835 27.7691 0.564359L28.011 0.52224C28.4948 0.438003 28.984 0.35903 29.4732 0.295851C29.5807 0.280057 29.6882 0.269527 29.8011 0.253733C29.8871 0.243203 29.9731 0.232673 30.0591 0.222143C30.1344 0.211614 30.2097 0.206349 30.2903 0.195819C30.3817 0.185289 30.4731 0.17476 30.5644 0.169495C30.7472 0.1537 30.93 0.137906 31.1181 0.122111C31.2095 0.116846 31.3009 0.106317 31.3977 0.101052C31.489 0.0957869 31.5804 0.090522 31.6772 0.0852572C31.8653 0.0747275 32.0481 0.0641977 32.2363 0.053668C32.3491 0.053668 32.4567 0.0431383 32.5695 0.0431383C32.6932 0.0431383 32.8168 0.0378735 32.9405 0.0326086C33.0534 0.0326086 33.1716 0.0326086 33.2899 0.0273438C33.4028 0.0273438 33.521 0.0273438 33.6393 0.0273438C34.6123 0.0273438 35.5745 0.0694626 36.526 0.158965C36.8808 0.190554 37.2302 0.227408 37.585 0.269527C37.7463 0.290587 37.9022 0.311646 38.0634 0.332705C38.0634 0.332705 38.0688 0.332705 38.0742 0.332705C38.2193 0.353765 38.3698 0.374824 38.515 0.401149C38.5526 0.406413 38.5902 0.411678 38.6279 0.416943C38.73 0.432738 38.8321 0.448532 38.9397 0.469592C39.0418 0.485386 39.1386 0.506446 39.2407 0.52224C39.2622 0.52224 39.2783 0.527505 39.2998 0.53277C39.3375 0.538035 39.3751 0.548565 39.4181 0.553829C40.0632 0.664392 40.6975 0.806543 41.3211 0.975018C41.3211 0.975018 41.3318 0.975018 41.3372 0.975018C44.4712 1.8174 47.3203 3.32314 49.7232 5.32906C49.7554 5.35538 49.7877 5.3817 49.8145 5.40803C49.8468 5.43435 49.8737 5.46594 49.9059 5.49227C49.9489 5.53438 49.9866 5.5765 50.0296 5.61862C50.1371 5.73971 50.2338 5.87134 50.3145 6.00822C50.5349 6.37676 50.6585 6.80848 50.6585 7.27179C50.6585 7.7351 50.5456 8.11943 50.3467 8.47744C50.3252 8.51429 50.3037 8.55115 50.2822 8.58274C50.1801 8.75648 50.0726 8.93022 49.9543 9.09869C48.648 11.0362 46.6376 12.4735 44.2777 13.0684C43.8369 13.179 43.3745 13.2632 42.9122 13.3106C42.5091 13.3527 42.1973 13.6844 42.1973 14.0898C42.1973 14.253 42.2457 14.4004 42.3317 14.5268C42.3424 14.5426 42.3532 14.5584 42.3639 14.5741C42.3693 14.5847 42.3801 14.5952 42.3908 14.6057C42.751 15.048 43.1703 15.4376 43.6433 15.7587C43.7992 15.864 43.9551 15.9641 44.1218 16.0536C44.8528 16.4642 45.6807 16.7222 46.5677 16.7959C46.5945 16.7959 46.6214 16.7959 46.6483 16.8012C46.6537 16.8012 46.6591 16.8012 46.6644 16.8012C47.0407 16.8328 47.4116 16.8696 47.7826 16.9223C48.1535 16.9697 48.519 17.0328 48.8846 17.1013C49.2447 17.1697 49.6049 17.2487 49.9651 17.3382C50.3199 17.4277 50.6746 17.5225 51.0241 17.633C51.3735 17.7383 51.7175 17.8542 52.0562 17.9805C52.4217 18.1121 52.7926 18.249 53.1421 18.4122C53.3141 18.4965 53.4861 18.586 53.6527 18.686C53.7871 18.7702 53.9161 18.8597 54.0398 18.9545C54.2871 19.144 54.5075 19.3599 54.7064 19.5968C54.9053 19.8337 55.0827 20.0917 55.2278 20.3602C55.3031 20.4971 55.3676 20.634 55.4213 20.7761C55.4482 20.8499 55.4804 20.9236 55.502 20.9973C55.5127 21.0341 55.5288 21.071 55.5396 21.1078C55.5503 21.1394 55.5557 21.1868 55.5718 21.2184C55.5718 21.2184 55.5718 21.2184 55.5718 21.2237C55.5772 21.25 55.588 21.2763 55.5933 21.3079C55.5987 21.35 55.6041 21.3921 55.6041 21.4343" fill="#28B4E9"/>
<path d="M43.8573 5.78769C43.8573 6.38788 43.3628 6.87225 42.75 6.87225C42.1371 6.87225 41.6426 6.38788 41.6426 5.78769C41.6426 5.18749 42.1371 4.70312 42.75 4.70312C43.3628 4.70312 43.8573 5.18749 43.8573 5.78769Z" fill="#0C6A90"/>
<path d="M33.7951 6.23276C33.6338 6.29067 33.4779 6.35385 33.3166 6.4065C33.3005 6.41176 33.2844 6.41703 33.2682 6.42229C33.2199 6.43809 33.1715 6.45388 33.1231 6.46968C33.0263 6.50126 32.9296 6.53285 32.8328 6.56444C32.7253 6.6013 32.6124 6.63289 32.4995 6.66447C32.392 6.69606 32.2845 6.72765 32.1824 6.75398C32.1071 6.77504 32.0319 6.7961 31.962 6.81716C31.9351 6.82242 31.9136 6.82769 31.8921 6.83295C31.876 6.83295 31.8598 6.83822 31.8437 6.84348C31.7631 6.86454 31.6771 6.8856 31.5911 6.90666C31.5534 6.91719 31.5212 6.92245 31.4835 6.93298C31.3922 6.95404 31.3061 6.9751 31.2148 6.99616H31.204C31.1287 7.01196 31.0535 7.02775 30.9782 7.04354C30.9245 7.05407 30.8653 7.06987 30.8062 7.0804C30.7202 7.09619 30.6396 7.11199 30.5536 7.12778C30.5374 7.12778 30.5159 7.13305 30.4998 7.13831C30.4084 7.15411 30.3117 7.1699 30.2149 7.1857C30.1074 7.20149 30.0052 7.21728 29.8977 7.23308C29.887 7.23308 29.8762 7.23308 29.8655 7.23834C29.7687 7.25414 29.672 7.26467 29.5806 7.28046C29.5644 7.28046 29.5483 7.28046 29.5376 7.28573C29.4301 7.30152 29.3172 7.31205 29.2097 7.32258C29.1129 7.33311 29.0108 7.34364 28.9086 7.35417C28.8387 7.35944 28.7689 7.36997 28.699 7.36997C28.6291 7.37523 28.5538 7.3805 28.4839 7.38576C28.4302 7.38576 28.3764 7.39103 28.3227 7.39629C28.2904 7.39629 28.2582 7.39629 28.2259 7.40155C28.1775 7.40155 28.1292 7.40682 28.0808 7.40682C28.0216 7.40682 27.9571 7.41208 27.898 7.41735C27.8442 7.41735 27.7959 7.41735 27.7421 7.41735C27.683 7.41735 27.6238 7.41735 27.5593 7.41735C27.511 7.41735 27.4572 7.41735 27.4088 7.41735C27.3174 7.41735 27.226 7.41735 27.14 7.41735H27.0917C27.0003 7.41735 26.9035 7.41735 26.8121 7.41735C26.7584 7.41735 26.7046 7.41735 26.6562 7.41735C26.5648 7.41735 26.4735 7.41735 26.3821 7.41208C26.2799 7.41208 26.1778 7.40156 26.0757 7.39629C25.9843 7.39103 25.8875 7.38576 25.7961 7.3805C25.7316 7.3805 25.6671 7.36997 25.6026 7.3647C25.5811 7.3647 25.565 7.3647 25.5435 7.3647C25.4843 7.3647 25.4252 7.35417 25.3661 7.34891C25.2693 7.33838 25.1726 7.33311 25.0758 7.31732C24.9683 7.30679 24.8608 7.29099 24.7586 7.28046C24.7479 7.28046 24.7371 7.28046 24.7264 7.28046C24.6404 7.26993 24.5544 7.2594 24.4684 7.24361C24.4415 7.24361 24.4146 7.23308 24.3877 7.23308C24.291 7.21728 24.1888 7.20149 24.0921 7.1857C23.7426 7.12778 23.3986 7.0646 23.0599 6.98563C22.9793 6.96984 22.8933 6.94878 22.8127 6.92772C22.7051 6.90139 22.5976 6.87507 22.4901 6.84874C22.3826 6.82242 22.2805 6.7961 22.173 6.76451C22.0708 6.73818 21.9687 6.70659 21.8666 6.675C21.7805 6.64868 21.6999 6.62762 21.6139 6.6013C21.4741 6.55918 21.329 6.51179 21.1892 6.46441C21.1086 6.43809 21.028 6.41176 20.9419 6.38017C20.8398 6.34332 20.7377 6.30646 20.6409 6.26961C20.5549 6.23802 20.4689 6.20643 20.3883 6.17484C20.3721 6.16958 20.356 6.16431 20.3453 6.15905C20.3453 6.15905 20.3453 6.15905 20.3399 6.15905C20.2431 6.12219 20.1464 6.08008 20.0496 6.04322C19.9528 6.0011 19.8561 5.96425 19.7539 5.92213C19.6733 5.89054 19.598 5.85369 19.5174 5.81683C19.4959 5.8063 19.4744 5.80104 19.4583 5.79051C19.168 5.65889 18.8831 5.522 18.5982 5.37985C18.3724 5.26402 18.1466 5.14293 17.9262 5.01657C17.7811 4.9376 17.6359 4.85336 17.4962 4.76386C17.437 4.73227 17.4102 4.67436 17.4048 4.61644C29.6343 1.09952 35.2303 5.62203 35.2303 5.62203H35.225C35.139 5.66415 35.053 5.70101 34.9723 5.74312C34.9239 5.76418 34.8809 5.78524 34.8326 5.8063C34.7465 5.84316 34.6659 5.88001 34.5799 5.91686C34.4885 5.95898 34.3971 5.99584 34.3057 6.03269C34.2681 6.04849 34.2305 6.06428 34.1929 6.08008C34.1283 6.1064 34.0692 6.13272 34.0047 6.15378C33.9993 6.15378 33.9886 6.15905 33.9832 6.16431C33.9402 6.18011 33.9026 6.1959 33.8596 6.2117C33.8542 6.2117 33.8434 6.21696 33.8327 6.22223" fill="#0C6A90"/>
<path d="M49.9036 9.125C48.5973 11.0625 46.5868 12.4998 44.2269 13.0947C43.7861 13.2053 43.3238 13.2895 42.8615 13.3369C42.4583 13.379 42.1466 13.7107 42.1466 14.1161C42.1466 14.2793 42.1949 14.4267 42.2809 14.5531C42.2917 14.5689 42.3024 14.5847 42.3132 14.6005C42.3239 14.611 42.3293 14.6215 42.3401 14.632C42.7002 15.0743 43.1195 15.4639 43.5926 15.785C43.7485 15.8903 43.9044 15.9904 44.071 16.0799C43.5603 16.0272 43.0712 15.9535 42.6035 15.843C40.5339 15.3639 36.6527 11.8733 40.55 11.8943C44.8881 11.9206 47.9899 10.4517 49.9036 9.125Z" fill="#A0D5D3"/>
<path d="M53.735 21.7637C53.2835 21.6058 52.8212 21.4584 52.3535 21.332C50.6924 20.874 48.94 20.6212 47.1338 20.6002C47.0424 20.6002 46.9564 20.6002 46.865 20.6002C43.4622 20.6002 40.2583 21.4162 37.4415 22.8641C37.4254 22.8746 37.4093 22.8799 37.3878 22.8904C35.5385 23.8644 33.4259 24.4172 31.1789 24.4172C30.4478 24.4172 29.7275 24.3593 29.0233 24.2435C28.604 24.175 28.1901 24.0908 27.7869 23.9855C27.2009 23.8328 26.6043 23.6327 26.0506 23.4064L26.1527 22.6429C26.2226 21.8901 26.0882 21.1372 25.7657 20.4528L25.1475 19.1523C28.9695 23.9539 37.5275 21.0688 37.5275 21.0688C50.5634 17.4571 53.2673 20.8792 53.735 21.769" fill="#0C6A90"/>
<path d="M20.1227 28.3176C19.9077 28.3808 19.6873 28.4387 19.4615 28.4861C17.9025 28.8283 16.349 28.7809 14.903 28.4176C14.8761 28.4124 14.8546 28.4018 14.8331 28.3966C14.8062 28.3913 14.7739 28.3808 14.7471 28.3808C14.5858 28.3439 14.4191 28.3281 14.2525 28.3281C13.3548 28.3281 12.5699 28.8125 12.1668 29.5338C12.1399 29.5917 12.1076 29.6496 12.0754 29.7075C12.0754 29.7075 12.0754 29.7075 12.0754 29.7128C11.8066 30.2287 11.4787 30.7078 11.1078 31.1501C10.5917 31.7555 9.98963 32.282 9.3123 32.7085L9.18329 32.7874C9.06503 32.54 9.08115 32.2346 9.30155 31.9767C10.2907 30.85 11.2314 29.4811 11.4142 28.2018C11.4841 27.7016 11.7367 27.233 12.1291 26.9066C12.6559 26.4749 13.516 26.2116 14.8116 26.9908C14.8492 27.0119 14.8868 27.033 14.9245 27.0488C15.2846 27.1909 17.2306 27.928 19.7518 28.1807C19.8969 28.1965 20.0205 28.2439 20.1227 28.3123" fill="#0C6A90"/>
<path d="M23.0809 12.7659C20.4146 13.524 16.9419 14.8824 15.3131 17.1041C15.3131 17.1041 12.5124 21.0949 11.7168 23.164C11.7168 23.164 9.62033 27.9603 7.94851 28.2604C7.94851 28.2604 7.51846 28.2867 7.04541 27.9866C7.95389 26.9915 8.75486 25.8965 9.41606 24.7224C9.87299 23.9169 10.2654 23.0745 10.5879 22.2005C10.6041 22.1531 10.6256 22.1058 10.6417 22.0584C10.7277 21.753 10.8298 21.4582 10.9374 21.1633C10.9535 21.1265 10.9642 21.0896 10.9804 21.0528C11.0879 20.7632 11.2061 20.4789 11.3352 20.1999C12.0824 18.5625 13.1414 17.0936 14.4369 15.8669C14.4476 15.8564 14.453 15.8511 14.4638 15.8406C14.4745 15.8353 14.4799 15.8248 14.4853 15.8195C14.7057 15.6037 14.8401 15.3088 14.8401 14.9771C14.8401 14.8824 14.8293 14.7876 14.8078 14.6981C14.7325 14.3822 14.5229 14.119 14.2487 13.9558C14.2326 13.9452 14.2165 13.94 14.2004 13.9294C13.3241 13.4135 12.7328 12.4763 12.7328 11.4023C12.7328 11.1864 12.7543 10.9758 12.8027 10.7758C12.9855 9.95973 13.5123 9.26477 14.2326 8.85938C14.582 9.22265 14.9583 9.56487 15.3507 9.88076C15.7593 10.2124 16.1893 10.5231 16.6355 10.8021C17.0817 11.0811 17.5494 11.3391 18.0332 11.5602C18.2536 11.6603 18.474 11.7603 18.6998 11.8498C19.2803 12.0867 19.8878 12.2763 20.5113 12.4237C21.3392 12.6237 22.1939 12.7396 23.0755 12.7712" fill="#0C6A90"/>
</g>
<defs>
<clipPath id="clip0_353_31539">
<rect width="160" height="33.9215" fill="white" transform="translate(0.99707 0.0390625)"/>
</clipPath>
</defs>
</svg>
