<svg width="20" height="17" viewBox="0 0 20 17" fill="none" xmlns="http://www.w3.org/2000/svg">
<path fill-rule="evenodd" clip-rule="evenodd" d="M16.5 12.6342V12.3242H18V12.6342C18 14.9442 16.12 16.8242 13.81 16.8242H6.19C3.88 16.8242 2 14.9442 2 12.6342V12.3242H3.5V12.6342C3.5 14.1142 4.71 15.3242 6.19 15.3242H13.81C15.29 15.3242 16.5 14.1142 16.5 12.6342ZM6.19 0.824219H13.81C16.12 0.824219 18 2.70422 18 5.01422V5.32422H16.5V5.01422C16.5 3.53422 15.29 2.32422 13.81 2.32422H6.19C4.71 2.32422 3.5 3.53422 3.5 5.01422V5.32422H2V5.01422C2 2.70422 3.88 0.824219 6.19 0.824219ZM1.04 8.07422H0V9.57422H1.04C1.04 9.59422 1.04 9.60422 1.05 9.62422C1.17 9.98422 1.37 10.3142 1.65 10.5942C2.14 11.0842 2.78 11.3242 3.42 11.3242C3.84 11.3242 4.26 11.2242 4.63 11.0142C4.83 10.9042 5.02 10.7642 5.19 10.5942C5.49 10.2942 5.69 9.94422 5.81 9.57422H6.84V8.07422H5.81C5.69 7.70422 5.49 7.35422 5.19 7.05422C5.02 6.88422 4.83 6.74422 4.63 6.63422C4.26 6.42422 3.84 6.32422 3.42 6.32422C2.78 6.32422 2.14 6.56422 1.65 7.05422C1.37 7.33422 1.17 7.66422 1.05 8.02422C1.04 8.04422 1.04 8.05422 1.04 8.07422ZM3.42 9.82422C3.69 9.82422 3.94 9.72422 4.13 9.53422C4.52 9.14422 4.52 8.50422 4.13 8.11422C3.94 7.92422 3.69 7.82422 3.42 7.82422C3.15 7.82422 2.9 7.92422 2.71 8.11422C2.52 8.30422 2.42 8.55422 2.42 8.82422C2.42 9.09422 2.52 9.34422 2.71 9.53422C2.9 9.72422 3.15 9.82422 3.42 9.82422ZM19.27 7.05422C19.12 6.90422 18.95 6.77422 18.77 6.67422C18.53 6.52422 18.27 6.42422 18 6.37422C17.83 6.34422 17.67 6.32422 17.5 6.32422C17.16 6.32422 16.82 6.39422 16.5 6.53422C16.23 6.64422 15.99 6.80422 15.77 7.01422L15.73 7.05422C15.43 7.35422 15.23 7.70422 15.11 8.07422H13.25V9.57422H15.11C15.23 9.94422 15.43 10.2942 15.73 10.5942L15.77 10.6342C15.99 10.8442 16.23 11.0042 16.5 11.1142C16.82 11.2542 17.16 11.3242 17.5 11.3242C17.67 11.3242 17.83 11.3042 18 11.2742C18.27 11.2242 18.53 11.1242 18.77 10.9842C18.95 10.8742 19.12 10.7442 19.27 10.5942C20.24 9.61422 20.24 8.03422 19.27 7.05422ZM18.21 9.53422C18.15 9.59422 18.08 9.65422 18 9.69422C17.85 9.78422 17.68 9.82422 17.5 9.82422C17.23 9.82422 16.98 9.72422 16.79 9.53422C16.6 9.34422 16.5 9.09422 16.5 8.82422C16.5 8.55422 16.6 8.30422 16.79 8.11422C16.98 7.92422 17.23 7.82422 17.5 7.82422C17.68 7.82422 17.85 7.86422 18 7.95422C18.08 7.99422 18.15 8.05422 18.21 8.11422C18.4 8.30422 18.5 8.55422 18.5 8.82422C18.5 9.09422 18.4 9.34422 18.21 9.53422ZM9.59 6.91422H8.09V8.41422H9.59V6.91422ZM10.41 6.91422H11.91V8.41422H10.41V6.91422ZM9.59 9.23422H8.09V10.7342H9.59V9.23422ZM10.41 9.23422H11.91V10.7342H10.41V9.23422Z" fill="#829AAC"/>
</svg>
