<svg width="17" height="21" viewBox="0 0 17 21" fill="none" xmlns="http://www.w3.org/2000/svg">
<path id="Vector" fill-rule="evenodd" clip-rule="evenodd" d="M16.786 5.97473C16.768 5.4376 16.759 4.92779 16.759 4.42707C16.759 4.04471 16.449 3.73518 16.058 3.73518C13.072 3.73518 10.787 2.87032 8.88402 1.02223C8.62002 0.758216 8.18302 0.758216 7.91002 1.02223C6.01602 2.87032 3.73102 3.73518 0.73602 3.73518C0.35402 3.73518 0.0350237 4.04471 0.0350237 4.42707C0.0350237 4.9031 0.0270178 5.38736 0.0180178 5.89548L0.0170183 5.97473C0.0150183 6.11223 0.0130216 6.25098 0.0110216 6.39104C0.00202161 6.99273 -0.00697675 7.61729 0.00802325 8.25979H2.34702C2.73002 8.25979 3.03002 7.95029 3.03002 7.57698C3.03002 7.20373 2.73002 6.89423 2.34702 6.89423H1.40102V6.86848C1.41002 6.57711 1.41902 6.29386 1.41902 6.00204C1.42302 5.85411 1.42602 5.70617 1.42802 5.56042C1.43002 5.41018 1.43202 5.26221 1.43702 5.11897C4.24102 5.00062 6.48101 4.14485 8.40201 2.47885C10.322 4.14485 12.562 5.00062 15.366 5.11897C15.371 5.26221 15.373 5.41015 15.375 5.5604C15.377 5.70613 15.38 5.85411 15.384 6.00204V6.89423H14.456C14.082 6.89423 13.773 7.20373 13.773 7.57698C13.773 7.95029 14.082 8.25979 14.456 8.25979H16.786C16.801 7.61729 16.792 6.99279 16.783 6.39111C16.781 6.25136 16.779 6.11198 16.777 5.97473H16.786ZM11.108 7.46886C9.62402 5.98492 7.21202 5.98492 5.72802 7.46886C4.24402 8.95282 4.24402 11.3561 5.72802 12.8401C6.29202 13.4136 6.99302 13.7596 7.73002 13.887V19.1309C4.63502 17.829 3.03302 15.9081 2.21402 13.7231H3.44302C3.81602 13.7231 4.12502 13.4228 4.12502 13.0404C4.12502 12.658 3.81602 12.3576 3.44302 12.3576H0.40202C1.12102 15.7625 3.06002 19.0216 8.17702 20.7878C8.19502 20.7969 8.22203 20.806 8.24003 20.806H8.25802L8.27903 20.8095C8.32503 20.8173 8.36601 20.8242 8.41301 20.8242H8.47703L8.48601 20.8151C8.51301 20.8151 8.54101 20.8151 8.56801 20.806C8.61401 20.7969 8.65002 20.7878 8.67702 20.7696C8.92302 20.6694 9.09601 20.4327 9.09601 20.1414V13.887C9.83301 13.7596 10.534 13.4136 11.108 12.8401C12.583 11.3561 12.583 8.95282 11.108 7.46886ZM10.143 11.8751C9.18703 12.831 7.64901 12.831 6.69301 11.8751C5.74601 10.9283 5.74601 9.38062 6.69301 8.43386C7.64901 7.48704 9.18703 7.48704 10.143 8.43386C11.09 9.38062 11.09 10.9283 10.143 11.8751ZM2.77502 10.9914H1.56502H0.245023C0.217023 10.9914 0.190017 10.9914 0.172017 11.0005C0.117017 10.5453 0.0810214 10.081 0.0530214 9.62582H2.77502C3.15802 9.62582 3.45802 9.93532 3.45802 10.3086C3.45802 10.6818 3.15802 10.9914 2.77502 10.9914ZM15.36 9.62582H14.04C13.667 9.62582 13.357 9.93532 13.357 10.3086C13.357 10.6818 13.667 10.9914 14.04 10.9914H16.58C16.58 10.9914 16.616 10.9914 16.634 11.0005C16.689 10.5453 16.725 10.081 16.753 9.62582H15.36ZM13.381 12.357H14.983H16.404C15.785 15.3248 14.228 18.1743 10.459 20.0224V18.4475C12.662 17.2002 13.891 15.5615 14.574 13.7225H13.381C12.999 13.7225 12.698 13.413 12.698 13.0397C12.698 12.6665 12.999 12.357 13.381 12.357Z" fill="#829AAC"/>
</svg>
