<svg width="17" height="21" viewBox="0 0 17 21" fill="none" xmlns="http://www.w3.org/2000/svg">
<path id="Vector" d="M10.226 8.50094C9.27 7.54454 7.707 7.54454 6.75 8.50094C5.794 9.46664 5.794 11.0208 6.75 11.9864C7.707 12.9428 9.27 12.9428 10.226 11.9864C11.183 11.0208 11.183 9.46664 10.226 8.50094ZM13.914 7.64574C13.914 7.25944 14.218 6.95594 14.604 6.95594H16.949C16.949 6.64334 16.949 6.33064 16.94 6.02714C16.94 5.47534 16.921 4.96034 16.921 4.46374C16.921 4.07744 16.609 3.75564 16.213 3.75564C13.188 3.75564 10.889 2.89114 8.967 1.02424C8.691 0.757544 8.258 0.757544 7.983 1.02424C6.06 2.89114 3.761 3.75564 0.736 3.75564C0.34 3.75564 0.0279999 4.07744 0.0279999 4.46374C0.0279999 4.96034 0.0180027 5.47534 0.00900269 6.02714C2.68593e-06 6.33064 0 6.64334 0 6.95594H2.363C2.741 6.95594 3.053 7.25944 3.053 7.64574C3.053 8.03194 2.741 8.33544 2.363 8.33544H0C0 8.78604 0.0179976 9.25514 0.0459976 9.71494H2.796C3.173 9.71494 3.485 10.0184 3.485 10.4046C3.485 10.7909 3.173 11.0943 2.796 11.0943H0.166C0.221 11.5542 0.294002 12.014 0.386002 12.4738H3.458C3.844 12.4738 4.14799 12.7773 4.14799 13.1636C4.14799 13.5498 3.844 13.8533 3.458 13.8533H0.763C1.674 16.6674 3.633 19.2608 7.799 20.8242V14.0188C7.063 13.8901 6.35499 13.5314 5.77499 12.9612C4.27599 11.4622 4.27599 9.02514 5.77499 7.52614C7.27399 6.03634 9.702 6.03634 11.201 7.52614C12.7 9.02514 12.7 11.4622 11.201 12.9612C10.622 13.5314 9.91399 13.8901 9.17799 14.0188V20.815C13.316 19.2516 15.275 16.6674 16.186 13.8533H13.5C13.123 13.8533 12.811 13.5406 12.811 13.1636C12.811 12.7865 13.123 12.4738 13.5 12.4738H16.563C16.655 12.014 16.728 11.5542 16.784 11.1035L14.172 11.0943C13.785 11.0943 13.482 10.7817 13.482 10.4046C13.482 10.0276 13.785 9.71494 14.172 9.71494H16.903C16.931 9.25514 16.949 8.78604 16.949 8.33544H14.604C14.218 8.33544 13.914 8.02274 13.914 7.64574ZM10.226 8.50094C9.27 7.54454 7.707 7.54454 6.75 8.50094C5.794 9.46664 5.794 11.0208 6.75 11.9864C7.707 12.9428 9.27 12.9428 10.226 11.9864C11.183 11.0208 11.183 9.46664 10.226 8.50094ZM10.226 8.50094C9.27 7.54454 7.707 7.54454 6.75 8.50094C5.794 9.46664 5.794 11.0208 6.75 11.9864C7.707 12.9428 9.27 12.9428 10.226 11.9864C11.183 11.0208 11.183 9.46664 10.226 8.50094ZM10.226 8.50094C9.27 7.54454 7.707 7.54454 6.75 8.50094C5.794 9.46664 5.794 11.0208 6.75 11.9864C7.707 12.9428 9.27 12.9428 10.226 11.9864C11.183 11.0208 11.183 9.46664 10.226 8.50094Z" fill="#23B5E9"/>
</svg>
