<svg width="64" height="64" viewBox="0 0 64 64" fill="none" xmlns="http://www.w3.org/2000/svg">
<g id="snappyflow-self-hosted 1">
<path id="Vector" fill-rule="evenodd" clip-rule="evenodd" d="M57.271 8.89822C57.4234 9.36796 57.444 9.85556 57.4468 10.3377C57.4504 11.2465 57.4471 12.1555 57.444 13.0645C57.4386 14.5716 57.4335 16.0799 57.4591 17.5858C57.5113 20.5595 54.828 22.2984 52.7199 22.2929C42.8556 22.2678 32.9919 22.2697 23.1281 22.2718C18.9357 22.2727 14.7433 22.2735 10.5508 22.2723C8.54175 22.2709 7.12178 21.2999 6.1962 19.5457C6.02043 19.2119 5.97896 18.8526 5.93747 18.493C5.91801 18.3244 5.89855 18.1557 5.86523 17.9897V9.93523C5.90919 8.89272 6.25662 7.9752 6.98034 7.21289C7.9224 6.21709 9.05536 5.64844 10.4506 5.64844C18.9254 5.6501 27.3995 5.65025 35.8739 5.65043C41.5231 5.65053 47.1722 5.65065 52.8215 5.65119C54.8361 5.65119 56.6489 6.98215 57.271 8.89822ZM14.0692 17.4759C14.7407 17.4718 15.2241 16.943 15.2282 16.1656C15.2378 14.6931 15.2392 13.2207 15.2282 11.7483C15.2227 10.9764 14.7297 10.4448 14.0596 10.4489C13.3839 10.4544 12.9129 10.9764 12.9019 11.7579C12.8953 12.2616 12.8971 12.7653 12.8989 13.2691C12.8997 13.5016 12.9005 13.734 12.9005 13.9665C12.9005 14.2008 12.8995 14.435 12.8986 14.6693C12.8965 15.1712 12.8944 15.6732 12.9019 16.1752C12.9142 16.9539 13.3935 17.4787 14.0692 17.4759ZM18.3744 17.3948C19.208 17.6709 19.9111 17.1023 19.9234 16.1037C19.9376 14.8762 19.9324 13.6476 19.9272 12.4189L19.9248 11.8362C19.9234 11.5697 19.8945 11.3033 19.7599 11.0629C19.51 10.6206 19.0103 10.3871 18.5365 10.4901C17.9404 10.622 17.604 11.0231 17.5793 11.7194C17.5615 12.2201 17.5654 12.7207 17.5692 13.2213C17.571 13.4569 17.5729 13.6925 17.5724 13.9281C17.5724 14.1553 17.5715 14.3827 17.5708 14.6101C17.5689 15.1029 17.5672 15.5958 17.5737 16.0873C17.5848 16.7891 17.8593 17.2245 18.3744 17.3948ZM23.4377 17.4759C24.1133 17.4732 24.5857 16.9498 24.5966 16.1683C24.6044 15.653 24.6027 15.1376 24.6009 14.6223C24.6002 14.4014 24.5994 14.1805 24.5994 13.9597C24.5994 13.7388 24.6002 13.5179 24.6009 13.2971C24.6027 12.7817 24.6044 12.2664 24.5966 11.751C24.5857 10.9709 24.1078 10.4476 23.4322 10.4489C22.7607 10.4503 22.2758 10.9805 22.2703 11.7565C22.2608 13.2289 22.2608 14.7014 22.2703 16.1738C22.2758 16.9471 22.766 17.4787 23.4377 17.4759ZM38.6726 13.9858C38.6809 15.2714 39.7343 16.3029 41.0278 16.2933C42.3174 16.2837 43.3446 15.2343 43.3336 13.9391C43.3213 12.6452 42.2776 11.6219 40.9811 11.6315C39.6902 11.6425 38.6631 12.6905 38.6726 13.9858ZM45.7024 13.9789C45.7107 15.2728 46.7517 16.2988 48.0481 16.2919C49.339 16.285 50.3703 15.2398 50.3634 13.9459C50.3578 12.6576 49.3087 11.6247 48.0151 11.6315C46.7242 11.6384 45.6943 12.6837 45.7024 13.9789ZM57.271 26.423C57.4234 26.8928 57.444 27.3804 57.4468 27.8625C57.4504 28.7713 57.4471 29.6802 57.444 30.5892C57.4386 32.0963 57.4335 33.6046 57.4591 35.1105C57.5113 38.0841 54.828 39.823 52.7199 39.8177C42.8556 39.7926 32.9922 39.7945 23.1284 39.7966C18.9359 39.7974 14.7435 39.7983 10.5508 39.7971C8.54175 39.7957 7.12178 38.8244 6.1962 37.0705C6.02043 36.7367 5.97896 36.3774 5.93747 36.0178C5.91801 35.8491 5.89855 35.6805 5.86523 35.5143V27.4599C5.90919 26.4174 6.25662 25.5 6.98034 24.7377C7.9224 23.7419 9.05536 23.1732 10.4506 23.1732C18.925 23.1749 27.3991 23.1751 35.8731 23.1752C41.5225 23.1752 47.1718 23.1754 52.8215 23.1759C54.8361 23.1759 56.6489 24.507 57.271 26.423ZM14.0692 35.0007C14.7407 34.9966 15.2241 34.4678 15.2282 33.6903C15.2378 32.2179 15.2392 30.7454 15.2282 29.273C15.2227 28.5011 14.7297 27.9695 14.0596 27.9737C13.3839 27.9792 12.9129 28.5011 12.9019 29.2826C12.8953 29.7864 12.8971 30.2901 12.8989 30.7938C12.8997 31.0263 12.9005 31.2588 12.9005 31.4913C12.9005 31.7255 12.8995 31.9598 12.8986 32.194C12.8965 32.6958 12.8944 33.198 12.9019 33.6999C12.9142 34.4787 13.3935 35.0033 14.0692 35.0007ZM18.3744 34.9196C19.208 35.1956 19.9111 34.6271 19.9234 33.6285C19.9376 32.4009 19.9324 31.1723 19.9272 29.9437L19.9248 29.3609C19.9234 29.0945 19.8945 28.828 19.7599 28.5876C19.51 28.1453 19.0103 27.9119 18.5365 28.0148C17.9404 28.1466 17.604 28.5478 17.5793 29.2442C17.5615 29.7447 17.5654 30.2455 17.5692 30.7461C17.571 30.9817 17.5729 31.2173 17.5724 31.4529C17.5724 31.6801 17.5715 31.9074 17.5708 32.1349C17.5689 32.6275 17.5672 33.1205 17.5737 33.6119C17.5848 34.3138 17.8593 34.7492 18.3744 34.9196ZM23.4377 35.0007C24.1133 34.9979 24.5857 34.4745 24.5966 33.693C24.6044 33.1777 24.6027 32.6623 24.6009 32.147C24.6002 31.9266 24.5994 31.7047 24.5994 31.4843C24.5994 31.2634 24.6002 31.0427 24.6009 30.8218C24.6027 30.3064 24.6044 29.7911 24.5966 29.2758C24.5857 28.4955 24.1078 27.9723 23.4322 27.9737C22.7607 27.9751 22.2758 28.5052 22.2703 29.2812C22.2608 30.7537 22.2608 32.226 22.2703 33.6986C22.2758 34.4718 22.766 35.0033 23.4377 35.0007ZM38.6726 31.5105C38.6809 32.7962 39.7343 33.8276 41.0278 33.8181C42.3174 33.8084 43.3446 32.759 43.3336 31.4638C43.3213 30.1699 42.2776 29.1466 40.9811 29.1563C39.6902 29.1672 38.6631 30.2152 38.6726 31.5105ZM45.7024 31.5037C45.7107 32.7975 46.7517 33.8235 48.0481 33.8167C49.339 33.8098 50.3703 32.7645 50.3634 31.4707C50.3578 30.1824 49.3087 29.1494 48.0151 29.1563C46.7242 29.1632 45.6943 30.2083 45.7024 31.5037ZM54.7154 41.1599C56.4593 42.039 57.4618 43.4084 57.4535 45.4287C57.4435 47.659 57.4473 49.8894 57.4513 52.1197L57.4521 52.677C57.4549 54.7565 56.4264 56.1479 54.5945 57.0186C54.0136 57.2961 53.3873 57.3044 52.7736 57.3044C45.7286 57.3085 38.6837 57.3092 31.6389 57.3099C24.5938 57.3106 17.549 57.3113 10.5042 57.3153C8.47446 57.3166 7.07509 56.3689 6.17012 54.5958C6.00012 54.2621 5.96563 53.9061 5.93114 53.5505C5.91438 53.3774 5.8976 53.2044 5.86523 53.034V45.0798C5.8976 44.9096 5.91451 44.7367 5.93143 44.5635C5.96622 44.2079 6.00104 43.8519 6.17012 43.5182C7.08196 41.7216 8.5596 40.8152 10.5495 40.6984C10.6628 40.6922 10.7761 40.6929 10.8894 40.6938C10.9271 40.6939 10.9649 40.6943 11.0027 40.6943H52.2654C53.1128 40.6943 53.9531 40.7752 54.7154 41.1599ZM14.0582 52.5616C14.7476 52.5656 15.2172 52.0574 15.2296 51.269C15.2362 50.7627 15.2344 50.2484 15.2326 49.7425C15.2318 49.5116 15.231 49.2824 15.231 49.0563C15.231 48.8309 15.2316 48.6055 15.2323 48.3802C15.2338 47.8844 15.2352 47.3887 15.2296 46.8929C15.2213 46.0675 14.7572 45.5524 14.0472 45.5635C13.3551 45.5744 12.9074 46.0756 12.9019 46.8793C12.8936 48.338 12.8936 49.7966 12.9019 51.2553C12.9074 52.052 13.3661 52.5561 14.0582 52.5616ZM19.0267 52.5244C19.5553 52.4077 19.9001 51.9612 19.922 51.2856C19.9372 50.7762 19.9334 50.2663 19.9296 49.7565C19.9279 49.528 19.9262 49.2997 19.9262 49.0714C19.9265 48.9306 19.9269 48.7896 19.9272 48.6488C19.9288 48.0851 19.9303 47.5214 19.9248 46.9575C19.922 46.529 19.8492 46.1198 19.4866 45.8299C19.1118 45.5304 18.6917 45.4782 18.2604 45.6747C17.7358 45.9136 17.5765 46.3806 17.5737 46.9135C17.5682 48.3393 17.5682 49.7664 17.5751 51.1922C17.5751 51.4586 17.604 51.7265 17.7427 51.9668C18.0105 52.4282 18.4952 52.6398 19.0267 52.5244ZM23.4417 52.5616C24.1339 52.5561 24.5871 52.052 24.5966 51.2539C24.6035 50.7449 24.602 50.2358 24.6006 49.7269C24.6001 49.5149 24.5994 49.3026 24.5994 49.0906C24.599 48.8392 24.5999 48.5879 24.6008 48.3366C24.6027 47.8339 24.6044 47.3311 24.5952 46.8284C24.583 46.0661 24.1256 45.5744 23.4514 45.5635C22.7607 45.5538 22.2772 46.0606 22.2703 46.8435C22.2594 48.3188 22.2608 49.7939 22.2703 51.2704C22.2758 52.0574 22.7524 52.5656 23.4417 52.5616ZM38.6726 49.0219C38.6562 50.3268 39.711 51.4063 41.0031 51.4063C42.2748 51.4077 43.3268 50.3557 43.3336 49.0755C43.3419 47.7926 42.3132 46.7406 41.0306 46.7158C39.7714 46.6925 38.6879 47.7514 38.6726 49.0219ZM45.7024 49.0274C45.6846 50.331 46.7434 51.4091 48.0357 51.4063C49.3074 51.4036 50.3606 50.346 50.3647 49.07C50.3689 47.7912 49.3335 46.7378 48.0535 46.7172C46.7887 46.6966 45.7204 47.7459 45.7024 49.0274Z" fill="url(#paint0_linear_345_31463)"/>
</g>
<defs>
<linearGradient id="paint0_linear_345_31463" x1="31.6625" y1="5.64844" x2="31.6625" y2="57.3153" gradientUnits="userSpaceOnUse">
<stop stop-color="white"/>
<stop offset="1" stop-color="#C8F7FF"/>
</linearGradient>
</defs>
</svg>
