<svg width="65" height="64" viewBox="0 0 65 64" fill="none" xmlns="http://www.w3.org/2000/svg">
<g id="snappyflow-self-hosted 1">
<path id="Vector" fill-rule="evenodd" clip-rule="evenodd" d="M58.2671 8.89822C58.4195 9.36796 58.4401 9.85556 58.4429 10.3377C58.4465 11.2465 58.4432 12.1555 58.4401 13.0645C58.4347 14.5716 58.4296 16.0799 58.4552 17.5858C58.5074 20.5595 55.8241 22.2984 53.716 22.2929C43.8517 22.2678 33.988 22.2697 24.1242 22.2718C19.9318 22.2727 15.7394 22.2735 11.5469 22.2723C9.53784 22.2709 8.11787 21.2999 7.19229 19.5457C7.01652 19.2119 6.97506 18.8526 6.93356 18.493C6.9141 18.3244 6.89464 18.1557 6.86133 17.9897V9.93523C6.90528 8.89272 7.25271 7.9752 7.97643 7.21289C8.9185 6.21709 10.0515 5.64844 11.4467 5.64844C19.9214 5.6501 28.3956 5.65025 36.87 5.65043C42.5192 5.65053 48.1683 5.65065 53.8176 5.65119C55.8322 5.65119 57.645 6.98215 58.2671 8.89822ZM15.0653 17.4759C15.7368 17.4718 16.2202 16.943 16.2243 16.1656C16.2339 14.6931 16.2353 13.2207 16.2243 11.7483C16.2188 10.9764 15.7258 10.4448 15.0556 10.4489C14.38 10.4544 13.909 10.9764 13.898 11.7579C13.8914 12.2616 13.8932 12.7653 13.895 13.2691C13.8958 13.5016 13.8966 13.734 13.8966 13.9665C13.8966 14.2008 13.8956 14.435 13.8947 14.6693C13.8926 15.1712 13.8905 15.6732 13.898 16.1752C13.9103 16.9539 14.3896 17.4787 15.0653 17.4759ZM19.3705 17.3948C20.2041 17.6709 20.9072 17.1023 20.9195 16.1037C20.9337 14.8762 20.9285 13.6476 20.9233 12.4189L20.9209 11.8362C20.9195 11.5697 20.8906 11.3033 20.756 11.0629C20.5061 10.6206 20.0064 10.3871 19.5326 10.4901C18.9365 10.622 18.6001 11.0231 18.5754 11.7194C18.5576 12.2201 18.5615 12.7207 18.5653 13.2213C18.5671 13.4569 18.569 13.6925 18.5684 13.9281C18.5684 14.1553 18.5676 14.3827 18.5669 14.6101C18.565 15.1029 18.5633 15.5958 18.5698 16.0873C18.5809 16.7891 18.8554 17.2245 19.3705 17.3948ZM24.4338 17.4759C25.1094 17.4732 25.5818 16.9498 25.5927 16.1683C25.6005 15.653 25.5988 15.1376 25.597 14.6223C25.5963 14.4014 25.5955 14.1805 25.5955 13.9597C25.5955 13.7388 25.5963 13.5179 25.597 13.2971C25.5988 12.7817 25.6005 12.2664 25.5927 11.751C25.5818 10.9709 25.1039 10.4476 24.4283 10.4489C23.7568 10.4503 23.2719 10.9805 23.2664 11.7565C23.2569 13.2289 23.2569 14.7014 23.2664 16.1738C23.2719 16.9471 23.7621 17.4787 24.4338 17.4759ZM39.6687 13.9858C39.677 15.2714 40.7304 16.3029 42.0239 16.2933C43.3134 16.2837 44.3407 15.2343 44.3297 13.9391C44.3174 12.6452 43.2737 11.6219 41.9772 11.6315C40.6863 11.6425 39.6592 12.6905 39.6687 13.9858ZM46.6985 13.9789C46.7068 15.2728 47.7478 16.2988 49.0442 16.2919C50.3351 16.285 51.3664 15.2398 51.3595 13.9459C51.3539 12.6576 50.3048 11.6247 49.0112 11.6315C47.7203 11.6384 46.6904 12.6837 46.6985 13.9789ZM58.2671 26.423C58.4195 26.8928 58.4401 27.3804 58.4429 27.8625C58.4465 28.7713 58.4432 29.6802 58.4401 30.5892C58.4347 32.0963 58.4296 33.6046 58.4552 35.1105C58.5074 38.0841 55.8241 39.823 53.716 39.8177C43.8517 39.7926 33.9883 39.7945 24.1245 39.7966C19.932 39.7974 15.7395 39.7983 11.5469 39.7971C9.53784 39.7957 8.11787 38.8244 7.19229 37.0705C7.01652 36.7367 6.97506 36.3774 6.93356 36.0178C6.9141 35.8491 6.89464 35.6805 6.86133 35.5143V27.4599C6.90528 26.4174 7.25271 25.5 7.97643 24.7377C8.9185 23.7419 10.0515 23.1732 11.4467 23.1732C19.9211 23.1749 28.3952 23.1751 36.8692 23.1752C42.5186 23.1752 48.1679 23.1754 53.8176 23.1759C55.8322 23.1759 57.645 24.507 58.2671 26.423ZM15.0653 35.0007C15.7368 34.9966 16.2202 34.4678 16.2243 33.6903C16.2339 32.2179 16.2353 30.7454 16.2243 29.273C16.2188 28.5011 15.7258 27.9695 15.0556 27.9737C14.38 27.9792 13.909 28.5011 13.898 29.2826C13.8914 29.7864 13.8932 30.2901 13.895 30.7938C13.8958 31.0263 13.8966 31.2588 13.8966 31.4913C13.8966 31.7255 13.8956 31.9598 13.8947 32.194C13.8926 32.6958 13.8905 33.198 13.898 33.6999C13.9103 34.4787 14.3896 35.0033 15.0653 35.0007ZM19.3705 34.9196C20.2041 35.1956 20.9072 34.6271 20.9195 33.6285C20.9337 32.4009 20.9285 31.1723 20.9233 29.9437L20.9209 29.3609C20.9195 29.0945 20.8906 28.828 20.756 28.5876C20.5061 28.1453 20.0064 27.9119 19.5326 28.0148C18.9365 28.1466 18.6001 28.5478 18.5754 29.2442C18.5576 29.7447 18.5615 30.2455 18.5653 30.7461C18.5671 30.9817 18.569 31.2173 18.5684 31.4529C18.5684 31.6801 18.5676 31.9074 18.5669 32.1349C18.565 32.6275 18.5633 33.1205 18.5698 33.6119C18.5809 34.3138 18.8554 34.7492 19.3705 34.9196ZM24.4338 35.0007C25.1094 34.9979 25.5818 34.4745 25.5927 33.693C25.6005 33.1777 25.5988 32.6623 25.597 32.147C25.5963 31.9266 25.5955 31.7047 25.5955 31.4843C25.5955 31.2634 25.5963 31.0427 25.597 30.8218C25.5988 30.3064 25.6005 29.7911 25.5927 29.2758C25.5818 28.4955 25.1039 27.9723 24.4283 27.9737C23.7568 27.9751 23.2719 28.5052 23.2664 29.2812C23.2569 30.7537 23.2569 32.226 23.2664 33.6986C23.2719 34.4718 23.7621 35.0033 24.4338 35.0007ZM39.6687 31.5105C39.677 32.7962 40.7304 33.8276 42.0239 33.8181C43.3134 33.8084 44.3407 32.759 44.3297 31.4638C44.3174 30.1699 43.2737 29.1466 41.9772 29.1563C40.6863 29.1672 39.6592 30.2152 39.6687 31.5105ZM46.6985 31.5037C46.7068 32.7975 47.7478 33.8235 49.0442 33.8167C50.3351 33.8098 51.3664 32.7645 51.3595 31.4707C51.3539 30.1824 50.3048 29.1494 49.0112 29.1563C47.7203 29.1632 46.6904 30.2083 46.6985 31.5037ZM55.7115 41.1599C57.4554 42.039 58.4579 43.4084 58.4496 45.4287C58.4396 47.659 58.4434 49.8894 58.4474 52.1197L58.4482 52.677C58.451 54.7565 57.4225 56.1479 55.5905 57.0186C55.0097 57.2961 54.3834 57.3044 53.7697 57.3044C46.7246 57.3085 39.6798 57.3092 32.635 57.3099C25.5899 57.3106 18.5451 57.3113 11.5003 57.3153C9.47056 57.3166 8.07119 56.3689 7.16621 54.5958C6.99621 54.2621 6.96172 53.9061 6.92723 53.5505C6.91047 53.3774 6.89369 53.2044 6.86133 53.034V45.0798C6.89369 44.9096 6.91061 44.7367 6.92752 44.5635C6.96231 44.2079 6.99713 43.8519 7.16621 43.5182C8.07805 41.7216 9.55569 40.8152 11.5456 40.6984C11.6589 40.6922 11.7722 40.6929 11.8854 40.6938C11.9232 40.6939 11.961 40.6943 11.9987 40.6943H53.2615C54.1089 40.6943 54.9492 40.7752 55.7115 41.1599ZM15.0543 52.5616C15.7437 52.5656 16.2133 52.0574 16.2257 51.269C16.2323 50.7627 16.2305 50.2484 16.2287 49.7425C16.2279 49.5116 16.2271 49.2824 16.2271 49.0563C16.2271 48.8309 16.2277 48.6055 16.2284 48.3802C16.2299 47.8844 16.2313 47.3887 16.2257 46.8929C16.2174 46.0675 15.7533 45.5524 15.0433 45.5635C14.3512 45.5744 13.9035 46.0756 13.898 46.8793C13.8897 48.338 13.8897 49.7966 13.898 51.2553C13.9035 52.052 14.3621 52.5561 15.0543 52.5616ZM20.0228 52.5244C20.5514 52.4077 20.8961 51.9612 20.9181 51.2856C20.9333 50.7762 20.9295 50.2663 20.9257 49.7565C20.924 49.528 20.9223 49.2997 20.9223 49.0714C20.9226 48.9306 20.923 48.7896 20.9233 48.6488C20.9249 48.0851 20.9264 47.5214 20.9209 46.9575C20.9181 46.529 20.8453 46.1198 20.4827 45.8299C20.1079 45.5304 19.6878 45.4782 19.2565 45.6747C18.7319 45.9136 18.5726 46.3806 18.5698 46.9135C18.5643 48.3393 18.5643 49.7664 18.5712 51.1922C18.5712 51.4586 18.6001 51.7265 18.7388 51.9668C19.0066 52.4282 19.4913 52.6398 20.0228 52.5244ZM24.4378 52.5616C25.13 52.5561 25.5832 52.052 25.5927 51.2539C25.5996 50.7449 25.5981 50.2358 25.5967 49.7269C25.5962 49.5149 25.5955 49.3026 25.5955 49.0906C25.5951 48.8392 25.596 48.5879 25.5969 48.3366C25.5988 47.8339 25.6005 47.3311 25.5913 46.8284C25.579 46.0661 25.1217 45.5744 24.4475 45.5635C23.7568 45.5538 23.2733 46.0606 23.2664 46.8435C23.2555 48.3188 23.2569 49.7939 23.2664 51.2704C23.2719 52.0574 23.7485 52.5656 24.4378 52.5616ZM39.6687 49.0219C39.6523 50.3268 40.7071 51.4063 41.9992 51.4063C43.2709 51.4077 44.3229 50.3557 44.3297 49.0755C44.338 47.7926 43.3093 46.7406 42.0267 46.7158C40.7675 46.6925 39.684 47.7514 39.6687 49.0219ZM46.6985 49.0274C46.6807 50.331 47.7395 51.4091 49.0318 51.4063C50.3035 51.4036 51.3567 50.346 51.3608 49.07C51.365 47.7912 50.3296 46.7378 49.0496 46.7172C47.7848 46.6966 46.7165 47.7459 46.6985 49.0274Z" fill="url(#paint0_linear_261_30209)"/>
</g>
<defs>
<linearGradient id="paint0_linear_261_30209" x1="32.6586" y1="5.64844" x2="32.6586" y2="57.3153" gradientUnits="userSpaceOnUse">
<stop offset="0.153325" stop-color="#39646B"/>
<stop offset="1"/>
</linearGradient>
</defs>
</svg>
