<svg width="64" height="64" viewBox="0 0 64 64" fill="none" xmlns="http://www.w3.org/2000/svg">
<g id="snappyflow-cloud">
<path id="Vector" d="M30.9675 12.1094C22.5608 12.1094 15.746 18.9245 15.746 27.3308C15.746 28.7686 15.9462 30.1617 16.3196 31.4822H14.3621C9.01246 31.4822 4.67578 35.819 4.67578 41.169C4.67578 46.5187 9.01246 50.8553 14.3621 50.8553H44.806C45.0172 50.8553 45.2277 50.8484 45.4361 50.8354C45.6859 50.8484 45.9371 50.8553 46.19 50.8553C53.8321 50.8553 60.0271 44.6598 60.0271 37.0182C60.0271 29.3755 53.8316 23.1796 46.19 23.1796C45.999 23.1796 45.8087 23.1835 45.6197 23.1912C43.8159 16.7955 37.9398 12.1094 30.9675 12.1094Z" fill="url(#paint0_linear_334_31369)"/>
</g>
<defs>
<linearGradient id="paint0_linear_334_31369" x1="32.3514" y1="12.1094" x2="32.3514" y2="50.8553" gradientUnits="userSpaceOnUse">
<stop stop-color="white"/>
<stop offset="1" stop-color="#C8F7FF"/>
</linearGradient>
</defs>
</svg>
