<svg width="20" height="21" viewBox="0 0 20 21" fill="none" xmlns="http://www.w3.org/2000/svg">
<path id="Union" fill-rule="evenodd" clip-rule="evenodd" d="M3.41504 5.7939L3.42 5.80422H3.43V5.78664L3.41504 5.7939ZM3.55198 5.60422H7.05659C7.26049 4.91134 7.90355 4.41422 8.66 4.41422V4.42422C8.78883 4.42422 8.91255 4.43446 9.0348 4.46229L10.95 1.15422L10.9542 1.15663C11.0358 1.01119 11.2029 0.924219 11.37 0.924219H16.79V0.914219C16.96 0.914219 17.12 1.00422 17.21 1.15422L17.0578 1.2426C17.0617 1.24883 17.0654 1.25529 17.0689 1.26198L17.22 1.17422L19.92 5.84422C20.01 5.99422 20.01 6.18422 19.92 6.33422L18.027 9.61803C18.2834 9.91646 18.43 10.2981 18.43 10.7042C18.43 11.1332 18.2623 11.5461 17.9768 11.8504L19.93 15.2442C20.02 15.3942 20.02 15.5842 19.93 15.7342L17.22 20.4342C17.14 20.5842 16.97 20.6742 16.8 20.6742H11.38C11.21 20.6742 11.05 20.5842 10.96 20.4342L9.04819 17.132C8.92697 17.1589 8.79849 17.1742 8.67 17.1742C7.92352 17.1742 7.28152 16.6692 7.06898 15.9842H3.53939L2.82668 17.3925C3.19304 17.7046 3.42 18.161 3.42 18.6742C3.42 19.6042 2.67 20.3542 1.74 20.3542C0.81 20.3542 0.06 19.6042 0.06 18.6742C0.06 17.7442 0.81 16.9942 1.74 16.9942C1.80684 16.9942 1.87368 16.9979 1.94052 17.0053L2.69678 15.5192L0.12 11.0442C0.0308618 10.8957 0.0300082 10.7079 0.117439 10.5585L0.11 10.5542L2.69179 6.09477L1.77236 4.18308C1.74157 4.18422 1.71079 4.18422 1.68 4.18422C0.75 4.18422 0 3.43422 0 2.50422C0 1.57422 0.75 0.824219 1.68 0.824219C2.61 0.824219 3.36 1.57422 3.36 2.50422H3.34997C3.34689 3.04017 3.09644 3.51941 2.69878 3.82746L3.55198 5.60422ZM3.42596 15.8022L3.43 15.8042V15.7942L3.42596 15.8022ZM7.2 15.7942V15.8002L7.2012 15.8C7.20079 15.7981 7.2004 15.7961 7.2 15.7942ZM9.13241 16.9162L9.135 16.9242L9.14307 16.9195L9.14 16.9142C9.13748 16.9149 9.13495 16.9156 9.13241 16.9162ZM9.13741 4.67142L9.12772 4.6658L9.12256 4.68177C9.12504 4.68257 9.12752 4.68339 9.13 4.68422L9.13741 4.67142ZM2.055 17.8342L2.05 17.8442L2.054 17.8462L2.06 17.8342C2.05862 17.8337 2.05725 17.8331 2.05587 17.8326L2.055 17.8342ZM2.05583 17.8326L2.055 17.8342L1.9735 17.9876C1.97344 17.9876 1.97338 17.9876 1.97332 17.9876L2.05165 17.8309C2.05304 17.8315 2.05443 17.832 2.05583 17.8326ZM2.06117 17.8342L2.05617 17.8473L2.07 17.8542L2.07616 17.8368C2.07164 17.8353 2.0668 17.8343 2.06117 17.8342ZM2.05022 18.0235L2.05 18.0242C2.03 18.0142 1.98 17.9942 1.98 17.9942L1.98222 17.9898C1.97931 17.9891 1.97641 17.9883 1.9735 17.9876L1.97 17.9942L1.97332 17.9876C1.9021 17.97 1.83 17.9542 1.75 17.9542L1.76 17.9442V17.7743C1.75668 17.7742 1.75334 17.7742 1.75 17.7742V17.9542C1.37 17.9542 1.05 18.2642 1.05 18.6542C1.05 19.0342 1.36 19.3542 1.75 19.3542C2.13 19.3542 2.45 19.0442 2.45 18.6542C2.45 18.3818 2.28912 18.1378 2.05022 18.0235ZM2.10029 17.8642L2.10121 17.8613L2.10515 17.8517C2.10671 17.8525 2.10832 17.8534 2.11 17.8542C2.11381 17.8559 2.11761 17.8577 2.1214 17.8595L2.12 17.8642H2.10029ZM17.2128 9.09134C17.0641 9.04659 16.9071 9.02422 16.75 9.02422V9.03422C15.9662 9.03422 15.3044 9.57398 15.1218 10.3042H11.6581L11.03 9.21422L9.88709 7.2401C10.1724 6.9359 10.34 6.52304 10.34 6.09422C10.34 5.71422 10.21 5.34422 9.98 5.05422L9.83216 5.17038C9.8311 5.16867 9.82997 5.16692 9.82878 5.16518L9.97 5.05422C9.97 5.05422 9.95 5.03422 9.95 5.02422C9.92721 4.99687 9.90233 4.96951 9.87633 4.94216L11.638 1.89422H16.5062L18.9408 6.10909L17.2128 9.09134ZM19.1519 6.11822L19.16 6.10422L19.1562 6.0977L19.1364 6.10922L19.1519 6.11822ZM16.615 1.72422L16.61 1.72712V1.72422H16.615ZM11.5501 10.4871L11.5542 10.4942H11.56L11.5556 10.4967L11.56 10.5042V10.4942V10.4813L11.5501 10.4871ZM15.2714 10.4945C15.2716 10.4928 15.2719 10.4912 15.2721 10.4895L15.27 10.4892V10.4942L15.2714 10.4945ZM16.03 10.6942V10.7242V10.7442V10.7642V10.7842L15.86 10.7984V10.8031L16.03 10.7842C16.07 11.1442 16.38 11.4142 16.73 11.4142C16.85 11.4142 16.97 11.3842 17.08 11.3242L17.1747 11.4872C17.1764 11.4862 17.1782 11.4852 17.18 11.4842L17.09 11.3242C17.3072 11.2058 17.4366 10.9801 17.4399 10.7242H17.43C17.43 10.4942 17.32 10.2742 17.13 10.1442L17.2413 9.98517C17.2409 9.98485 17.2404 9.98453 17.24 9.98422C17.2377 9.9826 17.2355 9.981 17.2332 9.97942L17.13 10.1342C17.01 10.0542 16.88 10.0142 16.74 10.0142V9.83428C16.7367 9.83431 16.7333 9.83437 16.73 9.83444V10.0242C16.36 10.0242 16.05 10.3242 16.03 10.6942ZM15.86 10.7442V10.7526L15.91 10.7442H15.86ZM15.3203 11.1053C15.3202 11.1049 15.3201 11.1046 15.32 11.1042H15.3V11.1105L15.3203 11.1053ZM15.1701 11.2842H11.648L9.88441 14.3355C10.1713 14.64 10.34 15.0541 10.34 15.4842C10.34 15.9162 10.1699 16.3319 9.88082 16.6368L11.648 19.6942H16.5119L18.938 15.4844L17.1248 12.3534C17.0043 12.3806 16.8737 12.3942 16.75 12.3942C16.0272 12.3942 15.4013 11.936 15.1701 11.2842ZM19.1562 15.4777L19.145 15.4842L19.1681 15.4976L19.17 15.4942L19.1625 15.4812L19.1562 15.4777ZM16.62 19.8698V19.8642H16.61L16.62 19.8698ZM16.61 19.8713V19.8842H16.62V19.8771L16.61 19.8713ZM11.0151 10.7784L11.005 10.7842L11.0252 10.796L11.0151 10.7784ZM9.04233 13.8218L10.798 10.7842L9.02809 7.72202C8.91005 7.74824 8.78511 7.76342 8.66 7.76419V7.76422C8.65829 7.76422 8.65658 7.76422 8.65487 7.76421C8.65324 7.76422 8.65162 7.76422 8.65 7.76422V7.76419C8.46402 7.76316 8.29701 7.73334 8.13 7.68422L8.14 7.67422L8.18968 7.52067C8.18765 7.51996 8.18563 7.51925 8.1836 7.51854L8.13 7.68422C7.615 7.51868 7.20149 7.09942 7.04502 6.57422H3.50813L1.08193 10.7841L3.50801 14.9842H7.05421C7.06636 14.9402 7.0809 14.8972 7.1 14.8542C7.15 14.7142 7.22 14.5942 7.3 14.4842C7.6 14.0542 8.1 13.7842 8.66 13.7842C8.79516 13.7842 8.92021 13.7943 9.04233 13.8218ZM7.20331 15.1709L7.19 15.1682V15.1842H7.2C7.2011 15.1798 7.20221 15.1754 7.20331 15.1709ZM3.41 15.1669V15.1613L3.40758 15.1627L3.41 15.1669ZM8.55251 5.38422C8.22629 5.44024 7.97 5.7252 7.97 6.07422C7.97 6.36284 8.14829 6.61183 8.39643 6.72264L8.4 6.71422C8.48 6.75422 8.57 6.77422 8.67 6.77422V6.76422C8.79 6.76422 8.9 6.73422 9.01 6.67422L9.01062 6.67532C9.01541 6.67422 9.02 6.67422 9.02 6.67422L9.02425 6.68177C9.23189 6.56111 9.37 6.33246 9.37 6.07422C9.37 5.84422 9.25 5.62422 9.06 5.49422C9.05 5.48422 9.02 5.46422 9.02 5.46422L9.02681 5.45249C8.91787 5.39364 8.80874 5.36422 8.68 5.36422V5.20422H8.67V5.37422C8.66666 5.37422 8.66333 5.37424 8.66 5.37429V5.38422H8.55251ZM4.35579 13.5096L4.35847 13.5142H4.36L4.35884 13.5149L4.37 13.5342V13.5013L4.35579 13.5096ZM4.4681 13.3242H6.36C6.63 13.3242 6.85 13.5442 6.85 13.8142C6.85 14.0842 6.63 14.3042 6.36 14.3042V14.2942H6.35V14.3242H6.29L6.2525 14.2942H4.19C4.02 14.2942 3.86 14.2042 3.77 14.0542L2.01 11.0042C1.92 10.8542 1.92 10.6642 2.01 10.5142L3.77 7.46422C3.85 7.31422 4.02 7.22422 4.19 7.22422H6.36C6.63 7.22422 6.85 7.44422 6.85 7.71422C6.85 7.98422 6.63 8.20422 6.36 8.20422H4.4681L2.9919 10.7642L4.4681 13.3242ZM15.85 19.0142V18.9942H12.33C12.16 18.9942 12 18.9042 11.91 18.7542L10.83 16.8842C10.7 16.6442 10.78 16.3442 11.01 16.2142V16.2242L11.113 16.4017C11.1145 16.4009 11.1161 16.4002 11.1176 16.3995L11.01 16.2142C11.25 16.0842 11.55 16.1642 11.68 16.3942H11.67L11.4913 16.498C11.4924 16.4993 11.4934 16.5006 11.4944 16.502L11.68 16.3942L12.6182 18.0242H15.5819L17.0581 15.4643L16.07 13.7542C15.94 13.5142 16.02 13.2142 16.25 13.0842V13.0942L16.3517 13.2694C16.3533 13.2688 16.3549 13.2681 16.3564 13.2675L16.25 13.0842C16.49 12.9542 16.79 13.0342 16.92 13.2642H16.91L16.7244 13.372C16.7254 13.3733 16.7264 13.3747 16.7274 13.376L16.92 13.2642L18.05 15.2142C18.14 15.3642 18.14 15.5542 18.05 15.7042L16.29 18.7542C16.2233 18.8794 16.0939 18.9627 15.9541 18.9869L15.92 19.0142H15.85ZM15.87 18.8576V18.853C15.8688 18.8531 15.8675 18.8532 15.8663 18.8533L15.87 18.8576ZM15.691 18.2077L15.68 18.2269V18.2013L15.691 18.2077ZM15.67 18.2298V18.2242H15.66L15.67 18.2298ZM12.51 18.2442V18.2071L12.4865 18.2208L12.49 18.2268V18.2242H12.5L12.4913 18.2291L12.5 18.2442H12.51ZM17.0879 6.05394L16.2 7.58422C16.0606 7.81322 16.1393 8.11161 16.3769 8.25238L16.37 8.26422C16.4367 8.29755 16.5033 8.32394 16.57 8.33181V8.35422H16.66L16.6857 8.31823C16.8265 8.29584 16.9535 8.21169 17.03 8.08422L18.06 6.30422C18.15 6.15422 18.15 5.96422 18.06 5.81422L16.3 2.76422C16.21 2.61422 16.05 2.52422 15.88 2.52422H12.36C12.19 2.52422 12.02 2.61422 11.94 2.76422L10.86 4.63422C10.72 4.86422 10.8 5.16422 11.04 5.30422L11.0444 5.29667C11.2738 5.4232 11.5709 5.34276 11.71 5.11422L11.7025 5.10987L12.6379 3.49422H15.6119L17.0879 6.05394ZM1.68 1.61422C1.67666 1.61422 1.67333 1.61424 1.67 1.61427V1.80422C1.29 1.80422 0.97 2.11422 0.97 2.50422L0.79 2.50422C0.79 2.50756 0.790019 2.51089 0.790056 2.51422H0.98C0.98 2.89422 1.29 3.21422 1.68 3.21422L1.68 3.39422C1.68334 3.39422 1.68667 3.3942 1.69 3.39416V3.20422C2.07 3.20422 2.39 2.89422 2.39 2.50422L2.57 2.50422C2.57 2.50088 2.56998 2.49755 2.56994 2.49422H2.38C2.38 2.11422 2.07 1.79422 1.68 1.79422L1.68 1.61422ZM9.01 16.0942C9.11 16.0442 9.19 15.9642 9.25 15.8642C9.32 15.7542 9.36 15.6242 9.36 15.4842C9.36 15.2342 9.23 14.9942 9.01 14.8742C8.90283 14.8158 8.79566 14.7858 8.67 14.7843V14.7942C8.39 14.7942 8.14 14.9542 8.03 15.1942L8.01353 15.1862C7.96827 15.2731 7.95 15.3691 7.95 15.4742H7.77021C7.77014 15.4775 7.77009 15.4809 7.77005 15.4842H7.96C7.96 15.8642 8.27 16.1842 8.66 16.1842C8.78 16.1842 8.9 16.1542 9.01 16.0942Z" fill="#829AAC"/>
</svg>
