<svg width="122" height="110" viewBox="0 0 122 110" fill="none" xmlns="http://www.w3.org/2000/svg">
<g opacity="0.15" filter="url(#filter0_f_271_37681)">
<path fill-rule="evenodd" clip-rule="evenodd" d="M30.9674 57.2461C47.7075 47.5812 74.8491 47.5812 91.5892 57.2461C108.329 66.911 108.329 82.5812 91.5892 92.2461C74.8491 101.911 47.7075 101.911 30.9674 92.2461C14.2273 82.5812 14.2273 66.911 30.9674 57.2461ZM86.5279 76.2913C87.5412 75.9989 88.1811 75.4009 88.1811 74.7471C88.1811 74.093 87.5409 73.4952 86.5279 73.2026L62.6175 66.3002C61.7754 66.0573 60.7842 66.0573 59.9425 66.3004L36.0321 73.2028C35.0188 73.4952 34.3789 74.0932 34.3789 74.747C34.3789 75.4011 35.0191 75.9989 36.0321 76.2915L59.9425 83.1939C60.7846 83.4368 61.7757 83.4368 62.6175 83.1937L86.5279 76.2913ZM44.0569 74.7471L61.2798 69.7752L78.5031 74.747L61.2801 79.7189L44.0569 74.7471Z" fill="#23B5E9"/>
</g>
<path opacity="0.2" d="M104.309 76.9414V34.1953L61.3832 46.7662L18.4575 35.6388V73.8755C18.2168 82.5328 26.0683 99.8476 59.3992 99.8476C92.73 99.8476 103.227 84.5768 104.309 76.9414Z" fill="url(#paint0_linear_271_37681)"/>
<path fill-rule="evenodd" clip-rule="evenodd" d="M30.9674 18.0742C47.7075 8.40932 74.8491 8.40932 91.5892 18.0742C108.329 27.7391 108.329 43.4093 91.5892 53.0742C74.8491 62.7391 47.7075 62.7391 30.9674 53.0742C14.2273 43.4093 14.2273 27.7391 30.9674 18.0742ZM86.5279 37.1195C87.5412 36.827 88.1811 36.2291 88.1811 35.5753C88.1811 34.9211 87.5409 34.3233 86.5279 34.0307L62.6175 27.1284C61.7754 26.8855 60.7842 26.8855 59.9425 27.1285L36.0321 34.0309C35.0188 34.3233 34.3789 34.9213 34.3789 35.5751C34.3789 36.2292 35.0191 36.827 36.0321 37.1196L59.9425 44.022C60.7846 44.2649 61.7757 44.2649 62.6175 44.0218L86.5279 37.1195ZM44.0569 35.5753L61.2798 30.6033L78.5031 35.5751L61.2801 40.547L44.0569 35.5753Z" fill="url(#paint1_linear_271_37681)"/>
<defs>
<filter id="filter0_f_271_37681" x="16.4126" y="47.9961" width="89.7314" height="53.5" filterUnits="userSpaceOnUse" color-interpolation-filters="sRGB">
<feFlood flood-opacity="0" result="BackgroundImageFix"/>
<feBlend mode="normal" in="SourceGraphic" in2="BackgroundImageFix" result="shape"/>
<feGaussianBlur stdDeviation="1" result="effect1_foregroundBlur_271_37681"/>
</filter>
<linearGradient id="paint0_linear_271_37681" x1="61.6098" y1="20.6931" x2="61.6098" y2="99.6598" gradientUnits="userSpaceOnUse">
<stop offset="0.317708" stop-color="#B4B4C3"/>
<stop offset="1" stop-color="#B4B4C3" stop-opacity="0"/>
</linearGradient>
<linearGradient id="paint1_linear_271_37681" x1="91.5892" y1="18.0742" x2="61.2783" y2="70.5742" gradientUnits="userSpaceOnUse">
<stop stop-color="#23B5E9"/>
<stop offset="1" stop-color="#00DED0"/>
</linearGradient>
</defs>
</svg>
