<svg width="122" height="100" viewBox="0 0 122 100" fill="none" xmlns="http://www.w3.org/2000/svg">
<g opacity="0.15" filter="url(#filter0_f_345_31926)">
<path fill-rule="evenodd" clip-rule="evenodd" d="M30.7353 46.875C47.4754 37.2101 74.6169 37.2101 91.357 46.875C108.097 56.5399 108.097 72.2101 91.357 81.875C74.6169 91.5399 47.4753 91.5399 30.7352 81.875C13.9952 72.2101 13.9952 56.5399 30.7353 46.875ZM86.2957 65.9203C87.309 65.6278 87.9489 65.0299 87.9489 64.3761C87.9489 63.7219 87.3087 63.1241 86.2957 62.8315L62.3853 55.9292C61.5432 55.6863 60.5521 55.6863 59.7103 55.9293L35.7999 62.8317C34.7866 63.1241 34.1467 63.7221 34.1467 64.3759C34.1467 65.03 34.7869 65.6278 35.7999 65.9204L59.7103 72.8228C60.5524 73.0657 61.5435 73.0657 62.3853 72.8226L86.2957 65.9203ZM43.8247 64.3761L61.0477 59.4041L78.2709 64.3759L61.048 69.3478L43.8247 64.3761Z" fill="#23B5E9"/>
</g>
<path opacity="0.2" d="M104.077 66.5742V33.8281L61.1511 46.399L18.2253 35.2716V63.5083C17.9847 72.1656 25.8362 89.4804 59.1671 89.4804C92.4979 89.4804 102.995 74.2096 104.077 66.5742Z" fill="url(#paint0_linear_345_31926)"/>
<path fill-rule="evenodd" clip-rule="evenodd" d="M30.735 17.7031C47.4751 8.03823 74.6167 8.03823 91.3568 17.7031C108.097 27.368 108.097 43.0382 91.3568 52.7031C74.6167 62.368 47.4751 62.368 30.735 52.7031C13.9949 43.0382 13.9949 27.368 30.735 17.7031ZM86.2955 36.7484C87.3088 36.456 87.9486 35.858 87.9486 35.2042C87.9486 34.55 87.3085 33.9522 86.2955 33.6596L62.385 26.7573C61.543 26.5144 60.5518 26.5144 59.7101 26.7575L35.7997 33.6598C34.7864 33.9522 34.1465 34.5502 34.1465 35.204C34.1465 35.8582 34.7867 36.456 35.7997 36.7486L59.7101 43.6509C60.5521 43.8938 61.5433 43.8938 62.385 43.6507L86.2955 36.7484ZM43.8245 35.2042L61.0474 30.2323L78.2707 35.204L61.0477 40.1759L43.8245 35.2042Z" fill="url(#paint1_linear_345_31926)"/>
<defs>
<filter id="filter0_f_345_31926" x="16.1802" y="37.625" width="89.7319" height="53.5" filterUnits="userSpaceOnUse" color-interpolation-filters="sRGB">
<feFlood flood-opacity="0" result="BackgroundImageFix"/>
<feBlend mode="normal" in="SourceGraphic" in2="BackgroundImageFix" result="shape"/>
<feGaussianBlur stdDeviation="1" result="effect1_foregroundBlur_345_31926"/>
</filter>
<linearGradient id="paint0_linear_345_31926" x1="61.3777" y1="10.326" x2="61.3777" y2="89.2926" gradientUnits="userSpaceOnUse">
<stop offset="0.317708" stop-color="#B4B4C3"/>
<stop offset="1" stop-color="#B4B4C3" stop-opacity="0"/>
</linearGradient>
<linearGradient id="paint1_linear_345_31926" x1="91.3568" y1="17.7031" x2="61.0459" y2="70.2031" gradientUnits="userSpaceOnUse">
<stop stop-color="#23B5E9"/>
<stop offset="1" stop-color="#00DED0"/>
</linearGradient>
</defs>
</svg>
