<svg width="122" height="110" viewBox="0 0 122 110" fill="none" xmlns="http://www.w3.org/2000/svg">
<g id="Group 1000001118">
<g id="Vector" opacity="0.3" filter="url(#filter0_f_270_31451)">
<path fill-rule="evenodd" clip-rule="evenodd" d="M30.6891 57.2461C47.4292 47.5812 74.5708 47.5812 91.3109 57.2461C108.051 66.911 108.051 82.5812 91.3109 92.2461C74.5708 101.911 47.4292 101.911 30.6891 92.2461C13.949 82.5812 13.949 66.911 30.6891 57.2461ZM86.2496 76.2913C87.2629 75.9989 87.9027 75.4009 87.9027 74.7471C87.9027 74.093 87.2626 73.4952 86.2496 73.2026L62.3391 66.3002C61.4971 66.0573 60.5059 66.0573 59.6642 66.3004L35.7538 73.2028C34.7405 73.4952 34.1006 74.0932 34.1006 74.747C34.1006 75.4011 34.7408 75.9989 35.7538 76.2915L59.6642 83.1939C60.5062 83.4368 61.4974 83.4368 62.3391 83.1937L86.2496 76.2913ZM43.7786 74.7471L61.0015 69.7752L78.2248 74.747L61.0018 79.7189L43.7786 74.7471Z" fill="#AECAD3"/>
</g>
<path id="Vector 250" opacity="0.2" d="M104.031 76.9414V34.1953L61.1049 46.7662L18.1791 35.6388V73.8755C17.9385 82.5328 25.79 99.8476 59.1209 99.8476C92.4517 99.8476 102.949 84.5768 104.031 76.9414Z" fill="url(#paint0_linear_270_31451)"/>
<path id="Vector_2" fill-rule="evenodd" clip-rule="evenodd" d="M30.6891 18.0742C47.4292 8.40932 74.5708 8.40932 91.3109 18.0742C108.051 27.7391 108.051 43.4093 91.3109 53.0742C74.5708 62.7391 47.4292 62.7391 30.6891 53.0742C13.949 43.4093 13.949 27.7391 30.6891 18.0742ZM86.2496 37.1195C87.2629 36.827 87.9027 36.2291 87.9027 35.5753C87.9027 34.9211 87.2626 34.3233 86.2496 34.0307L62.3391 27.1284C61.4971 26.8855 60.5059 26.8855 59.6642 27.1285L35.7538 34.0309C34.7405 34.3233 34.1006 34.9213 34.1006 35.5751C34.1006 36.2292 34.7408 36.827 35.7538 37.1196L59.6642 44.022C60.5062 44.2649 61.4974 44.2649 62.3391 44.0218L86.2496 37.1195ZM43.7786 35.5753L61.0015 30.6033L78.2248 35.5751L61.0018 40.547L43.7786 35.5753Z" fill="#284C59"/>
</g>
<defs>
<filter id="filter0_f_270_31451" x="16.1343" y="47.9961" width="89.7314" height="53.5" filterUnits="userSpaceOnUse" color-interpolation-filters="sRGB">
<feFlood flood-opacity="0" result="BackgroundImageFix"/>
<feBlend mode="normal" in="SourceGraphic" in2="BackgroundImageFix" result="shape"/>
<feGaussianBlur stdDeviation="1" result="effect1_foregroundBlur_270_31451"/>
</filter>
<linearGradient id="paint0_linear_270_31451" x1="61.3315" y1="20.6931" x2="61.3315" y2="99.6598" gradientUnits="userSpaceOnUse">
<stop offset="0.317708" stop-color="#397489"/>
<stop offset="1" stop-color="#23B5E9" stop-opacity="0"/>
</linearGradient>
</defs>
</svg>
