<svg width="20" height="21" viewBox="0 0 20 21" fill="none" xmlns="http://www.w3.org/2000/svg">
<path fill-rule="evenodd" clip-rule="evenodd" d="M0 10.8242C0 5.30142 4.4772 0.824219 10 0.824219C15.5228 0.824219 20 5.30142 20 10.8242C20 16.347 15.5228 20.8242 10 20.8242C4.4772 20.8242 0 16.347 0 10.8242ZM14.6066 7.10062C14.6902 6.84992 14.6249 6.57352 14.4381 6.38672C14.2512 6.19982 13.9748 6.13462 13.7241 6.21812L7.8078 8.19022C7.5995 8.25972 7.436 8.42322 7.3666 8.63152L5.3945 14.5478C5.3109 14.7985 5.3762 15.0749 5.563 15.2617C5.7499 15.4486 6.0263 15.5138 6.277 15.4303L12.1933 13.4582C12.4016 13.3887 12.5651 13.2252 12.6345 13.0169L14.6066 7.10062ZM7.1595 13.6653L8.58 9.40372L12.8416 7.98312L11.4211 12.2447L7.1595 13.6653Z" fill="#23B5E9"/>
</svg>
