<svg width="122" height="101" viewBox="0 0 122 101" fill="none" xmlns="http://www.w3.org/2000/svg">
<g opacity="0.3" filter="url(#filter0_f_345_31794)">
<path fill-rule="evenodd" clip-rule="evenodd" d="M30.6143 47.5781C47.3544 37.9132 74.496 37.9132 91.2361 47.5781C107.976 57.243 107.976 72.9132 91.2361 82.5781C74.496 92.243 47.3544 92.243 30.6143 82.5781C13.8742 72.9132 13.8742 57.243 30.6143 47.5781ZM86.1748 66.6234C87.1881 66.331 87.8279 65.733 87.8279 65.0792C87.8279 64.425 87.1878 63.8272 86.1748 63.5346L62.2643 56.6323C61.4223 56.3894 60.4311 56.3894 59.5894 56.6325L35.679 63.5348C34.6657 63.8272 34.0258 64.4252 34.0258 65.079C34.0258 65.7332 34.666 66.331 35.679 66.6236L59.5894 73.5259C60.4314 73.7688 61.4226 73.7688 62.2643 73.5257L86.1748 66.6234ZM43.7038 65.0792L60.9267 60.1073L78.15 65.079L60.927 70.0509L43.7038 65.0792Z" fill="#AECAD3"/>
</g>
<path opacity="0.2" d="M103.956 67.2773V34.5312L61.0302 47.1021L18.1044 35.9747V64.2114C17.8638 72.8688 25.7153 90.1835 59.0462 90.1835C92.377 90.1835 102.874 74.9127 103.956 67.2773Z" fill="url(#paint0_linear_345_31794)"/>
<path fill-rule="evenodd" clip-rule="evenodd" d="M30.6141 18.4063C47.3542 8.74135 74.4958 8.74135 91.2359 18.4062C107.976 28.0711 107.976 43.7414 91.2359 53.4063C74.4958 63.0712 47.3542 63.0712 30.6141 53.4063C13.874 43.7414 13.874 28.0712 30.6141 18.4063ZM86.1746 37.4515C87.1878 37.1591 87.8277 36.5611 87.8277 35.9073C87.8277 35.2532 87.1875 34.6553 86.1746 34.3627L62.2641 27.4604C61.4221 27.2175 60.4309 27.2175 59.5892 27.4606L35.6787 34.3629C34.6655 34.6554 34.0256 35.2533 34.0256 35.9071C34.0256 36.5613 34.6658 37.1591 35.6787 37.4517L59.5892 44.354C60.4312 44.5969 61.4224 44.5969 62.2641 44.3538L86.1746 37.4515ZM43.7036 35.9073L60.9265 30.9354L78.1497 35.9071L60.9268 40.8791L43.7036 35.9073Z" fill="#284C59"/>
<defs>
<filter id="filter0_f_345_31794" x="16.0592" y="38.3281" width="89.7319" height="53.5" filterUnits="userSpaceOnUse" color-interpolation-filters="sRGB">
<feFlood flood-opacity="0" result="BackgroundImageFix"/>
<feBlend mode="normal" in="SourceGraphic" in2="BackgroundImageFix" result="shape"/>
<feGaussianBlur stdDeviation="1" result="effect1_foregroundBlur_345_31794"/>
</filter>
<linearGradient id="paint0_linear_345_31794" x1="61.2568" y1="11.0291" x2="61.2568" y2="89.9958" gradientUnits="userSpaceOnUse">
<stop offset="0.317708" stop-color="#397489"/>
<stop offset="1" stop-color="#23B5E9" stop-opacity="0"/>
</linearGradient>
</defs>
</svg>
