<svg width="20" height="21" viewBox="0 0 20 21" fill="none" xmlns="http://www.w3.org/2000/svg">
<path fill-rule="evenodd" clip-rule="evenodd" d="M1.3953 10.8242C1.3953 6.072 5.2478 2.21957 10 2.21957C14.7522 2.21957 18.6047 6.072 18.6047 10.8242C18.6047 15.5764 14.7522 19.4289 10 19.4289C5.2478 19.4289 1.3953 15.5764 1.3953 10.8242ZM10 0.824219C4.4772 0.824219 0 5.30137 0 10.8242C0 16.347 4.4772 20.8242 10 20.8242C15.5228 20.8242 20 16.347 20 10.8242C20 5.30137 15.5228 0.824219 10 0.824219ZM14.6073 7.10192C14.6909 6.85122 14.6256 6.57482 14.4388 6.38796C14.2519 6.2011 13.9755 6.13585 13.7248 6.21942L7.80851 8.19151C7.60021 8.26096 7.43671 8.42443 7.36731 8.63276L5.39521 14.549C5.31161 14.7997 5.37691 15.0761 5.56371 15.263C5.75061 15.4499 6.02701 15.5151 6.27771 15.4315L12.194 13.4594C12.4023 13.39 12.5658 13.2265 12.6352 13.0182L14.6073 7.10192ZM7.16021 13.6665L8.58071 9.4049L12.8423 7.98441L11.4218 12.246L7.16021 13.6665Z" fill="#829AAC"/>
</svg>
