<svg width="327" height="305" viewBox="0 0 327 305" fill="none" xmlns="http://www.w3.org/2000/svg">
<path d="M287.124 23.4648H88.0776V221.974H287.124V23.4648Z" fill="white"/>
<path d="M104.224 39.4489C104.224 41.781 102.342 43.6673 100.015 43.6673C97.6883 43.6673 95.7969 41.781 95.7969 39.4489C95.7969 37.1168 97.689 35.2305 100.015 35.2305C102.342 35.2305 104.224 37.1168 104.224 39.4489Z" fill="#24B5E9"/>
<path d="M119.944 39.4489C119.944 41.781 118.062 43.6673 115.735 43.6673C113.408 43.6673 111.517 41.781 111.517 39.4489C111.517 37.1168 113.409 35.2305 115.735 35.2305C118.062 35.2305 119.944 37.1168 119.944 39.4489Z" fill="#24B5E9"/>
<path d="M135.664 39.4489C135.664 41.781 133.783 43.6673 131.456 43.6673C129.129 43.6673 127.237 41.781 127.237 39.4489C127.237 37.1168 129.129 35.2305 131.456 35.2305C133.782 35.2305 135.664 37.1168 135.664 39.4489Z" fill="#24B5E9"/>
<path d="M167.009 148.543H1.41895V200.212H167.009V148.543Z" fill="white"/>
<path d="M167.008 148.543H115.211V200.212H167.008V148.543Z" fill="#ABF68B"/>
<path d="M61.346 247.562C56.3033 246.18 52.8366 241.757 50.9218 236.806C48.8413 231.427 48.4405 225.376 49.7935 219.768C49.9167 219.257 50.4295 218.942 50.9399 219.066C51.4504 219.19 51.7627 219.705 51.6402 220.216C50.3773 225.449 50.7509 231.097 52.6929 236.117C54.1381 239.853 56.627 243.488 60.251 245.141C59.556 243.178 59.1597 240.75 59.8804 238.236C60.9709 234.43 64.7023 231.824 68.2113 232.43C71.0979 232.928 73.4529 235.508 73.8114 238.563C74.1389 241.368 72.7965 244.334 70.3916 246.12C68.5577 247.481 66.2246 248.1 63.8334 247.969C67.5337 253.322 74.4103 256.393 80.8521 255.488C87.5601 254.544 93.5383 249.322 95.3881 242.79C95.5318 242.284 96.0536 241.99 96.5618 242.134C97.0663 242.278 97.3589 242.804 97.216 243.31C95.1658 250.545 88.5448 256.328 81.1153 257.373C73.3062 258.472 65.0676 254.303 61.346 247.562V247.562ZM62.6218 245.892C65.0282 246.344 67.4846 245.908 69.261 244.589C71.129 243.202 72.1741 240.924 71.9238 238.784C71.6667 236.584 69.9318 234.659 67.8884 234.306C65.0963 233.822 62.4343 236.22 61.706 238.762C61.098 240.884 61.4345 243.418 62.6218 245.891V245.892Z" fill="#8EC5FF"/>
<path d="M314.891 41.8913C314.546 41.8913 314.214 41.7025 314.045 41.3742C313.806 40.9064 313.989 40.3325 314.456 40.0914C319.29 37.5993 322.821 33.1678 323.901 28.2383C325.035 23.0646 323.251 17.4193 319.465 14.1918C317.573 12.5792 315.19 11.6254 312.769 11.3669C313.537 16.3003 310.85 20.3921 307.443 21.3125C304.675 22.0593 301.376 20.3542 300.913 17.4906C300.499 14.9287 302.365 12.6907 304.25 11.4511C306.021 10.285 308.103 9.62465 310.252 9.45103C309.158 6.76183 306.928 4.38196 304.073 3.23107C299.701 1.4691 294.071 2.272 289.376 5.32739C288.938 5.61321 288.349 5.48888 288.063 5.04687C287.777 4.60562 287.902 4.01577 288.342 3.72994C293.546 0.342474 299.847 -0.52638 304.782 1.46455C308.415 2.92932 311.141 5.99078 312.295 9.43207C315.323 9.61479 318.34 10.7354 320.695 12.7415C325.002 16.4125 327.036 22.8045 325.756 28.6469C324.557 34.1246 320.657 39.036 315.324 41.7851C315.186 41.8564 315.038 41.8905 314.891 41.8905V41.8913ZM310.814 11.31C308.836 11.4063 306.913 11.978 305.292 13.044C303.97 13.9143 302.52 15.5216 302.788 17.1866C303.067 18.9038 305.258 19.9303 306.949 19.4739C309.477 18.7908 311.639 15.4367 310.814 11.31Z" fill="#00C5C5"/>
<path d="M255.849 244.202L217.906 248.697L248.206 287.887L230.128 301.935L199.828 262.745L186.023 298.461C183.064 306.118 171.9 304.895 170.658 296.777L155.6 198.262C154.65 192.045 160.883 187.202 166.652 189.674L258.058 228.863C265.591 232.094 263.987 243.237 255.85 244.202H255.849Z" fill="white"/>
<path d="M311.798 160.362C329.639 142.476 329.639 113.477 311.798 95.5907C293.957 77.7045 265.031 77.7044 247.189 95.5907C229.348 113.477 229.348 142.476 247.189 160.362C265.031 178.249 293.957 178.249 311.798 160.362Z" fill="white"/>
<path d="M302.915 151.457C315.85 138.489 315.85 117.464 302.915 104.496C289.98 91.5286 269.008 91.5287 256.073 104.496C243.137 117.464 243.137 138.489 256.073 151.457C269.008 164.424 289.98 164.424 302.915 151.457Z" fill="#F6EB8B"/>
<g clip-path="url(#clip0_621_30578)">
<path d="M292.517 127.602C282.209 122.635 281.526 118.282 279.568 114.068C278.598 111.981 278.423 121.671 270.731 125.796C266.577 128.025 263.065 126.386 270.519 130.067C274.963 132.264 277.249 136.063 278.848 140.717C279.633 143.007 280.794 133.716 289.855 129.091C290.534 128.745 291.315 128.521 291.973 128.139C292.709 128.497 292.877 127.773 292.517 127.598V127.602ZM279.429 140.07C277.826 135.592 275.397 131.804 271.116 129.73C262.774 125.686 268.499 129.896 274.706 123.445C277.028 121.032 278.247 117.839 279.359 114.739C280.933 121.049 285.934 125.113 291.225 127.769C285.918 129.783 280.712 135.364 279.424 140.066L279.429 140.07Z" fill="#00002D"/>
<path d="M279.878 102.863C279.817 102.611 279.436 102.615 279.367 102.863C279.126 103.738 279.477 103.97 279.036 111.325C279.036 111.369 279.494 112.993 279.792 107.049C279.792 107.009 279.988 103.307 279.878 102.863Z" fill="#00002D"/>
<path d="M279.048 144.735C278.88 145.992 279.118 147.335 278.431 152.969C278.427 153.009 279.04 154.909 279.338 148.86C279.604 143.482 279.064 144.605 279.048 144.735Z" fill="#00002D"/>
<path d="M262.807 127.338C262.525 127.322 255.402 126.891 254.228 126.911C253.705 126.919 253.729 127.647 254.228 127.7C256.199 127.912 260.828 127.826 262.807 127.749C263.073 127.737 263.068 127.354 262.807 127.338Z" fill="#00002D"/>
<path d="M304.906 126.969C304.273 126.859 305.405 126.916 295.817 127.12C295.547 127.124 295.543 127.534 295.817 127.539C305.078 127.64 304.371 127.697 304.906 127.596C305.217 127.539 305.221 127.022 304.906 126.965V126.969Z" fill="#00002D"/>
<path d="M296.823 109.274C296.242 109.807 296.532 109.746 294.431 112.162C291.601 115.421 289.328 117.617 286.784 120.428C285.913 121.388 289.185 119.411 296.185 111.068C296.565 110.617 297.048 110.181 297.338 109.669C297.526 109.343 297.097 109.022 296.823 109.274Z" fill="#00002D"/>
<path d="M272.661 120.887C264.103 116.014 260.959 112.808 259.515 111.897C259.11 111.641 258.718 112.202 259.02 112.536C259.899 113.5 261.081 114.285 262.128 115.058C270.011 120.895 274.105 121.709 272.661 120.883V120.887Z" fill="#00002D"/>
<path d="M297.939 144.755C297.33 144.055 294.067 141.716 287.545 135.618C286.989 135.097 286.245 135.736 296.152 144.201C296.59 144.576 297.019 144.999 297.522 145.288C297.874 145.491 298.188 145.035 297.939 144.751V144.755Z" fill="#00002D"/>
<path d="M271.872 134.921C269.782 136.142 261.155 142.899 259.707 143.623C259.147 143.903 259.638 144.741 260.198 144.461C262.631 143.244 275.233 132.953 271.872 134.921Z" fill="#00002D"/>
<path d="M272.678 112.794C270.314 107.653 269.231 108.617 272.314 113.006C272.469 113.23 272.792 113.039 272.678 112.794Z" fill="#00002D"/>
<path d="M263.866 122.036C260.316 121.426 260.394 121.153 259.989 121.287C259.809 121.348 259.658 121.588 259.793 121.767C260.063 122.13 261.061 122.3 261.748 122.406C264.495 122.821 264.135 122.085 263.866 122.036Z" fill="#00002D"/>
<path d="M287.12 108.994C287.075 108.795 286.817 108.746 286.678 108.88C286.424 109.12 286.723 108.754 285.177 112.83C285.12 112.977 285.357 113.867 286.502 111.052C287.095 109.596 287.189 109.283 287.12 108.998V108.994Z" fill="#00002D"/>
<path d="M298.27 119.324C297.706 119.365 298.066 119.625 294.333 120.927C293.719 121.139 294.492 121.895 297.587 120.366C299.149 119.593 298.372 119.316 298.27 119.32V119.324Z" fill="#00002D"/>
<path d="M299.129 135.208C298.728 134.862 295.437 133.629 294.84 133.54C294.754 133.528 294.046 133.638 295.723 134.394C299.337 136.029 299.505 135.529 299.129 135.204V135.208Z" fill="#00002D"/>
<path d="M286.515 142.519C286.396 142.312 286.036 142.45 286.118 142.686C288.183 148.52 289.561 147.913 286.515 142.519Z" fill="#00002D"/>
<path d="M271.07 146.309C270.927 148.082 273.63 143.746 273.708 142.452C273.79 141.114 271.075 146.268 271.07 146.309Z" fill="#00002D"/>
<path d="M264.352 133.494C261.245 134.788 260.832 134.344 260.21 134.686C259.854 134.881 259.94 135.431 260.32 135.536C261.11 135.752 263.297 134.808 264.14 134.214C264.941 133.653 264.499 133.433 264.352 133.494Z" fill="#00002D"/>
</g>
<path d="M221.149 67.0508H102.874V131.529H221.149V67.0508Z" fill="#24B5E9"/>
<path d="M118.551 115.227C118.551 116.923 117.181 118.296 115.489 118.296C113.797 118.296 112.428 116.923 112.428 115.227C112.428 113.531 113.797 112.164 115.489 112.164C117.181 112.164 118.551 113.537 118.551 115.227Z" fill="white"/>
<path d="M138.171 93.6255C138.171 95.3215 136.8 96.6945 135.109 96.6945C133.417 96.6945 132.047 95.3215 132.047 93.6255C132.047 91.9295 133.417 90.5625 135.109 90.5625C136.8 90.5625 138.171 91.9355 138.171 93.6255Z" fill="white"/>
<path d="M155.936 112.161C155.936 113.857 154.566 115.23 152.874 115.23C151.181 115.23 149.812 113.857 149.812 112.161C149.812 110.465 151.182 109.098 152.874 109.098C154.566 109.098 155.936 110.471 155.936 112.161Z" fill="white"/>
<path d="M177.767 86.9849C177.767 88.6809 176.397 90.0539 174.705 90.0539C173.014 90.0539 171.644 88.6809 171.644 86.9849C171.644 85.2888 173.014 83.9219 174.705 83.9219C176.397 83.9219 177.767 85.2949 177.767 86.9849Z" fill="white"/>
<path d="M196.962 106.028C196.962 107.724 195.592 109.097 193.9 109.097C192.207 109.097 190.838 107.724 190.838 106.028C190.838 104.332 192.208 102.965 193.9 102.965C195.591 102.965 196.962 104.338 196.962 106.028Z" fill="white"/>
<path d="M209.817 84.9966C209.817 86.6926 208.446 88.0656 206.755 88.0656C205.063 88.0656 203.693 86.6926 203.693 84.9966C203.693 83.3006 205.063 81.9336 206.755 81.9336C208.446 81.9336 209.817 83.3066 209.817 84.9966Z" fill="white"/>
<path d="M100.016 34.7539C97.4282 34.7539 95.3228 36.8601 95.3228 39.4492C95.3228 42.0383 97.4282 44.1437 100.016 44.1437C102.604 44.1437 104.7 42.0376 104.7 39.4492C104.7 36.8608 102.599 34.7539 100.016 34.7539ZM100.016 43.1915C97.9515 43.1915 96.2726 41.5129 96.2726 39.4492C96.2726 37.3855 97.9515 35.7062 100.016 35.7062C102.081 35.7062 103.75 37.3855 103.75 39.4492C103.75 41.5129 102.075 43.1915 100.016 43.1915Z" fill="#00002D"/>
<path d="M115.735 34.7539C113.147 34.7539 111.042 36.8601 111.042 39.4492C111.042 42.0383 113.147 44.1437 115.735 44.1437C118.323 44.1437 120.419 42.0376 120.419 39.4492C120.419 36.8608 118.318 34.7539 115.735 34.7539ZM115.735 43.1915C113.671 43.1915 111.992 41.5129 111.992 39.4492C111.992 37.3855 113.671 35.7062 115.735 35.7062C117.8 35.7062 119.469 37.3855 119.469 39.4492C119.469 41.5129 117.795 43.1915 115.735 43.1915Z" fill="#00002D"/>
<path d="M131.456 34.7539C128.868 34.7539 126.762 36.8601 126.762 39.4492C126.762 42.0383 128.868 44.1437 131.456 44.1437C134.043 44.1437 136.139 42.0376 136.139 39.4492C136.139 36.8608 134.038 34.7539 131.456 34.7539ZM131.456 43.1915C129.391 43.1915 127.712 41.5129 127.712 39.4492C127.712 37.3855 129.391 35.7062 131.456 35.7062C133.52 35.7062 135.189 37.3855 135.189 39.4492C135.189 41.5129 133.515 43.1915 131.456 43.1915Z" fill="#00002D"/>
<path d="M24.2548 160.598H22.5835C21.3984 160.598 20.3699 161.241 19.799 162.191C19.2287 161.241 18.1995 160.598 17.0144 160.598H15.3431C15.0807 160.598 14.8682 160.811 14.8682 161.074C14.8682 161.337 15.0807 161.55 15.3431 161.55H17.0144C18.288 161.55 19.324 162.589 19.324 163.865V184.87C19.324 186.147 18.288 187.186 17.0144 187.186H15.7C15.4376 187.186 15.2251 187.399 15.2251 187.662C15.2251 187.925 15.4376 188.138 15.7 188.138H17.0144C18.1995 188.138 19.228 187.494 19.799 186.544C20.3692 187.495 21.3984 188.138 22.5835 188.138H23.8979C24.1603 188.138 24.3728 187.925 24.3728 187.662C24.3728 187.399 24.1603 187.186 23.8979 187.186H22.5835C21.31 187.186 20.2739 186.147 20.2739 184.87V163.865C20.2739 162.589 21.31 161.55 22.5835 161.55H24.2548C24.5172 161.55 24.7297 161.337 24.7297 161.074C24.7297 160.811 24.5172 160.598 24.2548 160.598Z" fill="#00002D"/>
<path d="M147.186 181.143L153.446 187.419C153.631 187.605 153.932 187.605 154.118 187.419C154.303 187.233 154.303 186.931 154.118 186.746L147.857 180.469C152.103 175.854 152.005 168.644 147.538 164.165C142.95 159.565 135.511 159.564 130.922 164.165C126.341 168.757 126.341 176.231 130.922 180.823C135.372 185.286 142.534 185.45 147.185 181.143H147.186ZM131.594 164.838C135.812 160.61 142.649 160.609 146.867 164.838C151.077 169.059 151.076 175.927 146.867 180.15C142.651 184.376 135.815 184.382 131.594 180.15C127.384 175.929 127.384 169.06 131.594 164.838Z" fill="#00002D"/>
<path d="M134.619 167.87C137.165 165.317 141.294 165.317 143.841 167.87C144.026 168.056 144.327 168.056 144.512 167.87C144.698 167.684 144.698 167.383 144.512 167.197C141.597 164.274 136.866 164.272 133.948 167.197C133.762 167.383 133.762 167.684 133.948 167.87C134.133 168.056 134.434 168.056 134.619 167.87Z" fill="#00002D"/>
<path d="M62.9587 115.957C63.1077 116.173 63.4034 116.228 63.6189 116.078C63.8345 115.929 63.8889 115.633 63.7399 115.416L43.315 85.7102C43.166 85.4933 42.871 85.4388 42.6547 85.5881C42.4392 85.7375 42.3848 86.0339 42.5337 86.25L62.9587 115.956V115.957Z" fill="#00002D"/>
<path d="M35.3335 75.7812C35.4825 75.9973 35.7782 76.0519 35.9937 75.9033C36.2093 75.7539 36.2637 75.4575 36.1147 75.2407L33.2031 71.0063C33.0542 70.7903 32.7592 70.7357 32.5429 70.885C32.3274 71.0344 32.2729 71.3308 32.4219 71.5469L35.3335 75.7812Z" fill="#00002D"/>
<path d="M71.0504 91.0119L71.3665 108.208C71.3718 108.468 71.5828 108.676 71.8414 108.676H71.8497C72.1121 108.67 72.3209 108.453 72.3163 108.191L72.0002 90.9953C71.9949 90.7322 71.7915 90.5116 71.517 90.5282C71.2546 90.5335 71.0458 90.7504 71.0504 91.0127V91.0119Z" fill="#00002D"/>
<path d="M71.0741 78.3913C71.0794 78.3913 71.0855 78.3913 71.0908 78.3913C71.3524 78.383 71.5574 78.1616 71.5491 77.8993L71.391 73.3268C71.3812 73.0645 71.1793 72.8605 70.8995 72.8674C70.6378 72.8765 70.4328 73.0971 70.4412 73.3594L70.5992 77.9319C70.6083 78.1889 70.8193 78.3921 71.0741 78.3921V78.3913Z" fill="#00002D"/>
<path d="M35.7491 115.424C35.666 115.673 35.8013 115.943 36.0494 116.026C57.0461 123.024 55.8421 122.655 55.9911 122.655C56.5288 122.655 56.649 121.897 56.1416 121.727L36.3504 115.122C36.0985 115.039 35.8316 115.175 35.7491 115.423V115.424Z" fill="#00002D"/>
<path d="M21.0816 111.029C25.151 112.378 24.968 112.348 25.1079 112.348C25.6441 112.348 25.7674 111.589 25.2584 111.42L21.3826 110.126C21.1315 110.043 20.8638 110.178 20.7814 110.427C20.6982 110.677 20.8336 110.946 21.0816 111.029Z" fill="#00002D"/>
<path d="M287.598 82.4191V23.4644C287.598 23.1983 287.381 22.9883 287.123 22.9883H88.0784C87.8084 22.9883 87.6027 23.2112 87.6027 23.4644V148.065H1.41975C1.15355 148.065 0.944824 148.281 0.944824 148.541V200.213C0.944824 200.473 1.15355 200.689 1.41975 200.689H87.6027V221.976C87.6027 222.236 87.8182 222.452 88.0776 222.452H158.815L170.188 296.847C171.51 305.454 183.326 306.753 186.464 298.631L199.965 263.7L229.755 302.225C229.913 302.434 230.211 302.472 230.419 302.313L248.499 288.264C248.688 288.111 248.753 287.811 248.582 287.597L218.799 249.073L255.902 244.673C264.548 243.654 266.214 231.837 258.245 228.427L244.313 222.452H287.123C287.389 222.452 287.598 222.236 287.598 221.976V173.523C301.555 171.009 314.189 162.114 320.915 148.407C334.432 120.862 317.798 87.8013 287.598 82.4183L287.598 82.4191ZM260.077 43.4298H233.739C233.605 43.4298 233.476 43.4867 233.386 43.5868L223.128 54.96H88.5541V23.9405H286.649V54.96H260.552V43.906C260.552 43.6429 260.34 43.4298 260.078 43.4298H260.077ZM1.89468 199.737V149.017H114.739V199.737H1.89468ZM166.534 189.116C160.516 186.785 154.145 191.846 155.129 198.334L155.344 199.738H115.689V149.018H166.535V189.116H166.534ZM88.5518 221.501V200.69H155.49L158.669 221.501H88.5526H88.5518ZM257.872 229.303C264.947 232.328 263.453 242.821 255.794 243.728L217.848 248.223C217.506 248.261 217.292 248.679 217.531 248.991L247.536 287.801L230.209 301.266L200.205 262.45C199.966 262.154 199.515 262.236 199.381 262.57L185.576 298.288C182.795 305.494 172.29 304.33 171.124 296.701C170.904 295.256 155.529 194.661 156.065 198.188C155.334 193.387 159.139 189.49 163.481 189.49C165.179 189.49 166.469 190.124 166.533 190.145C192.095 201.104 226.588 215.893 257.871 229.304L257.872 229.303ZM286.648 221.501H242.091L167.485 189.516V148.541C167.485 148.281 167.269 148.065 167.01 148.065H88.5526V55.9122H223.339C223.473 55.9122 223.602 55.8553 223.692 55.7553L233.95 44.3821H259.602V55.4361C259.602 55.6992 259.814 55.9122 260.077 55.9122H286.649V82.2599C267.214 79.2128 247.202 88.9446 238.077 107.553C226.836 130.446 236.278 158.241 259.12 169.504C267.763 173.773 277.384 175.163 286.649 173.681V221.5L286.648 221.501ZM320.059 147.989C313.499 161.359 301.2 170.05 287.598 172.552C287.281 172.615 286.965 172.666 286.648 172.718C277.569 174.194 268.127 172.886 259.538 168.648C237.171 157.62 227.925 130.397 238.924 107.973C247.872 89.7437 267.642 80.1082 286.648 83.2318C286.965 83.2765 287.281 83.3273 287.598 83.3903C316.938 88.6716 333.324 120.965 320.059 147.989Z" fill="#00002D"/>
<path d="M294.325 97.7573C277.701 89.5585 257.524 96.4472 249.346 113.112C241.168 129.777 248.039 150.005 264.662 158.203C281.321 166.419 301.48 159.476 309.64 142.848C317.819 126.183 310.948 105.955 294.325 97.7573ZM308.788 142.428C300.85 158.604 281.254 165.325 265.082 157.349C248.929 149.382 242.252 129.726 250.199 113.532C258.134 97.3638 277.729 90.6336 293.906 98.6118C310.059 106.579 316.735 126.235 308.788 142.428Z" fill="#00002D"/>
<path d="M221.624 131.528V67.0503C221.624 66.7873 221.412 66.5742 221.149 66.5742H102.874C102.611 66.5742 102.399 66.7873 102.399 67.0503V131.528C102.399 131.791 102.611 132.004 102.874 132.004H221.149C221.412 132.004 221.624 131.791 221.624 131.528ZM220.674 131.052H103.349V67.5265H220.674V131.052Z" fill="#00002D"/>
<path d="M138.581 94.2829C139.016 92.2267 137.396 90.0864 135.111 90.0864C133.161 90.0864 131.571 91.6733 131.571 93.6293C131.571 93.712 131.571 93.7946 131.584 93.8772C127.119 95.8454 122.167 101.8 116.594 111.863C114.284 111.106 111.952 112.843 111.952 115.228C111.952 117.183 113.542 118.771 115.486 118.771C117.43 118.771 119.026 117.184 119.026 115.228C119.026 114.003 118.405 112.923 117.455 112.282C122.794 102.638 127.595 96.8037 131.786 94.8416C132.839 97.7363 136.861 98.007 138.265 95.223C140.766 96.9751 142.578 100.518 144.35 103.971C145.921 107.037 147.428 109.99 149.379 111.64C149.01 113.638 150.638 115.704 152.874 115.704C154.824 115.704 156.408 114.117 156.408 112.161C156.408 111.971 156.395 111.787 156.357 111.602C159.087 109.412 161.348 104.917 163.697 100.231C166.078 95.4823 168.522 90.6133 171.454 88.3715C171.993 89.6414 173.247 90.53 174.703 90.53C176.16 90.53 177.528 89.5588 178.022 88.2001C182.707 91.5482 186.065 101.303 190.491 105.106C189.872 107.303 191.544 109.57 193.898 109.57C195.997 109.57 197.637 107.742 197.419 105.665C200.598 103.475 203.536 97.7992 206.323 88.511C206.462 88.5368 206.608 88.5428 206.753 88.5428C208.704 88.5428 210.293 86.9492 210.293 84.9939C210.293 83.0386 208.704 81.457 206.753 81.457C204.803 81.457 203.219 83.0439 203.219 84.9939C203.219 86.467 204.119 87.7361 205.398 88.2699C202.783 96.9993 200.022 102.485 197.166 104.675C196.062 102.015 192.396 101.71 190.883 104.186C186.61 100.291 183.27 90.4314 178.23 87.1963C178.243 87.1266 178.243 87.0507 178.243 86.9802C178.243 85.031 176.654 83.4442 174.703 83.4442C172.753 83.4442 171.169 85.031 171.169 86.9802C171.169 87.1137 171.175 87.2471 171.195 87.3737C167.927 89.6717 165.356 94.8022 162.848 99.8046C160.714 104.065 158.523 108.42 156.04 110.598C154.733 107.933 150.945 107.975 149.689 110.636C148.023 109.055 146.636 106.351 145.193 103.538C143.312 99.8682 141.386 96.1093 138.581 94.2813V94.2829ZM118.076 115.228C118.076 116.656 116.917 117.818 115.485 117.818C114.054 117.818 112.902 116.657 112.902 115.228C112.902 113.097 115.326 111.906 116.987 113.126C117.645 113.589 118.076 114.357 118.076 115.228ZM132.666 94.4868C132.086 92.856 133.294 91.0394 135.11 91.0394C137.019 91.0394 138.249 93.0455 137.447 94.7279C137.036 95.6104 133.432 96.6673 132.666 94.4868ZM204.169 84.9954C204.169 83.5731 205.328 82.4116 206.753 82.4116C208.179 82.4116 209.344 83.5731 209.344 84.9954C209.344 86.4177 208.178 87.5921 206.753 87.5921C206.391 87.5921 206.02 87.514 205.67 87.351C204.784 86.9385 204.169 86.0371 204.169 84.9954ZM193.898 103.444C195.336 103.444 196.488 104.603 196.488 106.028C196.488 107.454 195.326 108.619 193.898 108.619C191.881 108.619 190.711 106.399 191.631 104.804V104.797C192.061 103.99 192.916 103.444 193.898 103.444ZM174.703 84.3979C176.027 84.3979 177.116 85.3881 177.275 86.6641C177.469 88.2236 176.252 89.5777 174.703 89.5777C173.57 89.5777 172.607 88.8476 172.259 87.8256C172.136 87.4549 172.099 87.0523 172.126 86.8097C172.214 85.4639 173.335 84.3972 174.703 84.3972V84.3979ZM152.874 109.57C153.963 109.57 154.894 110.25 155.274 111.202C155.95 112.877 154.715 114.751 152.874 114.751C151.033 114.751 149.813 112.901 150.449 111.253C150.816 110.269 151.766 109.57 152.874 109.57Z" fill="#00002D"/>
<path d="M110.269 74.8116H139.883C140.145 74.8116 140.358 74.5986 140.358 74.3355C140.358 74.0724 140.145 73.8594 139.883 73.8594H110.269C110.007 73.8594 109.794 74.0724 109.794 74.3355C109.794 74.5986 110.007 74.8116 110.269 74.8116Z" fill="#00002D"/>
<path d="M110.269 79.6241H127.94C128.202 79.6241 128.415 79.4111 128.415 79.148C128.415 78.8849 128.202 78.6719 127.94 78.6719H110.269C110.007 78.6719 109.794 78.8849 109.794 79.148C109.794 79.4111 110.007 79.6241 110.269 79.6241Z" fill="#00002D"/>
<path d="M187.127 173.789C187.127 174.052 187.339 174.265 187.602 174.265H256.122C256.384 174.265 256.597 174.052 256.597 173.789C256.597 173.526 256.384 173.312 256.122 173.312H187.602C187.339 173.312 187.127 173.526 187.127 173.789Z" fill="#00002D"/>
<path d="M274.055 186.605H187.601C187.338 186.605 187.126 186.818 187.126 187.082C187.126 187.345 187.338 187.558 187.601 187.558H274.055C274.318 187.558 274.53 187.345 274.53 187.082C274.53 186.818 274.318 186.605 274.055 186.605Z" fill="#00002D"/>
<path d="M274.056 199.895H215.791C215.529 199.895 215.316 200.108 215.316 200.371C215.316 200.634 215.529 200.847 215.791 200.847H274.056C274.318 200.847 274.531 200.634 274.531 200.371C274.531 200.108 274.318 199.895 274.056 199.895Z" fill="#00002D"/>
<defs>
<clipPath id="clip0_621_30578">
<rect width="51.3001" height="50.6091" fill="white" transform="translate(253.844 102.676)"/>
</clipPath>
</defs>
</svg>
