<svg width="720" height="492" viewBox="0 0 720 492" fill="none" xmlns="http://www.w3.org/2000/svg">
<path d="M718.588 1.77198V16.1055H704.255V1.77198H718.588V0.816406H0V491.023H719.544V1.77198H718.588ZM703.299 1.77198V16.1055H688.965V1.77198H703.299ZM458.673 245.442H444.34V231.109H458.673V245.442ZM459.629 231.109H473.962V245.442H459.629V231.109ZM443.384 245.442H429.051V231.109H443.384V245.442ZM428.095 245.442H413.761V231.109H428.095V245.442ZM412.806 245.442H398.472V231.109H412.806V245.442ZM397.517 245.442H383.183V231.109H397.517V245.442ZM382.228 245.442H367.894V231.109H382.228V245.442ZM366.939 245.442H352.605V231.109H366.939V245.442ZM351.649 245.442H337.316V231.109H351.649V245.442ZM336.36 245.442H322.027V231.109H336.36V245.442ZM321.071 245.442H306.738V231.109H321.071V245.442ZM305.782 245.442H291.449V231.109H305.782V245.442ZM290.493 245.442H276.16V231.109H290.493V245.442ZM275.204 245.442H260.87V231.109H275.204V245.442ZM259.915 245.442H245.581V231.109H259.915V245.442ZM244.626 245.442H230.292V231.109H244.626V245.442ZM244.626 246.398V260.731H230.292V246.398H244.626ZM245.581 246.398H259.915V260.731H245.581V246.398ZM260.87 246.398H275.204V260.731H260.87V246.398ZM276.16 246.398H290.493V260.731H276.16V246.398ZM291.449 246.398H305.782V260.731H291.449V246.398ZM306.738 246.398H321.071V260.731H306.738V246.398ZM322.027 246.398H336.36V260.731H322.027V246.398ZM337.316 246.398H351.649V260.731H337.316V246.398ZM352.605 246.398H366.939V260.731H352.605V246.398ZM367.894 246.398H382.228V260.731H367.894V246.398ZM383.183 246.398H397.517V260.731H383.183V246.398ZM398.472 246.398H412.806V260.731H398.472V246.398ZM413.761 246.398H428.095V260.731H413.761V246.398ZM429.051 246.398H443.384V260.731H429.051V246.398ZM444.34 246.398H458.673V260.731H444.34V246.398ZM459.629 246.398H473.962V260.731H459.629V246.398ZM474.918 246.398H489.251V260.731H474.918V246.398ZM474.918 245.442V231.109H489.251V245.442H474.918ZM474.918 230.153V215.819H489.251V230.153H474.918ZM473.962 230.153H459.629V215.819H473.962V230.153ZM458.673 230.153H444.34V215.819H458.673V230.153ZM443.384 230.153H429.051V215.819H443.384V230.153ZM428.095 230.153H413.761V215.819H428.095V230.153ZM412.806 230.153H398.472V215.819H412.806V230.153ZM397.517 230.153H383.183V215.819H397.517V230.153ZM382.228 230.153H367.894V215.819H382.228V230.153ZM366.939 230.153H352.605V215.819H366.939V230.153ZM351.649 230.153H337.316V215.819H351.649V230.153ZM336.36 230.153H322.027V215.819H336.36V230.153ZM321.071 230.153H306.738V215.819H321.071V230.153ZM305.782 230.153H291.449V215.819H305.782V230.153ZM290.493 230.153H276.16V215.819H290.493V230.153ZM275.204 230.153H260.87V215.819H275.204V230.153ZM259.915 230.153H245.581V215.819H259.915V230.153ZM244.626 230.153H230.292V215.819H244.626V230.153ZM229.337 230.153H215.003V215.819H229.337V230.153ZM229.337 231.109V245.442H215.003V231.109H229.337ZM229.337 246.398V260.731H215.003V246.398H229.337ZM229.337 261.687V276.02H215.003V261.687H229.337ZM230.292 261.687H244.626V276.02H230.292V261.687ZM245.581 261.687H259.915V276.02H245.581V261.687ZM260.87 261.687H275.204V276.02H260.87V261.687ZM276.16 261.687H290.493V276.02H276.16V261.687ZM291.449 261.687H305.782V276.02H291.449V261.687ZM306.738 261.687H321.071V276.02H306.738V261.687ZM322.027 261.687H336.36V276.02H322.027V261.687ZM337.316 261.687H351.649V276.02H337.316V261.687ZM352.605 261.687H366.939V276.02H352.605V261.687ZM367.894 261.687H382.228V276.02H367.894V261.687ZM383.183 261.687H397.517V276.02H383.183V261.687ZM398.472 261.687H412.806V276.02H398.472V261.687ZM413.761 261.687H428.095V276.02H413.761V261.687ZM429.051 261.687H443.384V276.02H429.051V261.687ZM444.34 261.687H458.673V276.02H444.34V261.687ZM459.629 261.687H473.962V276.02H459.629V261.687ZM474.918 261.687H489.251V276.02H474.918V261.687ZM490.207 261.687H504.541V276.02H490.207V261.687ZM490.207 260.731V246.398H504.541V260.731H490.207ZM490.207 245.442V231.109H504.541V245.442H490.207ZM490.207 230.153V215.819H504.541V230.153H490.207ZM490.207 214.864V200.53H504.541V214.864H490.207ZM489.251 214.864H474.918V200.53H489.251V214.864ZM473.962 214.864H459.629V200.53H473.962V214.864ZM458.673 214.864H444.34V200.53H458.673V214.864ZM443.384 214.864H429.051V200.53H443.384V214.864ZM428.095 214.864H413.761V200.53H428.095V214.864ZM412.806 214.864H398.472V200.53H412.806V214.864ZM397.517 214.864H383.183V200.53H397.517V214.864ZM382.228 214.864H367.894V200.53H382.228V214.864ZM366.939 214.864H352.605V200.53H366.939V214.864ZM351.649 214.864H337.316V200.53H351.649V214.864ZM336.36 214.864H322.027V200.53H336.36V214.864ZM321.071 214.864H306.738V200.53H321.071V214.864ZM305.782 214.864H291.449V200.53H305.782V214.864ZM290.493 214.864H276.16V200.53H290.493V214.864ZM275.204 214.864H260.87V200.53H275.204V214.864ZM259.915 214.864H245.581V200.53H259.915V214.864ZM244.626 214.864H230.292V200.53H244.626V214.864ZM229.337 214.864H215.003V200.53H229.337V214.864ZM214.048 214.864H199.714V200.53H214.048V214.864ZM214.048 215.819V230.153H199.714V215.819H214.048ZM214.048 231.109V245.442H199.714V231.109H214.048ZM214.048 246.398V260.731H199.714V246.398H214.048ZM214.048 261.687V276.02H199.714V261.687H214.048ZM214.048 276.976V291.309H199.714V276.976H214.048ZM215.003 276.976H229.337V291.309H215.003V276.976ZM230.292 276.976H244.626V291.309H230.292V276.976ZM245.581 276.976H259.915V291.309H245.581V276.976ZM260.87 276.976H275.204V291.309H260.87V276.976ZM276.16 276.976H290.493V291.309H276.16V276.976ZM291.449 276.976H305.782V291.309H291.449V276.976ZM306.738 276.976H321.071V291.309H306.738V276.976ZM322.027 276.976H336.36V291.309H322.027V276.976ZM337.316 276.976H351.649V291.309H337.316V276.976ZM352.605 276.976H366.939V291.309H352.605V276.976ZM367.894 276.976H382.228V291.309H367.894V276.976ZM383.183 276.976H397.517V291.309H383.183V276.976ZM398.472 276.976H412.806V291.309H398.472V276.976ZM413.761 276.976H428.095V291.309H413.761V276.976ZM429.051 276.976H443.384V291.309H429.051V276.976ZM444.34 276.976H458.673V291.309H444.34V276.976ZM459.629 276.976H473.962V291.309H459.629V276.976ZM474.918 276.976H489.251V291.309H474.918V276.976ZM490.207 276.976H504.541V291.309H490.207V276.976ZM505.496 276.976H519.83V291.309H505.496V276.976ZM505.496 276.02V261.687H519.83V276.02H505.496ZM505.496 260.731V246.398H519.83V260.731H505.496ZM505.496 245.442V231.109H519.83V245.442H505.496ZM505.496 230.153V215.819H519.83V230.153H505.496ZM505.496 214.864V200.53H519.83V214.864H505.496ZM505.496 199.575V185.241H519.83V199.575H505.496ZM504.541 199.575H490.207V185.241H504.541V199.575ZM489.251 199.575H474.918V185.241H489.251V199.575ZM473.962 199.575H459.629V185.241H473.962V199.575ZM458.673 199.575H444.34V185.241H458.673V199.575ZM443.384 199.575H429.051V185.241H443.384V199.575ZM428.095 199.575H413.761V185.241H428.095V199.575ZM412.806 199.575H398.472V185.241H412.806V199.575ZM397.517 199.575H383.183V185.241H397.517V199.575ZM382.228 199.575H367.894V185.241H382.228V199.575ZM366.939 199.575H352.605V185.241H366.939V199.575ZM351.649 199.575H337.316V185.241H351.649V199.575ZM336.36 199.575H322.027V185.241H336.36V199.575ZM321.071 199.575H306.738V185.241H321.071V199.575ZM305.782 199.575H291.449V185.241H305.782V199.575ZM290.493 199.575H276.16V185.241H290.493V199.575ZM275.204 199.575H260.87V185.241H275.204V199.575ZM259.915 199.575H245.581V185.241H259.915V199.575ZM244.626 199.575H230.292V185.241H244.626V199.575ZM229.337 199.575H215.003V185.241H229.337V199.575ZM214.048 199.575H199.714V185.241H214.048V199.575ZM198.758 199.575H184.425V185.241H198.758V199.575ZM198.758 200.53V214.864H184.425V200.53H198.758ZM198.758 215.819V230.153H184.425V215.819H198.758ZM198.758 231.109V245.442H184.425V231.109H198.758ZM198.758 246.398V260.731H184.425V246.398H198.758ZM198.758 261.687V276.02H184.425V261.687H198.758ZM198.758 276.976V291.309H184.425V276.976H198.758ZM198.758 292.265V306.599H184.425V292.265H198.758ZM199.714 292.265H214.048V306.599H199.714V292.265ZM215.003 292.265H229.337V306.599H215.003V292.265ZM230.292 292.265H244.626V306.599H230.292V292.265ZM245.581 292.265H259.915V306.599H245.581V292.265ZM260.87 292.265H275.204V306.599H260.87V292.265ZM276.16 292.265H290.493V306.599H276.16V292.265ZM291.449 292.265H305.782V306.599H291.449V292.265ZM306.738 292.265H321.071V306.599H306.738V292.265ZM322.027 292.265H336.36V306.599H322.027V292.265ZM337.316 292.265H351.649V306.599H337.316V292.265ZM352.605 292.265H366.939V306.599H352.605V292.265ZM367.894 292.265H382.228V306.599H367.894V292.265ZM383.183 292.265H397.517V306.599H383.183V292.265ZM398.472 292.265H412.806V306.599H398.472V292.265ZM413.761 292.265H428.095V306.599H413.761V292.265ZM429.051 292.265H443.384V306.599H429.051V292.265ZM444.34 292.265H458.673V306.599H444.34V292.265ZM459.629 292.265H473.962V306.599H459.629V292.265ZM474.918 292.265H489.251V306.599H474.918V292.265ZM490.207 292.265H504.541V306.599H490.207V292.265ZM505.496 292.265H519.83V306.599H505.496V292.265ZM520.785 292.265H535.119V306.599H520.785V292.265ZM520.785 291.309V276.976H535.119V291.309H520.785ZM520.785 276.02V261.687H535.119V276.02H520.785ZM520.785 260.731V246.398H535.119V260.731H520.785ZM520.785 245.442V231.109H535.119V245.442H520.785ZM520.785 230.153V215.819H535.119V230.153H520.785ZM520.785 214.864V200.53H535.119V214.864H520.785ZM520.785 199.575V185.241H535.119V199.575H520.785ZM520.785 184.286V169.952H535.119V184.286H520.785ZM519.83 184.286H505.496V169.952H519.83V184.286ZM504.541 184.286H490.207V169.952H504.541V184.286ZM489.251 184.286H474.918V169.952H489.251V184.286ZM473.962 184.286H459.629V169.952H473.962V184.286ZM458.673 184.286H444.34V169.952H458.673V184.286ZM443.384 184.286H429.051V169.952H443.384V184.286ZM428.095 184.286H413.761V169.952H428.095V184.286ZM412.806 184.286H398.472V169.952H412.806V184.286ZM397.517 184.286H383.183V169.952H397.517V184.286ZM382.228 184.286H367.894V169.952H382.228V184.286ZM366.939 184.286H352.605V169.952H366.939V184.286ZM351.649 184.286H337.316V169.952H351.649V184.286ZM336.36 184.286H322.027V169.952H336.36V184.286ZM321.071 184.286H306.738V169.952H321.071V184.286ZM305.782 184.286H291.449V169.952H305.782V184.286ZM290.493 184.286H276.16V169.952H290.493V184.286ZM275.204 184.286H260.87V169.952H275.204V184.286ZM259.915 184.286H245.581V169.952H259.915V184.286ZM244.626 184.286H230.292V169.952H244.626V184.286ZM229.337 184.286H215.003V169.952H229.337V184.286ZM214.048 184.286H199.714V169.952H214.048V184.286ZM198.758 184.286H184.425V169.952H198.758V184.286ZM183.469 184.286H169.136V169.952H183.469V184.286ZM183.469 185.241V199.575H169.136V185.241H183.469ZM183.469 200.53V214.864H169.136V200.53H183.469ZM183.469 215.819V230.153H169.136V215.819H183.469ZM183.469 231.109V245.442H169.136V231.109H183.469ZM183.469 246.398V260.731H169.136V246.398H183.469ZM183.469 261.687V276.02H169.136V261.687H183.469ZM183.469 276.976V291.309H169.136V276.976H183.469ZM183.469 292.265V306.599H169.136V292.265H183.469ZM183.469 307.554V321.888H169.136V307.554H183.469ZM184.425 307.554H198.758V321.888H184.425V307.554ZM199.714 307.554H214.048V321.888H199.714V307.554ZM215.003 307.554H229.337V321.888H215.003V307.554ZM230.292 307.554H244.626V321.888H230.292V307.554ZM245.581 307.554H259.915V321.888H245.581V307.554ZM260.87 307.554H275.204V321.888H260.87V307.554ZM276.16 307.554H290.493V321.888H276.16V307.554ZM291.449 307.554H305.782V321.888H291.449V307.554ZM306.738 307.554H321.071V321.888H306.738V307.554ZM322.027 307.554H336.36V321.888H322.027V307.554ZM337.316 307.554H351.649V321.888H337.316V307.554ZM352.605 307.554H366.939V321.888H352.605V307.554ZM367.894 307.554H382.228V321.888H367.894V307.554ZM383.183 307.554H397.517V321.888H383.183V307.554ZM398.472 307.554H412.806V321.888H398.472V307.554ZM413.761 307.554H428.095V321.888H413.761V307.554ZM429.051 307.554H443.384V321.888H429.051V307.554ZM444.34 307.554H458.673V321.888H444.34V307.554ZM459.629 307.554H473.962V321.888H459.629V307.554ZM474.918 307.554H489.251V321.888H474.918V307.554ZM490.207 307.554H504.541V321.888H490.207V307.554ZM505.496 307.554H519.83V321.888H505.496V307.554ZM520.785 307.554H535.119V321.888H520.785V307.554ZM536.074 307.554H550.408V321.888H536.074V307.554ZM536.074 306.599V292.265H550.408V306.599H536.074ZM536.074 291.309V276.976H550.408V291.309H536.074ZM536.074 276.02V261.687H550.408V276.02H536.074ZM536.074 260.731V246.398H550.408V260.731H536.074ZM536.074 245.442V231.109H550.408V245.442H536.074ZM536.074 230.153V215.819H550.408V230.153H536.074ZM536.074 214.864V200.53H550.408V214.864H536.074ZM536.074 199.575V185.241H550.408V199.575H536.074ZM536.074 184.286V169.952H550.408V184.286H536.074ZM536.074 168.997V154.663H550.408V168.997H536.074ZM535.119 168.997H520.785V154.663H535.119V168.997ZM519.83 168.997H505.496V154.663H519.83V168.997ZM504.541 168.997H490.207V154.663H504.541V168.997ZM489.251 168.997H474.918V154.663H489.251V168.997ZM473.962 168.997H459.629V154.663H473.962V168.997ZM458.673 168.997H444.34V154.663H458.673V168.997ZM443.384 168.997H429.051V154.663H443.384V168.997ZM428.095 168.997H413.761V154.663H428.095V168.997ZM412.806 168.997H398.472V154.663H412.806V168.997ZM397.517 168.997H383.183V154.663H397.517V168.997ZM382.228 168.997H367.894V154.663H382.228V168.997ZM366.939 168.997H352.605V154.663H366.939V168.997ZM351.649 168.997H337.316V154.663H351.649V168.997ZM336.36 168.997H322.027V154.663H336.36V168.997ZM321.071 168.997H306.738V154.663H321.071V168.997ZM305.782 168.997H291.449V154.663H305.782V168.997ZM290.493 168.997H276.16V154.663H290.493V168.997ZM275.204 168.997H260.87V154.663H275.204V168.997ZM259.915 168.997H245.581V154.663H259.915V168.997ZM244.626 168.997H230.292V154.663H244.626V168.997ZM229.337 168.997H215.003V154.663H229.337V168.997ZM214.048 168.997H199.714V154.663H214.048V168.997ZM198.758 168.997H184.425V154.663H198.758V168.997ZM183.469 168.997H169.136V154.663H183.469V168.997ZM168.18 168.997H153.847V154.663H168.18V168.997ZM168.18 169.952V184.286H153.847V169.952H168.18ZM168.18 185.241V199.575H153.847V185.241H168.18ZM168.18 200.53V214.864H153.847V200.53H168.18ZM168.18 215.819V230.153H153.847V215.819H168.18ZM168.18 231.109V245.442H153.847V231.109H168.18ZM168.18 246.398V260.731H153.847V246.398H168.18ZM168.18 261.687V276.02H153.847V261.687H168.18ZM168.18 276.976V291.309H153.847V276.976H168.18ZM168.18 292.265V306.599H153.847V292.265H168.18ZM168.18 307.554V321.888H153.847V307.554H168.18ZM168.18 322.843V337.177H153.847V322.843H168.18ZM169.136 322.843H183.469V337.177H169.136V322.843ZM184.425 322.843H198.758V337.177H184.425V322.843ZM199.714 322.843H214.048V337.177H199.714V322.843ZM215.003 322.843H229.337V337.177H215.003V322.843ZM230.292 322.843H244.626V337.177H230.292V322.843ZM245.581 322.843H259.915V337.177H245.581V322.843ZM260.87 322.843H275.204V337.177H260.87V322.843ZM276.16 322.843H290.493V337.177H276.16V322.843ZM291.449 322.843H305.782V337.177H291.449V322.843ZM306.738 322.843H321.071V337.177H306.738V322.843ZM322.027 322.843H336.36V337.177H322.027V322.843ZM337.316 322.843H351.649V337.177H337.316V322.843ZM352.605 322.843H366.939V337.177H352.605V322.843ZM367.894 322.843H382.228V337.177H367.894V322.843ZM383.183 322.843H397.517V337.177H383.183V322.843ZM398.472 322.843H412.806V337.177H398.472V322.843ZM413.761 322.843H428.095V337.177H413.761V322.843ZM429.051 322.843H443.384V337.177H429.051V322.843ZM444.34 322.843H458.673V337.177H444.34V322.843ZM459.629 322.843H473.962V337.177H459.629V322.843ZM474.918 322.843H489.251V337.177H474.918V322.843ZM490.207 322.843H504.541V337.177H490.207V322.843ZM505.496 322.843H519.83V337.177H505.496V322.843ZM520.785 322.843H535.119V337.177H520.785V322.843ZM536.074 322.843H550.408V337.177H536.074V322.843ZM551.363 322.843H565.697V337.177H551.363V322.843ZM551.363 321.888V307.554H565.697V321.888H551.363ZM551.363 306.599V292.265H565.697V306.599H551.363ZM551.363 291.309V276.976H565.697V291.309H551.363ZM551.363 276.02V261.687H565.697V276.02H551.363ZM551.363 260.731V246.398H565.697V260.731H551.363ZM551.363 245.442V231.109H565.697V245.442H551.363ZM551.363 230.153V215.819H565.697V230.153H551.363ZM551.363 214.864V200.53H565.697V214.864H551.363ZM551.363 199.575V185.241H565.697V199.575H551.363ZM551.363 184.286V169.952H565.697V184.286H551.363ZM551.363 168.997V154.663H565.697V168.997H551.363ZM551.363 153.707V139.374H565.697V153.707H551.363ZM550.408 153.707H536.074V139.374H550.408V153.707ZM535.119 153.707H520.785V139.374H535.119V153.707ZM519.83 153.707H505.496V139.374H519.83V153.707ZM504.541 153.707H490.207V139.374H504.541V153.707ZM489.251 153.707H474.918V139.374H489.251V153.707ZM473.962 153.707H459.629V139.374H473.962V153.707ZM458.673 153.707H444.34V139.374H458.673V153.707ZM443.384 153.707H429.051V139.374H443.384V153.707ZM428.095 153.707H413.761V139.374H428.095V153.707ZM412.806 153.707H398.472V139.374H412.806V153.707ZM397.517 153.707H383.183V139.374H397.517V153.707ZM382.228 153.707H367.894V139.374H382.228V153.707ZM366.939 153.707H352.605V139.374H366.939V153.707ZM351.649 153.707H337.316V139.374H351.649V153.707ZM336.36 153.707H322.027V139.374H336.36V153.707ZM321.071 153.707H306.738V139.374H321.071V153.707ZM305.782 153.707H291.449V139.374H305.782V153.707ZM290.493 153.707H276.16V139.374H290.493V153.707ZM275.204 153.707H260.87V139.374H275.204V153.707ZM259.915 153.707H245.581V139.374H259.915V153.707ZM244.626 153.707H230.292V139.374H244.626V153.707ZM229.337 153.707H215.003V139.374H229.337V153.707ZM214.048 153.707H199.714V139.374H214.048V153.707ZM198.758 153.707H184.425V139.374H198.758V153.707ZM183.469 153.707H169.136V139.374H183.469V153.707ZM168.18 153.707H153.847V139.374H168.18V153.707ZM152.891 153.707H138.558V139.374H152.891V153.707ZM152.891 154.663V168.997H138.558V154.663H152.891ZM152.891 169.952V184.286H138.558V169.952H152.891ZM152.891 185.241V199.575H138.558V185.241H152.891ZM152.891 200.53V214.864H138.558V200.53H152.891ZM152.891 215.819V230.153H138.558V215.819H152.891ZM152.891 231.109V245.442H138.558V231.109H152.891ZM152.891 246.398V260.731H138.558V246.398H152.891ZM152.891 261.687V276.02H138.558V261.687H152.891ZM152.891 276.976V291.309H138.558V276.976H152.891ZM152.891 292.265V306.599H138.558V292.265H152.891ZM152.891 307.554V321.888H138.558V307.554H152.891ZM152.891 322.843V337.177H138.558V322.843H152.891ZM152.891 338.132V352.466H138.558V338.132H152.891ZM153.847 338.132H168.18V352.466H153.847V338.132ZM169.136 338.132H183.469V352.466H169.136V338.132ZM184.425 338.132H198.758V352.466H184.425V338.132ZM199.714 338.132H214.048V352.466H199.714V338.132ZM215.003 338.132H229.337V352.466H215.003V338.132ZM230.292 338.132H244.626V352.466H230.292V338.132ZM245.581 338.132H259.915V352.466H245.581V338.132ZM260.87 338.132H275.204V352.466H260.87V338.132ZM276.16 338.132H290.493V352.466H276.16V338.132ZM291.449 338.132H305.782V352.466H291.449V338.132ZM306.738 338.132H321.071V352.466H306.738V338.132ZM322.027 338.132H336.36V352.466H322.027V338.132ZM337.316 338.132H351.649V352.466H337.316V338.132ZM352.605 338.132H366.939V352.466H352.605V338.132ZM367.894 338.132H382.228V352.466H367.894V338.132ZM383.183 338.132H397.517V352.466H383.183V338.132ZM398.472 338.132H412.806V352.466H398.472V338.132ZM413.761 338.132H428.095V352.466H413.761V338.132ZM429.051 338.132H443.384V352.466H429.051V338.132ZM444.34 338.132H458.673V352.466H444.34V338.132ZM459.629 338.132H473.962V352.466H459.629V338.132ZM474.918 338.132H489.251V352.466H474.918V338.132ZM490.207 338.132H504.541V352.466H490.207V338.132ZM505.496 338.132H519.83V352.466H505.496V338.132ZM520.785 338.132H535.119V352.466H520.785V338.132ZM536.074 338.132H550.408V352.466H536.074V338.132ZM551.363 338.132H565.697V352.466H551.363V338.132ZM566.653 338.132H580.986V352.466H566.653V338.132ZM566.653 337.177V322.843H580.986V337.177H566.653ZM566.653 321.888V307.554H580.986V321.888H566.653ZM566.653 306.599V292.265H580.986V306.599H566.653ZM566.653 291.309V276.976H580.986V291.309H566.653ZM566.653 276.02V261.687H580.986V276.02H566.653ZM566.653 260.731V246.398H580.986V260.731H566.653ZM566.653 245.442V231.109H580.986V245.442H566.653ZM566.653 230.153V215.819H580.986V230.153H566.653ZM566.653 214.864V200.53H580.986V214.864H566.653ZM566.653 199.575V185.241H580.986V199.575H566.653ZM566.653 184.286V169.952H580.986V184.286H566.653ZM566.653 168.997V154.663H580.986V168.997H566.653ZM566.653 153.707V139.374H580.986V153.707H566.653ZM566.653 138.418V124.085H580.986V138.418H566.653ZM565.697 138.418H551.363V124.085H565.697V138.418ZM550.408 138.418H536.074V124.085H550.408V138.418ZM535.119 138.418H520.785V124.085H535.119V138.418ZM519.83 138.418H505.496V124.085H519.83V138.418ZM504.541 138.418H490.207V124.085H504.541V138.418ZM489.251 138.418H474.918V124.085H489.251V138.418ZM473.962 138.418H459.629V124.085H473.962V138.418ZM458.673 138.418H444.34V124.085H458.673V138.418ZM443.384 138.418H429.051V124.085H443.384V138.418ZM428.095 138.418H413.761V124.085H428.095V138.418ZM412.806 138.418H398.472V124.085H412.806V138.418ZM397.517 138.418H383.183V124.085H397.517V138.418ZM382.228 138.418H367.894V124.085H382.228V138.418ZM366.939 138.418H352.605V124.085H366.939V138.418ZM351.649 138.418H337.316V124.085H351.649V138.418ZM336.36 138.418H322.027V124.085H336.36V138.418ZM321.071 138.418H306.738V124.085H321.071V138.418ZM305.782 138.418H291.449V124.085H305.782V138.418ZM290.493 138.418H276.16V124.085H290.493V138.418ZM275.204 138.418H260.87V124.085H275.204V138.418ZM259.915 138.418H245.581V124.085H259.915V138.418ZM244.626 138.418H230.292V124.085H244.626V138.418ZM229.337 138.418H215.003V124.085H229.337V138.418ZM214.048 138.418H199.714V124.085H214.048V138.418ZM198.758 138.418H184.425V124.085H198.758V138.418ZM183.469 138.418H169.136V124.085H183.469V138.418ZM168.18 138.418H153.847V124.085H168.18V138.418ZM152.891 138.418H138.558V124.085H152.891V138.418ZM137.602 138.418H123.268V124.085H137.602V138.418ZM137.602 139.374V153.707H123.268V139.374H137.602ZM137.602 154.663V168.997H123.268V154.663H137.602ZM137.602 169.952V184.286H123.268V169.952H137.602ZM137.602 185.241V199.575H123.268V185.241H137.602ZM137.602 200.53V214.864H123.268V200.53H137.602ZM137.602 215.819V230.153H123.268V215.819H137.602ZM137.602 231.109V245.442H123.268V231.109H137.602ZM137.602 246.398V260.731H123.268V246.398H137.602ZM137.602 261.687V276.02H123.268V261.687H137.602ZM137.602 276.976V291.309H123.268V276.976H137.602ZM137.602 292.265V306.599H123.268V292.265H137.602ZM137.602 307.554V321.888H123.268V307.554H137.602ZM137.602 322.843V337.177H123.268V322.843H137.602ZM137.602 338.132V352.466H123.268V338.132H137.602ZM137.602 353.421V367.755H123.268V353.421H137.602ZM138.558 353.421H152.891V367.755H138.558V353.421ZM153.847 353.421H168.18V367.755H153.847V353.421ZM169.136 353.421H183.469V367.755H169.136V353.421ZM184.425 353.421H198.758V367.755H184.425V353.421ZM199.714 353.421H214.048V367.755H199.714V353.421ZM215.003 353.421H229.337V367.755H215.003V353.421ZM230.292 353.421H244.626V367.755H230.292V353.421ZM245.581 353.421H259.915V367.755H245.581V353.421ZM260.87 353.421H275.204V367.755H260.87V353.421ZM276.16 353.421H290.493V367.755H276.16V353.421ZM291.449 353.421H305.782V367.755H291.449V353.421ZM306.738 353.421H321.071V367.755H306.738V353.421ZM322.027 353.421H336.36V367.755H322.027V353.421ZM337.316 353.421H351.649V367.755H337.316V353.421ZM352.605 353.421H366.939V367.755H352.605V353.421ZM367.894 353.421H382.228V367.755H367.894V353.421ZM383.183 353.421H397.517V367.755H383.183V353.421ZM398.472 353.421H412.806V367.755H398.472V353.421ZM413.761 353.421H428.095V367.755H413.761V353.421ZM429.051 353.421H443.384V367.755H429.051V353.421ZM444.34 353.421H458.673V367.755H444.34V353.421ZM459.629 353.421H473.962V367.755H459.629V353.421ZM474.918 353.421H489.251V367.755H474.918V353.421ZM490.207 353.421H504.541V367.755H490.207V353.421ZM505.496 353.421H519.83V367.755H505.496V353.421ZM520.785 353.421H535.119V367.755H520.785V353.421ZM536.074 353.421H550.408V367.755H536.074V353.421ZM551.363 353.421H565.697V367.755H551.363V353.421ZM566.653 353.421H580.986V367.755H566.653V353.421ZM581.942 353.421H596.275V367.755H581.942V353.421ZM581.942 352.466V338.132H596.275V352.466H581.942ZM581.942 337.177V322.843H596.275V337.177H581.942ZM581.942 321.888V307.554H596.275V321.888H581.942ZM581.942 306.599V292.265H596.275V306.599H581.942ZM581.942 291.309V276.976H596.275V291.309H581.942ZM581.942 276.02V261.687H596.275V276.02H581.942ZM581.942 260.731V246.398H596.275V260.731H581.942ZM581.942 245.442V231.109H596.275V245.442H581.942ZM581.942 230.153V215.819H596.275V230.153H581.942ZM581.942 214.864V200.53H596.275V214.864H581.942ZM581.942 199.575V185.241H596.275V199.575H581.942ZM581.942 184.286V169.952H596.275V184.286H581.942ZM581.942 168.997V154.663H596.275V168.997H581.942ZM581.942 153.707V139.374H596.275V153.707H581.942ZM581.942 138.418V124.085H596.275V138.418H581.942ZM581.942 123.129V108.796H596.275V123.129H581.942ZM580.986 123.129H566.653V108.796H580.986V123.129ZM565.697 123.129H551.363V108.796H565.697V123.129ZM550.408 123.129H536.074V108.796H550.408V123.129ZM535.119 123.129H520.785V108.796H535.119V123.129ZM519.83 123.129H505.496V108.796H519.83V123.129ZM504.541 123.129H490.207V108.796H504.541V123.129ZM489.251 123.129H474.918V108.796H489.251V123.129ZM473.962 123.129H459.629V108.796H473.962V123.129ZM458.673 123.129H444.34V108.796H458.673V123.129ZM443.384 123.129H429.051V108.796H443.384V123.129ZM428.095 123.129H413.761V108.796H428.095V123.129ZM412.806 123.129H398.472V108.796H412.806V123.129ZM397.517 123.129H383.183V108.796H397.517V123.129ZM382.228 123.129H367.894V108.796H382.228V123.129ZM366.939 123.129H352.605V108.796H366.939V123.129ZM351.649 123.129H337.316V108.796H351.649V123.129ZM336.36 123.129H322.027V108.796H336.36V123.129ZM321.071 123.129H306.738V108.796H321.071V123.129ZM305.782 123.129H291.449V108.796H305.782V123.129ZM290.493 123.129H276.16V108.796H290.493V123.129ZM275.204 123.129H260.87V108.796H275.204V123.129ZM259.915 123.129H245.581V108.796H259.915V123.129ZM244.626 123.129H230.292V108.796H244.626V123.129ZM229.337 123.129H215.003V108.796H229.337V123.129ZM214.048 123.129H199.714V108.796H214.048V123.129ZM198.758 123.129H184.425V108.796H198.758V123.129ZM183.469 123.129H169.136V108.796H183.469V123.129ZM168.18 123.129H153.847V108.796H168.18V123.129ZM152.891 123.129H138.558V108.796H152.891V123.129ZM137.602 123.129H123.268V108.796H137.602V123.129ZM122.313 123.129H107.979V108.796H122.313V123.129ZM122.313 124.085V138.418H107.979V124.085H122.313ZM122.313 139.374V153.707H107.979V139.374H122.313ZM122.313 154.663V168.997H107.979V154.663H122.313ZM122.313 169.952V184.286H107.979V169.952H122.313ZM122.313 185.241V199.575H107.979V185.241H122.313ZM122.313 200.53V214.864H107.979V200.53H122.313ZM122.313 215.819V230.153H107.979V215.819H122.313ZM122.313 231.109V245.442H107.979V231.109H122.313ZM122.313 246.398V260.731H107.979V246.398H122.313ZM122.313 261.687V276.02H107.979V261.687H122.313ZM122.313 276.976V291.309H107.979V276.976H122.313ZM122.313 292.265V306.599H107.979V292.265H122.313ZM122.313 307.554V321.888H107.979V307.554H122.313ZM122.313 322.843V337.177H107.979V322.843H122.313ZM122.313 338.132V352.466H107.979V338.132H122.313ZM122.313 353.421V367.755H107.979V353.421H122.313ZM122.313 368.711V383.044H107.979V368.711H122.313ZM123.268 368.711H137.602V383.044H123.268V368.711ZM138.558 368.711H152.891V383.044H138.558V368.711ZM153.847 368.711H168.18V383.044H153.847V368.711ZM169.136 368.711H183.469V383.044H169.136V368.711ZM184.425 368.711H198.758V383.044H184.425V368.711ZM199.714 368.711H214.048V383.044H199.714V368.711ZM215.003 368.711H229.337V383.044H215.003V368.711ZM230.292 368.711H244.626V383.044H230.292V368.711ZM245.581 368.711H259.915V383.044H245.581V368.711ZM260.87 368.711H275.204V383.044H260.87V368.711ZM276.16 368.711H290.493V383.044H276.16V368.711ZM291.449 368.711H305.782V383.044H291.449V368.711ZM306.738 368.711H321.071V383.044H306.738V368.711ZM322.027 368.711H336.36V383.044H322.027V368.711ZM337.316 368.711H351.649V383.044H337.316V368.711ZM352.605 368.711H366.939V383.044H352.605V368.711ZM367.894 368.711H382.228V383.044H367.894V368.711ZM383.183 368.711H397.517V383.044H383.183V368.711ZM398.472 368.711H412.806V383.044H398.472V368.711ZM413.761 368.711H428.095V383.044H413.761V368.711ZM429.051 368.711H443.384V383.044H429.051V368.711ZM444.34 368.711H458.673V383.044H444.34V368.711ZM459.629 368.711H473.962V383.044H459.629V368.711ZM474.918 368.711H489.251V383.044H474.918V368.711ZM490.207 368.711H504.541V383.044H490.207V368.711ZM505.496 368.711H519.83V383.044H505.496V368.711ZM520.785 368.711H535.119V383.044H520.785V368.711ZM536.074 368.711H550.408V383.044H536.074V368.711ZM551.363 368.711H565.697V383.044H551.363V368.711ZM566.653 368.711H580.986V383.044H566.653V368.711ZM581.942 368.711H596.275V383.044H581.942V368.711ZM597.231 368.711H611.564V383.044H597.231V368.711ZM597.231 367.755V353.421H611.564V367.755H597.231ZM597.231 352.466V338.132H611.564V352.466H597.231ZM597.231 337.177V322.843H611.564V337.177H597.231ZM597.231 321.888V307.554H611.564V321.888H597.231ZM597.231 306.599V292.265H611.564V306.599H597.231ZM597.231 291.309V276.976H611.564V291.309H597.231ZM597.231 276.02V261.687H611.564V276.02H597.231ZM597.231 260.731V246.398H611.564V260.731H597.231ZM597.231 245.442V231.109H611.564V245.442H597.231ZM597.231 230.153V215.819H611.564V230.153H597.231ZM597.231 214.864V200.53H611.564V214.864H597.231ZM597.231 199.575V185.241H611.564V199.575H597.231ZM597.231 184.286V169.952H611.564V184.286H597.231ZM597.231 168.997V154.663H611.564V168.997H597.231ZM597.231 153.707V139.374H611.564V153.707H597.231ZM597.231 138.418V124.085H611.564V138.418H597.231ZM597.231 123.129V108.796H611.564V123.129H597.231ZM597.231 107.84V93.5066H611.564V107.84H597.231ZM596.275 107.84H581.942V93.5066H596.275V107.84ZM580.986 107.84H566.653V93.5066H580.986V107.84ZM565.697 107.84H551.363V93.5066H565.697V107.84ZM550.408 107.84H536.074V93.5066H550.408V107.84ZM535.119 107.84H520.785V93.5066H535.119V107.84ZM519.83 107.84H505.496V93.5066H519.83V107.84ZM504.541 107.84H490.207V93.5066H504.541V107.84ZM489.251 107.84H474.918V93.5066H489.251V107.84ZM473.962 107.84H459.629V93.5066H473.962V107.84ZM458.673 107.84H444.34V93.5066H458.673V107.84ZM443.384 107.84H429.051V93.5066H443.384V107.84ZM428.095 107.84H413.761V93.5066H428.095V107.84ZM412.806 107.84H398.472V93.5066H412.806V107.84ZM397.517 107.84H383.183V93.5066H397.517V107.84ZM382.228 107.84H367.894V93.5066H382.228V107.84ZM366.939 107.84H352.605V93.5066H366.939V107.84ZM351.649 107.84H337.316V93.5066H351.649V107.84ZM336.36 107.84H322.027V93.5066H336.36V107.84ZM321.071 107.84H306.738V93.5066H321.071V107.84ZM305.782 107.84H291.449V93.5066H305.782V107.84ZM290.493 107.84H276.16V93.5066H290.493V107.84ZM275.204 107.84H260.87V93.5066H275.204V107.84ZM259.915 107.84H245.581V93.5066H259.915V107.84ZM244.626 107.84H230.292V93.5066H244.626V107.84ZM229.337 107.84H215.003V93.5066H229.337V107.84ZM214.048 107.84H199.714V93.5066H214.048V107.84ZM198.758 107.84H184.425V93.5066H198.758V107.84ZM183.469 107.84H169.136V93.5066H183.469V107.84ZM168.18 107.84H153.847V93.5066H168.18V107.84ZM152.891 107.84H138.558V93.5066H152.891V107.84ZM137.602 107.84H123.268V93.5066H137.602V107.84ZM122.313 107.84H107.979V93.5066H122.313V107.84ZM107.024 107.84H92.6902V93.5066H107.024V107.84ZM107.024 108.796V123.129H92.6902V108.796H107.024ZM107.024 124.085V138.418H92.6902V124.085H107.024ZM107.024 139.374V153.707H92.6902V139.374H107.024ZM107.024 154.663V168.997H92.6902V154.663H107.024ZM107.024 169.952V184.286H92.6902V169.952H107.024ZM107.024 185.241V199.575H92.6902V185.241H107.024ZM107.024 200.53V214.864H92.6902V200.53H107.024ZM107.024 215.819V230.153H92.6902V215.819H107.024ZM107.024 231.109V245.442H92.6902V231.109H107.024ZM107.024 246.398V260.731H92.6902V246.398H107.024ZM107.024 261.687V276.02H92.6902V261.687H107.024ZM107.024 276.976V291.309H92.6902V276.976H107.024ZM107.024 292.265V306.599H92.6902V292.265H107.024ZM107.024 307.554V321.888H92.6902V307.554H107.024ZM107.024 322.843V337.177H92.6902V322.843H107.024ZM107.024 338.132V352.466H92.6902V338.132H107.024ZM107.024 353.421V367.755H92.6902V353.421H107.024ZM107.024 368.711V383.044H92.6902V368.711H107.024ZM107.024 384V398.333H92.6902V384H107.024ZM107.979 384H122.313V398.333H107.979V384ZM123.268 384H137.602V398.333H123.268V384ZM138.558 384H152.891V398.333H138.558V384ZM153.847 384H168.18V398.333H153.847V384ZM169.136 384H183.469V398.333H169.136V384ZM184.425 384H198.758V398.333H184.425V384ZM199.714 384H214.048V398.333H199.714V384ZM215.003 384H229.337V398.333H215.003V384ZM230.292 384H244.626V398.333H230.292V384ZM245.581 384H259.915V398.333H245.581V384ZM260.87 384H275.204V398.333H260.87V384ZM276.16 384H290.493V398.333H276.16V384ZM291.449 384H305.782V398.333H291.449V384ZM306.738 384H321.071V398.333H306.738V384ZM322.027 384H336.36V398.333H322.027V384ZM337.316 384H351.649V398.333H337.316V384ZM352.605 384H366.939V398.333H352.605V384ZM367.894 384H382.228V398.333H367.894V384ZM383.183 384H397.517V398.333H383.183V384ZM398.472 384H412.806V398.333H398.472V384ZM413.761 384H428.095V398.333H413.761V384ZM429.051 384H443.384V398.333H429.051V384ZM444.34 384H458.673V398.333H444.34V384ZM459.629 384H473.962V398.333H459.629V384ZM474.918 384H489.251V398.333H474.918V384ZM490.207 384H504.541V398.333H490.207V384ZM505.496 384H519.83V398.333H505.496V384ZM520.785 384H535.119V398.333H520.785V384ZM536.074 384H550.408V398.333H536.074V384ZM551.363 384H565.697V398.333H551.363V384ZM566.653 384H580.986V398.333H566.653V384ZM581.942 384H596.275V398.333H581.942V384ZM597.231 384H611.564V398.333H597.231V384ZM612.52 384H626.853V398.333H612.52V384ZM612.52 383.044V368.711H626.853V383.044H612.52ZM612.52 367.755V353.421H626.853V367.755H612.52ZM612.52 352.466V338.132H626.853V352.466H612.52ZM612.52 337.177V322.843H626.853V337.177H612.52ZM612.52 321.888V307.554H626.853V321.888H612.52ZM612.52 306.599V292.265H626.853V306.599H612.52ZM612.52 291.309V276.976H626.853V291.309H612.52ZM612.52 276.02V261.687H626.853V276.02H612.52ZM612.52 260.731V246.398H626.853V260.731H612.52ZM612.52 245.442V231.109H626.853V245.442H612.52ZM612.52 230.153V215.819H626.853V230.153H612.52ZM612.52 214.864V200.53H626.853V214.864H612.52ZM612.52 199.575V185.241H626.853V199.575H612.52ZM612.52 184.286V169.952H626.853V184.286H612.52ZM612.52 168.997V154.663H626.853V168.997H612.52ZM612.52 153.707V139.374H626.853V153.707H612.52ZM612.52 138.418V124.085H626.853V138.418H612.52ZM612.52 123.129V108.796H626.853V123.129H612.52ZM612.52 107.84V93.5066H626.853V107.84H612.52ZM612.52 92.5511V78.2175H626.853V92.5511H612.52ZM611.564 92.5511H597.231V78.2175H611.564V92.5511ZM596.275 92.5511H581.942V78.2175H596.275V92.5511ZM580.986 92.5511H566.653V78.2175H580.986V92.5511ZM565.697 92.5511H551.363V78.2175H565.697V92.5511ZM550.408 92.5511H536.074V78.2175H550.408V92.5511ZM535.119 92.5511H520.785V78.2175H535.119V92.5511ZM519.83 92.5511H505.496V78.2175H519.83V92.5511ZM504.541 92.5511H490.207V78.2175H504.541V92.5511ZM489.251 92.5511H474.918V78.2175H489.251V92.5511ZM473.962 92.5511H459.629V78.2175H473.962V92.5511ZM458.673 92.5511H444.34V78.2175H458.673V92.5511ZM443.384 92.5511H429.051V78.2175H443.384V92.5511ZM428.095 92.5511H413.761V78.2175H428.095V92.5511ZM412.806 92.5511H398.472V78.2175H412.806V92.5511ZM397.517 92.5511H383.183V78.2175H397.517V92.5511ZM382.228 92.5511H367.894V78.2175H382.228V92.5511ZM366.939 92.5511H352.605V78.2175H366.939V92.5511ZM351.649 92.5511H337.316V78.2175H351.649V92.5511ZM336.36 92.5511H322.027V78.2175H336.36V92.5511ZM321.071 92.5511H306.738V78.2175H321.071V92.5511ZM305.782 92.5511H291.449V78.2175H305.782V92.5511ZM290.493 92.5511H276.16V78.2175H290.493V92.5511ZM275.204 92.5511H260.87V78.2175H275.204V92.5511ZM259.915 92.5511H245.581V78.2175H259.915V92.5511ZM244.626 92.5511H230.292V78.2175H244.626V92.5511ZM229.337 92.5511H215.003V78.2175H229.337V92.5511ZM214.048 92.5511H199.714V78.2175H214.048V92.5511ZM198.758 92.5511H184.425V78.2175H198.758V92.5511ZM183.469 92.5511H169.136V78.2175H183.469V92.5511ZM168.18 92.5511H153.847V78.2175H168.18V92.5511ZM152.891 92.5511H138.558V78.2175H152.891V92.5511ZM137.602 92.5511H123.268V78.2175H137.602V92.5511ZM122.313 92.5511H107.979V78.2175H122.313V92.5511ZM107.024 92.5511H92.6902V78.2175H107.024V92.5511ZM91.7346 92.5511H77.4011V78.2175H91.7346V92.5511ZM91.7346 93.5066V107.84H77.4011V93.5066H91.7346ZM91.7346 108.796V123.129H77.4011V108.796H91.7346ZM91.7346 124.085V138.418H77.4011V124.085H91.7346ZM91.7346 139.374V153.707H77.4011V139.374H91.7346ZM91.7346 154.663V168.997H77.4011V154.663H91.7346ZM91.7346 169.952V184.286H77.4011V169.952H91.7346ZM91.7346 185.241V199.575H77.4011V185.241H91.7346ZM91.7346 200.53V214.864H77.4011V200.53H91.7346ZM91.7346 215.819V230.153H77.4011V215.819H91.7346ZM91.7346 231.109V245.442H77.4011V231.109H91.7346ZM91.7346 246.398V260.731H77.4011V246.398H91.7346ZM91.7346 261.687V276.02H77.4011V261.687H91.7346ZM91.7346 276.976V291.309H77.4011V276.976H91.7346ZM91.7346 292.265V306.599H77.4011V292.265H91.7346ZM91.7346 307.554V321.888H77.4011V307.554H91.7346ZM91.7346 322.843V337.177H77.4011V322.843H91.7346ZM91.7346 338.132V352.466H77.4011V338.132H91.7346ZM91.7346 353.421V367.755H77.4011V353.421H91.7346ZM91.7346 368.711V383.044H77.4011V368.711H91.7346ZM91.7346 384V398.333H77.4011V384H91.7346ZM91.7346 399.289V413.622H77.4011V399.289H91.7346ZM92.6902 399.289H107.024V413.622H92.6902V399.289ZM107.979 399.289H122.313V413.622H107.979V399.289ZM123.268 399.289H137.602V413.622H123.268V399.289ZM138.558 399.289H152.891V413.622H138.558V399.289ZM153.847 399.289H168.18V413.622H153.847V399.289ZM169.136 399.289H183.469V413.622H169.136V399.289ZM184.425 399.289H198.758V413.622H184.425V399.289ZM199.714 399.289H214.048V413.622H199.714V399.289ZM215.003 399.289H229.337V413.622H215.003V399.289ZM230.292 399.289H244.626V413.622H230.292V399.289ZM245.581 399.289H259.915V413.622H245.581V399.289ZM260.87 399.289H275.204V413.622H260.87V399.289ZM276.16 399.289H290.493V413.622H276.16V399.289ZM291.449 399.289H305.782V413.622H291.449V399.289ZM306.738 399.289H321.071V413.622H306.738V399.289ZM322.027 399.289H336.36V413.622H322.027V399.289ZM337.316 399.289H351.649V413.622H337.316V399.289ZM352.605 399.289H366.939V413.622H352.605V399.289ZM367.894 399.289H382.228V413.622H367.894V399.289ZM383.183 399.289H397.517V413.622H383.183V399.289ZM398.472 399.289H412.806V413.622H398.472V399.289ZM413.761 399.289H428.095V413.622H413.761V399.289ZM429.051 399.289H443.384V413.622H429.051V399.289ZM444.34 399.289H458.673V413.622H444.34V399.289ZM459.629 399.289H473.962V413.622H459.629V399.289ZM474.918 399.289H489.251V413.622H474.918V399.289ZM490.207 399.289H504.541V413.622H490.207V399.289ZM505.496 399.289H519.83V413.622H505.496V399.289ZM520.785 399.289H535.119V413.622H520.785V399.289ZM536.074 399.289H550.408V413.622H536.074V399.289ZM551.363 399.289H565.697V413.622H551.363V399.289ZM566.653 399.289H580.986V413.622H566.653V399.289ZM581.942 399.289H596.275V413.622H581.942V399.289ZM597.231 399.289H611.564V413.622H597.231V399.289ZM612.52 399.289H626.853V413.622H612.52V399.289ZM627.809 399.289H642.143V413.622H627.809V399.289ZM627.809 398.333V384H642.143V398.333H627.809ZM627.809 383.044V368.711H642.143V383.044H627.809ZM627.809 367.755V353.421H642.143V367.755H627.809ZM627.809 352.466V338.132H642.143V352.466H627.809ZM627.809 337.177V322.843H642.143V337.177H627.809ZM627.809 321.888V307.554H642.143V321.888H627.809ZM627.809 306.599V292.265H642.143V306.599H627.809ZM627.809 291.309V276.976H642.143V291.309H627.809ZM627.809 276.02V261.687H642.143V276.02H627.809ZM627.809 260.731V246.398H642.143V260.731H627.809ZM627.809 245.442V231.109H642.143V245.442H627.809ZM627.809 230.153V215.819H642.143V230.153H627.809ZM627.809 214.864V200.53H642.143V214.864H627.809ZM627.809 199.575V185.241H642.143V199.575H627.809ZM627.809 184.286V169.952H642.143V184.286H627.809ZM627.809 168.997V154.663H642.143V168.997H627.809ZM627.809 153.707V139.374H642.143V153.707H627.809ZM627.809 138.418V124.085H642.143V138.418H627.809ZM627.809 123.129V108.796H642.143V123.129H627.809ZM627.809 107.84V93.5066H642.143V107.84H627.809ZM627.809 92.5511V78.2175H642.143V92.5511H627.809ZM627.809 77.2619V62.9284H642.143V77.2619H627.809ZM626.853 77.2619H612.52V62.9284H626.853V77.2619ZM611.564 77.2619H597.231V62.9284H611.564V77.2619ZM596.275 77.2619H581.942V62.9284H596.275V77.2619ZM580.986 77.2619H566.653V62.9284H580.986V77.2619ZM565.697 77.2619H551.363V62.9284H565.697V77.2619ZM550.408 77.2619H536.074V62.9284H550.408V77.2619ZM535.119 77.2619H520.785V62.9284H535.119V77.2619ZM519.83 77.2619H505.496V62.9284H519.83V77.2619ZM504.541 77.2619H490.207V62.9284H504.541V77.2619ZM489.251 77.2619H474.918V62.9284H489.251V77.2619ZM473.962 77.2619H459.629V62.9284H473.962V77.2619ZM458.673 77.2619H444.34V62.9284H458.673V77.2619ZM443.384 77.2619H429.051V62.9284H443.384V77.2619ZM428.095 77.2619H413.761V62.9284H428.095V77.2619ZM412.806 77.2619H398.472V62.9284H412.806V77.2619ZM397.517 77.2619H383.183V62.9284H397.517V77.2619ZM382.228 77.2619H367.894V62.9284H382.228V77.2619ZM366.939 77.2619H352.605V62.9284H366.939V77.2619ZM351.649 77.2619H337.316V62.9284H351.649V77.2619ZM336.36 77.2619H322.027V62.9284H336.36V77.2619ZM321.071 77.2619H306.738V62.9284H321.071V77.2619ZM305.782 77.2619H291.449V62.9284H305.782V77.2619ZM290.493 77.2619H276.16V62.9284H290.493V77.2619ZM275.204 77.2619H260.87V62.9284H275.204V77.2619ZM259.915 77.2619H245.581V62.9284H259.915V77.2619ZM244.626 77.2619H230.292V62.9284H244.626V77.2619ZM229.337 77.2619H215.003V62.9284H229.337V77.2619ZM214.048 77.2619H199.714V62.9284H214.048V77.2619ZM198.758 77.2619H184.425V62.9284H198.758V77.2619ZM183.469 77.2619H169.136V62.9284H183.469V77.2619ZM168.18 77.2619H153.847V62.9284H168.18V77.2619ZM152.891 77.2619H138.558V62.9284H152.891V77.2619ZM137.602 77.2619H123.268V62.9284H137.602V77.2619ZM122.313 77.2619H107.979V62.9284H122.313V77.2619ZM107.024 77.2619H92.6902V62.9284H107.024V77.2619ZM91.7346 77.2619H77.4011V62.9284H91.7346V77.2619ZM76.4455 77.2619H62.112V62.9284H76.4455V77.2619ZM76.4455 78.2175V92.5511H62.112V78.2175H76.4455ZM76.4455 93.5066V107.84H62.112V93.5066H76.4455ZM76.4455 108.796V123.129H62.112V108.796H76.4455ZM76.4455 124.085V138.418H62.112V124.085H76.4455ZM76.4455 139.374V153.707H62.112V139.374H76.4455ZM76.4455 154.663V168.997H62.112V154.663H76.4455ZM76.4455 169.952V184.286H62.112V169.952H76.4455ZM76.4455 185.241V199.575H62.112V185.241H76.4455ZM76.4455 200.53V214.864H62.112V200.53H76.4455ZM76.4455 215.819V230.153H62.112V215.819H76.4455ZM76.4455 231.109V245.442H62.112V231.109H76.4455ZM76.4455 246.398V260.731H62.112V246.398H76.4455ZM76.4455 261.687V276.02H62.112V261.687H76.4455ZM76.4455 276.976V291.309H62.112V276.976H76.4455ZM76.4455 292.265V306.599H62.112V292.265H76.4455ZM76.4455 307.554V321.888H62.112V307.554H76.4455ZM76.4455 322.843V337.177H62.112V322.843H76.4455ZM76.4455 338.132V352.466H62.112V338.132H76.4455ZM76.4455 353.421V367.755H62.112V353.421H76.4455ZM76.4455 368.711V383.044H62.112V368.711H76.4455ZM76.4455 384V398.333H62.112V384H76.4455ZM76.4455 399.289V413.622H62.112V399.289H76.4455ZM76.4455 414.578V428.911H62.112V414.578H76.4455ZM77.4011 414.578H91.7346V428.911H77.4011V414.578ZM92.6902 414.578H107.024V428.911H92.6902V414.578ZM107.979 414.578H122.313V428.911H107.979V414.578ZM123.268 414.578H137.602V428.911H123.268V414.578ZM138.558 414.578H152.891V428.911H138.558V414.578ZM153.847 414.578H168.18V428.911H153.847V414.578ZM169.136 414.578H183.469V428.911H169.136V414.578ZM184.425 414.578H198.758V428.911H184.425V414.578ZM199.714 414.578H214.048V428.911H199.714V414.578ZM215.003 414.578H229.337V428.911H215.003V414.578ZM230.292 414.578H244.626V428.911H230.292V414.578ZM245.581 414.578H259.915V428.911H245.581V414.578ZM260.87 414.578H275.204V428.911H260.87V414.578ZM276.16 414.578H290.493V428.911H276.16V414.578ZM291.449 414.578H305.782V428.911H291.449V414.578ZM306.738 414.578H321.071V428.911H306.738V414.578ZM322.027 414.578H336.36V428.911H322.027V414.578ZM337.316 414.578H351.649V428.911H337.316V414.578ZM352.605 414.578H366.939V428.911H352.605V414.578ZM367.894 414.578H382.228V428.911H367.894V414.578ZM383.183 414.578H397.517V428.911H383.183V414.578ZM398.472 414.578H412.806V428.911H398.472V414.578ZM413.761 414.578H428.095V428.911H413.761V414.578ZM429.051 414.578H443.384V428.911H429.051V414.578ZM444.34 414.578H458.673V428.911H444.34V414.578ZM459.629 414.578H473.962V428.911H459.629V414.578ZM474.918 414.578H489.251V428.911H474.918V414.578ZM490.207 414.578H504.541V428.911H490.207V414.578ZM505.496 414.578H519.83V428.911H505.496V414.578ZM520.785 414.578H535.119V428.911H520.785V414.578ZM536.074 414.578H550.408V428.911H536.074V414.578ZM551.363 414.578H565.697V428.911H551.363V414.578ZM566.653 414.578H580.986V428.911H566.653V414.578ZM581.942 414.578H596.275V428.911H581.942V414.578ZM597.231 414.578H611.564V428.911H597.231V414.578ZM612.52 414.578H626.853V428.911H612.52V414.578ZM627.809 414.578H642.143V428.911H627.809V414.578ZM643.098 414.578H657.432V428.911H643.098V414.578ZM643.098 413.622V399.289H657.432V413.622H643.098ZM643.098 398.333V384H657.432V398.333H643.098ZM643.098 383.044V368.711H657.432V383.044H643.098ZM643.098 367.755V353.421H657.432V367.755H643.098ZM643.098 352.466V338.132H657.432V352.466H643.098ZM643.098 337.177V322.843H657.432V337.177H643.098ZM643.098 321.888V307.554H657.432V321.888H643.098ZM643.098 306.599V292.265H657.432V306.599H643.098ZM643.098 291.309V276.976H657.432V291.309H643.098ZM643.098 276.02V261.687H657.432V276.02H643.098ZM643.098 260.731V246.398H657.432V260.731H643.098ZM643.098 245.442V231.109H657.432V245.442H643.098ZM643.098 230.153V215.819H657.432V230.153H643.098ZM643.098 214.864V200.53H657.432V214.864H643.098ZM643.098 199.575V185.241H657.432V199.575H643.098ZM643.098 184.286V169.952H657.432V184.286H643.098ZM643.098 168.997V154.663H657.432V168.997H643.098ZM643.098 153.707V139.374H657.432V153.707H643.098ZM643.098 138.418V124.085H657.432V138.418H643.098ZM643.098 123.129V108.796H657.432V123.129H643.098ZM643.098 107.84V93.5066H657.432V107.84H643.098ZM643.098 92.5511V78.2175H657.432V92.5511H643.098ZM643.098 77.2619V62.9284H657.432V77.2619H643.098ZM643.098 61.9728V47.6393H657.432V61.9728H643.098ZM642.143 61.9728H627.809V47.6393H642.143V61.9728ZM626.853 61.9728H612.52V47.6393H626.853V61.9728ZM611.564 61.9728H597.231V47.6393H611.564V61.9728ZM596.275 61.9728H581.942V47.6393H596.275V61.9728ZM580.986 61.9728H566.653V47.6393H580.986V61.9728ZM565.697 61.9728H551.363V47.6393H565.697V61.9728ZM550.408 61.9728H536.074V47.6393H550.408V61.9728ZM535.119 61.9728H520.785V47.6393H535.119V61.9728ZM519.83 61.9728H505.496V47.6393H519.83V61.9728ZM504.541 61.9728H490.207V47.6393H504.541V61.9728ZM489.251 61.9728H474.918V47.6393H489.251V61.9728ZM473.962 61.9728H459.629V47.6393H473.962V61.9728ZM458.673 61.9728H444.34V47.6393H458.673V61.9728ZM443.384 61.9728H429.051V47.6393H443.384V61.9728ZM428.095 61.9728H413.761V47.6393H428.095V61.9728ZM412.806 61.9728H398.472V47.6393H412.806V61.9728ZM397.517 61.9728H383.183V47.6393H397.517V61.9728ZM382.228 61.9728H367.894V47.6393H382.228V61.9728ZM366.939 61.9728H352.605V47.6393H366.939V61.9728ZM351.649 61.9728H337.316V47.6393H351.649V61.9728ZM336.36 61.9728H322.027V47.6393H336.36V61.9728ZM321.071 61.9728H306.738V47.6393H321.071V61.9728ZM305.782 61.9728H291.449V47.6393H305.782V61.9728ZM290.493 61.9728H276.16V47.6393H290.493V61.9728ZM275.204 61.9728H260.87V47.6393H275.204V61.9728ZM259.915 61.9728H245.581V47.6393H259.915V61.9728ZM244.626 61.9728H230.292V47.6393H244.626V61.9728ZM229.337 61.9728H215.003V47.6393H229.337V61.9728ZM214.048 61.9728H199.714V47.6393H214.048V61.9728ZM198.758 61.9728H184.425V47.6393H198.758V61.9728ZM183.469 61.9728H169.136V47.6393H183.469V61.9728ZM168.18 61.9728H153.847V47.6393H168.18V61.9728ZM152.891 61.9728H138.558V47.6393H152.891V61.9728ZM137.602 61.9728H123.268V47.6393H137.602V61.9728ZM122.313 61.9728H107.979V47.6393H122.313V61.9728ZM107.024 61.9728H92.6902V47.6393H107.024V61.9728ZM91.7346 61.9728H77.4011V47.6393H91.7346V61.9728ZM76.4455 61.9728H62.112V47.6393H76.4455V61.9728ZM61.1564 61.9728H46.8229V47.6393H61.1564V61.9728ZM61.1564 62.9284V77.2619H46.8229V62.9284H61.1564ZM61.1564 78.2175V92.5511H46.8229V78.2175H61.1564ZM61.1564 93.5066V107.84H46.8229V93.5066H61.1564ZM61.1564 108.796V123.129H46.8229V108.796H61.1564ZM61.1564 124.085V138.418H46.8229V124.085H61.1564ZM61.1564 139.374V153.707H46.8229V139.374H61.1564ZM61.1564 154.663V168.997H46.8229V154.663H61.1564ZM61.1564 169.952V184.286H46.8229V169.952H61.1564ZM61.1564 185.241V199.575H46.8229V185.241H61.1564ZM61.1564 200.53V214.864H46.8229V200.53H61.1564ZM61.1564 215.819V230.153H46.8229V215.819H61.1564ZM61.1564 231.109V245.442H46.8229V231.109H61.1564ZM61.1564 246.398V260.731H46.8229V246.398H61.1564ZM61.1564 261.687V276.02H46.8229V261.687H61.1564ZM61.1564 276.976V291.309H46.8229V276.976H61.1564ZM61.1564 292.265V306.599H46.8229V292.265H61.1564ZM61.1564 307.554V321.888H46.8229V307.554H61.1564ZM61.1564 322.843V337.177H46.8229V322.843H61.1564ZM61.1564 338.132V352.466H46.8229V338.132H61.1564ZM61.1564 353.421V367.755H46.8229V353.421H61.1564ZM61.1564 368.711V383.044H46.8229V368.711H61.1564ZM61.1564 384V398.333H46.8229V384H61.1564ZM61.1564 399.289V413.622H46.8229V399.289H61.1564ZM61.1564 414.578V428.911H46.8229V414.578H61.1564ZM61.1564 429.867V444.201H46.8229V429.867H61.1564ZM62.112 429.867H76.4455V444.201H62.112V429.867ZM77.4011 429.867H91.7346V444.201H77.4011V429.867ZM92.6902 429.867H107.024V444.201H92.6902V429.867ZM107.979 429.867H122.313V444.201H107.979V429.867ZM123.268 429.867H137.602V444.201H123.268V429.867ZM138.558 429.867H152.891V444.201H138.558V429.867ZM153.847 429.867H168.18V444.201H153.847V429.867ZM169.136 429.867H183.469V444.201H169.136V429.867ZM184.425 429.867H198.758V444.201H184.425V429.867ZM199.714 429.867H214.048V444.201H199.714V429.867ZM215.003 429.867H229.337V444.201H215.003V429.867ZM230.292 429.867H244.626V444.201H230.292V429.867ZM245.581 429.867H259.915V444.201H245.581V429.867ZM260.87 429.867H275.204V444.201H260.87V429.867ZM276.16 429.867H290.493V444.201H276.16V429.867ZM291.449 429.867H305.782V444.201H291.449V429.867ZM306.738 429.867H321.071V444.201H306.738V429.867ZM322.027 429.867H336.36V444.201H322.027V429.867ZM337.316 429.867H351.649V444.201H337.316V429.867ZM352.605 429.867H366.939V444.201H352.605V429.867ZM367.894 429.867H382.228V444.201H367.894V429.867ZM383.183 429.867H397.517V444.201H383.183V429.867ZM398.472 429.867H412.806V444.201H398.472V429.867ZM413.761 429.867H428.095V444.201H413.761V429.867ZM429.051 429.867H443.384V444.201H429.051V429.867ZM444.34 429.867H458.673V444.201H444.34V429.867ZM459.629 429.867H473.962V444.201H459.629V429.867ZM474.918 429.867H489.251V444.201H474.918V429.867ZM490.207 429.867H504.541V444.201H490.207V429.867ZM505.496 429.867H519.83V444.201H505.496V429.867ZM520.785 429.867H535.119V444.201H520.785V429.867ZM536.074 429.867H550.408V444.201H536.074V429.867ZM551.363 429.867H565.697V444.201H551.363V429.867ZM566.653 429.867H580.986V444.201H566.653V429.867ZM581.942 429.867H596.275V444.201H581.942V429.867ZM597.231 429.867H611.564V444.201H597.231V429.867ZM612.52 429.867H626.853V444.201H612.52V429.867ZM627.809 429.867H642.143V444.201H627.809V429.867ZM643.098 429.867H657.432V444.201H643.098V429.867ZM658.387 429.867H672.721V444.201H658.387V429.867ZM658.387 428.911V414.578H672.721V428.911H658.387ZM658.387 413.622V399.289H672.721V413.622H658.387ZM658.387 398.333V384H672.721V398.333H658.387ZM658.387 383.044V368.711H672.721V383.044H658.387ZM658.387 367.755V353.421H672.721V367.755H658.387ZM658.387 352.466V338.132H672.721V352.466H658.387ZM658.387 337.177V322.843H672.721V337.177H658.387ZM658.387 321.888V307.554H672.721V321.888H658.387ZM658.387 306.599V292.265H672.721V306.599H658.387ZM658.387 291.309V276.976H672.721V291.309H658.387ZM658.387 276.02V261.687H672.721V276.02H658.387ZM658.387 260.731V246.398H672.721V260.731H658.387ZM658.387 245.442V231.109H672.721V245.442H658.387ZM658.387 230.153V215.819H672.721V230.153H658.387ZM658.387 214.864V200.53H672.721V214.864H658.387ZM658.387 199.575V185.241H672.721V199.575H658.387ZM658.387 184.286V169.952H672.721V184.286H658.387ZM658.387 168.997V154.663H672.721V168.997H658.387ZM658.387 153.707V139.374H672.721V153.707H658.387ZM658.387 138.418V124.085H672.721V138.418H658.387ZM658.387 123.129V108.796H672.721V123.129H658.387ZM658.387 107.84V93.5066H672.721V107.84H658.387ZM658.387 92.5511V78.2175H672.721V92.5511H658.387ZM658.387 77.2619V62.9284H672.721V77.2619H658.387ZM658.387 61.9728V47.6393H672.721V61.9728H658.387ZM658.387 46.6837V32.3502H672.721V46.6837H658.387ZM657.432 46.6837H643.098V32.3502H657.432V46.6837ZM642.143 46.6837H627.809V32.3502H642.143V46.6837ZM626.853 46.6837H612.52V32.3502H626.853V46.6837ZM611.564 46.6837H597.231V32.3502H611.564V46.6837ZM596.275 46.6837H581.942V32.3502H596.275V46.6837ZM580.986 46.6837H566.653V32.3502H580.986V46.6837ZM565.697 46.6837H551.363V32.3502H565.697V46.6837ZM550.408 46.6837H536.074V32.3502H550.408V46.6837ZM535.119 46.6837H520.785V32.3502H535.119V46.6837ZM519.83 46.6837H505.496V32.3502H519.83V46.6837ZM504.541 46.6837H490.207V32.3502H504.541V46.6837ZM489.251 46.6837H474.918V32.3502H489.251V46.6837ZM473.962 46.6837H459.629V32.3502H473.962V46.6837ZM458.673 46.6837H444.34V32.3502H458.673V46.6837ZM443.384 46.6837H429.051V32.3502H443.384V46.6837ZM428.095 46.6837H413.761V32.3502H428.095V46.6837ZM412.806 46.6837H398.472V32.3502H412.806V46.6837ZM397.517 46.6837H383.183V32.3502H397.517V46.6837ZM382.228 46.6837H367.894V32.3502H382.228V46.6837ZM366.939 46.6837H352.605V32.3502H366.939V46.6837ZM351.649 46.6837H337.316V32.3502H351.649V46.6837ZM336.36 46.6837H322.027V32.3502H336.36V46.6837ZM321.071 46.6837H306.738V32.3502H321.071V46.6837ZM305.782 46.6837H291.449V32.3502H305.782V46.6837ZM290.493 46.6837H276.16V32.3502H290.493V46.6837ZM275.204 46.6837H260.87V32.3502H275.204V46.6837ZM259.915 46.6837H245.581V32.3502H259.915V46.6837ZM244.626 46.6837H230.292V32.3502H244.626V46.6837ZM229.337 46.6837H215.003V32.3502H229.337V46.6837ZM214.048 46.6837H199.714V32.3502H214.048V46.6837ZM198.758 46.6837H184.425V32.3502H198.758V46.6837ZM183.469 46.6837H169.136V32.3502H183.469V46.6837ZM168.18 46.6837H153.847V32.3502H168.18V46.6837ZM152.891 46.6837H138.558V32.3502H152.891V46.6837ZM137.602 46.6837H123.268V32.3502H137.602V46.6837ZM122.313 46.6837H107.979V32.3502H122.313V46.6837ZM107.024 46.6837H92.6902V32.3502H107.024V46.6837ZM91.7346 46.6837H77.4011V32.3502H91.7346V46.6837ZM76.4455 46.6837H62.112V32.3502H76.4455V46.6837ZM61.1564 46.6837H46.8229V32.3502H61.1564V46.6837ZM45.8673 46.6837H31.5338V32.3502H45.8673V46.6837ZM45.8673 47.6393V61.9728H31.5338V47.6393H45.8673ZM45.8673 62.9284V77.2619H31.5338V62.9284H45.8673ZM45.8673 78.2175V92.5511H31.5338V78.2175H45.8673ZM45.8673 93.5066V107.84H31.5338V93.5066H45.8673ZM45.8673 108.796V123.129H31.5338V108.796H45.8673ZM45.8673 124.085V138.418H31.5338V124.085H45.8673ZM45.8673 139.374V153.707H31.5338V139.374H45.8673ZM45.8673 154.663V168.997H31.5338V154.663H45.8673ZM45.8673 169.952V184.286H31.5338V169.952H45.8673ZM45.8673 185.241V199.575H31.5338V185.241H45.8673ZM45.8673 200.53V214.864H31.5338V200.53H45.8673ZM45.8673 215.819V230.153H31.5338V215.819H45.8673ZM45.8673 231.109V245.442H31.5338V231.109H45.8673ZM45.8673 246.398V260.731H31.5338V246.398H45.8673ZM45.8673 261.687V276.02H31.5338V261.687H45.8673ZM45.8673 276.976V291.309H31.5338V276.976H45.8673ZM45.8673 292.265V306.599H31.5338V292.265H45.8673ZM45.8673 307.554V321.888H31.5338V307.554H45.8673ZM45.8673 322.843V337.177H31.5338V322.843H45.8673ZM45.8673 338.132V352.466H31.5338V338.132H45.8673ZM45.8673 353.421V367.755H31.5338V353.421H45.8673ZM45.8673 368.711V383.044H31.5338V368.711H45.8673ZM45.8673 384V398.333H31.5338V384H45.8673ZM45.8673 399.289V413.622H31.5338V399.289H45.8673ZM45.8673 414.578V428.911H31.5338V414.578H45.8673ZM45.8673 429.867V444.201H31.5338V429.867H45.8673ZM45.8673 445.156V459.49H31.5338V445.156H45.8673ZM46.8229 445.156H61.1564V459.49H46.8229V445.156ZM62.112 445.156H76.4455V459.49H62.112V445.156ZM77.4011 445.156H91.7346V459.49H77.4011V445.156ZM92.6902 445.156H107.024V459.49H92.6902V445.156ZM107.979 445.156H122.313V459.49H107.979V445.156ZM123.268 445.156H137.602V459.49H123.268V445.156ZM138.558 445.156H152.891V459.49H138.558V445.156ZM153.847 445.156H168.18V459.49H153.847V445.156ZM169.136 445.156H183.469V459.49H169.136V445.156ZM184.425 445.156H198.758V459.49H184.425V445.156ZM199.714 445.156H214.048V459.49H199.714V445.156ZM215.003 445.156H229.337V459.49H215.003V445.156ZM230.292 445.156H244.626V459.49H230.292V445.156ZM245.581 445.156H259.915V459.49H245.581V445.156ZM260.87 445.156H275.204V459.49H260.87V445.156ZM276.16 445.156H290.493V459.49H276.16V445.156ZM291.449 445.156H305.782V459.49H291.449V445.156ZM306.738 445.156H321.071V459.49H306.738V445.156ZM322.027 445.156H336.36V459.49H322.027V445.156ZM337.316 445.156H351.649V459.49H337.316V445.156ZM352.605 445.156H366.939V459.49H352.605V445.156ZM367.894 445.156H382.228V459.49H367.894V445.156ZM383.183 445.156H397.517V459.49H383.183V445.156ZM398.472 445.156H412.806V459.49H398.472V445.156ZM413.761 445.156H428.095V459.49H413.761V445.156ZM429.051 445.156H443.384V459.49H429.051V445.156ZM444.34 445.156H458.673V459.49H444.34V445.156ZM459.629 445.156H473.962V459.49H459.629V445.156ZM474.918 445.156H489.251V459.49H474.918V445.156ZM490.207 445.156H504.541V459.49H490.207V445.156ZM505.496 445.156H519.83V459.49H505.496V445.156ZM520.785 445.156H535.119V459.49H520.785V445.156ZM536.074 445.156H550.408V459.49H536.074V445.156ZM551.363 445.156H565.697V459.49H551.363V445.156ZM566.653 445.156H580.986V459.49H566.653V445.156ZM581.942 445.156H596.275V459.49H581.942V445.156ZM597.231 445.156H611.564V459.49H597.231V445.156ZM612.52 445.156H626.853V459.49H612.52V445.156ZM627.809 445.156H642.143V459.49H627.809V445.156ZM643.098 445.156H657.432V459.49H643.098V445.156ZM658.387 445.156H672.721V459.49H658.387V445.156ZM673.676 445.156H688.01V459.49H673.676V445.156ZM673.676 444.201V429.867H688.01V444.201H673.676ZM673.676 428.911V414.578H688.01V428.911H673.676ZM673.676 413.622V399.289H688.01V413.622H673.676ZM673.676 398.333V384H688.01V398.333H673.676ZM673.676 383.044V368.711H688.01V383.044H673.676ZM673.676 367.755V353.421H688.01V367.755H673.676ZM673.676 352.466V338.132H688.01V352.466H673.676ZM673.676 337.177V322.843H688.01V337.177H673.676ZM673.676 321.888V307.554H688.01V321.888H673.676ZM673.676 306.599V292.265H688.01V306.599H673.676ZM673.676 291.309V276.976H688.01V291.309H673.676ZM673.676 276.02V261.687H688.01V276.02H673.676ZM673.676 260.731V246.398H688.01V260.731H673.676ZM673.676 245.442V231.109H688.01V245.442H673.676ZM673.676 230.153V215.819H688.01V230.153H673.676ZM673.676 214.864V200.53H688.01V214.864H673.676ZM673.676 199.575V185.241H688.01V199.575H673.676ZM673.676 184.286V169.952H688.01V184.286H673.676ZM673.676 168.997V154.663H688.01V168.997H673.676ZM673.676 153.707V139.374H688.01V153.707H673.676ZM673.676 138.418V124.085H688.01V138.418H673.676ZM673.676 123.129V108.796H688.01V123.129H673.676ZM673.676 107.84V93.5066H688.01V107.84H673.676ZM673.676 92.5511V78.2175H688.01V92.5511H673.676ZM673.676 77.2619V62.9284H688.01V77.2619H673.676ZM673.676 61.9728V47.6393H688.01V61.9728H673.676ZM673.676 46.6837V32.3502H688.01V46.6837H673.676ZM673.676 31.3946V17.0611H688.01V31.3946H673.676ZM672.721 31.3946H658.387V17.0611H672.721V31.3946ZM657.432 31.3946H643.098V17.0611H657.432V31.3946ZM642.143 31.3946H627.809V17.0611H642.143V31.3946ZM626.853 31.3946H612.52V17.0611H626.853V31.3946ZM611.564 31.3946H597.231V17.0611H611.564V31.3946ZM596.275 31.3946H581.942V17.0611H596.275V31.3946ZM580.986 31.3946H566.653V17.0611H580.986V31.3946ZM565.697 31.3946H551.363V17.0611H565.697V31.3946ZM550.408 31.3946H536.074V17.0611H550.408V31.3946ZM535.119 31.3946H520.785V17.0611H535.119V31.3946ZM519.83 31.3946H505.496V17.0611H519.83V31.3946ZM504.541 31.3946H490.207V17.0611H504.541V31.3946ZM489.251 31.3946H474.918V17.0611H489.251V31.3946ZM473.962 31.3946H459.629V17.0611H473.962V31.3946ZM458.673 31.3946H444.34V17.0611H458.673V31.3946ZM443.384 31.3946H429.051V17.0611H443.384V31.3946ZM428.095 31.3946H413.761V17.0611H428.095V31.3946ZM412.806 31.3946H398.472V17.0611H412.806V31.3946ZM397.517 31.3946H383.183V17.0611H397.517V31.3946ZM382.228 31.3946H367.894V17.0611H382.228V31.3946ZM366.939 31.3946H352.605V17.0611H366.939V31.3946ZM351.649 31.3946H337.316V17.0611H351.649V31.3946ZM336.36 31.3946H322.027V17.0611H336.36V31.3946ZM321.071 31.3946H306.738V17.0611H321.071V31.3946ZM305.782 31.3946H291.449V17.0611H305.782V31.3946ZM290.493 31.3946H276.16V17.0611H290.493V31.3946ZM275.204 31.3946H260.87V17.0611H275.204V31.3946ZM259.915 31.3946H245.581V17.0611H259.915V31.3946ZM244.626 31.3946H230.292V17.0611H244.626V31.3946ZM229.337 31.3946H215.003V17.0611H229.337V31.3946ZM214.048 31.3946H199.714V17.0611H214.048V31.3946ZM198.758 31.3946H184.425V17.0611H198.758V31.3946ZM183.469 31.3946H169.136V17.0611H183.469V31.3946ZM168.18 31.3946H153.847V17.0611H168.18V31.3946ZM152.891 31.3946H138.558V17.0611H152.891V31.3946ZM137.602 31.3946H123.268V17.0611H137.602V31.3946ZM122.313 31.3946H107.979V17.0611H122.313V31.3946ZM107.024 31.3946H92.6902V17.0611H107.024V31.3946ZM91.7346 31.3946H77.4011V17.0611H91.7346V31.3946ZM76.4455 31.3946H62.112V17.0611H76.4455V31.3946ZM61.1564 31.3946H46.8229V17.0611H61.1564V31.3946ZM45.8673 31.3946H31.5338V17.0611H45.8673V31.3946ZM30.5782 31.3946H16.2447V17.0611H30.5782V31.3946ZM30.5782 32.3502V46.6837H16.2447V32.3502H30.5782ZM30.5782 47.6393V61.9728H16.2447V47.6393H30.5782ZM30.5782 62.9284V77.2619H16.2447V62.9284H30.5782ZM30.5782 78.2175V92.5511H16.2447V78.2175H30.5782ZM30.5782 93.5066V107.84H16.2447V93.5066H30.5782ZM30.5782 108.796V123.129H16.2447V108.796H30.5782ZM30.5782 124.085V138.418H16.2447V124.085H30.5782ZM30.5782 139.374V153.707H16.2447V139.374H30.5782ZM30.5782 154.663V168.997H16.2447V154.663H30.5782ZM30.5782 169.952V184.286H16.2447V169.952H30.5782ZM30.5782 185.241V199.575H16.2447V185.241H30.5782ZM30.5782 200.53V214.864H16.2447V200.53H30.5782ZM30.5782 215.819V230.153H16.2447V215.819H30.5782ZM30.5782 231.109V245.442H16.2447V231.109H30.5782ZM30.5782 246.398V260.731H16.2447V246.398H30.5782ZM30.5782 261.687V276.02H16.2447V261.687H30.5782ZM30.5782 276.976V291.309H16.2447V276.976H30.5782ZM30.5782 292.265V306.599H16.2447V292.265H30.5782ZM30.5782 307.554V321.888H16.2447V307.554H30.5782ZM30.5782 322.843V337.177H16.2447V322.843H30.5782ZM30.5782 338.132V352.466H16.2447V338.132H30.5782ZM30.5782 353.421V367.755H16.2447V353.421H30.5782ZM30.5782 368.711V383.044H16.2447V368.711H30.5782ZM30.5782 384V398.333H16.2447V384H30.5782ZM30.5782 399.289V413.622H16.2447V399.289H30.5782ZM30.5782 414.578V428.911H16.2447V414.578H30.5782ZM30.5782 429.867V444.201H16.2447V429.867H30.5782ZM30.5782 445.156V459.49H16.2447V445.156H30.5782ZM30.5782 460.445V474.779H16.2447V460.445H30.5782ZM31.5338 460.445H45.8673V474.779H31.5338V460.445ZM46.8229 460.445H61.1564V474.779H46.8229V460.445ZM62.112 460.445H76.4455V474.779H62.112V460.445ZM77.4011 460.445H91.7346V474.779H77.4011V460.445ZM92.6902 460.445H107.024V474.779H92.6902V460.445ZM107.979 460.445H122.313V474.779H107.979V460.445ZM123.268 460.445H137.602V474.779H123.268V460.445ZM138.558 460.445H152.891V474.779H138.558V460.445ZM153.847 460.445H168.18V474.779H153.847V460.445ZM169.136 460.445H183.469V474.779H169.136V460.445ZM184.425 460.445H198.758V474.779H184.425V460.445ZM199.714 460.445H214.048V474.779H199.714V460.445ZM215.003 460.445H229.337V474.779H215.003V460.445ZM230.292 460.445H244.626V474.779H230.292V460.445ZM245.581 460.445H259.915V474.779H245.581V460.445ZM260.87 460.445H275.204V474.779H260.87V460.445ZM276.16 460.445H290.493V474.779H276.16V460.445ZM291.449 460.445H305.782V474.779H291.449V460.445ZM306.738 460.445H321.071V474.779H306.738V460.445ZM322.027 460.445H336.36V474.779H322.027V460.445ZM337.316 460.445H351.649V474.779H337.316V460.445ZM352.605 460.445H366.939V474.779H352.605V460.445ZM367.894 460.445H382.228V474.779H367.894V460.445ZM383.183 460.445H397.517V474.779H383.183V460.445ZM398.472 460.445H412.806V474.779H398.472V460.445ZM413.761 460.445H428.095V474.779H413.761V460.445ZM429.051 460.445H443.384V474.779H429.051V460.445ZM444.34 460.445H458.673V474.779H444.34V460.445ZM459.629 460.445H473.962V474.779H459.629V460.445ZM474.918 460.445H489.251V474.779H474.918V460.445ZM490.207 460.445H504.541V474.779H490.207V460.445ZM505.496 460.445H519.83V474.779H505.496V460.445ZM520.785 460.445H535.119V474.779H520.785V460.445ZM536.074 460.445H550.408V474.779H536.074V460.445ZM551.363 460.445H565.697V474.779H551.363V460.445ZM566.653 460.445H580.986V474.779H566.653V460.445ZM581.942 460.445H596.275V474.779H581.942V460.445ZM597.231 460.445H611.564V474.779H597.231V460.445ZM612.52 460.445H626.853V474.779H612.52V460.445ZM627.809 460.445H642.143V474.779H627.809V460.445ZM643.098 460.445H657.432V474.779H643.098V460.445ZM658.387 460.445H672.721V474.779H658.387V460.445ZM673.676 460.445H688.01V474.779H673.676V460.445ZM688.965 460.445H703.299V474.779H688.965V460.445ZM688.965 459.49V445.156H703.299V459.49H688.965ZM688.965 444.201V429.867H703.299V444.201H688.965ZM688.965 428.911V414.578H703.299V428.911H688.965ZM688.965 413.622V399.289H703.299V413.622H688.965ZM688.965 398.333V384H703.299V398.333H688.965ZM688.965 383.044V368.711H703.299V383.044H688.965ZM688.965 367.755V353.421H703.299V367.755H688.965ZM688.965 352.466V338.132H703.299V352.466H688.965ZM688.965 337.177V322.843H703.299V337.177H688.965ZM688.965 321.888V307.554H703.299V321.888H688.965ZM688.965 306.599V292.265H703.299V306.599H688.965ZM688.965 291.309V276.976H703.299V291.309H688.965ZM688.965 276.02V261.687H703.299V276.02H688.965ZM688.965 260.731V246.398H703.299V260.731H688.965ZM688.965 245.442V231.109H703.299V245.442H688.965ZM688.965 230.153V215.819H703.299V230.153H688.965ZM688.965 214.864V200.53H703.299V214.864H688.965ZM688.965 199.575V185.241H703.299V199.575H688.965ZM688.965 184.286V169.952H703.299V184.286H688.965ZM688.965 168.997V154.663H703.299V168.997H688.965ZM688.965 153.707V139.374H703.299V153.707H688.965ZM688.965 138.418V124.085H703.299V138.418H688.965ZM688.965 123.129V108.796H703.299V123.129H688.965ZM688.965 107.84V93.5066H703.299V107.84H688.965ZM688.965 92.5511V78.2175H703.299V92.5511H688.965ZM688.965 77.2619V62.9284H703.299V77.2619H688.965ZM688.965 61.9728V47.6393H703.299V61.9728H688.965ZM688.965 46.6837V32.3502H703.299V46.6837H688.965ZM688.965 31.3946V17.0611H703.299V31.3946H688.965ZM688.01 1.77198V16.1055H673.676V1.77198H688.01ZM672.721 1.77198V16.1055H658.387V1.77198H672.721ZM657.432 1.77198V16.1055H643.098V1.77198H657.432ZM642.143 1.77198V16.1055H627.809V1.77198H642.143ZM626.853 1.77198V16.1055H612.52V1.77198H626.853ZM611.564 1.77198V16.1055H597.231V1.77198H611.564ZM596.275 1.77198V16.1055H581.942V1.77198H596.275ZM580.986 1.77198V16.1055H566.653V1.77198H580.986ZM565.697 1.77198V16.1055H551.363V1.77198H565.697ZM550.408 1.77198V16.1055H536.074V1.77198H550.408ZM535.119 1.77198V16.1055H520.785V1.77198H535.119ZM519.83 1.77198V16.1055H505.496V1.77198H519.83ZM504.541 1.77198V16.1055H490.207V1.77198H504.541ZM489.251 1.77198V16.1055H474.918V1.77198H489.251ZM473.962 1.77198V16.1055H459.629V1.77198H473.962ZM458.673 1.77198V16.1055H444.34V1.77198H458.673ZM443.384 1.77198V16.1055H429.051V1.77198H443.384ZM428.095 1.77198V16.1055H413.761V1.77198H428.095ZM412.806 1.77198V16.1055H398.472V1.77198H412.806ZM397.517 1.77198V16.1055H383.183V1.77198H397.517ZM382.228 1.77198V16.1055H367.894V1.77198H382.228ZM366.939 1.77198V16.1055H352.605V1.77198H366.939ZM351.649 1.77198V16.1055H337.316V1.77198H351.649ZM336.36 1.77198V16.1055H322.027V1.77198H336.36ZM321.071 1.77198V16.1055H306.738V1.77198H321.071ZM305.782 1.77198V16.1055H291.449V1.77198H305.782ZM290.493 1.77198V16.1055H276.16V1.77198H290.493ZM275.204 1.77198V16.1055H260.87V1.77198H275.204ZM259.915 1.77198V16.1055H245.581V1.77198H259.915ZM244.626 1.77198V16.1055H230.292V1.77198H244.626ZM229.337 1.77198V16.1055H215.003V1.77198H229.337ZM214.048 1.77198V16.1055H199.714V1.77198H214.048ZM198.758 1.77198V16.1055H184.425V1.77198H198.758ZM183.469 1.77198V16.1055H169.136V1.77198H183.469ZM168.18 1.77198V16.1055H153.847V1.77198H168.18ZM152.891 1.77198V16.1055H138.558V1.77198H152.891ZM137.602 1.77198V16.1055H123.268V1.77198H137.602ZM122.313 1.77198V16.1055H107.979V1.77198H122.313ZM107.024 1.77198V16.1055H92.6902V1.77198H107.024ZM91.7346 1.77198V16.1055H77.4011V1.77198H91.7346ZM76.4455 1.77198V16.1055H62.112V1.77198H76.4455ZM61.1564 1.77198V16.1055H46.8229V1.77198H61.1564ZM45.8673 1.77198V16.1055H31.5338V1.77198H45.8673ZM30.5782 1.77198V16.1055H16.2447V1.77198H30.5782ZM0.955569 1.77198H15.2891V16.1055H0.955569V1.77198ZM0.955569 17.0611H15.2891V31.3946H0.955569V17.0611ZM0.955569 32.3502H15.2891V46.6837H0.955569V32.3502ZM0.955569 47.6393H15.2891V61.9728H0.955569V47.6393ZM0.955569 62.9284H15.2891V77.2619H0.955569V62.9284ZM0.955569 78.2175H15.2891V92.5511H0.955569V78.2175ZM0.955569 93.5066H15.2891V107.84H0.955569V93.5066ZM0.955569 108.796H15.2891V123.129H0.955569V108.796ZM0.955569 124.085H15.2891V138.418H0.955569V124.085ZM0.955569 139.374H15.2891V153.707H0.955569V139.374ZM0.955569 154.663H15.2891V168.997H0.955569V154.663ZM0.955569 169.952H15.2891V184.286H0.955569V169.952ZM0.955569 185.241H15.2891V199.575H0.955569V185.241ZM0.955569 200.53H15.2891V214.864H0.955569V200.53ZM0.955569 215.819H15.2891V230.153H0.955569V215.819ZM0.955569 231.109H15.2891V245.442H0.955569V231.109ZM0.955569 246.398H15.2891V260.731H0.955569V246.398ZM0.955569 261.687H15.2891V276.02H0.955569V261.687ZM0.955569 276.976H15.2891V291.309H0.955569V276.976ZM0.955569 292.265H15.2891V306.599H0.955569V292.265ZM0.955569 307.554H15.2891V321.888H0.955569V307.554ZM0.955569 322.843H15.2891V337.177H0.955569V322.843ZM0.955569 338.132H15.2891V352.466H0.955569V338.132ZM0.955569 353.421H15.2891V367.755H0.955569V353.421ZM0.955569 368.711H15.2891V383.044H0.955569V368.711ZM0.955569 384H15.2891V398.333H0.955569V384ZM0.955569 399.289H15.2891V413.622H0.955569V399.289ZM0.955569 414.578H15.2891V428.911H0.955569V414.578ZM0.955569 429.867H15.2891V444.201H0.955569V429.867ZM0.955569 445.156H15.2891V459.49H0.955569V445.156ZM0.955569 460.445H15.2891V474.779H0.955569V460.445ZM0.955569 490.068V475.734H15.2891V490.068H0.955569ZM16.2447 490.068V475.734H30.5782V490.068H16.2447ZM31.5338 490.068V475.734H45.8673V490.068H31.5338ZM46.8229 490.068V475.734H61.1564V490.068H46.8229ZM62.112 490.068V475.734H76.4455V490.068H62.112ZM77.4011 490.068V475.734H91.7346V490.068H77.4011ZM92.6902 490.068V475.734H107.024V490.068H92.6902ZM107.979 490.068V475.734H122.313V490.068H107.979ZM123.268 490.068V475.734H137.602V490.068H123.268ZM138.558 490.068V475.734H152.891V490.068H138.558ZM153.847 490.068V475.734H168.18V490.068H153.847ZM169.136 490.068V475.734H183.469V490.068H169.136ZM184.425 490.068V475.734H198.758V490.068H184.425ZM199.714 490.068V475.734H214.048V490.068H199.714ZM215.003 490.068V475.734H229.337V490.068H215.003ZM230.292 490.068V475.734H244.626V490.068H230.292ZM245.581 490.068V475.734H259.915V490.068H245.581ZM260.87 490.068V475.734H275.204V490.068H260.87ZM276.16 490.068V475.734H290.493V490.068H276.16ZM291.449 490.068V475.734H305.782V490.068H291.449ZM306.738 490.068V475.734H321.071V490.068H306.738ZM322.027 490.068V475.734H336.36V490.068H322.027ZM337.316 490.068V475.734H351.649V490.068H337.316ZM352.605 490.068V475.734H366.939V490.068H352.605ZM367.894 490.068V475.734H382.228V490.068H367.894ZM383.183 490.068V475.734H397.517V490.068H383.183ZM398.472 490.068V475.734H412.806V490.068H398.472ZM413.761 490.068V475.734H428.095V490.068H413.761ZM429.051 490.068V475.734H443.384V490.068H429.051ZM444.34 490.068V475.734H458.673V490.068H444.34ZM459.629 490.068V475.734H473.962V490.068H459.629ZM474.918 490.068V475.734H489.251V490.068H474.918ZM490.207 490.068V475.734H504.541V490.068H490.207ZM505.496 490.068V475.734H519.83V490.068H505.496ZM520.785 490.068V475.734H535.119V490.068H520.785ZM536.074 490.068V475.734H550.408V490.068H536.074ZM551.363 490.068V475.734H565.697V490.068H551.363ZM566.653 490.068V475.734H580.986V490.068H566.653ZM581.942 490.068V475.734H596.275V490.068H581.942ZM597.231 490.068V475.734H611.564V490.068H597.231ZM612.52 490.068V475.734H626.853V490.068H612.52ZM627.809 490.068V475.734H642.143V490.068H627.809ZM643.098 490.068V475.734H657.432V490.068H643.098ZM658.387 490.068V475.734H672.721V490.068H658.387ZM673.676 490.068V475.734H688.01V490.068H673.676ZM688.965 490.068V475.734H703.299V490.068H688.965ZM718.588 490.068H704.255V475.734H718.588V490.068ZM718.588 474.779H704.255V460.445H718.588V474.779ZM718.588 459.49H704.255V445.156H718.588V459.49ZM718.588 444.201H704.255V429.867H718.588V444.201ZM718.588 428.911H704.255V414.578H718.588V428.911ZM718.588 413.622H704.255V399.289H718.588V413.622ZM718.588 398.333H704.255V384H718.588V398.333ZM718.588 383.044H704.255V368.711H718.588V383.044ZM718.588 367.755H704.255V353.421H718.588V367.755ZM718.588 352.466H704.255V338.132H718.588V352.466ZM718.588 337.177H704.255V322.843H718.588V337.177ZM718.588 321.888H704.255V307.554H718.588V321.888ZM718.588 306.599H704.255V292.265H718.588V306.599ZM718.588 291.309H704.255V276.976H718.588V291.309ZM718.588 276.02H704.255V261.687H718.588V276.02ZM718.588 260.731H704.255V246.398H718.588V260.731ZM718.588 245.442H704.255V231.109H718.588V245.442ZM718.588 230.153H704.255V215.819H718.588V230.153ZM718.588 214.864H704.255V200.53H718.588V214.864ZM718.588 199.575H704.255V185.241H718.588V199.575ZM718.588 184.286H704.255V169.952H718.588V184.286ZM718.588 168.997H704.255V154.663H718.588V168.997ZM718.588 153.707H704.255V139.374H718.588V153.707ZM718.588 138.418H704.255V124.085H718.588V138.418ZM718.588 123.129H704.255V108.796H718.588V123.129ZM718.588 107.84H704.255V93.5066H718.588V107.84ZM718.588 92.5511H704.255V78.2175H718.588V92.5511ZM718.588 77.2619H704.255V62.9284H718.588V77.2619ZM718.588 61.9728H704.255V47.6393H718.588V61.9728ZM718.588 46.6837H704.255V32.3502H718.588V46.6837ZM718.588 31.3946H704.255V17.0611H718.588V31.3946Z" fill="url(#paint0_linear_623_30075)"/>
<defs>
<linearGradient id="paint0_linear_623_30075" x1="732.266" y1="201.909" x2="-14.359" y2="202.945" gradientUnits="userSpaceOnUse">
<stop stop-color="#BCE9FF"/>
<stop offset="0.997837" stop-color="#C5EAFD" stop-opacity="0"/>
</linearGradient>
</defs>
</svg>
