<svg width="344" height="321" viewBox="0 0 344 321" fill="none" xmlns="http://www.w3.org/2000/svg">
<g clip-path="url(#clip0_621_30508)">
<path d="M301.903 24.6992H91.9546V233.894H301.903V24.6992Z" fill="#071D2D"/>
<path d="M108.985 41.5431C108.985 44.0008 107.001 45.9886 104.546 45.9886C102.092 45.9886 100.097 44.0008 100.097 41.5431C100.097 39.0855 102.092 37.0977 104.546 37.0977C107 37.0977 108.985 39.0855 108.985 41.5431Z" fill="#24B5E9"/>
<path d="M125.566 41.5431C125.566 44.0008 123.582 45.9886 121.127 45.9886C118.673 45.9886 116.678 44.0008 116.678 41.5431C116.678 39.0855 118.674 37.0977 121.127 37.0977C123.581 37.0977 125.566 39.0855 125.566 41.5431Z" fill="#24B5E9"/>
<path d="M142.147 41.5431C142.147 44.0008 140.163 45.9886 137.708 45.9886C135.254 45.9886 133.259 44.0008 133.259 41.5431C133.259 39.0855 135.255 37.0977 137.708 37.0977C140.162 37.0977 142.147 39.0855 142.147 41.5431Z" fill="#24B5E9"/>
<path d="M175.209 156.508H0.549805V210.958H175.209V156.508Z" fill="#123E5E"/>
<path d="M175.208 156.508H120.575V210.958H175.208V156.508Z" fill="#ABF68B"/>
<path d="M63.7591 260.86C58.4402 259.403 54.7837 254.742 52.764 249.524C50.5696 243.855 50.1468 237.478 51.5739 231.568C51.7039 231.03 52.2447 230.698 52.7831 230.829C53.3216 230.96 53.651 231.502 53.5218 232.041C52.1897 237.556 52.5837 243.507 54.6322 248.798C56.1565 252.736 58.7817 256.566 62.6041 258.308C61.871 256.239 61.4531 253.681 62.2132 251.031C63.3635 247.02 67.2992 244.274 71.0004 244.912C74.0451 245.438 76.5291 248.156 76.9072 251.376C77.2526 254.332 75.8367 257.458 73.3001 259.339C71.3658 260.774 68.9049 261.426 66.3827 261.288C70.2857 266.929 77.539 270.165 84.3336 269.211C91.4089 268.217 97.7145 262.714 99.6656 255.83C99.8172 255.297 100.368 254.987 100.904 255.139C101.436 255.291 101.744 255.845 101.594 256.378C99.4311 264.003 92.4475 270.097 84.6111 271.198C76.3744 272.356 67.6845 267.962 63.7591 260.859V260.86ZM65.1048 259.099C67.643 259.576 70.2339 259.116 72.1076 257.726C74.0779 256.265 75.1802 253.864 74.9162 251.609C74.645 249.29 72.8151 247.262 70.6598 246.89C67.7148 246.379 64.907 248.907 64.1388 251.585C63.4975 253.821 63.8525 256.492 65.1048 259.099V259.099Z" fill="#8EC5FF"/>
<path d="M331.19 44.1164C330.826 44.1164 330.476 43.9174 330.298 43.5715C330.045 43.0785 330.239 42.4737 330.731 42.2196C335.83 39.5934 339.554 34.9234 340.693 29.7284C341.889 24.2763 340.008 18.3271 336.014 14.9259C334.018 13.2264 331.506 12.2213 328.952 11.9489C329.762 17.1478 326.928 21.4599 323.334 22.4298C320.414 23.2168 316.935 21.4199 316.446 18.4022C316.01 15.7025 317.978 13.3439 319.966 12.0376C321.835 10.8088 324.03 10.1128 326.297 9.92988C325.143 7.09592 322.791 4.58795 319.78 3.37511C315.168 1.51829 309.23 2.3644 304.278 5.58427C303.815 5.88548 303.194 5.75445 302.892 5.28865C302.591 4.82365 302.722 4.20204 303.188 3.90083C308.676 0.331018 315.322 -0.584606 320.527 1.5135C324.359 3.05711 327.234 6.28337 328.451 9.90991C331.646 10.1025 334.828 11.2833 337.312 13.3974C341.855 17.2661 344 24.0022 342.65 30.1591C341.385 35.9317 337.271 41.1074 331.647 44.0045C331.501 44.0796 331.345 44.1156 331.19 44.1156V44.1164ZM326.89 11.889C324.803 11.9904 322.775 12.5929 321.066 13.7162C319.671 14.6334 318.142 16.3273 318.425 18.0818C318.718 19.8915 321.029 20.9733 322.813 20.4923C325.479 19.7724 327.76 16.2378 326.89 11.889Z" fill="#00C5C5"/>
<path d="M268.915 257.317L228.894 262.054L260.853 303.354L241.784 318.158L209.825 276.859L195.265 314.497C192.143 322.566 180.367 321.278 179.058 312.722L163.175 208.904C162.173 202.353 168.748 197.249 174.832 199.854L271.245 241.153C279.19 244.557 277.499 256.3 268.916 257.317H268.915Z" fill="#071D2D"/>
<path d="M327.928 168.965C346.746 150.116 346.746 119.556 327.928 100.707C309.109 81.8577 278.599 81.8577 259.78 100.707C240.962 119.556 240.962 150.116 259.78 168.965C278.599 187.814 309.109 187.814 327.928 168.965Z" fill="#071D2D"/>
<path d="M318.558 159.58C332.201 145.914 332.201 123.758 318.558 110.092C304.914 96.426 282.794 96.4261 269.15 110.092C255.507 123.758 255.507 145.914 269.15 159.58C282.794 173.246 304.914 173.246 318.558 159.58Z" fill="#F6EB8B"/>
<g clip-path="url(#clip1_621_30508)">
<path d="M307.591 134.44C296.718 129.206 295.998 124.619 293.932 120.178C292.91 117.978 292.724 128.19 284.612 132.537C280.23 134.886 276.525 133.158 284.388 137.038C289.076 139.353 291.487 143.357 293.173 148.261C294.001 150.675 295.226 140.883 304.783 136.009C305.499 135.645 306.323 135.409 307.017 135.006C307.794 135.383 307.97 134.62 307.591 134.436V134.44ZM293.785 147.579C292.095 142.86 289.533 138.868 285.017 136.682C276.219 132.421 282.257 136.858 288.804 130.059C291.254 127.517 292.539 124.151 293.712 120.885C295.372 127.534 300.647 131.816 306.228 134.616C300.63 136.738 295.14 142.619 293.781 147.575L293.785 147.579Z" fill="#53809D"/>
<path d="M294.26 108.37C294.195 108.104 293.794 108.108 293.72 108.37C293.466 109.291 293.837 109.536 293.371 117.286C293.371 117.334 293.854 119.044 294.169 112.781C294.169 112.738 294.376 108.837 294.26 108.37Z" fill="#53809D"/>
<path d="M293.384 152.495C293.207 153.82 293.457 155.234 292.733 161.172C292.729 161.215 293.376 163.217 293.69 156.842C293.971 151.175 293.401 152.358 293.384 152.495Z" fill="#53809D"/>
<path d="M276.253 134.162C275.956 134.145 268.442 133.69 267.205 133.712C266.653 133.72 266.679 134.488 267.205 134.543C269.284 134.766 274.166 134.676 276.253 134.595C276.533 134.582 276.529 134.179 276.253 134.162Z" fill="#53809D"/>
<path d="M320.659 133.773C319.99 133.657 321.185 133.717 311.071 133.931C310.786 133.936 310.782 134.369 311.071 134.373C320.84 134.48 320.094 134.54 320.659 134.433C320.986 134.373 320.991 133.829 320.659 133.769V133.773Z" fill="#53809D"/>
<path d="M312.132 115.127C311.52 115.688 311.826 115.624 309.609 118.17C306.624 121.604 304.226 123.919 301.544 126.881C300.625 127.893 304.075 125.81 311.459 117.017C311.86 116.541 312.369 116.083 312.675 115.542C312.874 115.2 312.421 114.861 312.132 115.127Z" fill="#53809D"/>
<path d="M286.647 127.363C277.621 122.227 274.304 118.849 272.781 117.889C272.355 117.619 271.94 118.21 272.26 118.562C273.187 119.578 274.433 120.405 275.537 121.22C283.853 127.371 288.17 128.229 286.647 127.359V127.363Z" fill="#53809D"/>
<path d="M313.309 152.515C312.667 151.778 309.225 149.313 302.346 142.887C301.76 142.338 300.975 143.011 311.425 151.932C311.886 152.327 312.339 152.773 312.87 153.077C313.24 153.291 313.573 152.811 313.309 152.511V152.515Z" fill="#53809D"/>
<path d="M285.815 142.154C283.611 143.44 274.511 150.56 272.984 151.323C272.393 151.619 272.911 152.502 273.501 152.206C276.068 150.925 289.36 140.079 285.815 142.154Z" fill="#53809D"/>
<path d="M286.665 118.833C284.172 113.415 283.029 114.431 286.281 119.056C286.445 119.292 286.785 119.091 286.665 118.833Z" fill="#53809D"/>
<path d="M277.37 128.574C273.626 127.931 273.708 127.644 273.281 127.785C273.091 127.85 272.932 128.103 273.074 128.291C273.359 128.673 274.411 128.853 275.136 128.964C278.034 129.402 277.654 128.626 277.37 128.574Z" fill="#53809D"/>
<path d="M301.898 114.829C301.85 114.618 301.579 114.567 301.432 114.708C301.165 114.961 301.479 114.576 299.849 118.871C299.789 119.025 300.039 119.964 301.246 116.998C301.872 115.463 301.971 115.133 301.898 114.833V114.829Z" fill="#53809D"/>
<path d="M313.659 125.715C313.064 125.758 313.443 126.033 309.506 127.404C308.859 127.627 309.674 128.425 312.939 126.813C314.586 125.998 313.767 125.707 313.659 125.711V125.715Z" fill="#53809D"/>
<path d="M314.564 142.454C314.142 142.089 310.67 140.791 310.04 140.696C309.95 140.683 309.203 140.799 310.972 141.596C314.784 143.32 314.961 142.793 314.564 142.45V142.454Z" fill="#53809D"/>
<path d="M301.26 150.162C301.135 149.943 300.755 150.089 300.841 150.337C303.019 156.485 304.473 155.846 301.26 150.162Z" fill="#53809D"/>
<path d="M284.97 154.153C284.819 156.022 287.67 151.452 287.751 150.089C287.838 148.679 284.974 154.11 284.97 154.153Z" fill="#53809D"/>
<path d="M277.883 140.651C274.606 142.014 274.17 141.547 273.514 141.907C273.139 142.113 273.23 142.692 273.631 142.803C274.463 143.03 276.771 142.036 277.659 141.41C278.504 140.818 278.039 140.587 277.883 140.651Z" fill="#53809D"/>
</g>
<path d="M232.314 70.6289H107.562V138.578H232.314V70.6289Z" fill="#24B5E9"/>
<path d="M120.867 121.077C127.186 109.058 135.032 97.6493 142.228 98.6959C150.871 99.9535 152.617 118.312 160.075 118.543C169.233 118.828 173.421 91.3677 183.403 91.2359C192.186 91.1193 196.217 112.282 204.202 111.928C209.786 111.679 214.059 101.05 217.131 89.8281" fill="#24B5E9"/>
<path d="M124.097 121.4C124.097 123.187 122.652 124.634 120.867 124.634C119.083 124.634 117.638 123.187 117.638 121.4C117.638 119.612 119.083 118.172 120.867 118.172C122.652 118.172 124.097 119.619 124.097 121.4Z" fill="white"/>
<path d="M144.791 98.6341C144.791 100.421 143.346 101.868 141.562 101.868C139.777 101.868 138.333 100.421 138.333 98.6341C138.333 96.8468 139.777 95.4062 141.562 95.4062C143.346 95.4062 144.791 96.8532 144.791 98.6341Z" fill="white"/>
<path d="M163.53 118.169C163.53 119.957 162.085 121.404 160.3 121.404C158.515 121.404 157.071 119.957 157.071 118.169C157.071 116.382 158.515 114.941 160.3 114.941C162.084 114.941 163.53 116.388 163.53 118.169Z" fill="white"/>
<path d="M186.556 91.638C186.556 93.4253 185.111 94.8723 183.327 94.8723C181.542 94.8723 180.098 93.4253 180.098 91.638C180.098 89.8507 181.542 88.4102 183.327 88.4102C185.111 88.4102 186.556 89.8571 186.556 91.638Z" fill="white"/>
<path d="M206.802 111.704C206.802 113.492 205.357 114.939 203.572 114.939C201.787 114.939 200.343 113.492 200.343 111.704C200.343 109.917 201.788 108.477 203.572 108.477C205.357 108.477 206.802 109.923 206.802 111.704Z" fill="white"/>
<path d="M220.361 89.5404C220.361 91.3277 218.916 92.7746 217.131 92.7746C215.347 92.7746 213.902 91.3277 213.902 89.5404C213.902 87.7531 215.347 86.3125 217.131 86.3125C218.916 86.3125 220.361 87.7594 220.361 89.5404Z" fill="white"/>
<path d="M104.547 36.5938C101.817 36.5938 99.5962 38.8133 99.5962 41.5418C99.5962 44.2703 101.817 46.489 104.547 46.489C107.276 46.489 109.487 44.2695 109.487 41.5418C109.487 38.8141 107.271 36.5938 104.547 36.5938ZM104.547 45.4855C102.369 45.4855 100.598 43.7166 100.598 41.5418C100.598 39.367 102.369 37.5973 104.547 37.5973C106.724 37.5973 108.485 39.367 108.485 41.5418C108.485 43.7166 106.719 45.4855 104.547 45.4855Z" fill="#53809D"/>
<path d="M121.127 36.5938C118.397 36.5938 116.177 38.8133 116.177 41.5418C116.177 44.2703 118.397 46.489 121.127 46.489C123.857 46.489 126.067 44.2695 126.067 41.5418C126.067 38.8141 123.851 36.5938 121.127 36.5938ZM121.127 45.4855C118.949 45.4855 117.179 43.7166 117.179 41.5418C117.179 39.367 118.949 37.5973 121.127 37.5973C123.305 37.5973 125.065 39.367 125.065 41.5418C125.065 43.7166 123.299 45.4855 121.127 45.4855Z" fill="#53809D"/>
<path d="M137.709 36.5938C134.979 36.5938 132.758 38.8133 132.758 41.5418C132.758 44.2703 134.979 46.489 137.709 46.489C140.438 46.489 142.649 44.2695 142.649 41.5418C142.649 38.8141 140.433 36.5938 137.709 36.5938ZM137.709 45.4855C135.531 45.4855 133.76 43.7166 133.76 41.5418C133.76 39.367 135.531 37.5973 137.709 37.5973C139.886 37.5973 141.647 39.367 141.647 41.5418C141.647 43.7166 139.881 45.4855 137.709 45.4855Z" fill="#53809D"/>
<path d="M24.6366 169.211H22.8737C21.6238 169.211 20.5389 169.889 19.9367 170.89C19.3352 169.888 18.2496 169.211 16.9996 169.211H15.2368C14.96 169.211 14.7358 169.435 14.7358 169.713C14.7358 169.99 14.96 170.214 15.2368 170.214H16.9996C18.3429 170.214 19.4357 171.309 19.4357 172.655V194.79C19.4357 196.136 18.3429 197.23 16.9996 197.23H15.6133C15.3365 197.23 15.1123 197.455 15.1123 197.732C15.1123 198.009 15.3365 198.234 15.6133 198.234H16.9996C18.2496 198.234 19.3344 197.555 19.9367 196.554C20.5381 197.556 21.6238 198.234 22.8737 198.234H24.2601C24.5369 198.234 24.761 198.009 24.761 197.732C24.761 197.455 24.5369 197.23 24.2601 197.23H22.8737C21.5304 197.23 20.4376 196.136 20.4376 194.79V172.655C20.4376 171.309 21.5304 170.214 22.8737 170.214H24.6366C24.9134 170.214 25.1375 169.99 25.1375 169.713C25.1375 169.435 24.9134 169.211 24.6366 169.211Z" fill="#53809D"/>
<path d="M154.3 190.863L160.903 197.477C161.098 197.673 161.416 197.673 161.611 197.477C161.807 197.282 161.807 196.964 161.611 196.768L155.007 190.153C159.486 185.29 159.383 177.692 154.672 172.972C149.832 168.125 141.985 168.123 137.145 172.972C132.314 177.811 132.314 185.687 137.145 190.526C141.839 195.23 149.393 195.402 154.299 190.863H154.3ZM137.854 173.682C142.303 169.226 149.515 169.225 153.963 173.682C158.404 178.129 158.403 185.367 153.963 189.817C149.516 194.271 142.306 194.277 137.854 189.817C133.414 185.369 133.414 178.13 137.854 173.682Z" fill="#53809D"/>
<path d="M141.045 176.876C143.731 174.186 148.086 174.185 150.772 176.876C150.968 177.072 151.285 177.072 151.481 176.876C151.676 176.68 151.676 176.362 151.481 176.166C148.405 173.086 143.415 173.084 140.337 176.166C140.142 176.362 140.142 176.68 140.337 176.876C140.532 177.072 140.85 177.072 141.045 176.876Z" fill="#53809D"/>
<path d="M65.4599 122.171C65.617 122.398 65.9289 122.456 66.1562 122.298C66.3836 122.141 66.441 121.829 66.2839 121.601L44.7403 90.2955C44.5831 90.067 44.272 90.0095 44.0439 90.1669C43.8166 90.3243 43.7591 90.6367 43.9163 90.8644L65.4599 122.17V122.171Z" fill="#53809D"/>
<path d="M36.3218 79.8306C36.4789 80.0583 36.7908 80.1158 37.0182 79.9592C37.2455 79.8018 37.3029 79.4894 37.1458 79.2609L34.0747 74.7987C33.9176 74.5709 33.6065 74.5134 33.3784 74.6708C33.151 74.8282 33.0936 75.1406 33.2507 75.3683L36.3218 79.8306Z" fill="#53809D"/>
<path d="M73.9947 95.8818L74.3281 114.003C74.3337 114.277 74.5563 114.496 74.8291 114.496H74.8378C75.1146 114.491 75.3348 114.262 75.33 113.986L74.9966 95.8642C74.991 95.587 74.7764 95.3545 74.4869 95.372C74.2101 95.3776 73.9899 95.6061 73.9947 95.8826V95.8818Z" fill="#53809D"/>
<path d="M74.02 82.5832C74.0255 82.5832 74.0319 82.5832 74.0375 82.5832C74.3135 82.5744 74.5297 82.3411 74.5209 82.0647L74.3542 77.2461C74.3438 76.9696 74.1308 76.7547 73.8357 76.7619C73.5597 76.7715 73.3435 77.004 73.3523 77.2804L73.519 82.099C73.5286 82.3699 73.7511 82.584 74.02 82.584V82.5832Z" fill="#53809D"/>
<path d="M36.7603 121.606C36.6725 121.868 36.8153 122.153 37.0769 122.24C59.2236 129.615 57.9537 129.226 58.1108 129.226C58.6779 129.226 58.8048 128.427 58.2695 128.248L37.3944 121.288C37.1288 121.2 36.8472 121.343 36.7603 121.605V121.606Z" fill="#53809D"/>
<path d="M21.2893 116.977C25.5816 118.399 25.3886 118.367 25.5362 118.367C26.1017 118.367 26.2317 117.568 25.6949 117.389L21.6068 116.026C21.342 115.938 21.0596 116.081 20.9727 116.343C20.8849 116.606 21.0277 116.89 21.2893 116.977Z" fill="#53809D"/>
<path d="M302.403 86.8252V24.6971C302.403 24.4166 302.174 24.1953 301.901 24.1953H91.9555C91.6707 24.1953 91.4537 24.4302 91.4537 24.6971V156.004H0.550744C0.269963 156.004 0.0498047 156.232 0.0498047 156.506V210.96C0.0498047 211.234 0.269963 211.462 0.550744 211.462H91.4537V233.895C91.4537 234.169 91.6811 234.396 91.9547 234.396H166.566L178.562 312.796C179.956 321.866 192.419 323.235 195.729 314.676L209.97 277.865L241.391 318.463C241.558 318.683 241.872 318.723 242.092 318.556L261.162 303.751C261.362 303.59 261.429 303.274 261.249 303.048L229.835 262.45L268.971 257.814C278.09 256.74 279.847 244.286 271.442 240.692L256.747 234.396H301.901C302.182 234.396 302.402 234.169 302.402 233.895V182.833C317.124 180.184 330.45 170.81 337.543 156.365C351.801 127.337 334.256 92.4972 302.402 86.8244L302.403 86.8252ZM273.374 45.7372H245.593C245.452 45.7372 245.316 45.7972 245.221 45.9026L234.402 57.888H92.4572V25.1988H301.401V57.888H273.875V46.239C273.875 45.9617 273.651 45.7372 273.375 45.7372H273.374ZM1.05168 210.458V157.008H120.076V210.458H1.05168ZM174.708 199.266C168.36 196.809 161.64 202.143 162.678 208.98L162.905 210.459H121.078V157.009H174.709V199.266H174.708ZM92.4548 233.394V211.463H163.059L166.412 233.394H92.4556H92.4548ZM271.048 241.616C278.511 244.804 276.935 255.862 268.856 256.817L228.832 261.554C228.472 261.594 228.245 262.035 228.498 262.364L260.146 303.262L241.87 317.453L210.223 276.547C209.971 276.235 209.495 276.322 209.354 276.674L194.792 314.315C191.859 321.908 180.779 320.682 179.55 312.642C179.317 311.119 163.1 205.109 163.666 208.826C162.894 203.767 166.908 199.66 171.488 199.66C173.279 199.66 174.639 200.328 174.707 200.35C201.668 211.899 238.051 227.484 271.047 241.617L271.048 241.616ZM301.4 233.394H254.403L175.71 199.687V156.507C175.71 156.233 175.483 156.005 175.21 156.005H92.4556V58.8915H234.624C234.765 58.8915 234.901 58.8316 234.996 58.7261L245.816 46.7407H272.873V58.3898C272.873 58.667 273.097 58.8915 273.374 58.8915H301.401V86.6575C280.901 83.4464 259.793 93.702 250.169 113.312C238.312 137.438 248.272 166.729 272.365 178.598C281.481 183.097 291.629 184.562 301.401 183V233.393L301.4 233.394ZM336.641 155.924C329.721 170.014 316.75 179.174 302.402 181.81C302.068 181.877 301.734 181.93 301.4 181.985C291.824 183.54 281.865 182.162 272.805 177.696C249.213 166.075 239.461 137.386 251.063 113.755C260.5 94.5441 281.354 84.39 301.4 87.6817C301.734 87.7289 302.068 87.7824 302.402 87.8487C333.349 93.4144 350.632 127.446 336.641 155.924Z" fill="#53809D"/>
<path d="M309.497 102.99C291.964 94.3501 270.681 101.61 262.056 119.171C253.43 136.733 260.677 158.05 278.21 166.689C295.781 175.348 317.045 168.031 325.652 150.508C334.278 132.946 327.031 111.63 309.497 102.99ZM324.753 150.066C316.381 167.113 295.71 174.195 278.653 165.79C261.615 157.394 254.573 136.68 262.956 119.614C271.325 102.576 291.993 95.4831 309.056 103.891C326.093 112.286 333.135 133 324.753 150.066Z" fill="#53809D"/>
<path d="M232.815 138.579V70.6307C232.815 70.3534 232.591 70.1289 232.314 70.1289H107.561C107.284 70.1289 107.06 70.3534 107.06 70.6307V138.579C107.06 138.857 107.284 139.081 107.561 139.081H232.314C232.591 139.081 232.815 138.857 232.815 138.579ZM231.813 138.078H108.062V71.1324H231.813V138.078Z" fill="#53809D"/>
<path d="M145.224 99.3287C145.683 97.1619 143.974 94.9064 141.564 94.9064C139.507 94.9064 137.83 96.5787 137.83 98.64C137.83 98.7271 137.83 98.8142 137.844 98.9013C133.134 100.975 127.911 107.251 122.033 117.855C119.596 117.058 117.137 118.888 117.137 121.401C117.137 123.462 118.813 125.135 120.864 125.135C122.915 125.135 124.598 123.463 124.598 121.401C124.598 120.11 123.943 118.972 122.941 118.296C128.572 108.133 133.636 101.985 138.057 99.9176C139.168 102.968 143.41 103.253 144.89 100.319C147.529 102.166 149.439 105.899 151.309 109.539C152.966 112.77 154.556 115.881 156.613 117.62C156.224 119.726 157.941 121.903 160.3 121.903C162.357 121.903 164.027 120.231 164.027 118.169C164.027 117.969 164.014 117.775 163.974 117.58C166.853 115.272 169.238 110.535 171.715 105.597C174.227 100.593 176.805 95.4617 179.898 93.0991C180.466 94.4374 181.788 95.3738 183.325 95.3738C184.861 95.3738 186.304 94.3503 186.825 92.9186C191.766 96.4468 195.309 106.726 199.977 110.735C199.324 113.05 201.087 115.438 203.57 115.438C205.785 115.438 207.515 113.512 207.284 111.324C210.638 109.015 213.737 103.034 216.676 93.2462C216.823 93.2733 216.977 93.2797 217.13 93.2797C219.187 93.2797 220.864 91.6003 220.864 89.5397C220.864 87.4792 219.187 85.8125 217.13 85.8125C215.073 85.8125 213.402 87.4848 213.402 89.5397C213.402 91.0921 214.351 92.4296 215.701 92.9921C212.942 102.191 210.03 107.972 207.017 110.28C205.853 107.477 201.986 107.155 200.391 109.765C195.883 105.661 192.361 95.2699 187.045 91.8607C187.058 91.7872 187.058 91.7073 187.058 91.633C187.058 89.5789 185.382 87.9066 183.325 87.9066C181.267 87.9066 179.597 89.5789 179.597 91.633C179.597 91.7736 179.603 91.9143 179.624 92.0477C176.177 94.4694 173.465 99.876 170.82 105.148C168.569 109.637 166.258 114.226 163.64 116.522C162.26 113.713 158.265 113.757 156.94 116.562C155.183 114.896 153.72 112.046 152.198 109.082C150.214 105.215 148.183 101.253 145.224 99.3271V99.3287ZM123.595 121.401C123.595 122.906 122.373 124.131 120.863 124.131C119.353 124.131 118.139 122.907 118.139 121.401C118.139 119.155 120.695 117.901 122.447 119.186C123.142 119.675 123.595 120.484 123.595 121.401ZM138.985 99.5437C138.373 97.8251 139.648 95.9107 141.563 95.9107C143.576 95.9107 144.874 98.0248 144.028 99.7977C143.594 100.728 139.793 101.842 138.985 99.5437ZM214.404 89.5413C214.404 88.0424 215.626 86.8184 217.13 86.8184C218.634 86.8184 219.862 88.0424 219.862 89.5413C219.862 91.0402 218.633 92.2778 217.13 92.2778C216.748 92.2778 216.356 92.1955 215.988 92.0237C215.053 91.5891 214.404 90.6391 214.404 89.5413ZM203.57 108.984C205.088 108.984 206.302 110.204 206.302 111.706C206.302 113.208 205.077 114.437 203.57 114.437C201.443 114.437 200.209 112.097 201.179 110.416V110.409C201.633 109.559 202.535 108.984 203.57 108.984ZM183.325 88.9117C184.72 88.9117 185.869 89.9552 186.037 91.2999C186.242 92.9433 184.958 94.3703 183.325 94.3703C182.129 94.3703 181.113 93.6009 180.746 92.5239C180.616 92.1332 180.578 91.7089 180.606 91.4533C180.699 90.0351 181.882 88.9109 183.325 88.9109V88.9117ZM160.3 115.439C161.448 115.439 162.43 116.155 162.832 117.159C163.544 118.924 162.241 120.899 160.3 120.899C158.358 120.899 157.071 118.949 157.742 117.212C158.129 116.175 159.131 115.439 160.3 115.439Z" fill="#53809D"/>
<path d="M115.362 78.8082H146.597C146.874 78.8082 147.098 78.5837 147.098 78.3064C147.098 78.0292 146.874 77.8047 146.597 77.8047H115.362C115.085 77.8047 114.861 78.0292 114.861 78.3064C114.861 78.5837 115.085 78.8082 115.362 78.8082Z" fill="#53809D"/>
<path d="M115.362 83.8785H134C134.277 83.8785 134.501 83.654 134.501 83.3768C134.501 83.0995 134.277 82.875 134 82.875H115.362C115.085 82.875 114.861 83.0995 114.861 83.3768C114.861 83.654 115.085 83.8785 115.362 83.8785Z" fill="#53809D"/>
<path d="M196.428 183.115C196.428 183.392 196.652 183.617 196.929 183.617H269.202C269.478 183.617 269.703 183.392 269.703 183.115C269.703 182.838 269.478 182.613 269.202 182.613H196.929C196.652 182.613 196.428 182.838 196.428 183.115Z" fill="#53809D"/>
<path d="M288.118 196.621H196.929C196.652 196.621 196.428 196.846 196.428 197.123C196.428 197.4 196.652 197.625 196.929 197.625H288.118C288.395 197.625 288.619 197.4 288.619 197.123C288.619 196.846 288.395 196.621 288.118 196.621Z" fill="#53809D"/>
<path d="M288.118 210.625H226.663C226.386 210.625 226.162 210.85 226.162 211.127C226.162 211.404 226.386 211.629 226.663 211.629H288.118C288.395 211.629 288.619 211.404 288.619 211.127C288.619 210.85 288.395 210.625 288.118 210.625Z" fill="#53809D"/>
</g>
<defs>
<clipPath id="clip0_621_30508">
<rect width="343" height="320" fill="white" transform="translate(0.0498047 0.402344)"/>
</clipPath>
<clipPath id="clip1_621_30508">
<rect width="54.1096" height="53.3333" fill="white" transform="translate(266.799 108.172)"/>
</clipPath>
</defs>
</svg>
