<svg width="722" height="492" viewBox="0 0 722 492" fill="none" xmlns="http://www.w3.org/2000/svg">
<path d="M719.588 1.52198V15.8555H705.255V1.52198H719.588ZM719.588 1.52198V0.566406H1V490.773H720.544V1.52198H719.588ZM704.299 1.52198V15.8555H689.965V1.52198H704.299ZM459.673 245.192H445.34V230.859H459.673V245.192ZM460.629 230.859H474.962V245.192H460.629V230.859ZM444.384 245.192H430.051V230.859H444.384V245.192ZM429.095 245.192H414.761V230.859H429.095V245.192ZM413.806 245.192H399.472V230.859H413.806V245.192ZM398.517 245.192H384.183V230.859H398.517V245.192ZM383.228 245.192H368.894V230.859H383.228V245.192ZM367.939 245.192H353.605V230.859H367.939V245.192ZM352.649 245.192H338.316V230.859H352.649V245.192ZM337.36 245.192H323.027V230.859H337.36V245.192ZM322.071 245.192H307.738V230.859H322.071V245.192ZM306.782 245.192H292.449V230.859H306.782V245.192ZM291.493 245.192H277.16V230.859H291.493V245.192ZM276.204 245.192H261.87V230.859H276.204V245.192ZM260.915 245.192H246.581V230.859H260.915V245.192ZM245.626 245.192H231.292V230.859H245.626V245.192ZM245.626 246.148V260.481H231.292V246.148H245.626ZM246.581 246.148H260.915V260.481H246.581V246.148ZM261.87 246.148H276.204V260.481H261.87V246.148ZM277.16 246.148H291.493V260.481H277.16V246.148ZM292.449 246.148H306.782V260.481H292.449V246.148ZM307.738 246.148H322.071V260.481H307.738V246.148ZM323.027 246.148H337.36V260.481H323.027V246.148ZM338.316 246.148H352.649V260.481H338.316V246.148ZM353.605 246.148H367.939V260.481H353.605V246.148ZM368.894 246.148H383.228V260.481H368.894V246.148ZM384.183 246.148H398.517V260.481H384.183V246.148ZM399.472 246.148H413.806V260.481H399.472V246.148ZM414.761 246.148H429.095V260.481H414.761V246.148ZM430.051 246.148H444.384V260.481H430.051V246.148ZM445.34 246.148H459.673V260.481H445.34V246.148ZM460.629 246.148H474.962V260.481H460.629V246.148ZM475.918 246.148H490.251V260.481H475.918V246.148ZM475.918 245.192V230.859H490.251V245.192H475.918ZM475.918 229.903V215.569H490.251V229.903H475.918ZM474.962 229.903H460.629V215.569H474.962V229.903ZM459.673 229.903H445.34V215.569H459.673V229.903ZM444.384 229.903H430.051V215.569H444.384V229.903ZM429.095 229.903H414.761V215.569H429.095V229.903ZM413.806 229.903H399.472V215.569H413.806V229.903ZM398.517 229.903H384.183V215.569H398.517V229.903ZM383.228 229.903H368.894V215.569H383.228V229.903ZM367.939 229.903H353.605V215.569H367.939V229.903ZM352.649 229.903H338.316V215.569H352.649V229.903ZM337.36 229.903H323.027V215.569H337.36V229.903ZM322.071 229.903H307.738V215.569H322.071V229.903ZM306.782 229.903H292.449V215.569H306.782V229.903ZM291.493 229.903H277.16V215.569H291.493V229.903ZM276.204 229.903H261.87V215.569H276.204V229.903ZM260.915 229.903H246.581V215.569H260.915V229.903ZM245.626 229.903H231.292V215.569H245.626V229.903ZM230.337 229.903H216.003V215.569H230.337V229.903ZM230.337 230.859V245.192H216.003V230.859H230.337ZM230.337 246.148V260.481H216.003V246.148H230.337ZM230.337 261.437V275.77H216.003V261.437H230.337ZM231.292 261.437H245.626V275.77H231.292V261.437ZM246.581 261.437H260.915V275.77H246.581V261.437ZM261.87 261.437H276.204V275.77H261.87V261.437ZM277.16 261.437H291.493V275.77H277.16V261.437ZM292.449 261.437H306.782V275.77H292.449V261.437ZM307.738 261.437H322.071V275.77H307.738V261.437ZM323.027 261.437H337.36V275.77H323.027V261.437ZM338.316 261.437H352.649V275.77H338.316V261.437ZM353.605 261.437H367.939V275.77H353.605V261.437ZM368.894 261.437H383.228V275.77H368.894V261.437ZM384.183 261.437H398.517V275.77H384.183V261.437ZM399.472 261.437H413.806V275.77H399.472V261.437ZM414.761 261.437H429.095V275.77H414.761V261.437ZM430.051 261.437H444.384V275.77H430.051V261.437ZM445.34 261.437H459.673V275.77H445.34V261.437ZM460.629 261.437H474.962V275.77H460.629V261.437ZM475.918 261.437H490.251V275.77H475.918V261.437ZM491.207 261.437H505.541V275.77H491.207V261.437ZM491.207 260.481V246.148H505.541V260.481H491.207ZM491.207 245.192V230.859H505.541V245.192H491.207ZM491.207 229.903V215.569H505.541V229.903H491.207ZM491.207 214.614V200.28H505.541V214.614H491.207ZM490.251 214.614H475.918V200.28H490.251V214.614ZM474.962 214.614H460.629V200.28H474.962V214.614ZM459.673 214.614H445.34V200.28H459.673V214.614ZM444.384 214.614H430.051V200.28H444.384V214.614ZM429.095 214.614H414.761V200.28H429.095V214.614ZM413.806 214.614H399.472V200.28H413.806V214.614ZM398.517 214.614H384.183V200.28H398.517V214.614ZM383.228 214.614H368.894V200.28H383.228V214.614ZM367.939 214.614H353.605V200.28H367.939V214.614ZM352.649 214.614H338.316V200.28H352.649V214.614ZM337.36 214.614H323.027V200.28H337.36V214.614ZM322.071 214.614H307.738V200.28H322.071V214.614ZM306.782 214.614H292.449V200.28H306.782V214.614ZM291.493 214.614H277.16V200.28H291.493V214.614ZM276.204 214.614H261.87V200.28H276.204V214.614ZM260.915 214.614H246.581V200.28H260.915V214.614ZM245.626 214.614H231.292V200.28H245.626V214.614ZM230.337 214.614H216.003V200.28H230.337V214.614ZM215.048 214.614H200.714V200.28H215.048V214.614ZM215.048 215.569V229.903H200.714V215.569H215.048ZM215.048 230.859V245.192H200.714V230.859H215.048ZM215.048 246.148V260.481H200.714V246.148H215.048ZM215.048 261.437V275.77H200.714V261.437H215.048ZM215.048 276.726V291.059H200.714V276.726H215.048ZM216.003 276.726H230.337V291.059H216.003V276.726ZM231.292 276.726H245.626V291.059H231.292V276.726ZM246.581 276.726H260.915V291.059H246.581V276.726ZM261.87 276.726H276.204V291.059H261.87V276.726ZM277.16 276.726H291.493V291.059H277.16V276.726ZM292.449 276.726H306.782V291.059H292.449V276.726ZM307.738 276.726H322.071V291.059H307.738V276.726ZM323.027 276.726H337.36V291.059H323.027V276.726ZM338.316 276.726H352.649V291.059H338.316V276.726ZM353.605 276.726H367.939V291.059H353.605V276.726ZM368.894 276.726H383.228V291.059H368.894V276.726ZM384.183 276.726H398.517V291.059H384.183V276.726ZM399.472 276.726H413.806V291.059H399.472V276.726ZM414.761 276.726H429.095V291.059H414.761V276.726ZM430.051 276.726H444.384V291.059H430.051V276.726ZM445.34 276.726H459.673V291.059H445.34V276.726ZM460.629 276.726H474.962V291.059H460.629V276.726ZM475.918 276.726H490.251V291.059H475.918V276.726ZM491.207 276.726H505.541V291.059H491.207V276.726ZM506.496 276.726H520.83V291.059H506.496V276.726ZM506.496 275.77V261.437H520.83V275.77H506.496ZM506.496 260.481V246.148H520.83V260.481H506.496ZM506.496 245.192V230.859H520.83V245.192H506.496ZM506.496 229.903V215.569H520.83V229.903H506.496ZM506.496 214.614V200.28H520.83V214.614H506.496ZM506.496 199.325V184.991H520.83V199.325H506.496ZM505.541 199.325H491.207V184.991H505.541V199.325ZM490.251 199.325H475.918V184.991H490.251V199.325ZM474.962 199.325H460.629V184.991H474.962V199.325ZM459.673 199.325H445.34V184.991H459.673V199.325ZM444.384 199.325H430.051V184.991H444.384V199.325ZM429.095 199.325H414.761V184.991H429.095V199.325ZM413.806 199.325H399.472V184.991H413.806V199.325ZM398.517 199.325H384.183V184.991H398.517V199.325ZM383.228 199.325H368.894V184.991H383.228V199.325ZM367.939 199.325H353.605V184.991H367.939V199.325ZM352.649 199.325H338.316V184.991H352.649V199.325ZM337.36 199.325H323.027V184.991H337.36V199.325ZM322.071 199.325H307.738V184.991H322.071V199.325ZM306.782 199.325H292.449V184.991H306.782V199.325ZM291.493 199.325H277.16V184.991H291.493V199.325ZM276.204 199.325H261.87V184.991H276.204V199.325ZM260.915 199.325H246.581V184.991H260.915V199.325ZM245.626 199.325H231.292V184.991H245.626V199.325ZM230.337 199.325H216.003V184.991H230.337V199.325ZM215.048 199.325H200.714V184.991H215.048V199.325ZM199.758 199.325H185.425V184.991H199.758V199.325ZM199.758 200.28V214.614H185.425V200.28H199.758ZM199.758 215.569V229.903H185.425V215.569H199.758ZM199.758 230.859V245.192H185.425V230.859H199.758ZM199.758 246.148V260.481H185.425V246.148H199.758ZM199.758 261.437V275.77H185.425V261.437H199.758ZM199.758 276.726V291.059H185.425V276.726H199.758ZM199.758 292.015V306.349H185.425V292.015H199.758ZM200.714 292.015H215.048V306.349H200.714V292.015ZM216.003 292.015H230.337V306.349H216.003V292.015ZM231.292 292.015H245.626V306.349H231.292V292.015ZM246.581 292.015H260.915V306.349H246.581V292.015ZM261.87 292.015H276.204V306.349H261.87V292.015ZM277.16 292.015H291.493V306.349H277.16V292.015ZM292.449 292.015H306.782V306.349H292.449V292.015ZM307.738 292.015H322.071V306.349H307.738V292.015ZM323.027 292.015H337.36V306.349H323.027V292.015ZM338.316 292.015H352.649V306.349H338.316V292.015ZM353.605 292.015H367.939V306.349H353.605V292.015ZM368.894 292.015H383.228V306.349H368.894V292.015ZM384.183 292.015H398.517V306.349H384.183V292.015ZM399.472 292.015H413.806V306.349H399.472V292.015ZM414.761 292.015H429.095V306.349H414.761V292.015ZM430.051 292.015H444.384V306.349H430.051V292.015ZM445.34 292.015H459.673V306.349H445.34V292.015ZM460.629 292.015H474.962V306.349H460.629V292.015ZM475.918 292.015H490.251V306.349H475.918V292.015ZM491.207 292.015H505.541V306.349H491.207V292.015ZM506.496 292.015H520.83V306.349H506.496V292.015ZM521.785 292.015H536.119V306.349H521.785V292.015ZM521.785 291.059V276.726H536.119V291.059H521.785ZM521.785 275.77V261.437H536.119V275.77H521.785ZM521.785 260.481V246.148H536.119V260.481H521.785ZM521.785 245.192V230.859H536.119V245.192H521.785ZM521.785 229.903V215.569H536.119V229.903H521.785ZM521.785 214.614V200.28H536.119V214.614H521.785ZM521.785 199.325V184.991H536.119V199.325H521.785ZM521.785 184.036V169.702H536.119V184.036H521.785ZM520.83 184.036H506.496V169.702H520.83V184.036ZM505.541 184.036H491.207V169.702H505.541V184.036ZM490.251 184.036H475.918V169.702H490.251V184.036ZM474.962 184.036H460.629V169.702H474.962V184.036ZM459.673 184.036H445.34V169.702H459.673V184.036ZM444.384 184.036H430.051V169.702H444.384V184.036ZM429.095 184.036H414.761V169.702H429.095V184.036ZM413.806 184.036H399.472V169.702H413.806V184.036ZM398.517 184.036H384.183V169.702H398.517V184.036ZM383.228 184.036H368.894V169.702H383.228V184.036ZM367.939 184.036H353.605V169.702H367.939V184.036ZM352.649 184.036H338.316V169.702H352.649V184.036ZM337.36 184.036H323.027V169.702H337.36V184.036ZM322.071 184.036H307.738V169.702H322.071V184.036ZM306.782 184.036H292.449V169.702H306.782V184.036ZM291.493 184.036H277.16V169.702H291.493V184.036ZM276.204 184.036H261.87V169.702H276.204V184.036ZM260.915 184.036H246.581V169.702H260.915V184.036ZM245.626 184.036H231.292V169.702H245.626V184.036ZM230.337 184.036H216.003V169.702H230.337V184.036ZM215.048 184.036H200.714V169.702H215.048V184.036ZM199.758 184.036H185.425V169.702H199.758V184.036ZM184.469 184.036H170.136V169.702H184.469V184.036ZM184.469 184.991V199.325H170.136V184.991H184.469ZM184.469 200.28V214.614H170.136V200.28H184.469ZM184.469 215.569V229.903H170.136V215.569H184.469ZM184.469 230.859V245.192H170.136V230.859H184.469ZM184.469 246.148V260.481H170.136V246.148H184.469ZM184.469 261.437V275.77H170.136V261.437H184.469ZM184.469 276.726V291.059H170.136V276.726H184.469ZM184.469 292.015V306.349H170.136V292.015H184.469ZM184.469 307.304V321.638H170.136V307.304H184.469ZM185.425 307.304H199.758V321.638H185.425V307.304ZM200.714 307.304H215.048V321.638H200.714V307.304ZM216.003 307.304H230.337V321.638H216.003V307.304ZM231.292 307.304H245.626V321.638H231.292V307.304ZM246.581 307.304H260.915V321.638H246.581V307.304ZM261.87 307.304H276.204V321.638H261.87V307.304ZM277.16 307.304H291.493V321.638H277.16V307.304ZM292.449 307.304H306.782V321.638H292.449V307.304ZM307.738 307.304H322.071V321.638H307.738V307.304ZM323.027 307.304H337.36V321.638H323.027V307.304ZM338.316 307.304H352.649V321.638H338.316V307.304ZM353.605 307.304H367.939V321.638H353.605V307.304ZM368.894 307.304H383.228V321.638H368.894V307.304ZM384.183 307.304H398.517V321.638H384.183V307.304ZM399.472 307.304H413.806V321.638H399.472V307.304ZM414.761 307.304H429.095V321.638H414.761V307.304ZM430.051 307.304H444.384V321.638H430.051V307.304ZM445.34 307.304H459.673V321.638H445.34V307.304ZM460.629 307.304H474.962V321.638H460.629V307.304ZM475.918 307.304H490.251V321.638H475.918V307.304ZM491.207 307.304H505.541V321.638H491.207V307.304ZM506.496 307.304H520.83V321.638H506.496V307.304ZM521.785 307.304H536.119V321.638H521.785V307.304ZM537.074 307.304H551.408V321.638H537.074V307.304ZM537.074 306.349V292.015H551.408V306.349H537.074ZM537.074 291.059V276.726H551.408V291.059H537.074ZM537.074 275.77V261.437H551.408V275.77H537.074ZM537.074 260.481V246.148H551.408V260.481H537.074ZM537.074 245.192V230.859H551.408V245.192H537.074ZM537.074 229.903V215.569H551.408V229.903H537.074ZM537.074 214.614V200.28H551.408V214.614H537.074ZM537.074 199.325V184.991H551.408V199.325H537.074ZM537.074 184.036V169.702H551.408V184.036H537.074ZM537.074 168.747V154.413H551.408V168.747H537.074ZM536.119 168.747H521.785V154.413H536.119V168.747ZM520.83 168.747H506.496V154.413H520.83V168.747ZM505.541 168.747H491.207V154.413H505.541V168.747ZM490.251 168.747H475.918V154.413H490.251V168.747ZM474.962 168.747H460.629V154.413H474.962V168.747ZM459.673 168.747H445.34V154.413H459.673V168.747ZM444.384 168.747H430.051V154.413H444.384V168.747ZM429.095 168.747H414.761V154.413H429.095V168.747ZM413.806 168.747H399.472V154.413H413.806V168.747ZM398.517 168.747H384.183V154.413H398.517V168.747ZM383.228 168.747H368.894V154.413H383.228V168.747ZM367.939 168.747H353.605V154.413H367.939V168.747ZM352.649 168.747H338.316V154.413H352.649V168.747ZM337.36 168.747H323.027V154.413H337.36V168.747ZM322.071 168.747H307.738V154.413H322.071V168.747ZM306.782 168.747H292.449V154.413H306.782V168.747ZM291.493 168.747H277.16V154.413H291.493V168.747ZM276.204 168.747H261.87V154.413H276.204V168.747ZM260.915 168.747H246.581V154.413H260.915V168.747ZM245.626 168.747H231.292V154.413H245.626V168.747ZM230.337 168.747H216.003V154.413H230.337V168.747ZM215.048 168.747H200.714V154.413H215.048V168.747ZM199.758 168.747H185.425V154.413H199.758V168.747ZM184.469 168.747H170.136V154.413H184.469V168.747ZM169.18 168.747H154.847V154.413H169.18V168.747ZM169.18 169.702V184.036H154.847V169.702H169.18ZM169.18 184.991V199.325H154.847V184.991H169.18ZM169.18 200.28V214.614H154.847V200.28H169.18ZM169.18 215.569V229.903H154.847V215.569H169.18ZM169.18 230.859V245.192H154.847V230.859H169.18ZM169.18 246.148V260.481H154.847V246.148H169.18ZM169.18 261.437V275.77H154.847V261.437H169.18ZM169.18 276.726V291.059H154.847V276.726H169.18ZM169.18 292.015V306.349H154.847V292.015H169.18ZM169.18 307.304V321.638H154.847V307.304H169.18ZM169.18 322.593V336.927H154.847V322.593H169.18ZM170.136 322.593H184.469V336.927H170.136V322.593ZM185.425 322.593H199.758V336.927H185.425V322.593ZM200.714 322.593H215.048V336.927H200.714V322.593ZM216.003 322.593H230.337V336.927H216.003V322.593ZM231.292 322.593H245.626V336.927H231.292V322.593ZM246.581 322.593H260.915V336.927H246.581V322.593ZM261.87 322.593H276.204V336.927H261.87V322.593ZM277.16 322.593H291.493V336.927H277.16V322.593ZM292.449 322.593H306.782V336.927H292.449V322.593ZM307.738 322.593H322.071V336.927H307.738V322.593ZM323.027 322.593H337.36V336.927H323.027V322.593ZM338.316 322.593H352.649V336.927H338.316V322.593ZM353.605 322.593H367.939V336.927H353.605V322.593ZM368.894 322.593H383.228V336.927H368.894V322.593ZM384.183 322.593H398.517V336.927H384.183V322.593ZM399.472 322.593H413.806V336.927H399.472V322.593ZM414.761 322.593H429.095V336.927H414.761V322.593ZM430.051 322.593H444.384V336.927H430.051V322.593ZM445.34 322.593H459.673V336.927H445.34V322.593ZM460.629 322.593H474.962V336.927H460.629V322.593ZM475.918 322.593H490.251V336.927H475.918V322.593ZM491.207 322.593H505.541V336.927H491.207V322.593ZM506.496 322.593H520.83V336.927H506.496V322.593ZM521.785 322.593H536.119V336.927H521.785V322.593ZM537.074 322.593H551.408V336.927H537.074V322.593ZM552.363 322.593H566.697V336.927H552.363V322.593ZM552.363 321.638V307.304H566.697V321.638H552.363ZM552.363 306.349V292.015H566.697V306.349H552.363ZM552.363 291.059V276.726H566.697V291.059H552.363ZM552.363 275.77V261.437H566.697V275.77H552.363ZM552.363 260.481V246.148H566.697V260.481H552.363ZM552.363 245.192V230.859H566.697V245.192H552.363ZM552.363 229.903V215.569H566.697V229.903H552.363ZM552.363 214.614V200.28H566.697V214.614H552.363ZM552.363 199.325V184.991H566.697V199.325H552.363ZM552.363 184.036V169.702H566.697V184.036H552.363ZM552.363 168.747V154.413H566.697V168.747H552.363ZM552.363 153.457V139.124H566.697V153.457H552.363ZM551.408 153.457H537.074V139.124H551.408V153.457ZM536.119 153.457H521.785V139.124H536.119V153.457ZM520.83 153.457H506.496V139.124H520.83V153.457ZM505.541 153.457H491.207V139.124H505.541V153.457ZM490.251 153.457H475.918V139.124H490.251V153.457ZM474.962 153.457H460.629V139.124H474.962V153.457ZM459.673 153.457H445.34V139.124H459.673V153.457ZM444.384 153.457H430.051V139.124H444.384V153.457ZM429.095 153.457H414.761V139.124H429.095V153.457ZM413.806 153.457H399.472V139.124H413.806V153.457ZM398.517 153.457H384.183V139.124H398.517V153.457ZM383.228 153.457H368.894V139.124H383.228V153.457ZM367.939 153.457H353.605V139.124H367.939V153.457ZM352.649 153.457H338.316V139.124H352.649V153.457ZM337.36 153.457H323.027V139.124H337.36V153.457ZM322.071 153.457H307.738V139.124H322.071V153.457ZM306.782 153.457H292.449V139.124H306.782V153.457ZM291.493 153.457H277.16V139.124H291.493V153.457ZM276.204 153.457H261.87V139.124H276.204V153.457ZM260.915 153.457H246.581V139.124H260.915V153.457ZM245.626 153.457H231.292V139.124H245.626V153.457ZM230.337 153.457H216.003V139.124H230.337V153.457ZM215.048 153.457H200.714V139.124H215.048V153.457ZM199.758 153.457H185.425V139.124H199.758V153.457ZM184.469 153.457H170.136V139.124H184.469V153.457ZM169.18 153.457H154.847V139.124H169.18V153.457ZM153.891 153.457H139.558V139.124H153.891V153.457ZM153.891 154.413V168.747H139.558V154.413H153.891ZM153.891 169.702V184.036H139.558V169.702H153.891ZM153.891 184.991V199.325H139.558V184.991H153.891ZM153.891 200.28V214.614H139.558V200.28H153.891ZM153.891 215.569V229.903H139.558V215.569H153.891ZM153.891 230.859V245.192H139.558V230.859H153.891ZM153.891 246.148V260.481H139.558V246.148H153.891ZM153.891 261.437V275.77H139.558V261.437H153.891ZM153.891 276.726V291.059H139.558V276.726H153.891ZM153.891 292.015V306.349H139.558V292.015H153.891ZM153.891 307.304V321.638H139.558V307.304H153.891ZM153.891 322.593V336.927H139.558V322.593H153.891ZM153.891 337.882V352.216H139.558V337.882H153.891ZM154.847 337.882H169.18V352.216H154.847V337.882ZM170.136 337.882H184.469V352.216H170.136V337.882ZM185.425 337.882H199.758V352.216H185.425V337.882ZM200.714 337.882H215.048V352.216H200.714V337.882ZM216.003 337.882H230.337V352.216H216.003V337.882ZM231.292 337.882H245.626V352.216H231.292V337.882ZM246.581 337.882H260.915V352.216H246.581V337.882ZM261.87 337.882H276.204V352.216H261.87V337.882ZM277.16 337.882H291.493V352.216H277.16V337.882ZM292.449 337.882H306.782V352.216H292.449V337.882ZM307.738 337.882H322.071V352.216H307.738V337.882ZM323.027 337.882H337.36V352.216H323.027V337.882ZM338.316 337.882H352.649V352.216H338.316V337.882ZM353.605 337.882H367.939V352.216H353.605V337.882ZM368.894 337.882H383.228V352.216H368.894V337.882ZM384.183 337.882H398.517V352.216H384.183V337.882ZM399.472 337.882H413.806V352.216H399.472V337.882ZM414.761 337.882H429.095V352.216H414.761V337.882ZM430.051 337.882H444.384V352.216H430.051V337.882ZM445.34 337.882H459.673V352.216H445.34V337.882ZM460.629 337.882H474.962V352.216H460.629V337.882ZM475.918 337.882H490.251V352.216H475.918V337.882ZM491.207 337.882H505.541V352.216H491.207V337.882ZM506.496 337.882H520.83V352.216H506.496V337.882ZM521.785 337.882H536.119V352.216H521.785V337.882ZM537.074 337.882H551.408V352.216H537.074V337.882ZM552.363 337.882H566.697V352.216H552.363V337.882ZM567.653 337.882H581.986V352.216H567.653V337.882ZM567.653 336.927V322.593H581.986V336.927H567.653ZM567.653 321.638V307.304H581.986V321.638H567.653ZM567.653 306.349V292.015H581.986V306.349H567.653ZM567.653 291.059V276.726H581.986V291.059H567.653ZM567.653 275.77V261.437H581.986V275.77H567.653ZM567.653 260.481V246.148H581.986V260.481H567.653ZM567.653 245.192V230.859H581.986V245.192H567.653ZM567.653 229.903V215.569H581.986V229.903H567.653ZM567.653 214.614V200.28H581.986V214.614H567.653ZM567.653 199.325V184.991H581.986V199.325H567.653ZM567.653 184.036V169.702H581.986V184.036H567.653ZM567.653 168.747V154.413H581.986V168.747H567.653ZM567.653 153.457V139.124H581.986V153.457H567.653ZM567.653 138.168V123.835H581.986V138.168H567.653ZM566.697 138.168H552.363V123.835H566.697V138.168ZM551.408 138.168H537.074V123.835H551.408V138.168ZM536.119 138.168H521.785V123.835H536.119V138.168ZM520.83 138.168H506.496V123.835H520.83V138.168ZM505.541 138.168H491.207V123.835H505.541V138.168ZM490.251 138.168H475.918V123.835H490.251V138.168ZM474.962 138.168H460.629V123.835H474.962V138.168ZM459.673 138.168H445.34V123.835H459.673V138.168ZM444.384 138.168H430.051V123.835H444.384V138.168ZM429.095 138.168H414.761V123.835H429.095V138.168ZM413.806 138.168H399.472V123.835H413.806V138.168ZM398.517 138.168H384.183V123.835H398.517V138.168ZM383.228 138.168H368.894V123.835H383.228V138.168ZM367.939 138.168H353.605V123.835H367.939V138.168ZM352.649 138.168H338.316V123.835H352.649V138.168ZM337.36 138.168H323.027V123.835H337.36V138.168ZM322.071 138.168H307.738V123.835H322.071V138.168ZM306.782 138.168H292.449V123.835H306.782V138.168ZM291.493 138.168H277.16V123.835H291.493V138.168ZM276.204 138.168H261.87V123.835H276.204V138.168ZM260.915 138.168H246.581V123.835H260.915V138.168ZM245.626 138.168H231.292V123.835H245.626V138.168ZM230.337 138.168H216.003V123.835H230.337V138.168ZM215.048 138.168H200.714V123.835H215.048V138.168ZM199.758 138.168H185.425V123.835H199.758V138.168ZM184.469 138.168H170.136V123.835H184.469V138.168ZM169.18 138.168H154.847V123.835H169.18V138.168ZM153.891 138.168H139.558V123.835H153.891V138.168ZM138.602 138.168H124.268V123.835H138.602V138.168ZM138.602 139.124V153.457H124.268V139.124H138.602ZM138.602 154.413V168.747H124.268V154.413H138.602ZM138.602 169.702V184.036H124.268V169.702H138.602ZM138.602 184.991V199.325H124.268V184.991H138.602ZM138.602 200.28V214.614H124.268V200.28H138.602ZM138.602 215.569V229.903H124.268V215.569H138.602ZM138.602 230.859V245.192H124.268V230.859H138.602ZM138.602 246.148V260.481H124.268V246.148H138.602ZM138.602 261.437V275.77H124.268V261.437H138.602ZM138.602 276.726V291.059H124.268V276.726H138.602ZM138.602 292.015V306.349H124.268V292.015H138.602ZM138.602 307.304V321.638H124.268V307.304H138.602ZM138.602 322.593V336.927H124.268V322.593H138.602ZM138.602 337.882V352.216H124.268V337.882H138.602ZM138.602 353.171V367.505H124.268V353.171H138.602ZM139.558 353.171H153.891V367.505H139.558V353.171ZM154.847 353.171H169.18V367.505H154.847V353.171ZM170.136 353.171H184.469V367.505H170.136V353.171ZM185.425 353.171H199.758V367.505H185.425V353.171ZM200.714 353.171H215.048V367.505H200.714V353.171ZM216.003 353.171H230.337V367.505H216.003V353.171ZM231.292 353.171H245.626V367.505H231.292V353.171ZM246.581 353.171H260.915V367.505H246.581V353.171ZM261.87 353.171H276.204V367.505H261.87V353.171ZM277.16 353.171H291.493V367.505H277.16V353.171ZM292.449 353.171H306.782V367.505H292.449V353.171ZM307.738 353.171H322.071V367.505H307.738V353.171ZM323.027 353.171H337.36V367.505H323.027V353.171ZM338.316 353.171H352.649V367.505H338.316V353.171ZM353.605 353.171H367.939V367.505H353.605V353.171ZM368.894 353.171H383.228V367.505H368.894V353.171ZM384.183 353.171H398.517V367.505H384.183V353.171ZM399.472 353.171H413.806V367.505H399.472V353.171ZM414.761 353.171H429.095V367.505H414.761V353.171ZM430.051 353.171H444.384V367.505H430.051V353.171ZM445.34 353.171H459.673V367.505H445.34V353.171ZM460.629 353.171H474.962V367.505H460.629V353.171ZM475.918 353.171H490.251V367.505H475.918V353.171ZM491.207 353.171H505.541V367.505H491.207V353.171ZM506.496 353.171H520.83V367.505H506.496V353.171ZM521.785 353.171H536.119V367.505H521.785V353.171ZM537.074 353.171H551.408V367.505H537.074V353.171ZM552.363 353.171H566.697V367.505H552.363V353.171ZM567.653 353.171H581.986V367.505H567.653V353.171ZM582.942 353.171H597.275V367.505H582.942V353.171ZM582.942 352.216V337.882H597.275V352.216H582.942ZM582.942 336.927V322.593H597.275V336.927H582.942ZM582.942 321.638V307.304H597.275V321.638H582.942ZM582.942 306.349V292.015H597.275V306.349H582.942ZM582.942 291.059V276.726H597.275V291.059H582.942ZM582.942 275.77V261.437H597.275V275.77H582.942ZM582.942 260.481V246.148H597.275V260.481H582.942ZM582.942 245.192V230.859H597.275V245.192H582.942ZM582.942 229.903V215.569H597.275V229.903H582.942ZM582.942 214.614V200.28H597.275V214.614H582.942ZM582.942 199.325V184.991H597.275V199.325H582.942ZM582.942 184.036V169.702H597.275V184.036H582.942ZM582.942 168.747V154.413H597.275V168.747H582.942ZM582.942 153.457V139.124H597.275V153.457H582.942ZM582.942 138.168V123.835H597.275V138.168H582.942ZM582.942 122.879V108.546H597.275V122.879H582.942ZM581.986 122.879H567.653V108.546H581.986V122.879ZM566.697 122.879H552.363V108.546H566.697V122.879ZM551.408 122.879H537.074V108.546H551.408V122.879ZM536.119 122.879H521.785V108.546H536.119V122.879ZM520.83 122.879H506.496V108.546H520.83V122.879ZM505.541 122.879H491.207V108.546H505.541V122.879ZM490.251 122.879H475.918V108.546H490.251V122.879ZM474.962 122.879H460.629V108.546H474.962V122.879ZM459.673 122.879H445.34V108.546H459.673V122.879ZM444.384 122.879H430.051V108.546H444.384V122.879ZM429.095 122.879H414.761V108.546H429.095V122.879ZM413.806 122.879H399.472V108.546H413.806V122.879ZM398.517 122.879H384.183V108.546H398.517V122.879ZM383.228 122.879H368.894V108.546H383.228V122.879ZM367.939 122.879H353.605V108.546H367.939V122.879ZM352.649 122.879H338.316V108.546H352.649V122.879ZM337.36 122.879H323.027V108.546H337.36V122.879ZM322.071 122.879H307.738V108.546H322.071V122.879ZM306.782 122.879H292.449V108.546H306.782V122.879ZM291.493 122.879H277.16V108.546H291.493V122.879ZM276.204 122.879H261.87V108.546H276.204V122.879ZM260.915 122.879H246.581V108.546H260.915V122.879ZM245.626 122.879H231.292V108.546H245.626V122.879ZM230.337 122.879H216.003V108.546H230.337V122.879ZM215.048 122.879H200.714V108.546H215.048V122.879ZM199.758 122.879H185.425V108.546H199.758V122.879ZM184.469 122.879H170.136V108.546H184.469V122.879ZM169.18 122.879H154.847V108.546H169.18V122.879ZM153.891 122.879H139.558V108.546H153.891V122.879ZM138.602 122.879H124.268V108.546H138.602V122.879ZM123.313 122.879H108.979V108.546H123.313V122.879ZM123.313 123.835V138.168H108.979V123.835H123.313ZM123.313 139.124V153.457H108.979V139.124H123.313ZM123.313 154.413V168.747H108.979V154.413H123.313ZM123.313 169.702V184.036H108.979V169.702H123.313ZM123.313 184.991V199.325H108.979V184.991H123.313ZM123.313 200.28V214.614H108.979V200.28H123.313ZM123.313 215.569V229.903H108.979V215.569H123.313ZM123.313 230.859V245.192H108.979V230.859H123.313ZM123.313 246.148V260.481H108.979V246.148H123.313ZM123.313 261.437V275.77H108.979V261.437H123.313ZM123.313 276.726V291.059H108.979V276.726H123.313ZM123.313 292.015V306.349H108.979V292.015H123.313ZM123.313 307.304V321.638H108.979V307.304H123.313ZM123.313 322.593V336.927H108.979V322.593H123.313ZM123.313 337.882V352.216H108.979V337.882H123.313ZM123.313 353.171V367.505H108.979V353.171H123.313ZM123.313 368.461V382.794H108.979V368.461H123.313ZM124.268 368.461H138.602V382.794H124.268V368.461ZM139.558 368.461H153.891V382.794H139.558V368.461ZM154.847 368.461H169.18V382.794H154.847V368.461ZM170.136 368.461H184.469V382.794H170.136V368.461ZM185.425 368.461H199.758V382.794H185.425V368.461ZM200.714 368.461H215.048V382.794H200.714V368.461ZM216.003 368.461H230.337V382.794H216.003V368.461ZM231.292 368.461H245.626V382.794H231.292V368.461ZM246.581 368.461H260.915V382.794H246.581V368.461ZM261.87 368.461H276.204V382.794H261.87V368.461ZM277.16 368.461H291.493V382.794H277.16V368.461ZM292.449 368.461H306.782V382.794H292.449V368.461ZM307.738 368.461H322.071V382.794H307.738V368.461ZM323.027 368.461H337.36V382.794H323.027V368.461ZM338.316 368.461H352.649V382.794H338.316V368.461ZM353.605 368.461H367.939V382.794H353.605V368.461ZM368.894 368.461H383.228V382.794H368.894V368.461ZM384.183 368.461H398.517V382.794H384.183V368.461ZM399.472 368.461H413.806V382.794H399.472V368.461ZM414.761 368.461H429.095V382.794H414.761V368.461ZM430.051 368.461H444.384V382.794H430.051V368.461ZM445.34 368.461H459.673V382.794H445.34V368.461ZM460.629 368.461H474.962V382.794H460.629V368.461ZM475.918 368.461H490.251V382.794H475.918V368.461ZM491.207 368.461H505.541V382.794H491.207V368.461ZM506.496 368.461H520.83V382.794H506.496V368.461ZM521.785 368.461H536.119V382.794H521.785V368.461ZM537.074 368.461H551.408V382.794H537.074V368.461ZM552.363 368.461H566.697V382.794H552.363V368.461ZM567.653 368.461H581.986V382.794H567.653V368.461ZM582.942 368.461H597.275V382.794H582.942V368.461ZM598.231 368.461H612.564V382.794H598.231V368.461ZM598.231 367.505V353.171H612.564V367.505H598.231ZM598.231 352.216V337.882H612.564V352.216H598.231ZM598.231 336.927V322.593H612.564V336.927H598.231ZM598.231 321.638V307.304H612.564V321.638H598.231ZM598.231 306.349V292.015H612.564V306.349H598.231ZM598.231 291.059V276.726H612.564V291.059H598.231ZM598.231 275.77V261.437H612.564V275.77H598.231ZM598.231 260.481V246.148H612.564V260.481H598.231ZM598.231 245.192V230.859H612.564V245.192H598.231ZM598.231 229.903V215.569H612.564V229.903H598.231ZM598.231 214.614V200.28H612.564V214.614H598.231ZM598.231 199.325V184.991H612.564V199.325H598.231ZM598.231 184.036V169.702H612.564V184.036H598.231ZM598.231 168.747V154.413H612.564V168.747H598.231ZM598.231 153.457V139.124H612.564V153.457H598.231ZM598.231 138.168V123.835H612.564V138.168H598.231ZM598.231 122.879V108.546H612.564V122.879H598.231ZM598.231 107.59V93.2566H612.564V107.59H598.231ZM597.275 107.59H582.942V93.2566H597.275V107.59ZM581.986 107.59H567.653V93.2566H581.986V107.59ZM566.697 107.59H552.363V93.2566H566.697V107.59ZM551.408 107.59H537.074V93.2566H551.408V107.59ZM536.119 107.59H521.785V93.2566H536.119V107.59ZM520.83 107.59H506.496V93.2566H520.83V107.59ZM505.541 107.59H491.207V93.2566H505.541V107.59ZM490.251 107.59H475.918V93.2566H490.251V107.59ZM474.962 107.59H460.629V93.2566H474.962V107.59ZM459.673 107.59H445.34V93.2566H459.673V107.59ZM444.384 107.59H430.051V93.2566H444.384V107.59ZM429.095 107.59H414.761V93.2566H429.095V107.59ZM413.806 107.59H399.472V93.2566H413.806V107.59ZM398.517 107.59H384.183V93.2566H398.517V107.59ZM383.228 107.59H368.894V93.2566H383.228V107.59ZM367.939 107.59H353.605V93.2566H367.939V107.59ZM352.649 107.59H338.316V93.2566H352.649V107.59ZM337.36 107.59H323.027V93.2566H337.36V107.59ZM322.071 107.59H307.738V93.2566H322.071V107.59ZM306.782 107.59H292.449V93.2566H306.782V107.59ZM291.493 107.59H277.16V93.2566H291.493V107.59ZM276.204 107.59H261.87V93.2566H276.204V107.59ZM260.915 107.59H246.581V93.2566H260.915V107.59ZM245.626 107.59H231.292V93.2566H245.626V107.59ZM230.337 107.59H216.003V93.2566H230.337V107.59ZM215.048 107.59H200.714V93.2566H215.048V107.59ZM199.758 107.59H185.425V93.2566H199.758V107.59ZM184.469 107.59H170.136V93.2566H184.469V107.59ZM169.18 107.59H154.847V93.2566H169.18V107.59ZM153.891 107.59H139.558V93.2566H153.891V107.59ZM138.602 107.59H124.268V93.2566H138.602V107.59ZM123.313 107.59H108.979V93.2566H123.313V107.59ZM108.024 107.59H93.6902V93.2566H108.024V107.59ZM108.024 108.546V122.879H93.6902V108.546H108.024ZM108.024 123.835V138.168H93.6902V123.835H108.024ZM108.024 139.124V153.457H93.6902V139.124H108.024ZM108.024 154.413V168.747H93.6902V154.413H108.024ZM108.024 169.702V184.036H93.6902V169.702H108.024ZM108.024 184.991V199.325H93.6902V184.991H108.024ZM108.024 200.28V214.614H93.6902V200.28H108.024ZM108.024 215.569V229.903H93.6902V215.569H108.024ZM108.024 230.859V245.192H93.6902V230.859H108.024ZM108.024 246.148V260.481H93.6902V246.148H108.024ZM108.024 261.437V275.77H93.6902V261.437H108.024ZM108.024 276.726V291.059H93.6902V276.726H108.024ZM108.024 292.015V306.349H93.6902V292.015H108.024ZM108.024 307.304V321.638H93.6902V307.304H108.024ZM108.024 322.593V336.927H93.6902V322.593H108.024ZM108.024 337.882V352.216H93.6902V337.882H108.024ZM108.024 353.171V367.505H93.6902V353.171H108.024ZM108.024 368.461V382.794H93.6902V368.461H108.024ZM108.024 383.75V398.083H93.6902V383.75H108.024ZM108.979 383.75H123.313V398.083H108.979V383.75ZM124.268 383.75H138.602V398.083H124.268V383.75ZM139.558 383.75H153.891V398.083H139.558V383.75ZM154.847 383.75H169.18V398.083H154.847V383.75ZM170.136 383.75H184.469V398.083H170.136V383.75ZM185.425 383.75H199.758V398.083H185.425V383.75ZM200.714 383.75H215.048V398.083H200.714V383.75ZM216.003 383.75H230.337V398.083H216.003V383.75ZM231.292 383.75H245.626V398.083H231.292V383.75ZM246.581 383.75H260.915V398.083H246.581V383.75ZM261.87 383.75H276.204V398.083H261.87V383.75ZM277.16 383.75H291.493V398.083H277.16V383.75ZM292.449 383.75H306.782V398.083H292.449V383.75ZM307.738 383.75H322.071V398.083H307.738V383.75ZM323.027 383.75H337.36V398.083H323.027V383.75ZM338.316 383.75H352.649V398.083H338.316V383.75ZM353.605 383.75H367.939V398.083H353.605V383.75ZM368.894 383.75H383.228V398.083H368.894V383.75ZM384.183 383.75H398.517V398.083H384.183V383.75ZM399.472 383.75H413.806V398.083H399.472V383.75ZM414.761 383.75H429.095V398.083H414.761V383.75ZM430.051 383.75H444.384V398.083H430.051V383.75ZM445.34 383.75H459.673V398.083H445.34V383.75ZM460.629 383.75H474.962V398.083H460.629V383.75ZM475.918 383.75H490.251V398.083H475.918V383.75ZM491.207 383.75H505.541V398.083H491.207V383.75ZM506.496 383.75H520.83V398.083H506.496V383.75ZM521.785 383.75H536.119V398.083H521.785V383.75ZM537.074 383.75H551.408V398.083H537.074V383.75ZM552.363 383.75H566.697V398.083H552.363V383.75ZM567.653 383.75H581.986V398.083H567.653V383.75ZM582.942 383.75H597.275V398.083H582.942V383.75ZM598.231 383.75H612.564V398.083H598.231V383.75ZM613.52 383.75H627.853V398.083H613.52V383.75ZM613.52 382.794V368.461H627.853V382.794H613.52ZM613.52 367.505V353.171H627.853V367.505H613.52ZM613.52 352.216V337.882H627.853V352.216H613.52ZM613.52 336.927V322.593H627.853V336.927H613.52ZM613.52 321.638V307.304H627.853V321.638H613.52ZM613.52 306.349V292.015H627.853V306.349H613.52ZM613.52 291.059V276.726H627.853V291.059H613.52ZM613.52 275.77V261.437H627.853V275.77H613.52ZM613.52 260.481V246.148H627.853V260.481H613.52ZM613.52 245.192V230.859H627.853V245.192H613.52ZM613.52 229.903V215.569H627.853V229.903H613.52ZM613.52 214.614V200.28H627.853V214.614H613.52ZM613.52 199.325V184.991H627.853V199.325H613.52ZM613.52 184.036V169.702H627.853V184.036H613.52ZM613.52 168.747V154.413H627.853V168.747H613.52ZM613.52 153.457V139.124H627.853V153.457H613.52ZM613.52 138.168V123.835H627.853V138.168H613.52ZM613.52 122.879V108.546H627.853V122.879H613.52ZM613.52 107.59V93.2566H627.853V107.59H613.52ZM613.52 92.3011V77.9675H627.853V92.3011H613.52ZM612.564 92.3011H598.231V77.9675H612.564V92.3011ZM597.275 92.3011H582.942V77.9675H597.275V92.3011ZM581.986 92.3011H567.653V77.9675H581.986V92.3011ZM566.697 92.3011H552.363V77.9675H566.697V92.3011ZM551.408 92.3011H537.074V77.9675H551.408V92.3011ZM536.119 92.3011H521.785V77.9675H536.119V92.3011ZM520.83 92.3011H506.496V77.9675H520.83V92.3011ZM505.541 92.3011H491.207V77.9675H505.541V92.3011ZM490.251 92.3011H475.918V77.9675H490.251V92.3011ZM474.962 92.3011H460.629V77.9675H474.962V92.3011ZM459.673 92.3011H445.34V77.9675H459.673V92.3011ZM444.384 92.3011H430.051V77.9675H444.384V92.3011ZM429.095 92.3011H414.761V77.9675H429.095V92.3011ZM413.806 92.3011H399.472V77.9675H413.806V92.3011ZM398.517 92.3011H384.183V77.9675H398.517V92.3011ZM383.228 92.3011H368.894V77.9675H383.228V92.3011ZM367.939 92.3011H353.605V77.9675H367.939V92.3011ZM352.649 92.3011H338.316V77.9675H352.649V92.3011ZM337.36 92.3011H323.027V77.9675H337.36V92.3011ZM322.071 92.3011H307.738V77.9675H322.071V92.3011ZM306.782 92.3011H292.449V77.9675H306.782V92.3011ZM291.493 92.3011H277.16V77.9675H291.493V92.3011ZM276.204 92.3011H261.87V77.9675H276.204V92.3011ZM260.915 92.3011H246.581V77.9675H260.915V92.3011ZM245.626 92.3011H231.292V77.9675H245.626V92.3011ZM230.337 92.3011H216.003V77.9675H230.337V92.3011ZM215.048 92.3011H200.714V77.9675H215.048V92.3011ZM199.758 92.3011H185.425V77.9675H199.758V92.3011ZM184.469 92.3011H170.136V77.9675H184.469V92.3011ZM169.18 92.3011H154.847V77.9675H169.18V92.3011ZM153.891 92.3011H139.558V77.9675H153.891V92.3011ZM138.602 92.3011H124.268V77.9675H138.602V92.3011ZM123.313 92.3011H108.979V77.9675H123.313V92.3011ZM108.024 92.3011H93.6902V77.9675H108.024V92.3011ZM92.7346 92.3011H78.4011V77.9675H92.7346V92.3011ZM92.7346 93.2566V107.59H78.4011V93.2566H92.7346ZM92.7346 108.546V122.879H78.4011V108.546H92.7346ZM92.7346 123.835V138.168H78.4011V123.835H92.7346ZM92.7346 139.124V153.457H78.4011V139.124H92.7346ZM92.7346 154.413V168.747H78.4011V154.413H92.7346ZM92.7346 169.702V184.036H78.4011V169.702H92.7346ZM92.7346 184.991V199.325H78.4011V184.991H92.7346ZM92.7346 200.28V214.614H78.4011V200.28H92.7346ZM92.7346 215.569V229.903H78.4011V215.569H92.7346ZM92.7346 230.859V245.192H78.4011V230.859H92.7346ZM92.7346 246.148V260.481H78.4011V246.148H92.7346ZM92.7346 261.437V275.77H78.4011V261.437H92.7346ZM92.7346 276.726V291.059H78.4011V276.726H92.7346ZM92.7346 292.015V306.349H78.4011V292.015H92.7346ZM92.7346 307.304V321.638H78.4011V307.304H92.7346ZM92.7346 322.593V336.927H78.4011V322.593H92.7346ZM92.7346 337.882V352.216H78.4011V337.882H92.7346ZM92.7346 353.171V367.505H78.4011V353.171H92.7346ZM92.7346 368.461V382.794H78.4011V368.461H92.7346ZM92.7346 383.75V398.083H78.4011V383.75H92.7346ZM92.7346 399.039V413.372H78.4011V399.039H92.7346ZM93.6902 399.039H108.024V413.372H93.6902V399.039ZM108.979 399.039H123.313V413.372H108.979V399.039ZM124.268 399.039H138.602V413.372H124.268V399.039ZM139.558 399.039H153.891V413.372H139.558V399.039ZM154.847 399.039H169.18V413.372H154.847V399.039ZM170.136 399.039H184.469V413.372H170.136V399.039ZM185.425 399.039H199.758V413.372H185.425V399.039ZM200.714 399.039H215.048V413.372H200.714V399.039ZM216.003 399.039H230.337V413.372H216.003V399.039ZM231.292 399.039H245.626V413.372H231.292V399.039ZM246.581 399.039H260.915V413.372H246.581V399.039ZM261.87 399.039H276.204V413.372H261.87V399.039ZM277.16 399.039H291.493V413.372H277.16V399.039ZM292.449 399.039H306.782V413.372H292.449V399.039ZM307.738 399.039H322.071V413.372H307.738V399.039ZM323.027 399.039H337.36V413.372H323.027V399.039ZM338.316 399.039H352.649V413.372H338.316V399.039ZM353.605 399.039H367.939V413.372H353.605V399.039ZM368.894 399.039H383.228V413.372H368.894V399.039ZM384.183 399.039H398.517V413.372H384.183V399.039ZM399.472 399.039H413.806V413.372H399.472V399.039ZM414.761 399.039H429.095V413.372H414.761V399.039ZM430.051 399.039H444.384V413.372H430.051V399.039ZM445.34 399.039H459.673V413.372H445.34V399.039ZM460.629 399.039H474.962V413.372H460.629V399.039ZM475.918 399.039H490.251V413.372H475.918V399.039ZM491.207 399.039H505.541V413.372H491.207V399.039ZM506.496 399.039H520.83V413.372H506.496V399.039ZM521.785 399.039H536.119V413.372H521.785V399.039ZM537.074 399.039H551.408V413.372H537.074V399.039ZM552.363 399.039H566.697V413.372H552.363V399.039ZM567.653 399.039H581.986V413.372H567.653V399.039ZM582.942 399.039H597.275V413.372H582.942V399.039ZM598.231 399.039H612.564V413.372H598.231V399.039ZM613.52 399.039H627.853V413.372H613.52V399.039ZM628.809 399.039H643.143V413.372H628.809V399.039ZM628.809 398.083V383.75H643.143V398.083H628.809ZM628.809 382.794V368.461H643.143V382.794H628.809ZM628.809 367.505V353.171H643.143V367.505H628.809ZM628.809 352.216V337.882H643.143V352.216H628.809ZM628.809 336.927V322.593H643.143V336.927H628.809ZM628.809 321.638V307.304H643.143V321.638H628.809ZM628.809 306.349V292.015H643.143V306.349H628.809ZM628.809 291.059V276.726H643.143V291.059H628.809ZM628.809 275.77V261.437H643.143V275.77H628.809ZM628.809 260.481V246.148H643.143V260.481H628.809ZM628.809 245.192V230.859H643.143V245.192H628.809ZM628.809 229.903V215.569H643.143V229.903H628.809ZM628.809 214.614V200.28H643.143V214.614H628.809ZM628.809 199.325V184.991H643.143V199.325H628.809ZM628.809 184.036V169.702H643.143V184.036H628.809ZM628.809 168.747V154.413H643.143V168.747H628.809ZM628.809 153.457V139.124H643.143V153.457H628.809ZM628.809 138.168V123.835H643.143V138.168H628.809ZM628.809 122.879V108.546H643.143V122.879H628.809ZM628.809 107.59V93.2566H643.143V107.59H628.809ZM628.809 92.3011V77.9675H643.143V92.3011H628.809ZM628.809 77.0119V62.6784H643.143V77.0119H628.809ZM627.853 77.0119H613.52V62.6784H627.853V77.0119ZM612.564 77.0119H598.231V62.6784H612.564V77.0119ZM597.275 77.0119H582.942V62.6784H597.275V77.0119ZM581.986 77.0119H567.653V62.6784H581.986V77.0119ZM566.697 77.0119H552.363V62.6784H566.697V77.0119ZM551.408 77.0119H537.074V62.6784H551.408V77.0119ZM536.119 77.0119H521.785V62.6784H536.119V77.0119ZM520.83 77.0119H506.496V62.6784H520.83V77.0119ZM505.541 77.0119H491.207V62.6784H505.541V77.0119ZM490.251 77.0119H475.918V62.6784H490.251V77.0119ZM474.962 77.0119H460.629V62.6784H474.962V77.0119ZM459.673 77.0119H445.34V62.6784H459.673V77.0119ZM444.384 77.0119H430.051V62.6784H444.384V77.0119ZM429.095 77.0119H414.761V62.6784H429.095V77.0119ZM413.806 77.0119H399.472V62.6784H413.806V77.0119ZM398.517 77.0119H384.183V62.6784H398.517V77.0119ZM383.228 77.0119H368.894V62.6784H383.228V77.0119ZM367.939 77.0119H353.605V62.6784H367.939V77.0119ZM352.649 77.0119H338.316V62.6784H352.649V77.0119ZM337.36 77.0119H323.027V62.6784H337.36V77.0119ZM322.071 77.0119H307.738V62.6784H322.071V77.0119ZM306.782 77.0119H292.449V62.6784H306.782V77.0119ZM291.493 77.0119H277.16V62.6784H291.493V77.0119ZM276.204 77.0119H261.87V62.6784H276.204V77.0119ZM260.915 77.0119H246.581V62.6784H260.915V77.0119ZM245.626 77.0119H231.292V62.6784H245.626V77.0119ZM230.337 77.0119H216.003V62.6784H230.337V77.0119ZM215.048 77.0119H200.714V62.6784H215.048V77.0119ZM199.758 77.0119H185.425V62.6784H199.758V77.0119ZM184.469 77.0119H170.136V62.6784H184.469V77.0119ZM169.18 77.0119H154.847V62.6784H169.18V77.0119ZM153.891 77.0119H139.558V62.6784H153.891V77.0119ZM138.602 77.0119H124.268V62.6784H138.602V77.0119ZM123.313 77.0119H108.979V62.6784H123.313V77.0119ZM108.024 77.0119H93.6902V62.6784H108.024V77.0119ZM92.7346 77.0119H78.4011V62.6784H92.7346V77.0119ZM77.4455 77.0119H63.112V62.6784H77.4455V77.0119ZM77.4455 77.9675V92.3011H63.112V77.9675H77.4455ZM77.4455 93.2566V107.59H63.112V93.2566H77.4455ZM77.4455 108.546V122.879H63.112V108.546H77.4455ZM77.4455 123.835V138.168H63.112V123.835H77.4455ZM77.4455 139.124V153.457H63.112V139.124H77.4455ZM77.4455 154.413V168.747H63.112V154.413H77.4455ZM77.4455 169.702V184.036H63.112V169.702H77.4455ZM77.4455 184.991V199.325H63.112V184.991H77.4455ZM77.4455 200.28V214.614H63.112V200.28H77.4455ZM77.4455 215.569V229.903H63.112V215.569H77.4455ZM77.4455 230.859V245.192H63.112V230.859H77.4455ZM77.4455 246.148V260.481H63.112V246.148H77.4455ZM77.4455 261.437V275.77H63.112V261.437H77.4455ZM77.4455 276.726V291.059H63.112V276.726H77.4455ZM77.4455 292.015V306.349H63.112V292.015H77.4455ZM77.4455 307.304V321.638H63.112V307.304H77.4455ZM77.4455 322.593V336.927H63.112V322.593H77.4455ZM77.4455 337.882V352.216H63.112V337.882H77.4455ZM77.4455 353.171V367.505H63.112V353.171H77.4455ZM77.4455 368.461V382.794H63.112V368.461H77.4455ZM77.4455 383.75V398.083H63.112V383.75H77.4455ZM77.4455 399.039V413.372H63.112V399.039H77.4455ZM77.4455 414.328V428.661H63.112V414.328H77.4455ZM78.4011 414.328H92.7346V428.661H78.4011V414.328ZM93.6902 414.328H108.024V428.661H93.6902V414.328ZM108.979 414.328H123.313V428.661H108.979V414.328ZM124.268 414.328H138.602V428.661H124.268V414.328ZM139.558 414.328H153.891V428.661H139.558V414.328ZM154.847 414.328H169.18V428.661H154.847V414.328ZM170.136 414.328H184.469V428.661H170.136V414.328ZM185.425 414.328H199.758V428.661H185.425V414.328ZM200.714 414.328H215.048V428.661H200.714V414.328ZM216.003 414.328H230.337V428.661H216.003V414.328ZM231.292 414.328H245.626V428.661H231.292V414.328ZM246.581 414.328H260.915V428.661H246.581V414.328ZM261.87 414.328H276.204V428.661H261.87V414.328ZM277.16 414.328H291.493V428.661H277.16V414.328ZM292.449 414.328H306.782V428.661H292.449V414.328ZM307.738 414.328H322.071V428.661H307.738V414.328ZM323.027 414.328H337.36V428.661H323.027V414.328ZM338.316 414.328H352.649V428.661H338.316V414.328ZM353.605 414.328H367.939V428.661H353.605V414.328ZM368.894 414.328H383.228V428.661H368.894V414.328ZM384.183 414.328H398.517V428.661H384.183V414.328ZM399.472 414.328H413.806V428.661H399.472V414.328ZM414.761 414.328H429.095V428.661H414.761V414.328ZM430.051 414.328H444.384V428.661H430.051V414.328ZM445.34 414.328H459.673V428.661H445.34V414.328ZM460.629 414.328H474.962V428.661H460.629V414.328ZM475.918 414.328H490.251V428.661H475.918V414.328ZM491.207 414.328H505.541V428.661H491.207V414.328ZM506.496 414.328H520.83V428.661H506.496V414.328ZM521.785 414.328H536.119V428.661H521.785V414.328ZM537.074 414.328H551.408V428.661H537.074V414.328ZM552.363 414.328H566.697V428.661H552.363V414.328ZM567.653 414.328H581.986V428.661H567.653V414.328ZM582.942 414.328H597.275V428.661H582.942V414.328ZM598.231 414.328H612.564V428.661H598.231V414.328ZM613.52 414.328H627.853V428.661H613.52V414.328ZM628.809 414.328H643.143V428.661H628.809V414.328ZM644.098 414.328H658.432V428.661H644.098V414.328ZM644.098 413.372V399.039H658.432V413.372H644.098ZM644.098 398.083V383.75H658.432V398.083H644.098ZM644.098 382.794V368.461H658.432V382.794H644.098ZM644.098 367.505V353.171H658.432V367.505H644.098ZM644.098 352.216V337.882H658.432V352.216H644.098ZM644.098 336.927V322.593H658.432V336.927H644.098ZM644.098 321.638V307.304H658.432V321.638H644.098ZM644.098 306.349V292.015H658.432V306.349H644.098ZM644.098 291.059V276.726H658.432V291.059H644.098ZM644.098 275.77V261.437H658.432V275.77H644.098ZM644.098 260.481V246.148H658.432V260.481H644.098ZM644.098 245.192V230.859H658.432V245.192H644.098ZM644.098 229.903V215.569H658.432V229.903H644.098ZM644.098 214.614V200.28H658.432V214.614H644.098ZM644.098 199.325V184.991H658.432V199.325H644.098ZM644.098 184.036V169.702H658.432V184.036H644.098ZM644.098 168.747V154.413H658.432V168.747H644.098ZM644.098 153.457V139.124H658.432V153.457H644.098ZM644.098 138.168V123.835H658.432V138.168H644.098ZM644.098 122.879V108.546H658.432V122.879H644.098ZM644.098 107.59V93.2566H658.432V107.59H644.098ZM644.098 92.3011V77.9675H658.432V92.3011H644.098ZM644.098 77.0119V62.6784H658.432V77.0119H644.098ZM644.098 61.7228V47.3893H658.432V61.7228H644.098ZM643.143 61.7228H628.809V47.3893H643.143V61.7228ZM627.853 61.7228H613.52V47.3893H627.853V61.7228ZM612.564 61.7228H598.231V47.3893H612.564V61.7228ZM597.275 61.7228H582.942V47.3893H597.275V61.7228ZM581.986 61.7228H567.653V47.3893H581.986V61.7228ZM566.697 61.7228H552.363V47.3893H566.697V61.7228ZM551.408 61.7228H537.074V47.3893H551.408V61.7228ZM536.119 61.7228H521.785V47.3893H536.119V61.7228ZM520.83 61.7228H506.496V47.3893H520.83V61.7228ZM505.541 61.7228H491.207V47.3893H505.541V61.7228ZM490.251 61.7228H475.918V47.3893H490.251V61.7228ZM474.962 61.7228H460.629V47.3893H474.962V61.7228ZM459.673 61.7228H445.34V47.3893H459.673V61.7228ZM444.384 61.7228H430.051V47.3893H444.384V61.7228ZM429.095 61.7228H414.761V47.3893H429.095V61.7228ZM413.806 61.7228H399.472V47.3893H413.806V61.7228ZM398.517 61.7228H384.183V47.3893H398.517V61.7228ZM383.228 61.7228H368.894V47.3893H383.228V61.7228ZM367.939 61.7228H353.605V47.3893H367.939V61.7228ZM352.649 61.7228H338.316V47.3893H352.649V61.7228ZM337.36 61.7228H323.027V47.3893H337.36V61.7228ZM322.071 61.7228H307.738V47.3893H322.071V61.7228ZM306.782 61.7228H292.449V47.3893H306.782V61.7228ZM291.493 61.7228H277.16V47.3893H291.493V61.7228ZM276.204 61.7228H261.87V47.3893H276.204V61.7228ZM260.915 61.7228H246.581V47.3893H260.915V61.7228ZM245.626 61.7228H231.292V47.3893H245.626V61.7228ZM230.337 61.7228H216.003V47.3893H230.337V61.7228ZM215.048 61.7228H200.714V47.3893H215.048V61.7228ZM199.758 61.7228H185.425V47.3893H199.758V61.7228ZM184.469 61.7228H170.136V47.3893H184.469V61.7228ZM169.18 61.7228H154.847V47.3893H169.18V61.7228ZM153.891 61.7228H139.558V47.3893H153.891V61.7228ZM138.602 61.7228H124.268V47.3893H138.602V61.7228ZM123.313 61.7228H108.979V47.3893H123.313V61.7228ZM108.024 61.7228H93.6902V47.3893H108.024V61.7228ZM92.7346 61.7228H78.4011V47.3893H92.7346V61.7228ZM77.4455 61.7228H63.112V47.3893H77.4455V61.7228ZM62.1564 61.7228H47.8229V47.3893H62.1564V61.7228ZM62.1564 62.6784V77.0119H47.8229V62.6784H62.1564ZM62.1564 77.9675V92.3011H47.8229V77.9675H62.1564ZM62.1564 93.2566V107.59H47.8229V93.2566H62.1564ZM62.1564 108.546V122.879H47.8229V108.546H62.1564ZM62.1564 123.835V138.168H47.8229V123.835H62.1564ZM62.1564 139.124V153.457H47.8229V139.124H62.1564ZM62.1564 154.413V168.747H47.8229V154.413H62.1564ZM62.1564 169.702V184.036H47.8229V169.702H62.1564ZM62.1564 184.991V199.325H47.8229V184.991H62.1564ZM62.1564 200.28V214.614H47.8229V200.28H62.1564ZM62.1564 215.569V229.903H47.8229V215.569H62.1564ZM62.1564 230.859V245.192H47.8229V230.859H62.1564ZM62.1564 246.148V260.481H47.8229V246.148H62.1564ZM62.1564 261.437V275.77H47.8229V261.437H62.1564ZM62.1564 276.726V291.059H47.8229V276.726H62.1564ZM62.1564 292.015V306.349H47.8229V292.015H62.1564ZM62.1564 307.304V321.638H47.8229V307.304H62.1564ZM62.1564 322.593V336.927H47.8229V322.593H62.1564ZM62.1564 337.882V352.216H47.8229V337.882H62.1564ZM62.1564 353.171V367.505H47.8229V353.171H62.1564ZM62.1564 368.461V382.794H47.8229V368.461H62.1564ZM62.1564 383.75V398.083H47.8229V383.75H62.1564ZM62.1564 399.039V413.372H47.8229V399.039H62.1564ZM62.1564 414.328V428.661H47.8229V414.328H62.1564ZM62.1564 429.617V443.951H47.8229V429.617H62.1564ZM63.112 429.617H77.4455V443.951H63.112V429.617ZM78.4011 429.617H92.7346V443.951H78.4011V429.617ZM93.6902 429.617H108.024V443.951H93.6902V429.617ZM108.979 429.617H123.313V443.951H108.979V429.617ZM124.268 429.617H138.602V443.951H124.268V429.617ZM139.558 429.617H153.891V443.951H139.558V429.617ZM154.847 429.617H169.18V443.951H154.847V429.617ZM170.136 429.617H184.469V443.951H170.136V429.617ZM185.425 429.617H199.758V443.951H185.425V429.617ZM200.714 429.617H215.048V443.951H200.714V429.617ZM216.003 429.617H230.337V443.951H216.003V429.617ZM231.292 429.617H245.626V443.951H231.292V429.617ZM246.581 429.617H260.915V443.951H246.581V429.617ZM261.87 429.617H276.204V443.951H261.87V429.617ZM277.16 429.617H291.493V443.951H277.16V429.617ZM292.449 429.617H306.782V443.951H292.449V429.617ZM307.738 429.617H322.071V443.951H307.738V429.617ZM323.027 429.617H337.36V443.951H323.027V429.617ZM338.316 429.617H352.649V443.951H338.316V429.617ZM353.605 429.617H367.939V443.951H353.605V429.617ZM368.894 429.617H383.228V443.951H368.894V429.617ZM384.183 429.617H398.517V443.951H384.183V429.617ZM399.472 429.617H413.806V443.951H399.472V429.617ZM414.761 429.617H429.095V443.951H414.761V429.617ZM430.051 429.617H444.384V443.951H430.051V429.617ZM445.34 429.617H459.673V443.951H445.34V429.617ZM460.629 429.617H474.962V443.951H460.629V429.617ZM475.918 429.617H490.251V443.951H475.918V429.617ZM491.207 429.617H505.541V443.951H491.207V429.617ZM506.496 429.617H520.83V443.951H506.496V429.617ZM521.785 429.617H536.119V443.951H521.785V429.617ZM537.074 429.617H551.408V443.951H537.074V429.617ZM552.363 429.617H566.697V443.951H552.363V429.617ZM567.653 429.617H581.986V443.951H567.653V429.617ZM582.942 429.617H597.275V443.951H582.942V429.617ZM598.231 429.617H612.564V443.951H598.231V429.617ZM613.52 429.617H627.853V443.951H613.52V429.617ZM628.809 429.617H643.143V443.951H628.809V429.617ZM644.098 429.617H658.432V443.951H644.098V429.617ZM659.387 429.617H673.721V443.951H659.387V429.617ZM659.387 428.661V414.328H673.721V428.661H659.387ZM659.387 413.372V399.039H673.721V413.372H659.387ZM659.387 398.083V383.75H673.721V398.083H659.387ZM659.387 382.794V368.461H673.721V382.794H659.387ZM659.387 367.505V353.171H673.721V367.505H659.387ZM659.387 352.216V337.882H673.721V352.216H659.387ZM659.387 336.927V322.593H673.721V336.927H659.387ZM659.387 321.638V307.304H673.721V321.638H659.387ZM659.387 306.349V292.015H673.721V306.349H659.387ZM659.387 291.059V276.726H673.721V291.059H659.387ZM659.387 275.77V261.437H673.721V275.77H659.387ZM659.387 260.481V246.148H673.721V260.481H659.387ZM659.387 245.192V230.859H673.721V245.192H659.387ZM659.387 229.903V215.569H673.721V229.903H659.387ZM659.387 214.614V200.28H673.721V214.614H659.387ZM659.387 199.325V184.991H673.721V199.325H659.387ZM659.387 184.036V169.702H673.721V184.036H659.387ZM659.387 168.747V154.413H673.721V168.747H659.387ZM659.387 153.457V139.124H673.721V153.457H659.387ZM659.387 138.168V123.835H673.721V138.168H659.387ZM659.387 122.879V108.546H673.721V122.879H659.387ZM659.387 107.59V93.2566H673.721V107.59H659.387ZM659.387 92.3011V77.9675H673.721V92.3011H659.387ZM659.387 77.0119V62.6784H673.721V77.0119H659.387ZM659.387 61.7228V47.3893H673.721V61.7228H659.387ZM659.387 46.4337V32.1002H673.721V46.4337H659.387ZM658.432 46.4337H644.098V32.1002H658.432V46.4337ZM643.143 46.4337H628.809V32.1002H643.143V46.4337ZM627.853 46.4337H613.52V32.1002H627.853V46.4337ZM612.564 46.4337H598.231V32.1002H612.564V46.4337ZM597.275 46.4337H582.942V32.1002H597.275V46.4337ZM581.986 46.4337H567.653V32.1002H581.986V46.4337ZM566.697 46.4337H552.363V32.1002H566.697V46.4337ZM551.408 46.4337H537.074V32.1002H551.408V46.4337ZM536.119 46.4337H521.785V32.1002H536.119V46.4337ZM520.83 46.4337H506.496V32.1002H520.83V46.4337ZM505.541 46.4337H491.207V32.1002H505.541V46.4337ZM490.251 46.4337H475.918V32.1002H490.251V46.4337ZM474.962 46.4337H460.629V32.1002H474.962V46.4337ZM459.673 46.4337H445.34V32.1002H459.673V46.4337ZM444.384 46.4337H430.051V32.1002H444.384V46.4337ZM429.095 46.4337H414.761V32.1002H429.095V46.4337ZM413.806 46.4337H399.472V32.1002H413.806V46.4337ZM398.517 46.4337H384.183V32.1002H398.517V46.4337ZM383.228 46.4337H368.894V32.1002H383.228V46.4337ZM367.939 46.4337H353.605V32.1002H367.939V46.4337ZM352.649 46.4337H338.316V32.1002H352.649V46.4337ZM337.36 46.4337H323.027V32.1002H337.36V46.4337ZM322.071 46.4337H307.738V32.1002H322.071V46.4337ZM306.782 46.4337H292.449V32.1002H306.782V46.4337ZM291.493 46.4337H277.16V32.1002H291.493V46.4337ZM276.204 46.4337H261.87V32.1002H276.204V46.4337ZM260.915 46.4337H246.581V32.1002H260.915V46.4337ZM245.626 46.4337H231.292V32.1002H245.626V46.4337ZM230.337 46.4337H216.003V32.1002H230.337V46.4337ZM215.048 46.4337H200.714V32.1002H215.048V46.4337ZM199.758 46.4337H185.425V32.1002H199.758V46.4337ZM184.469 46.4337H170.136V32.1002H184.469V46.4337ZM169.18 46.4337H154.847V32.1002H169.18V46.4337ZM153.891 46.4337H139.558V32.1002H153.891V46.4337ZM138.602 46.4337H124.268V32.1002H138.602V46.4337ZM123.313 46.4337H108.979V32.1002H123.313V46.4337ZM108.024 46.4337H93.6902V32.1002H108.024V46.4337ZM92.7346 46.4337H78.4011V32.1002H92.7346V46.4337ZM77.4455 46.4337H63.112V32.1002H77.4455V46.4337ZM62.1564 46.4337H47.8229V32.1002H62.1564V46.4337ZM46.8673 46.4337H32.5338V32.1002H46.8673V46.4337ZM46.8673 47.3893V61.7228H32.5338V47.3893H46.8673ZM46.8673 62.6784V77.0119H32.5338V62.6784H46.8673ZM46.8673 77.9675V92.3011H32.5338V77.9675H46.8673ZM46.8673 93.2566V107.59H32.5338V93.2566H46.8673ZM46.8673 108.546V122.879H32.5338V108.546H46.8673ZM46.8673 123.835V138.168H32.5338V123.835H46.8673ZM46.8673 139.124V153.457H32.5338V139.124H46.8673ZM46.8673 154.413V168.747H32.5338V154.413H46.8673ZM46.8673 169.702V184.036H32.5338V169.702H46.8673ZM46.8673 184.991V199.325H32.5338V184.991H46.8673ZM46.8673 200.28V214.614H32.5338V200.28H46.8673ZM46.8673 215.569V229.903H32.5338V215.569H46.8673ZM46.8673 230.859V245.192H32.5338V230.859H46.8673ZM46.8673 246.148V260.481H32.5338V246.148H46.8673ZM46.8673 261.437V275.77H32.5338V261.437H46.8673ZM46.8673 276.726V291.059H32.5338V276.726H46.8673ZM46.8673 292.015V306.349H32.5338V292.015H46.8673ZM46.8673 307.304V321.638H32.5338V307.304H46.8673ZM46.8673 322.593V336.927H32.5338V322.593H46.8673ZM46.8673 337.882V352.216H32.5338V337.882H46.8673ZM46.8673 353.171V367.505H32.5338V353.171H46.8673ZM46.8673 368.461V382.794H32.5338V368.461H46.8673ZM46.8673 383.75V398.083H32.5338V383.75H46.8673ZM46.8673 399.039V413.372H32.5338V399.039H46.8673ZM46.8673 414.328V428.661H32.5338V414.328H46.8673ZM46.8673 429.617V443.951H32.5338V429.617H46.8673ZM46.8673 444.906V459.24H32.5338V444.906H46.8673ZM47.8229 444.906H62.1564V459.24H47.8229V444.906ZM63.112 444.906H77.4455V459.24H63.112V444.906ZM78.4011 444.906H92.7346V459.24H78.4011V444.906ZM93.6902 444.906H108.024V459.24H93.6902V444.906ZM108.979 444.906H123.313V459.24H108.979V444.906ZM124.268 444.906H138.602V459.24H124.268V444.906ZM139.558 444.906H153.891V459.24H139.558V444.906ZM154.847 444.906H169.18V459.24H154.847V444.906ZM170.136 444.906H184.469V459.24H170.136V444.906ZM185.425 444.906H199.758V459.24H185.425V444.906ZM200.714 444.906H215.048V459.24H200.714V444.906ZM216.003 444.906H230.337V459.24H216.003V444.906ZM231.292 444.906H245.626V459.24H231.292V444.906ZM246.581 444.906H260.915V459.24H246.581V444.906ZM261.87 444.906H276.204V459.24H261.87V444.906ZM277.16 444.906H291.493V459.24H277.16V444.906ZM292.449 444.906H306.782V459.24H292.449V444.906ZM307.738 444.906H322.071V459.24H307.738V444.906ZM323.027 444.906H337.36V459.24H323.027V444.906ZM338.316 444.906H352.649V459.24H338.316V444.906ZM353.605 444.906H367.939V459.24H353.605V444.906ZM368.894 444.906H383.228V459.24H368.894V444.906ZM384.183 444.906H398.517V459.24H384.183V444.906ZM399.472 444.906H413.806V459.24H399.472V444.906ZM414.761 444.906H429.095V459.24H414.761V444.906ZM430.051 444.906H444.384V459.24H430.051V444.906ZM445.34 444.906H459.673V459.24H445.34V444.906ZM460.629 444.906H474.962V459.24H460.629V444.906ZM475.918 444.906H490.251V459.24H475.918V444.906ZM491.207 444.906H505.541V459.24H491.207V444.906ZM506.496 444.906H520.83V459.24H506.496V444.906ZM521.785 444.906H536.119V459.24H521.785V444.906ZM537.074 444.906H551.408V459.24H537.074V444.906ZM552.363 444.906H566.697V459.24H552.363V444.906ZM567.653 444.906H581.986V459.24H567.653V444.906ZM582.942 444.906H597.275V459.24H582.942V444.906ZM598.231 444.906H612.564V459.24H598.231V444.906ZM613.52 444.906H627.853V459.24H613.52V444.906ZM628.809 444.906H643.143V459.24H628.809V444.906ZM644.098 444.906H658.432V459.24H644.098V444.906ZM659.387 444.906H673.721V459.24H659.387V444.906ZM674.676 444.906H689.01V459.24H674.676V444.906ZM674.676 443.951V429.617H689.01V443.951H674.676ZM674.676 428.661V414.328H689.01V428.661H674.676ZM674.676 413.372V399.039H689.01V413.372H674.676ZM674.676 398.083V383.75H689.01V398.083H674.676ZM674.676 382.794V368.461H689.01V382.794H674.676ZM674.676 367.505V353.171H689.01V367.505H674.676ZM674.676 352.216V337.882H689.01V352.216H674.676ZM674.676 336.927V322.593H689.01V336.927H674.676ZM674.676 321.638V307.304H689.01V321.638H674.676ZM674.676 306.349V292.015H689.01V306.349H674.676ZM674.676 291.059V276.726H689.01V291.059H674.676ZM674.676 275.77V261.437H689.01V275.77H674.676ZM674.676 260.481V246.148H689.01V260.481H674.676ZM674.676 245.192V230.859H689.01V245.192H674.676ZM674.676 229.903V215.569H689.01V229.903H674.676ZM674.676 214.614V200.28H689.01V214.614H674.676ZM674.676 199.325V184.991H689.01V199.325H674.676ZM674.676 184.036V169.702H689.01V184.036H674.676ZM674.676 168.747V154.413H689.01V168.747H674.676ZM674.676 153.457V139.124H689.01V153.457H674.676ZM674.676 138.168V123.835H689.01V138.168H674.676ZM674.676 122.879V108.546H689.01V122.879H674.676ZM674.676 107.59V93.2566H689.01V107.59H674.676ZM674.676 92.3011V77.9675H689.01V92.3011H674.676ZM674.676 77.0119V62.6784H689.01V77.0119H674.676ZM674.676 61.7228V47.3893H689.01V61.7228H674.676ZM674.676 46.4337V32.1002H689.01V46.4337H674.676ZM674.676 31.1446V16.8111H689.01V31.1446H674.676ZM673.721 31.1446H659.387V16.8111H673.721V31.1446ZM658.432 31.1446H644.098V16.8111H658.432V31.1446ZM643.143 31.1446H628.809V16.8111H643.143V31.1446ZM627.853 31.1446H613.52V16.8111H627.853V31.1446ZM612.564 31.1446H598.231V16.8111H612.564V31.1446ZM597.275 31.1446H582.942V16.8111H597.275V31.1446ZM581.986 31.1446H567.653V16.8111H581.986V31.1446ZM566.697 31.1446H552.363V16.8111H566.697V31.1446ZM551.408 31.1446H537.074V16.8111H551.408V31.1446ZM536.119 31.1446H521.785V16.8111H536.119V31.1446ZM520.83 31.1446H506.496V16.8111H520.83V31.1446ZM505.541 31.1446H491.207V16.8111H505.541V31.1446ZM490.251 31.1446H475.918V16.8111H490.251V31.1446ZM474.962 31.1446H460.629V16.8111H474.962V31.1446ZM459.673 31.1446H445.34V16.8111H459.673V31.1446ZM444.384 31.1446H430.051V16.8111H444.384V31.1446ZM429.095 31.1446H414.761V16.8111H429.095V31.1446ZM413.806 31.1446H399.472V16.8111H413.806V31.1446ZM398.517 31.1446H384.183V16.8111H398.517V31.1446ZM383.228 31.1446H368.894V16.8111H383.228V31.1446ZM367.939 31.1446H353.605V16.8111H367.939V31.1446ZM352.649 31.1446H338.316V16.8111H352.649V31.1446ZM337.36 31.1446H323.027V16.8111H337.36V31.1446ZM322.071 31.1446H307.738V16.8111H322.071V31.1446ZM306.782 31.1446H292.449V16.8111H306.782V31.1446ZM291.493 31.1446H277.16V16.8111H291.493V31.1446ZM276.204 31.1446H261.87V16.8111H276.204V31.1446ZM260.915 31.1446H246.581V16.8111H260.915V31.1446ZM245.626 31.1446H231.292V16.8111H245.626V31.1446ZM230.337 31.1446H216.003V16.8111H230.337V31.1446ZM215.048 31.1446H200.714V16.8111H215.048V31.1446ZM199.758 31.1446H185.425V16.8111H199.758V31.1446ZM184.469 31.1446H170.136V16.8111H184.469V31.1446ZM169.18 31.1446H154.847V16.8111H169.18V31.1446ZM153.891 31.1446H139.558V16.8111H153.891V31.1446ZM138.602 31.1446H124.268V16.8111H138.602V31.1446ZM123.313 31.1446H108.979V16.8111H123.313V31.1446ZM108.024 31.1446H93.6902V16.8111H108.024V31.1446ZM92.7346 31.1446H78.4011V16.8111H92.7346V31.1446ZM77.4455 31.1446H63.112V16.8111H77.4455V31.1446ZM62.1564 31.1446H47.8229V16.8111H62.1564V31.1446ZM46.8673 31.1446H32.5338V16.8111H46.8673V31.1446ZM31.5782 31.1446H17.2447V16.8111H31.5782V31.1446ZM31.5782 32.1002V46.4337H17.2447V32.1002H31.5782ZM31.5782 47.3893V61.7228H17.2447V47.3893H31.5782ZM31.5782 62.6784V77.0119H17.2447V62.6784H31.5782ZM31.5782 77.9675V92.3011H17.2447V77.9675H31.5782ZM31.5782 93.2566V107.59H17.2447V93.2566H31.5782ZM31.5782 108.546V122.879H17.2447V108.546H31.5782ZM31.5782 123.835V138.168H17.2447V123.835H31.5782ZM31.5782 139.124V153.457H17.2447V139.124H31.5782ZM31.5782 154.413V168.747H17.2447V154.413H31.5782ZM31.5782 169.702V184.036H17.2447V169.702H31.5782ZM31.5782 184.991V199.325H17.2447V184.991H31.5782ZM31.5782 200.28V214.614H17.2447V200.28H31.5782ZM31.5782 215.569V229.903H17.2447V215.569H31.5782ZM31.5782 230.859V245.192H17.2447V230.859H31.5782ZM31.5782 246.148V260.481H17.2447V246.148H31.5782ZM31.5782 261.437V275.77H17.2447V261.437H31.5782ZM31.5782 276.726V291.059H17.2447V276.726H31.5782ZM31.5782 292.015V306.349H17.2447V292.015H31.5782ZM31.5782 307.304V321.638H17.2447V307.304H31.5782ZM31.5782 322.593V336.927H17.2447V322.593H31.5782ZM31.5782 337.882V352.216H17.2447V337.882H31.5782ZM31.5782 353.171V367.505H17.2447V353.171H31.5782ZM31.5782 368.461V382.794H17.2447V368.461H31.5782ZM31.5782 383.75V398.083H17.2447V383.75H31.5782ZM31.5782 399.039V413.372H17.2447V399.039H31.5782ZM31.5782 414.328V428.661H17.2447V414.328H31.5782ZM31.5782 429.617V443.951H17.2447V429.617H31.5782ZM31.5782 444.906V459.24H17.2447V444.906H31.5782ZM31.5782 460.195V474.529H17.2447V460.195H31.5782ZM32.5338 460.195H46.8673V474.529H32.5338V460.195ZM47.8229 460.195H62.1564V474.529H47.8229V460.195ZM63.112 460.195H77.4455V474.529H63.112V460.195ZM78.4011 460.195H92.7346V474.529H78.4011V460.195ZM93.6902 460.195H108.024V474.529H93.6902V460.195ZM108.979 460.195H123.313V474.529H108.979V460.195ZM124.268 460.195H138.602V474.529H124.268V460.195ZM139.558 460.195H153.891V474.529H139.558V460.195ZM154.847 460.195H169.18V474.529H154.847V460.195ZM170.136 460.195H184.469V474.529H170.136V460.195ZM185.425 460.195H199.758V474.529H185.425V460.195ZM200.714 460.195H215.048V474.529H200.714V460.195ZM216.003 460.195H230.337V474.529H216.003V460.195ZM231.292 460.195H245.626V474.529H231.292V460.195ZM246.581 460.195H260.915V474.529H246.581V460.195ZM261.87 460.195H276.204V474.529H261.87V460.195ZM277.16 460.195H291.493V474.529H277.16V460.195ZM292.449 460.195H306.782V474.529H292.449V460.195ZM307.738 460.195H322.071V474.529H307.738V460.195ZM323.027 460.195H337.36V474.529H323.027V460.195ZM338.316 460.195H352.649V474.529H338.316V460.195ZM353.605 460.195H367.939V474.529H353.605V460.195ZM368.894 460.195H383.228V474.529H368.894V460.195ZM384.183 460.195H398.517V474.529H384.183V460.195ZM399.472 460.195H413.806V474.529H399.472V460.195ZM414.761 460.195H429.095V474.529H414.761V460.195ZM430.051 460.195H444.384V474.529H430.051V460.195ZM445.34 460.195H459.673V474.529H445.34V460.195ZM460.629 460.195H474.962V474.529H460.629V460.195ZM475.918 460.195H490.251V474.529H475.918V460.195ZM491.207 460.195H505.541V474.529H491.207V460.195ZM506.496 460.195H520.83V474.529H506.496V460.195ZM521.785 460.195H536.119V474.529H521.785V460.195ZM537.074 460.195H551.408V474.529H537.074V460.195ZM552.363 460.195H566.697V474.529H552.363V460.195ZM567.653 460.195H581.986V474.529H567.653V460.195ZM582.942 460.195H597.275V474.529H582.942V460.195ZM598.231 460.195H612.564V474.529H598.231V460.195ZM613.52 460.195H627.853V474.529H613.52V460.195ZM628.809 460.195H643.143V474.529H628.809V460.195ZM644.098 460.195H658.432V474.529H644.098V460.195ZM659.387 460.195H673.721V474.529H659.387V460.195ZM674.676 460.195H689.01V474.529H674.676V460.195ZM689.965 460.195H704.299V474.529H689.965V460.195ZM689.965 459.24V444.906H704.299V459.24H689.965ZM689.965 443.951V429.617H704.299V443.951H689.965ZM689.965 428.661V414.328H704.299V428.661H689.965ZM689.965 413.372V399.039H704.299V413.372H689.965ZM689.965 398.083V383.75H704.299V398.083H689.965ZM689.965 382.794V368.461H704.299V382.794H689.965ZM689.965 367.505V353.171H704.299V367.505H689.965ZM689.965 352.216V337.882H704.299V352.216H689.965ZM689.965 336.927V322.593H704.299V336.927H689.965ZM689.965 321.638V307.304H704.299V321.638H689.965ZM689.965 306.349V292.015H704.299V306.349H689.965ZM689.965 291.059V276.726H704.299V291.059H689.965ZM689.965 275.77V261.437H704.299V275.77H689.965ZM689.965 260.481V246.148H704.299V260.481H689.965ZM689.965 245.192V230.859H704.299V245.192H689.965ZM689.965 229.903V215.569H704.299V229.903H689.965ZM689.965 214.614V200.28H704.299V214.614H689.965ZM689.965 199.325V184.991H704.299V199.325H689.965ZM689.965 184.036V169.702H704.299V184.036H689.965ZM689.965 168.747V154.413H704.299V168.747H689.965ZM689.965 153.457V139.124H704.299V153.457H689.965ZM689.965 138.168V123.835H704.299V138.168H689.965ZM689.965 122.879V108.546H704.299V122.879H689.965ZM689.965 107.59V93.2566H704.299V107.59H689.965ZM689.965 92.3011V77.9675H704.299V92.3011H689.965ZM689.965 77.0119V62.6784H704.299V77.0119H689.965ZM689.965 61.7228V47.3893H704.299V61.7228H689.965ZM689.965 46.4337V32.1002H704.299V46.4337H689.965ZM689.965 31.1446V16.8111H704.299V31.1446H689.965ZM689.01 1.52198V15.8555H674.676V1.52198H689.01ZM673.721 1.52198V15.8555H659.387V1.52198H673.721ZM658.432 1.52198V15.8555H644.098V1.52198H658.432ZM643.143 1.52198V15.8555H628.809V1.52198H643.143ZM627.853 1.52198V15.8555H613.52V1.52198H627.853ZM612.564 1.52198V15.8555H598.231V1.52198H612.564ZM597.275 1.52198V15.8555H582.942V1.52198H597.275ZM581.986 1.52198V15.8555H567.653V1.52198H581.986ZM566.697 1.52198V15.8555H552.363V1.52198H566.697ZM551.408 1.52198V15.8555H537.074V1.52198H551.408ZM536.119 1.52198V15.8555H521.785V1.52198H536.119ZM520.83 1.52198V15.8555H506.496V1.52198H520.83ZM505.541 1.52198V15.8555H491.207V1.52198H505.541ZM490.251 1.52198V15.8555H475.918V1.52198H490.251ZM474.962 1.52198V15.8555H460.629V1.52198H474.962ZM459.673 1.52198V15.8555H445.34V1.52198H459.673ZM444.384 1.52198V15.8555H430.051V1.52198H444.384ZM429.095 1.52198V15.8555H414.761V1.52198H429.095ZM413.806 1.52198V15.8555H399.472V1.52198H413.806ZM398.517 1.52198V15.8555H384.183V1.52198H398.517ZM383.228 1.52198V15.8555H368.894V1.52198H383.228ZM367.939 1.52198V15.8555H353.605V1.52198H367.939ZM352.649 1.52198V15.8555H338.316V1.52198H352.649ZM337.36 1.52198V15.8555H323.027V1.52198H337.36ZM322.071 1.52198V15.8555H307.738V1.52198H322.071ZM306.782 1.52198V15.8555H292.449V1.52198H306.782ZM291.493 1.52198V15.8555H277.16V1.52198H291.493ZM276.204 1.52198V15.8555H261.87V1.52198H276.204ZM260.915 1.52198V15.8555H246.581V1.52198H260.915ZM245.626 1.52198V15.8555H231.292V1.52198H245.626ZM230.337 1.52198V15.8555H216.003V1.52198H230.337ZM215.048 1.52198V15.8555H200.714V1.52198H215.048ZM199.758 1.52198V15.8555H185.425V1.52198H199.758ZM184.469 1.52198V15.8555H170.136V1.52198H184.469ZM169.18 1.52198V15.8555H154.847V1.52198H169.18ZM153.891 1.52198V15.8555H139.558V1.52198H153.891ZM138.602 1.52198V15.8555H124.268V1.52198H138.602ZM123.313 1.52198V15.8555H108.979V1.52198H123.313ZM108.024 1.52198V15.8555H93.6902V1.52198H108.024ZM92.7346 1.52198V15.8555H78.4011V1.52198H92.7346ZM77.4455 1.52198V15.8555H63.112V1.52198H77.4455ZM62.1564 1.52198V15.8555H47.8229V1.52198H62.1564ZM46.8673 1.52198V15.8555H32.5338V1.52198H46.8673ZM31.5782 1.52198V15.8555H17.2447V1.52198H31.5782ZM1.95557 1.52198H16.2891V15.8555H1.95557V1.52198ZM1.95557 16.8111H16.2891V31.1446H1.95557V16.8111ZM1.95557 32.1002H16.2891V46.4337H1.95557V32.1002ZM1.95557 47.3893H16.2891V61.7228H1.95557V47.3893ZM1.95557 62.6784H16.2891V77.0119H1.95557V62.6784ZM1.95557 77.9675H16.2891V92.3011H1.95557V77.9675ZM1.95557 93.2566H16.2891V107.59H1.95557V93.2566ZM1.95557 108.546H16.2891V122.879H1.95557V108.546ZM1.95557 123.835H16.2891V138.168H1.95557V123.835ZM1.95557 139.124H16.2891V153.457H1.95557V139.124ZM1.95557 154.413H16.2891V168.747H1.95557V154.413ZM1.95557 169.702H16.2891V184.036H1.95557V169.702ZM1.95557 184.991H16.2891V199.325H1.95557V184.991ZM1.95557 200.28H16.2891V214.614H1.95557V200.28ZM1.95557 215.569H16.2891V229.903H1.95557V215.569ZM1.95557 230.859H16.2891V245.192H1.95557V230.859ZM1.95557 246.148H16.2891V260.481H1.95557V246.148ZM1.95557 261.437H16.2891V275.77H1.95557V261.437ZM1.95557 276.726H16.2891V291.059H1.95557V276.726ZM1.95557 292.015H16.2891V306.349H1.95557V292.015ZM1.95557 307.304H16.2891V321.638H1.95557V307.304ZM1.95557 322.593H16.2891V336.927H1.95557V322.593ZM1.95557 337.882H16.2891V352.216H1.95557V337.882ZM1.95557 353.171H16.2891V367.505H1.95557V353.171ZM1.95557 368.461H16.2891V382.794H1.95557V368.461ZM1.95557 383.75H16.2891V398.083H1.95557V383.75ZM1.95557 399.039H16.2891V413.372H1.95557V399.039ZM1.95557 414.328H16.2891V428.661H1.95557V414.328ZM1.95557 429.617H16.2891V443.951H1.95557V429.617ZM1.95557 444.906H16.2891V459.24H1.95557V444.906ZM1.95557 460.195H16.2891V474.529H1.95557V460.195ZM1.95557 489.818V475.484H16.2891V489.818H1.95557ZM17.2447 489.818V475.484H31.5782V489.818H17.2447ZM32.5338 489.818V475.484H46.8673V489.818H32.5338ZM47.8229 489.818V475.484H62.1564V489.818H47.8229ZM63.112 489.818V475.484H77.4455V489.818H63.112ZM78.4011 489.818V475.484H92.7346V489.818H78.4011ZM93.6902 489.818V475.484H108.024V489.818H93.6902ZM108.979 489.818V475.484H123.313V489.818H108.979ZM124.268 489.818V475.484H138.602V489.818H124.268ZM139.558 489.818V475.484H153.891V489.818H139.558ZM154.847 489.818V475.484H169.18V489.818H154.847ZM170.136 489.818V475.484H184.469V489.818H170.136ZM185.425 489.818V475.484H199.758V489.818H185.425ZM200.714 489.818V475.484H215.048V489.818H200.714ZM216.003 489.818V475.484H230.337V489.818H216.003ZM231.292 489.818V475.484H245.626V489.818H231.292ZM246.581 489.818V475.484H260.915V489.818H246.581ZM261.87 489.818V475.484H276.204V489.818H261.87ZM277.16 489.818V475.484H291.493V489.818H277.16ZM292.449 489.818V475.484H306.782V489.818H292.449ZM307.738 489.818V475.484H322.071V489.818H307.738ZM323.027 489.818V475.484H337.36V489.818H323.027ZM338.316 489.818V475.484H352.649V489.818H338.316ZM353.605 489.818V475.484H367.939V489.818H353.605ZM368.894 489.818V475.484H383.228V489.818H368.894ZM384.183 489.818V475.484H398.517V489.818H384.183ZM399.472 489.818V475.484H413.806V489.818H399.472ZM414.761 489.818V475.484H429.095V489.818H414.761ZM430.051 489.818V475.484H444.384V489.818H430.051ZM445.34 489.818V475.484H459.673V489.818H445.34ZM460.629 489.818V475.484H474.962V489.818H460.629ZM475.918 489.818V475.484H490.251V489.818H475.918ZM491.207 489.818V475.484H505.541V489.818H491.207ZM506.496 489.818V475.484H520.83V489.818H506.496ZM521.785 489.818V475.484H536.119V489.818H521.785ZM537.074 489.818V475.484H551.408V489.818H537.074ZM552.363 489.818V475.484H566.697V489.818H552.363ZM567.653 489.818V475.484H581.986V489.818H567.653ZM582.942 489.818V475.484H597.275V489.818H582.942ZM598.231 489.818V475.484H612.564V489.818H598.231ZM613.52 489.818V475.484H627.853V489.818H613.52ZM628.809 489.818V475.484H643.143V489.818H628.809ZM644.098 489.818V475.484H658.432V489.818H644.098ZM659.387 489.818V475.484H673.721V489.818H659.387ZM674.676 489.818V475.484H689.01V489.818H674.676ZM689.965 489.818V475.484H704.299V489.818H689.965ZM719.588 489.818H705.255V475.484H719.588V489.818ZM719.588 474.529H705.255V460.195H719.588V474.529ZM719.588 459.24H705.255V444.906H719.588V459.24ZM719.588 443.951H705.255V429.617H719.588V443.951ZM719.588 428.661H705.255V414.328H719.588V428.661ZM719.588 413.372H705.255V399.039H719.588V413.372ZM719.588 398.083H705.255V383.75H719.588V398.083ZM719.588 382.794H705.255V368.461H719.588V382.794ZM719.588 367.505H705.255V353.171H719.588V367.505ZM719.588 352.216H705.255V337.882H719.588V352.216ZM719.588 336.927H705.255V322.593H719.588V336.927ZM719.588 321.638H705.255V307.304H719.588V321.638ZM719.588 306.349H705.255V292.015H719.588V306.349ZM719.588 291.059H705.255V276.726H719.588V291.059ZM719.588 275.77H705.255V261.437H719.588V275.77ZM719.588 260.481H705.255V246.148H719.588V260.481ZM719.588 245.192H705.255V230.859H719.588V245.192ZM719.588 229.903H705.255V215.569H719.588V229.903ZM719.588 214.614H705.255V200.28H719.588V214.614ZM719.588 199.325H705.255V184.991H719.588V199.325ZM719.588 184.036H705.255V169.702H719.588V184.036ZM719.588 168.747H705.255V154.413H719.588V168.747ZM719.588 153.457H705.255V139.124H719.588V153.457ZM719.588 138.168H705.255V123.835H719.588V138.168ZM719.588 122.879H705.255V108.546H719.588V122.879ZM719.588 107.59H705.255V93.2566H719.588V107.59ZM719.588 92.3011H705.255V77.9675H719.588V92.3011ZM719.588 77.0119H705.255V62.6784H719.588V77.0119ZM719.588 61.7228H705.255V47.3893H719.588V61.7228ZM719.588 46.4337H705.255V32.1002H719.588V46.4337ZM719.588 31.1446H705.255V16.8111H719.588V31.1446Z" stroke="url(#paint0_linear_623_30076)"/>
<defs>
<linearGradient id="paint0_linear_623_30076" x1="773.54" y1="233.527" x2="-16.0654" y2="220.906" gradientUnits="userSpaceOnUse">
<stop offset="0.28916" stop-color="#003352"/>
<stop offset="0.904886" stop-color="#011A29" stop-opacity="0"/>
</linearGradient>
</defs>
</svg>
