<svg width="48" height="40" viewBox="0 0 48 40" fill="none" xmlns="http://www.w3.org/2000/svg">
<path d="M39.6278 1.67578H8.37199C4.67297 1.67578 1.67432 4.67443 1.67432 8.37346V30.699C1.67432 34.3981 4.67297 37.3967 8.37199 37.3967H39.6278C43.3268 37.3967 46.3255 34.3981 46.3255 30.699V8.37346C46.3255 4.67443 43.3268 1.67578 39.6278 1.67578Z" fill="#072333"/>
<path d="M46.0134 6.36415L25.1389 18.8442C24.4468 19.2683 23.5538 19.2683 22.8617 18.8442L1.9873 6.36415C2.83568 3.64043 5.35847 1.67578 8.37242 1.67578H39.6282C42.6422 1.67578 45.165 3.64043 46.0134 6.36415Z" fill="#0C3C58"/>
<path d="M39.6279 0H8.37209C3.7507 0 0 3.7507 0 8.37209V30.6977C0 35.3191 3.7507 39.0698 8.37209 39.0698H39.6279C44.2493 39.0698 48 35.3191 48 30.6977V8.37209C48 3.7507 44.2493 0 39.6279 0ZM8.37209 3.34884H39.6279C41.414 3.34884 42.9767 4.28651 43.8698 5.69302L24.2902 17.414C24.1116 17.5256 23.8884 17.5256 23.7098 17.414L4.13023 5.69302C5.02326 4.28651 6.58605 3.34884 8.37209 3.34884ZM39.6279 35.7209H8.37209C5.60372 35.7209 3.34884 33.466 3.34884 30.6977V9.13116L21.9907 20.294C22.6158 20.6735 23.3079 20.8521 24 20.8521C24.6921 20.8521 25.3842 20.6735 26.0093 20.294L44.6512 9.13116V30.6977C44.6512 33.466 42.3963 35.7209 39.6279 35.7209Z" fill="#23B5E9"/>
</svg>
