<svg width="120" height="120" viewBox="0 0 120 120" fill="none" xmlns="http://www.w3.org/2000/svg">
<g clip-path="url(#clip0_716_29678)">
<g opacity="0.15" filter="url(#filter0_f_716_29678)">
<path fill-rule="evenodd" clip-rule="evenodd" d="M84.7441 58.438L54.4442 75.9316C52.7684 76.9 50.0398 76.9004 48.3627 75.9321L27.2806 63.7603C25.604 62.7924 25.6046 61.2171 27.2812 60.2491L57.5811 42.7554C59.2576 41.7875 61.9856 41.7875 63.6621 42.7554L84.7442 54.9272C86.4208 55.8952 86.4206 57.47 84.7441 58.438ZM24.1233 89.9267L3.04123 77.7549C1.36471 76.787 1.36473 75.212 3.04206 74.2436L13.6467 68.1209C15.3231 67.1531 18.0519 67.1526 19.7284 68.1206L40.8105 80.2923C42.4871 81.2603 42.4869 82.8352 40.8097 83.8035L30.205 89.9261C28.5285 90.895 25.8005 90.895 24.1233 89.9267ZM63.6629 109.244L93.9627 91.7505C95.6393 90.7825 95.6387 89.2072 93.9621 88.2392L72.8801 76.0675C71.2029 75.0992 68.475 75.0992 66.7984 76.0671L36.4986 93.5608C34.8214 94.5291 34.8222 96.1045 36.4985 97.0724L57.58 109.244C59.2572 110.212 61.9852 110.212 63.6629 109.244ZM101.515 83.8778L80.4338 71.7063C78.7574 70.7385 78.7566 69.163 80.4338 68.1947L91.0385 62.0721C92.715 61.1042 95.443 61.1042 97.1202 62.0725L118.202 74.2442C119.879 75.2122 119.879 76.7872 118.202 77.7551L107.597 83.8781C105.92 84.8461 103.192 84.8461 101.515 83.8778Z" fill="#23B5E9"/>
</g>
<path opacity="0.2" d="M1.88867 75.7422V54.1211L56.43 86.5225L62.3702 88.1426L119.612 54.1211V75.7422L59.9401 108.953L1.88867 75.7422Z" fill="url(#paint0_linear_716_29678)"/>
<path fill-rule="evenodd" clip-rule="evenodd" d="M84.7438 36.438L54.4439 53.9316C52.7681 54.9 50.0396 54.9004 48.3624 53.9321L27.2803 41.7603C25.6038 40.7924 25.6044 39.2171 27.281 38.2491L57.5808 20.7554C59.2574 19.7875 61.9853 19.7875 63.6618 20.7554L84.7439 32.9272C86.4205 33.8952 86.4203 35.47 84.7438 36.438ZM24.1231 67.9267L3.04098 55.7549C1.36446 54.787 1.36448 53.212 3.04182 52.2436L13.6465 46.1209C15.3229 45.1531 18.0516 45.1526 19.7281 46.1206L40.8102 58.2923C42.4868 59.2603 42.4866 60.8352 40.8095 61.8035L30.2048 67.9261C28.5282 68.895 25.8002 68.895 24.1231 67.9267ZM63.6627 87.2441L93.9625 69.7505C95.6391 68.7825 95.6385 67.2072 93.9619 66.2392L72.8798 54.0675C71.2027 53.0992 68.4747 53.0992 66.7981 54.0671L36.4983 71.5608C34.8212 72.5291 34.8219 74.1045 36.4983 75.0724L57.5798 87.2438C59.2569 88.2121 61.9849 88.2121 63.6627 87.2441ZM101.515 61.8778L80.4335 49.7063C78.7571 48.7385 78.7564 47.163 80.4336 46.1947L91.0383 40.0721C92.7148 39.1042 95.4428 39.1042 97.1199 40.0725L118.202 52.2442C119.879 53.2122 119.879 54.7872 118.202 55.7551L107.597 61.8781C105.92 62.8461 103.192 62.8461 101.515 61.8778Z" fill="url(#paint1_linear_716_29678)"/>
</g>
<defs>
<filter id="filter0_f_716_29678" x="-0.216064" y="40.0312" width="121.676" height="71.9375" filterUnits="userSpaceOnUse" color-interpolation-filters="sRGB">
<feFlood flood-opacity="0" result="BackgroundImageFix"/>
<feBlend mode="normal" in="SourceGraphic" in2="BackgroundImageFix" result="shape"/>
<feGaussianBlur stdDeviation="1" result="effect1_foregroundBlur_716_29678"/>
</filter>
<linearGradient id="paint0_linear_716_29678" x1="61.0645" y1="42.8442" x2="61.0645" y2="108.796" gradientUnits="userSpaceOnUse">
<stop offset="0.317708" stop-color="#B4B4C3"/>
<stop offset="1" stop-color="#B4B4C3" stop-opacity="0"/>
</linearGradient>
<linearGradient id="paint1_linear_716_29678" x1="90.9322" y1="36.5" x2="60.6214" y2="88.9999" gradientUnits="userSpaceOnUse">
<stop stop-color="#23B5E9"/>
<stop offset="1" stop-color="#00DED0"/>
</linearGradient>
<clipPath id="clip0_716_29678">
<rect width="120" height="120" fill="white"/>
</clipPath>
</defs>
</svg>
