<svg width="120" height="120" viewBox="0 0 120 120" fill="none" xmlns="http://www.w3.org/2000/svg">
<g clip-path="url(#clip0_710_30344)">
<g opacity="0.15" filter="url(#filter0_f_710_30344)">
<path fill-rule="evenodd" clip-rule="evenodd" d="M29.6891 62.0859C46.4292 52.421 73.5708 52.421 90.3109 62.0859C107.051 71.7508 107.051 87.421 90.3109 97.0859C73.5708 106.751 46.4292 106.751 29.6891 97.0859C12.949 87.421 12.949 71.7508 29.6891 62.0859ZM85.2496 81.1312C86.2629 80.8388 86.9027 80.2408 86.9027 79.587C86.9027 78.9328 86.2626 78.335 85.2496 78.0424L61.3391 71.1401C60.4971 70.8972 59.5059 70.8972 58.6642 71.1403L34.7538 78.0426C33.7405 78.335 33.1006 78.933 33.1006 79.5868C33.1006 80.241 33.7408 80.8388 34.7538 81.1314L58.6642 88.0337C59.5062 88.2766 60.4974 88.2766 61.3391 88.0335L85.2496 81.1312ZM42.7786 79.587L60.0015 74.6151L77.2248 79.5868L60.0018 84.5587L42.7786 79.587Z" fill="#23B5E9"/>
</g>
<path opacity="0.2" d="M103.031 81.7852V39.0391L60.1049 51.61L17.1791 40.4825V78.7192C16.9385 87.3766 24.79 104.691 58.1209 104.691C91.4517 104.691 101.949 89.4205 103.031 81.7852Z" fill="url(#paint0_linear_710_30344)"/>
<path fill-rule="evenodd" clip-rule="evenodd" d="M29.6891 22.9141C46.4292 13.2492 73.5708 13.2492 90.3109 22.9141C107.051 32.579 107.051 48.2492 90.3109 57.9141C73.5708 67.579 46.4292 67.579 29.6891 57.9141C12.949 48.2492 12.949 32.579 29.6891 22.9141ZM85.2496 41.9593C86.2629 41.6669 86.9027 41.0689 86.9027 40.4151C86.9027 39.761 86.2626 39.1632 85.2496 38.8706L61.3391 31.9682C60.4971 31.7253 59.5059 31.7253 58.6642 31.9684L34.7538 38.8707C33.7405 39.1632 33.1006 39.7611 33.1006 40.4149C33.1006 41.0691 33.7408 41.6669 34.7538 41.9595L58.6642 48.8618C59.5062 49.1047 60.4974 49.1047 61.3391 48.8617L85.2496 41.9593ZM42.7786 40.4151L60.0015 35.4432L77.2248 40.4149L60.0018 45.3869L42.7786 40.4151Z" fill="url(#paint1_linear_710_30344)"/>
</g>
<defs>
<filter id="filter0_f_710_30344" x="15.134" y="52.8359" width="89.7319" height="53.5" filterUnits="userSpaceOnUse" color-interpolation-filters="sRGB">
<feFlood flood-opacity="0" result="BackgroundImageFix"/>
<feBlend mode="normal" in="SourceGraphic" in2="BackgroundImageFix" result="shape"/>
<feGaussianBlur stdDeviation="1" result="effect1_foregroundBlur_710_30344"/>
</filter>
<linearGradient id="paint0_linear_710_30344" x1="60.3315" y1="25.5369" x2="60.3315" y2="104.504" gradientUnits="userSpaceOnUse">
<stop offset="0.317708" stop-color="#B4B4C3"/>
<stop offset="1" stop-color="#B4B4C3" stop-opacity="0"/>
</linearGradient>
<linearGradient id="paint1_linear_710_30344" x1="90.3109" y1="22.9141" x2="60" y2="75.4141" gradientUnits="userSpaceOnUse">
<stop stop-color="#23B5E9"/>
<stop offset="1" stop-color="#00DED0"/>
</linearGradient>
<clipPath id="clip0_710_30344">
<rect width="120" height="120" fill="white"/>
</clipPath>
</defs>
</svg>
