<svg width="120" height="120" viewBox="0 0 120 120" fill="none" xmlns="http://www.w3.org/2000/svg">
<g clip-path="url(#clip0_716_29745)">
<g opacity="0.15" filter="url(#filter0_f_716_29745)">
<path fill-rule="evenodd" clip-rule="evenodd" d="M64.2064 65.2266C64.3437 65.5271 64.616 65.8013 64.9956 66.0216C65.3753 66.2419 65.8489 66.4004 66.3686 66.4812L107.703 72.7613C108.122 71.8682 108.126 70.9273 107.716 70.0329C107.305 69.1384 106.495 68.3221 105.365 67.6658L62.1588 42.7205C61.022 42.0684 59.6081 41.6003 58.0589 41.3635C56.5097 41.1266 54.8799 41.1292 53.333 41.371L64.2064 65.2266ZM104.132 75.8647L89.118 84.5332C87.7961 82.8983 85.9821 81.4118 83.7604 80.1429C78.5984 77.1716 71.6067 75.5031 64.3175 75.5031C57.0284 75.5031 50.0366 77.1716 44.8746 80.1429C44.1457 80.556 43.4672 80.9978 42.8439 81.465L18.9507 67.6702C17.2384 66.6758 16.2773 65.3306 16.2773 63.9284C16.2773 62.5263 17.2384 61.181 18.9507 60.1867L47.9639 43.4359L58.2902 66.1361C58.7269 67.0343 59.5563 67.8525 60.6989 68.5122C61.8415 69.1718 63.2587 69.6507 64.8144 69.9028L104.132 75.8647ZM78.4216 82.2788C81.0929 83.627 83.1509 85.3327 84.4153 87.2466C85.7391 89.4436 85.9748 91.8103 85.096 94.0804C84.2172 96.3506 82.2588 98.4341 79.441 100.097C75.4272 102.409 69.9887 103.707 64.3187 103.707C58.6487 103.707 53.2102 102.409 49.1965 100.097C45.2098 97.7403 42.996 94.5704 43.0367 91.2765C43.0774 87.9827 45.3693 84.8313 49.4138 82.508C52.0201 81.1181 55.1769 80.1184 58.6077 79.5963C62.0386 79.0743 65.6388 79.0458 69.0931 79.5135C72.5474 79.9811 75.7504 80.9306 78.4216 82.2788ZM52.681 96.699C52.7989 97.0412 53.0898 97.3555 53.5171 97.6022C54.0901 97.933 54.8671 98.1188 55.6774 98.1188C56.4877 98.1188 57.2648 97.933 57.8377 97.6022C58.265 97.3555 58.556 97.0412 58.6739 96.699C58.7918 96.3569 58.7313 96.0022 58.5 95.6799C58.2688 95.3576 57.8772 95.0821 57.3748 94.8883C56.8724 94.6945 56.2817 94.591 55.6774 94.591C55.0732 94.591 54.4825 94.6945 53.9801 94.8883C53.4777 95.0821 53.0861 95.3576 52.8548 95.6799C52.6236 96.0022 52.5631 96.3569 52.681 96.699ZM62.1584 94.377C62.9687 94.377 63.7458 94.1912 64.3187 93.8604L75.1203 87.6241C75.6933 87.2933 76.0152 86.8446 76.0152 86.3768C76.0152 85.909 75.6933 85.4603 75.1203 85.1295C74.5474 84.7987 73.7703 84.6129 72.96 84.6129C72.1497 84.6129 71.3726 84.7987 70.7997 85.1295L59.9981 91.3658C59.4251 91.6966 59.1032 92.1453 59.1032 92.6131C59.1032 93.0809 59.4251 93.5296 59.9981 93.8604C60.571 94.1912 61.3481 94.377 62.1584 94.377Z" fill="#23B5E9"/>
</g>
<path opacity="0.2" d="M108.19 71.7642V53.8016L103.583 58.5661L74.5054 56.1827L16.8274 46.8086V64.7736L45.1103 85.9062C38.6275 99.1261 52.896 103.49 60.8406 104.02C84.3567 103.639 90.4475 90.5141 90.5534 83.9995L108.19 71.7642Z" fill="url(#paint0_linear_716_29745)"/>
<path fill-rule="evenodd" clip-rule="evenodd" d="M64.2064 47.4258C64.3437 47.7263 64.616 48.0005 64.9956 48.2208C65.3753 48.4411 65.8489 48.5997 66.3686 48.6805L107.703 54.9605C108.122 54.0675 108.126 53.1265 107.716 52.2321C107.305 51.3377 106.495 50.5213 105.365 49.865L62.1588 24.9197C61.022 24.2676 59.6081 23.7996 58.0589 23.5627C56.5097 23.3258 54.8799 23.3284 53.333 23.5702L64.2064 47.4258ZM104.132 58.064L89.118 66.7324C87.7961 65.0975 85.9821 63.611 83.7604 62.3421C78.5984 59.3708 71.6067 57.7023 64.3175 57.7023C57.0284 57.7023 50.0366 59.3708 44.8746 62.3421C44.1457 62.7552 43.4672 63.197 42.8439 63.6642L18.9507 49.8694C17.2384 48.8751 16.2773 47.5298 16.2773 46.1277C16.2773 44.7255 17.2384 43.3803 18.9507 42.3859L47.9639 25.6351L58.2902 48.3353C58.7269 49.2335 59.5563 50.0517 60.6989 50.7114C61.8415 51.371 63.2587 51.8499 64.8144 52.102L104.132 58.064ZM78.4216 64.478C81.0929 65.8262 83.1509 67.5319 84.4153 69.4459C85.7391 71.6429 85.9748 74.0095 85.096 76.2797C84.2172 78.5498 82.2588 80.6333 79.441 82.2959C75.4272 84.6081 69.9887 85.9067 64.3187 85.9067C58.6487 85.9067 53.2102 84.6081 49.1965 82.2959C45.2098 79.9396 42.996 76.7696 43.0367 73.4758C43.0774 70.1819 45.3693 67.0305 49.4138 64.7073C52.0201 63.3174 55.1769 62.3176 58.6077 61.7955C62.0386 61.2735 65.6388 61.245 69.0931 61.7127C72.5474 62.1803 75.7504 63.1298 78.4216 64.478ZM52.681 78.8982C52.7989 79.2404 53.0898 79.5547 53.5171 79.8014C54.0901 80.1322 54.8671 80.318 55.6774 80.318C56.4877 80.318 57.2648 80.1322 57.8377 79.8014C58.265 79.5547 58.556 79.2404 58.6739 78.8982C58.7918 78.5561 58.7313 78.2014 58.5 77.8791C58.2688 77.5568 57.8772 77.2813 57.3748 77.0875C56.8724 76.8937 56.2817 76.7902 55.6774 76.7902C55.0732 76.7902 54.4825 76.8937 53.9801 77.0875C53.4777 77.2813 53.0861 77.5568 52.8548 77.8791C52.6236 78.2014 52.5631 78.5561 52.681 78.8982ZM62.1584 76.5762C62.9687 76.5762 63.7458 76.3904 64.3187 76.0596L75.1203 69.8233C75.6933 69.4925 76.0152 69.0438 76.0152 68.576C76.0152 68.1082 75.6933 67.6595 75.1203 67.3288C74.5474 66.998 73.7703 66.8121 72.96 66.8121C72.1497 66.8121 71.3726 66.998 70.7997 67.3288L59.9981 73.5651C59.4251 73.8959 59.1032 74.3445 59.1032 74.8123C59.1032 75.2801 59.4251 75.7288 59.9981 76.0596C60.571 76.3904 61.3481 76.5762 62.1584 76.5762Z" fill="url(#paint1_linear_716_29745)"/>
</g>
<defs>
<filter id="filter0_f_716_29745" x="14.2773" y="39.1875" width="95.7429" height="66.5195" filterUnits="userSpaceOnUse" color-interpolation-filters="sRGB">
<feFlood flood-opacity="0" result="BackgroundImageFix"/>
<feBlend mode="normal" in="SourceGraphic" in2="BackgroundImageFix" result="shape"/>
<feGaussianBlur stdDeviation="1" result="effect1_foregroundBlur_716_29745"/>
</filter>
<linearGradient id="paint0_linear_716_29745" x1="62.7529" y1="35.0424" x2="62.7529" y2="103.856" gradientUnits="userSpaceOnUse">
<stop offset="0.317708" stop-color="#B4B4C3"/>
<stop offset="1" stop-color="#B4B4C3" stop-opacity="0"/>
</linearGradient>
<linearGradient id="paint1_linear_716_29745" x1="88.085" y1="39.8882" x2="59.9998" y2="88.5332" gradientUnits="userSpaceOnUse">
<stop stop-color="#23B5E9"/>
<stop offset="1" stop-color="#00DED0"/>
</linearGradient>
<clipPath id="clip0_716_29745">
<rect width="120" height="120" fill="white"/>
</clipPath>
</defs>
</svg>
