<svg width="120" height="120" viewBox="0 0 120 120" fill="none" xmlns="http://www.w3.org/2000/svg">
<g opacity="0.15" filter="url(#filter0_f_710_30278)">
<path fill-rule="evenodd" clip-rule="evenodd" d="M55.7829 55.84C53.5728 54.564 53.5728 52.5039 55.7829 51.2279C57.993 49.9519 61.5612 49.9519 63.7713 51.2279C65.9814 52.5039 65.9814 54.564 63.6914 55.8246C62.2801 56.6394 60.2564 56.9468 58.4191 56.6855L55.6232 61.2822L65.6618 67.078C67.8453 66.2478 70.8276 66.4016 72.7448 67.5084C73.1708 67.7544 73.5436 68.0311 73.8099 68.3386L88.1889 66.1248C88.5883 66.0787 89.0143 66.1402 89.3072 66.3093L103.739 74.6418C104.032 74.8109 104.192 75.0568 104.059 75.2874L98.8932 86.6331C98.7601 86.8637 98.4405 87.0482 98.0677 87.1097L83.7953 89.3235C83.7953 90.1844 83.2095 91.0145 82.1444 91.6295C80.9727 92.3059 79.4017 92.6288 77.8307 92.5826L73.8632 101.084C73.73 101.315 73.4105 101.499 73.0377 101.561L53.3066 104.62C52.9071 104.666 52.4811 104.605 52.1882 104.436L37.756 96.1032C37.4631 95.9341 37.3033 95.6881 37.4365 95.4575L41.2708 87.1558C40.7649 86.9867 40.259 86.7868 39.8329 86.5409C37.9158 85.434 37.6495 83.7121 39.0874 82.4515L29.0487 76.6557L22.4717 77.9009C22.7912 78.9156 22.2587 79.9917 20.9007 80.7758C18.6906 82.0518 15.1224 82.0518 12.9123 80.7758C10.7022 79.4998 10.7022 77.4397 12.9123 76.1637C15.1224 74.8877 18.6906 74.8877 20.9007 76.1637C21.1669 76.3175 21.4066 76.4866 21.593 76.6557L28.383 75.3797L33.5222 64.3569C33.6553 64.1263 33.9749 63.9418 34.3476 63.8803L53.4663 60.9286L56.3688 56.1474C56.1557 56.0552 55.9693 55.9476 55.7829 55.84ZM20.0314 77.7593C20.0181 77.7307 20.0077 77.7082 19.9687 77.6857C19.8089 77.4705 19.5959 77.286 19.303 77.1169C17.9982 76.3636 15.868 76.3636 14.5633 77.1169C13.2585 77.8702 13.2585 79.1001 14.5633 79.8534C15.868 80.6067 17.9982 80.6067 19.303 79.8534C20.2616 79.2999 20.5012 78.4851 20.0486 77.7933C20.0414 77.781 20.0362 77.7697 20.0314 77.7593ZM62.147 52.1657C60.8422 51.4124 58.712 51.4124 57.4072 52.1657C56.1025 52.919 56.1025 54.1489 57.4072 54.9022C58.712 55.6555 60.8422 55.6555 62.147 54.9022C63.4517 54.1489 63.4517 52.919 62.147 52.1657ZM82.0112 87.0328C82.5172 87.3249 82.9432 87.6631 83.2095 88.0321L83.2361 88.0167L96.7363 85.9413L101.662 75.3182L88.1622 67.5238L74.4223 69.6454C74.4223 69.7991 74.4223 69.9528 74.3957 70.1219C74.3957 70.1527 74.3691 70.1988 74.3691 70.1988C74.2359 70.9214 73.6768 71.6132 72.7714 72.1359C71.5998 72.8123 70.0288 73.1352 68.4577 73.089L66.1145 78.1623L64.7831 81.0218L74.662 86.7253C76.8455 85.7722 80.0142 85.8798 82.0112 87.0328ZM80.3869 87.9706C79.1354 87.248 77.1117 87.2173 75.807 87.9091L75.7803 87.8937L75.5673 88.0167L75.4874 88.0628L75.4076 88.109C74.3691 88.893 74.449 89.9845 75.6472 90.6763C76.0732 90.9223 76.5525 91.076 77.1384 91.1683C78.2833 91.3374 79.5082 91.1529 80.3603 90.661C81.1325 90.2151 81.4787 89.5848 81.2923 88.9545C81.1858 88.5855 80.8662 88.2473 80.3869 87.9706ZM75.5141 92.2598C75.4076 92.229 75.2744 92.1829 75.2744 92.1829L75.301 92.1983C74.875 92.0446 74.4756 91.8755 74.1028 91.6602C72.2655 90.5995 71.946 88.9699 73.1975 87.7246L63.2121 81.9595L49.4722 84.0811C49.5521 84.9881 48.9663 85.9105 47.8213 86.5716C46.6763 87.2327 45.0786 87.5709 43.5076 87.5248L39.833 95.4575L53.3332 103.252L71.7596 100.392L75.5141 92.2598ZM46.1437 82.8973C45.2117 82.3593 43.8537 82.1902 42.6821 82.4361L42.6555 82.4208C42.2028 82.4976 41.7768 82.6514 41.404 82.8666C40.0992 83.6199 40.0992 84.8498 41.404 85.6031C41.83 85.849 42.3093 86.0028 42.8951 86.095C43.4277 86.1873 43.9602 86.1873 44.4928 86.1258C45.1052 86.0489 45.6644 85.8798 46.1171 85.6184C46.9692 85.1265 47.2887 84.4193 46.9958 83.7582C46.8627 83.4354 46.5698 83.1433 46.1437 82.8973ZM62.573 80.6682L48.8331 82.7897L48.8597 82.7436C48.5935 82.4361 48.2207 82.1594 47.7946 81.9134C46.4899 81.1601 44.6526 80.8373 42.9218 81.0064C42.4691 81.0525 42.0164 81.1294 41.5638 81.237C41.319 81.3012 41.0742 81.3869 40.845 81.4672C40.7999 81.483 40.7554 81.4986 40.7117 81.5137L30.6464 75.7025L35.5725 65.0794L54.0255 62.2046L64.0908 68.0158C62.9724 68.9997 62.8925 70.2449 63.7713 71.275C64.0375 71.5824 64.3837 71.8745 64.8097 72.1205C65.2358 72.3665 65.7151 72.5817 66.2476 72.7354L62.573 80.6682ZM72.0525 69.4455C72.0258 69.3994 72.1057 69.2918 72.1057 69.2918C71.9726 68.9689 71.6797 68.6768 71.2536 68.4309C69.9489 67.6776 67.8187 67.6776 66.5139 68.4309C65.5287 68.9997 65.2624 69.8298 65.7683 70.5217C65.9015 70.7523 66.1677 70.9675 66.4873 71.152C66.8867 71.3826 67.3926 71.5517 67.9252 71.6439L67.9518 71.6593C69.0702 71.8438 70.295 71.6593 71.1471 71.1673C71.9193 70.7215 72.2655 70.0605 72.0525 69.4455ZM62.7599 71.0513C62.8747 70.8076 62.7555 70.5469 62.4472 70.3677L53.401 65.107C53.0927 64.9277 52.6422 64.857 52.2191 64.9215L39.8051 66.8143C39.382 66.8788 39.0507 67.0687 38.9359 67.3125L35.568 74.4659C35.4532 74.7097 35.5725 74.9703 35.8807 75.1496L44.9269 80.4102C45.2352 80.5895 45.6857 80.6602 46.1088 80.5957L58.5229 78.7029C58.9459 78.6384 59.2772 78.4485 59.392 78.2048L62.7599 71.0513ZM97.2908 75.4444C97.5991 75.6237 97.7183 75.8843 97.6035 76.1281L94.2356 83.2815C94.1208 83.5253 93.7895 83.7152 93.3665 83.7797L80.9524 85.6724C80.5293 85.737 80.0788 85.6662 79.7705 85.487L70.7244 80.2263C70.4161 80.047 70.2969 79.7864 70.4116 79.5426L73.7795 72.3892C73.8943 72.1454 74.2256 71.9555 74.6487 71.891L87.0627 69.9983C87.4858 69.9338 87.9363 70.0045 88.2446 70.1837L97.2908 75.4444ZM71.9336 90.9486C72.0483 90.7048 71.9291 90.4442 71.6208 90.265L62.5746 85.0043C62.2664 84.825 61.8158 84.7543 61.3928 84.8188L48.9787 86.7116C48.5557 86.7761 48.2243 86.966 48.1096 87.2098L44.7417 94.3632C44.6269 94.607 44.7461 94.8676 45.0544 95.0469L54.1006 100.308C54.4089 100.487 54.8594 100.558 55.2824 100.493L67.6965 98.6002C68.1196 98.5357 68.4509 98.3458 68.5657 98.102L71.9336 90.9486Z" fill="#23B5E9"/>
</g>
<path opacity="0.2" fill-rule="evenodd" clip-rule="evenodd" d="M103.236 37.0586V75.2812L98.2338 86.4949L82.6042 89.8162L81.041 92.5515L76.9382 91.5746L72.6402 100.171L52.9073 104.469L38.8406 96.4589L42.3571 87.6671L38.8406 86.4949L40.208 82.7828L29.8533 76.5309L22.2337 77.8985C20.801 80.5944 16.56 84.5241 12.0726 80.0983C11.5623 79.527 11.2906 78.978 11.2135 78.4675L11.193 78.4719L11.193 78.2682C11.1892 78.1965 11.1893 78.1256 11.193 78.0556L11.1929 40.3132C17.1667 45.8274 21.3787 41.5949 22.1435 39.4988L29.7914 38.1406C33.1621 40.3494 39.8186 44.7671 39.4787 44.7671C39.1388 47.0784 40.8071 48.8566 41.6837 49.4567L37.929 57.8434L37.9326 57.8639L52.9073 66.4436L72.6402 62.8928L76.9382 54.6136C79.0575 54.9021 83.3537 54.7002 83.5846 51.584L98.2338 48.4101L103.236 37.0586Z" fill="url(#paint0_linear_710_30278)"/>
<path fill-rule="evenodd" clip-rule="evenodd" d="M55.7829 17.84C53.5728 16.564 53.5728 14.5039 55.7829 13.2279C57.993 11.9519 61.5612 11.9519 63.7713 13.2279C65.9814 14.5039 65.9814 16.564 63.6914 17.8246C62.2801 18.6394 60.2564 18.9468 58.4191 18.6855L55.6232 23.2822L65.6618 29.078C67.8453 28.2478 70.8276 28.4016 72.7448 29.5084C73.1708 29.7544 73.5436 30.0311 73.8099 30.3386L88.1889 28.1248C88.5883 28.0787 89.0143 28.1402 89.3072 28.3093L103.739 36.6418C104.032 36.8109 104.192 37.0568 104.059 37.2874L98.8932 48.6331C98.7601 48.8637 98.4405 49.0482 98.0677 49.1097L83.7953 51.3235C83.7953 52.1844 83.2095 53.0145 82.1444 53.6295C80.9727 54.3059 79.4017 54.6288 77.8307 54.5826L73.8632 63.0842C73.73 63.3148 73.4105 63.4993 73.0377 63.5608L53.3066 66.6201C52.9071 66.6662 52.4811 66.6047 52.1882 66.4356L37.756 58.1032C37.4631 57.9341 37.3033 57.6881 37.4365 57.4575L41.2708 49.1558C40.7649 48.9867 40.259 48.7868 39.8329 48.5409C37.9158 47.434 37.6495 45.7121 39.0874 44.4515L29.0487 38.6557L22.4717 39.9009C22.7912 40.9156 22.2587 41.9917 20.9007 42.7758C18.6906 44.0518 15.1224 44.0518 12.9123 42.7758C10.7022 41.4998 10.7022 39.4397 12.9123 38.1637C15.1224 36.8877 18.6906 36.8877 20.9007 38.1637C21.1669 38.3175 21.4066 38.4866 21.593 38.6557L28.383 37.3797L33.5222 26.3569C33.6553 26.1263 33.9749 25.9418 34.3476 25.8803L53.4663 22.9286L56.3688 18.1474C56.1557 18.0552 55.9693 17.9476 55.7829 17.84ZM20.0314 39.7593C20.0181 39.7307 20.0077 39.7082 19.9687 39.6857C19.8089 39.4705 19.5959 39.286 19.303 39.1169C17.9982 38.3636 15.868 38.3636 14.5633 39.1169C13.2585 39.8702 13.2585 41.1001 14.5633 41.8534C15.868 42.6067 17.9982 42.6067 19.303 41.8534C20.2616 41.2999 20.5012 40.4851 20.0486 39.7933C20.0414 39.781 20.0362 39.7697 20.0314 39.7593ZM62.147 14.1657C60.8422 13.4124 58.712 13.4124 57.4072 14.1657C56.1025 14.919 56.1025 16.1489 57.4072 16.9022C58.712 17.6555 60.8422 17.6555 62.147 16.9022C63.4517 16.1489 63.4517 14.919 62.147 14.1657ZM82.0112 49.0328C82.5172 49.3249 82.9432 49.6631 83.2095 50.0321L83.2361 50.0167L96.7363 47.9413L101.662 37.3182L88.1622 29.5238L74.4223 31.6454C74.4223 31.7991 74.4223 31.9528 74.3957 32.1219C74.3957 32.1527 74.3691 32.1988 74.3691 32.1988C74.2359 32.9214 73.6768 33.6132 72.7714 34.1359C71.5998 34.8123 70.0288 35.1352 68.4577 35.089L66.1145 40.1623L64.7831 43.0218L74.662 48.7253C76.8455 47.7722 80.0142 47.8798 82.0112 49.0328ZM80.3869 49.9706C79.1354 49.248 77.1117 49.2173 75.807 49.9091L75.7803 49.8937L75.5673 50.0167L75.4874 50.0628L75.4076 50.109C74.3691 50.893 74.449 51.9845 75.6472 52.6763C76.0732 52.9223 76.5525 53.076 77.1384 53.1683C78.2833 53.3374 79.5082 53.1529 80.3603 52.661C81.1325 52.2151 81.4787 51.5848 81.2923 50.9545C81.1858 50.5855 80.8662 50.2473 80.3869 49.9706ZM75.5141 54.2598C75.4076 54.229 75.2744 54.1829 75.2744 54.1829L75.301 54.1983C74.875 54.0446 74.4756 53.8755 74.1028 53.6602C72.2655 52.5995 71.946 50.9699 73.1975 49.7246L63.2121 43.9595L49.4722 46.0811C49.5521 46.9881 48.9663 47.9105 47.8213 48.5716C46.6763 49.2327 45.0786 49.5709 43.5076 49.5248L39.833 57.4575L53.3332 65.2519L71.7596 62.3924L75.5141 54.2598ZM46.1437 44.8973C45.2117 44.3593 43.8537 44.1902 42.6821 44.4361L42.6555 44.4208C42.2028 44.4976 41.7768 44.6514 41.404 44.8666C40.0992 45.6199 40.0992 46.8498 41.404 47.6031C41.83 47.849 42.3093 48.0028 42.8951 48.095C43.4277 48.1873 43.9602 48.1873 44.4928 48.1258C45.1052 48.0489 45.6644 47.8798 46.1171 47.6184C46.9692 47.1265 47.2887 46.4193 46.9958 45.7582C46.8627 45.4354 46.5698 45.1433 46.1437 44.8973ZM62.573 42.6682L48.8331 44.7897L48.8597 44.7436C48.5935 44.4361 48.2207 44.1594 47.7946 43.9134C46.4899 43.1601 44.6526 42.8373 42.9218 43.0064C42.4691 43.0525 42.0164 43.1294 41.5638 43.237C41.319 43.3012 41.0742 43.3869 40.845 43.4672C40.7999 43.483 40.7554 43.4986 40.7117 43.5137L30.6464 37.7025L35.5725 27.0794L54.0255 24.2046L64.0908 30.0158C62.9724 30.9997 62.8925 32.2449 63.7713 33.275C64.0375 33.5824 64.3837 33.8745 64.8097 34.1205C65.2358 34.3665 65.7151 34.5817 66.2476 34.7354L62.573 42.6682ZM72.0525 31.4455C72.0258 31.3994 72.1057 31.2918 72.1057 31.2918C71.9726 30.9689 71.6797 30.6768 71.2536 30.4309C69.9489 29.6776 67.8187 29.6776 66.5139 30.4309C65.5287 30.9997 65.2624 31.8298 65.7683 32.5217C65.9015 32.7523 66.1677 32.9675 66.4873 33.152C66.8867 33.3826 67.3926 33.5517 67.9252 33.6439L67.9518 33.6593C69.0702 33.8438 70.295 33.6593 71.1471 33.1673C71.9193 32.7215 72.2655 32.0605 72.0525 31.4455ZM62.7599 33.0513C62.8747 32.8076 62.7555 32.5469 62.4472 32.3677L53.401 27.107C53.0927 26.9277 52.6422 26.857 52.2191 26.9215L39.8051 28.8143C39.382 28.8788 39.0507 29.0687 38.9359 29.3125L35.568 36.4659C35.4532 36.7097 35.5725 36.9703 35.8807 37.1496L44.9269 42.4102C45.2352 42.5895 45.6857 42.6602 46.1088 42.5957L58.5229 40.7029C58.9459 40.6384 59.2772 40.4485 59.392 40.2048L62.7599 33.0513ZM97.2908 37.4444C97.5991 37.6237 97.7183 37.8843 97.6035 38.1281L94.2356 45.2815C94.1208 45.5253 93.7895 45.7152 93.3665 45.7797L80.9524 47.6724C80.5293 47.737 80.0788 47.6662 79.7705 47.487L70.7244 42.2263C70.4161 42.047 70.2969 41.7864 70.4116 41.5426L73.7795 34.3892C73.8943 34.1454 74.2256 33.9555 74.6487 33.891L87.0627 31.9983C87.4858 31.9338 87.9363 32.0045 88.2446 32.1837L97.2908 37.4444ZM71.9336 52.9486C72.0483 52.7048 71.9291 52.4442 71.6208 52.265L62.5746 47.0043C62.2664 46.825 61.8158 46.7543 61.3928 46.8188L48.9787 48.7116C48.5557 48.7761 48.2243 48.966 48.1096 49.2098L44.7417 56.3632C44.6269 56.607 44.7461 56.8676 45.0544 57.0469L54.1006 62.3075C54.4089 62.4868 54.8594 62.5575 55.2824 62.493L67.6965 60.6002C68.1196 60.5357 68.4509 60.3458 68.5657 60.102L71.9336 52.9486Z" fill="url(#paint1_linear_710_30278)"/>
<defs>
<filter id="filter0_f_710_30278" x="9.25488" y="48.2695" width="96.8516" height="58.3672" filterUnits="userSpaceOnUse" color-interpolation-filters="sRGB">
<feFlood flood-opacity="0" result="BackgroundImageFix"/>
<feBlend mode="normal" in="SourceGraphic" in2="BackgroundImageFix" result="shape"/>
<feGaussianBlur stdDeviation="1" result="effect1_foregroundBlur_710_30278"/>
</filter>
<linearGradient id="paint0_linear_710_30278" x1="57.4588" y1="23.1948" x2="57.4588" y2="104.276" gradientUnits="userSpaceOnUse">
<stop offset="0.317708" stop-color="#B4B4C3"/>
<stop offset="1" stop-color="#B4B4C3" stop-opacity="0"/>
</linearGradient>
<linearGradient id="paint1_linear_710_30278" x1="85.9355" y1="26.0244" x2="60.0001" y2="70.9458" gradientUnits="userSpaceOnUse">
<stop stop-color="#23B5E9"/>
<stop offset="1" stop-color="#00DED0"/>
</linearGradient>
</defs>
</svg>
