<svg width="120" height="120" viewBox="0 0 120 120" fill="none" xmlns="http://www.w3.org/2000/svg">
<g opacity="0.15" filter="url(#filter0_f_710_30381)">
<mask id="mask0_710_30381" style="mask-type:luminance" maskUnits="userSpaceOnUse" x="1" y="45" width="118" height="69">
<path d="M118.512 78.4547L62.0955 45.8828L1.47368 80.8828L57.8899 113.455L118.512 78.4547Z" fill="white"/>
</mask>
<g mask="url(#mask0_710_30381)">
<mask id="mask1_710_30381" style="mask-type:luminance" maskUnits="userSpaceOnUse" x="13" y="56" width="87" height="51">
<path d="M89.7402 62.45C102.163 69.6222 102.507 81.1362 90.4978 88.5622L89.7402 89.0139L77.1733 96.2693L71.7257 104.302C71.453 104.704 71.0404 105.07 70.5116 105.375C68.3942 106.598 64.9597 106.597 62.8433 105.375L48.3149 96.9924C43.2329 99.9265 34.9935 99.9268 29.9109 96.9924C25.0093 94.1625 24.8344 89.6377 29.3857 86.6877L29.9149 86.361L15.4223 77.9966C14.8947 77.692 14.4846 77.3302 14.2123 76.9313C13.1145 75.3232 14.48 73.5041 17.2658 72.8697L31.1605 69.707L43.7305 62.4498C56.4746 55.0919 77.0169 55.1042 89.7402 62.45ZM43.7179 94.3302L34.5119 89.0232C31.9709 90.4903 31.9691 92.8679 34.5119 94.336C36.9044 95.7173 40.6923 95.7972 43.2495 94.5793L43.7179 94.3302ZM85.1392 65.1064C74.9556 59.2269 58.5325 59.2166 48.3312 65.1064L34.8054 72.9154L21.192 76.0149L66.2695 102.04L71.6104 94.1683L85.0999 86.3801L85.7784 85.9742C95.3558 80.0515 95.0804 70.8459 85.1392 65.1064Z" fill="#23B5E9"/>
<path d="M31.4451 71.3124L17.6421 75.7397L19.1758 76.6251L26.8441 81.0525L66.7194 104.074L72.8541 96.9908C73.8777 95.2204 77.7618 90.9696 85.1234 88.1362C94.3254 84.5943 105.061 73.0833 88.1908 63.3432C74.6945 55.5511 54.9614 59.5061 46.7818 62.4577L31.4451 71.3124Z" fill="#23B5E9"/>
<path d="M31.4456 94.3324L32.9792 86.3633L48.3159 95.2179L37.5802 97.8743L31.4456 94.3324Z" fill="#23B5E9"/>
<path d="M31.4451 71.3124L17.6421 75.7397L19.1758 76.6251L26.8441 81.0525L66.7194 104.074L72.8541 96.9908C73.8777 95.2204 77.7618 90.9696 85.1234 88.1362C94.3254 84.5943 105.061 73.0833 88.1908 63.3432C74.6945 55.5511 54.9614 59.5061 46.7818 62.4577L31.4451 71.3124Z" fill="#23B5E9"/>
</mask>
<g mask="url(#mask1_710_30381)">
<path fill-rule="evenodd" clip-rule="evenodd" d="M119.627 79.0968L60.3533 44.875L-4.51604 82.3273L54.7578 116.549L119.627 79.0968ZM47.3361 98.0195L27.5782 86.6122L28.9642 85.812L48.7222 97.2192L47.3361 98.0195Z" fill="#23B5E9"/>
</g>
</g>
</g>
<path opacity="0.2" d="M14.0664 75.1615L14.0664 54.3607L99.391 52.7813L97.8109 70.2454C101.322 81.7625 84.9947 92.9518 76.392 97.1069C72.4593 105.674 67.1456 106.529 64.9803 105.885L45.8437 97.1069C42.742 98.7455 35.0991 101.04 29.3405 97.1069C23.582 93.1742 26.9411 87.7434 29.3405 85.5196L14.0664 75.1615Z" fill="url(#paint0_linear_710_30381)"/>
<mask id="mask2_710_30381" style="mask-type:luminance" maskUnits="userSpaceOnUse" x="1" y="24" width="118" height="69">
<path d="M118.512 57.1188L62.0955 24.5469L1.47368 59.5469L57.8899 92.1188L118.512 57.1188Z" fill="white"/>
</mask>
<g mask="url(#mask2_710_30381)">
<mask id="mask3_710_30381" style="mask-type:luminance" maskUnits="userSpaceOnUse" x="13" y="35" width="87" height="50">
<path d="M89.7402 41.114C102.163 48.2863 102.507 59.8003 90.4978 67.2263L89.7402 67.6779L77.1733 74.9334L71.7257 82.9663C71.453 83.3681 71.0404 83.7338 70.5116 84.0391C68.3942 85.2616 64.9597 85.2611 62.8433 84.0391L48.3149 75.6565C43.2329 78.5905 34.9935 78.5909 29.9109 75.6565C25.0093 72.8265 24.8344 68.3018 29.3857 65.3518L29.9149 65.0251L15.4223 56.6606C14.8947 56.356 14.4846 55.9942 14.2123 55.5954C13.1145 53.9872 14.48 52.1681 17.2658 51.5338L31.1605 48.3711L43.7305 41.1138C56.4746 33.756 77.0169 33.7682 89.7402 41.114ZM43.7179 72.9942L34.5119 67.6873C31.9709 69.1543 31.9691 71.532 34.5119 73.0001C36.9044 74.3814 40.6923 74.4613 43.2495 73.2434L43.7179 72.9942ZM85.1392 43.7704C74.9556 37.8909 58.5325 37.8807 48.3312 43.7704L34.8054 51.5795L21.192 54.679L66.2695 80.7045L71.6104 72.8324L85.0999 65.0442L85.7784 64.6383C95.3558 58.7156 95.0804 49.51 85.1392 43.7704Z" fill="white"/>
<path d="M31.4451 49.9764L17.6421 54.4037L19.1758 55.2892L26.8441 59.7165L66.7194 82.7386L72.8541 75.6548C73.8777 73.8845 77.7618 69.6337 85.1234 66.8002C94.3254 63.2584 105.061 51.7473 88.1908 42.0073C74.6945 34.2152 54.9614 38.1702 46.7818 41.1218L31.4451 49.9764Z" fill="white"/>
<path d="M31.4456 72.9965L32.9792 65.0273L48.3159 73.882L37.5802 76.5384L31.4456 72.9965Z" fill="white"/>
<path d="M31.4451 49.9764L17.6421 54.4037L19.1758 55.2892L26.8441 59.7165L66.7194 82.7386L72.8541 75.6548C73.8777 73.8845 77.7618 69.6337 85.1234 66.8002C94.3254 63.2584 105.061 51.7473 88.1908 42.0073C74.6945 34.2152 54.9614 38.1702 46.7818 41.1218L31.4451 49.9764Z" stroke="white"/>
</mask>
<g mask="url(#mask3_710_30381)">
<path fill-rule="evenodd" clip-rule="evenodd" d="M119.627 57.7608L60.3533 23.5391L-4.51604 60.9914L54.7578 95.2131L119.627 57.7608ZM47.3361 76.6836L27.5782 65.2763L28.9642 64.476L48.7222 75.8833L47.3361 76.6836Z" fill="url(#paint1_linear_710_30381)"/>
</g>
</g>
<defs>
<filter id="filter0_f_710_30381" x="11.833" y="54.9375" width="89.4526" height="53.3555" filterUnits="userSpaceOnUse" color-interpolation-filters="sRGB">
<feFlood flood-opacity="0" result="BackgroundImageFix"/>
<feBlend mode="normal" in="SourceGraphic" in2="BackgroundImageFix" result="shape"/>
<feGaussianBlur stdDeviation="1" result="effect1_foregroundBlur_710_30381"/>
</filter>
<linearGradient id="paint0_linear_710_30381" x1="56.9566" y1="41.8251" x2="56.9566" y2="105.901" gradientUnits="userSpaceOnUse">
<stop offset="0.317708" stop-color="#B4B4C3"/>
<stop offset="1" stop-color="#B4B4C3" stop-opacity="0"/>
</linearGradient>
<linearGradient id="paint1_linear_710_30381" x1="89.9902" y1="40.6499" x2="57.5555" y2="96.8284" gradientUnits="userSpaceOnUse">
<stop stop-color="#23B5E9"/>
<stop offset="1" stop-color="#00DED0"/>
</linearGradient>
</defs>
</svg>
