<svg width="120" height="120" viewBox="0 0 120 120" fill="none" xmlns="http://www.w3.org/2000/svg">
<g clip-path="url(#clip0_710_30349)">
<g opacity="0.15" filter="url(#filter0_f_710_30349)">
<path fill-rule="evenodd" clip-rule="evenodd" d="M29.9711 62.0859C46.7112 52.421 73.8528 52.421 90.5929 62.0859C107.333 71.7508 107.333 87.421 90.5929 97.0859C73.8528 106.751 46.7112 106.751 29.9711 97.0859C13.231 87.421 13.231 71.7508 29.9711 62.0859ZM85.5315 81.1312C86.5448 80.8388 87.1847 80.2408 87.1847 79.587C87.1847 78.9328 86.5445 78.335 85.5316 78.0424L61.6211 71.1401C60.7791 70.8972 59.7879 70.8972 58.9462 71.1403L35.0357 78.0426C34.0225 78.335 33.3826 78.933 33.3826 79.5868C33.3826 80.241 34.0228 80.8388 35.0357 81.1314L58.9462 88.0337C59.7882 88.2766 60.7794 88.2766 61.6211 88.0335L85.5315 81.1312ZM43.0605 79.587L60.2835 74.6151L77.5067 79.5868L60.2838 84.5587L43.0605 79.587Z" fill="#23B5E9"/>
</g>
<path opacity="0.2" d="M103.313 81.7852V56.0391L60.3869 68.61L17.4611 57.4825V78.7192C17.2205 87.3766 25.072 104.691 58.4029 104.691C91.7337 104.691 102.231 89.4205 103.313 81.7852Z" fill="url(#paint0_linear_710_30349)"/>
<path fill-rule="evenodd" clip-rule="evenodd" d="M29.9711 39.9141C46.7112 30.2492 73.8528 30.2492 90.5929 39.9141C107.333 49.579 107.333 65.2492 90.5929 74.9141C73.8528 84.579 46.7112 84.579 29.9711 74.9141C13.231 65.2492 13.231 49.579 29.9711 39.9141ZM85.5315 58.9593C86.5448 58.6669 87.1847 58.0689 87.1847 57.4151C87.1847 56.761 86.5445 56.1632 85.5316 55.8706L61.6211 48.9682C60.7791 48.7253 59.7879 48.7253 58.9462 48.9684L35.0357 55.8707C34.0225 56.1632 33.3826 56.7611 33.3826 57.4149C33.3826 58.0691 34.0228 58.6669 35.0357 58.9595L58.9462 65.8618C59.7882 66.1047 60.7794 66.1047 61.6211 65.8617L85.5315 58.9593ZM43.0605 57.4151L60.2835 52.4432L77.5067 57.4149L60.2838 62.3869L43.0605 57.4151Z" fill="url(#paint1_linear_710_30349)"/>
</g>
<defs>
<filter id="filter0_f_710_30349" x="15.416" y="52.8359" width="89.7319" height="53.5" filterUnits="userSpaceOnUse" color-interpolation-filters="sRGB">
<feFlood flood-opacity="0" result="BackgroundImageFix"/>
<feBlend mode="normal" in="SourceGraphic" in2="BackgroundImageFix" result="shape"/>
<feGaussianBlur stdDeviation="1" result="effect1_foregroundBlur_710_30349"/>
</filter>
<linearGradient id="paint0_linear_710_30349" x1="60.6135" y1="46.0331" x2="60.6135" y2="104.552" gradientUnits="userSpaceOnUse">
<stop offset="0.317708" stop-color="#B4B4C3"/>
<stop offset="1" stop-color="#B4B4C3" stop-opacity="0"/>
</linearGradient>
<linearGradient id="paint1_linear_710_30349" x1="90.5929" y1="39.9141" x2="60.282" y2="92.4141" gradientUnits="userSpaceOnUse">
<stop stop-color="#23B5E9"/>
<stop offset="1" stop-color="#00DED0"/>
</linearGradient>
<clipPath id="clip0_710_30349">
<rect width="120" height="120" fill="white"/>
</clipPath>
</defs>
</svg>
