<svg width="120" height="120" viewBox="0 0 120 120" fill="none" xmlns="http://www.w3.org/2000/svg">
<g opacity="0.15" filter="url(#filter0_f_710_30334)">
<path fill-rule="evenodd" clip-rule="evenodd" d="M73.3389 48.1257L93.8836 59.9872L74.8317 70.9868C73.6829 71.65 73.6829 72.7252 74.8317 73.3885L93.7772 84.3267L61.9135 102.723C59.8908 103.891 57.1477 104.547 54.287 104.547C51.4268 104.547 48.6834 103.891 46.6607 102.723L12.7171 83.1257C10.6944 81.9579 9.55839 80.3741 9.55809 78.7227C9.55839 77.0712 10.6944 75.4874 12.7171 74.3197L58.0864 48.1257C60.1091 46.9579 62.8522 46.302 65.7126 46.3018C68.5731 46.302 71.3162 46.9579 73.3389 48.1257ZM96.7186 63.1538L96.7189 81.2217L81.0715 72.1876L96.7186 63.1538ZM56.5357 89.4995L69.1814 82.1985C69.5106 82.0477 69.7807 81.8585 69.9743 81.6431C70.1677 81.4278 70.2805 81.1912 70.3047 80.949C70.329 80.7068 70.2638 80.4644 70.1141 80.2376C69.9647 80.011 69.7334 79.805 69.4363 79.6335C69.1393 79.462 68.7828 79.3287 68.39 79.2422C67.9972 79.1558 67.5777 79.1183 67.1579 79.1322C66.7384 79.1462 66.3286 79.2113 65.9557 79.3229C65.5826 79.4347 65.255 79.5907 64.994 79.7809L52.3483 87.0819C52.0188 87.2326 51.7484 87.4219 51.555 87.6372C51.3613 87.8526 51.2489 88.089 51.2246 88.3312C51.2007 88.5736 51.2653 88.816 51.415 89.0428C51.5647 89.2696 51.7957 89.4754 52.0927 89.6469C52.3898 89.8184 52.7466 89.9519 53.1391 90.0382C53.5319 90.1246 53.952 90.1621 54.3715 90.1481C54.791 90.1341 55.2005 90.0691 55.5736 89.9573C55.9465 89.8457 56.2744 89.6896 56.5357 89.4995ZM39.925 82.1829C41.5873 83.1426 43.8415 83.6818 46.1924 83.6818C48.543 83.6816 50.7976 83.1426 52.4598 82.1829L56.6473 79.7653C58.3095 78.8056 59.2431 77.504 59.2434 76.1468C59.2434 74.7895 58.3095 73.4881 56.6473 72.5284C54.985 71.5687 52.7308 71.0295 50.3799 71.0295C48.029 71.0295 45.7747 71.5687 44.1125 72.5284L39.925 74.946C38.2628 75.9057 37.3289 77.2072 37.3289 78.5645C37.3289 79.9218 38.2628 81.2232 39.925 82.1829ZM48.2999 74.946C48.8728 74.6835 49.593 74.5519 50.3232 74.5762C51.0537 74.6004 51.7427 74.7787 52.2601 75.0774C52.7772 75.376 53.086 75.7737 53.1279 76.1955C53.17 76.6171 52.9421 77.0329 52.4874 77.3636L48.2999 79.7812C47.7271 80.0437 47.0069 80.1753 46.2767 80.151C45.5462 80.1269 44.8572 79.9485 44.3401 79.65C43.8227 79.3513 43.5139 78.9535 43.472 78.5317C43.4299 78.1102 43.6578 77.6944 44.1125 77.3636L48.2999 74.946Z" fill="#23B5E9"/>
</g>
<path opacity="0.2" d="M9.54858 79.9844V47.1465L93.3253 28.6484L96.4396 32.4031L97.0521 63.9383V79.9844C90.3355 84.8351 74.7005 95.7679 65.8942 100.693C57.0879 105.619 51.1549 104.985 49.2891 104.052L9.54858 79.9844Z" fill="url(#paint0_linear_710_30334)"/>
<path fill-rule="evenodd" clip-rule="evenodd" d="M73.3389 17.2819L93.8836 29.1434L74.8317 40.143C73.6829 40.8063 73.6829 41.8815 74.8317 42.5447L93.7772 53.4829L61.9135 71.8795C59.8908 73.0472 57.1477 73.7031 54.287 73.7031C51.4268 73.7031 48.6834 73.0471 46.6607 71.8793L12.7171 52.2819C10.6944 51.1141 9.55839 49.5304 9.55809 47.8789C9.55839 46.2274 10.6944 44.6437 12.7171 43.4759L58.0864 17.2819C60.1091 16.1141 62.8522 15.4582 65.7126 15.4581C68.5731 15.4582 71.3162 16.1141 73.3389 17.2819ZM96.7186 32.31L96.7189 50.3779L81.0715 41.3439L96.7186 32.31ZM56.5357 58.6558L69.1814 51.3548C69.5106 51.2039 69.7807 51.0147 69.9743 50.7993C70.1677 50.5841 70.2805 50.3475 70.3047 50.1053C70.329 49.8631 70.2638 49.6207 70.1141 49.3939C69.9647 49.1673 69.7334 48.9613 69.4363 48.7898C69.1393 48.6183 68.7828 48.4849 68.39 48.3985C67.9972 48.312 67.5777 48.2746 67.1579 48.2884C66.7384 48.3024 66.3286 48.3675 65.9557 48.4792C65.5826 48.591 65.255 48.7469 64.994 48.9371L52.3483 56.2381C52.0188 56.3888 51.7484 56.5782 51.555 56.7934C51.3613 57.0088 51.2489 57.2453 51.2246 57.4875C51.2007 57.7298 51.2653 57.9722 51.415 58.199C51.5647 58.4258 51.7957 58.6316 52.0927 58.8031C52.3898 58.9746 52.7466 59.1081 53.1391 59.1944C53.5319 59.2809 53.952 59.3183 54.3715 59.3043C54.791 59.2903 55.2005 59.2254 55.5736 59.1136C55.9465 59.0019 56.2744 58.8458 56.5357 58.6558ZM39.925 51.3392C41.5873 52.2989 43.8415 52.8381 46.1924 52.8381C48.543 52.8379 50.7976 52.2989 52.4598 51.3392L56.6473 48.9216C58.3095 47.9619 59.2431 46.6602 59.2434 45.3031C59.2434 43.9458 58.3095 42.6443 56.6473 41.6846C54.985 40.7249 52.7308 40.1857 50.3799 40.1857C48.029 40.1857 45.7747 40.7249 44.1125 41.6846L39.925 44.1022C38.2628 45.0619 37.3289 46.3634 37.3289 47.7207C37.3289 49.078 38.2628 50.3795 39.925 51.3392ZM48.2999 44.1022C48.8728 43.8397 49.593 43.7081 50.3232 43.7325C51.0537 43.7566 51.7427 43.9349 52.2601 44.2337C52.7772 44.5322 53.086 44.93 53.1279 45.3517C53.17 45.7733 52.9421 46.1891 52.4874 46.5199L48.2999 48.9375C47.7271 49.2 47.0069 49.3316 46.2767 49.3073C45.5462 49.2831 44.8572 49.1048 44.3401 48.8062C43.8227 48.5075 43.5139 48.1097 43.472 47.688C43.4299 47.2664 43.6578 46.8506 44.1125 46.5199L48.2999 44.1022Z" fill="url(#paint1_linear_710_30334)"/>
<defs>
<filter id="filter0_f_710_30334" x="7.55811" y="44.3008" width="91.1606" height="62.2461" filterUnits="userSpaceOnUse" color-interpolation-filters="sRGB">
<feFlood flood-opacity="0" result="BackgroundImageFix"/>
<feBlend mode="normal" in="SourceGraphic" in2="BackgroundImageFix" result="shape"/>
<feGaussianBlur stdDeviation="1" result="effect1_foregroundBlur_710_30334"/>
</filter>
<linearGradient id="paint0_linear_710_30334" x1="53.534" y1="13.0079" x2="53.534" y2="104.481" gradientUnits="userSpaceOnUse">
<stop offset="0.317708" stop-color="#B4B4C3"/>
<stop offset="1" stop-color="#B4B4C3" stop-opacity="0"/>
</linearGradient>
<linearGradient id="paint1_linear_710_30334" x1="90.3108" y1="27.0807" x2="59.9999" y2="79.5807" gradientUnits="userSpaceOnUse">
<stop stop-color="#23B5E9"/>
<stop offset="1" stop-color="#00DED0"/>
</linearGradient>
</defs>
</svg>
