<svg width="120" height="120" viewBox="0 0 120 120" fill="none" xmlns="http://www.w3.org/2000/svg">
<g opacity="0.15" filter="url(#filter0_f_710_30268)">
<path d="M72.3511 78.2946C72.3523 74.9479 67.6147 72.2126 61.815 72.2116C55.9902 72.2286 51.2793 74.9484 51.2502 78.3112C51.252 81.6596 55.9896 84.3949 61.7862 84.3942C67.6138 84.3791 72.3247 81.6593 72.3511 78.2946ZM86.1219 83.252C87.2928 82.5759 89.1342 82.5768 90.3042 83.2523L97.4121 87.3561C98.3596 86.809 99.3075 86.2618 100.2 85.7149C101.873 84.7493 103.376 83.8148 104.881 82.9457C106.052 82.2697 106.082 81.1605 104.882 80.4675C95.7126 75.1738 91.3645 69.6377 91.1975 63.0071C91.1693 62.0574 89.8568 61.2996 88.2149 61.2851C76.7274 61.1869 67.1385 58.6766 57.9695 53.3828C56.7692 52.6898 54.8481 52.707 53.6772 53.383C52.1719 54.2521 50.5806 55.1358 48.8808 56.0857C47.9336 56.6011 46.9858 57.1483 46.0382 57.6953L53.2007 61.8306C54.3464 62.4921 54.3722 63.5692 53.2013 64.2452C52.0307 64.9211 50.1651 64.9062 49.0193 64.2447L41.8569 60.1095C40.4911 60.898 39.1237 61.7504 37.8149 62.6041L46.1504 67.4166C47.2931 68.0763 47.3189 69.1535 46.1483 69.8293C44.9774 70.5053 43.112 70.4903 41.9693 69.8305L33.9976 65.228C32.7703 66.1291 31.5979 67.0615 30.483 68.0272L39.7945 73.4032C40.9645 74.0787 40.966 75.1418 39.7951 75.8178C38.6245 76.4936 36.7831 76.4928 35.6131 75.8173L27.4444 71.101C21.6759 77.6199 19.753 85.5866 27.6417 95.6131L48.2694 83.7036C46.4286 82.1904 45.3699 80.3237 45.3402 78.3108C45.3402 73.0643 52.7272 68.7994 61.8144 68.7994C70.8737 68.8155 78.2332 73.0645 78.2611 78.2949C78.2611 83.5414 70.8741 87.8063 61.7869 87.8063C58.3035 87.7909 55.0703 87.1797 52.4493 86.1169L31.8494 98.0102C49.1308 102.516 62.9017 101.422 74.1928 98.0913L66.0513 93.3908C64.9086 92.731 64.9107 91.6378 66.0534 90.978C67.1964 90.3181 69.0899 90.3169 70.2327 90.9766L79.5169 96.3369C81.1894 95.6932 82.8044 95.0163 84.3402 94.3256L76.4509 89.7385C75.2779 89.0613 75.307 87.984 76.45 87.324C77.5927 86.6643 79.459 86.6473 80.632 87.3246L88.9099 92.1038C90.3885 91.3482 91.8649 90.5587 93.2307 89.7702L86.1228 85.6664C84.9528 84.9909 84.9792 83.9117 86.1219 83.252ZM72.3511 78.2946C72.3523 74.9479 67.6147 72.2126 61.815 72.2116C55.9902 72.2286 51.2793 74.9484 51.2502 78.3112C51.252 81.6596 55.9896 84.3949 61.7862 84.3942C67.6138 84.3791 72.3247 81.6593 72.3511 78.2946ZM72.3511 78.2946C72.3523 74.9479 67.6147 72.2126 61.815 72.2116C55.9902 72.2286 51.2793 74.9484 51.2502 78.3112C51.252 81.6596 55.9896 84.3949 61.7862 84.3942C67.6138 84.3791 72.3247 81.6593 72.3511 78.2946ZM72.3511 78.2946C72.3523 74.9479 67.6147 72.2126 61.815 72.2116C55.9902 72.2286 51.2793 74.9484 51.2502 78.3112C51.252 81.6596 55.9896 84.3949 61.7862 84.3942C67.6138 84.3791 72.3247 81.6593 72.3511 78.2946Z" fill="#23B5E9"/>
</g>
<path opacity="0.2" d="M105.675 82.5039V43.0742C100.775 46.5604 87.4193 54.7471 73.1992 59.6049C55.424 65.6772 29.2567 60.0765 28.3056 57.5204C23.3718 52.2894 22.4866 46.5236 22.1921 43.0742V81.7963C22.1921 91.6002 30.3035 96.9809 34.3592 98.4458C58.7494 110.459 92.0658 92.8233 105.675 82.5039Z" fill="url(#paint0_linear_710_30268)"/>
<path d="M72.3511 39.7047C72.3523 36.358 67.6147 33.6228 61.815 33.6217C55.9902 33.6387 51.2793 36.3586 51.2502 39.7214C51.252 43.0698 55.9896 45.805 61.7862 45.8043C67.6138 45.7893 72.3247 43.0694 72.3511 39.7047ZM86.1219 44.6621C87.2928 43.9861 89.1342 43.987 90.3042 44.6625L97.4121 48.7662C98.3596 48.2192 99.3075 47.6719 100.2 47.1251C101.873 46.1594 103.376 45.2249 104.881 44.3559C106.052 43.6799 106.082 42.5707 104.882 41.8777C95.7126 36.584 91.3645 31.0478 91.1975 24.4173C91.1693 23.4675 89.8568 22.7098 88.2149 22.6953C76.7274 22.5971 67.1385 20.0867 57.9695 14.793C56.7692 14.1 54.8481 14.1171 53.6772 14.7932C52.1719 15.6622 50.5806 16.546 48.8808 17.4959C47.9336 18.0112 46.9858 18.5585 46.0382 19.1055L53.2007 23.2407C54.3464 23.9022 54.3722 24.9794 53.2013 25.6554C52.0307 26.3312 50.1651 26.3164 49.0193 25.6549L41.8569 21.5196C40.4911 22.3082 39.1237 23.1606 37.8149 24.0142L46.1504 28.8267C47.2931 29.4865 47.3189 30.5636 46.1483 31.2395C44.9774 31.9155 43.112 31.9004 41.9693 31.2407L33.9976 26.6382C32.7703 27.5393 31.5979 28.4717 30.483 29.4373L39.7945 34.8133C40.9645 35.4888 40.966 36.5519 39.7951 37.228C38.6245 37.9038 36.7831 37.9029 35.6131 37.2274L27.4444 32.5112C21.6759 39.0301 19.753 46.9968 27.6417 57.0232L48.2694 45.1138C46.4286 43.6006 45.3699 41.7338 45.3402 39.721C45.3402 34.4745 52.7272 30.2096 61.8144 30.2096C70.8737 30.2257 78.2332 34.4747 78.2611 39.7051C78.2611 44.9516 70.8741 49.2165 61.7869 49.2165C58.3035 49.2011 55.0703 48.5898 52.4493 47.527L31.8494 59.4204C49.1308 63.9259 62.9017 62.8318 74.1928 59.5014L66.0513 54.8009C64.9086 54.1412 64.9107 53.0479 66.0534 52.3882C67.1964 51.7283 69.0899 51.727 70.2327 52.3868L79.5169 57.747C81.1894 57.1034 82.8044 56.4265 84.3402 55.7358L76.4509 51.1487C75.2779 50.4714 75.307 49.3941 76.45 48.7342C77.5927 48.0744 79.459 48.0575 80.632 48.7347L88.9099 53.514C90.3885 52.7583 91.8649 51.9689 93.2307 51.1804L86.1228 47.0766C84.9528 46.4011 84.9792 45.3219 86.1219 44.6621ZM72.3511 39.7047C72.3523 36.358 67.6147 33.6228 61.815 33.6217C55.9902 33.6387 51.2793 36.3586 51.2502 39.7214C51.252 43.0698 55.9896 45.805 61.7862 45.8043C67.6138 45.7893 72.3247 43.0694 72.3511 39.7047ZM72.3511 39.7047C72.3523 36.358 67.6147 33.6228 61.815 33.6217C55.9902 33.6387 51.2793 36.3586 51.2502 39.7214C51.252 43.0698 55.9896 45.805 61.7862 45.8043C67.6138 45.7893 72.3247 43.0694 72.3511 39.7047ZM72.3511 39.7047C72.3523 36.358 67.6147 33.6228 61.815 33.6217C55.9902 33.6387 51.2793 36.3586 51.2502 39.7214C51.252 43.0698 55.9896 45.805 61.7862 45.8043C67.6138 45.7893 72.3247 43.0694 72.3511 39.7047Z" fill="url(#paint1_linear_710_30268)"/>
<defs>
<filter id="filter0_f_710_30268" x="20.4014" y="50.8711" width="87.3694" height="52.1289" filterUnits="userSpaceOnUse" color-interpolation-filters="sRGB">
<feFlood flood-opacity="0" result="BackgroundImageFix"/>
<feBlend mode="normal" in="SourceGraphic" in2="BackgroundImageFix" result="shape"/>
<feGaussianBlur stdDeviation="1" result="effect1_foregroundBlur_710_30268"/>
</filter>
<linearGradient id="paint0_linear_710_30268" x1="64.1566" y1="30.856" x2="64.1566" y2="102.313" gradientUnits="userSpaceOnUse">
<stop offset="0.317708" stop-color="#B4B4C3"/>
<stop offset="1" stop-color="#B4B4C3" stop-opacity="0"/>
</linearGradient>
<linearGradient id="paint1_linear_710_30268" x1="90.311" y1="23.2054" x2="60.0001" y2="75.7054" gradientUnits="userSpaceOnUse">
<stop stop-color="#23B5E9"/>
<stop offset="1" stop-color="#00DED0"/>
</linearGradient>
</defs>
</svg>
