<svg width="120" height="120" viewBox="0 0 120 120" fill="none" xmlns="http://www.w3.org/2000/svg">
<g clip-path="url(#clip0_710_30256)">
<g opacity="0.15" filter="url(#filter0_f_710_30256)">
<path fill-rule="evenodd" clip-rule="evenodd" d="M75.6872 49.1514C71.4922 46.7294 65.8028 45.3689 59.8703 45.3689C53.9379 45.3689 48.2486 46.7294 44.0535 49.1514L15.0654 65.8877C10.8704 68.3097 8.514 71.5944 8.514 75.0195C8.514 78.4446 10.8704 81.7294 15.0654 84.1514L44.0535 100.888C48.2486 103.31 53.9379 104.67 59.8704 104.67C65.8028 104.67 71.4922 103.31 75.6872 100.888L104.675 84.1514C108.87 81.7294 111.227 78.4446 111.227 75.0195C111.227 71.5944 108.87 68.3097 104.675 65.8877L75.6872 49.1514ZM52.3266 70.6183C52.9552 72.4425 54.5065 74.1183 56.7847 75.4336C59.1411 76.794 62.1452 77.6948 65.3788 78.0353L65.3788 82.3998C65.376 82.6215 65.4506 82.8413 65.5973 83.0461C65.744 83.2512 65.9601 83.4369 66.2329 83.593C66.499 83.7536 66.8203 83.8807 67.1759 83.9655C67.532 84.0504 67.9149 84.0915 68.2995 84.0861C68.6848 84.0891 69.0667 84.0474 69.4231 83.9638C69.7799 83.88 70.1039 83.7559 70.3761 83.5987C70.6483 83.4416 70.8632 83.2545 71.0084 83.0485C71.1533 82.8427 71.2254 82.6222 71.2203 82.3998L71.2203 78.036C74.4563 77.6958 77.4628 76.7951 79.821 75.4336C82.0992 74.1183 83.6505 72.4425 84.2791 70.6183C84.9074 68.7939 84.5849 66.9032 83.3522 65.1845C82.1192 63.466 80.0313 61.9974 77.3528 60.964C74.6739 59.9305 71.5246 59.3789 68.3029 59.3791C65.0814 59.3791 61.9318 59.9305 59.2532 60.9639C56.5744 61.9974 54.4868 63.4662 53.2538 65.1847C52.0211 66.903 51.6982 68.7939 52.3266 70.6183ZM69.0828 74.7964C69.5035 74.7782 69.9236 74.7453 70.3403 74.6975C72.3663 74.4648 74.2271 73.8906 75.6878 73.0473C77.6465 71.9164 78.7468 70.3827 78.7468 68.7836C78.7468 67.1844 77.6465 65.6507 75.6878 64.5199C74.2271 63.6766 72.3663 63.1024 70.3403 62.8696C68.3147 62.6371 66.2147 62.7564 64.3064 63.2128C62.398 63.6692 60.7667 64.442 59.6194 65.4337C58.4718 66.4253 57.8592 67.591 57.8589 68.7836C57.8592 69.9762 58.4718 71.1419 59.6194 72.1334C60.767 73.125 62.398 73.898 64.3064 74.3544C65.3348 74.6002 66.4193 74.7483 67.5178 74.7962C67.7715 74.7555 68.0349 74.7346 68.2995 74.7348C68.5647 74.7346 68.8284 74.7556 69.0828 74.7964ZM36.6428 71.7273L65.5761 88.4319C66.7173 89.0908 66.7173 90.1593 65.5761 90.8182C64.4346 91.4772 62.5841 91.4771 61.4429 90.8182L32.5096 74.1136C31.3681 73.4545 31.3681 72.3863 32.5096 71.7273C33.6508 71.0684 35.5013 71.0682 36.6428 71.7273ZM28.4037 76.4841L49.0703 88.416C50.2115 89.0748 50.2118 90.1432 49.0703 90.8023C47.9291 91.4611 46.0783 91.4611 44.9371 90.8023L24.2705 78.8704C23.129 78.2114 23.1293 77.143 24.2705 76.4841C25.412 75.8251 27.2622 75.8251 28.4037 76.4841Z" fill="#23B5E9"/>
</g>
<path opacity="0.2" d="M110.938 46.7227V75.4329C110.938 75.4329 110.938 82.416 88.7341 93.3128C68.1458 107.415 60.5068 104.945 60.5068 104.945C59.5729 104.447 51.1663 106.359 35.8517 95.4189C9.53764 82.6445 10.5911 80.3827 9.15918 76.3979L9.70262 46.7227L60.5068 64.0397L110.938 46.7227Z" fill="url(#paint0_linear_710_30256)"/>
<path fill-rule="evenodd" clip-rule="evenodd" d="M75.6872 19.1162C71.4922 16.6942 65.8028 15.3338 59.8703 15.3338C53.9379 15.3338 48.2486 16.6942 44.0535 19.1162L15.0654 35.8525C10.8704 38.2745 8.514 41.5593 8.514 44.9844C8.514 48.4095 10.8704 51.6942 15.0654 54.1162L44.0535 70.8525C48.2486 73.2745 53.9379 74.635 59.8704 74.635C65.8028 74.635 71.4922 73.2745 75.6872 70.8525L104.675 54.1162C108.87 51.6942 111.227 48.4095 111.227 44.9844C111.227 41.5593 108.87 38.2745 104.675 35.8525L75.6872 19.1162ZM52.3266 40.5831C52.9552 42.4073 54.5065 44.0831 56.7847 45.3984C59.1411 46.7589 62.1452 47.6596 65.3788 48.0002L65.3788 52.3647C65.376 52.5864 65.4506 52.8062 65.5973 53.0109C65.744 53.216 65.9601 53.4017 66.2329 53.5578C66.499 53.7185 66.8203 53.8455 67.1759 53.9304C67.532 54.0153 67.9149 54.0564 68.2995 54.051C68.6848 54.0539 69.0667 54.0123 69.4231 53.9286C69.7799 53.8448 70.1039 53.7207 70.3761 53.5636C70.6483 53.4064 70.8632 53.2194 71.0084 53.0134C71.1533 52.8076 71.2254 52.5871 71.2203 52.3647L71.2203 48.0009C74.4563 47.6607 77.4628 46.7599 79.821 45.3984C82.0992 44.0831 83.6505 42.4073 84.2791 40.5831C84.9074 38.7587 84.5849 36.868 83.3522 35.1494C82.1192 33.4309 80.0313 31.9623 77.3528 30.9289C74.6739 29.8953 71.5246 29.3438 68.3029 29.3439C65.0814 29.3439 61.9318 29.8954 59.2532 30.9287C56.5744 31.9623 54.4868 33.4311 53.2538 35.1496C52.0211 36.8679 51.6982 38.7588 52.3266 40.5831ZM69.0828 44.7613C69.5035 44.7431 69.9236 44.7102 70.3403 44.6624C72.3663 44.4296 74.2271 43.8555 75.6878 43.0121C77.6465 41.8813 78.7468 40.3476 78.7468 38.7484C78.7468 37.1493 77.6465 35.6156 75.6878 34.4847C74.2271 33.6414 72.3663 33.0672 70.3403 32.8345C68.3147 32.6019 66.2147 32.7212 64.3064 33.1776C62.398 33.634 60.7667 34.4069 59.6194 35.3986C58.4718 36.3901 57.8592 37.5558 57.8589 38.7484C57.8592 39.941 58.4718 41.1067 59.6194 42.0983C60.767 43.0898 62.398 43.8628 64.3064 44.3192C65.3348 44.5651 66.4193 44.7131 67.5178 44.7611C67.7715 44.7203 68.0349 44.6995 68.2995 44.6996C68.5647 44.6995 68.8284 44.7205 69.0828 44.7613ZM36.6428 41.6921L65.5761 58.3967C66.7173 59.0556 66.7173 60.1242 65.5761 60.783C64.4346 61.4421 62.5841 61.4419 61.4429 60.783L32.5096 44.0784C31.3681 43.4194 31.3681 42.3511 32.5096 41.6921C33.6508 41.0332 35.5013 41.033 36.6428 41.6921ZM28.4037 46.449L49.0703 58.3808C50.2115 59.0397 50.2118 60.1081 49.0703 60.7671C47.9291 61.426 46.0783 61.426 44.9371 60.7671L24.2705 48.8352C23.129 48.1762 23.1293 47.1078 24.2705 46.449C25.412 45.7899 27.2622 45.7899 28.4037 46.449Z" fill="url(#paint1_linear_710_30256)"/>
</g>
<defs>
<filter id="filter0_f_710_30256" x="6.51392" y="43.3672" width="106.713" height="63.3047" filterUnits="userSpaceOnUse" color-interpolation-filters="sRGB">
<feFlood flood-opacity="0" result="BackgroundImageFix"/>
<feBlend mode="normal" in="SourceGraphic" in2="BackgroundImageFix" result="shape"/>
<feGaussianBlur stdDeviation="1" result="effect1_foregroundBlur_710_30256"/>
</filter>
<linearGradient id="paint0_linear_710_30256" x1="60.3202" y1="34.7144" x2="60.3202" y2="104.944" gradientUnits="userSpaceOnUse">
<stop offset="0.317708" stop-color="#B4B4C3"/>
<stop offset="1" stop-color="#B4B4C3" stop-opacity="0"/>
</linearGradient>
<linearGradient id="paint1_linear_710_30256" x1="90.1812" y1="27.4844" x2="59.8704" y2="79.9844" gradientUnits="userSpaceOnUse">
<stop stop-color="#23B5E9"/>
<stop offset="1" stop-color="#00DED0"/>
</linearGradient>
<clipPath id="clip0_710_30256">
<rect width="120" height="120" fill="white"/>
</clipPath>
</defs>
</svg>
