<svg width="120" height="120" viewBox="0 0 120 120" fill="none" xmlns="http://www.w3.org/2000/svg">
<g clip-path="url(#clip0_709_29641)">
<g opacity="0.3" filter="url(#filter0_f_709_29641)">
<path fill-rule="evenodd" clip-rule="evenodd" d="M75.6545 49.7764L104.345 66.3411C108.497 68.7383 110.83 71.9893 110.83 75.3793C110.83 78.7693 108.497 82.0203 104.345 84.4175L75.6546 100.982C71.5026 103.379 65.8716 104.726 60 104.726C54.1284 104.726 48.4974 103.379 44.3454 100.982L15.6545 84.4175C11.5027 82.0204 9.17031 78.7692 9.17031 75.3792C9.17031 71.9893 11.5026 68.7383 15.6546 66.3411L44.3454 49.7765C48.4974 47.3793 54.1283 46.0328 59.9999 46.0328C65.8715 46.0328 71.5027 47.3794 75.6545 49.7764ZM77.6727 65.176C79.563 66.2673 80.8494 67.6582 81.369 69.172C81.6516 69.995 81.7005 70.8342 81.5214 71.6578L71.1942 69.4304L70.8927 63.0584C73.4418 63.3665 75.8034 64.0967 77.6727 65.176ZM68.442 72.7591L79.2624 75.0928C78.2895 75.9123 77.0499 76.621 75.6027 77.1766C73.3767 78.0312 70.7616 78.4852 68.0886 78.4807C65.4153 78.4764 62.8044 78.0137 60.5871 77.1517C59.9388 76.8997 59.3322 76.6167 58.7736 76.3066L68.442 72.7591ZM64.8417 69.7264L64.5318 63.1746C62.3266 63.5264 60.292 64.1995 58.6364 65.1444C56.7353 66.2295 55.4353 67.6159 54.9005 69.1283C54.4191 70.4899 54.5781 71.8984 55.3536 73.208L64.8417 69.7264ZM81.8181 62.7826C79.1211 61.2255 75.6849 60.1651 71.9441 59.7354C68.2032 59.3058 64.3256 59.5263 60.8017 60.3691C57.2781 61.2117 54.2661 62.6389 52.1472 64.4698C50.0282 66.3007 48.897 68.4535 48.8969 70.6556C48.8972 72.8576 50.028 75.0104 52.1472 76.8411C54.2664 78.6723 57.2781 80.0993 60.8019 80.9421C64.3257 81.7846 68.2032 82.0051 71.9442 81.5755C75.6849 81.1462 79.1214 80.0856 81.8184 78.5285C85.4349 76.4405 87.4668 73.6084 87.4665 70.6555C87.4665 67.7027 85.4346 64.8706 81.8181 62.7826ZM36.138 72.6247L64.7745 89.1579C65.904 89.8101 65.904 90.8676 64.7745 91.5198C63.6447 92.172 61.8129 92.1721 60.6834 91.5199L32.0469 74.9867C30.9172 74.3344 30.9174 73.2769 32.0472 72.6246C33.1767 71.9725 35.0083 71.9724 36.138 72.6247ZM27.9834 77.3327L56.6199 93.866C57.7494 94.5181 57.7494 95.5757 56.6199 96.2278C55.4901 96.8801 53.6586 96.8799 52.5291 96.2278L23.8926 79.6945C22.763 79.0423 22.7628 77.985 23.8926 77.3327C25.0221 76.6806 26.8537 76.6805 27.9834 77.3327Z" fill="#AECAD3"/>
</g>
<path opacity="0.2" d="M110.938 46.7227V75.4329C110.938 75.4329 110.938 82.416 88.7341 93.3128C68.1458 107.415 60.5068 104.945 60.5068 104.945C59.5729 104.447 51.1663 106.359 35.8517 95.4189C9.53764 82.6445 10.5911 80.3827 9.15918 76.3979L9.70262 46.7227L60.5068 64.0397L110.938 46.7227Z" fill="url(#paint0_linear_709_29641)"/>
<path d="M68.2935 20.2227L18.5938 46.9238L54.5469 70.8486L97.902 41.6367L68.2935 20.2227Z" fill="#D3E4EA"/>
<path fill-rule="evenodd" clip-rule="evenodd" d="M75.6545 19.0225L104.345 35.5872C108.497 37.9844 110.83 41.2354 110.83 44.6254C110.83 48.0154 108.497 51.2664 104.345 53.6636L75.6546 70.2282C71.5026 72.6254 65.8716 73.9719 60 73.9719C54.1284 73.9719 48.4974 72.6254 44.3454 70.2282L15.6545 53.6635C11.5027 51.2665 9.17031 48.0153 9.17031 44.6253C9.17031 41.2354 11.5026 37.9844 15.6546 35.5872L44.3454 19.0226C48.4974 16.6254 54.1283 15.2789 59.9999 15.2789C65.8715 15.2789 71.5027 16.6255 75.6545 19.0225ZM77.6727 34.4221C79.563 35.5134 80.8494 36.9043 81.369 38.4181C81.6516 39.2411 81.7005 40.0803 81.5214 40.9039L71.1942 38.6765L70.8927 32.3044C73.4418 32.6126 75.8034 33.3428 77.6727 34.4221ZM68.442 42.0051L79.2624 44.3389C78.2895 45.1583 77.0499 45.8671 75.6027 46.4227C73.3767 47.2773 70.7616 47.7313 68.0886 47.7268C65.4153 47.7225 62.8044 47.2598 60.5871 46.3978C59.9388 46.1458 59.3322 45.8628 58.7736 45.5527L68.442 42.0051ZM64.8417 38.9725L64.5318 32.4207C62.3266 32.7725 60.292 33.4456 58.6364 34.3905C56.7353 35.4756 55.4353 36.862 54.9005 38.3743C54.4191 39.736 54.5781 41.1445 55.3536 42.4541L64.8417 38.9725ZM81.8181 32.0287C79.1211 30.4716 75.6849 29.4112 71.9441 28.9815C68.2032 28.5519 64.3256 28.7724 60.8017 29.6152C57.2781 30.4578 54.2661 31.8849 52.1472 33.7159C50.0282 35.5468 48.897 37.6996 48.8969 39.9017C48.8972 42.1036 50.028 44.2565 52.1472 46.0872C54.2664 47.9184 57.2781 49.3454 60.8019 50.1882C64.3257 51.0307 68.2032 51.2512 71.9442 50.8216C75.6849 50.3923 79.1214 49.3317 81.8184 47.7746C85.4349 45.6866 87.4668 42.8545 87.4665 39.9016C87.4665 36.9488 85.4346 34.1167 81.8181 32.0287ZM36.138 41.8708L64.7745 58.404C65.904 59.0561 65.904 60.1137 64.7745 60.7659C63.6447 61.4181 61.8129 61.4181 60.6834 60.766L32.0469 44.2328C30.9172 43.5805 30.9174 42.523 32.0472 41.8707C33.1767 41.2186 35.0083 41.2185 36.138 41.8708ZM27.9834 46.5788L56.6199 63.1121C57.7494 63.7642 57.7494 64.8218 56.6199 65.4739C55.4901 66.1262 53.6586 66.126 52.5291 65.4739L23.8926 48.9406C22.763 48.2884 22.7628 47.2311 23.8926 46.5788C25.0221 45.9267 26.8537 45.9266 27.9834 46.5788Z" fill="#284C59"/>
</g>
<defs>
<filter id="filter0_f_709_29641" x="7.17041" y="44.0312" width="105.659" height="62.6953" filterUnits="userSpaceOnUse" color-interpolation-filters="sRGB">
<feFlood flood-opacity="0" result="BackgroundImageFix"/>
<feBlend mode="normal" in="SourceGraphic" in2="BackgroundImageFix" result="shape"/>
<feGaussianBlur stdDeviation="1" result="effect1_foregroundBlur_709_29641"/>
</filter>
<linearGradient id="paint0_linear_709_29641" x1="60.3202" y1="34.7144" x2="60.3202" y2="104.944" gradientUnits="userSpaceOnUse">
<stop offset="0.317708" stop-color="#397489"/>
<stop offset="1" stop-color="#23B5E9" stop-opacity="0"/>
</linearGradient>
<clipPath id="clip0_709_29641">
<rect width="120" height="120" fill="white"/>
</clipPath>
</defs>
</svg>
