<svg width="120" height="120" viewBox="0 0 120 120" fill="none" xmlns="http://www.w3.org/2000/svg">
<g opacity="0.3" filter="url(#filter0_f_709_29666)">
<mask id="mask0_709_29666" style="mask-type:luminance" maskUnits="userSpaceOnUse" x="1" y="45" width="118" height="69">
<path d="M118.519 78.4547L62.1028 45.8828L1.481 80.8828L57.8972 113.455L118.519 78.4547Z" fill="white"/>
</mask>
<g mask="url(#mask0_709_29666)">
<mask id="mask1_709_29666" style="mask-type:luminance" maskUnits="userSpaceOnUse" x="13" y="56" width="87" height="51">
<path d="M89.7475 62.45C102.17 69.6222 102.515 81.1362 90.5051 88.5622L89.7475 89.0139L77.1806 96.2693L71.733 104.302C71.4603 104.704 71.0477 105.07 70.5189 105.375C68.4016 106.598 64.9671 106.597 62.8506 105.375L48.3222 96.9924C43.2403 99.9265 35.0008 99.9268 29.9182 96.9924C25.0166 94.1625 24.8418 89.6377 29.3931 86.6877L29.9222 86.361L15.4297 77.9966C14.9021 77.692 14.492 77.3302 14.2196 76.9313C13.1218 75.3232 14.4874 73.5041 17.2731 72.8697L31.1679 69.707L43.7378 62.4498C56.482 55.0919 77.0242 55.1042 89.7475 62.45ZM43.7252 94.3302L34.5192 89.0232C31.9782 90.4903 31.9764 92.8679 34.5192 94.336C36.9117 95.7173 40.6996 95.7972 43.2568 94.5793L43.7252 94.3302ZM85.1465 65.1064C74.9629 59.2269 58.5398 59.2166 48.3385 65.1064L34.8128 72.9154L21.1993 76.0149L66.2768 102.04L71.6177 94.1683L85.1072 86.3801L85.7857 85.9742C95.3631 80.0515 95.0877 70.8459 85.1465 65.1064Z" fill="#AECAD3"/>
<path d="M31.4524 71.3124L17.6494 75.7397L19.1831 76.6251L26.8514 81.0525L66.7268 104.074L72.8614 96.9908C73.885 95.2204 77.7692 90.9696 85.1308 88.1362C94.3328 84.5943 105.068 73.0833 88.1981 63.3432C74.7018 55.5511 54.9687 59.5061 46.7891 62.4577L31.4524 71.3124Z" fill="#AECAD3"/>
<path d="M31.4529 94.3324L32.9866 86.3633L48.3232 95.2179L37.5876 97.8743L31.4529 94.3324Z" fill="#AECAD3"/>
<path d="M31.4524 71.3124L17.6494 75.7397L19.1831 76.6251L26.8514 81.0525L66.7268 104.074L72.8614 96.9908C73.885 95.2204 77.7692 90.9696 85.1308 88.1362C94.3328 84.5943 105.068 73.0833 88.1981 63.3432C74.7018 55.5511 54.9687 59.5061 46.7891 62.4577L31.4524 71.3124Z" fill="#AECAD3"/>
</mask>
<g mask="url(#mask1_709_29666)">
<path fill-rule="evenodd" clip-rule="evenodd" d="M119.634 79.0968L60.3606 44.875L-4.50872 82.3273L54.7651 116.549L119.634 79.0968ZM47.3434 98.0195L27.5855 86.6122L28.9716 85.812L48.7295 97.2192L47.3434 98.0195Z" fill="#AECAD3"/>
</g>
</g>
</g>
<path opacity="0.2" d="M14.0735 75.1615L14.0735 36.3607L99.3981 34.7813L97.818 70.2454C101.329 81.7625 85.0018 92.9518 76.3991 97.1069C72.4664 105.674 67.1526 106.529 64.9873 105.885L45.8507 97.1069C42.7491 98.7455 35.1061 101.04 29.3476 97.1069C23.5891 93.1742 26.9482 87.7434 29.3476 85.5196L14.0735 75.1615Z" fill="url(#paint0_linear_709_29666)"/>
<mask id="mask2_709_29666" style="mask-type:luminance" maskUnits="userSpaceOnUse" x="1" y="6" width="118" height="69">
<path d="M118.519 39.1188L62.1028 6.54688L1.481 41.5469L57.8972 74.1188L118.519 39.1188Z" fill="white"/>
</mask>
<g mask="url(#mask2_709_29666)">
<mask id="mask3_709_29666" style="mask-type:luminance" maskUnits="userSpaceOnUse" x="13" y="17" width="87" height="50">
<path d="M89.7475 23.114C102.17 30.2863 102.515 41.8003 90.5051 49.2263L89.7475 49.6779L77.1806 56.9334L71.733 64.9663C71.4603 65.3681 71.0477 65.7338 70.5189 66.0391C68.4016 67.2616 64.9671 67.2611 62.8506 66.0391L48.3222 57.6565C43.2403 60.5905 35.0008 60.5909 29.9182 57.6565C25.0166 54.8265 24.8418 50.3018 29.3931 47.3518L29.9222 47.0251L15.4297 38.6606C14.9021 38.356 14.492 37.9942 14.2196 37.5954C13.1218 35.9872 14.4874 34.1681 17.2731 33.5338L31.1679 30.3711L43.7378 23.1138C56.482 15.756 77.0242 15.7682 89.7475 23.114ZM43.7252 54.9942L34.5192 49.6873C31.9782 51.1543 31.9764 53.532 34.5192 55.0001C36.9117 56.3814 40.6996 56.4613 43.2568 55.2434L43.7252 54.9942ZM85.1465 25.7704C74.9629 19.8909 58.5398 19.8807 48.3385 25.7704L34.8128 33.5795L21.1993 36.679L66.2768 62.7045L71.6177 54.8324L85.1072 47.0442L85.7857 46.6383C95.3631 40.7156 95.0877 31.51 85.1465 25.7704Z" fill="white"/>
<path d="M31.4524 31.9764L17.6494 36.4037L19.1831 37.2892L26.8514 41.7165L66.7268 64.7386L72.8614 57.6548C73.885 55.8845 77.7692 51.6337 85.1308 48.8002C94.3328 45.2584 105.068 33.7473 88.1981 24.0073C74.7018 16.2152 54.9687 20.1702 46.7891 23.1218L31.4524 31.9764Z" fill="white"/>
<path d="M31.4529 54.9965L32.9866 47.0273L48.3232 55.882L37.5876 58.5384L31.4529 54.9965Z" fill="white"/>
<path d="M31.4524 31.9764L17.6494 36.4037L19.1831 37.2892L26.8514 41.7165L66.7268 64.7386L72.8614 57.6548C73.885 55.8845 77.7692 51.6337 85.1308 48.8002C94.3328 45.2584 105.068 33.7473 88.1981 24.0073C74.7018 16.2152 54.9687 20.1702 46.7891 23.1218L31.4524 31.9764Z" stroke="white"/>
</mask>
<g mask="url(#mask3_709_29666)">
<path fill-rule="evenodd" clip-rule="evenodd" d="M119.634 39.7608L60.3606 5.53906L-4.50872 42.9914L54.7651 77.2131L119.634 39.7608ZM47.3434 58.6836L27.5855 47.2763L28.9716 46.476L48.7295 57.8833L47.3434 58.6836Z" fill="#284C59"/>
</g>
</g>
<defs>
<filter id="filter0_f_709_29666" x="11.8403" y="54.9375" width="89.4526" height="53.3555" filterUnits="userSpaceOnUse" color-interpolation-filters="sRGB">
<feFlood flood-opacity="0" result="BackgroundImageFix"/>
<feBlend mode="normal" in="SourceGraphic" in2="BackgroundImageFix" result="shape"/>
<feGaussianBlur stdDeviation="1" result="effect1_foregroundBlur_709_29666"/>
</filter>
<linearGradient id="paint0_linear_709_29666" x1="56.9637" y1="20.1232" x2="56.9637" y2="105.85" gradientUnits="userSpaceOnUse">
<stop offset="0.317708" stop-color="#397489"/>
<stop offset="1" stop-color="#23B5E9" stop-opacity="0"/>
</linearGradient>
</defs>
</svg>
