<svg width="120" height="121" viewBox="0 0 120 121" fill="none" xmlns="http://www.w3.org/2000/svg">
<g clip-path="url(#clip0_709_30148)">
<g opacity="0.3" filter="url(#filter0_f_709_30148)">
<path fill-rule="evenodd" clip-rule="evenodd" d="M75.6872 49.6436C71.4922 47.2216 65.8028 45.8611 59.8703 45.8611C53.9379 45.8611 48.2486 47.2216 44.0535 49.6436L15.0654 66.3799C10.8704 68.8019 8.514 72.0866 8.514 75.5117C8.514 78.9368 10.8704 82.2216 15.0654 84.6436L44.0535 101.38C48.2486 103.802 53.9379 105.162 59.8704 105.162C65.8028 105.162 71.4922 103.802 75.6872 101.38L104.675 84.6436C108.87 82.2216 111.227 78.9368 111.227 75.5117C111.227 72.0866 108.87 68.8019 104.675 66.3799L75.6872 49.6436ZM52.3266 71.1105C52.9552 72.9347 54.5065 74.6105 56.7847 75.9258C59.1411 77.2862 62.1452 78.1869 65.3788 78.5275L65.3788 82.892C65.376 83.1137 65.4506 83.3335 65.5973 83.5383C65.744 83.7434 65.9601 83.929 66.2329 84.0851C66.499 84.2458 66.8203 84.3728 67.1759 84.4577C67.532 84.5426 67.9149 84.5837 68.2995 84.5783C68.6848 84.5813 69.0667 84.5396 69.4231 84.456C69.7799 84.3721 70.1039 84.2481 70.3761 84.0909C70.6483 83.9338 70.8632 83.7467 71.0084 83.5407C71.1533 83.3349 71.2254 83.1144 71.2203 82.892L71.2203 78.5282C74.4563 78.188 77.4628 77.2873 79.821 75.9258C82.0992 74.6105 83.6505 72.9347 84.2791 71.1105C84.9074 69.2861 84.5849 67.3954 83.3522 65.6767C82.1192 63.9582 80.0313 62.4896 77.3528 61.4562C74.6739 60.4227 71.5246 59.8711 68.3029 59.8713C65.0814 59.8713 61.9318 60.4227 59.2532 61.4561C56.5744 62.4896 54.4868 63.9584 53.2538 65.6769C52.0211 67.3952 51.6982 69.2861 52.3266 71.1105ZM69.0828 75.2886C69.5035 75.2704 69.9236 75.2375 70.3403 75.1897C72.3663 74.957 74.2271 74.3828 75.6878 73.5395C77.6465 72.4086 78.7468 70.8749 78.7468 69.2758C78.7468 67.6766 77.6465 66.1429 75.6878 65.0121C74.2271 64.1687 72.3663 63.5946 70.3403 63.3618C68.3147 63.1292 66.2147 63.2486 64.3064 63.705C62.398 64.1614 60.7667 64.9342 59.6194 65.9259C58.4718 66.9175 57.8592 68.0831 57.8589 69.2758C57.8592 70.4684 58.4718 71.6341 59.6194 72.6256C60.767 73.6172 62.398 74.3902 64.3064 74.8466C65.3348 75.0924 66.4193 75.2405 67.5178 75.2884C67.7715 75.2476 68.0349 75.2268 68.2995 75.227C68.5647 75.2268 68.8284 75.2478 69.0828 75.2886ZM36.6428 72.2194L65.5761 88.9241C66.7173 89.5829 66.7173 90.6515 65.5761 91.3104C64.4346 91.9694 62.5841 91.9692 61.4429 91.3104L32.5096 74.6057C31.3681 73.9467 31.3681 72.8785 32.5096 72.2194C33.6508 71.5606 35.5013 71.5604 36.6428 72.2194ZM28.4037 76.9763L49.0703 88.9081C50.2115 89.567 50.2118 90.6354 49.0703 91.2944C47.9291 91.9533 46.0783 91.9533 44.9371 91.2944L24.2705 79.3626C23.129 78.7035 23.1293 77.6352 24.2705 76.9763C25.412 76.3172 27.2622 76.3172 28.4037 76.9763Z" fill="#AECAD3"/>
</g>
<path opacity="0.2" d="M110.938 47.2148V75.9251C110.938 75.9251 110.938 82.9082 88.7341 93.805C68.1458 107.907 60.5068 105.437 60.5068 105.437C59.5729 104.939 51.1663 106.851 35.8517 95.9111C9.53764 83.1367 10.5911 80.8749 9.15918 76.8901L9.70262 47.2148L60.5068 64.5319L110.938 47.2148Z" fill="url(#paint0_linear_709_30148)"/>
<path d="M68.2935 20.7148L18.5938 47.416L54.5469 71.3407L97.902 42.1289L68.2935 20.7148Z" fill="#D3E4EA"/>
<path fill-rule="evenodd" clip-rule="evenodd" d="M75.6872 19.6084C71.4922 17.1864 65.8028 15.826 59.8703 15.826C53.9379 15.826 48.2486 17.1864 44.0535 19.6084L15.0654 36.3447C10.8704 38.7667 8.514 42.0515 8.514 45.4766C8.514 48.9017 10.8704 52.1864 15.0654 54.6084L44.0535 71.3447C48.2486 73.7667 53.9379 75.1272 59.8704 75.1272C65.8028 75.1272 71.4922 73.7667 75.6872 71.3447L104.675 54.6084C108.87 52.1864 111.227 48.9017 111.227 45.4766C111.227 42.0515 108.87 38.7667 104.675 36.3447L75.6872 19.6084ZM52.3266 41.0753C52.9552 42.8995 54.5065 44.5753 56.7847 45.8906C59.1411 47.2511 62.1452 48.1518 65.3788 48.4923L65.3788 52.8568C65.376 53.0786 65.4506 53.2984 65.5973 53.5031C65.744 53.7082 65.9601 53.8939 66.2329 54.05C66.499 54.2106 66.8203 54.3377 67.1759 54.4226C67.532 54.5074 67.9149 54.5486 68.2995 54.5431C68.6848 54.5461 69.0667 54.5045 69.4231 54.4208C69.7799 54.337 70.1039 54.2129 70.3761 54.0558C70.6483 53.8986 70.8632 53.7115 71.0084 53.5056C71.1533 53.2998 71.2254 53.0793 71.2203 52.8568L71.2203 48.493C74.4563 48.1528 77.4628 47.2521 79.821 45.8906C82.0992 44.5753 83.6505 42.8995 84.2791 41.0753C84.9074 39.2509 84.5849 37.3602 83.3522 35.6416C82.1192 33.9231 80.0313 32.4545 77.3528 31.4211C74.6739 30.3875 71.5246 29.8359 68.3029 29.8361C65.0814 29.8361 61.9318 30.3875 59.2532 31.4209C56.5744 32.4545 54.4868 33.9232 53.2538 35.6417C52.0211 37.3601 51.6982 39.2509 52.3266 41.0753ZM69.0828 45.2534C69.5035 45.2352 69.9236 45.2023 70.3403 45.1546C72.3663 44.9218 74.2271 44.3476 75.6878 43.5043C77.6465 42.3735 78.7468 40.8398 78.7468 39.2406C78.7468 37.6415 77.6465 36.1078 75.6878 34.9769C74.2271 34.1336 72.3663 33.5594 70.3403 33.3267C68.3147 33.0941 66.2147 33.2134 64.3064 33.6698C62.398 34.1262 60.7667 34.899 59.6194 35.8908C58.4718 36.8823 57.8592 38.048 57.8589 39.2406C57.8592 40.4332 58.4718 41.5989 59.6194 42.5905C60.767 43.582 62.398 44.355 64.3064 44.8114C65.3348 45.0573 66.4193 45.2053 67.5178 45.2533C67.7715 45.2125 68.0349 45.1917 68.2995 45.1918C68.5647 45.1917 68.8284 45.2127 69.0828 45.2534ZM36.6428 42.1843L65.5761 58.8889C66.7173 59.5478 66.7173 60.6163 65.5761 61.2752C64.4346 61.9343 62.5841 61.9341 61.4429 61.2752L32.5096 44.5706C31.3681 43.9115 31.3681 42.8433 32.5096 42.1843C33.6508 41.5254 35.5013 41.5252 36.6428 42.1843ZM28.4037 46.9411L49.0703 58.873C50.2115 59.5319 50.2118 60.6002 49.0703 61.2593C47.9291 61.9182 46.0783 61.9182 44.9371 61.2593L24.2705 49.3274C23.129 48.6684 23.1293 47.6 24.2705 46.9411C25.412 46.2821 27.2622 46.2821 28.4037 46.9411Z" fill="#284C59"/>
</g>
<defs>
<filter id="filter0_f_709_30148" x="6.51392" y="43.8594" width="106.713" height="63.3047" filterUnits="userSpaceOnUse" color-interpolation-filters="sRGB">
<feFlood flood-opacity="0" result="BackgroundImageFix"/>
<feBlend mode="normal" in="SourceGraphic" in2="BackgroundImageFix" result="shape"/>
<feGaussianBlur stdDeviation="1" result="effect1_foregroundBlur_709_30148"/>
</filter>
<linearGradient id="paint0_linear_709_30148" x1="60.3202" y1="35.2066" x2="60.3202" y2="105.436" gradientUnits="userSpaceOnUse">
<stop offset="0.317708" stop-color="#397489"/>
<stop offset="1" stop-color="#23B5E9" stop-opacity="0"/>
</linearGradient>
<clipPath id="clip0_709_30148">
<rect width="120" height="120" fill="white" transform="translate(0 0.492188)"/>
</clipPath>
</defs>
</svg>
