<svg width="120" height="120" viewBox="0 0 120 120" fill="none" xmlns="http://www.w3.org/2000/svg">
<g clip-path="url(#clip0_709_29697)">
<g opacity="0.3" filter="url(#filter0_f_709_29697)">
<path fill-rule="evenodd" clip-rule="evenodd" d="M75.5793 49.7764L104.27 66.3411C108.422 68.7383 110.754 71.9893 110.754 75.3793C110.754 78.7693 108.422 82.0203 104.27 84.4175L75.5794 100.982C71.4274 103.379 65.7964 104.726 59.9248 104.726C54.0532 104.726 48.4222 103.379 44.2702 100.982L15.5793 84.4175C11.4275 82.0204 9.09512 78.7692 9.09512 75.3792C9.09512 71.9893 11.4274 68.7383 15.5794 66.3411L44.2702 49.7765C48.4222 47.3793 54.0531 46.0328 59.9247 46.0328C65.7963 46.0328 71.4275 47.3794 75.5793 49.7764ZM77.5975 65.176C79.4878 66.2673 80.7742 67.6582 81.2938 69.172C81.5764 69.995 81.6253 70.8342 81.4462 71.6578L71.119 69.4304L70.8175 63.0584C73.3666 63.3665 75.7282 64.0967 77.5975 65.176ZM68.3668 72.7591L79.1872 75.0928C78.2143 75.9123 76.9747 76.621 75.5275 77.1766C73.3015 78.0312 70.6864 78.4852 68.0134 78.4807C65.3401 78.4764 62.7292 78.0137 60.5119 77.1517C59.8636 76.8997 59.257 76.6167 58.6984 76.3066L68.3668 72.7591ZM64.7665 69.7264L64.4566 63.1746C62.2514 63.5264 60.2168 64.1995 58.5612 65.1444C56.6601 66.2295 55.3601 67.6159 54.8253 69.1283C54.3439 70.4899 54.5029 71.8984 55.2784 73.208L64.7665 69.7264ZM81.7429 62.7826C79.0459 61.2255 75.6097 60.1651 71.8689 59.7354C68.128 59.3058 64.2504 59.5263 60.7266 60.3691C57.2029 61.2117 54.1909 62.6389 52.072 64.4698C49.953 66.3007 48.8218 68.4535 48.8217 70.6556C48.822 72.8576 49.9528 75.0104 52.072 76.8411C54.1912 78.6723 57.2029 80.0993 60.7267 80.9421C64.2505 81.7846 68.128 82.0051 71.869 81.5755C75.6097 81.1462 79.0462 80.0856 81.7432 78.5285C85.3597 76.4405 87.3916 73.6084 87.3913 70.6555C87.3913 67.7027 85.3594 64.8706 81.7429 62.7826ZM36.0628 72.6247L64.6993 89.1579C65.8288 89.8101 65.8288 90.8676 64.6993 91.5198C63.5695 92.172 61.7377 92.1721 60.6082 91.5199L31.9717 74.9867C30.842 74.3344 30.8422 73.2769 31.972 72.6246C33.1015 71.9725 34.9332 71.9724 36.0628 72.6247ZM27.9082 77.3327L56.5447 93.866C57.6742 94.5181 57.6742 95.5757 56.5447 96.2278C55.4149 96.8801 53.5834 96.8799 52.4539 96.2278L23.8174 79.6945C22.6878 79.0423 22.6876 77.985 23.8174 77.3327C24.9469 76.6806 26.7786 76.6805 27.9082 77.3327Z" fill="#AECAD3"/>
</g>
<path opacity="0.2" d="M110.863 56.7227V75.4329C110.863 75.4329 110.863 82.416 88.6589 93.3128C68.0706 107.415 60.4316 104.945 60.4316 104.945C59.4977 104.447 51.0911 106.359 35.7766 95.4189C9.46245 82.6445 10.5159 80.3827 9.08398 76.3979L9.62742 56.7227L60.4316 64.0397L110.863 56.7227Z" fill="url(#paint0_linear_709_29697)"/>
<path d="M66.022 35.4453L14.5639 56.1274L54.3031 79.2848L101.73 50.1103L66.022 35.4453Z" fill="#D3E4EA"/>
<path fill-rule="evenodd" clip-rule="evenodd" d="M75.5793 29.0225L104.27 45.5872C108.422 47.9844 110.754 51.2354 110.754 54.6254C110.754 58.0154 108.422 61.2664 104.27 63.6636L75.5794 80.2282C71.4274 82.6254 65.7964 83.9719 59.9248 83.9719C54.0532 83.9719 48.4222 82.6254 44.2702 80.2282L15.5793 63.6635C11.4275 61.2665 9.09512 58.0153 9.09512 54.6253C9.09512 51.2354 11.4274 47.9844 15.5794 45.5872L44.2702 29.0226C48.4222 26.6254 54.0531 25.2789 59.9247 25.2789C65.7963 25.2789 71.4275 26.6255 75.5793 29.0225ZM77.5975 44.4221C79.4878 45.5134 80.7742 46.9043 81.2938 48.4181C81.5764 49.2411 81.6253 50.0803 81.4462 50.9039L71.119 48.6765L70.8175 42.3044C73.3666 42.6126 75.7282 43.3428 77.5975 44.4221ZM68.3668 52.0051L79.1872 54.3389C78.2143 55.1583 76.9747 55.8671 75.5275 56.4227C73.3015 57.2773 70.6864 57.7313 68.0134 57.7268C65.3401 57.7225 62.7292 57.2598 60.5119 56.3978C59.8636 56.1458 59.257 55.8628 58.6984 55.5527L68.3668 52.0051ZM64.7665 48.9725L64.4566 42.4207C62.2514 42.7725 60.2168 43.4456 58.5612 44.3905C56.6601 45.4756 55.3601 46.862 54.8253 48.3743C54.3439 49.736 54.5029 51.1445 55.2784 52.4541L64.7665 48.9725ZM81.7429 42.0287C79.0459 40.4716 75.6097 39.4112 71.8689 38.9815C68.128 38.5519 64.2504 38.7724 60.7266 39.6152C57.2029 40.4578 54.1909 41.8849 52.072 43.7159C49.953 45.5468 48.8218 47.6996 48.8217 49.9017C48.822 52.1036 49.9528 54.2565 52.072 56.0872C54.1912 57.9184 57.2029 59.3454 60.7267 60.1882C64.2505 61.0307 68.128 61.2512 71.869 60.8216C75.6097 60.3923 79.0462 59.3317 81.7432 57.7746C85.3597 55.6866 87.3916 52.8545 87.3913 49.9016C87.3913 46.9488 85.3594 44.1167 81.7429 42.0287ZM36.0628 51.8708L64.6993 68.404C65.8288 69.0561 65.8288 70.1137 64.6993 70.7659C63.5695 71.4181 61.7377 71.4181 60.6082 70.766L31.9717 54.2328C30.842 53.5805 30.8422 52.523 31.972 51.8707C33.1015 51.2186 34.9332 51.2185 36.0628 51.8708ZM27.9082 56.5788L56.5447 73.1121C57.6742 73.7642 57.6742 74.8218 56.5447 75.4739C55.4149 76.1262 53.5834 76.126 52.4539 75.4739L23.8174 58.9406C22.6878 58.2884 22.6876 57.2311 23.8174 56.5788C24.9469 55.9267 26.7786 55.9266 27.9082 56.5788Z" fill="#284C59"/>
</g>
<defs>
<filter id="filter0_f_709_29697" x="7.09521" y="44.0312" width="105.659" height="62.6953" filterUnits="userSpaceOnUse" color-interpolation-filters="sRGB">
<feFlood flood-opacity="0" result="BackgroundImageFix"/>
<feBlend mode="normal" in="SourceGraphic" in2="BackgroundImageFix" result="shape"/>
<feGaussianBlur stdDeviation="1" result="effect1_foregroundBlur_709_29697"/>
</filter>
<linearGradient id="paint0_linear_709_29697" x1="60.245" y1="34.7144" x2="60.245" y2="104.944" gradientUnits="userSpaceOnUse">
<stop offset="0.317708" stop-color="#397489"/>
<stop offset="1" stop-color="#23B5E9" stop-opacity="0"/>
</linearGradient>
<clipPath id="clip0_709_29697">
<rect width="120" height="120" fill="white"/>
</clipPath>
</defs>
</svg>
