<svg width="120" height="120" viewBox="0 0 120 120" fill="none" xmlns="http://www.w3.org/2000/svg">
<g opacity="0.3" filter="url(#filter0_f_710_30230)">
<path fill-rule="evenodd" clip-rule="evenodd" d="M55.7829 55.84C53.5728 54.564 53.5728 52.5039 55.7829 51.2279C57.993 49.9519 61.5612 49.9519 63.7713 51.2279C65.9814 52.5039 65.9814 54.564 63.6914 55.8246C62.2801 56.6394 60.2564 56.9468 58.4191 56.6855L55.6232 61.2822L65.6618 67.078C67.8453 66.2478 70.8276 66.4016 72.7448 67.5084C73.1708 67.7544 73.5436 68.0311 73.8099 68.3386L88.1889 66.1248C88.5883 66.0787 89.0143 66.1402 89.3072 66.3093L103.739 74.6418C104.032 74.8109 104.192 75.0568 104.059 75.2874L98.8932 86.6331C98.7601 86.8637 98.4405 87.0482 98.0677 87.1097L83.7953 89.3235C83.7953 90.1844 83.2095 91.0145 82.1444 91.6295C80.9727 92.3059 79.4017 92.6288 77.8307 92.5826L73.8632 101.084C73.73 101.315 73.4105 101.499 73.0377 101.561L53.3066 104.62C52.9071 104.666 52.4811 104.605 52.1882 104.436L37.756 96.1032C37.4631 95.9341 37.3033 95.6881 37.4365 95.4575L41.2708 87.1558C40.7649 86.9867 40.259 86.7868 39.8329 86.5409C37.9158 85.434 37.6495 83.7121 39.0874 82.4515L29.0487 76.6557L22.4717 77.9009C22.7912 78.9156 22.2587 79.9917 20.9007 80.7758C18.6906 82.0518 15.1224 82.0518 12.9123 80.7758C10.7022 79.4998 10.7022 77.4397 12.9123 76.1637C15.1224 74.8877 18.6906 74.8877 20.9007 76.1637C21.1669 76.3175 21.4066 76.4866 21.593 76.6557L28.383 75.3797L33.5222 64.3569C33.6553 64.1263 33.9749 63.9418 34.3476 63.8803L53.4663 60.9286L56.3688 56.1474C56.1557 56.0552 55.9693 55.9476 55.7829 55.84ZM20.0314 77.7593C20.0181 77.7307 20.0077 77.7082 19.9687 77.6857C19.8089 77.4705 19.5959 77.286 19.303 77.1169C17.9982 76.3636 15.868 76.3636 14.5633 77.1169C13.2585 77.8702 13.2585 79.1001 14.5633 79.8534C15.868 80.6067 17.9982 80.6067 19.303 79.8534C20.2616 79.2999 20.5012 78.4851 20.0486 77.7933C20.0414 77.781 20.0362 77.7697 20.0314 77.7593ZM62.147 52.1657C60.8422 51.4124 58.712 51.4124 57.4072 52.1657C56.1025 52.919 56.1025 54.1489 57.4072 54.9022C58.712 55.6555 60.8422 55.6555 62.147 54.9022C63.4517 54.1489 63.4517 52.919 62.147 52.1657ZM82.0112 87.0328C82.5172 87.3249 82.9432 87.6631 83.2095 88.0321L83.2361 88.0167L96.7363 85.9413L101.662 75.3182L88.1622 67.5238L74.4223 69.6454C74.4223 69.7991 74.4223 69.9528 74.3957 70.1219C74.3957 70.1527 74.3691 70.1988 74.3691 70.1988C74.2359 70.9214 73.6768 71.6132 72.7714 72.1359C71.5998 72.8123 70.0288 73.1352 68.4577 73.089L66.1145 78.1623L64.7831 81.0218L74.662 86.7253C76.8455 85.7722 80.0142 85.8798 82.0112 87.0328ZM80.3869 87.9706C79.1354 87.248 77.1117 87.2173 75.807 87.9091L75.7803 87.8937L75.5673 88.0167L75.4874 88.0628L75.4076 88.109C74.3691 88.893 74.449 89.9845 75.6472 90.6763C76.0732 90.9223 76.5525 91.076 77.1384 91.1683C78.2833 91.3374 79.5082 91.1529 80.3603 90.661C81.1325 90.2151 81.4787 89.5848 81.2923 88.9545C81.1858 88.5855 80.8662 88.2473 80.3869 87.9706ZM75.5141 92.2598C75.4076 92.229 75.2744 92.1829 75.2744 92.1829L75.301 92.1983C74.875 92.0446 74.4756 91.8755 74.1028 91.6602C72.2655 90.5995 71.946 88.9699 73.1975 87.7246L63.2121 81.9595L49.4722 84.0811C49.5521 84.9881 48.9663 85.9105 47.8213 86.5716C46.6763 87.2327 45.0786 87.5709 43.5076 87.5248L39.833 95.4575L53.3332 103.252L71.7596 100.392L75.5141 92.2598ZM46.1437 82.8973C45.2117 82.3593 43.8537 82.1902 42.6821 82.4361L42.6555 82.4208C42.2028 82.4976 41.7768 82.6514 41.404 82.8666C40.0992 83.6199 40.0992 84.8498 41.404 85.6031C41.83 85.849 42.3093 86.0028 42.8951 86.095C43.4277 86.1873 43.9602 86.1873 44.4928 86.1258C45.1052 86.0489 45.6644 85.8798 46.1171 85.6184C46.9692 85.1265 47.2887 84.4193 46.9958 83.7582C46.8627 83.4354 46.5698 83.1433 46.1437 82.8973ZM62.573 80.6682L48.8331 82.7897L48.8597 82.7436C48.5935 82.4361 48.2207 82.1594 47.7946 81.9134C46.4899 81.1601 44.6526 80.8373 42.9218 81.0064C42.4691 81.0525 42.0164 81.1294 41.5638 81.237C41.319 81.3012 41.0742 81.3869 40.845 81.4672C40.7999 81.483 40.7554 81.4986 40.7117 81.5137L30.6464 75.7025L35.5725 65.0794L54.0255 62.2046L64.0908 68.0158C62.9724 68.9997 62.8925 70.2449 63.7713 71.275C64.0375 71.5824 64.3837 71.8745 64.8097 72.1205C65.2358 72.3665 65.7151 72.5817 66.2476 72.7354L62.573 80.6682ZM72.0525 69.4455C72.0258 69.3994 72.1057 69.2918 72.1057 69.2918C71.9726 68.9689 71.6797 68.6768 71.2536 68.4309C69.9489 67.6776 67.8187 67.6776 66.5139 68.4309C65.5287 68.9997 65.2624 69.8298 65.7683 70.5217C65.9015 70.7523 66.1677 70.9675 66.4873 71.152C66.8867 71.3826 67.3926 71.5517 67.9252 71.6439L67.9518 71.6593C69.0702 71.8438 70.295 71.6593 71.1471 71.1673C71.9193 70.7215 72.2655 70.0605 72.0525 69.4455ZM62.7599 71.0513C62.8747 70.8076 62.7555 70.5469 62.4472 70.3677L53.401 65.107C53.0927 64.9277 52.6422 64.857 52.2191 64.9215L39.8051 66.8143C39.382 66.8788 39.0507 67.0687 38.9359 67.3125L35.568 74.4659C35.4532 74.7097 35.5725 74.9703 35.8807 75.1496L44.9269 80.4102C45.2352 80.5895 45.6857 80.6602 46.1088 80.5957L58.5229 78.7029C58.9459 78.6384 59.2772 78.4485 59.392 78.2048L62.7599 71.0513ZM97.2908 75.4444C97.5991 75.6237 97.7183 75.8843 97.6035 76.1281L94.2356 83.2815C94.1208 83.5253 93.7895 83.7152 93.3665 83.7797L80.9524 85.6724C80.5293 85.737 80.0788 85.6662 79.7705 85.487L70.7244 80.2263C70.4161 80.047 70.2969 79.7864 70.4116 79.5426L73.7795 72.3892C73.8943 72.1454 74.2256 71.9555 74.6487 71.891L87.0627 69.9983C87.4858 69.9338 87.9363 70.0045 88.2446 70.1837L97.2908 75.4444ZM71.9336 90.9486C72.0483 90.7048 71.9291 90.4442 71.6208 90.265L62.5746 85.0043C62.2664 84.825 61.8158 84.7543 61.3928 84.8188L48.9787 86.7116C48.5557 86.7761 48.2243 86.966 48.1096 87.2098L44.7417 94.3632C44.6269 94.607 44.7461 94.8676 45.0544 95.0469L54.1006 100.308C54.4089 100.487 54.8594 100.558 55.2824 100.493L67.6965 98.6002C68.1196 98.5357 68.4509 98.3458 68.5657 98.102L71.9336 90.9486Z" fill="#AECAD3"/>
</g>
<path opacity="0.2" fill-rule="evenodd" clip-rule="evenodd" d="M103.236 54.0586V75.2812L98.2338 86.4949L82.6042 89.8162L81.041 92.5515L76.9382 91.5746L72.6402 100.171L52.9073 104.469L38.8406 96.4589L42.3571 87.6671L38.8406 86.4949L40.208 82.7828L29.8533 76.5309L22.2337 77.8985C20.801 80.5944 16.56 84.5241 12.0726 80.0983C11.5623 79.527 11.2906 78.978 11.2135 78.4675L11.193 78.4719L11.193 78.2682C11.1892 78.1965 11.1893 78.1256 11.193 78.0556L11.1929 58.3132C17.1667 63.8274 21.3787 59.5949 22.1435 57.4988L29.7914 56.1406C33.1621 58.3494 39.8186 62.7671 39.4787 62.7671C39.445 62.9963 39.4094 63.2052 39.3734 63.3964L41.9885 67.0203L37.3734 74.5435L52.9073 83.4436L72.6402 79.8928L76.9382 71.6136C79.0575 71.9021 83.3538 71.7002 83.5846 68.584L98.2338 65.4101L103.236 54.0586Z" fill="url(#paint0_linear_710_30230)"/>
<path fill-rule="evenodd" clip-rule="evenodd" d="M55.7829 35.84C53.5728 34.564 53.5728 32.5039 55.7829 31.2279C57.993 29.9519 61.5612 29.9519 63.7713 31.2279C65.9814 32.5039 65.9814 34.564 63.6914 35.8246C62.2801 36.6394 60.2564 36.9468 58.4191 36.6855L55.6232 41.2822L65.6618 47.078C67.8453 46.2478 70.8276 46.4016 72.7448 47.5084C73.1708 47.7544 73.5436 48.0311 73.8099 48.3386L88.1889 46.1248C88.5883 46.0787 89.0143 46.1402 89.3072 46.3093L103.739 54.6418C104.032 54.8109 104.192 55.0568 104.059 55.2874L98.8932 66.6331C98.7601 66.8637 98.4405 67.0482 98.0677 67.1097L83.7953 69.3235C83.7953 70.1844 83.2095 71.0145 82.1444 71.6295C80.9727 72.3059 79.4017 72.6288 77.8307 72.5826L73.8632 81.0842C73.73 81.3148 73.4105 81.4993 73.0377 81.5608L53.3066 84.6201C52.9071 84.6662 52.4811 84.6047 52.1882 84.4356L37.756 76.1032C37.4631 75.9341 37.3033 75.6881 37.4365 75.4575L41.2708 67.1558C40.7649 66.9867 40.259 66.7868 39.8329 66.5409C37.9158 65.434 37.6495 63.7121 39.0874 62.4515L29.0487 56.6557L22.4717 57.9009C22.7912 58.9156 22.2587 59.9917 20.9007 60.7758C18.6906 62.0518 15.1224 62.0518 12.9123 60.7758C10.7022 59.4998 10.7022 57.4397 12.9123 56.1637C15.1224 54.8877 18.6906 54.8877 20.9007 56.1637C21.1669 56.3175 21.4066 56.4866 21.593 56.6557L28.383 55.3797L33.5222 44.3569C33.6553 44.1263 33.9749 43.9418 34.3476 43.8803L53.4663 40.9286L56.3688 36.1474C56.1557 36.0552 55.9693 35.9476 55.7829 35.84ZM20.0314 57.7593C20.0181 57.7307 20.0077 57.7082 19.9687 57.6857C19.8089 57.4705 19.5959 57.286 19.303 57.1169C17.9982 56.3636 15.868 56.3636 14.5633 57.1169C13.2585 57.8702 13.2585 59.1001 14.5633 59.8534C15.868 60.6067 17.9982 60.6067 19.303 59.8534C20.2616 59.2999 20.5012 58.4851 20.0486 57.7933C20.0414 57.781 20.0362 57.7697 20.0314 57.7593ZM62.147 32.1657C60.8422 31.4124 58.712 31.4124 57.4072 32.1657C56.1025 32.919 56.1025 34.1489 57.4072 34.9022C58.712 35.6555 60.8422 35.6555 62.147 34.9022C63.4517 34.1489 63.4517 32.919 62.147 32.1657ZM82.0112 67.0328C82.5172 67.3249 82.9432 67.6631 83.2095 68.0321L83.2361 68.0167L96.7363 65.9413L101.662 55.3182L88.1622 47.5238L74.4223 49.6454C74.4223 49.7991 74.4223 49.9528 74.3957 50.1219C74.3957 50.1527 74.3691 50.1988 74.3691 50.1988C74.2359 50.9214 73.6768 51.6132 72.7714 52.1359C71.5998 52.8123 70.0288 53.1352 68.4577 53.089L66.1145 58.1623L64.7831 61.0218L74.662 66.7253C76.8455 65.7722 80.0142 65.8798 82.0112 67.0328ZM80.3869 67.9706C79.1354 67.248 77.1117 67.2173 75.807 67.9091L75.7803 67.8937L75.5673 68.0167L75.4874 68.0628L75.4076 68.109C74.3691 68.893 74.449 69.9845 75.6472 70.6763C76.0732 70.9223 76.5525 71.076 77.1384 71.1683C78.2833 71.3374 79.5082 71.1529 80.3603 70.661C81.1325 70.2151 81.4787 69.5848 81.2923 68.9545C81.1858 68.5855 80.8662 68.2473 80.3869 67.9706ZM75.5141 72.2598C75.4076 72.229 75.2744 72.1829 75.2744 72.1829L75.301 72.1983C74.875 72.0446 74.4756 71.8755 74.1028 71.6602C72.2655 70.5995 71.946 68.9699 73.1975 67.7246L63.2121 61.9595L49.4722 64.0811C49.5521 64.9881 48.9663 65.9105 47.8213 66.5716C46.6763 67.2327 45.0786 67.5709 43.5076 67.5248L39.833 75.4575L53.3332 83.2519L71.7596 80.3924L75.5141 72.2598ZM46.1437 62.8973C45.2117 62.3593 43.8537 62.1902 42.6821 62.4361L42.6555 62.4208C42.2028 62.4976 41.7768 62.6514 41.404 62.8666C40.0992 63.6199 40.0992 64.8498 41.404 65.6031C41.83 65.849 42.3093 66.0028 42.8951 66.095C43.4277 66.1873 43.9602 66.1873 44.4928 66.1258C45.1052 66.0489 45.6644 65.8798 46.1171 65.6184C46.9692 65.1265 47.2887 64.4193 46.9958 63.7582C46.8627 63.4354 46.5698 63.1433 46.1437 62.8973ZM62.573 60.6682L48.8331 62.7897L48.8597 62.7436C48.5935 62.4361 48.2207 62.1594 47.7946 61.9134C46.4899 61.1601 44.6526 60.8373 42.9218 61.0064C42.4691 61.0525 42.0164 61.1294 41.5638 61.237C41.319 61.3012 41.0742 61.3869 40.845 61.4672C40.7999 61.483 40.7554 61.4986 40.7117 61.5137L30.6464 55.7025L35.5725 45.0794L54.0255 42.2046L64.0908 48.0158C62.9724 48.9997 62.8925 50.2449 63.7713 51.275C64.0375 51.5824 64.3837 51.8745 64.8097 52.1205C65.2358 52.3665 65.7151 52.5817 66.2476 52.7354L62.573 60.6682ZM72.0525 49.4455C72.0258 49.3994 72.1057 49.2918 72.1057 49.2918C71.9726 48.9689 71.6797 48.6768 71.2536 48.4309C69.9489 47.6776 67.8187 47.6776 66.5139 48.4309C65.5287 48.9997 65.2624 49.8298 65.7683 50.5217C65.9015 50.7523 66.1677 50.9675 66.4873 51.152C66.8867 51.3826 67.3926 51.5517 67.9252 51.6439L67.9518 51.6593C69.0702 51.8438 70.295 51.6593 71.1471 51.1673C71.9193 50.7215 72.2655 50.0605 72.0525 49.4455ZM62.7599 51.0513C62.8747 50.8076 62.7555 50.5469 62.4472 50.3677L53.401 45.107C53.0927 44.9277 52.6422 44.857 52.2191 44.9215L39.8051 46.8143C39.382 46.8788 39.0507 47.0687 38.9359 47.3125L35.568 54.4659C35.4532 54.7097 35.5725 54.9703 35.8807 55.1496L44.9269 60.4102C45.2352 60.5895 45.6857 60.6602 46.1088 60.5957L58.5229 58.7029C58.9459 58.6384 59.2772 58.4485 59.392 58.2048L62.7599 51.0513ZM97.2908 55.4444C97.5991 55.6237 97.7183 55.8843 97.6035 56.1281L94.2356 63.2815C94.1208 63.5253 93.7895 63.7152 93.3665 63.7797L80.9524 65.6724C80.5293 65.737 80.0788 65.6662 79.7705 65.487L70.7244 60.2263C70.4161 60.047 70.2969 59.7864 70.4116 59.5426L73.7795 52.3892C73.8943 52.1454 74.2256 51.9555 74.6487 51.891L87.0627 49.9983C87.4858 49.9338 87.9363 50.0045 88.2446 50.1837L97.2908 55.4444ZM71.9336 70.9486C72.0483 70.7048 71.9291 70.4442 71.6208 70.265L62.5746 65.0043C62.2664 64.825 61.8158 64.7543 61.3928 64.8188L48.9787 66.7116C48.5557 66.7761 48.2243 66.966 48.1096 67.2098L44.7417 74.3632C44.6269 74.607 44.7461 74.8676 45.0544 75.0469L54.1006 80.3075C54.4089 80.4868 54.8594 80.5575 55.2824 80.493L67.6965 78.6002C68.1196 78.5357 68.4509 78.3458 68.5657 78.102L71.9336 70.9486Z" fill="#284C59"/>
<defs>
<filter id="filter0_f_710_30230" x="9.25488" y="48.2695" width="96.8516" height="58.3672" filterUnits="userSpaceOnUse" color-interpolation-filters="sRGB">
<feFlood flood-opacity="0" result="BackgroundImageFix"/>
<feBlend mode="normal" in="SourceGraphic" in2="BackgroundImageFix" result="shape"/>
<feGaussianBlur stdDeviation="1" result="effect1_foregroundBlur_710_30230"/>
</filter>
<linearGradient id="paint0_linear_710_30230" x1="57.4588" y1="43.691" x2="57.4588" y2="104.325" gradientUnits="userSpaceOnUse">
<stop offset="0.317708" stop-color="#397489"/>
<stop offset="1" stop-color="#23B5E9" stop-opacity="0"/>
</linearGradient>
</defs>
</svg>
