<svg width="120" height="121" viewBox="0 0 120 121" fill="none" xmlns="http://www.w3.org/2000/svg">
<g opacity="0.3" filter="url(#filter0_f_709_30047)">
<path d="M72.3511 79.0836C72.3523 75.7369 67.6147 73.0017 61.815 73.0006C55.9902 73.0176 51.2793 75.7375 51.2502 79.1003C51.252 82.4487 55.9896 85.184 61.7862 85.1833C67.6138 85.1682 72.3247 82.4484 72.3511 79.0836ZM86.1219 84.041C87.2928 83.365 89.1342 83.3659 90.3042 84.0414L97.4121 88.1451C98.3596 87.5981 99.3075 87.0509 100.2 86.504C101.873 85.5383 103.376 84.6038 104.881 83.7348C106.052 83.0588 106.082 81.9496 104.882 81.2566C95.7126 75.9629 91.3645 70.4267 91.1975 63.7962C91.1693 62.8464 89.8568 62.0887 88.2149 62.0742C76.7274 61.976 67.1385 59.4656 57.9695 54.1719C56.7692 53.4789 54.8481 53.496 53.6772 54.1721C52.1719 55.0411 50.5806 55.9249 48.8808 56.8748C47.9336 57.3901 46.9858 57.9374 46.0382 58.4844L53.2007 62.6197C54.3464 63.2812 54.3722 64.3583 53.2013 65.0343C52.0307 65.7102 50.1651 65.6953 49.0193 65.0338L41.8569 60.8985C40.4911 61.6871 39.1237 62.5395 37.8149 63.3932L46.1504 68.2056C47.2931 68.8654 47.3189 69.9425 46.1483 70.6184C44.9774 71.2944 43.112 71.2793 41.9693 70.6196L33.9976 66.0171C32.7703 66.9182 31.5979 67.8506 30.483 68.8162L39.7945 74.1922C40.9645 74.8677 40.966 75.9308 39.7951 76.6069C38.6245 77.2827 36.7831 77.2818 35.6131 76.6063L27.4444 71.8901C21.6759 78.409 19.753 86.3757 27.6417 96.4021L48.2694 84.4927C46.4286 82.9795 45.3699 81.1128 45.3402 79.0999C45.3402 73.8534 52.7272 69.5885 61.8144 69.5885C70.8737 69.6046 78.2332 73.8536 78.2611 79.084C78.2611 84.3305 70.8741 88.5954 61.7869 88.5954C58.3035 88.58 55.0703 87.9687 52.4493 86.9059L31.8494 98.7993C49.1308 103.305 62.9017 102.211 74.1928 98.8803L66.0513 94.1798C64.9086 93.5201 64.9107 92.4269 66.0534 91.7671C67.1964 91.1072 69.0899 91.1059 70.2327 91.7657L79.5169 97.1259C81.1894 96.4823 82.8044 95.8054 84.3402 95.1147L76.4509 90.5276C75.2779 89.8503 75.307 88.773 76.45 88.1131C77.5927 87.4533 79.459 87.4364 80.632 88.1136L88.9099 92.8929C90.3885 92.1372 91.8649 91.3478 93.2307 90.5593L86.1228 86.4555C84.9528 85.78 84.9792 84.7008 86.1219 84.041ZM72.3511 79.0836C72.3523 75.7369 67.6147 73.0017 61.815 73.0006C55.9902 73.0176 51.2793 75.7375 51.2502 79.1003C51.252 82.4487 55.9896 85.184 61.7862 85.1833C67.6138 85.1682 72.3247 82.4484 72.3511 79.0836ZM72.3511 79.0836C72.3523 75.7369 67.6147 73.0017 61.815 73.0006C55.9902 73.0176 51.2793 75.7375 51.2502 79.1003C51.252 82.4487 55.9896 85.184 61.7862 85.1833C67.6138 85.1682 72.3247 82.4484 72.3511 79.0836ZM72.3511 79.0836C72.3523 75.7369 67.6147 73.0017 61.815 73.0006C55.9902 73.0176 51.2793 75.7375 51.2502 79.1003C51.252 82.4487 55.9896 85.184 61.7862 85.1833C67.6138 85.1682 72.3247 82.4484 72.3511 79.0836Z" fill="#AECAD3"/>
</g>
<path opacity="0.2" d="M105.675 83.293V43.8633C100.775 47.3494 87.4193 55.5362 73.1992 60.394C55.424 66.4663 29.2567 60.8656 28.3056 58.3095C23.3718 53.0785 22.4866 47.3126 22.1921 43.8633V82.5853C22.1921 92.3892 30.3035 97.77 34.3592 99.2349C58.7494 111.248 92.0658 93.6124 105.675 83.293Z" fill="url(#paint0_linear_709_30047)"/>
<path d="M72.3511 40.4938C72.3523 37.1471 67.6147 34.4119 61.815 34.4108C55.9902 34.4278 51.2793 37.1476 51.2502 40.5104C51.252 43.8589 55.9896 46.5941 61.7862 46.5934C67.6138 46.5784 72.3247 43.8585 72.3511 40.4938ZM86.1219 45.4512C87.2928 44.7752 89.1342 44.776 90.3042 45.4515L97.4121 49.5553C98.3596 49.0082 99.3075 48.461 100.2 47.9141C101.873 46.9485 103.376 46.014 104.881 45.1449C106.052 44.4689 106.082 43.3598 104.882 42.6668C95.7126 37.373 91.3645 31.8369 91.1975 25.2063C91.1693 24.2566 89.8568 23.4989 88.2149 23.4843C76.7274 23.3862 67.1385 20.8758 57.9695 15.582C56.7692 14.889 54.8481 14.9062 53.6772 15.5822C52.1719 16.4513 50.5806 17.335 48.8808 18.2849C47.9336 18.8003 46.9858 19.3475 46.0382 19.8946L53.2007 24.0298C54.3464 24.6913 54.3722 25.7684 53.2013 26.4445C52.0307 27.1203 50.1651 27.1054 49.0193 26.4439L41.8569 22.3087C40.4911 23.0972 39.1237 23.9497 37.8149 24.8033L46.1504 29.6158C47.2931 30.2756 47.3189 31.3527 46.1483 32.0285C44.9774 32.7046 43.112 32.6895 41.9693 32.0297L33.9976 27.4273C32.7703 28.3283 31.5979 29.2607 30.483 30.2264L39.7945 35.6024C40.9645 36.2779 40.966 37.341 39.7951 38.017C38.6245 38.6929 36.7831 38.692 35.6131 38.0165L27.4444 33.3003C21.6759 39.8192 19.753 47.7859 27.6417 57.8123L48.2694 45.9029C46.4286 44.3896 45.3699 42.5229 45.3402 40.5101C45.3402 35.2636 52.7272 30.9986 61.8144 30.9986C70.8737 31.0147 78.2332 35.2638 78.2611 40.4942C78.2611 45.7406 70.8741 50.0056 61.7869 50.0056C58.3035 49.9902 55.0703 49.3789 52.4493 48.3161L31.8494 60.2094C49.1308 64.715 62.9017 63.6209 74.1928 60.2905L66.0513 55.59C64.9086 54.9302 64.9107 53.837 66.0534 53.1773C67.1964 52.5173 69.0899 52.5161 70.2327 53.1759L79.5169 58.5361C81.1894 57.8925 82.8044 57.2155 84.3402 56.5248L76.4509 51.9377C75.2779 51.2605 75.307 50.1832 76.45 49.5232C77.5927 48.8635 79.459 48.8465 80.632 49.5238L88.9099 54.303C90.3885 53.5474 91.8649 52.758 93.2307 51.9694L86.1228 47.8657C84.9528 47.1902 84.9792 46.1109 86.1219 45.4512ZM72.3511 40.4938C72.3523 37.1471 67.6147 34.4119 61.815 34.4108C55.9902 34.4278 51.2793 37.1476 51.2502 40.5104C51.252 43.8589 55.9896 46.5941 61.7862 46.5934C67.6138 46.5784 72.3247 43.8585 72.3511 40.4938ZM72.3511 40.4938C72.3523 37.1471 67.6147 34.4119 61.815 34.4108C55.9902 34.4278 51.2793 37.1476 51.2502 40.5104C51.252 43.8589 55.9896 46.5941 61.7862 46.5934C67.6138 46.5784 72.3247 43.8585 72.3511 40.4938ZM72.3511 40.4938C72.3523 37.1471 67.6147 34.4119 61.815 34.4108C55.9902 34.4278 51.2793 37.1476 51.2502 40.5104C51.252 43.8589 55.9896 46.5941 61.7862 46.5934C67.6138 46.5784 72.3247 43.8585 72.3511 40.4938Z" fill="#284C59"/>
<defs>
<filter id="filter0_f_709_30047" x="20.4014" y="51.6602" width="87.3694" height="52.1289" filterUnits="userSpaceOnUse" color-interpolation-filters="sRGB">
<feFlood flood-opacity="0" result="BackgroundImageFix"/>
<feBlend mode="normal" in="SourceGraphic" in2="BackgroundImageFix" result="shape"/>
<feGaussianBlur stdDeviation="1" result="effect1_foregroundBlur_709_30047"/>
</filter>
<linearGradient id="paint0_linear_709_30047" x1="64.1566" y1="31.6451" x2="64.1566" y2="103.102" gradientUnits="userSpaceOnUse">
<stop offset="0.317708" stop-color="#397489"/>
<stop offset="1" stop-color="#23B5E9" stop-opacity="0"/>
</linearGradient>
</defs>
</svg>
