<svg width="120" height="120" viewBox="0 0 120 120" fill="none" xmlns="http://www.w3.org/2000/svg">
<g opacity="0.3" filter="url(#filter0_f_709_29703)">
<path fill-rule="evenodd" clip-rule="evenodd" d="M73.3391 48.1257L93.8838 59.9872L74.8319 70.9868C73.6831 71.65 73.6831 72.7252 74.8319 73.3885L93.7774 84.3267L61.9137 102.723C59.8911 103.891 57.1479 104.547 54.2872 104.547C51.4271 104.547 48.6836 103.891 46.661 102.723L12.7173 83.1257C10.6947 81.9579 9.55863 80.3741 9.55833 78.7227C9.55863 77.0712 10.6947 75.4874 12.7173 74.3197L58.0867 48.1257C60.1093 46.9579 62.8525 46.302 65.7129 46.3018C68.5733 46.302 71.3165 46.9579 73.3391 48.1257ZM96.7188 63.1538L96.7191 81.2217L81.0717 72.1876L96.7188 63.1538ZM56.536 89.4995L69.1817 82.1985C69.5108 82.0477 69.7809 81.8585 69.9746 81.6431C70.168 81.4278 70.2807 81.1912 70.305 80.949C70.3292 80.7068 70.2641 80.4644 70.1143 80.2376C69.9649 80.011 69.7336 79.805 69.4366 79.6335C69.1395 79.462 68.7831 79.3287 68.3903 79.2422C67.9974 79.1558 67.5779 79.1183 67.1581 79.1322C66.7386 79.1462 66.3288 79.2113 65.956 79.3229C65.5829 79.4347 65.2552 79.5907 64.9942 79.7809L52.3485 87.0819C52.019 87.2326 51.7487 87.4219 51.5553 87.6372C51.3616 87.8526 51.2491 88.089 51.2249 88.3312C51.2009 88.5736 51.2655 88.816 51.4152 89.0428C51.565 89.2696 51.7959 89.4754 52.093 89.6469C52.39 89.8184 52.7468 89.9519 53.1393 90.0382C53.5322 90.1246 53.9523 90.1621 54.3718 90.1481C54.7913 90.1341 55.2008 90.0691 55.5739 89.9573C55.9467 89.8457 56.2747 89.6896 56.536 89.4995ZM39.9253 82.1829C41.5875 83.1426 43.8418 83.6818 46.1927 83.6818C48.5433 83.6816 50.7978 83.1426 52.4601 82.1829L56.6475 79.7653C58.3098 78.8056 59.2433 77.504 59.2436 76.1468C59.2436 74.7895 58.3097 73.4881 56.6475 72.5284C54.9853 71.5687 52.731 71.0295 50.3801 71.0295C48.0292 71.0295 45.775 71.5687 44.1127 72.5284L39.9253 74.946C38.263 75.9057 37.3292 77.2072 37.3292 78.5645C37.3292 79.9218 38.263 81.2232 39.9253 82.1829ZM48.3002 74.946C48.8731 74.6835 49.5932 74.5519 50.3234 74.5762C51.0539 74.6004 51.7429 74.7787 52.2603 75.0774C52.7774 75.376 53.0863 75.7737 53.1281 76.1955C53.1702 76.6171 52.9423 77.0329 52.4876 77.3636L48.3002 79.7812C47.7273 80.0437 47.0071 80.1753 46.2769 80.151C45.5464 80.1269 44.8575 79.9485 44.3404 79.65C43.823 79.3513 43.5141 78.9535 43.4723 78.5317C43.4301 78.1102 43.6581 77.6944 44.1127 77.3636L48.3002 74.946Z" fill="#AECAD3"/>
</g>
<path opacity="0.2" d="M9.54883 79.9844V60.1465L93.3255 41.6484L96.4398 45.4031L97.0524 66.9383V79.9844C90.3357 84.8351 74.7008 95.7679 65.8945 100.693C57.0882 105.619 51.1551 104.985 49.2894 104.052L9.54883 79.9844Z" fill="url(#paint0_linear_709_29703)"/>
<path fill-rule="evenodd" clip-rule="evenodd" d="M73.3391 30.2819L93.8838 42.1434L74.8319 53.143C73.6831 53.8063 73.6831 54.8815 74.8319 55.5447L93.7774 66.4829L61.9137 84.8795C59.8911 86.0472 57.1479 86.7031 54.2872 86.7031C51.4271 86.7031 48.6836 86.0471 46.661 84.8793L12.7173 65.2819C10.6947 64.1141 9.55863 62.5304 9.55833 60.8789C9.55863 59.2274 10.6947 57.6437 12.7173 56.4759L58.0867 30.2819C60.1093 29.1141 62.8525 28.4582 65.7129 28.4581C68.5733 28.4582 71.3165 29.1141 73.3391 30.2819ZM96.7188 45.31L96.7191 63.3779L81.0717 54.3439L96.7188 45.31ZM56.536 71.6558L69.1817 64.3548C69.5108 64.2039 69.7809 64.0147 69.9746 63.7993C70.168 63.5841 70.2807 63.3475 70.305 63.1053C70.3292 62.8631 70.2641 62.6207 70.1143 62.3939C69.9649 62.1673 69.7336 61.9613 69.4366 61.7898C69.1395 61.6183 68.7831 61.4849 68.3903 61.3985C67.9974 61.312 67.5779 61.2746 67.1581 61.2884C66.7386 61.3024 66.3288 61.3675 65.956 61.4792C65.5829 61.591 65.2552 61.7469 64.9942 61.9371L52.3485 69.2381C52.019 69.3888 51.7487 69.5782 51.5553 69.7934C51.3616 70.0088 51.2491 70.2453 51.2249 70.4875C51.2009 70.7298 51.2655 70.9722 51.4152 71.199C51.565 71.4258 51.7959 71.6316 52.093 71.8031C52.39 71.9746 52.7468 72.1081 53.1393 72.1944C53.5322 72.2809 53.9523 72.3183 54.3718 72.3043C54.7913 72.2903 55.2008 72.2254 55.5739 72.1136C55.9467 72.0019 56.2747 71.8458 56.536 71.6558ZM39.9253 64.3392C41.5875 65.2989 43.8418 65.8381 46.1927 65.8381C48.5433 65.8379 50.7978 65.2989 52.4601 64.3392L56.6475 61.9216C58.3098 60.9619 59.2433 59.6602 59.2436 58.3031C59.2436 56.9458 58.3097 55.6443 56.6475 54.6846C54.9853 53.7249 52.731 53.1857 50.3801 53.1857C48.0292 53.1857 45.775 53.7249 44.1127 54.6846L39.9253 57.1022C38.263 58.0619 37.3292 59.3634 37.3292 60.7207C37.3292 62.078 38.263 63.3795 39.9253 64.3392ZM48.3002 57.1022C48.8731 56.8397 49.5932 56.7081 50.3234 56.7325C51.0539 56.7566 51.7429 56.9349 52.2603 57.2337C52.7774 57.5322 53.0863 57.93 53.1281 58.3517C53.1702 58.7733 52.9423 59.1891 52.4876 59.5199L48.3002 61.9375C47.7273 62.2 47.0071 62.3316 46.2769 62.3073C45.5464 62.2831 44.8575 62.1048 44.3404 61.8062C43.823 61.5075 43.5141 61.1097 43.4723 60.688C43.4301 60.2664 43.6581 59.8506 44.1127 59.5199L48.3002 57.1022Z" fill="#284C59"/>
<defs>
<filter id="filter0_f_709_29703" x="7.55835" y="44.3008" width="91.1606" height="62.2461" filterUnits="userSpaceOnUse" color-interpolation-filters="sRGB">
<feFlood flood-opacity="0" result="BackgroundImageFix"/>
<feBlend mode="normal" in="SourceGraphic" in2="BackgroundImageFix" result="shape"/>
<feGaussianBlur stdDeviation="1" result="effect1_foregroundBlur_709_29703"/>
</filter>
<linearGradient id="paint0_linear_709_29703" x1="53.5343" y1="13.0079" x2="53.5343" y2="104.481" gradientUnits="userSpaceOnUse">
<stop offset="0.317708" stop-color="#397489"/>
<stop offset="1" stop-color="#23B5E9" stop-opacity="0"/>
</linearGradient>
</defs>
</svg>
