<svg width="120" height="120" viewBox="0 0 120 120" fill="none" xmlns="http://www.w3.org/2000/svg">
<g clip-path="url(#clip0_716_29658)">
<g opacity="0.3" filter="url(#filter0_f_716_29658)">
<path fill-rule="evenodd" clip-rule="evenodd" d="M84.7441 58.438L54.4442 75.9316C52.7684 76.9 50.0398 76.9004 48.3627 75.9321L27.2806 63.7603C25.604 62.7924 25.6046 61.2171 27.2812 60.2491L57.5811 42.7554C59.2576 41.7875 61.9856 41.7875 63.6621 42.7554L84.7442 54.9272C86.4208 55.8952 86.4206 57.47 84.7441 58.438ZM24.1233 89.9267L3.04123 77.7549C1.36471 76.787 1.36473 75.212 3.04206 74.2436L13.6467 68.1209C15.3231 67.1531 18.0519 67.1526 19.7284 68.1206L40.8105 80.2923C42.4871 81.2603 42.4869 82.8352 40.8097 83.8035L30.205 89.9261C28.5285 90.895 25.8005 90.895 24.1233 89.9267ZM63.6629 109.244L93.9627 91.7505C95.6393 90.7825 95.6387 89.2072 93.9621 88.2392L72.8801 76.0675C71.2029 75.0992 68.475 75.0992 66.7984 76.0671L36.4986 93.5608C34.8214 94.5291 34.8222 96.1045 36.4985 97.0724L57.58 109.244C59.2572 110.212 61.9852 110.212 63.6629 109.244ZM101.515 83.8778L80.4338 71.7063C78.7574 70.7385 78.7566 69.163 80.4338 68.1947L91.0385 62.0721C92.715 61.1042 95.443 61.1042 97.1202 62.0725L118.202 74.2442C119.879 75.2122 119.879 76.7872 118.202 77.7551L107.597 83.8781C105.92 84.8461 103.192 84.8461 101.515 83.8778Z" fill="#AECAD3"/>
</g>
<path opacity="0.2" d="M1.88867 75.7422V44.1211L56.43 76.5225L62.3702 78.1426L119.612 44.1211V75.7422L59.9401 108.953L1.88867 75.7422Z" fill="url(#paint0_linear_716_29658)"/>
<path fill-rule="evenodd" clip-rule="evenodd" d="M84.7441 26.438L54.4442 43.9316C52.7684 44.9 50.0398 44.9004 48.3627 43.9321L27.2806 31.7603C25.604 30.7924 25.6046 29.2171 27.2812 28.2491L57.5811 10.7554C59.2576 9.78749 61.9856 9.78749 63.6621 10.7554L84.7442 22.9272C86.4208 23.8952 86.4206 25.47 84.7441 26.438ZM24.1233 57.9267L3.04123 45.7549C1.36471 44.787 1.36473 43.212 3.04206 42.2436L13.6467 36.1209C15.3231 35.1531 18.0519 35.1526 19.7284 36.1206L40.8105 48.2923C42.4871 49.2603 42.4869 50.8352 40.8097 51.8035L30.205 57.9261C28.5285 58.895 25.8005 58.895 24.1233 57.9267ZM63.6629 77.2441L93.9627 59.7505C95.6393 58.7825 95.6387 57.2072 93.9621 56.2392L72.8801 44.0675C71.2029 43.0992 68.475 43.0992 66.7984 44.0671L36.4986 61.5608C34.8214 62.5291 34.8222 64.1045 36.4985 65.0724L57.58 77.2438C59.2572 78.2121 61.9852 78.2121 63.6629 77.2441ZM101.515 51.8778L80.4338 39.7063C78.7574 38.7385 78.7566 37.163 80.4338 36.1947L91.0385 30.0721C92.715 29.1042 95.443 29.1042 97.1202 30.0725L118.202 42.2442C119.879 43.2122 119.879 44.7872 118.202 45.7551L107.597 51.8781C105.92 52.8461 103.192 52.8461 101.515 51.8778Z" fill="#284C59"/>
</g>
<defs>
<filter id="filter0_f_716_29658" x="-0.216064" y="40.0312" width="121.676" height="71.9375" filterUnits="userSpaceOnUse" color-interpolation-filters="sRGB">
<feFlood flood-opacity="0" result="BackgroundImageFix"/>
<feBlend mode="normal" in="SourceGraphic" in2="BackgroundImageFix" result="shape"/>
<feGaussianBlur stdDeviation="1" result="effect1_foregroundBlur_716_29658"/>
</filter>
<linearGradient id="paint0_linear_716_29658" x1="61.0645" y1="34.4046" x2="61.0645" y2="108.776" gradientUnits="userSpaceOnUse">
<stop offset="0.317708" stop-color="#397489"/>
<stop offset="1" stop-color="#23B5E9" stop-opacity="0"/>
</linearGradient>
<clipPath id="clip0_716_29658">
<rect width="120" height="120" fill="white"/>
</clipPath>
</defs>
</svg>
