<svg width="120" height="120" viewBox="0 0 120 120" fill="none" xmlns="http://www.w3.org/2000/svg">
<g clip-path="url(#clip0_710_30219)">
<g opacity="0.3" filter="url(#filter0_f_710_30219)">
<path fill-rule="evenodd" clip-rule="evenodd" d="M75.6872 49.1514C71.4922 46.7294 65.8028 45.3689 59.8703 45.3689C53.9379 45.3689 48.2486 46.7294 44.0535 49.1514L15.0654 65.8877C10.8704 68.3097 8.514 71.5944 8.514 75.0195C8.514 78.4446 10.8704 81.7294 15.0654 84.1514L44.0535 100.888C48.2486 103.31 53.9379 104.67 59.8704 104.67C65.8028 104.67 71.4922 103.31 75.6872 100.888L104.675 84.1514C108.87 81.7294 111.227 78.4446 111.227 75.0195C111.227 71.5944 108.87 68.3097 104.675 65.8877L75.6872 49.1514ZM52.3266 70.6183C52.9552 72.4425 54.5065 74.1183 56.7847 75.4336C59.1411 76.794 62.1452 77.6948 65.3788 78.0353L65.3788 82.3998C65.376 82.6215 65.4506 82.8413 65.5973 83.0461C65.744 83.2512 65.9601 83.4369 66.2329 83.593C66.499 83.7536 66.8203 83.8807 67.1759 83.9655C67.532 84.0504 67.9149 84.0915 68.2995 84.0861C68.6848 84.0891 69.0667 84.0474 69.4231 83.9638C69.7799 83.88 70.1039 83.7559 70.3761 83.5987C70.6483 83.4416 70.8632 83.2545 71.0084 83.0485C71.1533 82.8427 71.2254 82.6222 71.2203 82.3998L71.2203 78.036C74.4563 77.6958 77.4628 76.7951 79.821 75.4336C82.0992 74.1183 83.6505 72.4425 84.2791 70.6183C84.9074 68.7939 84.5849 66.9032 83.3522 65.1845C82.1192 63.466 80.0313 61.9974 77.3528 60.964C74.6739 59.9305 71.5246 59.3789 68.3029 59.3791C65.0814 59.3791 61.9318 59.9305 59.2532 60.9639C56.5744 61.9974 54.4868 63.4662 53.2538 65.1847C52.0211 66.903 51.6982 68.7939 52.3266 70.6183ZM69.0828 74.7964C69.5035 74.7782 69.9236 74.7453 70.3403 74.6975C72.3663 74.4648 74.2271 73.8906 75.6878 73.0473C77.6465 71.9164 78.7468 70.3827 78.7468 68.7836C78.7468 67.1844 77.6465 65.6507 75.6878 64.5199C74.2271 63.6766 72.3663 63.1024 70.3403 62.8696C68.3147 62.6371 66.2147 62.7564 64.3064 63.2128C62.398 63.6692 60.7667 64.442 59.6194 65.4337C58.4718 66.4253 57.8592 67.591 57.8589 68.7836C57.8592 69.9762 58.4718 71.1419 59.6194 72.1334C60.767 73.125 62.398 73.898 64.3064 74.3544C65.3348 74.6002 66.4193 74.7483 67.5178 74.7962C67.7715 74.7555 68.0349 74.7346 68.2995 74.7348C68.5647 74.7346 68.8284 74.7556 69.0828 74.7964ZM36.6428 71.7273L65.5761 88.4319C66.7173 89.0908 66.7173 90.1593 65.5761 90.8182C64.4346 91.4772 62.5841 91.4771 61.4429 90.8182L32.5096 74.1136C31.3681 73.4545 31.3681 72.3863 32.5096 71.7273C33.6508 71.0684 35.5013 71.0682 36.6428 71.7273ZM28.4037 76.4841L49.0703 88.416C50.2115 89.0748 50.2118 90.1432 49.0703 90.8023C47.9291 91.4611 46.0783 91.4611 44.9371 90.8023L24.2705 78.8704C23.129 78.2114 23.1293 77.143 24.2705 76.4841C25.412 75.8251 27.2622 75.8251 28.4037 76.4841Z" fill="#AECAD3"/>
</g>
<path opacity="0.2" d="M110.938 56.7227V75.4329C110.938 75.4329 110.938 82.416 88.7341 93.3128C68.1458 107.415 60.5068 104.945 60.5068 104.945C59.5729 104.447 51.1663 106.359 35.8517 95.4189C9.53764 82.6445 10.5911 80.3827 9.15918 76.3979L9.70262 56.7227L60.5068 74.0397L110.938 56.7227Z" fill="url(#paint0_linear_710_30219)"/>
<path d="M68.2935 30.2227L18.5938 56.9238L54.5469 80.8486L97.902 51.6367L68.2935 30.2227Z" fill="#D3E4EA"/>
<path fill-rule="evenodd" clip-rule="evenodd" d="M75.6872 29.1162C71.4922 26.6942 65.8028 25.3338 59.8703 25.3338C53.9379 25.3338 48.2486 26.6942 44.0535 29.1162L15.0654 45.8525C10.8704 48.2745 8.514 51.5593 8.514 54.9844C8.514 58.4095 10.8704 61.6942 15.0654 64.1162L44.0535 80.8525C48.2486 83.2745 53.9379 84.635 59.8704 84.635C65.8028 84.635 71.4922 83.2745 75.6872 80.8525L104.675 64.1162C108.87 61.6942 111.227 58.4095 111.227 54.9844C111.227 51.5593 108.87 48.2745 104.675 45.8525L75.6872 29.1162ZM52.3266 50.5831C52.9552 52.4073 54.5065 54.0831 56.7847 55.3984C59.1411 56.7589 62.1452 57.6596 65.3788 58.0002L65.3788 62.3647C65.376 62.5864 65.4506 62.8062 65.5973 63.0109C65.744 63.216 65.9601 63.4017 66.2329 63.5578C66.499 63.7185 66.8203 63.8455 67.1759 63.9304C67.532 64.0153 67.9149 64.0564 68.2995 64.051C68.6848 64.0539 69.0667 64.0123 69.4231 63.9286C69.7799 63.8448 70.1039 63.7207 70.3761 63.5636C70.6483 63.4064 70.8632 63.2194 71.0084 63.0134C71.1533 62.8076 71.2254 62.5871 71.2203 62.3647L71.2203 58.0009C74.4563 57.6607 77.4628 56.7599 79.821 55.3984C82.0992 54.0831 83.6505 52.4073 84.2791 50.5831C84.9074 48.7587 84.5849 46.868 83.3522 45.1494C82.1192 43.4309 80.0313 41.9623 77.3528 40.9289C74.6739 39.8953 71.5246 39.3438 68.3029 39.3439C65.0814 39.3439 61.9318 39.8954 59.2532 40.9287C56.5744 41.9623 54.4868 43.4311 53.2538 45.1496C52.0211 46.8679 51.6982 48.7588 52.3266 50.5831ZM69.0828 54.7613C69.5035 54.7431 69.9236 54.7102 70.3403 54.6624C72.3663 54.4296 74.2271 53.8555 75.6878 53.0121C77.6465 51.8813 78.7468 50.3476 78.7468 48.7484C78.7468 47.1493 77.6465 45.6156 75.6878 44.4847C74.2271 43.6414 72.3663 43.0672 70.3403 42.8345C68.3147 42.6019 66.2147 42.7212 64.3064 43.1776C62.398 43.634 60.7667 44.4069 59.6194 45.3986C58.4718 46.3901 57.8592 47.5558 57.8589 48.7484C57.8592 49.941 58.4718 51.1067 59.6194 52.0983C60.767 53.0898 62.398 53.8628 64.3064 54.3192C65.3348 54.5651 66.4193 54.7131 67.5178 54.7611C67.7715 54.7203 68.0349 54.6995 68.2995 54.6996C68.5647 54.6995 68.8284 54.7205 69.0828 54.7613ZM36.6428 51.6921L65.5761 68.3967C66.7173 69.0556 66.7173 70.1242 65.5761 70.783C64.4346 71.4421 62.5841 71.4419 61.4429 70.783L32.5096 54.0784C31.3681 53.4194 31.3681 52.3511 32.5096 51.6921C33.6508 51.0332 35.5013 51.033 36.6428 51.6921ZM28.4037 56.449L49.0703 68.3808C50.2115 69.0397 50.2118 70.1081 49.0703 70.7671C47.9291 71.426 46.0783 71.426 44.9371 70.7671L24.2705 58.8352C23.129 58.1762 23.1293 57.1078 24.2705 56.449C25.412 55.7899 27.2622 55.7899 28.4037 56.449Z" fill="#284C59"/>
</g>
<defs>
<filter id="filter0_f_710_30219" x="6.51392" y="43.3672" width="106.713" height="63.3047" filterUnits="userSpaceOnUse" color-interpolation-filters="sRGB">
<feFlood flood-opacity="0" result="BackgroundImageFix"/>
<feBlend mode="normal" in="SourceGraphic" in2="BackgroundImageFix" result="shape"/>
<feGaussianBlur stdDeviation="1" result="effect1_foregroundBlur_710_30219"/>
</filter>
<linearGradient id="paint0_linear_710_30219" x1="60.3202" y1="34.7144" x2="60.3202" y2="104.944" gradientUnits="userSpaceOnUse">
<stop offset="0.317708" stop-color="#397489"/>
<stop offset="1" stop-color="#23B5E9" stop-opacity="0"/>
</linearGradient>
<clipPath id="clip0_710_30219">
<rect width="120" height="120" fill="white"/>
</clipPath>
</defs>
</svg>
