<svg width="49" height="40" viewBox="0 0 49 40" fill="none" xmlns="http://www.w3.org/2000/svg">
<path d="M40.3822 2.14062H9.12638C5.42736 2.14062 2.42871 5.13928 2.42871 8.8383V31.1639C2.42871 34.8629 5.42736 37.8616 9.12638 37.8616H40.3822C44.0812 37.8616 47.0799 34.8629 47.0799 31.1639V8.8383C47.0799 5.13928 44.0812 2.14062 40.3822 2.14062Z" fill="white"/>
<path d="M46.7678 6.829L25.8933 19.309C25.2012 19.7332 24.3082 19.7332 23.6161 19.309L2.7417 6.829C3.59007 4.10528 6.11286 2.14062 9.12682 2.14062H40.3826C43.3966 2.14062 45.9194 4.10528 46.7678 6.829Z" fill="#EAF9FF"/>
<path d="M40.3823 0.464844H9.12649C4.50509 0.464844 0.754395 4.21554 0.754395 8.83694V31.1625C0.754395 35.7839 4.50509 39.5346 9.12649 39.5346H40.3823C45.0037 39.5346 48.7544 35.7839 48.7544 31.1625V8.83694C48.7544 4.21554 45.0037 0.464844 40.3823 0.464844ZM9.12649 3.81368H40.3823C42.1684 3.81368 43.7311 4.75136 44.6242 6.15787L25.0446 17.8788C24.866 17.9904 24.6428 17.9904 24.4642 17.8788L4.88463 6.15787C5.77765 4.75136 7.34044 3.81368 9.12649 3.81368ZM40.3823 36.1858H9.12649C6.35812 36.1858 4.10323 33.9309 4.10323 31.1625V9.59601L22.7451 20.7588C23.3702 21.1383 24.0623 21.3169 24.7544 21.3169C25.4465 21.3169 26.1386 21.1383 26.7637 20.7588L45.4056 9.59601V31.1625C45.4056 33.9309 43.1507 36.1858 40.3823 36.1858Z" fill="#284C59"/>
</svg>
