<svg width="36" height="36" viewBox="0 0 36 36" fill="none" xmlns="http://www.w3.org/2000/svg">
<path fill-rule="evenodd" clip-rule="evenodd" d="M21.9529 2.23758C21.7886 1.91022 21.4498 1.68555 21.0586 1.68555C21.0021 1.68555 20.9468 1.69023 20.8929 1.69922H8.82031C7.75945 1.69922 6.74203 2.12065 5.99189 2.87079C5.24174 3.62094 4.82031 4.63835 4.82031 5.69922V30.2392C4.82031 31.3001 5.24174 32.3175 5.99189 33.0676C6.74203 33.8178 7.75945 34.2392 8.82031 34.2392H27.1803C28.2412 34.2392 29.2586 33.8178 30.0087 33.0676C30.7589 32.3175 31.1803 31.3001 31.1803 30.2392V12.2177C31.218 12.1124 31.2386 11.9989 31.2386 11.8805C31.2386 11.502 31.0283 11.1726 30.7181 11.0028L21.9529 2.23758ZM20.0586 3.69922H8.82031C8.28988 3.69922 7.78117 3.90993 7.4061 4.28501C7.03103 4.66008 6.82031 5.16879 6.82031 5.69922V30.2392C6.82031 30.7697 7.03103 31.2784 7.4061 31.6534C7.78117 32.0285 8.28988 32.2392 8.82031 32.2392H27.1803C27.7107 32.2392 28.2195 32.0285 28.5945 31.6534C28.9696 31.2784 29.1803 30.7697 29.1803 30.2392V12.8805H21.0586C20.5063 12.8805 20.0586 12.4328 20.0586 11.8805V3.69922ZM27.7674 10.8805H22.0586V5.17171L27.7674 10.8805ZM15.7338 26.5645C16.6328 26.5645 17.4951 26.2074 18.1308 25.5716C18.7666 24.9359 19.1238 24.0736 19.1238 23.1745V20.9095C19.1238 20.0104 18.7666 19.1482 18.1308 18.5124C17.4951 17.8767 16.6328 17.5195 15.7338 17.5195C14.8347 17.5195 13.9724 17.8767 13.3367 18.5124C12.7009 19.1482 12.3438 20.0104 12.3438 20.9095V23.1745C12.3438 24.0736 12.7009 24.9359 13.3367 25.5716C13.9724 26.2074 14.8347 26.5645 15.7338 26.5645ZM14.6088 20.9095C14.6408 20.6316 14.7739 20.3752 14.9827 20.1891C15.1915 20.0029 15.4615 19.9001 15.7413 19.9001C16.021 19.9001 16.291 20.0029 16.4998 20.1891C16.7086 20.3752 16.8417 20.6316 16.8738 20.9095V23.1745C16.8417 23.4524 16.7086 23.7089 16.4998 23.895C16.291 24.0811 16.021 24.184 15.7413 24.184C15.4615 24.184 15.1915 24.0811 14.9827 23.895C14.7739 23.7089 14.6408 23.4524 14.6088 23.1745V20.9095ZM23.6553 18.6592V25.4992C23.6737 25.6589 23.6582 25.8206 23.6096 25.9739C23.5611 26.1271 23.4808 26.2683 23.3738 26.3883C23.2669 26.5083 23.1358 26.6043 22.9891 26.67C22.8424 26.7358 22.6835 26.7698 22.5228 26.7698C22.3621 26.7698 22.2032 26.7358 22.0565 26.67C21.9099 26.6043 21.7787 26.5083 21.6718 26.3883C21.5649 26.2683 21.4845 26.1271 21.436 25.9739C21.3875 25.8206 21.3719 25.6589 21.3903 25.4992V18.6592C21.3719 18.4996 21.3875 18.3378 21.436 18.1846C21.4845 18.0313 21.5649 17.8901 21.6718 17.7701C21.7787 17.6502 21.9099 17.5541 22.0565 17.4884C22.2032 17.4227 22.3621 17.3887 22.5228 17.3887C22.6835 17.3887 22.8424 17.4227 22.9891 17.4884C23.1358 17.5541 23.2669 17.6502 23.3738 17.7701C23.4808 17.8901 23.5611 18.0313 23.6096 18.1846C23.6582 18.3378 23.6737 18.4996 23.6553 18.6592Z" fill="url(#paint0_linear_1909_1798)"/>
<defs>
<linearGradient id="paint0_linear_1909_1798" x1="18.0295" y1="1.68555" x2="18.0295" y2="34.2392" gradientUnits="userSpaceOnUse">
<stop stop-color="#0044EE"/>
<stop offset="1" stop-color="#23B5E9"/>
</linearGradient>
</defs>
</svg>
